<svg width="423" height="1073" viewBox="0 0 423 1073" fill="none" xmlns="http://www.w3.org/2000/svg">
<circle cx="259.49" cy="339.975" r="8.85403" stroke="url(#paint0_linear_15_1482)" stroke-width="2"/>
<path d="M326.259 295.742C326.259 295.742 439.005 460.017 419.959 504.408C400.846 548.866 366.549 527.269 366.549 527.269L299.021 371.101C299.021 371.101 312.74 305.444 326.259 295.742Z" fill="#0E3723"/>
<path d="M326.245 296.503C326.245 296.503 211.859 274.695 103.275 293.591C103.275 293.591 127.553 504.02 136.157 549.059C136.157 549.059 221.93 570.8 296.231 547.569C296.231 547.569 327.646 337.14 326.245 296.503Z" fill="#0D3C25"/>
<path d="M184.1 284.28C184.1 302.485 202.876 317.317 220.022 317.317C237.168 317.317 255.944 302.549 255.944 284.28V242.523C255.944 224.318 237.168 209.551 220.022 209.551C202.876 209.551 184.1 224.318 184.1 242.523V284.28Z" fill="#E38E78"/>
<path d="M212.58 344.129C212.58 346.853 214.778 349.046 217.508 349.046C220.239 349.046 222.436 346.853 222.436 344.129C222.436 341.404 220.239 339.211 217.508 339.211C214.778 339.211 212.58 341.404 212.58 344.129Z" fill="white"/>
<path d="M212.58 395.234C212.58 397.959 214.778 400.152 217.508 400.152C220.239 400.152 222.436 397.959 222.436 395.234C222.436 392.509 220.239 390.316 217.508 390.316C214.778 390.316 212.58 392.509 212.58 395.234Z" fill="white"/>
<path d="M212.914 497.3C212.914 500.025 215.112 502.218 217.842 502.218C220.573 502.218 222.77 500.025 222.77 497.3C222.77 494.576 220.573 492.383 217.842 492.383C215.178 492.449 212.914 494.576 212.914 497.3Z" fill="white"/>
<path d="M212.58 446.074C212.58 448.799 214.778 450.991 217.508 450.991C220.239 450.991 222.436 448.799 222.436 446.074C222.436 443.349 220.239 441.156 217.508 441.156C214.778 441.156 212.58 443.349 212.58 446.074Z" fill="white"/>
<path d="M298.357 190.844C298.556 217.957 269.587 239.953 250.341 250.187C231.095 260.488 214.313 257.098 214.313 257.098C137.928 239.754 143.256 203.47 138.993 173.433C136.929 158.613 134.931 131.035 141.457 96.9438C142.323 92.292 143.788 88.1053 145.653 84.251C157.507 59.5965 185.477 50.0271 185.477 50.0271C202.193 44.1791 221.239 42.9165 238.62 46.1063C263.66 50.6916 283.373 63.6502 289.699 89.2351C291.764 97.4754 292.896 105.982 293.895 114.355C296.092 131.699 297.224 149.243 297.89 166.721C298.09 174.762 298.29 182.803 298.357 190.844Z" fill="#F5AE94"/>
<path d="M204.809 176.936C204.809 176.936 222.647 202.286 239.171 174.801L204.809 176.936Z" fill="#D8826C"/>
<path d="M240.951 106.125C240.951 106.125 275.581 99.1474 286.436 124.599C286.436 124.599 247.744 112.97 240.352 118.751L240.951 106.125Z" fill="#683508"/>
<path d="M200.826 108.978C200.826 108.978 166.729 99.8735 154.275 124.594C154.275 124.594 193.633 115.424 200.626 121.604L200.826 108.978Z" fill="#683508"/>
<path d="M271.389 163.27C268.125 166.26 263.797 168.254 259.002 168.52C256.804 168.652 254.673 168.453 252.675 167.988C244.55 165.994 238.357 159.149 237.758 150.643C237.025 140.011 245.35 130.84 256.405 130.109C267.393 129.378 276.916 137.353 277.582 147.985C278.048 153.966 275.584 159.482 271.389 163.27Z" fill="white"/>
<path d="M273.187 156.432C272.987 158.891 272.388 161.217 271.389 163.277C268.126 166.268 263.797 168.261 259.002 168.527C256.804 168.66 254.673 168.461 252.675 167.995C249.612 164.872 247.881 159.888 248.347 154.505C249.013 145.733 255.139 139.021 262.065 139.553C264.463 139.752 266.594 140.816 268.392 142.41C269.391 143.341 270.323 144.471 270.989 145.8C272.654 148.724 273.52 152.445 273.187 156.432Z" fill="#5C8696"/>
<path d="M269.591 156.166C269.125 162.413 264.729 167.197 259.868 166.798C255.006 166.4 251.41 161.017 251.943 154.77C252.476 148.524 256.804 143.805 261.666 144.138C266.527 144.536 270.057 149.919 269.591 156.166Z" fill="#0D0D0C"/>
<path d="M270.989 145.532C270.856 147.193 268.725 148.456 266.195 148.257C263.664 148.057 261.733 146.529 261.866 144.801C261.999 143.073 264.13 141.877 266.661 142.076C269.191 142.276 271.123 143.804 270.989 145.532Z" fill="white"/>
<path d="M198.459 163.27C195.196 166.26 190.867 168.254 186.005 168.52C183.808 168.652 181.677 168.453 179.679 167.988C171.554 165.994 165.361 159.149 164.828 150.643C164.096 140.011 172.42 130.84 183.475 130.109C194.463 129.378 203.986 137.353 204.652 147.985C205.118 153.966 202.654 159.482 198.459 163.27Z" fill="white"/>
<path d="M200.257 156.432C200.057 158.891 199.458 161.217 198.459 163.277C195.196 166.268 190.867 168.261 186.006 168.527C183.808 168.66 181.677 168.461 179.679 167.995C176.682 164.872 174.884 159.888 175.351 154.505C176.016 145.733 182.143 139.021 189.069 139.553C191.467 139.752 193.598 140.816 195.396 142.41C196.395 143.341 197.327 144.471 197.993 145.8C199.724 148.724 200.59 152.445 200.257 156.432Z" fill="#5C8696"/>
<path d="M196.661 156.166C196.195 162.413 191.8 167.197 186.938 166.798C182.077 166.4 178.481 161.017 179.013 154.77C179.479 148.524 183.875 143.805 188.736 144.138C193.598 144.536 197.127 149.919 196.661 156.166Z" fill="#0D0D0C"/>
<path d="M198.059 145.532C197.926 147.193 195.795 148.456 193.264 148.257C190.734 148.057 188.803 146.529 188.936 144.801C189.069 143.073 191.2 141.877 193.731 142.076C196.261 142.276 198.192 143.804 198.059 145.532Z" fill="white"/>
<path d="M295.16 134.239C295.16 134.239 311.876 96.4934 325.661 126.198C336.649 149.856 318.335 173.049 303.551 171.387C288.767 169.792 295.16 134.239 295.16 134.239Z" fill="#F0A98F"/>
<path d="M296.227 140.085C296.227 140.085 308.614 115.896 315.007 124.601C321.467 133.307 321.4 145.202 321.4 145.202C321.4 145.202 316.805 132.576 307.815 140.882C307.815 140.882 319.868 160.619 299.757 156.499C299.757 156.499 291.033 150.983 296.227 140.085Z" fill="#D8826C"/>
<path d="M166.098 54.5447C166.098 54.5447 168.029 85.3794 155.176 100.332C142.323 115.284 141.125 145.786 141.125 145.786C141.125 145.786 94.0417 85.8446 147.585 50.9562C147.518 50.9562 158.24 46.7031 166.098 54.5447Z" fill="url(#paint1_linear_15_1482)"/>
<path d="M269.587 66.6416C269.587 66.6416 291.364 95.5491 295.959 137.149C295.959 137.149 326.66 91.5619 297.357 53.1514C297.357 53.1514 265.258 39.5947 269.587 66.6416Z" fill="url(#paint2_linear_15_1482)"/>
<path d="M142.123 139.943C142.123 139.943 125.407 102.197 111.622 131.902C100.634 155.559 118.948 178.752 133.732 177.09C148.449 175.496 142.123 139.943 142.123 139.943Z" fill="#F0A98F"/>
<path d="M141.057 145.788C141.057 145.788 128.67 121.599 122.211 130.304C115.751 139.01 115.817 150.905 115.817 150.905C115.817 150.905 120.413 138.279 129.403 146.586C129.403 146.586 117.416 166.322 137.461 162.202C137.528 162.202 146.252 156.687 141.057 145.788Z" fill="#D8826C"/>
<path d="M198.53 202.816C198.53 202.816 233.492 250.995 253.271 197.766C253.271 197.699 238.221 228.202 198.53 202.816Z" fill="#D5503B"/>
<path d="M336.235 37.8224C331.469 44.029 323.429 50.1035 315.034 51.7542C322.006 44.9534 328.623 35.7095 327.485 26.1355C327.413 25.7393 326.844 25.3432 326.417 25.5413C324.995 26.2676 323.856 27.324 322.647 28.3144C316.315 33.6627 305.928 33.5306 298.316 30.9555C284.941 26.5317 273.984 17.816 261.961 11.0812C248.871 3.75217 234.215 -0.53962 218.706 0.0546282C210.382 0.384766 202.2 2.03545 194.374 4.67656C175.237 11.2133 152.4 23.8245 147.277 43.6328C146.566 46.3399 146.281 49.1791 146.352 51.9523C146.352 53.735 147.989 58.9512 147.206 60.3378C146.779 60.9981 147.704 61.7904 148.202 61.3942C148.487 61.3942 148.842 61.2622 148.985 60.9981C149.127 60.6679 149.198 60.4698 149.269 60.2718C158.305 53.4709 173.387 80.014 178.865 84.2398C199.924 100.549 230.089 102.86 255.131 96.5209C283.233 89.3899 314.181 71.4304 330.33 49.6413C333.034 46.0758 335.595 42.4443 337.516 38.4827C337.872 37.7564 336.733 37.1621 336.235 37.8224Z" fill="url(#paint3_linear_15_1482)"/>
<path d="M303.486 1072.05H237.29L218.377 667.079C216.246 667.411 214.048 667.544 211.784 667.611L188.209 1069.26H122.146C121.747 1018.56 119.083 636.045 136.464 547.993L296.294 546.598C294.895 550.718 304.485 913.757 303.486 1072.05Z" fill="#BFB6BB"/>
<path d="M153.446 571.064L133.212 570.266L133.961 558.292L136.398 547.938L154.778 547.805C154.246 555.58 153.713 563.288 153.446 571.064Z" fill="#663C00"/>
<path d="M171.493 547.665L253.006 546.934C252.74 555.573 252.474 564.212 252.274 572.851L170.028 571.389C171.693 564.012 171.56 555.639 171.493 547.665Z" fill="#663C00"/>
<path d="M272.852 546.735L296.294 546.535V573.582L270.588 573.117C272.852 565.209 273.119 555.639 272.852 546.735Z" fill="#663C00"/>
<path d="M232.817 537.141H189.58V567.074H232.817V537.141Z" fill="#9F7231"/>
<path d="M383.932 517.503C381.734 533.518 369.414 546.61 356.361 546.809L240.352 548.537C227.299 548.736 214.579 536.11 211.915 520.294L195.933 424.467C193.269 408.585 204.723 395.493 221.505 395.161L370.613 392.17C387.395 391.838 399.249 404.531 397.051 420.613L383.932 517.503Z" fill="#EDE9EB"/>
<path d="M312.676 470.321C312.809 478.828 306.016 485.805 297.492 485.938C288.967 486.071 281.975 479.226 281.842 470.787C281.709 462.28 288.501 455.303 297.026 455.17C305.483 455.037 312.476 461.815 312.676 470.321Z" fill="#FFFFFE"/>
<path d="M404.11 484.405C402.046 481.481 398.916 478.955 394.454 477.161C390.325 475.5 385.53 474.902 381.801 477.759C372.411 485.069 385.33 486.265 390.392 488.857C383 486.797 365.485 488.325 363.021 496.898C360.091 507.198 375.208 515.838 381.734 520.024C353.764 520.489 375.608 541.622 389.726 528.995C400.647 519.094 413.034 497.363 404.11 484.405Z" fill="#F5AE94"/>
<path d="M276.78 483.136C271.919 465.127 254.337 470.842 237.755 472.835C241.484 464.13 257.068 461.073 265.858 461.604C263.461 446.652 234.359 455.823 226.7 459.611C209.518 468.117 200.994 476.424 182.281 476.224C182.281 476.224 161.636 471.041 135.531 465.127L143.789 510.98C169.761 511.179 188.541 510.847 188.541 510.847L188.474 510.382C199.995 512.309 211.05 510.515 219.175 510.648C227.632 510.714 236.423 509.784 244.814 509.518C250.741 509.319 258.067 511.578 263.527 510.249C261.729 498.553 245.214 499.882 237.422 497.955C250.475 495.961 277.979 493.901 276.78 483.136Z" fill="#F5AE94"/>
<path d="M103.631 293.555C103.631 293.555 1.27363 413.039 0.00831567 461.285C-1.257 509.531 142.204 528.376 205.803 511.896L203.558 468.49C203.558 468.49 80.1894 444.738 80.1894 438.425C80.1894 432.045 126.007 380.012 123.476 360.939C120.879 341.867 103.631 293.555 103.631 293.555Z" fill="#0E3723"/>
<defs>
<linearGradient id="paint0_linear_15_1482" x1="269.344" y1="333.406" x2="254.563" y2="349.829" gradientUnits="userSpaceOnUse">
<stop stop-color="#856DFB"/>
<stop offset="1" stop-color="#5795FF"/>
</linearGradient>
<linearGradient id="paint1_linear_15_1482" x1="143.688" y1="70.344" x2="166.139" y2="87.5566" gradientUnits="userSpaceOnUse">
<stop stop-color="#DA7217"/>
<stop offset="1" stop-color="#F28729"/>
</linearGradient>
<linearGradient id="paint2_linear_15_1482" x1="288.872" y1="92.7971" x2="318.807" y2="49.3914" gradientUnits="userSpaceOnUse">
<stop stop-color="#D87015"/>
<stop offset="1" stop-color="#EF8426"/>
</linearGradient>
<linearGradient id="paint3_linear_15_1482" x1="157.045" y1="59.4855" x2="337.107" y2="30.3595" gradientUnits="userSpaceOnUse">
<stop stop-color="#D76F14"/>
<stop offset="1" stop-color="#F58A2B"/>
</linearGradient>
</defs>
</svg>
