<svg width="630" height="1386" viewBox="0 0 630 1386" fill="none" xmlns="http://www.w3.org/2000/svg">
<path d="M20.2605 438.257C17.458 439.065 17.7588 442.617 20.5321 443.172C21.971 443.451 23.41 443.729 24.849 444.008C23.9221 444.263 22.9952 444.519 22.0661 444.88C19.164 444.469 16.2922 444.605 13.446 445.497C12.2443 445.873 11.3883 447.704 12.816 448.507C26.8623 456.574 38.176 465.115 48.905 477.485C51.766 480.791 54.5922 483.76 57.423 486.52C47.5097 483.965 38.1271 480.098 28.3229 477.335C26.4284 476.818 24.7065 478.989 26.0967 480.568C37.8432 494.321 60.2463 497.443 76.5271 502.865C82.5158 504.843 87.784 508.193 93.2246 511.316C94.2796 511.923 95.4393 512.532 96.5989 513.141C101.704 519.217 108.469 524.043 115.244 527.442C117.088 528.357 119.167 527.116 120.285 525.793C129.777 514.762 117.235 501.015 109.25 493.48C102.148 486.78 94.4654 480.783 86.7414 474.764C81.0768 467.44 75.6846 460.1 70.3407 452.467C59.8772 437.478 37.2436 433.387 20.2605 438.257ZM63.5332 462.309C63.3284 462.096 63.1235 461.882 62.9187 461.669C58.9418 457.671 54.5507 453.455 49.7862 450.051C49.8276 450.073 49.9105 450.116 49.9737 450.097C56.156 452.813 59.9952 457.375 63.5332 462.309Z" fill="#FBB79E"/>
<path d="M361.4 553.356C408.454 589.917 476.748 604.724 529.357 576.434C545.858 567.583 561.053 553.438 564.32 535.24C568.241 513.32 554.272 490.655 560.154 469.148C565.301 450.123 584.089 438.46 598.059 424.398C618.318 404.049 630.081 375.676 630 347.139C629.918 318.601 618.154 290.311 597.813 270.045C580.577 252.84 558.112 241.755 538.343 227.362C522.74 215.947 508.689 201.141 501.255 183.191C493.903 165.489 499.948 155.066 501.01 137.696C503.216 100.555 493.985 59.0304 467.598 31.4024C433.452 -4.49737 382.722 -3.91834 337.874 5.34613C315.164 9.97836 290.085 17.1749 270.152 29.4172C261.656 34.6284 256.019 40.9978 250.219 49.3523C248.341 51.9993 237.884 78.3865 238.293 78.3038C171.796 93.6894 207.495 186.996 187.073 229.844C180.619 243.327 169.346 253.75 159.461 264.917C142.143 284.603 128.582 308.261 124.334 334.235C120.086 360.208 125.886 388.498 143.123 408.185C145.9 411.411 149.168 414.554 150.23 418.69C151.864 424.894 148.433 431.098 145.9 436.971C130.788 472.126 148.106 512.824 169.917 544.174C184.54 565.267 201.777 585.285 224.16 597.527C259.859 617.132 304.952 614.071 341.713 596.535" fill="url(#paint0_linear_15_2648)"/>
<path opacity="0.2" d="M340.624 50.0875C321.841 39.186 297.868 51.3078 286.257 72.0533C274.715 92.7988 259.689 111.266 262.421 135.917C263.787 148.12 266.041 160.567 263.992 172.689C258.801 204.092 242.545 227.034 225.607 251.847C211.264 272.837 206.62 300.742 202.932 327.426C200.746 343.372 198.97 360.944 206.073 374.693C215.089 392.103 225.402 414.557 235.101 431.398C251.083 458.977 241.726 485.905 261.055 510.312C266.792 517.471 274.851 521.213 282.774 524.223C298.824 530.162 315.421 533.661 332.223 534.718C346.566 535.613 361.114 534.555 374.637 528.942C407.831 515.03 430.028 470.611 424.018 429.282C419.442 397.961 401.342 371.927 392.736 341.745C386.589 320.104 385.565 296.43 389.731 274.139C395.059 245.99 408.65 218.004 402.776 190.018" fill="#D29B16"/>
<path d="M400.856 608.941C403.174 599.74 449.77 366.325 449.77 366.325C449.77 366.325 325.514 329.6 246 366.325L296.923 610.951L400.856 608.941Z" fill="#1AA3A3"/>
<path d="M407.235 488.667C407.235 488.667 313.811 498.332 288.002 479.003C288.079 479.003 320.225 556.396 407.235 488.667Z" fill="#169494"/>
<path d="M360.906 517.789C360.906 517.789 381.004 582.815 374.82 585.909C368.636 589.003 337.659 589.003 337.659 589.003C337.659 589.003 316.016 519.336 320.653 517.789C325.349 516.242 359.418 514.695 360.906 517.789Z" fill="#EAEAEA"/>
<path d="M397.194 572.977C397.194 572.977 388.571 573.292 384.442 569.9C380.314 566.507 377.956 565.169 365.693 563.056C353.49 560.929 347.546 555.556 347.546 555.556C347.546 555.556 341.659 565.021 360.528 568.967C372.101 571.375 338.064 579.727 327.563 581.2C327.563 581.2 322.478 586.135 333.407 588.509C344.337 590.883 335.056 593.716 356.413 597.184C377.754 600.592 401.742 598.957 403.475 585.47C405.207 571.982 397.194 572.977 397.194 572.977Z" fill="#FBB79E"/>
<path d="M449.703 367.207C449.703 367.207 523.558 489.231 518.048 539.958C518.048 539.958 496.445 564.173 394.146 595.546L391.692 570.828C391.692 570.828 455.525 525.74 476.352 515.45C476.352 515.45 413.733 431.938 420.008 414.088C426.215 396.222 438.497 365.499 449.703 367.207Z" fill="#1AA3A3"/>
<path d="M414.929 1348.33C410.756 1373.07 439.193 1389.07 461.602 1385.13C470.72 1383.51 487.257 1361.63 480.225 1353.89C472.807 1345.7 466.393 1337.12 460.598 1328.38C456.193 1321.89 452.098 1315.31 448.079 1308.74C446.07 1305.49 446.843 1302.17 444.834 1298.92C448.002 1277.04 449.779 1255.32 457.507 1233.44V1227.79H400.17C406.738 1250.99 415.006 1275.88 425.67 1300.31C425.129 1302.09 424.511 1305.34 423.97 1307.2C423.352 1309.21 422.811 1311.99 422.27 1314.08C419.025 1325.98 416.397 1339.51 414.929 1348.33Z" fill="#C3BFCB"/>
<path d="M399.861 1306.57C400.479 1313.22 411.297 1317.24 416.398 1319.41C421.188 1321.42 427.602 1323.74 433.011 1322.66C429.766 1323.74 427.216 1325.9 426.057 1329.77C425.748 1330.77 426.829 1332.01 427.911 1331.62C432.625 1329.77 436.025 1326.91 441.434 1327.14C445.993 1327.3 450.475 1328.45 454.957 1327.91C455.961 1327.84 456.657 1326.37 455.498 1325.83C451.171 1323.89 444.293 1321.65 438.189 1321.81C440.12 1320.65 443.52 1318.87 444.061 1318.56C447.307 1316.55 450.63 1314.62 453.643 1312.3C459.439 1308.04 461.912 1304.49 458.357 1297.3C454.416 1289.26 444.834 1285.47 437.88 1292.97C431.543 1299.77 432.548 1306.19 434.557 1313.61C428.684 1308.28 422.888 1303.64 414.698 1301.78C410.37 1300.78 399.166 1298.77 399.861 1306.57ZM439.425 1317.09C438.111 1313.22 436.257 1309.2 436.257 1305.26C436.257 1299.93 440.661 1292.12 446.998 1292.43C452.33 1292.74 457.043 1298.92 456.58 1304.33C456.425 1306.34 453.334 1308.12 451.866 1309.2C450.552 1310.05 443.907 1313.61 439.425 1317.09ZM418.407 1307.19C424.511 1309.13 429.225 1313.76 433.861 1318.09C428.529 1319.1 423.198 1317.55 418.098 1315.47C414.002 1313.76 406.429 1311.06 404.343 1306.81C402.797 1303.48 416.707 1306.65 418.407 1307.19Z" fill="#C3BFCB"/>
<path d="M405.307 613.003C405.307 613.003 480.88 771.422 450.048 1275.6C450.048 1275.6 417.516 1282.48 407.239 1279C407.239 1279 281 906.503 336.611 620.889L405.307 613.003Z" fill="#D1CFD7"/>
<path d="M282.406 1348.33C286.579 1373.07 258.143 1389.07 235.733 1385.13C226.615 1383.51 210.079 1361.63 217.11 1353.89C224.529 1345.7 230.942 1337.12 236.738 1328.38C241.142 1321.89 245.238 1315.31 249.256 1308.74C251.265 1305.49 254.974 1302.17 256.983 1298.92C253.815 1277.04 248.715 1255.32 248.715 1233.44V1227.79H297.166C290.675 1250.99 282.329 1275.88 271.665 1300.31C272.206 1302.09 272.825 1305.34 273.365 1307.2C273.984 1309.21 274.525 1311.99 275.065 1314.08C278.311 1325.98 280.938 1339.51 282.406 1348.33Z" fill="#C3BFCB"/>
<path d="M235.733 1385.12C226.615 1383.5 210.079 1361.62 217.11 1353.89C224.529 1345.69 230.942 1337.11 236.738 1328.38C241.142 1321.88 245.238 1315.31 249.256 1308.74C255.747 1310.98 264.402 1312.29 273.288 1308.58C273.906 1310.59 274.447 1312.68 274.988 1314.77C278.156 1326.67 280.784 1339.51 282.329 1348.25C286.579 1373.06 258.143 1388.99 235.733 1385.12Z" fill="#C3BFCB"/>
<path d="M282.561 1301.78C274.37 1303.64 268.574 1308.28 262.702 1313.61C264.711 1306.27 265.715 1299.85 259.456 1292.97C252.501 1285.47 242.92 1289.26 238.979 1297.3C235.424 1304.49 237.897 1308.04 243.692 1312.3C246.783 1314.54 250.106 1316.47 253.274 1318.56C253.738 1318.87 257.215 1320.65 259.147 1321.81C253.042 1321.65 246.165 1323.89 241.838 1325.83C240.679 1326.37 241.451 1327.84 242.379 1327.91C246.938 1328.38 251.42 1327.3 255.979 1327.14C261.388 1326.91 264.711 1329.77 269.502 1331.62C270.583 1332.09 271.665 1330.77 271.356 1329.77C270.12 1325.9 267.57 1323.74 264.402 1322.66C269.811 1323.74 276.224 1321.42 281.015 1319.41C286.038 1317.24 296.934 1313.22 297.552 1306.57C298.17 1298.77 286.965 1300.78 282.561 1301.78ZM245.547 1309.13C244.079 1308.12 240.988 1306.34 240.756 1304.26C240.292 1298.84 245.006 1292.66 250.338 1292.35C256.674 1292.04 261.079 1299.85 261.079 1305.18C261.079 1309.2 259.147 1313.22 257.833 1317.01C253.429 1313.61 246.86 1310.05 245.547 1309.13ZM292.993 1306.73C290.906 1310.98 283.334 1313.69 279.238 1315.39C274.061 1317.55 268.806 1319.1 263.474 1318.02C268.111 1313.69 272.902 1309.13 278.929 1307.12C280.629 1306.65 294.538 1303.48 292.993 1306.73Z" fill="#C3BFCB"/>
<path d="M266.642 1345.85C264.787 1334.33 244.851 1334.95 236.737 1337.11C235.655 1337.42 235.655 1339.04 236.737 1339.35C241.451 1340.59 246.474 1340.51 251.265 1341.36C256.519 1342.29 259.765 1345.46 264.401 1347.55C265.637 1348.09 266.874 1347.16 266.642 1345.85Z" fill="#C3BFCB"/>
<path d="M260.077 1352.66C256.445 1349.88 249.876 1349.11 245.472 1348.18C240.295 1347.1 235.89 1347.87 231.176 1349.96C230.094 1350.5 230.867 1352.2 232.026 1351.89C237.204 1350.34 242.535 1351.89 247.481 1353.51C251.267 1354.75 255.595 1357.22 259.613 1355.99C261.236 1355.52 261.313 1353.59 260.077 1352.66Z" fill="#C3BFCB"/>
<path d="M292.134 613.475C292.134 613.475 216.561 771.895 247.393 1276.07C247.393 1276.07 279.925 1282.95 290.203 1279.47C290.203 1279.47 383.471 841.324 360.83 621.362L292.134 613.475Z" fill="#D1CFD7"/>
<path d="M409.75 630.592C409.75 630.592 351.1 648.065 291.522 624.562L290.749 601.058C290.749 601.058 321.349 610.258 347.313 608.712C373.277 607.166 408.436 602.604 408.436 602.604L409.75 630.592Z" fill="#8F99B6"/>
<path d="M396.345 592.05C396.345 592.05 406.236 630.321 397.117 634.882C387.922 639.444 382.513 637.434 382.513 637.434L382.59 595.065L396.345 592.05Z" fill="#D1CFD7"/>
<path d="M302.391 589.003C302.391 589.003 296.209 624.8 304.013 631.449C314.6 640.418 315.141 633.15 315.141 633.15L316.145 592.018L302.391 589.003Z" fill="#D1CFD7"/>
<path d="M328.148 601.831L331.239 634.69L364.081 633.917C364.081 633.917 365.626 605.619 365.626 601.058L328.148 601.831ZM335.026 609.253H359.521L358.749 627.113L336.571 628.427L335.026 609.253Z" fill="#EAEAEA"/>
<path d="M343.915 372.033C355.738 372.033 374.206 368.476 374.206 356.57L371.193 317.061L368.565 282.501C368.565 270.672 358.983 261.085 347.161 261.085C341.211 261.085 335.879 263.482 332.015 267.348C328.151 271.213 325.756 276.548 325.756 282.501L323.129 317.061L320.579 350.23C317.024 370.332 343.915 372.033 343.915 372.033Z" fill="#FDA686"/>
<path d="M256.288 176.197C256.288 176.197 230.71 141.174 223.292 174.806C217.419 201.557 241.297 221.272 256.056 216.247C270.815 211.299 256.288 176.197 256.288 176.197Z" fill="#FBB79E"/>
<path d="M256.597 182.449C256.597 182.449 238.438 160.337 233.801 170.774C229.165 181.135 231.947 193.351 231.947 193.351C231.947 193.351 233.801 179.356 244.851 185.851C244.851 185.851 236.97 208.814 256.597 200.077C256.597 200.154 264.324 192.5 256.597 182.449Z" fill="#EF9F8A"/>
<path d="M443.519 176.197C443.519 176.197 469.097 141.174 476.515 174.806C482.465 201.557 458.51 221.272 443.751 216.247C428.992 211.299 443.519 176.197 443.519 176.197Z" fill="#FBB79E"/>
<path d="M442.455 182.477C442.455 182.477 460.536 160.365 465.173 170.803C469.809 181.163 467.105 193.379 467.105 193.379C467.105 193.379 465.173 179.385 454.123 185.879C454.123 185.879 462.005 208.842 442.377 200.105C442.377 200.183 434.727 192.528 442.455 182.477Z" fill="#EF9F8A"/>
<path d="M439.349 217.254C439.349 220.346 441.821 222.82 444.835 222.82C447.849 222.82 450.321 220.346 450.321 217.254C450.321 214.238 447.849 211.764 444.835 211.764C441.821 211.764 439.349 214.238 439.349 217.254Z" fill="white"/>
<path d="M251.185 214.323C251.185 217.338 253.657 219.812 256.671 219.812C259.685 219.812 262.157 217.338 262.157 214.323C262.157 211.307 259.685 208.833 256.671 208.833C253.657 208.833 251.185 211.307 251.185 214.323Z" fill="white"/>
<path d="M297.337 100.929C308.464 87.631 318.741 71.936 327.164 55.0039C355.987 97.2181 409.09 128.215 452.286 143.523C453.677 154.889 443.461 177.781 443.461 189.378C443.461 256.952 393.851 296.924 339.064 295.687C287.6 294.604 257 256.952 257 189.378C257 169.74 258.932 149.947 263.414 131.623C275.932 123.041 287.446 112.759 297.337 100.929Z" fill="#FBB79E"/>
<path d="M350.64 212.023C350.64 212.023 338.972 231.816 326.299 211.637L350.64 212.023Z" fill="#D8826C"/>
<path d="M415.316 142.19C415.316 142.19 392.907 111.96 358.288 137.706C358.288 137.706 386.261 126.495 415.316 142.19Z" fill="#99360A"/>
<path d="M317.719 137.163C317.719 137.163 291.523 111.031 263.318 142.034C263.318 142.034 287.737 126.494 317.719 137.163Z" fill="#99360A"/>
<path d="M306.671 236.11C306.98 236.96 312.466 249.486 321.43 259.459C332.248 271.443 347.935 278.17 365.321 252.424C369.031 247.011 372.74 239.976 376.526 231.316C376.526 231.316 370.499 235.259 361.69 237.734C347.858 241.677 327.303 249.022 313.007 241.29C310.766 241.29 308.603 237.579 306.671 236.11Z" fill="#712311"/>
<path d="M321.432 258.695C332.25 270.679 347.936 277.792 365.323 252.046C355.973 249.494 334.027 245.629 321.432 258.695Z" fill="#D5503B"/>
<path d="M313.085 238.205C335.803 263.564 352.34 250.189 361.767 236.117C347.935 240.06 327.381 244.003 313.085 238.205Z" fill="white"/>
<path d="M310 68.5667C344 94.5039 476.5 175.504 466.696 126.197C473.282 119.677 472 114.12 472.966 112.557C473.77 111.198 472.885 109.499 472 108.004C482.155 91.4839 476.382 48.0422 457.959 39.2758C439.536 30.5094 420.328 19.8382 400.215 14.8094C389.998 12.295 379.346 12.511 368.336 14.8113C357.326 17.1132 315.712 41.2522 310 47.0965" fill="#FBB50D"/>
<path d="M220 140.504C245.221 145.183 278.081 130.434 298 114.504C317.919 98.5735 325.515 79.395 325.04 54.7942C324.956 47.9616 322.865 39.8805 316.17 37.5868C313.848 36.7741 311.249 36.8889 308.748 37.161C293.478 38.7312 279.248 45.9904 267.736 55.8448C256.224 65.6993 247.418 77.9852 239.78 90.7594C234.307 99.991 229.47 109.586 226.857 119.837C225.261 126.303 221.117 148.504 221.117 144.504" fill="#FBB50D"/>
<path d="M308 63.5667C350.076 83.6819 470.683 157.957 470.683 126.222C477.27 119.702 476.304 113.927 477.27 112.364C478.074 111.005 477.189 109.306 476.304 107.811C486.459 91.2906 474.382 43.0422 455.959 34.2758C437.535 25.5094 418.328 14.8382 398.215 9.80941C387.998 7.295 377.346 7.51096 366.336 9.81133C355.326 12.1132 313.712 36.2522 308 42.0965" fill="url(#paint1_linear_15_2648)"/>
<path d="M214 142.004C239.221 146.683 271.813 125.968 291.733 110.038C311.652 94.1076 323.515 69.395 323.04 44.7942C322.956 37.9616 320.865 29.8805 314.17 27.5868C311.848 26.7741 309.249 26.8889 306.748 27.161C291.478 28.7312 277.248 35.9904 265.736 45.8448C254.224 55.6993 245.418 67.9852 237.78 80.7594C232.307 89.991 227.47 99.5864 224.857 109.837C223.261 116.303 219.117 138.504 219.117 134.504" fill="url(#paint2_linear_15_2648)"/>
<path d="M365.361 167.473C365.361 180.704 376.104 191.509 389.422 191.509C402.74 191.509 413.483 180.777 413.483 167.473C413.483 154.242 402.74 143.437 389.422 143.437C376.104 143.437 365.361 154.242 365.361 167.473Z" fill="white"/>
<path d="M372.574 180.713C376.842 190.783 386.481 196.369 394.134 193.209C401.786 189.974 404.509 179.243 400.314 169.172C396.047 159.029 386.408 153.516 378.829 156.677C371.103 159.837 368.307 170.569 372.574 180.713Z" fill="#00795C"/>
<path d="M376.621 179.023C379.638 186.153 386.481 190.122 391.926 187.843C397.371 185.565 399.358 177.92 396.267 170.717C393.251 163.513 386.407 159.544 380.962 161.822C375.517 164.175 373.604 171.819 376.621 179.023Z" fill="#400404"/>
<path d="M370.807 166.966C371.617 168.95 374.56 169.538 377.356 168.362C380.152 167.186 381.771 164.613 380.961 162.702C380.152 160.718 377.209 160.13 374.413 161.306C371.617 162.482 369.998 165.054 370.807 166.966Z" fill="white"/>
<path d="M365.362 167.473C365.362 167.473 363.449 152.037 378.533 144.245C401.637 132.338 414.294 159.902 421.799 164.386C421.799 164.386 416.942 169.237 413.411 167.547C413.411 167.473 386.038 134.763 365.362 167.473Z" fill="#302725"/>
<path d="M321.434 170.784C321.434 184.089 310.691 194.821 297.372 194.821C284.128 194.821 273.311 184.089 273.311 170.784C273.311 157.554 284.054 146.822 297.372 146.822C310.617 146.748 321.434 157.554 321.434 170.784Z" fill="white"/>
<path d="M281.039 181.514C283.32 192.246 292.076 199.45 300.685 197.612C309.294 195.774 314.371 185.631 312.09 174.972C309.809 164.241 301.053 157.037 292.444 158.801C283.909 160.639 278.758 170.783 281.039 181.514Z" fill="#00795C"/>
<path d="M285.527 180.556C287.146 188.201 293.327 193.273 299.434 192.023C305.542 190.773 309.147 183.496 307.602 175.925C305.983 168.281 299.729 163.136 293.621 164.459C287.588 165.708 283.909 172.912 285.527 180.556Z" fill="#400404"/>
<path d="M282.07 167.626C282.512 169.684 285.455 170.86 288.545 170.198C291.709 169.537 293.843 167.332 293.475 165.273C293.034 163.215 290.164 162.039 287 162.701C283.836 163.362 281.629 165.567 282.07 167.626Z" fill="white"/>
<path d="M321.802 167.84C321.802 167.84 323.715 154.094 308.63 147.185C285.526 136.6 272.87 161.077 265.438 165.046C265.438 165.046 270.294 169.31 273.826 167.84C273.753 167.84 298.55 138.07 321.802 167.84Z" fill="#302725"/>
<path d="M265.742 423.098C265.742 423.098 234.524 574.482 220.305 582.755C208.869 589.481 125.18 535.12 93.6085 515.523C85.7574 507.928 80 504.637 80 504.637L87.6208 469.254L105.04 477.085L193.182 521.753C193.182 521.753 224.71 367.972 247.428 366.04C270.147 364.261 265.742 423.098 265.742 423.098Z" fill="#1AA3A3"/>
<defs>
<linearGradient id="paint0_linear_15_2648" x1="148.5" y1="517.5" x2="477.5" y2="33.5" gradientUnits="userSpaceOnUse">
<stop stop-color="#FFB912"/>
<stop offset="1" stop-color="#FFD060"/>
</linearGradient>
<linearGradient id="paint1_linear_15_2648" x1="315.396" y1="67.1141" x2="470.173" y2="123.783" gradientUnits="userSpaceOnUse">
<stop stop-color="#FFC63D"/>
<stop offset="1" stop-color="#FFCB51"/>
</linearGradient>
<linearGradient id="paint2_linear_15_2648" x1="217.5" y1="134.004" x2="341" y2="26.0039" gradientUnits="userSpaceOnUse">
<stop stop-color="#FFC741"/>
<stop offset="1" stop-color="#FFC63C"/>
</linearGradient>
</defs>
</svg>
