<svg width="52" height="51" viewBox="0 0 52 51" fill="none" xmlns="http://www.w3.org/2000/svg">
<path d="M0.469727 37.7301V13.6201C0.469727 6.34014 6.41972 0.390137 13.6997 0.390137H37.8097C45.0797 0.390137 51.0397 6.34014 51.0397 13.6201V37.7301C51.0397 45.0101 45.0897 50.9601 37.8097 50.9601H13.6997C6.41972 50.9601 0.469727 45.0101 0.469727 37.7301Z" fill="url(#paint0_linear_8_2013)"/>
<path d="M39.2897 22.0002C39.2897 18.6502 36.5697 15.9302 33.2197 15.9302H17.6997C14.3497 15.9302 11.6297 18.6502 11.6297 22.0002V29.2202C11.6297 32.5702 14.3497 35.2902 17.6997 35.2902H33.2197C36.5697 35.2902 39.2897 32.5702 39.2897 29.2202V22.0002ZM30.1597 26.1502L23.1997 29.5902C22.9297 29.7402 21.9997 29.5402 21.9997 29.2302V22.1602C21.9997 21.8502 22.9297 21.6502 23.2097 21.8002L29.8697 25.4302C30.1497 25.6002 30.4397 26.0002 30.1597 26.1502Z" fill="white"/>
<defs>
<linearGradient id="paint0_linear_8_2013" x1="47.1505" y1="4.27794" x2="4.35511" y2="47.0733" gradientUnits="userSpaceOnUse">
<stop stop-color="#E63033"/>
<stop offset="1" stop-color="#9D1915"/>
</linearGradient>
</defs>
</svg>
