<svg width="873" height="1238" viewBox="0 0 873 1238" fill="none" xmlns="http://www.w3.org/2000/svg">
<path d="M315.742 549.729C355.481 582.849 413.158 596.261 457.589 570.635C471.525 562.617 484.358 549.804 487.117 533.319C490.429 513.462 478.631 492.931 483.599 473.449C487.945 456.214 503.813 445.649 515.611 432.911C532.721 414.477 542.656 388.776 542.587 362.925C542.518 337.073 532.583 311.447 515.404 293.088C500.847 277.503 481.874 267.462 465.178 254.424C452 244.083 440.134 230.671 433.856 214.41C427.646 198.375 432.752 188.934 433.649 173.198C435.511 139.554 427.715 101.938 405.431 76.9111C376.592 44.3908 333.749 44.9154 295.872 53.3077C276.693 57.5039 255.512 64.0229 238.678 75.1128C231.503 79.8334 226.742 85.6032 221.844 93.1712C220.257 95.5691 211.426 119.472 211.771 119.397C155.612 133.335 185.761 217.857 168.513 256.672C163.063 268.886 153.542 278.327 145.194 288.443C130.568 306.276 119.115 327.707 115.528 351.235C111.94 374.764 116.839 400.39 131.396 418.224C133.742 421.146 136.501 423.994 137.398 427.74C138.778 433.36 135.88 438.98 133.742 444.3C120.978 476.146 135.604 513.012 154.025 541.411C166.375 560.519 180.932 578.652 199.836 589.742C229.985 607.501 268.069 604.729 299.115 588.843" fill="#DEC29B"/>
<path opacity="0.42" d="M315.031 113.24C295.664 103.209 270.943 114.363 258.971 133.453C247.068 152.543 231.574 169.537 234.391 192.22C235.8 203.449 238.124 214.903 236.011 226.058C230.659 254.955 213.897 276.066 196.431 298.899C181.641 318.214 176.852 343.891 173.048 368.446C170.795 383.119 168.964 399.29 176.288 411.941C185.585 427.962 196.219 448.624 206.22 464.12C222.7 489.499 213.052 514.278 232.983 536.737C238.899 543.325 247.209 546.769 255.379 549.538C271.929 555.003 289.043 558.223 306.369 559.196C321.159 560.019 336.16 559.046 350.105 553.881C384.333 541.079 407.222 500.204 401.024 462.174C396.305 433.352 377.642 409.396 368.768 381.622C362.43 361.709 374.825 414.903 379.121 394.391C401.024 398.749 401.024 260.379 379.121 242.004" fill="#CE9A52"/>
<path d="M354.101 569.066C356.097 561.148 396.219 360.273 396.219 360.273C396.219 360.273 289.227 328.668 220.761 360.273L264.609 570.796L354.101 569.066Z" fill="#F6E8EA"/>
<path d="M359.36 466.926C359.36 466.926 278.917 475.243 256.693 458.609C256.693 458.609 284.439 525.146 359.36 466.926Z" fill="#E7D7D9"/>
<path d="M365.883 1201.35C362.29 1222.64 386.776 1236.41 406.072 1233.02C413.923 1231.62 428.162 1212.79 422.107 1206.14C415.719 1199.08 410.197 1191.7 405.207 1184.18C401.414 1178.59 397.888 1172.93 394.428 1167.28C392.698 1164.48 393.363 1161.62 391.633 1158.83C394.361 1140 395.891 1121.3 402.545 1102.47V1097.61H353.241C358.897 1117.58 366.016 1139 375.199 1160.03C374.733 1161.56 374.2 1164.35 373.735 1165.95C373.202 1167.68 372.737 1170.07 372.271 1171.87C369.41 1182.18 367.147 1193.83 365.883 1201.35Z" fill="#F0A98F"/>
<path d="M406.005 1233.01C413.857 1231.61 428.095 1212.78 422.041 1206.13C415.653 1199.07 410.131 1191.69 405.14 1184.17C401.348 1178.58 397.821 1172.92 394.361 1167.27C388.772 1169.2 381.32 1170.33 373.668 1167.14C373.136 1168.87 372.67 1170.66 372.204 1172.46C369.41 1182.7 367.214 1193.75 365.883 1201.27C362.29 1222.69 386.776 1236.4 406.005 1233.01Z" fill="#393D45"/>
<path d="M352.841 1165.41C353.374 1171.13 362.689 1174.59 367.08 1176.46C371.206 1178.19 376.728 1180.18 381.386 1179.25C378.591 1180.18 376.396 1182.05 375.398 1185.37C375.131 1186.24 376.063 1187.3 376.994 1186.97C381.053 1185.37 383.981 1182.91 388.638 1183.11C392.564 1183.24 396.423 1184.24 400.282 1183.78C401.147 1183.71 401.746 1182.44 400.748 1181.98C397.022 1180.32 391.1 1178.39 385.844 1178.52C387.507 1177.52 390.435 1175.99 390.901 1175.72C393.695 1173.99 396.556 1172.33 399.151 1170.33C404.141 1166.68 406.271 1163.61 403.21 1157.43C399.817 1150.51 391.566 1147.25 385.578 1153.7C380.122 1159.56 380.987 1165.08 382.717 1171.47C377.66 1166.87 372.67 1162.88 365.617 1161.29C361.957 1160.42 352.309 1158.76 352.841 1165.41ZM386.975 1174.46C385.844 1171.13 384.247 1167.67 384.247 1164.28C384.247 1159.69 388.04 1152.97 393.496 1153.23C398.087 1153.5 402.145 1158.82 401.746 1163.48C401.613 1165.21 398.952 1166.74 397.687 1167.67C396.49 1168.41 390.768 1171.47 386.975 1174.46ZM368.81 1165.94C374.067 1167.61 378.125 1171.6 382.118 1175.33C377.527 1176.19 372.936 1174.86 368.544 1173.06C365.018 1171.6 358.497 1169.27 356.701 1165.61C355.437 1162.75 367.413 1165.48 368.81 1165.94Z" fill="#032733"/>
<path d="M379.454 1199.21C381.051 1189.29 398.218 1189.82 405.204 1191.69C406.136 1191.95 406.136 1193.35 405.204 1193.62C401.145 1194.68 396.82 1194.62 392.695 1195.35C388.171 1196.15 385.376 1198.87 381.384 1200.67C380.253 1201.2 379.255 1200.4 379.454 1199.21Z" fill="#032733"/>
<path d="M385.115 1205.13C388.242 1202.73 393.898 1202.07 397.69 1201.27C402.148 1200.34 405.941 1201 410 1202.8C410.931 1203.27 410.266 1204.73 409.334 1204.46C404.81 1203.13 400.285 1204.46 396.027 1205.86C392.766 1206.93 388.974 1209.05 385.514 1207.99C384.05 1207.52 384.05 1205.93 385.115 1205.13Z" fill="#032733"/>
<path d="M357.563 575.037C357.563 575.037 422.636 711.371 396.088 1145.26C396.088 1145.26 368.075 1151.18 359.226 1148.19C359.226 1148.19 278.916 771.121 298.411 581.823L357.563 575.037Z" fill="#563B4A"/>
<path d="M251.772 1205.7C255.365 1227 230.88 1240.77 211.584 1237.38C203.733 1235.98 189.494 1217.15 195.549 1210.49C201.936 1203.44 207.459 1196.06 212.449 1188.54C216.242 1182.95 219.768 1177.29 223.228 1171.64C224.958 1168.84 228.152 1165.98 229.882 1163.19C227.154 1144.36 222.762 1125.66 222.762 1106.83V1101.97H264.481C258.892 1121.93 251.706 1143.36 242.524 1164.38C242.99 1165.91 243.522 1168.71 243.988 1170.31C244.52 1172.04 244.986 1174.43 245.451 1176.23C248.246 1186.54 250.442 1198.19 251.772 1205.7Z" fill="#F0A98F"/>
<path d="M211.583 1237.36C203.732 1235.97 189.493 1217.14 195.548 1210.48C201.935 1203.43 207.458 1196.05 212.448 1188.53C216.241 1182.94 219.767 1177.28 223.227 1171.63C228.816 1173.56 236.268 1174.69 243.92 1171.49C244.452 1173.22 244.918 1175.02 245.384 1176.82C248.112 1187.06 250.374 1198.11 251.705 1205.63C255.298 1227.05 230.879 1240.76 211.583 1237.36Z" fill="#393D45"/>
<path d="M251.904 1165.64C244.851 1167.24 239.861 1171.23 234.804 1175.82C236.534 1169.5 237.399 1163.98 232.01 1158.06C226.021 1151.6 217.771 1154.87 214.377 1161.78C211.317 1167.97 213.446 1171.03 218.436 1174.69C221.098 1176.62 223.959 1178.29 226.687 1180.08C227.086 1180.35 230.08 1181.88 231.743 1182.88C226.487 1182.74 220.565 1184.67 216.839 1186.34C215.841 1186.8 216.507 1188.07 217.305 1188.13C221.231 1188.53 225.09 1187.6 229.016 1187.47C233.673 1187.27 236.534 1189.73 240.66 1191.33C241.591 1191.73 242.523 1190.6 242.256 1189.73C241.192 1186.4 238.996 1184.54 236.268 1183.61C240.926 1184.54 246.448 1182.54 250.574 1180.81C254.898 1178.95 264.28 1175.49 264.812 1169.77C265.345 1163.12 255.697 1164.78 251.904 1165.64ZM219.966 1172.03C218.702 1171.17 216.041 1169.64 215.841 1167.84C215.442 1163.18 219.501 1157.86 224.092 1157.59C229.548 1157.33 233.34 1164.05 233.34 1168.64C233.34 1172.1 231.677 1175.56 230.546 1178.82C226.82 1175.82 221.098 1172.76 219.966 1172.03ZM260.887 1169.9C259.09 1173.56 252.57 1175.89 249.043 1177.35C244.585 1179.22 240.061 1180.55 235.47 1179.62C239.462 1175.89 243.587 1171.97 248.777 1170.24C250.174 1169.84 262.217 1167.11 260.887 1169.9Z" fill="#032733"/>
<path d="M238.197 1203.56C236.601 1193.65 219.434 1194.18 212.448 1196.05C211.516 1196.31 211.516 1197.71 212.448 1197.98C216.506 1199.04 220.831 1198.97 224.957 1199.71C229.481 1200.5 232.276 1203.23 236.268 1205.03C237.333 1205.56 238.331 1204.76 238.197 1203.56Z" fill="#032733"/>
<path d="M232.543 1209.49C229.416 1207.09 223.76 1206.43 219.967 1205.63C215.509 1204.7 211.717 1205.36 207.658 1207.16C206.726 1207.62 207.392 1209.09 208.39 1208.82C212.848 1207.49 217.439 1208.82 221.697 1210.22C224.958 1211.28 228.684 1213.41 232.144 1212.35C233.541 1211.88 233.541 1210.29 232.543 1209.49Z" fill="#032733"/>
<path d="M260.024 579.395C260.024 579.395 194.951 715.729 221.499 1149.62C221.499 1149.62 249.511 1155.54 258.36 1152.54C258.36 1152.54 338.67 775.479 319.175 586.182L260.024 579.395Z" fill="#563B4A"/>
<path d="M361.357 588.044C361.357 588.044 310.855 603.082 259.555 582.854L258.89 562.627C258.89 562.627 285.172 570.545 307.595 569.214C329.951 567.884 360.225 563.958 360.225 563.958L361.357 588.044Z" fill="#8F99B6"/>
<path d="M349.642 560.028C349.642 560.028 358.159 592.964 350.308 596.89C342.39 600.815 337.732 599.085 337.732 599.085L337.799 562.623L349.642 560.028Z" fill="#563B4A"/>
<path d="M268.473 557.429C268.473 557.429 263.15 588.236 269.87 593.958C278.986 601.676 279.452 595.422 279.452 595.422L280.317 560.024L268.473 557.429Z" fill="#563B4A"/>
<path d="M291.093 563.345L293.754 591.623L322.032 590.957C322.032 590.957 323.363 566.605 323.363 562.679L291.093 563.345ZM297.015 569.666H318.107L317.441 585.036L298.345 586.167L297.015 569.666Z" fill="#EAEAEA"/>
<path d="M304.666 365.606C314.846 365.606 330.748 362.545 330.748 352.298L328.153 318.298L325.891 288.556C325.891 278.376 317.641 270.125 307.46 270.125C302.337 270.125 297.746 272.188 294.419 275.515C291.092 278.841 289.03 283.432 289.03 288.556L286.767 318.298L284.572 346.842C281.577 364.142 304.666 365.606 304.666 365.606Z" fill="#D8826C"/>
<path d="M390.499 197.07C390.499 197.07 412.523 166.928 418.91 195.872C424.033 218.894 403.407 235.861 390.699 231.536C377.99 227.277 390.499 197.07 390.499 197.07Z" fill="#F0A98F"/>
<path d="M390.303 202.444C390.303 202.444 405.873 183.415 409.865 192.397C413.857 201.313 411.528 211.826 411.528 211.826C411.528 211.826 409.865 199.783 400.35 205.372C400.35 205.372 407.137 225.133 390.236 217.615C390.236 217.615 383.583 211.028 390.303 202.444Z" fill="#D8826C"/>
<path d="M386.909 232.404C386.909 235.066 389.039 237.195 391.633 237.195C394.228 237.195 396.358 235.066 396.358 232.404C396.358 229.809 394.228 227.68 391.633 227.68C389.039 227.68 386.909 229.809 386.909 232.404Z" fill="white"/>
<path d="M264.811 133.114C274.393 121.67 283.242 108.163 290.495 93.5911C315.313 129.92 351.709 166.249 388.903 179.424C390.101 189.205 390.633 199.252 390.633 209.232C390.633 267.386 347.916 301.785 300.742 300.721C258.763 293.065 235.602 264.737 230.079 209.232C230.079 192.332 231.743 175.298 235.602 159.529C246.314 152.077 256.228 143.294 264.811 133.114Z" fill="#F0A98F"/>
<path d="M283.578 193.918C283.578 205.162 274.396 214.344 263.151 214.344C251.907 214.344 242.725 205.229 242.725 193.918C242.725 182.673 251.84 173.491 263.151 173.491C274.463 173.491 283.578 182.673 283.578 193.918Z" fill="white"/>
<path d="M251.567 192.665C251.567 201.98 257.622 209.499 265.074 209.499C272.527 209.499 278.581 201.98 278.581 192.665C278.581 183.35 272.527 175.831 265.074 175.831C257.622 175.831 251.567 183.35 251.567 192.665Z" fill="#7F5242"/>
<path d="M255.427 192.669C255.427 199.256 259.685 204.645 265.008 204.645C270.331 204.645 274.589 199.256 274.589 192.669C274.589 186.015 270.331 180.692 265.008 180.692C259.685 180.692 255.427 186.015 255.427 192.669Z" fill="#400404"/>
<path d="M254.829 181.273C254.829 183.069 257.025 184.533 259.753 184.533C262.481 184.533 264.677 183.069 264.677 181.273C264.677 179.476 262.481 178.012 259.753 178.012C257.091 178.012 254.829 179.476 254.829 181.273Z" fill="white"/>
<path d="M263.681 170.575C250.24 169.244 239.794 181.42 239.794 193.996C239.794 195.326 241.391 195.526 242.123 194.594C247.645 187.009 249.375 179.624 259.489 176.696C274.327 172.438 282.444 187.675 283.309 199.585C283.442 200.782 284.973 200.716 285.106 199.585C286.37 185.346 278.718 172.038 263.681 170.575Z" fill="#390A0A"/>
<path d="M310.526 234.031C310.526 234.031 300.478 251.064 289.566 233.698L310.526 234.031Z" fill="#D8826C"/>
<path d="M320.964 193.918C320.964 205.162 330.079 214.344 341.391 214.344C352.636 214.344 361.751 205.229 361.751 193.918C361.751 182.673 352.636 173.491 341.391 173.491C330.079 173.491 320.964 182.673 320.964 193.918Z" fill="white"/>
<path d="M328.618 192.665C328.618 201.98 334.34 209.499 341.393 209.499C348.446 209.499 354.102 201.98 354.102 192.665C354.102 183.35 348.38 175.831 341.393 175.831C334.274 175.831 328.618 183.35 328.618 192.665Z" fill="#7F5242"/>
<path d="M332.276 192.669C332.276 199.256 336.335 204.645 341.325 204.645C346.316 204.645 350.374 199.256 350.374 192.669C350.374 186.015 346.316 180.692 341.325 180.692C336.335 180.692 332.276 186.015 332.276 192.669Z" fill="#400404"/>
<path d="M331.678 181.355C331.678 183.152 333.807 184.616 336.335 184.616C338.93 184.616 340.993 183.152 340.993 181.355C340.993 179.559 338.864 178.095 336.335 178.095C333.807 178.029 331.678 179.492 331.678 181.355Z" fill="white"/>
<path d="M341.593 170.575C355.1 169.244 365.479 181.42 365.479 193.996C365.479 195.326 363.883 195.526 363.217 194.594C357.695 187.076 355.965 179.624 345.851 176.696C331.013 172.438 322.896 187.675 322.031 199.651C321.964 200.782 320.368 200.782 320.234 199.651C318.904 185.346 326.555 172.038 341.593 170.575Z" fill="#390A0A"/>
<path d="M366.216 167.7C366.216 167.7 346.92 141.684 317.111 163.841C317.045 163.841 341.131 154.26 366.216 167.7Z" fill="#99360A"/>
<path d="M282.179 163.455C282.179 163.455 259.623 140.966 235.337 167.647C235.337 167.647 256.296 154.206 282.179 163.455Z" fill="#99360A"/>
<path d="M272.665 248.995C272.931 249.727 277.655 260.506 285.374 269.089C294.689 279.403 308.196 285.191 323.167 263.034C326.36 258.377 329.554 252.322 332.814 244.87C332.814 244.87 327.625 248.263 320.039 250.392C308.129 253.786 290.43 260.107 278.121 253.453C276.125 253.453 274.328 250.326 272.665 248.995Z" fill="#712311"/>
<path d="M285.374 268.487C294.689 278.8 308.196 284.921 323.167 262.765C315.116 260.569 296.22 257.242 285.374 268.487Z" fill="#D5503B"/>
<path d="M278.187 250.849C297.748 272.673 311.987 261.162 320.105 249.053C308.195 252.38 290.429 255.84 278.187 250.849Z" fill="white"/>
<path d="M199.592 148.302C218.867 155.457 241.437 153.422 259.242 142.943C277.046 132.465 289.653 113.712 292.515 93.4323C293.348 87.8061 292.762 80.8904 287.784 78.1269C286.06 77.1543 283.994 76.9075 281.986 76.803C269.738 76.0897 257.561 80.1882 247.186 86.7763C236.811 93.3644 228.25 102.306 220.546 111.802C215.015 118.67 209.938 125.921 206.529 134.003C204.419 139.107 202.983 144.475 202.305 149.909" fill="#F5C582"/>
<path d="M286.864 111.03C324.048 136.067 364.949 178.166 407.47 179.695C409.642 179.808 421.674 167.645 422.715 166.039C423.588 164.639 422.925 162.738 422.242 161.057C415.032 144.357 394.427 114.629 378.142 103.711C361.857 92.7924 343.633 85.173 325.433 78.1457C316.183 74.6191 306.778 71.1529 297.233 70.1821C287.763 69.2177 277.984 70.9554 272.14 76.7937" fill="#F5C582"/>
<path d="M80.3046 488.378C80.3046 488.378 70.7898 486.315 67.1968 481.591C63.5373 476.933 61.3416 474.871 48.4999 469.215C35.7248 463.626 30.6681 456.373 30.6681 456.373C30.6681 456.373 21.752 464.557 41.3138 473.939C53.2905 479.661 13.9006 478.863 2.05707 477.532C2.05707 477.532 -4.79615 481.258 6.51513 486.781C17.8929 492.303 6.9809 492.702 29.4039 502.151C51.8268 511.666 78.4416 516.656 83.8976 503.082C89.2871 489.575 80.3046 488.378 80.3046 488.378Z" fill="#FFBC9F"/>
<path d="M237.266 411.195C237.266 411.195 210.385 541.475 198.142 548.594C188.295 554.383 112.709 529.764 84.0979 520.116C77.3111 517.854 73.1191 516.39 73.1191 516.39L78.043 482.989L94.2114 485.184L174.788 496.097C174.788 496.097 201.935 363.755 221.497 362.091C241.059 360.494 237.266 411.195 237.266 411.195Z" fill="#F6E8EA"/>
<path d="M289.626 512.345C289.626 512.345 268.12 582.223 274.737 585.548C281.355 588.872 314.502 588.872 314.502 588.872C314.502 588.872 337.663 514.008 332.7 512.345C327.675 510.683 291.219 509.021 289.626 512.345Z" fill="#4363C9"/>
<path d="M294.174 567.405C294.174 568.088 294.796 568.884 295.474 568.827C303.555 567.974 309.771 561.662 317.739 563.027C309.715 567.064 302.764 574.002 303.781 584.238C303.894 585.489 305.081 586.001 306.041 585.262C311.749 580.371 318.361 575.935 326.046 577.585C329.324 578.267 333.223 579.575 336.614 579.12C341.7 578.494 345.938 576.163 348.481 571.215C352.945 562.629 351.306 552.392 341.304 550.288C341.078 550.231 340.852 550.288 340.682 550.345C337.009 548.867 333.619 547.047 330.68 543.805C327.798 540.621 325.142 537.209 322.034 534.252C317.909 530.328 313.388 527.314 307.906 529.93C307.058 530.328 307.172 531.522 307.624 532.148C310.054 535.162 312.879 538.062 315.818 540.791C312.879 540.109 309.828 539.768 306.776 539.995C301.294 540.45 294.796 544.147 294.965 550.686C294.965 551.539 295.53 551.994 296.265 552.108C301.294 552.62 306.38 552.563 311.41 553.075C303.724 555.293 294.118 557.965 294.174 567.405Z" fill="#FFBC9F"/>
<path d="M396.684 361.184C396.684 361.184 463.881 478.796 457.471 526.882C457.471 526.882 436.417 549.414 338.663 576.951L336.912 553.405C336.912 553.405 398.505 511.978 418.497 502.662C418.497 502.662 361.058 421.901 367.426 405.077C373.73 388.236 386.095 359.312 396.684 361.184Z" fill="#F6E8EA"/>
<path d="M521.627 324.559C521.627 324.559 400.202 501.855 420.715 549.765C441.299 597.747 478.235 574.437 478.235 574.437L550.889 405.891C550.961 405.891 536.187 335.102 521.627 324.559Z" fill="#404877"/>
<path d="M521.627 324.536C521.627 324.536 644.63 301.442 761.393 321.452C761.393 321.452 734.337 554.252 725.085 601.947C725.085 601.947 633.8 615.009 553.902 590.408C553.902 590.48 520.121 367.569 521.627 324.536Z" fill="#404877"/>
<path d="M678.555 310.421C678.555 330.934 656.249 347.645 635.808 347.645C615.439 347.645 593.134 331.005 593.134 310.421V263.372C593.134 242.859 615.439 226.22 635.808 226.22C656.177 226.22 678.555 242.859 678.555 263.372V310.421Z" fill="#E4907A"/>
<path d="M644.053 376.848C644.053 379.789 641.686 382.155 638.745 382.155C635.805 382.155 633.438 379.789 633.438 376.848C633.438 373.907 635.805 371.541 638.745 371.541C641.686 371.541 644.053 373.907 644.053 376.848Z" fill="white"/>
<path d="M644.053 431.928C644.053 434.869 641.686 437.236 638.745 437.236C635.805 437.236 633.438 434.869 633.438 431.928C633.438 428.988 635.805 426.621 638.745 426.621C641.686 426.621 644.053 428.988 644.053 431.928Z" fill="white"/>
<path d="M643.695 542.171C643.695 545.112 641.329 547.478 638.388 547.478C635.447 547.478 633.081 545.112 633.081 542.171C633.081 539.23 635.447 536.864 638.388 536.864C641.329 536.864 643.695 539.23 643.695 542.171Z" fill="white"/>
<path d="M644.053 486.783C644.053 489.724 641.686 492.091 638.745 492.091C635.805 492.091 633.438 489.724 633.438 486.783C633.438 483.843 635.805 481.476 638.745 481.476C641.686 481.548 644.053 483.915 644.053 486.783Z" fill="white"/>
<path d="M551.748 206.569C551.533 235.831 582.732 259.571 603.46 270.616C624.187 281.733 642.261 278.075 642.261 278.075C724.526 259.356 718.788 220.196 723.378 187.778C725.602 171.784 727.753 142.019 720.724 105.226C719.792 100.206 718.214 95.6872 716.206 91.5273C703.44 64.9186 673.316 54.5907 673.316 54.5907C655.314 48.2792 634.802 46.9165 616.082 50.3591C589.115 55.3079 567.886 69.2936 561.072 96.9065C558.849 105.8 557.629 114.98 556.553 124.017C554.187 142.737 552.967 161.671 552.25 180.534C551.963 189.212 551.82 197.891 551.748 206.569Z" fill="#F5AE94"/>
<path d="M650.709 199.182C650.709 199.182 629.47 229.365 609.796 196.64L650.709 199.182Z" fill="#D8826C"/>
<path d="M613.576 109.755C613.576 109.755 576.281 102.224 564.59 129.693C564.59 129.693 606.261 117.142 614.222 123.382L613.576 109.755Z" fill="#1B1B18"/>
<path d="M658.399 112.817C658.399 112.817 695.12 102.991 708.532 129.671C708.532 129.671 666.145 119.774 658.614 126.444L658.399 112.817Z" fill="#1B1B18"/>
<path d="M577.498 171.433C581.012 174.66 585.674 176.812 590.838 177.099C593.205 177.242 595.5 177.027 597.652 176.525C606.402 174.373 613.072 166.986 613.717 157.805C614.506 146.33 605.541 136.432 593.635 135.643C581.801 134.855 571.545 143.461 570.828 154.937C570.397 161.392 572.979 167.273 577.498 171.433Z" fill="white"/>
<path d="M575.634 164.038C575.85 166.692 576.495 169.202 577.571 171.426C581.085 174.653 585.747 176.805 590.911 177.092C593.278 177.235 595.573 177.02 597.725 176.518C601.024 173.147 602.889 167.768 602.387 161.958C601.67 152.491 595.071 145.247 587.684 145.821C585.102 146.036 582.807 147.184 580.87 148.905C579.794 149.909 578.79 151.128 578.073 152.563C576.137 155.719 575.276 159.735 575.634 164.038Z" fill="#5C8696"/>
<path d="M579.434 163.691C579.936 170.433 584.669 175.597 589.905 175.166C595.14 174.736 599.013 168.927 598.44 162.185C597.866 155.443 593.204 150.351 587.968 150.709C582.733 151.211 578.931 157.021 579.434 163.691Z" fill="#0D0D0C"/>
<path d="M577.927 152.204C578.07 153.997 580.365 155.36 583.091 155.145C585.816 154.93 587.896 153.28 587.753 151.415C587.609 149.55 585.314 148.259 582.589 148.475C579.863 148.69 577.783 150.411 577.927 152.204Z" fill="white"/>
<path d="M662.494 171.433C666.008 174.66 670.67 176.812 675.906 177.099C678.273 177.242 680.568 177.027 682.719 176.525C691.469 174.373 698.14 166.986 698.713 157.805C699.502 146.33 690.537 136.432 678.631 135.643C666.797 134.855 656.541 143.461 655.824 154.937C655.393 161.392 657.975 167.273 662.494 171.433Z" fill="white"/>
<path d="M660.555 164.038C660.771 166.692 661.416 169.202 662.492 171.426C666.006 174.653 670.668 176.805 675.904 177.092C678.271 177.235 680.566 177.02 682.717 176.518C685.945 173.147 687.881 167.768 687.379 161.958C686.662 152.491 680.064 145.247 672.605 145.821C670.023 146.036 667.728 147.184 665.791 148.905C664.715 149.909 663.711 151.128 662.994 152.563C661.129 155.719 660.268 159.735 660.555 164.038Z" fill="#5C8696"/>
<path d="M664.431 163.691C664.933 170.433 669.666 175.597 674.902 175.166C680.138 174.736 684.011 168.927 683.437 162.185C682.935 155.443 678.201 150.351 672.965 150.709C667.73 151.211 663.929 157.021 664.431 163.691Z" fill="#0D0D0C"/>
<path d="M662.923 152.204C663.066 153.997 665.361 155.36 668.087 155.145C670.812 154.93 672.892 153.28 672.749 151.415C672.605 149.55 670.31 148.259 667.585 148.475C664.859 148.69 662.779 150.411 662.923 152.204Z" fill="white"/>
<path d="M524.78 41.6095C529.586 48.3514 537.69 54.9498 546.153 56.7428C539.125 49.3555 532.455 39.3144 533.602 28.9148C533.674 28.4845 534.248 28.0541 534.678 28.2693C536.113 29.0582 537.26 30.2058 538.408 31.2816C544.791 37.0911 555.262 36.9476 562.936 34.1505C576.42 29.3451 587.465 19.8779 599.586 12.5623C612.783 4.60114 627.557 -0.0607653 643.193 0.58473C651.584 0.943338 659.832 2.73638 667.722 5.60525C687.015 12.7057 710.037 26.4045 715.201 47.921C715.919 50.8616 716.206 53.9457 716.134 56.958C716.134 58.8945 714.484 64.5605 715.273 66.0666C715.704 66.7838 714.771 67.6445 714.269 67.2142C713.982 67.2142 713.624 67.0707 713.48 66.7838C713.337 66.4252 713.265 66.2101 713.193 65.9949C704.085 58.6076 688.88 87.4397 683.357 92.0299C662.127 109.745 631.717 112.255 606.471 105.37C578.141 97.6242 546.943 78.1159 530.662 54.376C527.936 50.503 525.354 46.5583 523.418 42.255C523.059 41.6095 524.278 40.964 524.78 41.6095Z" fill="#2B2826"/>
<path d="M555.125 145.447C555.125 145.447 537.123 104.71 522.277 136.769C510.443 162.302 530.166 187.333 546.089 185.54C562.011 183.819 555.125 145.447 555.125 145.447Z" fill="#F0A98F"/>
<path d="M554.047 151.762C554.047 151.762 540.707 125.656 533.822 135.051C526.865 144.447 526.936 157.285 526.936 157.285C526.936 157.285 531.885 143.658 541.568 152.623C541.568 152.623 528.586 173.924 550.246 169.478C550.174 169.478 559.57 163.525 554.047 151.762Z" fill="#D8826C"/>
<path d="M694.191 59.458C694.191 59.458 692.111 92.7369 705.953 108.874C719.796 125.012 721.087 157.932 721.087 157.932C721.087 157.932 771.794 93.2389 714.13 55.585C714.13 55.585 702.583 50.9948 694.191 59.458Z" fill="#2A2826"/>
<path d="M582.732 72.5146C582.732 72.5146 559.279 103.714 554.33 148.611C554.33 148.611 521.266 99.4103 552.824 57.9551C552.752 57.8834 587.322 43.3239 582.732 72.5146Z" fill="#2A2826"/>
<path d="M720.011 151.64C720.011 151.64 738.013 110.902 752.859 142.962C764.693 168.495 744.97 193.526 729.048 191.732C713.125 190.011 720.011 151.64 720.011 151.64Z" fill="#F0A98F"/>
<path d="M721.083 157.955C721.083 157.955 734.423 131.848 741.38 141.244C748.337 150.639 748.266 163.477 748.266 163.477C748.266 163.477 743.317 149.85 733.634 158.815C733.634 158.815 746.544 180.117 724.956 175.67C724.884 175.67 715.489 169.717 721.083 157.955Z" fill="#D8826C"/>
<path d="M659.188 222.738C659.188 222.738 621.534 274.736 600.232 217.287C600.304 217.287 616.441 250.207 659.188 222.738Z" fill="#D5503B"/>
<path d="M546.155 1162.39H617.446L637.815 725.313C640.111 725.672 642.477 725.815 644.916 725.887L670.305 1159.37H741.453C741.884 1104.65 744.753 691.819 726.033 596.788L553.901 595.282C555.407 599.8 545.079 991.616 546.155 1162.39Z" fill="#4B4953"/>
<path d="M707.742 621.755L727.609 621.396L726.103 596.796L706.308 596.652C706.882 604.972 707.527 613.363 707.742 621.755Z" fill="#BEB9B9"/>
<path d="M688.307 596.437L600.52 595.648C600.807 604.972 601.093 614.295 601.308 623.619L689.885 622.041C688.092 614.08 688.235 605.115 688.307 596.437Z" fill="#BEB9B9"/>
<path d="M579.22 595.497L553.974 595.282V624.472L581.658 623.97C579.148 615.436 578.933 605.036 579.22 595.497Z" fill="#BEB9B9"/>
<path d="M619.944 585.604H672.241V618.289H619.944V585.604Z" fill="#787572"/>
<path d="M458.579 576.83C462.417 591.867 475.589 602.978 488.006 601.737L598.467 590.73C610.885 589.489 621.599 576.093 622.407 560.703L627.123 467.659C627.931 452.269 615.582 440.996 599.564 442.501L457.424 455.884C441.405 457.389 431.566 470.809 435.404 485.846L458.579 576.83Z" fill="#57B3ED"/>
<path d="M513.648 524.45C514.594 533.491 522.593 540.055 531.654 539.178C540.695 538.233 547.259 530.234 546.382 521.173C545.436 512.131 537.437 505.568 528.377 506.444C519.335 507.39 512.791 515.458 513.648 524.45Z" fill="#FFFFFE"/>
<path d="M586.891 520.431C587.68 517.777 588.9 515.482 590.406 513.545C590.334 513.33 590.334 513.115 590.334 512.828C591.051 497.48 599.084 483.422 616.441 485.359C624.043 486.219 630.57 492.531 635.949 497.408C645.058 505.656 654.238 513.904 663.131 522.367C677.332 528.679 673.316 548.904 656.605 553.925C645.201 557.367 634.084 556.22 623.039 551.916C607.834 546.035 595.641 534.488 578.285 536.64C576.707 536.855 574.77 534.99 574.986 533.341C576.133 525.451 580.723 521.004 586.891 520.431Z" fill="#F5AE94"/>
<path d="M437.854 528.036C440.077 524.88 443.448 522.155 448.325 520.219C452.772 518.426 458.008 517.78 462.024 520.864C472.137 528.753 458.223 530.044 452.7 532.842C460.661 530.618 479.596 532.268 482.25 541.52C485.405 552.708 469.053 562.032 462.024 566.551C492.219 567.053 468.694 589.932 453.417 576.233C441.583 565.618 428.172 542.022 437.854 528.036Z" fill="#F5AE94"/>
<path d="M761.392 322.18C761.392 322.18 871.628 451.135 872.991 503.205C874.354 555.275 719.507 571.699 651.013 553.912L653.738 505.931C653.738 505.931 786.638 485.347 786.638 478.533C786.638 471.648 737.294 415.49 740.019 394.905C742.816 374.393 761.392 322.18 761.392 322.18Z" fill="#404877"/>
</svg>
