<svg width="51" height="51" viewBox="0 0 51 51" fill="none" xmlns="http://www.w3.org/2000/svg">
<path d="M0.0297852 37.7301V13.6201C0.0297852 6.34014 5.97979 0.390137 13.2598 0.390137H37.3698C44.6398 0.390137 50.5998 6.34014 50.5998 13.6201V37.7301C50.5998 45.0001 44.6498 50.9601 37.3698 50.9601H13.2598C5.97979 50.9601 0.0297852 45.0101 0.0297852 37.7301Z" fill="url(#paint0_linear_8_2003)"/>
<path d="M9.84978 33.8401C9.84978 33.6801 9.84978 33.5201 9.84978 33.3601C10.0498 33.1301 10.2598 32.9301 10.5798 32.8701C13.1298 32.3701 14.8298 30.7401 16.1098 28.6101C17.1898 26.8201 17.0198 26.4101 15.0298 25.7101C14.9198 25.6701 14.7998 25.6401 14.6898 25.5901C14.2598 25.4101 13.8298 25.2201 13.4798 24.9201C12.5898 24.1501 13.1198 23.0301 14.1698 22.7801C14.9398 22.5901 15.6098 23.0901 16.3498 23.1801C16.8498 23.2401 17.0498 23.0701 16.9898 22.5401C16.8298 21.1701 16.8398 19.8001 16.8998 18.4301C17.0198 15.8101 18.3098 13.8201 20.4898 12.5301C23.6698 10.6401 26.9998 10.6201 30.1998 12.5001C32.1998 13.6701 33.4898 15.4501 33.7698 17.8301C33.9498 19.3801 33.8798 20.9301 33.7598 22.4801C33.7098 23.1501 33.8398 23.2801 34.5098 23.1201C35.3398 22.9301 36.0298 22.5001 36.8898 22.8801C37.3498 23.0801 37.7498 23.5201 37.7398 24.0201C37.7298 24.3601 37.5298 24.6801 37.2698 24.9101C36.8698 25.2601 36.3498 25.4501 35.8698 25.6401C35.4998 25.7901 35.1098 25.9101 34.7398 26.0801C33.9898 26.4301 33.7698 26.9001 34.1198 27.6401C35.3398 30.2101 37.1298 32.1701 40.0198 32.8501C40.3698 32.9301 40.6598 33.0801 40.8698 33.3601C40.8698 33.5201 40.8698 33.6801 40.8698 33.8401C40.5998 34.4001 40.1098 34.7201 39.5498 34.9301C38.9798 35.1401 38.4198 35.3801 37.8098 35.4201C36.9698 35.4701 36.5298 35.8401 36.3998 36.7101C36.2798 37.5401 36.0298 37.6601 35.1798 37.5901C34.9798 37.5701 34.7798 37.5401 34.5798 37.5001C32.9198 37.2101 31.3598 37.3701 29.9998 38.4701C29.7298 38.6801 29.4398 38.8601 29.1498 39.0501C26.8298 40.5601 24.4498 40.7301 22.0198 39.3201C21.3598 38.9301 20.7298 38.4901 20.0898 38.0701C19.5598 37.7201 18.9898 37.5301 18.3498 37.4301C17.3398 37.2801 16.3798 37.5001 15.3998 37.6101C14.8998 37.6701 14.4098 37.5201 14.3798 37.0001C14.3098 35.7501 13.5398 35.4401 12.4898 35.3201C11.9998 35.2701 11.5098 35.0701 11.0498 34.8701C10.5498 34.6801 10.0898 34.3801 9.84978 33.8401Z" fill="white"/>
<defs>
<linearGradient id="paint0_linear_8_2003" x1="46.7127" y1="4.27794" x2="3.91728" y2="47.0733" gradientUnits="userSpaceOnUse">
<stop stop-color="#F4E500"/>
<stop offset="1" stop-color="#FAB744"/>
</linearGradient>
</defs>
</svg>
