<svg width="52" height="52" viewBox="0 0 52 52" fill="none" xmlns="http://www.w3.org/2000/svg">
<path d="M0.469727 38.2702V14.1602C0.469727 6.88018 6.41972 0.930176 13.6997 0.930176H37.8097C45.0797 0.930176 51.0397 6.88018 51.0397 14.1602V38.2702C51.0397 45.5502 45.0897 51.5002 37.8097 51.5002H13.6997C6.41972 51.5002 0.469727 45.5402 0.469727 38.2702Z" fill="url(#paint0_linear_8_2016)"/>
<path d="M33.5997 16.6802C32.6397 16.6802 31.8597 17.4602 31.8597 18.4202C31.8597 19.3802 32.6397 20.1602 33.5997 20.1602C34.5597 20.1602 35.3397 19.3802 35.3397 18.4202C35.3397 17.4602 34.5597 16.6802 33.5997 16.6802Z" fill="white"/>
<path d="M25.8697 18.9102C21.8397 18.9102 18.5697 22.1802 18.5697 26.2102C18.5697 30.2402 21.8497 33.5102 25.8697 33.5102C29.8997 33.5102 33.1697 30.2302 33.1697 26.2102C33.1797 22.1902 29.8997 18.9102 25.8697 18.9102ZM25.8697 30.8902C23.2897 30.8902 21.1897 28.7902 21.1897 26.2102C21.1897 23.6302 23.2897 21.5302 25.8697 21.5302C28.4497 21.5302 30.5497 23.6302 30.5497 26.2102C30.5497 28.7902 28.4497 30.8902 25.8697 30.8902Z" fill="white"/>
<path d="M31.6697 41.0301H19.8297C14.9197 41.0301 10.9297 37.0401 10.9297 32.1301V20.2901C10.9297 15.3801 14.9197 11.3901 19.8297 11.3901H31.6697C36.5797 11.3901 40.5697 15.3801 40.5697 20.2901V32.1301C40.5797 37.0401 36.5797 41.0301 31.6697 41.0301ZM19.8297 14.1801C16.4597 14.1801 13.7097 16.9201 13.7097 20.3001V32.1401C13.7097 35.5101 16.4497 38.2601 19.8297 38.2601H31.6697C35.0397 38.2601 37.7897 35.5201 37.7897 32.1401V20.2901C37.7897 16.9201 35.0497 14.1701 31.6697 14.1701H19.8297V14.1801Z" fill="white"/>
<defs>
<linearGradient id="paint0_linear_8_2016" x1="51.5568" y1="0.408375" x2="-13.8402" y2="65.8054" gradientUnits="userSpaceOnUse">
<stop offset="0.0011048" stop-color="#FFE088"/>
<stop offset="0.2094" stop-color="#FAB744"/>
<stop offset="0.3765" stop-color="#EA5578"/>
<stop offset="0.5238" stop-color="#E93E8F"/>
<stop offset="0.7394" stop-color="#7C4997"/>
<stop offset="1" stop-color="#4F53A0"/>
</linearGradient>
</defs>
</svg>
