<svg width="485" height="1385" viewBox="0 0 485 1385" fill="none" xmlns="http://www.w3.org/2000/svg">
<path d="M256.533 521.387C211.593 555.837 146.368 569.788 96.1223 543.133C80.362 534.793 65.8501 521.465 62.7293 504.319C58.9843 483.665 72.3259 462.309 66.7084 442.045C61.793 424.119 43.8482 413.129 30.5066 399.879C11.1574 380.706 -0.0776173 353.973 0.000403688 327.084C0.0784247 300.195 11.3134 273.539 30.7407 254.444C47.2031 238.233 68.6589 227.789 87.54 214.227C102.442 203.472 115.862 189.52 122.961 172.607C129.983 155.928 124.21 146.108 123.196 129.741C121.089 94.7458 129.905 55.6201 155.106 29.5883C187.719 -4.23755 236.17 -3.69197 279.003 5.03727C300.693 9.40189 324.646 16.1826 343.683 27.7177C351.797 32.6279 357.181 38.6292 362.72 46.5012C364.514 48.9952 374.501 73.858 374.111 73.78C437.62 88.2768 403.525 176.193 423.03 216.565C429.194 229.27 439.961 239.09 449.401 249.612C465.942 268.161 478.893 290.452 482.95 314.925C487.007 339.398 481.468 366.054 465.005 384.603C462.353 387.643 459.232 390.605 458.218 394.502C456.657 400.347 459.934 406.193 462.353 411.726C476.787 444.851 460.246 483.197 439.415 512.736C425.449 532.611 408.986 551.472 387.609 563.007C353.514 581.479 310.446 578.595 275.336 562.072" fill="url(#paint0_linear_17_4)"/>
<path opacity="0.42" d="M286.961 85.6185C308.417 75.1746 335.802 86.7876 349.066 106.662C362.251 126.537 379.416 144.229 376.295 167.845C374.735 179.536 372.16 191.46 374.501 203.073C380.43 233.158 398.999 255.137 418.348 278.909C434.733 299.017 440.038 325.75 444.251 351.315C446.748 366.591 448.777 383.426 440.662 396.598C430.364 413.277 418.582 434.788 407.503 450.921C389.247 477.343 399.935 503.141 377.856 526.523C371.302 533.382 362.095 536.967 353.045 539.851C334.71 545.54 315.751 548.892 296.558 549.905C280.173 550.762 263.555 549.749 248.107 544.371C210.188 531.043 184.832 488.488 191.697 448.895C196.925 418.888 217.6 393.948 227.431 365.032C234.453 344.3 235.623 321.62 230.864 300.264C224.778 273.297 209.252 246.486 215.962 219.675" fill="#320532"/>
<path d="M182.572 1346.07C186.863 1371.63 157.527 1388.08 134.355 1384.02C124.914 1382.39 107.906 1359.78 115.162 1351.83C122.886 1343.42 129.439 1334.53 135.447 1325.49C139.972 1318.79 144.185 1312.01 148.399 1305.23C150.505 1301.87 149.959 1298.44 151.988 1295.09C148.711 1272.49 146.916 1250.04 139.114 1227.52V1230.33H197.864C191.154 1253.71 182.494 1275.61 171.493 1300.78C172.117 1302.65 172.663 1303.82 173.287 1305.77C173.911 1307.88 174.458 1309.59 175.082 1311.77C178.281 1324.16 181.011 1337.02 182.572 1346.07Z" fill="#F0A98F"/>
<path d="M134.354 1384.11C124.913 1382.47 107.905 1359.87 115.161 1351.92C122.885 1343.5 129.438 1334.61 135.446 1325.57C139.971 1318.87 144.184 1312.09 148.398 1305.31C155.107 1307.65 164.002 1308.97 173.286 1305.15C173.91 1307.18 174.457 1309.36 175.081 1311.54C178.358 1323.86 181.088 1337.03 182.649 1346.15C186.862 1371.64 157.448 1388.08 134.354 1384.11Z" fill="#393D45"/>
<path d="M182.727 1298.05C174.301 1299.92 168.215 1304.76 162.207 1310.29C164.314 1302.73 165.328 1296.11 158.774 1289.01C151.596 1281.3 141.688 1285.19 137.631 1293.53C133.964 1300.94 136.538 1304.68 142.546 1309.04C145.745 1311.38 149.1 1313.41 152.455 1315.51C153.001 1315.82 156.512 1317.7 158.54 1318.86C152.221 1318.71 145.121 1320.97 140.674 1322.99C139.503 1323.54 140.283 1325.02 141.22 1325.18C145.901 1325.72 150.504 1324.55 155.185 1324.32C160.803 1324.09 164.236 1327.05 169.151 1329C170.243 1329.46 171.414 1328.14 171.024 1327.05C169.775 1323.07 167.123 1320.81 163.846 1319.72C169.385 1320.81 176.095 1318.47 181.01 1316.37C186.238 1314.19 197.473 1309.98 198.097 1303.12C198.877 1295.01 187.252 1297.04 182.727 1298.05ZM144.419 1305.69C142.858 1304.6 139.659 1302.81 139.503 1300.7C139.035 1295.09 143.872 1288.7 149.412 1288.47C155.966 1288.08 160.569 1296.18 160.491 1301.72C160.491 1305.85 158.54 1309.98 157.214 1313.95C152.611 1310.29 145.745 1306.63 144.419 1305.69ZM193.494 1303.2C191.387 1307.64 183.507 1310.37 179.294 1312.16C173.988 1314.34 168.527 1315.98 162.987 1314.89C167.825 1310.45 172.74 1305.69 178.982 1303.67C180.698 1303.12 195.054 1299.85 193.494 1303.2Z" fill="#032733"/>
<path d="M166.265 1343.57C164.314 1331.73 143.717 1332.35 135.368 1334.53C134.198 1334.84 134.198 1336.48 135.368 1336.79C140.284 1338.04 145.433 1337.96 150.348 1338.9C155.81 1339.83 159.165 1343.11 163.924 1345.29C165.25 1345.91 166.499 1344.9 166.265 1343.57Z" fill="#032733"/>
<path d="M159.477 1350.67C155.732 1347.78 148.944 1347 144.341 1346.07C139.035 1344.9 134.432 1345.68 129.595 1347.86C128.425 1348.41 129.283 1350.2 130.453 1349.89C135.837 1348.33 141.298 1349.89 146.447 1351.53C150.348 1352.85 154.874 1355.34 159.009 1354.1C160.725 1353.55 160.725 1351.6 159.477 1350.67Z" fill="#032733"/>
<path d="M317.31 1346.07C313.019 1371.63 342.354 1388.08 365.527 1384.02C374.967 1382.39 392.054 1359.78 384.72 1351.83C376.996 1343.42 370.442 1334.53 364.434 1325.49C359.909 1318.79 355.696 1312.01 351.483 1305.23C349.376 1301.87 348.362 1298.44 346.256 1295.09C349.532 1272.49 349.766 1250.04 357.569 1227.52V1230.33H302.018C308.727 1253.71 317.388 1275.61 328.389 1300.78C327.765 1302.65 327.218 1303.82 326.594 1305.77C325.97 1307.88 325.424 1309.59 324.8 1311.77C321.523 1324.16 318.87 1337.02 317.31 1346.07Z" fill="#F0A98F"/>
<path d="M365.453 1384.11C374.893 1382.47 391.98 1359.87 384.646 1351.92C376.922 1343.5 370.368 1334.61 364.36 1325.57C359.835 1318.87 355.622 1312.09 351.409 1305.31C344.699 1307.65 335.805 1308.97 326.52 1305.15C325.896 1307.18 325.35 1309.36 324.726 1311.54C321.449 1323.86 318.718 1337.03 317.158 1346.15C313.023 1371.64 342.358 1388.08 365.453 1384.11Z" fill="#393D45"/>
<path d="M301.709 1303.04C302.334 1309.9 313.569 1314.11 318.796 1316.29C323.711 1318.39 330.421 1320.73 335.961 1319.64C332.684 1320.73 330.031 1322.99 328.783 1326.97C328.471 1327.98 329.563 1329.3 330.733 1328.91C335.649 1327.04 339.081 1324.08 344.699 1324.24C349.38 1324.39 353.983 1325.56 358.743 1325.1C359.757 1325.02 360.459 1323.46 359.367 1322.91C354.92 1320.89 347.82 1318.63 341.5 1318.78C343.451 1317.61 347.04 1315.74 347.586 1315.43C350.941 1313.33 354.296 1311.3 357.494 1308.96C363.502 1304.6 365.999 1300.93 362.332 1293.45C358.275 1285.19 348.366 1281.22 341.188 1288.93C334.634 1295.95 335.727 1302.57 337.755 1310.21C331.747 1304.75 325.662 1299.92 317.236 1297.97C312.554 1297.04 301.007 1295.01 301.709 1303.04ZM342.592 1313.87C341.266 1309.9 339.316 1305.77 339.316 1301.64C339.316 1296.1 343.841 1288.07 350.395 1288.39C355.856 1288.7 360.771 1295.09 360.303 1300.62C360.147 1302.73 356.948 1304.6 355.388 1305.61C354.062 1306.62 347.196 1310.29 342.592 1313.87ZM320.825 1303.66C327.144 1305.69 331.982 1310.37 336.819 1314.89C331.279 1315.98 325.818 1314.34 320.512 1312.16C316.299 1310.37 308.497 1307.64 306.313 1303.19C304.752 1299.84 319.186 1303.12 320.825 1303.66Z" fill="#032733"/>
<path d="M333.62 1343.57C335.57 1331.73 356.168 1332.35 364.516 1334.53C365.608 1334.84 365.686 1336.48 364.516 1336.79C359.601 1338.04 354.451 1337.96 349.536 1338.9C344.075 1339.83 340.72 1343.11 335.96 1345.29C334.556 1345.91 333.386 1344.9 333.62 1343.57Z" fill="#032733"/>
<path d="M340.33 1350.67C344.075 1347.78 350.863 1347 355.466 1346.07C360.771 1344.9 365.375 1345.68 370.212 1347.86C371.382 1348.41 370.524 1350.2 369.354 1349.89C363.97 1348.33 358.509 1349.89 353.359 1351.53C349.458 1352.85 344.933 1355.34 340.798 1354.1C339.16 1353.55 339.082 1351.6 340.33 1350.67Z" fill="#032733"/>
<path d="M198.254 595.11C195.835 585.602 147.618 344.534 147.618 344.534C147.618 344.534 276.197 306.656 358.431 344.534L305.767 597.215L198.254 595.11Z" fill="#D8D2DB"/>
<path d="M191.934 472.516C191.934 472.516 288.602 482.492 315.285 462.54C315.207 462.54 281.892 542.428 191.934 472.516Z" fill="#CAC3CD"/>
<path d="M192.012 594.239C192.012 594.239 113.835 757.913 145.746 1278.71C145.746 1278.71 179.451 1285.8 190.062 1282.21C190.062 1282.21 286.495 829.617 263.089 602.423L192.012 594.239Z" fill="#C3BFCB"/>
<path d="M236.171 699.464C236.171 699.464 234.376 1122.83 307.092 1271.62L362.097 1269.83C362.097 1269.83 391.433 764.388 305.844 593.7L240.228 600.949L236.171 699.464Z" fill="#C3BFCB"/>
<path d="M187.409 604.695C187.409 604.695 248.11 622.777 309.746 598.46L310.526 574.221C310.526 574.221 278.928 583.729 252.011 582.093C225.171 580.534 188.814 575.779 188.814 575.779L187.409 604.695Z" fill="#8F99B6"/>
<path d="M201.531 571.013C201.531 571.013 191.311 610.528 200.751 615.205C210.27 619.959 215.809 617.855 215.809 617.855L215.731 574.13L201.531 571.013Z" fill="#D4D4D4"/>
<path d="M299.057 567.904C299.057 567.904 305.455 604.848 297.419 611.784C286.496 621.059 285.872 613.577 285.872 613.577L284.857 571.1L299.057 567.904Z" fill="#D4D4D4"/>
<path d="M233.129 574.221C233.129 578.975 234.768 608.202 234.768 608.202L268.785 608.982L271.906 575L233.129 574.221ZM263.167 603.136L240.229 601.578L239.449 583.573H264.728L263.167 603.136Z" fill="#EAEAEA"/>
<path d="M206.913 330.966C203.402 351.62 231.1 353.413 231.1 353.413C243.349 353.413 262.464 349.672 262.464 337.435L256.534 260.976C256.534 248.74 246.626 238.841 234.377 238.841C222.127 238.841 212.219 248.74 212.219 260.976L206.913 330.966Z" fill="#D8826C"/>
<path d="M318.562 69.0925C315.753 63.7926 294.531 69.4822 292.191 63.8705C278.537 76.107 249.123 52.0237 232.739 61.2985C211.283 73.4571 194.04 85.6157 170.322 92.4744C162.52 94.7346 173.833 99.8786 165.562 100.268C163.378 114.609 149.88 159.269 150.66 174.077C154.64 248.354 209.254 295.118 262.933 288.259C303.504 283.037 341.89 232.766 352.111 161.373C353.047 154.67 357.962 122.403 357.494 115.856C338.301 97.1507 331.357 92.8641 318.562 69.0925Z" fill="#F0A98F"/>
<path d="M251.386 213.274C251.386 213.274 264.025 234.551 277.601 212.884L251.386 213.274Z" fill="#D8826C"/>
<path d="M238.355 170.1C238.355 184.129 226.964 195.586 212.842 195.586C198.72 195.586 187.329 184.207 187.329 170.1C187.329 156.071 198.72 144.613 212.842 144.613C226.964 144.613 238.355 156.071 238.355 170.1Z" fill="white"/>
<path d="M230.71 184.136C226.185 194.814 215.964 200.737 207.85 197.386C199.736 193.956 196.849 182.577 201.296 171.899C205.822 161.144 216.042 155.298 224.079 158.65C232.271 162.001 235.236 173.38 230.71 184.136Z" fill="#7F5242"/>
<path d="M226.42 182.338C223.221 189.898 215.965 194.107 210.192 191.691C204.418 189.274 202.311 181.169 205.588 173.531C208.787 165.893 216.043 161.684 221.817 164.1C227.59 166.594 229.619 174.7 226.42 182.338Z" fill="#400404"/>
<path d="M232.583 169.557C231.725 171.662 228.604 172.285 225.639 171.038C222.675 169.791 220.958 167.063 221.816 165.037C222.675 162.933 225.795 162.309 228.76 163.556C231.725 164.803 233.441 167.531 232.583 169.557Z" fill="white"/>
<path d="M224.468 233.783C224.468 233.783 265.585 252.722 282.984 235.342C282.984 235.342 267.145 274.857 224.468 233.783Z" fill="#D5503B"/>
<path d="M238.356 170.106C238.356 170.106 240.384 153.739 224.39 145.477C199.891 132.851 186.472 162.079 178.514 166.833C178.514 166.833 183.663 171.977 187.408 170.184C187.408 170.106 216.432 135.423 238.356 170.106Z" fill="#302725"/>
<path d="M284.935 173.618C284.935 187.725 296.326 199.104 310.447 199.104C324.491 199.104 335.96 187.725 335.96 173.618C335.96 159.589 324.569 148.21 310.447 148.21C296.404 148.132 284.935 159.589 284.935 173.618Z" fill="white"/>
<path d="M327.768 184.996C325.349 196.375 316.065 204.014 306.936 202.065C297.808 200.117 292.424 189.361 294.843 178.06C297.262 166.68 306.546 159.042 315.675 160.913C324.725 162.861 330.187 173.617 327.768 184.996Z" fill="#7F5242"/>
<path d="M323.009 183.984C321.292 192.09 314.738 197.468 308.263 196.143C301.787 194.818 297.964 187.102 299.602 179.074C301.319 170.968 307.951 165.512 314.426 166.915C320.824 168.24 324.725 175.878 323.009 183.984Z" fill="#400404"/>
<path d="M326.675 170.27C326.207 172.453 323.086 173.7 319.809 172.998C316.454 172.297 314.192 169.958 314.582 167.776C315.05 165.594 318.093 164.347 321.448 165.048C324.803 165.75 327.143 168.088 326.675 170.27Z" fill="white"/>
<path d="M284.544 170.49C284.544 170.49 282.515 155.915 298.51 148.589C323.008 137.365 336.428 163.319 344.308 167.528C344.308 167.528 339.159 172.049 335.414 170.49C335.492 170.49 309.199 138.924 284.544 170.49Z" fill="#302725"/>
<path d="M191.855 133.942C191.855 133.942 217.758 110.794 242.569 120.77C248.343 123.108 249.669 125.836 253.336 137.06C253.336 137.06 225.092 121.238 191.855 133.942Z" fill="#6F3B1E"/>
<path d="M343.997 143.602C343.997 143.602 329.251 116.868 306.781 122.246C301.553 123.493 299.759 125.909 293.907 136.042C293.907 136.12 320.668 125.754 343.997 143.602Z" fill="#6F3B1E"/>
<path d="M157.916 152.497C157.916 152.497 130.375 114.93 122.417 151.016C116.097 179.776 141.766 200.897 157.682 195.52C173.598 190.142 157.916 152.497 157.916 152.497Z" fill="#F0A98F"/>
<path d="M158.228 159.191C158.228 159.191 138.723 135.497 133.729 146.642C128.736 157.788 131.701 170.882 131.701 170.882C131.701 170.882 133.729 155.917 145.589 162.854C145.589 162.854 137.162 187.483 158.228 178.13C158.306 178.13 166.576 169.946 158.228 159.191Z" fill="#D8826C"/>
<path d="M159.42 197.421C159.42 201.24 156.533 204.279 153.022 204.279C149.433 204.279 146.625 201.162 146.625 197.421C146.625 193.602 149.511 190.484 153.022 190.484C156.533 190.484 159.42 193.524 159.42 197.421Z" fill="white"/>
<path d="M383.162 126.7C360.848 132.935 335.726 128.415 316.767 114.775C297.807 101.136 285.48 78.6115 284.232 55.3075C283.842 48.8385 285.168 41.0446 291.02 38.3946C293.048 37.4593 295.389 37.3814 297.651 37.4593C311.461 37.849 324.725 43.6945 335.726 52.1899C346.727 60.6854 355.465 71.6749 363.189 83.2099C368.729 91.5495 373.722 100.279 376.765 109.787C378.637 115.789 379.729 122.024 379.964 128.259" fill="url(#paint1_linear_17_4)"/>
<path d="M289.07 69.8861C248.265 92.9563 202.076 133.719 157.838 131.458C155.576 131.381 144.185 117.429 143.248 115.637C142.468 114.078 143.326 112.129 144.185 110.415C153.157 93.4239 177.188 63.8848 195.054 53.8306C212.921 43.7763 232.504 37.3853 252.01 31.6178C261.918 28.734 271.983 25.9282 281.97 25.7723C291.878 25.6164 301.865 28.3443 307.405 35.0471" fill="url(#paint2_linear_17_4)"/>
<path d="M358.831 343.919C358.831 343.919 445.312 542.665 413.701 570.119C413.701 570.119 382.09 587.014 354.617 510.988C327.143 434.884 327.221 339.539 358.831 343.919Z" fill="#D8D2DB"/>
<path d="M350.402 477.195C350.402 477.195 423.301 528.27 417.838 559.635C416.979 564.719 413.623 570.194 413.623 570.194C413.623 570.194 382.013 606.173 341.894 523.734C341.973 523.655 318.713 470.86 350.402 477.195Z" fill="#D8D2DB"/>
<path d="M360.938 465.548C354.304 450.921 335.884 439.971 330.03 440.832C325.347 438.563 320.664 439.345 316.683 447.089C310.986 458.117 311.22 477.046 315.591 488.856C324.098 511.852 347.67 482.755 346.655 464.453C355.787 472.274 367.807 480.722 360.938 465.548Z" fill="#F0A98F"/>
<path d="M329.327 442.312C329.327 442.312 301.931 531.087 310.361 535.311C318.79 539.534 361.016 539.534 361.016 539.534C361.016 539.534 390.519 444.424 384.197 442.312C377.797 440.2 331.357 438.088 329.327 442.312Z" fill="#EAEAEA"/>
<path d="M278.28 549.079C278.28 549.079 288.973 546.889 293.032 541.492C297.09 536.095 299.588 533.749 314.027 527.491C328.389 521.234 334.086 512.865 334.086 512.865C334.086 512.865 344.155 522.72 322.145 533.201C308.642 539.615 352.975 539.693 366.321 538.363C366.321 538.363 374.048 542.9 361.326 549.079C348.604 555.258 360.858 555.962 335.647 566.599C310.437 577.158 280.465 582.321 274.299 566.287C268.133 550.252 278.28 549.079 278.28 549.079Z" fill="#FFBC9F"/>
<path d="M182.044 405.537C186.961 429.94 165.809 533.185 165.809 533.185C180.171 532.246 244.094 536.001 267.743 538.66C275.783 539.52 280.934 540.146 280.934 540.146L288.817 581.053C284.368 582.07 279.997 582.93 275.705 583.791C190.395 599.825 127.877 576.516 127.877 576.516C102.12 418.677 147.936 343.903 147.936 343.903C169.087 342.495 182.044 405.537 182.044 405.537Z" fill="#D8D2DB"/>
<defs>
<linearGradient id="paint0_linear_17_4" x1="66.558" y1="519.25" x2="399.348" y2="50.8973" gradientUnits="userSpaceOnUse">
<stop stop-color="#4E104E"/>
<stop offset="1" stop-color="#9E25A0"/>
</linearGradient>
<linearGradient id="paint1_linear_17_4" x1="382.708" y1="129.202" x2="298.043" y2="37.1956" gradientUnits="userSpaceOnUse">
<stop stop-color="#962397"/>
<stop offset="1" stop-color="#9A249C"/>
</linearGradient>
<linearGradient id="paint2_linear_17_4" x1="147.798" y1="123.817" x2="290.702" y2="38.6624" gradientUnits="userSpaceOnUse">
<stop stop-color="#811E82"/>
<stop offset="1" stop-color="#9B249D"/>
</linearGradient>
</defs>
</svg>
