<svg width="52" height="52" viewBox="0 0 52 52" fill="none" xmlns="http://www.w3.org/2000/svg">
<path d="M0.929688 38.2702V14.1602C0.929688 6.89018 6.8797 0.930176 14.1597 0.930176H38.2697C45.5497 0.930176 51.4997 6.88018 51.4997 14.1602V38.2702C51.4997 45.5402 45.5497 51.5002 38.2697 51.5002H14.1597C6.8897 51.5002 0.929688 45.5402 0.929688 38.2702Z" fill="url(#paint0_linear_8_2006)"/>
<path d="M40.1897 17.5502C39.3097 17.9502 38.3497 18.1902 37.3997 18.3502C37.8497 18.2702 38.5097 17.4602 38.7697 17.1302C39.1697 16.6302 39.5097 16.0602 39.6997 15.4402C39.7197 15.3902 39.7397 15.3302 39.6897 15.2902C39.6297 15.2702 39.5897 15.2802 39.5397 15.3002C38.4897 15.8702 37.3897 16.2702 36.2297 16.5702C36.1297 16.5902 36.0597 16.5702 35.9997 16.5102C35.8997 16.4002 35.8097 16.3002 35.7097 16.2102C35.2197 15.7902 34.6997 15.4702 34.1097 15.2302C33.3297 14.9102 32.4897 14.7802 31.6497 14.8302C30.8397 14.8802 30.0397 15.1102 29.3197 15.4902C28.5997 15.8702 27.9497 16.3902 27.4397 17.0302C26.9097 17.6902 26.5197 18.4602 26.3197 19.2802C26.1297 20.0702 26.1397 20.8502 26.2597 21.6502C26.2797 21.7802 26.2697 21.8002 26.1497 21.7802C21.6097 21.1002 17.8397 19.4802 14.7897 16.0002C14.6597 15.8502 14.5897 15.8502 14.4797 16.0102C13.1397 18.0102 13.7897 21.2302 15.4597 22.8202C15.6797 23.0302 15.9097 23.2402 16.1597 23.4302C16.0697 23.4502 14.9597 23.3302 13.9697 22.8202C13.8397 22.7402 13.7697 22.7802 13.7597 22.9302C13.7497 23.1502 13.7697 23.3502 13.7997 23.5802C14.0597 25.6102 15.4597 27.4902 17.3897 28.2202C17.6197 28.3202 17.8697 28.4002 18.1197 28.4402C17.6797 28.5402 17.2297 28.6102 15.9697 28.5102C15.8097 28.4802 15.7497 28.5602 15.8097 28.7102C16.7597 31.2902 18.7997 32.0602 20.3297 32.4902C20.5297 32.5302 20.7397 32.5302 20.9497 32.5702C20.9397 32.5902 20.9297 32.5902 20.9097 32.6102C20.3997 33.3802 18.6397 33.9602 17.8197 34.2502C16.3297 34.7702 14.7097 35.0002 13.1297 34.8502C12.8797 34.8102 12.8297 34.8202 12.7597 34.8502C12.6897 34.8902 12.7497 34.9502 12.8297 35.0202C13.1497 35.2302 13.4697 35.4202 13.8097 35.6002C14.8097 36.1302 15.8497 36.5502 16.9397 36.8502C22.5697 38.4002 28.9097 37.2602 33.1397 33.0602C36.4597 29.7602 37.6197 25.2102 37.6197 20.6602C37.6197 20.4802 37.8297 20.3802 37.9597 20.2902C38.8197 19.6402 39.5197 18.8602 40.1597 18.0002C40.2997 17.8102 40.3097 17.6302 40.3097 17.5602C40.3097 17.5502 40.3097 17.5402 40.3097 17.5402C40.2997 17.4802 40.2997 17.5002 40.1897 17.5502Z" fill="white"/>
<defs>
<linearGradient id="paint0_linear_8_2006" x1="47.6135" y1="4.81518" x2="4.81809" y2="47.6106" gradientUnits="userSpaceOnUse">
<stop stop-color="#00B1E3"/>
<stop offset="1" stop-color="#2773B9"/>
</linearGradient>
</defs>
</svg>
