<svg width="51" height="52" viewBox="0 0 51 52" fill="none" xmlns="http://www.w3.org/2000/svg">
<path d="M0.369629 38.2702V14.1602C0.369629 6.88018 6.31964 0.930176 13.5996 0.930176H37.7096C44.9896 0.930176 50.9396 6.88018 50.9396 14.1602V38.2702C50.9396 45.5402 44.9896 51.5002 37.7096 51.5002H13.5996C6.32964 51.5002 0.369629 45.5402 0.369629 38.2702Z" fill="url(#paint0_linear_8_2030)"/>
<path fill-rule="evenodd" clip-rule="evenodd" d="M32.4896 21.5703C34.5596 23.0503 37.0896 23.9203 39.8296 23.9203V18.6503C39.3096 18.6503 38.7996 18.6003 38.2896 18.4903V22.6303C35.5496 22.6303 33.0196 21.7603 30.9496 20.2803V31.0203C30.9496 36.4003 26.5896 40.7503 21.2096 40.7503C19.1996 40.7503 17.3396 40.1403 15.7896 39.1003C17.5596 40.9103 20.0196 42.0303 22.7496 42.0303C28.1296 42.0303 32.4896 37.6703 32.4896 32.3003V21.5703ZM34.3996 16.2603C33.3396 15.1103 32.6496 13.6103 32.4996 11.9603V11.2803H31.0396C31.3996 13.3903 32.6496 15.1803 34.3996 16.2603ZM19.1996 35.0003C18.6096 34.2303 18.2896 33.2803 18.2896 32.3003C18.2896 29.8403 20.2796 27.8503 22.7396 27.8503C23.1996 27.8503 23.6496 27.9203 24.0896 28.0603V22.6803C23.5796 22.6103 23.0596 22.5803 22.5496 22.5903V26.7803C22.1096 26.6403 21.6596 26.5703 21.1996 26.5703C18.7396 26.5703 16.7496 28.5603 16.7496 31.0203C16.7496 32.7603 17.7396 34.2703 19.1996 35.0003Z" fill="#E72F59"/>
<path fill-rule="evenodd" clip-rule="evenodd" d="M30.9496 20.2903C33.0196 21.7703 35.5496 22.6403 38.2896 22.6403V18.5003C36.7596 18.1703 35.4096 17.3803 34.3896 16.2703C32.6496 15.1803 31.3896 13.3903 31.0296 11.3003H27.1896V32.3303C27.1796 34.7803 25.1896 36.7703 22.7396 36.7703C21.2896 36.7703 20.0096 36.0803 19.1896 35.0103C17.7396 34.2803 16.7396 32.7703 16.7396 31.0303C16.7396 28.5703 18.7296 26.5803 21.1896 26.5803C21.6596 26.5803 22.1196 26.6503 22.5396 26.7903V22.6003C17.2596 22.7103 13.0096 27.0203 13.0096 32.3303C13.0096 34.9803 14.0696 37.3803 15.7896 39.1303C17.3396 40.1703 19.1996 40.7803 21.2096 40.7803C26.5896 40.7803 30.9496 36.4203 30.9496 31.0503V20.2903Z" fill="white"/>
<path fill-rule="evenodd" clip-rule="evenodd" d="M38.2896 18.5003V17.3803C36.9096 17.3803 35.5596 17.0003 34.3896 16.2703C35.4296 17.4003 36.7896 18.1803 38.2896 18.5003ZM31.0296 11.2903C30.9896 11.0903 30.9696 10.8903 30.9496 10.6903V10.0103H25.6496V31.0403C25.6396 33.4903 23.6496 35.4803 21.1996 35.4803C20.4796 35.4803 19.7996 35.3103 19.1996 35.0103C20.0096 36.0803 21.2996 36.7703 22.7496 36.7703C25.1996 36.7703 27.1996 34.7903 27.1996 32.3303V11.2903H31.0296ZM22.5496 22.5903V21.4003C22.1096 21.3403 21.6596 21.3103 21.2096 21.3103C15.8296 21.3103 11.4696 25.6703 11.4696 31.0403C11.4696 34.4103 13.1796 37.3803 15.7896 39.1303C14.0696 37.3803 13.0096 34.9703 13.0096 32.3303C13.0196 27.0103 17.2696 22.7003 22.5496 22.5903Z" fill="#2AB7C5"/>
<defs>
<linearGradient id="paint0_linear_8_2030" x1="4.25893" y1="4.81508" x2="47.0543" y2="47.6105" gradientUnits="userSpaceOnUse">
<stop stop-color="#241C47"/>
<stop offset="0.5373" stop-color="#171527"/>
<stop offset="1" stop-color="#020203"/>
</linearGradient>
</defs>
</svg>
