<svg width="601" height="1215" viewBox="0 0 601 1215" fill="none" xmlns="http://www.w3.org/2000/svg">
<path d="M496.213 486.463C496.213 486.463 508.277 483.34 512.181 475.889C516.084 468.437 518.568 465.102 534.393 456.444C550.148 447.786 555.399 436.148 555.399 436.148C555.399 436.148 568.67 449.56 544.754 464.25C530.135 473.192 581.728 472.837 597.057 470.992C597.057 470.992 606.779 477.237 592.941 485.824C584.354 491.147 586.625 493.56 583.005 498.101C589.889 496.54 596.489 496.398 589.179 504.772C578.109 517.475 525.309 535.714 509.981 522.94C503.026 521.165 497.491 517.12 494.368 510.166C484.646 488.237 496.213 486.463 496.213 486.463Z" fill="#F5AE94"/>
<path d="M287.218 407.18C287.218 407.18 299.85 521.082 350.449 566.997C361.591 577.145 515.092 533.785 515.092 533.785L500.615 474.102L380.61 497.521C380.61 497.521 364.359 374.82 317.379 321.524L287.218 407.18Z" fill="#2364AA"/>
<path d="M90.5695 1194.53L171.188 1185.45C167.355 1179.28 165.439 1159.97 164.375 1146.28C163.026 1127.33 163.523 1102.56 163.523 1102.56C163.523 1102.56 110.298 1089.57 110.298 1102.56C110.298 1122.08 107.247 1132.22 103.556 1146.28C97.8791 1167.99 90.5695 1194.53 90.5695 1194.53Z" fill="#22272E"/>
<path d="M89.0088 1200.14C89.0088 1200.56 89.0088 1197.37 89.0798 1197.73C89.2927 1202.13 90.4282 1200.07 92.4152 1206.6H177.007C178.994 1200.07 180.13 1202.2 180.272 1197.73C180.272 1197.37 180.343 1198.72 180.343 1198.29C180.343 1178.14 159.904 1162.74 134.711 1162.74C109.447 1162.74 89.0088 1179.98 89.0088 1200.14Z" fill="#22272E"/>
<path d="M164.376 1154.58C163.028 1135.06 163.524 1102.56 163.524 1102.56C163.524 1102.56 110.299 1089.57 110.299 1102.56C110.299 1122.08 107.248 1135.06 103.558 1154.58H164.376Z" fill="#617085"/>
<path d="M89.0795 1196.82C89.2924 1196.82 90.4279 1203.34 92.4149 1203.34H177.007C178.994 1203.34 180.13 1196.82 180.271 1196.82H89.0795Z" fill="#515D6E" stroke="#515D6E" stroke-miterlimit="10"/>
<path d="M119.383 1169.85C125.699 1161.12 140.673 1164.18 147.769 1170.07C148.834 1170.99 147.628 1172.34 146.563 1172.19C142.163 1171.41 138.615 1169.14 134.002 1168.93C129.034 1168.72 125.344 1171.7 120.66 1172.05C119.596 1172.05 118.744 1170.7 119.383 1169.85Z" fill="#515D6E"/>
<path d="M121.936 1178.94C128.962 1174.12 142.729 1172.34 148.903 1179.51C149.755 1180.5 148.974 1182.13 147.555 1181.78C143.439 1180.64 138.684 1180.08 134.426 1180.08C130.097 1180.15 126.62 1183.2 122.291 1182.13C120.801 1181.78 120.801 1179.72 121.936 1178.94Z" fill="#515D6E"/>
<path d="M227.038 1199.23C227.535 1204.05 228.315 1208.1 229.38 1210.87C229.38 1210.87 357.9 1216.33 366.913 1212.36C368.332 1211.72 367.907 1210.37 366.132 1208.59C365.778 1207.18 365.21 1205.54 364.5 1203.7C360.029 1192.77 347.468 1175.67 312.979 1177.8C306.875 1174.74 301.837 1172.19 298.998 1170.63C294.598 1168.36 291.405 1162.32 289.063 1154.94C283.953 1138.91 283.031 1116.41 283.882 1111.73L229.38 1112.44C229.38 1112.44 227.464 1132.52 226.541 1154.94C225.974 1170.63 225.761 1187.38 227.038 1199.23Z" fill="#22272E"/>
<path d="M289.062 1161.04C283.953 1141.53 283.03 1119.46 283.882 1114.85L229.38 1117.05C229.38 1117.05 227.464 1141.53 226.541 1161.04H289.062Z" fill="#617085"/>
<path d="M227.038 1199.23C227.535 1204.06 228.315 1208.1 229.38 1210.87C229.38 1210.87 357.9 1216.33 366.913 1212.36C368.332 1211.72 367.907 1210.37 366.132 1208.6C365.778 1207.18 365.21 1205.55 364.5 1203.7C342.217 1203.84 261.599 1203.91 227.038 1199.23Z" fill="#515D6E" stroke="#515D6E" stroke-miterlimit="10"/>
<path d="M299.566 1180.77C301.624 1174.6 311.559 1172.19 317.237 1175.95C317.804 1176.3 317.875 1177.08 317.237 1177.44C314.824 1178.79 312.056 1178.08 309.359 1178.57C306.521 1179.14 305.456 1181.34 303.327 1182.83C301.695 1183.9 298.856 1182.9 299.566 1180.77Z" fill="#515D6E"/>
<path d="M280.759 1172.97C282.462 1168.86 287.43 1165.59 292.327 1165.1C295.804 1164.74 303.185 1166.02 302.191 1170.42C302.12 1170.77 301.694 1170.99 301.269 1170.99C298.998 1171.13 297.081 1169.71 294.811 1169.78C292.185 1169.78 289.559 1171.41 287.785 1172.97C286.082 1174.46 285.514 1176.31 282.888 1176.59C281.043 1176.81 280.333 1174.04 280.759 1172.97Z" fill="#515D6E"/>
<path d="M317.165 321.608C317.165 321.608 195.529 298.828 79.9243 318.556C79.9243 318.556 105.756 539.049 114.911 586.242C114.911 586.242 206.174 609.022 285.231 584.681C285.231 584.681 318.656 364.188 317.165 321.608Z" fill="#2364AA"/>
<path d="M196.38 536.835C196.38 539.745 198.722 542.087 201.631 542.087C204.541 542.087 206.883 539.745 206.883 536.835C206.883 533.926 204.541 531.584 201.631 531.584C198.722 531.584 196.38 533.926 196.38 536.835Z" fill="white"/>
<path d="M99.6519 1141.56H170.051L195.173 713.272C197.586 713.272 199.928 714.479 202.199 714.195L222.353 1148.08H292.894C293.958 972.513 283.739 588.3 285.229 583.829L134.496 582.41H114.91C113.632 595.397 112.426 598.519 111.29 608.029C96.7422 733.569 99.2261 1083.08 99.6519 1141.56Z" fill="#0B1F34"/>
<path d="M111.29 610.577L132.722 610.932C133.006 602.629 133.715 594.396 134.496 586.093L114.909 586.235C113.561 592.835 112.425 600.996 111.29 610.577Z" fill="#784D0C"/>
<path d="M152.238 587.798L239.172 587.017C238.888 596.243 238.604 605.468 238.391 614.694L150.748 613.133C152.451 605.255 152.309 596.314 152.238 587.798Z" fill="#784D0C"/>
<path d="M260.178 586.815L285.158 586.602V615.485L257.765 614.988C260.249 606.614 260.533 596.324 260.178 586.815Z" fill="#784D0C"/>
<path d="M168.56 575.948H214.05V614.98H168.56V575.948Z" fill="#C28C4B"/>
<path d="M210.889 498.489C210.889 498.489 183.794 584.954 192.131 589.067C200.468 593.181 242.23 593.181 242.23 593.181C242.23 593.181 271.409 500.546 265.156 498.489C258.826 496.433 212.896 494.376 210.889 498.489Z" fill="#EAEAEA"/>
<path d="M146.916 540.893C146.916 540.893 158.98 543.022 165.58 538.551C172.109 534.08 175.658 532.377 193.399 531.454C210.999 530.532 220.437 523.222 220.437 523.222C220.437 523.222 226.824 539.119 199.431 541.744C182.612 543.306 229.024 562.892 243.502 567.363C243.502 567.363 249.676 576.092 233.779 577.724C217.883 579.286 230.444 585.602 199.644 586.808C168.845 588.015 135.349 580.776 135.632 559.344C135.845 537.841 146.916 540.893 146.916 540.893Z" fill="#F5AE94"/>
<path d="M39.971 408.233L40.041 408.163L39.971 408.233Z" fill="#F0A98F"/>
<path d="M97.0269 385.823C95.1108 409.952 57.9243 502.634 57.9243 502.634C72.3305 505.615 153.871 529.744 153.871 529.744L149.542 587.936C144.858 587.652 12.2219 570.975 3.84784 536.556C-20.7775 434.932 80.8465 318.689 80.8465 318.689C102.136 323.018 97.0269 385.823 97.0269 385.823Z" fill="#2364AA"/>
<path d="M162.032 307.616C162.032 327.913 177.645 344.448 197.799 344.448C217.954 344.448 233.566 327.984 233.566 307.616V261.062C233.566 240.766 217.954 224.23 197.799 224.23C177.645 224.23 162.032 240.695 162.032 261.062V307.616Z" fill="#D8826C"/>
<path d="M117.535 204.776C117.322 233.73 148.192 257.22 168.702 268.149C189.211 279.149 207.095 275.529 207.095 275.529C288.564 257.007 282.816 218.259 287.358 186.182C289.629 170.357 291.687 140.906 284.732 104.5C283.809 99.5323 282.248 95.0614 280.261 90.9453C267.629 64.6168 237.823 54.3976 237.823 54.3976C220.011 48.1525 199.714 46.8042 181.192 50.2105C154.508 55.1072 133.502 68.9457 126.76 96.2678C124.561 105.068 123.354 114.151 122.29 123.164C119.948 141.686 118.741 160.422 118.103 179.086C117.819 187.602 117.606 196.189 117.535 204.776Z" fill="#F5AE94"/>
<path d="M178.709 108.985C178.709 108.985 141.806 101.534 130.239 128.714C130.239 128.714 171.47 116.295 179.348 122.469L178.709 108.985Z" fill="#0D0D0C"/>
<path d="M223.063 112.03C223.063 112.03 259.398 102.308 272.669 128.707C272.669 128.707 230.728 118.914 223.276 125.514L223.063 112.03Z" fill="#0D0D0C"/>
<path d="M263.94 156.977C263.23 167.551 253.153 175.57 241.444 174.79C229.734 174.009 220.792 164.783 221.502 154.138C222.212 143.564 232.289 135.616 243.998 136.397C255.708 137.177 264.65 146.403 263.94 156.977Z" fill="white"/>
<path d="M228.527 153.917C227.889 163.285 233.353 171.304 240.663 171.801C247.972 172.297 254.43 165.059 255.069 155.691C255.707 146.324 250.314 138.304 242.934 137.808C235.624 137.311 229.166 144.549 228.527 153.917Z" fill="#5C8696"/>
<path d="M232.36 154.199C231.934 160.87 235.766 166.547 240.947 166.902C246.127 167.257 250.74 162.147 251.166 155.477C251.592 148.806 247.76 143.128 242.579 142.774C237.398 142.348 232.786 147.528 232.36 154.199Z" fill="#0D0D0C"/>
<path d="M232.501 142.707C232.359 144.481 234.417 146.114 237.114 146.326C239.811 146.539 242.082 145.191 242.224 143.346C242.366 141.501 240.237 139.939 237.54 139.727C234.914 139.585 232.643 140.933 232.501 142.707Z" fill="white"/>
<path d="M178.992 154.557C178.282 165.273 168.205 173.363 156.495 172.583C144.786 171.802 135.844 162.435 136.554 151.719C137.263 140.932 147.341 132.912 159.05 133.693C170.76 134.474 179.701 143.841 178.992 154.557Z" fill="white"/>
<path d="M146.56 151.712C145.921 161.079 151.386 169.099 158.695 169.595C166.005 170.092 172.463 162.854 173.102 153.486C173.74 144.118 168.276 136.099 160.966 135.602C153.657 135.106 147.199 142.344 146.56 151.712Z" fill="#5C8696"/>
<path d="M150.393 152.002C149.967 158.673 153.799 164.35 158.98 164.705C164.16 165.06 168.773 159.88 169.199 153.209C169.625 146.538 165.793 140.861 160.612 140.506C155.432 140.151 150.89 145.331 150.393 152.002Z" fill="#0D0D0C"/>
<path d="M150.534 140.5C150.392 142.274 152.521 143.906 155.147 144.119C157.844 144.332 160.115 142.983 160.257 141.138C160.399 139.293 158.341 137.732 155.644 137.519C152.947 137.377 150.676 138.654 150.534 140.5Z" fill="white"/>
<path d="M120.871 144.317C120.871 144.317 103.058 104.008 88.368 135.73C76.6585 160.994 96.1743 185.762 111.929 183.987C127.683 182.284 120.871 144.317 120.871 144.317Z" fill="#F0A98F"/>
<path d="M119.806 150.565C119.806 150.565 106.606 124.733 99.7226 134.029C92.8389 143.326 92.9098 156.029 92.9098 156.029C92.9098 156.029 97.8065 142.545 107.387 151.416C107.387 151.416 94.5421 172.493 115.974 168.093C116.045 168.093 125.342 162.203 119.806 150.565Z" fill="#D8826C"/>
<path d="M258.96 58.9857C258.96 58.9857 256.84 91.9014 270.949 107.863C285.058 123.824 286.374 156.385 286.374 156.385C286.374 156.385 338.059 92.398 279.283 55.155C279.356 55.155 267.586 50.6149 258.96 58.9857Z" fill="url(#paint0_linear_17_0)"/>
<path d="M148.755 71.9876C148.755 71.9876 124.795 102.905 119.739 147.397C119.739 147.397 85.959 98.6404 118.2 57.5595C118.2 57.5595 153.518 43.0603 148.755 71.9876Z" fill="url(#paint1_linear_17_0)"/>
<path d="M76.9421 40.8828C82.0497 47.5916 90.6638 54.1577 99.6592 55.9419C92.1885 48.5908 85.0989 38.599 86.3186 28.2503C86.3949 27.8221 87.0047 27.3938 87.4621 27.6079C88.9868 28.393 90.2065 29.5349 91.5024 30.6055C98.287 36.3865 109.417 36.2437 117.574 33.4603C131.905 28.6785 143.645 19.2576 156.528 11.9779C170.555 4.05578 186.258 -0.583283 202.877 0.0590484C211.796 0.415899 220.563 2.20015 228.948 5.05496C249.455 12.1206 273.925 25.7523 279.414 47.1634C280.176 50.0896 280.481 53.1585 280.405 56.156C280.405 58.083 278.651 63.7213 279.49 65.22C279.947 65.9337 278.956 66.7902 278.423 66.362C278.118 66.362 277.737 66.2192 277.584 65.9337C277.432 65.5769 277.355 65.3628 277.279 65.1487C267.598 57.7975 251.437 86.4883 245.567 91.056C223.002 108.684 190.68 111.182 163.846 104.331C133.735 96.6229 100.574 77.2102 83.2694 53.6581C80.3726 49.8041 77.6282 45.8787 75.57 41.5965C75.1888 40.8114 76.4085 40.1691 76.9421 40.8828Z" fill="url(#paint2_linear_17_0)"/>
<path d="M284.024 150.438C284.024 150.438 301.836 110.129 316.526 141.851C328.236 167.115 308.72 191.812 292.965 190.109C277.211 188.405 284.024 150.438 284.024 150.438Z" fill="#F0A98F"/>
<path d="M285.089 156.685C285.089 156.685 298.289 130.853 305.173 140.15C312.056 149.446 311.985 162.149 311.985 162.149C311.985 162.149 307.089 148.666 297.508 157.536C297.508 157.536 310.353 178.613 288.921 174.213C288.921 174.213 279.625 168.323 285.089 156.685Z" fill="#D8826C"/>
<path d="M231.881 218.11C231.618 218.9 226.417 231.473 217.991 240.886C207.853 252.209 193.042 258.923 176.651 234.698C173.162 229.564 169.673 223.113 166.052 215.016C166.052 215.016 171.713 217.188 180.008 219.558C193.042 223.244 212.396 227.391 225.825 221.401C228.063 221.335 230.038 219.558 231.881 218.11Z" fill="#712311"/>
<path d="M217.991 241.024C207.854 252.346 193.042 258.995 176.651 234.77C185.406 232.4 206.142 228.714 217.991 241.024Z" fill="#D5503B"/>
<path d="M225.824 221.736C204.43 245.632 188.894 233.059 180.007 219.761C193.042 223.448 212.395 227.2 225.824 221.736Z" fill="white"/>
<path d="M184.54 188.811C184.54 188.811 205.444 218.519 224.809 186.309L184.54 188.811Z" fill="#D8826C"/>
<defs>
<linearGradient id="paint0_linear_17_0" x1="277.721" y1="62.0147" x2="293.933" y2="129.883" gradientUnits="userSpaceOnUse">
<stop stop-color="#823C00"/>
<stop offset="1" stop-color="#D5741E"/>
</linearGradient>
<linearGradient id="paint1_linear_17_0" x1="104.259" y1="119.536" x2="118.874" y2="76.7825" gradientUnits="userSpaceOnUse">
<stop stop-color="#823C00"/>
<stop offset="1" stop-color="#D3721D"/>
</linearGradient>
<linearGradient id="paint2_linear_17_0" x1="268.948" y1="64.2988" x2="75.9233" y2="33.3476" gradientUnits="userSpaceOnUse">
<stop stop-color="#823C00"/>
<stop offset="1" stop-color="#DC7820"/>
</linearGradient>
</defs>
</svg>
