<svg width="52" height="51" viewBox="0 0 52 51" fill="none" xmlns="http://www.w3.org/2000/svg">
<path d="M0.929688 37.7301V13.6201C0.929688 6.35014 6.8797 0.390137 14.1597 0.390137H38.2697C45.5397 0.390137 51.4997 6.34014 51.4997 13.6201V37.7301C51.4997 45.0101 45.5497 50.9601 38.2697 50.9601H14.1597C6.8897 50.9601 0.929688 45.0101 0.929688 37.7301Z" fill="url(#paint0_linear_8_2009)"/>
<path d="M12.5597 39.9801L14.6697 32.1101C13.4797 29.9601 12.8497 27.5401 12.8497 25.0901C12.8497 17.0801 19.3597 10.5701 27.3697 10.5701C35.3797 10.5701 41.8897 17.0801 41.8897 25.0901C41.8897 33.1001 35.3797 39.6101 27.3697 39.6101C24.9697 39.6101 22.5897 39.0001 20.4697 37.8501L12.5597 39.9801ZM20.8497 34.9201L21.3497 35.2201C23.1797 36.3101 25.2597 36.8901 27.3597 36.8901C33.8497 36.8901 39.1397 31.6101 39.1397 25.1101C39.1397 18.6201 33.8597 13.3301 27.3597 13.3301C20.8697 13.3301 15.5797 18.6101 15.5797 25.1101C15.5797 27.2501 16.1797 29.3701 17.2997 31.2201L17.6097 31.7201L16.4297 36.1101L20.8497 34.9201Z" fill="white"/>
<path fill-rule="evenodd" clip-rule="evenodd" d="M32.7697 27.1201C32.1697 26.7601 31.3897 26.3601 30.6897 26.6501C30.1497 26.8701 29.7997 27.7201 29.4497 28.1501C29.2697 28.3701 29.0597 28.4101 28.7797 28.3001C26.7497 27.4901 25.1997 26.1401 24.0797 24.2701C23.8897 23.9801 23.9197 23.7501 24.1497 23.4801C24.4897 23.0801 24.9097 22.6301 24.9997 22.0901C25.0897 21.5501 24.8397 20.9301 24.6197 20.4501C24.3397 19.8401 24.0197 18.9701 23.4097 18.6201C22.8497 18.3001 22.1097 18.4801 21.6097 18.8901C20.7497 19.5901 20.3297 20.7001 20.3397 21.7901C20.3397 22.1001 20.3797 22.4101 20.4497 22.7101C20.6197 23.4301 20.9597 24.1001 21.3297 24.7401C21.6097 25.2201 21.9197 25.6901 22.2497 26.1401C23.3297 27.6101 24.6797 28.8901 26.2497 29.8501C27.0297 30.3301 27.8697 30.7501 28.7397 31.0401C29.7197 31.3601 30.5897 31.7001 31.6397 31.5001C32.7397 31.2901 33.8297 30.6101 34.2697 29.5401C34.3997 29.2201 34.4597 28.8701 34.3897 28.5401C34.2497 27.8601 33.3197 27.4501 32.7697 27.1201Z" fill="white"/>
<defs>
<linearGradient id="paint0_linear_8_2009" x1="47.6135" y1="4.27794" x2="4.81809" y2="47.0733" gradientUnits="userSpaceOnUse">
<stop stop-color="#21A852"/>
<stop offset="1" stop-color="#00A35C"/>
</linearGradient>
</defs>
</svg>
