<svg width="1117" height="1415" viewBox="0 0 1117 1415" fill="none" xmlns="http://www.w3.org/2000/svg">
<path d="M262.091 532.683C216.178 567.879 149.539 582.133 98.2048 554.9C82.1031 546.38 67.2768 532.763 64.0883 515.245C60.2622 494.143 73.8928 472.325 68.1536 451.622C63.1318 433.307 44.7982 422.08 31.1675 408.543C11.3991 388.954 -0.0792989 361.642 0.000412434 334.17C0.0801238 306.699 11.5586 279.466 31.4067 259.957C48.2258 243.394 70.1464 232.724 89.4365 218.869C104.661 207.88 118.372 193.626 125.625 176.347C132.8 159.307 126.901 149.273 125.865 132.552C123.712 96.7985 132.72 56.8251 158.467 30.2293C191.786 -4.32935 241.287 -3.77196 285.048 5.14641C307.208 9.60559 331.679 16.5332 351.129 28.3182C359.419 33.3348 364.919 39.4662 370.578 47.5086C372.412 50.0567 382.615 75.4581 382.216 75.3785C447.101 90.1894 412.268 180.01 432.195 221.257C438.493 234.237 449.493 244.27 459.138 255.02C476.037 273.971 489.269 296.745 493.414 321.748C497.559 346.751 491.899 373.984 475.08 392.936C472.37 396.041 469.181 399.067 468.145 403.049C466.551 409.021 469.899 414.993 472.37 420.647C487.116 454.489 470.218 493.666 448.935 523.845C434.666 544.15 417.847 563.42 396.006 575.205C361.173 594.077 317.172 591.131 281.302 574.249" fill="url(#paint0_linear_15_1524)"/>
<g opacity="0.26">
<path opacity="0.42" d="M293.178 87.4724C315.099 76.8022 343.078 88.6668 356.628 108.972C370.1 129.277 387.636 147.353 384.448 171.48C382.853 183.424 380.223 195.608 382.614 207.472C388.672 238.209 407.644 260.664 427.412 284.95C444.152 305.494 449.572 332.807 453.876 358.925C456.427 374.532 458.5 391.732 450.21 405.189C439.688 422.229 427.651 444.207 416.332 460.69C397.68 487.684 408.6 514.041 386.042 537.929C379.346 544.936 369.94 548.599 360.694 551.546C341.962 557.358 322.592 560.783 302.983 561.818C286.243 562.694 269.265 561.658 253.482 556.164C214.742 542.548 188.836 499.071 195.851 458.62C201.191 427.963 222.315 402.482 232.358 372.94C239.532 351.758 240.728 328.587 235.866 306.769C229.648 279.217 213.786 251.825 220.641 224.433" fill="#0A088B"/>
</g>
<path d="M186.525 1375.23C190.909 1401.35 160.938 1418.15 137.264 1414.01C127.619 1412.34 110.242 1389.25 117.655 1381.12C125.546 1372.52 132.242 1363.45 138.38 1354.21C143.003 1347.36 147.307 1340.43 151.612 1333.51C153.764 1330.08 153.206 1326.58 155.278 1323.15C151.931 1300.06 150.097 1277.13 142.126 1254.12V1256.98H202.149C195.294 1280.87 186.446 1303.25 175.206 1328.97C175.844 1330.88 176.402 1332.07 177.04 1334.06C177.677 1336.21 178.235 1337.97 178.873 1340.2C182.141 1352.86 184.931 1365.99 186.525 1375.23Z" fill="#F0A98F"/>
<path d="M137.264 1414.09C127.619 1412.42 110.242 1389.33 117.655 1381.21C125.546 1372.61 132.242 1363.53 138.38 1354.29C143.003 1347.44 147.307 1340.52 151.612 1333.59C158.467 1335.98 167.554 1337.33 177.04 1333.43C177.677 1335.5 178.235 1337.73 178.873 1339.96C182.221 1352.54 185.011 1366 186.605 1375.31C190.909 1401.35 160.858 1418.15 137.264 1414.09Z" fill="#393D45"/>
<path d="M186.685 1326.18C178.076 1328.09 171.859 1333.03 165.721 1338.68C167.873 1330.96 168.909 1324.19 162.214 1316.94C154.88 1309.06 144.757 1313.04 140.612 1321.56C136.865 1329.13 139.496 1332.95 145.634 1337.41C148.902 1339.8 152.329 1341.87 155.757 1344.02C156.315 1344.33 159.902 1346.25 161.974 1347.44C155.518 1347.28 148.264 1349.59 143.72 1351.66C142.525 1352.22 143.322 1353.73 144.278 1353.89C149.061 1354.45 153.764 1353.25 158.547 1353.01C164.286 1352.78 167.793 1355.8 172.815 1357.79C173.931 1358.27 175.127 1356.92 174.728 1355.8C173.453 1351.74 170.743 1349.43 167.395 1348.32C173.054 1349.43 179.909 1347.04 184.931 1344.89C190.272 1342.66 201.75 1338.36 202.388 1331.36C203.185 1323.07 191.308 1325.14 186.685 1326.18ZM147.547 1333.98C145.952 1332.87 142.684 1331.04 142.525 1328.89C142.047 1323.15 146.989 1316.62 152.648 1316.39C159.344 1315.99 164.047 1324.27 163.967 1329.92C163.967 1334.14 161.974 1338.36 160.619 1342.42C155.916 1338.68 148.902 1334.94 147.547 1333.98ZM197.685 1331.43C195.533 1335.97 187.482 1338.76 183.178 1340.59C177.757 1342.82 172.177 1344.49 166.518 1343.38C171.46 1338.84 176.482 1333.98 182.859 1331.91C184.612 1331.36 199.279 1328.01 197.685 1331.43Z" fill="#032733"/>
<path d="M169.866 1372.68C167.873 1360.58 146.829 1361.22 138.3 1363.45C137.104 1363.76 137.104 1365.44 138.3 1365.76C143.322 1367.03 148.583 1366.95 153.605 1367.91C159.184 1368.86 162.612 1372.21 167.474 1374.44C168.83 1375.07 170.105 1374.04 169.866 1372.68Z" fill="#032733"/>
<path d="M162.931 1379.93C159.105 1376.98 152.17 1376.19 147.467 1375.23C142.047 1374.04 137.344 1374.83 132.402 1377.06C131.206 1377.62 132.083 1379.45 133.279 1379.13C138.779 1377.54 144.359 1379.13 149.62 1380.81C153.605 1382.16 158.228 1384.71 162.453 1383.43C164.207 1382.88 164.207 1380.89 162.931 1379.93Z" fill="#032733"/>
<path d="M324.185 1375.23C319.801 1401.35 349.772 1418.15 373.447 1414.01C383.092 1412.34 400.548 1389.25 393.056 1381.12C385.164 1372.52 378.468 1363.45 372.331 1354.21C367.707 1347.36 363.403 1340.43 359.099 1333.51C356.946 1330.08 355.91 1326.58 353.758 1323.15C357.106 1300.06 357.345 1277.13 365.316 1254.12V1256.98H308.562C315.417 1280.87 324.265 1303.25 335.504 1328.97C334.866 1330.88 334.308 1332.07 333.671 1334.06C333.033 1336.21 332.475 1337.97 331.837 1340.2C328.489 1352.86 325.779 1365.99 324.185 1375.23Z" fill="#F0A98F"/>
<path d="M373.369 1414.09C383.014 1412.42 400.471 1389.33 392.978 1381.21C385.086 1372.61 378.391 1363.53 372.253 1354.29C367.63 1347.44 363.325 1340.52 359.021 1333.59C352.166 1335.98 343.079 1337.33 333.593 1333.43C332.955 1335.5 332.397 1337.73 331.76 1339.96C328.412 1352.54 325.622 1366 324.028 1375.31C319.803 1401.35 349.774 1418.15 373.369 1414.09Z" fill="#393D45"/>
<path d="M308.245 1331.27C308.883 1338.28 320.361 1342.58 325.702 1344.81C330.724 1346.96 337.579 1349.35 343.239 1348.23C339.891 1349.35 337.18 1351.66 335.905 1355.72C335.586 1356.75 336.702 1358.11 337.898 1357.71C342.92 1355.8 346.427 1352.77 352.166 1352.93C356.949 1353.09 361.652 1354.28 366.514 1353.81C367.55 1353.73 368.268 1352.13 367.152 1351.58C362.608 1349.51 355.355 1347.2 348.898 1347.36C350.891 1346.16 354.558 1344.25 355.116 1343.93C358.543 1341.78 361.971 1339.71 365.239 1337.32C371.377 1332.86 373.927 1329.12 370.181 1321.48C366.036 1313.04 355.913 1308.97 348.579 1316.86C341.883 1324.02 342.999 1330.79 345.072 1338.6C338.934 1333.02 332.717 1328.09 324.108 1326.09C319.325 1325.14 307.528 1323.07 308.245 1331.27ZM350.014 1342.34C348.659 1338.28 346.666 1334.06 346.666 1329.84C346.666 1324.18 351.289 1315.98 357.985 1316.3C363.565 1316.62 368.587 1323.15 368.108 1328.8C367.949 1330.95 364.681 1332.86 363.087 1333.9C361.732 1334.93 354.717 1338.68 350.014 1342.34ZM327.774 1331.91C334.231 1333.98 339.173 1338.76 344.115 1343.37C338.456 1344.49 332.876 1342.82 327.456 1340.59C323.151 1338.76 315.18 1335.97 312.948 1331.43C311.354 1328.01 326.101 1331.35 327.774 1331.91Z" fill="#032733"/>
<path d="M340.847 1372.68C342.84 1360.58 363.884 1361.22 372.413 1363.45C373.529 1363.76 373.608 1365.44 372.413 1365.76C367.391 1367.03 362.13 1366.95 357.108 1367.91C351.528 1368.86 348.101 1372.21 343.238 1374.44C341.804 1375.07 340.608 1374.04 340.847 1372.68Z" fill="#032733"/>
<path d="M347.702 1379.93C351.528 1376.98 358.463 1376.19 363.166 1375.23C368.586 1374.04 373.289 1374.83 378.231 1377.06C379.427 1377.62 378.55 1379.45 377.355 1379.13C371.855 1377.54 366.275 1379.13 361.014 1380.81C357.028 1382.16 352.405 1384.71 348.18 1383.43C346.506 1382.88 346.427 1380.89 347.702 1379.93Z" fill="#032733"/>
<path d="M202.548 608.001C200.077 598.287 150.815 351.997 150.815 351.997C150.815 351.997 282.18 313.297 366.195 351.997L312.39 610.151L202.548 608.001Z" fill="#26076A"/>
<path d="M196.091 482.751C196.091 482.751 294.853 492.944 322.114 472.559C322.035 472.559 287.998 554.178 196.091 482.751Z" fill="#1B0154"/>
<path d="M196.171 607.116C196.171 607.116 116.3 774.335 148.902 1306.41C148.902 1306.41 183.337 1313.66 194.178 1309.99C194.178 1309.99 292.701 847.593 268.788 615.477L196.171 607.116Z" fill="#C3BFCB"/>
<path d="M241.287 714.62C241.287 714.62 239.454 1147.16 313.745 1299.17L369.941 1297.34C369.941 1297.34 399.913 780.95 312.47 606.565L245.432 613.97L241.287 714.62Z" fill="#C3BFCB"/>
<path d="M191.469 617.796C191.469 617.796 253.484 636.27 316.456 611.426L317.253 586.662C317.253 586.662 284.97 596.376 257.47 594.704C230.049 593.112 192.904 588.254 192.904 588.254L191.469 617.796Z" fill="#8F99B6"/>
<path d="M205.897 583.387C205.897 583.387 195.455 623.758 205.1 628.536C214.825 633.393 220.484 631.243 220.484 631.243L220.405 586.572L205.897 583.387Z" fill="#D4D4D4"/>
<path d="M305.536 580.209C305.536 580.209 312.072 617.953 303.862 625.04C292.702 634.516 292.065 626.872 292.065 626.872L291.028 583.474L305.536 580.209Z" fill="#D4D4D4"/>
<path d="M238.18 586.662C238.18 591.519 239.854 621.38 239.854 621.38L274.608 622.176L277.796 587.458L238.18 586.662ZM268.869 616.204L245.433 614.611L244.636 596.217H270.463L268.869 616.204Z" fill="#EAEAEA"/>
<path d="M211.395 338.139C207.808 359.24 236.106 361.072 236.106 361.072C248.621 361.072 268.15 357.25 268.15 344.748L262.092 266.633C262.092 254.131 251.968 244.018 239.454 244.018C226.939 244.018 216.816 254.131 216.816 266.633L211.395 338.139Z" fill="#D8826C"/>
<path d="M325.463 70.5899C322.593 65.1752 300.912 70.988 298.52 65.2548C284.571 77.7564 254.52 53.1513 237.78 62.6271C215.86 75.0491 198.243 87.4711 174.011 94.4784C166.04 96.7876 177.598 102.043 169.149 102.441C166.917 117.093 153.127 162.72 153.924 177.849C157.989 253.735 213.787 301.512 268.629 294.505C310.078 289.169 349.296 237.809 359.739 164.87C360.695 158.022 365.717 125.056 365.239 118.367C345.63 99.2561 338.535 94.8765 325.463 70.5899Z" fill="#F0A98F"/>
<path d="M256.831 217.895C256.831 217.895 269.744 239.633 283.614 217.497L256.831 217.895Z" fill="#D8826C"/>
<path d="M243.519 173.787C243.519 188.12 231.881 199.825 217.453 199.825C203.026 199.825 191.388 188.199 191.388 173.787C191.388 159.454 203.026 147.748 217.453 147.748C231.881 147.748 243.519 159.454 243.519 173.787Z" fill="white"/>
<path d="M235.707 188.125C231.084 199.034 220.642 205.086 212.352 201.662C204.062 198.158 201.112 186.532 205.656 175.623C210.279 164.634 220.721 158.662 228.932 162.086C237.301 165.51 240.33 177.136 235.707 188.125Z" fill="#7F5242"/>
<path d="M231.324 186.289C228.056 194.013 220.642 198.313 214.744 195.844C208.845 193.376 206.693 185.094 210.041 177.291C213.309 169.487 220.722 165.187 226.621 167.656C232.519 170.204 234.592 178.485 231.324 186.289Z" fill="#400404"/>
<path d="M237.621 173.23C236.744 175.38 233.555 176.017 230.526 174.743C227.497 173.469 225.744 170.682 226.62 168.612C227.497 166.462 230.686 165.825 233.715 167.099C236.744 168.373 238.497 171.16 237.621 173.23Z" fill="white"/>
<path d="M229.33 238.847C229.33 238.847 271.338 258.197 289.114 240.44C289.114 240.44 272.932 280.811 229.33 238.847Z" fill="#D5503B"/>
<path d="M243.519 173.793C243.519 173.793 245.592 157.071 229.251 148.631C204.222 135.731 190.511 165.591 182.381 170.449C182.381 170.449 187.642 175.704 191.468 173.873C191.468 173.793 221.121 138.359 243.519 173.793Z" fill="#302725"/>
<path d="M291.106 177.376C291.106 191.789 302.744 203.415 317.172 203.415C331.52 203.415 343.238 191.789 343.238 177.376C343.238 163.043 331.6 151.418 317.172 151.418C302.824 151.338 291.106 163.043 291.106 177.376Z" fill="white"/>
<path d="M334.869 189.002C332.398 200.628 322.912 208.432 313.586 206.441C304.26 204.45 298.76 193.462 301.231 181.916C303.702 170.29 313.187 162.486 322.514 164.397C331.76 166.388 337.34 177.377 334.869 189.002Z" fill="#7F5242"/>
<path d="M330.006 187.966C328.253 196.248 321.557 201.742 314.941 200.388C308.325 199.035 304.419 191.152 306.093 182.95C307.847 174.669 314.622 169.095 321.238 170.528C327.774 171.882 331.76 179.685 330.006 187.966Z" fill="#400404"/>
<path d="M333.752 173.959C333.274 176.189 330.086 177.463 326.738 176.746C323.31 176.029 320.999 173.641 321.397 171.411C321.875 169.181 324.984 167.907 328.412 168.624C331.839 169.341 334.231 171.729 333.752 173.959Z" fill="white"/>
<path d="M290.708 174.181C290.708 174.181 288.635 159.291 304.976 151.806C330.006 140.339 343.716 166.856 351.767 171.156C351.767 171.156 346.506 175.774 342.68 174.181C342.759 174.181 315.897 141.932 290.708 174.181Z" fill="#302725"/>
<path d="M196.011 136.844C196.011 136.844 222.475 113.194 247.823 123.387C253.722 125.776 255.077 128.563 258.823 140.029C258.823 140.029 229.968 123.865 196.011 136.844Z" fill="#6F3B1E"/>
<path d="M351.448 146.715C351.448 146.715 336.383 119.402 313.426 124.897C308.085 126.171 306.252 128.639 300.273 138.991C300.273 139.071 327.614 128.48 351.448 146.715Z" fill="#6F3B1E"/>
<path d="M161.336 155.797C161.336 155.797 133.198 117.416 125.068 154.284C118.611 183.667 144.836 205.246 161.097 199.752C177.358 194.257 161.336 155.797 161.336 155.797Z" fill="#F0A98F"/>
<path d="M161.655 162.636C161.655 162.636 141.727 138.429 136.625 149.816C131.524 161.203 134.553 174.58 134.553 174.58C134.553 174.58 136.625 159.292 148.741 166.379C148.741 166.379 140.133 191.541 161.655 181.986C161.734 181.986 170.184 173.625 161.655 162.636Z" fill="#D8826C"/>
<path d="M162.872 201.696C162.872 205.597 159.923 208.703 156.336 208.703C152.669 208.703 149.8 205.518 149.8 201.696C149.8 197.794 152.749 194.609 156.336 194.609C159.923 194.609 162.872 197.714 162.872 201.696Z" fill="white"/>
<path d="M391.463 129.444C368.666 135.815 342.999 131.196 323.629 117.261C304.259 103.326 291.665 80.3138 290.389 56.5049C289.991 49.8958 291.346 41.9329 297.324 39.2256C299.397 38.27 301.788 38.1904 304.1 38.27C318.209 38.6682 331.76 44.6403 342.999 53.3198C354.238 61.9993 363.166 73.2268 371.057 85.0118C376.717 93.5321 381.818 102.45 384.927 112.165C386.84 118.296 387.956 124.667 388.195 131.037" fill="url(#paint1_linear_15_1524)"/>
<path d="M295.332 71.4001C253.643 94.9701 206.454 136.616 161.258 134.306C158.946 134.227 147.308 119.973 146.352 118.142C145.555 116.549 146.431 114.559 147.308 112.807C156.475 95.4478 181.026 65.2687 199.28 54.9967C217.534 44.7246 237.542 38.1951 257.469 32.3026C267.593 29.3564 277.876 26.4898 288.079 26.3305C298.202 26.1712 308.405 28.9582 314.064 35.8063" fill="url(#paint2_linear_15_1524)"/>
<path d="M366.605 351.364C366.605 351.364 454.959 554.417 422.663 582.465C422.663 582.465 390.368 599.726 362.299 522.053C334.23 444.3 334.309 346.89 366.605 351.364Z" fill="#26076A"/>
<path d="M357.993 487.527C357.993 487.527 432.471 539.709 426.889 571.753C426.012 576.947 422.583 582.541 422.583 582.541C422.583 582.541 390.288 619.3 349.301 535.074C349.38 534.994 325.617 481.055 357.993 487.527Z" fill="#26076A"/>
<path d="M368.757 475.627C361.979 460.684 343.16 449.496 337.18 450.375C332.395 448.058 327.611 448.857 323.544 456.768C317.723 468.036 317.962 487.374 322.427 499.44C331.119 522.934 355.201 493.207 354.165 474.508C363.494 482.499 375.775 491.13 368.757 475.627Z" fill="#F0A98F"/>
<path d="M336.462 451.89C336.462 451.89 308.472 542.589 317.084 546.904C325.696 551.219 368.837 551.219 368.837 551.219C368.837 551.219 398.979 454.048 392.52 451.89C385.981 449.733 338.535 447.575 336.462 451.89Z" fill="#EAEAEA"/>
<path d="M284.31 560.972C284.31 560.972 295.234 558.734 299.381 553.221C303.527 547.707 306.079 545.309 320.831 538.917C335.504 532.524 341.325 523.973 341.325 523.973C341.325 523.973 351.612 534.042 329.125 544.75C315.329 551.303 360.623 551.383 374.258 550.024C374.258 550.024 382.153 554.659 369.155 560.972C356.157 567.285 368.676 568.004 342.92 578.872C317.163 589.66 286.543 594.934 280.243 578.552C273.943 562.171 284.31 560.972 284.31 560.972Z" fill="#FFBC9F"/>
<path d="M185.988 414.323C191.012 439.255 169.402 544.737 169.402 544.737C184.074 543.778 249.383 547.613 273.545 550.33C281.758 551.209 287.021 551.849 287.021 551.849L295.075 593.642C290.53 594.681 286.064 595.56 281.678 596.439C194.521 612.82 130.647 589.007 130.647 589.007C104.333 427.748 151.141 351.354 151.141 351.354C172.751 349.915 185.988 414.323 185.988 414.323Z" fill="#26076A"/>
<defs>
<linearGradient id="paint0_linear_15_1524" x1="396.199" y1="69.3558" x2="60.4376" y2="440.932" gradientUnits="userSpaceOnUse">
<stop stop-color="#5A57F0"/>
<stop offset="1" stop-color="#423EE2"/>
</linearGradient>
<linearGradient id="paint1_linear_15_1524" x1="340.894" y1="38.2467" x2="340.894" y2="132.256" gradientUnits="userSpaceOnUse">
<stop stop-color="#5754EE"/>
<stop offset="1" stop-color="#5653ED"/>
</linearGradient>
<linearGradient id="paint2_linear_15_1524" x1="145.499" y1="125.323" x2="303.307" y2="34.6678" gradientUnits="userSpaceOnUse">
<stop stop-color="#4C49E4"/>
<stop offset="1" stop-color="#5855EF"/>
</linearGradient>
</defs>
</svg>
