<svg width="52" height="52" viewBox="0 0 52 52" fill="none" xmlns="http://www.w3.org/2000/svg">
<path d="M0.929688 38.2399V14.1299C0.929688 6.85991 6.8797 0.899902 14.1597 0.899902H38.2697C45.5497 0.899902 51.4997 6.84991 51.4997 14.1299V38.2399C51.4997 45.5099 45.5497 51.4699 38.2697 51.4699H14.1597C6.8897 51.4699 0.929688 45.5099 0.929688 38.2399Z" fill="url(#paint0_linear_8_2049)"/>
<path fill-rule="evenodd" clip-rule="evenodd" d="M24.2697 31.68C24.2397 31.77 24.2197 31.84 24.1997 31.92C23.0697 36.34 22.9497 37.32 21.7897 39.37C21.2397 40.34 20.6197 41.27 19.9297 42.15C19.8497 42.25 19.7797 42.38 19.6197 42.35C19.4497 42.31 19.4397 42.16 19.4197 42.03C19.2297 40.69 19.1297 39.34 19.1797 37.99C19.2397 36.23 19.4597 35.62 21.7297 26.05C21.7597 25.9 21.7297 25.78 21.6797 25.65C21.1397 24.18 21.0297 22.69 21.4997 21.18C22.5297 17.92 26.2297 17.67 26.8797 20.36C27.2797 22.03 26.2197 24.2 25.4197 27.42C24.7497 30.08 27.8797 31.97 30.5497 30.03C33.0197 28.24 33.9697 23.95 33.7897 20.92C33.4297 14.86 26.7897 13.55 22.5697 15.5C17.7397 17.73 16.6397 23.72 18.8197 26.46C19.0997 26.81 19.3097 27.02 19.2197 27.37C19.0797 27.92 18.9597 28.47 18.7997 29.02C18.6897 29.43 18.3497 29.57 17.9397 29.41C17.1397 29.09 16.4697 28.57 15.9197 27.9C14.0697 25.61 13.5397 21.07 15.9897 17.23C18.6997 12.97 23.7497 11.25 28.3597 11.77C33.8597 12.4 37.3397 16.16 37.9997 20.42C38.2997 22.36 38.0797 27.16 35.3497 30.54C32.2097 34.43 27.1197 34.69 24.7697 32.3C24.5897 32.12 24.4497 31.9 24.2697 31.68Z" fill="white"/>
<defs>
<linearGradient id="paint0_linear_8_2049" x1="47.6134" y1="4.78501" x2="4.81799" y2="47.5804" gradientUnits="userSpaceOnUse">
<stop stop-color="#EA514C"/>
<stop offset="1" stop-color="#E51741"/>
</linearGradient>
</defs>
</svg>
