<svg width="647" height="1160" viewBox="0 0 647 1160" fill="none" xmlns="http://www.w3.org/2000/svg">
<path d="M179.736 73.5118C179.736 73.5118 89.0071 -3.26118 79.8081 4.53996C70.6091 12.3411 49.427 62.0324 49.427 62.0324C49.427 62.0324 146.554 144.464 152.211 138.083C157.906 131.611 183.688 78.0187 179.736 73.5118Z" fill="#5C7461"/>
<path d="M607.555 1018.96C610.814 1022.15 613.342 1025.01 614.739 1027.47C614.739 1027.47 544.364 1125.33 536.182 1129.65C534.852 1130.32 534.12 1129.25 533.788 1126.93C532.989 1125.86 532.058 1124.47 531.127 1122.87C525.672 1113.3 520.351 1094.15 541.903 1069.95C543.166 1063.7 544.231 1058.52 544.763 1055.46C545.628 1050.94 543.033 1045.02 538.976 1039.04C530.129 1026.01 514.032 1012.31 510.107 1010.19L542.169 970.432C542.169 970.432 558.066 980.67 575.095 992.969C587.068 1001.61 599.506 1011.18 607.555 1018.96Z" fill="#5F5449"/>
<path d="M538.709 1038.9C529.663 1025.67 513.898 1012.24 509.974 1010.18L541.968 970.363C541.968 970.363 558.332 980.933 574.894 992.833L538.709 1038.9Z" fill="#38393B"/>
<path d="M607.556 1018.95C610.816 1022.15 613.343 1025 614.74 1027.46C614.74 1027.46 544.365 1125.32 536.183 1129.64C534.853 1130.31 534.121 1129.24 533.789 1126.92C532.99 1125.85 532.059 1124.46 531.128 1122.86C544.232 1106.44 590.993 1047.14 607.556 1018.95Z" fill="#38393B" stroke="#515D6E" stroke-miterlimit="10"/>
<path d="M551.947 1061.7C546.226 1059.63 538.643 1065.55 538.111 1071.87C538.045 1072.53 538.577 1073 539.175 1072.73C541.57 1071.73 542.634 1069.21 544.563 1067.61C546.625 1065.82 548.887 1066.28 551.148 1065.68C553.011 1065.09 553.876 1062.43 551.947 1061.7Z" fill="#38393B"/>
<path d="M557.068 1043.36C553.077 1042.23 547.756 1044.02 544.563 1047.35C542.302 1049.67 538.976 1055.86 542.767 1057.65C543.1 1057.78 543.499 1057.59 543.765 1057.32C545.162 1055.79 545.228 1053.53 546.625 1051.8C548.155 1049.87 550.882 1048.88 553.077 1048.48C555.139 1048.14 556.802 1048.74 558.598 1046.95C559.729 1045.75 558.133 1043.69 557.068 1043.36Z" fill="#38393B"/>
<path d="M463.609 1058.83C466.403 1062.42 468.531 1065.62 469.596 1068.21C469.596 1068.21 386.649 1155.63 378.001 1158.82C376.605 1159.35 376.006 1158.16 376.006 1155.83C375.341 1154.7 374.609 1153.17 373.944 1151.44C369.82 1141.2 367.093 1121.52 391.771 1100.45C393.833 1094.4 395.562 1089.42 396.56 1086.49C398.023 1082.1 396.294 1075.92 393.034 1069.47C386.05 1055.31 371.948 1039.62 368.356 1037.03L405.54 1001.99C405.54 1001.99 419.907 1014.29 435.14 1028.72C445.649 1038.82 456.691 1049.99 463.609 1058.83Z" fill="#5F5449"/>
<path d="M392.702 1069.27C385.518 1054.98 371.749 1039.49 368.157 1036.96L405.274 1001.86C405.274 1001.86 420.041 1014.56 434.807 1028.52L392.702 1069.27Z" fill="#38393C"/>
<path d="M463.61 1058.84C466.404 1062.43 468.533 1065.62 469.597 1068.21C469.597 1068.21 386.65 1155.64 378.003 1158.83C376.606 1159.36 376.007 1158.16 376.007 1155.84C375.342 1154.7 374.61 1153.18 373.945 1151.45C389.045 1136.95 443.389 1084.5 463.61 1058.84Z" fill="#38393B" stroke="#515D6E" stroke-miterlimit="10"/>
<path d="M402.747 1093.66C397.359 1090.87 389.044 1095.65 387.714 1101.9C387.581 1102.5 387.98 1103.1 388.645 1102.9C391.106 1102.24 392.57 1099.91 394.632 1098.51C396.96 1096.98 399.088 1097.78 401.417 1097.45C403.346 1097.18 404.543 1094.59 402.747 1093.66Z" fill="#38393B"/>
<path d="M410.264 1076.2C406.472 1074.47 400.951 1075.6 397.359 1078.46C394.832 1080.45 390.641 1086.17 394.166 1088.43C394.433 1088.63 394.898 1088.5 395.164 1088.23C396.761 1086.83 397.16 1084.64 398.756 1083.18C400.552 1081.52 403.346 1080.85 405.541 1080.78C407.669 1080.72 409.199 1081.51 411.195 1079.99C412.592 1078.92 411.328 1076.66 410.264 1076.2Z" fill="#38393B"/>
<path d="M269.582 312.143C269.582 312.143 383.592 290.736 491.949 309.284C491.949 309.284 467.737 515.836 459.156 560.045C459.156 560.045 373.615 581.452 299.515 558.583C299.515 558.649 268.118 352.031 269.582 312.143Z" fill="#0A938A"/>
<path d="M418.647 299.04C418.647 318.053 397.96 333.543 379.069 333.543C360.178 333.543 339.491 318.12 339.491 299.04V255.43C339.491 236.417 360.178 220.927 379.069 220.927C397.96 220.927 418.647 236.35 418.647 255.43V299.04Z" fill="#E38E78"/>
<path d="M383.127 360.597C383.127 363.323 380.932 365.516 378.205 365.516C375.477 365.516 373.282 363.323 373.282 360.597C373.282 357.871 375.477 355.677 378.205 355.677C380.865 355.677 383.127 357.871 383.127 360.597Z" fill="white"/>
<path d="M383.127 411.657C383.127 414.382 380.932 416.576 378.205 416.576C375.477 416.576 373.282 414.382 373.282 411.657C373.282 408.931 375.477 406.737 378.205 406.737C380.865 406.737 383.127 408.931 383.127 411.657Z" fill="white"/>
<path d="M382.728 513.846C382.728 516.571 380.533 518.765 377.806 518.765C375.079 518.765 372.884 516.571 372.884 513.846C372.884 511.12 375.079 508.926 377.806 508.926C380.533 508.926 382.728 511.12 382.728 513.846Z" fill="white"/>
<path d="M383.127 462.583C383.127 465.308 380.932 467.502 378.205 467.502C375.477 467.502 373.282 465.308 373.282 462.583C373.282 459.857 375.477 457.663 378.205 457.663C380.865 457.663 383.127 459.857 383.127 462.583Z" fill="white"/>
<path d="M466.404 628.247C381.728 726.371 321.264 657.764 298.848 621.134C299.513 583.573 299.912 559.773 299.513 558.709L459.154 560.105C462.081 575.13 464.542 598.929 466.404 628.247Z" fill="#D0CAB4"/>
<path d="M442.124 583.815L460.55 583.483L459.153 560.68L440.794 560.547C441.393 568.325 441.925 576.037 442.124 583.815Z" fill="#8C4C09"/>
<path d="M424.165 560.429L342.682 559.698C342.948 568.34 343.214 576.982 343.413 585.625L425.629 584.162C423.966 576.783 424.032 568.407 424.165 560.429Z" fill="#8C4C09"/>
<path d="M322.927 559.507L299.513 559.308V586.365L325.255 585.899C322.927 577.988 322.661 568.415 322.927 559.507Z" fill="#8C4C09"/>
<path d="M406.473 553.986H357.716V572.268H406.473V553.986Z" fill="#C28C4B"/>
<path d="M456.694 202.766C456.893 229.889 427.958 251.894 408.735 262.132C389.511 272.436 372.749 269.046 372.749 269.046C296.454 251.695 301.775 215.397 297.518 185.348C295.39 170.523 293.461 142.934 299.979 108.83C300.844 104.176 302.307 99.9883 304.17 96.1325C316.01 71.4685 343.947 61.8955 343.947 61.8955C360.643 56.0453 379.667 54.7821 397.028 57.9732C422.038 62.5603 441.727 75.5238 448.047 101.118C450.109 109.362 451.173 117.871 452.237 126.314C454.432 143.665 455.563 161.216 456.162 178.7C456.428 186.678 456.627 194.722 456.694 202.766Z" fill="#F5AE94"/>
<path d="M361.672 183.033C361.672 183.033 378.756 209.851 396.984 182.465L361.672 183.033Z" fill="#D8826C"/>
<path d="M481.637 46.1499C477.18 52.399 469.664 58.5151 461.815 60.1771C468.334 53.3297 474.52 44.0226 473.455 34.383C473.389 33.9177 472.857 33.5853 472.458 33.7847C471.127 34.516 470.063 35.5797 468.932 36.5769C463.012 42.0282 453.301 41.8288 446.183 39.2361C433.678 34.7819 423.435 26.0731 412.193 19.2257C399.954 11.8465 386.251 7.52529 371.751 8.12361C363.968 8.456 356.319 10.118 349.002 12.7772C331.109 19.3587 309.757 32.0563 304.967 52.0001C304.302 54.7258 304.036 57.5844 304.103 60.3766C304.103 62.105 305.633 67.4234 304.901 68.8195C304.502 69.4843 305.3 70.282 305.832 69.8832C306.098 69.8832 306.431 69.7502 306.564 69.4843C306.697 69.1519 306.763 68.9524 306.83 68.753C315.278 61.9056 329.379 88.6304 334.501 92.8851C354.19 109.306 382.393 111.632 405.741 105.25C432.015 98.137 460.95 79.9881 476.05 58.0498C478.511 54.4599 480.972 50.8035 482.768 46.8147C483.233 46.0835 482.103 45.4851 481.637 46.1499Z" fill="#242422"/>
<path d="M453.502 146.14C453.502 146.14 470.198 108.379 483.967 138.096C494.943 161.762 476.65 184.964 461.883 183.302C447.117 181.706 453.502 146.14 453.502 146.14Z" fill="#F0A98F"/>
<path d="M454.499 151.993C454.499 151.993 466.872 127.794 473.257 136.503C479.709 145.212 479.643 157.112 479.643 157.112C479.643 157.112 475.053 144.481 466.073 152.791C466.073 152.791 478.113 172.535 458.025 168.413C458.091 168.413 449.378 162.896 454.499 151.993Z" fill="#D8826C"/>
<path d="M324.592 66.4352C324.592 66.4352 326.521 97.2817 313.683 112.24C300.845 127.198 299.648 157.712 299.648 157.712C299.648 157.712 252.621 97.8135 306.1 62.8453C306.034 62.8453 316.743 58.5906 324.592 66.4352Z" fill="#242422"/>
<path d="M427.892 78.5323C427.892 78.5323 449.643 107.451 454.233 149.067C454.233 149.067 484.897 103.462 455.63 65.037C455.696 64.9705 423.635 51.4751 427.892 78.5323Z" fill="#242422"/>
<path d="M300.645 151.852C300.645 151.852 283.949 114.091 270.18 143.808C259.205 167.474 277.43 190.676 292.264 189.014C306.964 187.418 300.645 151.852 300.645 151.852Z" fill="#F0A98F"/>
<path d="M299.58 157.71C299.58 157.71 287.208 133.512 280.756 142.22C274.304 150.929 274.37 162.829 274.37 162.829C274.37 162.829 278.96 150.265 287.94 158.508C287.94 158.508 275.967 178.252 295.988 174.131C296.055 174.131 304.768 168.613 299.58 157.71Z" fill="#D8826C"/>
<path d="M399.357 113.041C399.357 113.041 433.946 106.127 444.789 131.522C444.789 131.522 406.142 119.888 398.759 125.672L399.357 113.041Z" fill="#0D0D0C"/>
<path d="M357.717 115.888C357.717 115.888 323.66 106.78 311.222 131.51C311.222 131.51 350.533 122.336 357.518 128.519L357.717 115.888Z" fill="#0D0D0C"/>
<path d="M422.439 204.004C422.439 204.004 419.446 213.178 413.858 223.283C410.998 228.402 407.539 233.72 403.415 238.241C393.038 249.609 378.737 255.725 361.376 239.437C355.589 234.052 349.47 226.141 343.084 215.172C340.623 210.984 338.162 206.33 335.634 201.211C335.501 201.145 410.466 214.241 422.439 204.004Z" fill="#712311"/>
<path d="M422.439 203.989C422.439 203.989 419.446 213.163 413.858 223.268C390.577 231.511 360.445 222.204 343.017 215.091C340.556 210.903 338.095 206.249 335.567 201.13C335.501 201.13 410.466 214.227 422.439 203.989Z" fill="white"/>
<path d="M403.348 238.231C392.972 249.599 378.671 255.715 361.31 239.427C369.957 234.84 385.322 228.99 403.348 238.231Z" fill="#D5503B"/>
<path d="M312.021 169.083C312.021 169.083 319.67 138.569 338.694 142.425C357.784 146.214 361.576 169.083 361.576 169.083C361.576 169.083 341.288 130.99 312.021 169.083Z" fill="#0D0D0C"/>
<path d="M393.371 169.083C393.371 169.083 401.021 138.569 420.045 142.425C439.135 146.214 442.926 169.083 442.926 169.083C442.926 169.083 422.639 130.99 393.371 169.083Z" fill="#0D0D0C"/>
<path d="M298.85 621.068C298.85 621.068 257.01 836.795 255.281 887.585C253.618 938.375 380.666 1053.58 380.666 1053.58L428.092 1011.24C428.092 1011.24 329.78 874.023 329.78 868.971C329.78 863.918 382.329 669.133 368.759 640.347C355.19 611.562 300.978 614.952 300.978 614.952L298.85 621.068Z" fill="#D0CAB4"/>
<path d="M380.465 614.222C380.465 614.222 370.022 833.738 375.675 884.262C381.263 934.787 523.61 1030.52 523.61 1030.52L564.451 981.788C564.451 981.788 447.448 860.13 446.716 855.078C445.984 850.025 479.509 644.869 461.948 618.277C444.388 591.752 381.729 607.773 381.729 607.773L380.465 614.222Z" fill="#D0CAB4"/>
<path d="M112.062 98.467C111.334 92.5913 109.37 87.2431 105.174 83.3466C99.8368 78.3572 95.9546 80.0447 93.5799 83.927C91.6935 80.4823 88.7352 78.088 84.0339 77.9377C80.2346 77.8567 78.2085 81.2901 77.228 85.4069C75.0148 82.3196 72.1959 80.1517 68.3791 81.5647C63.6647 83.2962 61.046 86.7822 60.2485 90.9424C59.1201 89.9977 57.7215 89.3755 56.0659 89.2238C54.798 89.0676 53.8786 89.4775 53.1946 90.5232C47.8961 98.1572 50.1657 109.329 52.5269 117.478C55.0144 125.705 60.6826 132.755 63.9762 140.642C67.6445 149.391 67.801 159.287 70.6501 168.229C70.8854 168.865 71.3559 169.121 71.87 169.195C75.6821 177.544 85.3328 180.658 95.415 177.495C111.1 172.522 109.289 150.295 109.206 137.854C111.42 133.837 115.176 130.042 117.45 127.392C121.402 122.773 124.483 117.754 125.899 111.807C127.25 106.135 125.534 100.556 127.407 94.7182C128.401 91.7644 129.904 88.4968 132.091 86.2133C118.524 79.6553 112.062 98.467 112.062 98.467Z" fill="#F5AE94"/>
<path d="M269.9 312.321C243.811 300.904 140.036 291.957 140.036 291.957C140.803 274.934 117.083 187.814 113.873 158.875C112.771 149.092 66.7386 153.622 65.8932 158.592C50.2608 256.903 77.9339 325.195 77.9339 325.195C153.822 380.197 317.393 387.303 317.393 387.303C318.561 362.304 269.9 312.321 269.9 312.321Z" fill="#0A938A"/>
<path d="M499.131 55.2537C496.67 49.8024 495.539 44.2846 497.003 38.7668C498.932 31.7199 503.122 31.1216 507.18 33.1825C506.98 29.2602 508.178 25.6038 512.102 23.0776C515.295 21.0167 518.82 22.8781 521.814 25.8697C522.08 22.0804 523.343 18.7564 527.334 17.9586C532.257 16.9614 536.314 18.5569 539.175 21.6815C539.707 20.2854 540.571 19.0223 541.902 18.0251C542.899 17.2274 543.897 17.0944 545.095 17.6262C553.609 21.3491 557.533 32.0523 559.728 40.2293C561.99 48.5393 560.793 57.514 562.123 65.9569C563.586 75.3305 568.642 83.8399 570.903 92.9476C571.036 93.6124 570.77 94.0778 570.371 94.4102C571.502 103.518 564.917 111.23 554.607 113.822C538.642 117.877 528.532 97.9336 522.08 87.2969C518.089 85.0366 512.9 83.7735 509.574 82.7098C503.787 80.8483 498.533 78.1892 494.209 73.868C490.085 69.7463 488.621 64.0955 483.965 60.1067C481.571 58.1123 478.577 56.1179 475.518 55.3202C483.699 42.689 499.131 55.2537 499.131 55.2537Z" fill="#F5AE94"/>
<path d="M476.782 320.125C493.079 296.658 576.691 234.699 576.691 234.699C567.112 220.605 541.636 133.982 529.264 107.656C525.073 98.7479 566.647 78.4716 569.906 82.2609C634.76 157.782 646.999 230.444 646.999 230.444C611.213 317.067 475.651 408.875 475.651 408.875C461.55 388.2 476.782 320.125 476.782 320.125Z" fill="#0A938A"/>
<path d="M175.703 70.6841C175.703 70.6841 132.735 41.2154 125.464 35.1569C119.242 43.8505 112.058 97.2441 112.058 97.2441C112.058 97.2441 112.058 127.927 149.063 133.18C153.235 126.344 176.846 73.9029 175.703 70.6841Z" fill="#5C7461"/>
</svg>
