<svg width="52" height="52" viewBox="0 0 52 52" fill="none" xmlns="http://www.w3.org/2000/svg">
<path d="M0.469727 38.2301V14.1201C0.469727 6.84013 6.41972 0.890137 13.6997 0.890137H37.8097C45.0797 0.890137 51.0397 6.84013 51.0397 14.1201V38.2301C51.0397 45.5101 45.0897 51.4601 37.8097 51.4601H13.6997C6.41972 51.4601 0.469727 45.5101 0.469727 38.2301Z" fill="url(#paint0_linear_8_2036)"/>
<path d="M25.7497 11.9702C17.9097 11.9702 11.5297 18.3402 11.5297 26.1702C11.5297 34.0002 17.9097 40.3702 25.7497 40.3702C33.5897 40.3702 39.9697 34.0002 39.9697 26.1702C39.9797 18.3402 33.5897 11.9702 25.7497 11.9702ZM35.1097 18.6802C36.7297 20.6902 37.7197 23.2302 37.7597 26.0002C37.2197 25.8902 34.9297 25.4602 32.1997 25.4602C31.3197 25.4602 30.3897 25.5002 29.4597 25.6202C29.3797 25.4302 29.2997 25.2402 29.2197 25.0502C28.9797 24.4802 28.7197 23.9202 28.4497 23.3702C32.6597 21.6202 34.6897 19.2202 35.1097 18.6802ZM25.7497 14.1902C28.7797 14.1902 31.5497 15.3202 33.6697 17.1702C33.3397 17.6302 31.5197 19.9002 27.4597 21.4302C25.5797 18.0002 23.5297 15.1602 23.0397 14.5002C23.9097 14.3002 24.8197 14.1902 25.7497 14.1902ZM20.5897 15.3602C20.9997 15.9302 23.0597 18.8002 24.9897 22.2002C19.8197 23.5602 15.2397 23.6502 14.1297 23.6502H14.0097C14.7997 19.9802 17.2797 16.9402 20.5897 15.3602ZM13.7397 26.1902C13.7397 26.0902 13.7397 25.9902 13.7397 25.8902C13.8097 25.8902 13.9197 25.8902 14.0597 25.8902C15.5497 25.8902 20.7297 25.7702 26.0597 24.1802C26.3797 24.8102 26.6897 25.4602 26.9797 26.1002C26.8497 26.1402 26.7097 26.1802 26.5797 26.2202C20.5697 28.1602 17.2697 33.2902 16.7697 34.1302C14.8797 32.0202 13.7397 29.2402 13.7397 26.1902ZM25.7497 38.1902C22.9897 38.1902 20.4497 37.2602 18.4197 35.6902C18.7597 35.0202 21.2497 30.5302 27.8397 28.2402H27.8497C29.4997 32.5402 30.1997 36.1402 30.3897 37.2602C28.9697 37.8602 27.3997 38.1902 25.7497 38.1902ZM32.5597 36.0802C32.3997 35.1602 31.7497 31.7802 30.2597 27.6502C31.0997 27.5202 31.9097 27.4702 32.6797 27.4702C35.1897 27.4702 37.1597 28.0202 37.6097 28.1602C37.0597 31.4302 35.1897 34.2702 32.5597 36.0802Z" fill="white"/>
<defs>
<linearGradient id="paint0_linear_8_2036" x1="25.7526" y1="0.892237" x2="25.7526" y2="51.4586" gradientUnits="userSpaceOnUse">
<stop stop-color="#EC6899"/>
<stop offset="1" stop-color="#D2318A"/>
</linearGradient>
</defs>
</svg>
