<svg width="51" height="52" viewBox="0 0 51 52" fill="none" xmlns="http://www.w3.org/2000/svg">
<path d="M0.0297852 38.2301V14.1201C0.0297852 6.84013 5.97979 0.890137 13.2598 0.890137H37.3698C44.6398 0.890137 50.5998 6.84013 50.5998 14.1201V38.2301C50.5998 45.5001 44.6498 51.4601 37.3698 51.4601H13.2598C5.97979 51.4601 0.0297852 45.5101 0.0297852 38.2301Z" fill="url(#paint0_linear_8_2026)"/>
<path d="M14.7098 21.4702H19.6098V37.2001H14.7098V21.4702ZM17.1598 13.6501C18.7298 13.6501 19.9898 14.9201 19.9898 16.4801C19.9898 18.0401 18.7198 19.3202 17.1598 19.3202C15.5898 19.3202 14.3198 18.0501 14.3198 16.4801C14.3198 14.9201 15.5898 13.6501 17.1598 13.6501Z" fill="white"/>
<path d="M22.6798 21.4701H27.3698V23.6201H27.4298C28.0798 22.3801 29.6798 21.0801 32.0598 21.0801C37.0098 21.0801 37.9198 24.3401 37.9198 28.5701V37.2001H33.0298V29.5501C33.0298 27.7201 32.9898 25.3801 30.4898 25.3801C27.9398 25.3801 27.5598 27.3701 27.5598 29.4201V37.2001H22.6698V21.4701H22.6798Z" fill="white"/>
<defs>
<linearGradient id="paint0_linear_8_2026" x1="46.7127" y1="4.77794" x2="3.91718" y2="47.5733" gradientUnits="userSpaceOnUse">
<stop stop-color="#007CB9"/>
<stop offset="0.8213" stop-color="#065CA6"/>
<stop offset="1" stop-color="#2453A1"/>
</linearGradient>
</defs>
</svg>
