<svg width="799" height="906" viewBox="0 0 799 906" fill="none" xmlns="http://www.w3.org/2000/svg">
<path d="M409.952 637.88H443.633V750.158H409.952V637.88Z" fill="#BEC1C4"/>
<path d="M353.861 868.078H348.227V841.05C348.227 835.228 348.962 830.141 352.942 826.342C356.862 822.603 361.822 816.903 368.987 815.8C373.58 815.065 376.703 811.939 377.438 811.939H409.955V823.155H377.07C373.58 823.155 362.557 826.342 357.658 831.061C355.698 832.899 353.861 837.986 353.861 841.05V868.078Z" fill="#6F7275"/>
<path d="M336.961 877.393C336.961 878.006 337.022 878.68 337.083 879.293C338.002 886.647 344.309 892.408 351.903 892.408C359.557 892.408 365.865 886.708 366.722 879.293C366.784 878.68 366.845 878.067 366.845 877.393C366.845 869.119 360.17 862.439 351.903 862.439C343.635 862.439 336.961 869.119 336.961 877.393Z" fill="#2C2C42"/>
<path d="M336.96 877.456C336.96 878.069 337.021 879.356 337.082 879.356H366.783C366.844 879.356 366.905 878.131 366.905 877.456C366.905 869.183 360.23 862.502 351.963 862.502C343.635 862.441 336.96 869.183 336.96 877.456Z" fill="#6F7275"/>
<path d="M505.301 868.078H516.508V841.05C516.508 835.228 513.691 830.141 509.772 826.342C505.852 822.603 499.912 816.903 492.747 815.8C488.155 815.065 484.052 811.939 483.256 811.939H443.635V823.155H483.562C487.052 823.155 497.34 826.342 502.239 831.061C504.199 832.899 505.301 837.986 505.301 841.05V868.078Z" fill="#6F7275"/>
<path d="M523.672 877.393C523.672 878.005 523.611 878.68 523.549 879.292C522.631 886.647 516.323 892.408 508.73 892.408C501.075 892.408 494.829 886.708 493.849 879.292C493.788 878.68 493.726 878.067 493.726 877.393C493.726 869.119 500.401 862.439 508.669 862.439C516.997 862.439 523.672 869.119 523.672 877.393Z" fill="#2C2C42"/>
<path d="M523.673 877.443C523.673 878.056 523.612 879.343 523.55 879.343H493.85C493.789 879.343 493.727 878.117 493.727 877.443C493.727 869.169 500.402 862.489 508.67 862.489C516.998 862.427 523.673 869.169 523.673 877.443Z" fill="#6F7275"/>
<path d="M421.16 823.148H432.366V868.071H421.16V823.148Z" fill="#6F7275"/>
<path d="M415.341 877.389C415.341 878.001 415.402 878.676 415.463 879.289C416.382 886.643 422.689 892.404 430.344 892.404C437.999 892.404 444.245 886.704 445.164 879.289C445.225 878.676 445.286 878.063 445.286 877.389C445.286 869.115 438.55 862.435 430.344 862.435C422.077 862.435 415.341 869.115 415.341 877.389Z" fill="#2C2C42"/>
<path d="M415.342 877.439C415.342 878.051 415.403 879.338 415.464 879.338H445.165C445.226 879.338 445.287 878.113 445.287 877.439C445.287 869.165 438.551 862.485 430.345 862.485C422.078 862.423 415.342 869.165 415.342 877.439Z" fill="#6F7275"/>
<path d="M404.319 733.36H454.841V828.784H404.319V733.36Z" fill="#7F8B96"/>
<path d="M370.637 626.652H494.093V649.083H370.637V626.652Z" fill="#D0D5D9"/>
<path d="M409.952 548.027H449.205V604.166H409.952V548.027Z" fill="#6F7275"/>
<path d="M527.773 598.585V615.439H571.987C581.172 615.439 589.195 613.539 595.196 607.227C601.075 601.037 604.259 592.886 606.096 581.548C607.26 574.255 606.341 569.045 606.341 567.758V503.1H589.501V568.31C589.501 573.826 589.868 587.983 582.397 595.766C579.458 598.831 576.763 598.585 571.987 598.585H527.773Z" fill="#D0D5D9"/>
<path d="M563.23 506.295V509.849C563.23 517.694 569.599 524.007 577.376 524.007H619.447C627.285 524.007 633.593 517.633 633.593 509.849V506.295C633.593 498.45 627.285 492.137 619.508 492.137H577.315C577.07 492.137 576.825 492.137 576.58 492.137C574.437 492.26 572.416 492.812 570.64 493.792C570.395 493.915 570.211 494.037 569.966 494.16C565.986 496.673 563.23 501.147 563.23 506.295Z" fill="#A3886F"/>
<path d="M331.382 598.586V615.44H288.944C279.758 615.44 271.736 613.54 265.735 607.228C259.856 601.038 255.753 592.886 253.977 581.548C252.813 574.255 252.875 569.046 252.875 567.759V503.101H269.715V568.31C269.715 573.826 270.266 587.983 277.676 595.767C280.616 598.831 284.167 598.586 288.944 598.586H331.382Z" fill="#C1C7CC"/>
<path d="M224.828 504.692C224.828 496.847 233.034 486.245 240.872 486.245H282.392C290.23 486.245 297.763 496.847 297.763 504.692V508.982C297.763 516.827 290.23 519.953 282.392 519.953H240.872C233.034 519.953 224.828 516.827 224.828 508.982V504.692Z" fill="#A3886F"/>
<path d="M325.812 573.152C325.812 580.997 332.18 587.31 339.958 587.31H524.835C532.674 587.31 538.981 580.936 538.981 573.152V331.988C538.981 324.143 532.674 317.831 524.835 317.831H339.958C332.119 317.831 325.812 324.205 325.812 331.988V573.152Z" fill="#A3886F"/>
<path d="M286.496 616.298C286.496 625.124 293.661 632.233 302.418 632.233H545.472C554.29 632.233 561.394 625.062 561.394 616.298V603.306C561.394 594.48 554.229 587.371 545.472 587.371H302.479C293.661 587.371 286.557 594.542 286.557 603.306V616.298H286.496Z" fill="#A3886F"/>
<path d="M309.09 888.287L378.656 880.381C375.349 875.05 373.696 859.912 372.839 848.145C371.675 831.781 372.104 811.924 372.104 811.924C372.104 811.924 326.175 806.286 326.175 811.924C326.175 823.139 323.542 836.01 320.358 848.145C315.397 866.96 309.09 888.287 309.09 888.287Z" fill="#22272E"/>
<path d="M307.804 893.196C307.804 893.563 307.804 892.276 307.866 892.644C308.049 896.444 309.029 896.199 310.683 901.837H383.678C385.332 896.199 386.373 896.505 386.495 892.644C386.495 892.276 386.557 892.767 386.557 892.399C386.557 874.993 368.92 861.265 347.181 861.265C325.441 861.265 307.804 875.79 307.804 893.196Z" fill="#22272E"/>
<path d="M372.84 845.632C371.676 828.778 372.105 811.924 372.105 811.924C372.105 811.924 326.176 806.286 326.176 811.924C326.176 823.14 323.543 834.355 320.359 845.632H372.84Z" fill="#617085"/>
<path d="M307.805 887.738C307.989 887.738 308.969 898.954 310.622 898.954H383.679C385.333 898.954 386.374 887.738 386.496 887.738H307.805Z" fill="#515D6E" stroke="#515D6E" stroke-miterlimit="10"/>
<path d="M333.953 866.956C339.403 859.417 352.324 862.053 358.448 867.139C359.367 867.936 358.326 869.101 357.407 868.978C353.61 868.304 350.548 866.343 346.568 866.159C342.343 865.975 339.097 868.549 335.055 868.855C334.137 868.917 333.463 867.691 333.953 866.956Z" fill="#515D6E"/>
<path d="M336.218 874.811C342.281 870.644 354.161 869.173 359.489 875.302C360.224 876.16 359.55 877.569 358.325 877.263C354.774 876.282 350.671 875.792 346.996 875.792C343.261 875.853 340.26 878.489 336.525 877.631C335.177 877.324 335.177 875.547 336.218 874.811Z" fill="#515D6E"/>
<path d="M299.784 580.636C302.54 579.226 359.736 545.396 359.736 545.396L413.564 546.07V596.999C395.805 629.665 364.023 628.378 352.388 635.488C362.369 681.146 373.025 795.018 378.72 839.267H316.38C296.11 728.215 243.506 609.379 299.784 580.636Z" fill="#774E24"/>
<path d="M546.696 888.287L477.13 880.381C480.437 875.05 482.09 859.912 482.947 848.145C484.111 831.781 483.682 811.924 483.682 811.924C483.682 811.924 529.611 806.286 529.611 811.924C529.611 823.139 532.244 836.01 535.428 848.145C540.389 866.96 546.696 888.287 546.696 888.287Z" fill="#22272E"/>
<path d="M548.043 893.196C548.043 893.563 548.043 892.276 548.043 892.644C547.92 896.444 546.879 896.199 545.226 901.837H472.23C470.516 896.199 469.536 896.505 469.413 892.644C469.413 892.276 469.352 892.767 469.352 892.399C469.352 874.993 486.989 861.265 508.728 861.265C530.406 861.265 548.043 875.79 548.043 893.196Z" fill="#22272E"/>
<path d="M483.008 845.632C484.172 828.778 483.743 811.924 483.743 811.924C483.743 811.924 529.672 806.286 529.672 811.924C529.672 823.14 532.305 834.355 535.489 845.632H483.008Z" fill="#617085"/>
<path d="M547.981 887.738C547.859 887.738 546.818 898.954 545.164 898.954H472.169C470.454 898.954 469.474 887.738 469.352 887.738H547.981Z" fill="#515D6E" stroke="#515D6E" stroke-miterlimit="10"/>
<path d="M521.833 866.956C516.444 859.417 503.461 862.053 497.399 867.139C496.48 867.936 497.521 869.101 498.44 868.978C502.237 868.304 505.298 866.343 509.279 866.159C513.504 865.975 516.75 868.549 520.792 868.855C521.649 868.917 522.384 867.691 521.833 866.956Z" fill="#515D6E"/>
<path d="M519.567 874.811C513.505 870.644 501.625 869.173 496.297 875.302C495.562 876.16 496.236 877.569 497.46 877.263C501.012 876.282 505.176 875.792 508.789 875.792C512.525 875.853 515.526 878.489 519.261 877.631C520.608 877.324 520.608 875.547 519.567 874.811Z" fill="#515D6E"/>
<path d="M556.86 580.636C554.105 579.226 496.908 545.396 496.908 545.396L443.08 546.07V596.999C460.839 629.665 492.621 628.378 504.257 635.488C494.275 681.146 483.619 795.018 477.924 839.267H540.265C560.535 728.215 613.138 609.379 556.86 580.636Z" fill="#774E24"/>
<path d="M352.447 593.614C355.571 609.303 486.62 604.032 500.644 597.107C510.258 592.327 505.175 547.403 501.072 519.702C499.174 507.076 497.459 498.006 497.459 498.006L359.061 499.416C359.061 499.416 358.143 506.464 357.04 516.76C354.407 540.846 350.243 582.643 352.447 593.614Z" fill="#774E24"/>
<path d="M371.799 523.442C366.9 521.419 361.939 519.09 357.04 516.333C358.204 507.078 359.061 500.766 359.061 500.766L376.575 500.582C375.228 508.243 373.575 515.842 371.799 523.442Z" fill="#4D3114"/>
<path d="M390.171 528.162C395.254 529.51 400.336 530.552 405.358 531.226C421.77 533.677 437.447 533.126 451.654 531.103C456.063 530.49 460.411 529.694 464.575 528.774C463.595 518.662 463.412 508.488 462.861 498.376L397.091 498.928C395.131 508.795 392.865 518.539 390.171 528.162Z" fill="#4D3114"/>
<path d="M482.272 499.605L497.521 499.483C497.521 499.483 499.235 507.572 501.134 518.911C496.48 520.749 490.968 522.772 484.906 524.733C485.212 516.827 483.803 508.001 482.272 499.605Z" fill="#4D3114"/>
<path d="M405.359 531.226C421.771 533.677 437.448 533.126 451.655 531.103L453.859 502.972L407.625 499.295L405.359 531.226Z" fill="#C28C4B"/>
<path d="M523.216 285.543C523.216 285.543 424.772 260.728 330.465 285.545C330.465 285.545 351.65 460.92 359.06 499.224C359.06 499.224 433.22 517.794 497.458 497.998C497.458 497.998 524.441 320.171 523.216 285.543Z" fill="#3B7BD7"/>
<path d="M464.384 272.304C464.384 289.633 446.223 303.751 429.639 303.751C413.055 303.751 394.894 289.694 394.894 272.304V232.556C394.894 215.227 413.055 201.17 429.639 201.17C446.223 201.17 464.384 215.227 464.384 232.556V272.304Z" fill="#E38E78"/>
<path d="M349.638 190.855C349.439 217.831 378.261 239.716 397.409 249.898C416.557 260.146 433.254 256.774 433.254 256.774C509.251 239.517 503.951 203.418 508.191 173.533C510.245 158.789 512.233 131.351 505.74 97.4329C504.878 92.8048 503.421 88.6395 501.565 84.8047C489.772 60.2755 461.944 50.7547 461.944 50.7547C445.313 44.9365 426.363 43.6803 409.07 46.8538C384.158 51.4159 364.546 64.3086 358.251 89.7634C356.197 97.9619 355.071 106.425 354.077 114.755C351.89 132.012 350.764 149.467 350.102 166.855C349.903 174.855 349.704 182.855 349.638 190.855Z" fill="#F5AE94"/>
<path d="M442.709 177.01C442.709 177.01 424.962 202.232 408.522 174.886L442.709 177.01Z" fill="#D8826C"/>
<path d="M406.752 106.553C406.752 106.553 372.299 99.6111 361.499 124.934C361.499 124.934 399.994 113.363 407.349 119.115L406.752 106.553Z" fill="#683508"/>
<path d="M446.675 109.401C446.675 109.401 480.598 100.343 492.988 124.938C492.988 124.938 453.83 115.814 446.873 121.963L446.675 109.401Z" fill="#683508"/>
<path d="M376.469 163.412C379.716 166.387 384.022 168.371 388.793 168.635C390.979 168.767 393.1 168.569 395.087 168.106C403.171 166.123 409.333 159.313 409.929 150.85C410.658 140.271 402.376 131.147 391.377 130.42C380.445 129.693 370.97 137.626 370.307 148.205C369.843 154.156 372.295 159.643 376.469 163.412Z" fill="white"/>
<path d="M374.679 156.606C374.878 159.052 375.474 161.366 376.468 163.416C379.715 166.391 384.021 168.374 388.792 168.639C390.978 168.771 393.099 168.573 395.086 168.11C398.134 165.002 399.857 160.044 399.393 154.688C398.73 145.961 392.635 139.283 385.744 139.812C383.359 140.01 381.238 141.068 379.45 142.655C378.456 143.581 377.528 144.705 376.866 146.027C375.209 148.936 374.348 152.639 374.679 156.606Z" fill="#5C8696"/>
<path d="M378.258 156.341C378.722 162.556 383.095 167.316 387.931 166.919C392.768 166.523 396.346 161.167 395.816 154.952C395.286 148.737 390.979 144.043 386.143 144.374C381.306 144.77 377.794 150.126 378.258 156.341Z" fill="#0D0D0C"/>
<path d="M376.866 145.761C376.998 147.414 379.118 148.67 381.636 148.472C384.154 148.274 386.075 146.753 385.943 145.034C385.81 143.315 383.69 142.125 381.172 142.323C378.654 142.522 376.733 144.042 376.866 145.761Z" fill="white"/>
<path d="M449.027 163.412C452.273 166.387 456.58 168.371 461.417 168.635C463.603 168.767 465.724 168.569 467.711 168.106C475.795 166.123 481.957 159.313 482.487 150.85C483.215 140.271 474.933 131.147 463.935 130.42C453.002 129.693 443.527 137.626 442.865 148.205C442.401 154.156 444.853 159.643 449.027 163.412Z" fill="white"/>
<path d="M447.238 156.606C447.437 159.052 448.033 161.366 449.027 163.416C452.273 166.391 456.58 168.374 461.417 168.639C463.603 168.771 465.724 168.573 467.711 168.11C470.693 165.002 472.482 160.044 472.018 154.688C471.355 145.961 465.26 139.283 458.369 139.812C455.984 140.01 453.864 141.068 452.075 142.655C451.081 143.581 450.153 144.705 449.491 146.027C447.768 148.936 446.907 152.639 447.238 156.606Z" fill="#5C8696"/>
<path d="M450.816 156.341C451.279 162.556 455.652 167.316 460.489 166.919C465.326 166.523 468.904 161.167 468.374 154.952C467.91 148.737 463.537 144.043 458.7 144.374C453.863 144.77 450.352 150.126 450.816 156.341Z" fill="#0D0D0C"/>
<path d="M449.424 145.761C449.557 147.414 451.677 148.67 454.195 148.472C456.712 148.274 458.634 146.753 458.501 145.034C458.369 143.315 456.249 142.125 453.731 142.323C451.213 142.522 449.292 144.042 449.424 145.761Z" fill="white"/>
<path d="M352.818 134.526C352.818 134.526 336.188 96.9722 322.473 126.526C311.54 150.064 329.761 173.138 344.47 171.485C359.179 169.899 352.818 134.526 352.818 134.526Z" fill="#F0A98F"/>
<path d="M351.759 140.338C351.759 140.338 339.435 116.272 333.074 124.933C326.647 133.595 326.714 145.429 326.714 145.429C326.714 145.429 331.285 132.867 340.23 141.132C340.23 141.132 328.238 160.768 348.247 156.669C348.247 156.669 356.927 151.182 351.759 140.338Z" fill="#D8826C"/>
<path d="M481.225 55.2429C481.225 55.2429 479.303 85.9209 492.091 100.797C504.878 115.673 506.071 146.021 506.071 146.021C506.071 146.021 552.915 86.3837 499.644 51.6726C499.71 51.6726 489.043 47.4411 481.225 55.2429Z" fill="url(#paint0_linear_15_1602)"/>
<path d="M378.262 67.2787C378.262 67.2787 356.596 96.0393 352.024 137.428C352.024 137.428 321.479 92.0723 350.632 53.857C350.632 53.857 382.568 40.3693 378.262 67.2787Z" fill="url(#paint1_linear_15_1602)"/>
<path d="M505.078 140.195C505.078 140.195 521.708 102.641 535.423 132.195C546.356 155.733 528.135 178.807 513.426 177.154C498.783 175.568 505.078 140.195 505.078 140.195Z" fill="#F0A98F"/>
<path d="M506.138 146.008C506.138 146.008 518.461 121.942 524.888 130.603C531.315 139.264 531.249 151.099 531.249 151.099C531.249 151.099 526.677 138.537 517.733 146.802C517.733 146.802 529.659 166.438 509.715 162.339C509.649 162.339 500.969 156.851 506.138 146.008Z" fill="#D8826C"/>
<path d="M448.958 202.755C448.958 202.755 414.173 250.689 394.495 197.73C394.495 197.664 409.469 228.011 448.958 202.755Z" fill="#D5503B"/>
<path d="M311.952 38.6034C316.695 44.7785 324.693 50.8222 333.046 52.4645C326.109 45.6982 319.526 36.5013 320.659 26.976C320.729 26.5818 321.296 26.1877 321.72 26.3847C323.136 27.1073 324.269 28.1584 325.472 29.1438C331.771 34.4649 342.106 34.3335 349.679 31.7715C362.986 27.3701 373.887 18.6988 385.849 11.9982C398.873 4.70637 413.454 0.436389 428.885 1.02762C437.166 1.35608 445.306 2.99838 453.092 5.62606C472.133 12.1296 494.854 24.6767 499.95 44.3843C500.658 47.0777 500.941 49.9025 500.87 52.6615C500.87 54.4352 499.242 59.6249 500.021 61.0044C500.446 61.6613 499.525 62.4496 499.03 62.0555C498.747 62.0555 498.393 61.9241 498.251 61.6613C498.11 61.3329 498.039 61.1358 497.968 60.9387C488.979 54.1724 473.973 80.5806 468.523 84.7849C447.571 101.011 417.56 103.31 392.644 97.0036C364.685 89.9089 333.895 72.0407 317.827 50.3623C315.138 46.8149 312.589 43.2019 310.678 39.2604C310.324 38.5378 311.457 37.9465 311.952 38.6034Z" fill="url(#paint2_linear_15_1602)"/>
<path d="M425.017 326.096C425.017 328.425 426.915 330.386 429.303 330.386C431.63 330.386 433.59 328.486 433.59 326.096C433.59 323.767 431.691 321.867 429.303 321.867C426.915 321.867 425.017 323.767 425.017 326.096Z" fill="white"/>
<path d="M425.015 370.472C425.015 372.801 426.913 374.701 429.301 374.701C431.628 374.701 433.588 372.801 433.588 370.472C433.588 368.143 431.689 366.182 429.301 366.182C426.913 366.182 425.015 368.082 425.015 370.472Z" fill="white"/>
<path d="M425.321 459.147C425.321 461.476 427.219 463.437 429.546 463.437C431.873 463.437 433.833 461.537 433.833 459.147C433.833 456.818 431.935 454.918 429.546 454.918C427.219 454.857 425.321 456.757 425.321 459.147Z" fill="white"/>
<path d="M425.015 414.592C425.015 416.921 426.913 418.882 429.301 418.882C431.628 418.882 433.588 416.982 433.588 414.592C433.588 412.263 431.689 410.363 429.301 410.363C426.913 410.363 425.015 412.263 425.015 414.592Z" fill="white"/>
<path d="M522.998 286.445C527.285 286.812 632.492 355.209 642.045 445.423C642.045 445.423 625.633 498.927 505.178 347.548C505.239 347.609 505.239 284.913 522.998 286.445Z" fill="#3B7BD7"/>
<path d="M494.337 434.39C577.314 380.028 642.104 445.421 642.104 445.421C652.821 465.094 540.572 467.73 494.337 463.072V434.39Z" fill="#3B7BD7"/>
<path d="M524.037 466.505C524.037 466.505 489.254 394.983 434.507 465.279L524.037 466.505Z" fill="#F5AE94"/>
<path d="M330.648 286.264C330.648 286.264 288.516 353.925 251.038 377.582C208.907 404.119 139.891 430.84 139.891 430.84C139.891 430.84 112.395 458.174 140.32 461.913C210.499 471.29 308.847 460.381 336.894 399.461C364.941 338.604 371.31 326.101 330.648 286.264Z" fill="#3B7BD7"/>
<path d="M122.438 465.343C126.602 445.854 140.197 431.512 156.364 431.512C172.531 431.512 186.126 445.854 190.29 465.343H122.438Z" fill="#22272E"/>
<path d="M174.797 449.22C174.797 453.633 179.451 457.249 185.269 457.249C191.086 457.249 195.74 453.633 195.74 449.22C195.74 444.746 191.025 441.192 185.269 441.192C179.512 441.192 174.797 444.746 174.797 449.22Z" fill="#F0A98F"/>
<path d="M160.346 431.502C160.346 437.937 163.53 443.146 167.449 443.146C171.368 443.146 174.553 437.937 174.553 431.502C174.553 425.066 171.368 419.857 167.449 419.857C163.53 419.857 160.346 425.066 160.346 431.502Z" fill="#F0A98F"/>
<path d="M139.83 432.304C142.034 438.311 146.811 442.11 150.485 440.823C154.159 439.475 155.384 433.469 153.179 427.463C150.975 421.457 146.198 417.657 142.524 419.005C138.85 420.292 137.686 426.298 139.83 432.304Z" fill="#F0A98F"/>
<path d="M122.989 448.117C127.153 453.02 132.909 454.981 135.91 452.407C138.911 449.895 137.992 443.827 133.828 438.924C129.664 434.021 123.907 432.121 120.907 434.634C117.906 437.208 118.825 443.214 122.989 448.117Z" fill="#F0A98F"/>
<path d="M118.028 464.046C124.152 465.946 130.092 464.475 131.255 460.736C132.419 456.998 128.377 452.401 122.253 450.501C116.13 448.602 110.19 450.134 109.026 453.872C107.862 457.549 111.904 462.146 118.028 464.046Z" fill="#F0A98F"/>
<path d="M754.598 905.987L665.496 504.189L686.868 496.59L777.685 905.987H754.598Z" fill="#C1C7CC"/>
<path d="M45.215 905.987L134.316 504.189L112.944 496.59L22.1283 905.987H45.215Z" fill="#C1C7CC"/>
<path d="M4.90851 462.859H794.556C796.765 462.859 798.556 464.65 798.556 466.859V501.468C798.556 503.677 796.765 505.468 794.556 505.468H4.90851C2.69934 505.468 0.908508 503.677 0.908508 501.468V466.859C0.908508 464.65 2.6994 462.859 4.90851 462.859Z" fill="#D8DDE1"/>
<path d="M247.67 435.494C247.67 441.439 252.508 446.219 258.386 446.219H461.391C467.331 446.219 472.107 441.378 472.107 435.494V324.381C472.107 318.436 467.331 313.656 461.391 313.656H258.448C252.508 313.656 247.731 318.436 247.731 324.381V435.494H247.67Z" fill="#EDE9EB"/>
<path d="M490.172 444.754C490.172 444.999 490.233 445.245 490.233 445.49C490.233 454.867 482.64 462.405 473.332 462.405H246.567C237.198 462.405 229.665 454.805 229.665 445.49C229.665 445.245 229.665 444.999 229.727 444.754H490.172Z" fill="#00265C"/>
<path d="M346.63 380.399C346.63 387.692 352.57 393.637 359.858 393.637C367.206 393.637 373.085 387.692 373.085 380.399C373.085 373.045 367.145 367.161 359.858 367.161C352.57 367.161 346.63 373.106 346.63 380.399Z" fill="#FFFFFE"/>
<defs>
<linearGradient id="paint0_linear_15_1602" x1="503.521" y1="70.9619" x2="481.184" y2="88.0871" gradientUnits="userSpaceOnUse">
<stop stop-color="#DA7217"/>
<stop offset="1" stop-color="#F28729"/>
</linearGradient>
<linearGradient id="paint1_linear_15_1602" x1="359.075" y1="93.3012" x2="329.292" y2="50.1162" gradientUnits="userSpaceOnUse">
<stop stop-color="#D87015"/>
<stop offset="1" stop-color="#EF8426"/>
</linearGradient>
<linearGradient id="paint2_linear_15_1602" x1="490.232" y1="60.1565" x2="311.086" y2="31.1785" gradientUnits="userSpaceOnUse">
<stop stop-color="#D76F14"/>
<stop offset="1" stop-color="#F58A2B"/>
</linearGradient>
</defs>
</svg>
