<svg width="752" height="1049" viewBox="0 0 752 1049" fill="none" xmlns="http://www.w3.org/2000/svg">
<path d="M531.542 494.922C570.111 524.487 626.089 536.461 669.211 513.584C682.737 506.427 695.192 494.989 697.87 480.273C701.084 462.547 689.634 444.219 694.455 426.828C698.674 411.443 714.074 402.012 725.524 390.641C742.13 374.186 751.773 351.243 751.706 328.166C751.639 305.089 741.997 282.212 725.324 265.824C711.195 251.911 692.781 242.948 676.577 231.309C663.788 222.078 652.271 210.105 646.177 195.59C640.151 181.275 645.106 172.847 645.976 158.8C647.784 128.767 640.218 95.1882 618.59 72.847C590.601 43.8168 549.019 44.2851 512.258 51.7767C493.643 55.5226 473.087 61.342 456.748 71.2417C449.785 75.4557 445.164 80.6063 440.41 87.3621C438.87 89.5026 430.299 110.84 430.634 110.774C376.129 123.215 405.39 198.667 388.65 233.316C383.361 244.219 374.12 252.647 366.018 261.677C351.823 277.597 340.707 296.727 337.225 317.731C333.743 338.734 338.498 361.611 352.626 377.53C354.903 380.139 357.581 382.681 358.452 386.025C359.791 391.042 356.978 396.059 354.903 400.808C342.515 429.236 356.711 462.146 374.589 487.497C386.575 504.554 400.703 520.741 419.05 530.641C448.311 546.494 485.273 544.019 515.405 529.839" fill="url(#paint0_linear_15_1867)"/>
<g opacity="0.26">
<path opacity="0.42" d="M512.186 130.203C493.772 121.24 470.27 131.207 458.886 148.264C447.57 165.32 432.839 180.504 435.518 200.772C436.857 210.806 439.066 221.04 437.058 231.006C431.969 256.826 416.032 275.689 399.426 296.09C385.365 313.348 380.811 336.291 377.196 358.231C375.053 371.341 373.312 385.789 380.276 397.094C389.114 411.408 399.225 429.87 408.734 443.716C424.402 466.392 415.229 488.532 434.178 508.599C439.803 514.485 447.704 517.562 455.471 520.037C471.207 524.92 487.478 527.796 503.95 528.666C518.012 529.402 532.274 528.532 545.532 523.917C578.075 512.479 599.837 475.957 593.944 441.977C589.458 416.224 571.713 394.819 563.277 370.003C557.25 352.211 556.246 332.746 560.33 314.418C565.553 291.274 578.878 268.264 573.12 245.254" fill="black"/>
</g>
<path d="M422.866 156.197C442.017 161.548 463.578 157.668 479.849 145.962C496.12 134.257 506.7 114.926 507.771 94.9255C508.106 89.3737 506.968 82.6847 501.946 80.4104C500.205 79.6077 498.196 79.5409 496.254 79.6077C484.402 79.9422 473.019 84.9589 463.578 92.2499C454.137 99.5409 446.637 108.972 440.008 118.872C435.254 126.029 430.969 133.521 428.357 141.682C426.75 146.832 425.813 152.183 425.612 157.534" fill="#441075"/>
<path d="M644.741 963.713C652.666 961.353 659.562 964.015 666.881 966.557C664.522 960.748 662.224 955.242 664.825 948.708C666.276 945.078 671.66 939.511 676.197 941.206C681.036 943.021 683.093 948.345 682.004 953.306C681.097 957.481 679.403 961.293 677.649 965.165C676.56 967.464 675.895 969.824 674.927 972.062C676.742 970.913 678.919 970.247 681.46 969.945C682.004 969.884 682.488 970.671 682.125 971.094C679.766 974.301 675.895 975.33 674.261 979.262C673.535 981.017 673.596 983.074 673.294 985.01C674.443 983.8 675.834 982.651 677.286 982.046C678.677 981.501 681.278 981.198 682.307 980.23C682.912 979.625 683.819 980.23 683.638 981.017C683.093 984.042 680.008 984.587 678.133 986.523C676.5 988.217 675.108 990.032 673.959 992.089C673.898 992.15 673.898 992.21 673.838 992.271C675.955 991.061 678.314 990.274 680.613 989.669C681.278 989.488 682.004 990.456 681.339 990.94C679.161 992.694 676.923 994.388 674.927 996.385C673.233 998.079 672.265 1000.26 670.632 1002.01C670.148 1002.62 669.241 1002.74 668.515 1002.56C665.369 1001.77 667.607 998.503 669.12 996.566C667.728 994.207 668.696 991.484 670.148 989.064C670.087 989.064 670.087 989.064 670.027 989.004C667.728 987.007 668.152 983.195 669.12 980.109C660.167 983.256 645.286 979.202 640.87 973.636C637.724 969.763 640.205 965.044 644.741 963.713ZM678.435 950.886C679.04 945.501 674.261 943.807 670.692 946.711C668.878 948.164 667.97 950.342 667.426 952.52C665.974 958.389 670.087 964.015 672.084 969.219C672.144 969.4 672.205 969.582 672.205 969.763C674.382 963.471 677.709 957.481 678.435 950.886ZM647.161 973.394C653.029 976.661 663.857 978.052 670.813 975.027C671.116 973.635 671.479 972.244 671.902 970.852C671.418 971.518 670.511 971.941 669.725 971.699C664.159 970.066 658.836 967.646 653.029 966.859C649.581 966.375 640.144 969.521 647.161 973.394Z" fill="#032733"/>
<path d="M392.734 1033.78C394.973 1032.15 398.239 1033.06 400.477 1034.63C400.961 1030.7 405.014 1029.13 408.644 1029.67C408.341 1027.49 410.277 1025.56 411.971 1024.35C412.757 1023.8 413.664 1023.5 414.632 1023.32C413.301 1020.84 407.131 1016.9 405.861 1015.88C402.836 1013.46 400.114 1010.31 398.844 1006.56C396.364 999.237 396.666 987.379 404.349 983.023C409.793 979.937 414.027 988.347 415.6 991.977C417.173 995.607 417.899 999.358 418.685 1003.17C418.927 1004.5 419.109 1005.77 419.23 1007.1C420.258 1002.2 421.891 997.664 425.944 995.305C432.054 991.735 437.68 995.486 441.733 1000.33C445.785 1005.11 448.145 1011.16 443.305 1016C441.188 1018.11 437.922 1019.2 435.199 1020.29C431.509 1021.74 428.061 1023.68 424.492 1025.44C428.061 1027.86 430.723 1032.03 428.969 1036.14C428.545 1037.05 427.336 1036.81 426.852 1036.14C424.674 1033.12 422.799 1030.7 419.048 1029.55C416.326 1028.7 414.39 1030.15 412.152 1030.94C415.903 1033.12 418.443 1036.69 418.988 1041.05C419.048 1041.59 418.322 1041.95 417.899 1041.71C415.298 1040.2 413.06 1038.2 410.458 1036.57C407.676 1034.87 405.377 1036.57 402.534 1036.63C403.865 1038.56 404.47 1041.05 403.804 1043.28C403.562 1044.07 402.594 1043.95 402.352 1043.28C401.748 1041.59 400.296 1040.26 398.784 1039.35C398.118 1038.93 397.453 1038.56 396.666 1038.32C395.759 1038.08 394.852 1038.32 393.944 1038.2C391.464 1038.08 390.738 1035.24 392.734 1033.78ZM412.939 999.54C412.334 996.817 411.366 994.155 410.156 991.614C406.889 984.596 403.744 988.831 402.111 994.942C399.328 1005.41 407.555 1010.79 414.148 1016.54C414.33 1016.72 414.572 1016.9 414.753 1017.09C414.753 1016.36 414.814 1015.57 414.814 1014.79C414.935 1009.7 414.027 1004.5 412.939 999.54ZM441.067 1005.59C437.559 999.056 429.755 993.55 424.976 1002.63C421.77 1008.74 421.952 1016.36 420.016 1022.95C422.617 1021.14 425.4 1019.51 428.364 1018.3C434.05 1015.94 445.967 1014.67 441.067 1005.59Z" fill="#032733"/>
<path d="M563.622 416.942C563.622 416.942 490.367 424.505 470.163 409.379C470.163 409.379 495.448 470.004 563.622 416.942Z" fill="#032733"/>
<path d="M569.55 490.158C571.364 482.958 607.853 302.961 607.853 302.961C607.853 302.961 520.979 274.221 458.672 302.96L488.128 491.731L569.55 490.158Z" fill="#C748A3"/>
<path d="M562.725 299.677C565.334 313.336 544.698 314.496 544.698 314.496C535.626 314.496 521.453 312.017 521.453 303.948L525.841 253.374C525.841 245.306 533.194 238.714 542.326 238.714C551.399 238.714 558.811 245.306 558.811 253.374L562.725 299.677Z" fill="#E8957A"/>
<path d="M490.791 124.897C502.103 113.946 512.326 102.389 518.859 88.1711C538.096 120.722 563.623 147.162 602.882 154.967C604.758 166.523 605.544 178.564 605.544 190.543C605.544 245.602 569.706 273.957 525.063 272.989C483.142 272.081 452.863 235.982 452.863 180.923C452.863 172.755 453.287 164.829 454.194 157.145C465.808 145.65 479.117 136.211 490.791 124.897Z" fill="#F0A98F"/>
<path d="M529.323 220.307C529.323 220.307 519.766 236.461 509.482 220.004L529.323 220.307Z" fill="#D8826C"/>
<path d="M539.185 187.518C539.185 198.167 547.835 206.819 558.482 206.819C569.128 206.819 577.778 198.167 577.778 187.518C577.778 176.87 569.128 168.218 558.482 168.218C547.835 168.218 539.185 176.87 539.185 187.518Z" fill="white"/>
<path d="M544.991 198.174C548.378 206.282 556.121 210.759 562.291 208.218C568.462 205.677 570.639 196.964 567.252 188.857C563.804 180.749 556.121 176.211 549.951 178.813C543.781 181.354 541.543 190.067 544.991 198.174Z" fill="#7F5242"/>
<path d="M548.198 196.851C550.617 202.599 556.122 205.805 560.477 203.99C564.833 202.175 566.406 196.004 563.986 190.196C561.566 184.448 556.062 181.241 551.706 183.056C547.351 184.871 545.778 191.043 548.198 196.851Z" fill="#400404"/>
<path d="M543.539 187.163C544.204 188.737 546.563 189.221 548.802 188.313C551.04 187.345 552.371 185.288 551.705 183.775C551.04 182.202 548.681 181.718 546.442 182.626C544.204 183.533 542.873 185.59 543.539 187.163Z" fill="white"/>
<path d="M543.782 229.869C543.782 229.869 512.629 244.269 499.442 231.079C499.502 231.079 511.48 261.089 543.782 229.869Z" fill="#D5503B"/>
<path d="M539.183 187.512C539.183 187.512 537.61 175.109 549.769 168.816C568.34 159.196 578.503 181.401 584.491 184.971C584.491 184.971 580.62 188.843 577.777 187.512C577.777 187.512 555.758 161.193 539.183 187.512Z" fill="#302725"/>
<path d="M503.857 190.18C503.857 200.828 495.207 209.48 484.561 209.48C473.914 209.48 465.264 200.828 465.264 190.18C465.264 179.531 473.914 170.879 484.561 170.879C495.207 170.879 503.857 179.531 503.857 190.18Z" fill="white"/>
<path d="M471.433 198.831C473.248 207.422 480.325 213.291 487.221 211.779C494.117 210.327 498.231 202.159 496.416 193.567C494.601 184.976 487.524 179.167 480.628 180.619C473.732 182.011 469.618 190.179 471.433 198.831Z" fill="#7F5242"/>
<path d="M475.001 198.039C476.272 204.15 481.292 208.264 486.192 207.235C491.092 206.207 493.996 200.398 492.725 194.288C491.455 188.177 486.434 184.002 481.534 185.031C476.635 186.12 473.731 191.928 475.001 198.039Z" fill="#400404"/>
<path d="M472.22 187.698C472.583 189.332 474.942 190.3 477.422 189.755C479.963 189.211 481.717 187.456 481.354 185.762C480.991 184.068 478.692 183.16 476.152 183.705C473.671 184.189 471.917 186.004 472.22 187.698Z" fill="white"/>
<path d="M504.22 187.818C504.22 187.818 505.792 176.746 493.634 171.179C475.063 162.648 464.9 182.372 458.911 185.579C458.911 185.579 462.783 189.028 465.626 187.818C465.566 187.818 485.528 163.919 504.22 187.818Z" fill="#302725"/>
<path d="M578.927 158.538C578.927 158.538 559.327 140.931 540.515 148.554C536.159 150.309 535.131 152.427 532.348 160.897C532.409 160.897 553.823 148.978 578.927 158.538Z" fill="#99360A"/>
<path d="M463.268 167.306C463.268 167.306 476.153 147.097 493.816 151.575C497.93 152.603 499.2 154.479 503.434 162.284C503.495 162.284 482.625 153.995 463.268 167.306Z" fill="#99360A"/>
<path d="M600.1 174.142C600.1 174.142 620.969 145.645 627.018 172.993C631.858 194.774 612.319 210.808 600.281 206.754C588.243 202.761 600.1 174.142 600.1 174.142Z" fill="#F0A98F"/>
<path d="M599.917 179.222C599.917 179.222 614.677 161.252 618.488 169.662C622.299 178.133 620 188.055 620 188.055C620 188.055 618.488 176.681 609.475 181.945C609.475 181.945 615.887 200.64 599.917 193.561C599.857 193.622 593.566 187.39 599.917 179.222Z" fill="#D8826C"/>
<path d="M596.894 206.389C596.894 209.293 599.071 211.653 601.794 211.653C604.455 211.653 606.693 209.293 606.693 206.389C606.693 203.485 604.516 201.125 601.794 201.125C599.132 201.186 596.894 203.485 596.894 206.389Z" fill="white"/>
<path d="M463.387 1039.66C467.682 1037.54 469.678 1022.84 470.586 1009.59C471.433 997.854 471.433 987.205 471.433 987.205C467.38 961.007 447.236 977.101 447.236 977.101C447.236 977.101 427.516 996.826 415.72 1006.02C413.905 1007.41 412.272 1008.56 410.941 1009.35C400.839 1015.4 372.65 1015.4 366.601 1029.5C360.552 1043.72 455.281 1043.72 463.387 1039.66Z" fill="#F0A98F"/>
<path d="M463.387 1039.67C467.682 1037.55 469.679 1022.85 470.586 1009.6C454.798 1010.32 432.476 1010.32 415.72 1006.09C413.905 1007.48 412.272 1008.63 410.941 1009.42C400.839 1015.47 372.65 1015.47 366.601 1029.56C360.552 1043.72 455.282 1043.72 463.387 1039.67Z" fill="#393D45"/>
<path d="M720.416 928.578C720.416 924.04 708.802 916.175 697.974 909.822C688.416 904.195 679.342 899.718 679.342 899.718C655.448 892.155 660.65 915.993 660.65 915.993C660.65 915.993 669.119 940.981 671.902 954.897C672.325 957.015 672.628 958.89 672.749 960.342C673.656 971.414 661.8 995.374 671.236 1006.45C680.613 1017.46 720.416 937.109 720.416 928.578Z" fill="#F0A98F"/>
<path d="M720.416 928.578C720.416 924.04 708.802 916.175 697.974 909.822C691.985 923.556 682.609 942.433 671.902 954.897C672.325 957.015 672.628 958.891 672.749 960.343C673.656 971.415 661.8 995.374 671.236 1006.45C680.613 1017.46 720.416 937.109 720.416 928.578Z" fill="#393D45"/>
<path d="M486.573 487.149C486.573 487.149 399.829 678.038 413.549 722.06C427.268 766.083 606.084 946.024 612.497 941.03C618.902 936.097 637.468 926.032 634.703 916.907C629.263 898.914 525.469 749.473 487.818 712.104C487.818 712.104 574.344 538.138 551.71 509.406C529.083 480.614 486.573 487.149 486.573 487.149Z" fill="#C2C2C2"/>
<path d="M577.777 495.552C577.777 495.552 607.841 545.105 597.739 601.555C593.686 624.123 566.889 664.236 559.448 708.404C535.251 851.556 470.767 998.701 470.767 998.701L432.476 990.654C432.476 990.654 460.665 775.926 468.771 730.609C478.873 674.159 527.206 492.709 527.206 492.709C527.206 492.709 569.913 476.252 577.777 495.552Z" fill="#D4D4D4"/>
<path d="M577.775 495.561C577.775 495.561 531.802 509.295 485.042 490.842L484.437 472.449C484.437 472.449 508.392 479.649 528.777 478.439C549.163 477.229 576.687 473.659 576.687 473.659L577.775 495.561Z" fill="#8F99B6"/>
<path d="M567.129 470.086C567.129 470.086 574.872 500.035 567.734 503.665C560.535 507.235 556.301 505.662 556.301 505.662L556.362 472.506L567.129 470.086Z" fill="#D4D4D4"/>
<path d="M493.208 467.67C493.208 467.67 488.369 495.744 494.478 500.947C502.766 507.966 503.189 502.279 503.189 502.279L503.976 470.091L493.208 467.67Z" fill="#C2C2C2"/>
<path d="M543.174 472.522C543.174 476.091 541.964 498.296 541.964 498.296L516.195 498.901L513.775 473.127L543.174 472.522ZM520.368 491.701L537.73 489.644L538.334 474.518H519.159L520.368 491.701Z" fill="#EAEAEA"/>
<path d="M503.62 107.425C538.64 127.225 578.28 162.208 616.246 160.268C618.188 160.201 627.964 148.228 628.768 146.69C629.437 145.352 628.701 143.68 627.964 142.208C620.264 127.626 599.64 102.275 584.306 93.6461C568.973 85.0173 552.166 79.5323 535.426 74.5824C526.922 72.1075 518.284 69.6995 509.713 69.5657C501.209 69.4319 492.639 71.7731 487.884 77.5256" fill="url(#paint1_linear_15_1867)"/>
<path d="M401.534 556.774C403.545 550.788 405.413 544.919 407.093 538.854C407.287 532.239 407.476 525.592 408.282 519.015C409.189 511.619 411.649 499.236 421.398 499.999C422.59 500.079 424.09 500.722 424.296 502.105C425.149 507.183 425.193 512.83 423.963 518.058C424.099 518.969 424.225 519.818 424.285 520.644C424.757 524.879 425.037 529.11 426.346 533.188C429.92 544.317 437.135 557.827 434.354 569.775C434.02 571.174 432.154 571.067 431.717 569.847C429.31 563.331 427.678 556.667 425.119 550.205C424.786 552.889 424.27 555.633 423.612 558.494C421.181 569.362 421.048 578.956 422.264 589.89C422.397 590.995 421.064 591.258 420.382 590.749C418.772 589.576 417.551 588.023 416.619 586.267C416.054 585.901 415.547 585.495 415.04 585.088C415.493 585.985 415.914 586.886 416.335 587.787C417.138 589.53 415.333 591.117 413.78 589.903C404.36 582.569 397.574 568.513 401.534 556.774ZM408.382 568.893C408.387 568.925 408.396 568.987 408.401 569.019C408.35 565.043 408.888 560.947 409.468 557.133C409.502 556.935 409.536 556.738 409.571 556.54C408.309 560.487 407.395 564.414 408.382 568.893Z" fill="#FFBC9F"/>
<path d="M460.106 302.763C460.106 302.763 412.482 352.109 405.549 535.974L427.362 536.963C427.362 536.963 471.975 367.004 471.975 364.009C471.949 361.041 470.986 309.377 460.106 302.763Z" fill="#C748A3"/>
<circle cx="240.165" cy="315.18" r="8.12018" stroke="url(#paint2_linear_15_1867)" stroke-width="2"/>
<path d="M301.962 274.252C301.962 274.252 406.312 426.293 388.684 467.378C370.994 508.525 339.252 488.536 339.252 488.536L276.753 343.999C276.753 343.999 289.45 283.231 301.962 274.252Z" fill="#1C0037"/>
<path d="M301.948 274.946C301.948 274.946 196.08 254.762 95.583 272.25C95.583 272.25 118.053 467.008 126.016 508.693C126.016 508.693 205.401 528.814 274.169 507.314C274.169 507.314 303.244 312.556 301.948 274.946Z" fill="#1C0037"/>
<path d="M170.389 263.632C170.389 280.481 187.766 294.208 203.635 294.208C219.504 294.208 236.882 280.54 236.882 263.632V224.984C236.882 208.135 219.504 194.467 203.635 194.467C187.766 194.467 170.389 208.135 170.389 224.984V263.632Z" fill="#E38E78"/>
<path d="M196.747 319.014C196.747 321.535 198.781 323.565 201.308 323.565C203.835 323.565 205.869 321.535 205.869 319.014C205.869 316.492 203.835 314.462 201.308 314.462C198.781 314.462 196.747 316.492 196.747 319.014Z" fill="white"/>
<path d="M196.747 366.315C196.747 368.836 198.781 370.866 201.308 370.866C203.835 370.866 205.869 368.836 205.869 366.315C205.869 363.793 203.835 361.763 201.308 361.763C198.781 361.763 196.747 363.793 196.747 366.315Z" fill="white"/>
<path d="M197.056 460.786C197.056 463.307 199.09 465.337 201.617 465.337C204.144 465.337 206.178 463.307 206.178 460.786C206.178 458.264 204.144 456.234 201.617 456.234C199.151 456.296 197.056 458.264 197.056 460.786Z" fill="white"/>
<path d="M196.747 413.359C196.747 415.881 198.781 417.911 201.308 417.911C203.835 417.911 205.869 415.881 205.869 413.359C205.869 410.838 203.835 408.808 201.308 408.808C198.781 408.808 196.747 410.838 196.747 413.359Z" fill="white"/>
<path d="M276.136 177.148C276.321 202.242 249.509 222.601 231.696 232.072C213.884 241.606 198.351 238.469 198.351 238.469C127.655 222.416 132.586 188.834 128.641 161.034C126.73 147.318 124.881 121.794 130.921 90.2415C131.723 85.9362 133.079 82.0613 134.805 78.494C145.776 55.6756 171.663 46.8189 171.663 46.8189C187.134 41.4064 204.761 40.2378 220.848 43.19C244.024 47.4339 262.268 59.4274 268.123 83.1069C270.034 90.7336 271.082 98.6062 272.006 106.356C274.04 122.409 275.088 138.646 275.705 154.822C275.889 162.264 276.074 169.706 276.136 177.148Z" fill="#F5AE94"/>
<path d="M189.555 164.281C189.555 164.281 206.065 187.744 221.358 162.305L189.555 164.281Z" fill="#D8826C"/>
<path d="M223.006 98.7496C223.006 98.7496 255.057 92.2916 265.103 115.848C265.103 115.848 229.293 105.085 222.451 110.436L223.006 98.7496Z" fill="#683508"/>
<path d="M185.868 101.388C185.868 101.388 154.31 92.9617 142.784 115.842C142.784 115.842 179.211 107.354 185.683 113.074L185.868 101.388Z" fill="#683508"/>
<path d="M251.176 151.637C248.155 154.405 244.149 156.25 239.711 156.496C237.677 156.619 235.705 156.435 233.856 156.004C226.336 154.159 220.604 147.824 220.049 139.951C219.371 130.111 227.076 121.623 237.307 120.946C247.477 120.27 256.291 127.65 256.908 137.491C257.339 143.027 255.059 148.132 251.176 151.637Z" fill="white"/>
<path d="M252.84 145.306C252.655 147.582 252.101 149.734 251.176 151.641C248.156 154.409 244.149 156.254 239.712 156.5C237.678 156.623 235.705 156.438 233.856 156.008C231.021 153.117 229.418 148.504 229.85 143.522C230.466 135.404 236.137 129.192 242.547 129.684C244.766 129.868 246.738 130.852 248.402 132.328C249.327 133.189 250.19 134.235 250.806 135.465C252.347 138.171 253.148 141.616 252.84 145.306Z" fill="#5C8696"/>
<path d="M249.512 145.067C249.08 150.849 245.012 155.277 240.513 154.908C236.014 154.539 232.685 149.557 233.178 143.776C233.671 137.994 237.678 133.627 242.177 133.935C246.677 134.304 249.943 139.286 249.512 145.067Z" fill="#0D0D0C"/>
<path d="M250.806 135.217C250.682 136.755 248.71 137.924 246.368 137.739C244.026 137.555 242.238 136.14 242.361 134.541C242.485 132.942 244.457 131.835 246.799 132.019C249.141 132.204 250.929 133.618 250.806 135.217Z" fill="white"/>
<path d="M183.678 151.637C180.658 154.405 176.651 156.25 172.152 156.496C170.118 156.619 168.146 156.435 166.297 156.004C158.777 154.159 153.045 147.824 152.552 139.951C151.874 130.111 159.578 121.623 169.81 120.946C179.98 120.27 188.794 127.65 189.41 137.491C189.842 143.027 187.561 148.132 183.678 151.637Z" fill="white"/>
<path d="M185.342 145.306C185.157 147.582 184.602 149.734 183.678 151.641C180.657 154.409 176.651 156.254 172.152 156.5C170.118 156.623 168.145 156.438 166.296 156.008C163.523 153.117 161.858 148.504 162.29 143.522C162.906 135.404 168.577 129.192 174.987 129.684C177.206 129.868 179.178 130.852 180.842 132.328C181.767 133.189 182.63 134.235 183.246 135.465C184.849 138.171 185.65 141.616 185.342 145.306Z" fill="#5C8696"/>
<path d="M182.013 145.067C181.582 150.849 177.514 155.277 173.015 154.908C168.515 154.539 165.187 149.557 165.68 143.776C166.111 137.994 170.179 133.627 174.679 133.935C179.178 134.304 182.445 139.286 182.013 145.067Z" fill="#0D0D0C"/>
<path d="M183.308 135.217C183.184 136.755 181.212 137.924 178.87 137.739C176.528 137.555 174.74 136.14 174.863 134.541C174.987 132.942 176.959 131.835 179.301 132.019C181.643 132.204 183.431 133.618 183.308 135.217Z" fill="white"/>
<path d="M273.178 124.761C273.178 124.761 288.649 89.8265 301.407 117.319C311.577 139.215 294.627 160.681 280.944 159.143C267.261 157.667 273.178 124.761 273.178 124.761Z" fill="#F0A98F"/>
<path d="M274.163 130.166C274.163 130.166 285.627 107.778 291.544 115.836C297.523 123.893 297.461 134.902 297.461 134.902C297.461 134.902 293.208 123.216 284.887 130.904C284.887 130.904 296.043 149.171 277.429 145.358C277.429 145.358 269.355 140.253 274.163 130.166Z" fill="#D8826C"/>
<path d="M153.726 51.011C153.726 51.011 155.513 79.5494 143.618 93.3881C131.722 107.227 130.612 135.458 130.612 135.458C130.612 135.458 87.0356 79.9799 136.591 47.6897C136.529 47.6897 146.453 43.7534 153.726 51.011Z" fill="url(#paint3_linear_15_1867)"/>
<path d="M249.508 62.2096C249.508 62.2096 269.663 88.9644 273.916 127.467C273.916 127.467 302.33 85.274 275.211 49.7241C275.211 49.7241 245.502 37.177 249.508 62.2096Z" fill="url(#paint4_linear_15_1867)"/>
<path d="M131.535 130.044C131.535 130.044 116.065 95.1095 103.306 122.602C93.1362 144.498 110.086 165.963 123.769 164.426C137.391 162.95 131.535 130.044 131.535 130.044Z" fill="#F0A98F"/>
<path d="M130.55 135.457C130.55 135.457 119.085 113.069 113.107 121.127C107.128 129.184 107.189 140.193 107.189 140.193C107.189 140.193 111.442 128.507 119.763 136.195C119.763 136.195 108.669 154.462 127.221 150.649C127.283 150.649 135.357 145.544 130.55 135.457Z" fill="#D8826C"/>
<path d="M183.742 188.235C183.742 188.235 216.101 232.826 234.407 183.56C234.407 183.499 220.477 211.73 183.742 188.235Z" fill="#D5503B"/>
<path d="M311.193 35.5311C306.781 41.2754 299.34 46.8976 291.571 48.4253C298.023 42.131 304.147 33.5755 303.094 24.7145C303.028 24.3479 302.501 23.9812 302.106 24.1645C300.789 24.8368 299.735 25.8145 298.616 26.7312C292.756 31.6811 283.142 31.5589 276.097 29.1756C263.718 25.0812 253.578 17.0146 242.45 10.7814C230.334 3.99813 216.77 0.0259574 202.416 0.57595C194.712 0.881502 187.14 2.40926 179.896 4.85367C162.184 10.9036 141.048 22.5757 136.307 40.9088C135.648 43.4143 135.385 46.042 135.451 48.6087C135.451 50.2587 136.965 55.0864 136.241 56.3697C135.846 56.9808 136.702 57.7141 137.163 57.3475C137.426 57.3475 137.755 57.2252 137.887 56.9808C138.019 56.6752 138.085 56.4919 138.15 56.3086C146.513 50.0142 160.472 74.5806 165.542 78.4916C185.032 93.5859 212.951 95.7247 236.129 89.8582C262.138 83.2582 290.78 66.6362 305.727 46.4698C308.229 43.1699 310.6 39.8088 312.378 36.1422C312.707 35.47 311.653 34.92 311.193 35.5311Z" fill="url(#paint5_linear_15_1867)"/>
<path d="M105.158 1030.81L175.176 1022.94C171.848 1017.59 170.122 1002.46 169.321 990.649C168.15 974.227 168.581 954.361 168.581 954.361C168.581 954.361 122.354 943.106 122.354 954.361C122.354 965.617 119.704 978.471 116.499 990.649C111.506 1009.47 105.158 1030.81 105.158 1030.81Z" fill="#22272E"/>
<path d="M103.864 1035.67C103.864 1036.04 103.864 1034.87 103.925 1035.18C104.11 1039 105.096 1038.81 106.761 1044.47H180.231C181.957 1038.81 182.943 1039 183.066 1035.18C183.128 1034.81 183.128 1035.24 183.128 1034.87C183.128 1017.41 165.377 1003.63 143.496 1003.63C121.553 1003.63 103.864 1018.21 103.864 1035.67Z" fill="#22272E"/>
<path d="M169.26 993.787C168.088 976.873 168.52 954.362 168.52 954.362C168.52 954.362 122.293 943.107 122.293 954.362C122.293 965.618 119.643 976.873 116.438 993.787H169.26Z" fill="#617085"/>
<path d="M103.864 1036.05C104.049 1036.05 105.035 1041.71 106.699 1041.71H180.169C181.895 1041.71 182.881 1036.05 183.004 1036.05H103.864Z" fill="#515D6E" stroke="#515D6E" stroke-miterlimit="10"/>
<path d="M130.183 1009.42C135.669 1001.79 148.674 1004.5 154.838 1009.6C155.762 1010.4 154.714 1011.57 153.79 1011.45C149.968 1010.77 146.887 1008.8 142.88 1008.62C138.627 1008.44 135.361 1011.02 131.293 1011.33C130.368 1011.33 129.629 1010.16 130.183 1009.42Z" fill="#515D6E"/>
<path d="M132.463 1017.29C138.565 1013.11 150.522 1011.57 155.885 1017.78C156.624 1018.64 155.946 1020.06 154.714 1019.75C151.139 1018.77 147.009 1018.27 143.373 1018.27C139.613 1018.34 136.593 1020.98 132.833 1020.06C131.415 1019.75 131.415 1017.97 132.463 1017.29Z" fill="#515D6E"/>
<path d="M223.747 1034.9C224.179 1039.08 224.857 1042.58 225.781 1044.98C225.781 1044.98 337.404 1049.72 345.232 1046.27C346.464 1045.72 346.095 1044.55 344.615 1043.01C344.307 1041.78 343.814 1040.37 343.198 1038.77C339.315 1029.3 328.467 1014.48 298.45 1016.32C293.149 1013.68 288.773 1011.46 286.246 1010.11C282.425 1008.14 279.651 1002.91 277.617 996.517C273.179 982.617 272.378 963.12 273.118 959.06L225.781 959.675C225.781 959.675 224.117 977.081 223.316 996.517C222.761 1010.11 222.576 1024.62 223.747 1034.9Z" fill="#22272E"/>
<path d="M277.617 999.417C273.179 976.907 272.378 964.544 273.117 960.546L225.781 961.838C225.781 961.838 224.117 976.845 223.315 999.417H277.617Z" fill="#617085"/>
<path d="M223.747 1034.9C224.179 1039.08 224.857 1042.58 225.781 1044.98C225.781 1044.98 337.404 1049.72 345.232 1046.27C346.464 1045.72 346.095 1044.55 344.615 1043.01C344.307 1041.78 343.814 1040.37 343.198 1038.77C323.721 1038.89 253.702 1038.95 223.747 1034.9Z" fill="#515D6E" stroke="#515D6E" stroke-miterlimit="10"/>
<path d="M286.678 1018.9C288.465 1013.55 297.095 1011.4 302.025 1014.66C302.519 1014.97 302.58 1015.64 302.025 1015.95C299.93 1017.12 297.526 1016.44 295.184 1016.94C292.718 1017.43 291.794 1019.33 290.006 1020.63C288.527 1021.61 286.062 1020.75 286.678 1018.9Z" fill="#515D6E"/>
<path d="M270.406 1012.14C271.885 1008.57 276.2 1005.74 280.452 1005.31C283.473 1005 289.883 1006.11 289.02 1009.92C288.958 1010.23 288.588 1010.41 288.219 1010.41C286.246 1010.54 284.582 1009.31 282.61 1009.37C280.329 1009.43 278.049 1010.78 276.508 1012.14C275.028 1013.43 274.535 1015.03 272.255 1015.27C270.591 1015.46 269.974 1013.12 270.406 1012.14Z" fill="#515D6E"/>
<path d="M280.883 992.756H219.617L202.112 617.943C200.14 618.251 198.106 618.374 196.01 618.435L174.191 990.172H113.048C112.678 943.244 110.213 589.22 126.3 507.726L274.226 506.434C272.932 510.247 281.808 846.25 280.883 992.756Z" fill="#BCB9B9"/>
<path d="M142.017 529.081L123.29 528.343L123.983 517.261L126.238 507.677L143.25 507.554C142.757 514.751 142.264 521.885 142.017 529.081Z" fill="#663C00"/>
<path d="M158.721 507.419L234.163 506.743C233.917 514.738 233.67 522.734 233.485 530.73L157.365 529.377C158.906 522.549 158.782 514.8 158.721 507.419Z" fill="#663C00"/>
<path d="M252.53 506.558L274.226 506.373V531.406L250.435 530.975C252.53 523.656 252.777 514.799 252.53 506.558Z" fill="#663C00"/>
<path d="M215.477 497.681H175.46V525.385H215.477V497.681Z" fill="#9F7231"/>
<path d="M629.016 320.815C629.016 320.815 682.915 469.318 634.489 486.583C586.007 503.87 534.534 458.622 532.376 455.583C530.217 452.544 538.768 434.467 538.768 434.467C538.768 434.467 612.838 457.787 608.326 442.767C603.87 427.724 570.476 300.992 599.942 300.964C615.075 301.048 629.016 320.815 629.016 320.815Z" fill="#C748A3"/>
<path d="M349.992 472.552C346.496 485.959 334.23 495.861 322.544 494.719L218.678 484.533C206.992 483.391 196.829 471.368 195.961 457.642L190.84 374.494C189.978 360.711 201.469 350.722 216.502 352.125L350.074 364.563C365.108 365.967 374.49 377.958 370.987 391.422L349.992 472.552Z" fill="#EDE9EB"/>
<path d="M290.81 425.237C290.115 432.488 283.376 437.743 275.743 437C268.111 436.256 262.515 429.729 263.203 422.534C263.898 415.283 270.637 410.028 278.27 410.771C285.842 411.508 291.445 417.978 290.81 425.237Z" fill="#FFFFFE"/>
<path d="M362.78 444.322C360.965 441.75 358.212 439.53 354.288 437.952C350.658 436.491 346.441 435.965 343.162 438.478C334.904 444.906 346.265 445.958 350.716 448.237C344.216 446.425 328.814 447.769 326.647 455.308C324.07 464.366 337.364 471.963 343.103 475.644C318.507 476.053 337.715 494.637 350.13 483.534C359.735 474.826 370.627 455.717 362.78 444.322Z" fill="#F5AE94"/>
<path d="M257.034 446.719C252.535 430.052 236.263 435.341 220.916 437.186C224.367 429.129 238.79 426.3 246.926 426.792C244.707 412.953 217.772 421.441 210.684 424.947C194.782 432.819 186.892 440.507 169.573 440.323C169.573 440.323 150.466 435.526 126.304 430.052L133.947 472.49C157.985 472.675 175.366 472.367 175.366 472.367L175.305 471.937C185.968 473.72 196.199 472.06 203.719 472.183C211.547 472.244 219.683 471.383 227.449 471.137C232.935 470.952 239.715 473.044 244.769 471.814C243.104 460.989 227.819 462.219 220.607 460.435C232.688 458.59 258.144 456.683 257.034 446.719Z" fill="#F5AE94"/>
<path d="M95.9134 272.223C95.9134 272.223 1.17878 382.809 0.00769639 427.462C-1.16339 472.115 131.614 489.557 190.476 474.303L188.398 434.13C188.398 434.13 74.2175 412.147 74.2175 406.304C74.2175 400.4 116.623 352.241 114.281 334.589C111.877 316.937 95.9134 272.223 95.9134 272.223Z" fill="#1C0037"/>
<path d="M494.094 381.306C494.094 381.306 517.606 457.495 510.371 461.12C503.137 464.745 466.898 464.745 466.898 464.745C466.898 464.745 441.578 383.118 447.003 381.306C452.496 379.494 492.352 377.681 494.094 381.306Z" fill="#EAEAEA"/>
<path d="M546.426 437.128C546.426 437.128 537.174 435.663 533.486 431.193C529.798 426.722 527.566 424.807 514.945 420C502.39 415.189 497.182 408.234 497.182 408.234C497.182 408.234 488.931 417.072 508.206 425.208C520.03 430.186 482.024 431.964 470.53 431.339C470.53 431.339 464.08 435.527 475.226 440.334C486.372 445.14 475.893 446.217 497.918 454.364C519.94 462.443 545.836 465.712 550.503 451.727C555.171 437.742 546.426 437.128 546.426 437.128Z" fill="#FFBC9F"/>
<path d="M548.518 467.862L562.051 440.797L539.497 435.384C541.301 448.917 528.935 460.909 529.573 461.547C532.279 464.254 541.602 465.156 548.518 467.862Z" fill="#C748A3"/>
<defs>
<linearGradient id="paint0_linear_15_1867" x1="705.495" y1="472.375" x2="431.236" y2="90.7577" gradientUnits="userSpaceOnUse">
<stop stop-color="#310758"/>
<stop offset="1" stop-color="#451076"/>
</linearGradient>
<linearGradient id="paint1_linear_15_1867" x1="636.028" y1="161.127" x2="499.801" y2="85.3447" gradientUnits="userSpaceOnUse">
<stop stop-color="#3E0D6C"/>
<stop offset="1" stop-color="#430F74"/>
</linearGradient>
<linearGradient id="paint2_linear_15_1867" x1="249.285" y1="309.1" x2="235.605" y2="324.3" gradientUnits="userSpaceOnUse">
<stop stop-color="#856DFB"/>
<stop offset="1" stop-color="#5795FF"/>
</linearGradient>
<linearGradient id="paint3_linear_15_1867" x1="132.985" y1="65.6338" x2="153.764" y2="81.5645" gradientUnits="userSpaceOnUse">
<stop stop-color="#DA7217"/>
<stop offset="1" stop-color="#F28729"/>
</linearGradient>
<linearGradient id="paint4_linear_15_1867" x1="267.357" y1="86.4172" x2="295.063" y2="46.2441" gradientUnits="userSpaceOnUse">
<stop stop-color="#D87015"/>
<stop offset="1" stop-color="#EF8426"/>
</linearGradient>
<linearGradient id="paint5_linear_15_1867" x1="145.347" y1="55.5809" x2="311.999" y2="28.624" gradientUnits="userSpaceOnUse">
<stop stop-color="#D76F14"/>
<stop offset="1" stop-color="#F58A2B"/>
</linearGradient>
</defs>
</svg>
