<svg width="51" height="52" viewBox="0 0 51 52" fill="none" xmlns="http://www.w3.org/2000/svg">
<path d="M0.399902 38.2301V14.1201C0.399902 6.84013 6.34991 0.890137 13.6299 0.890137H37.7399C45.0099 0.890137 50.9699 6.84013 50.9699 14.1201V38.2301C50.9699 45.5001 45.0199 51.4601 37.7399 51.4601H13.6299C6.34991 51.4601 0.399902 45.5101 0.399902 38.2301Z" fill="url(#paint0_linear_8_2044)"/>
<path d="M35.4199 36.2802C35.1399 36.7702 34.6199 37.0402 34.0999 37.0402C33.8399 37.0402 33.5699 36.9702 33.3299 36.8302C29.3099 34.4802 24.6599 34.1002 21.4599 34.2002C17.9199 34.3102 15.3299 35.0102 15.3099 35.0102C14.4899 35.2302 13.6499 34.7502 13.4299 33.9402C13.2099 33.1302 13.6799 32.2802 14.4999 32.0602C14.6199 32.0302 17.4099 31.2702 21.2899 31.1402C23.5799 31.0602 25.7799 31.2202 27.8299 31.6102C30.4299 32.1002 32.7999 32.9702 34.8799 34.1802C35.6099 34.6102 35.8499 35.5502 35.4199 36.2802Z" fill="white"/>
<path d="M38.2699 30.37C37.9299 30.95 37.3299 31.27 36.6999 31.27C36.3899 31.27 36.0699 31.19 35.7899 31.02C31.0199 28.23 25.5199 27.79 21.7399 27.9C17.5499 28.03 14.4799 28.85 14.4499 28.86C13.4799 29.12 12.4899 28.56 12.2199 27.59C11.9599 26.62 12.5199 25.63 13.4899 25.36C13.6299 25.32 16.9299 24.42 21.5299 24.27C24.2399 24.18 26.8399 24.37 29.2799 24.83C32.3599 25.41 35.1699 26.44 37.6299 27.88C38.4899 28.39 38.7799 29.5 38.2699 30.37Z" fill="white"/>
<path d="M40.0199 24.99C39.6399 24.99 39.2499 24.89 38.8999 24.69C27.5699 18.07 12.8699 22 12.7199 22.05C11.5299 22.38 10.3099 21.68 9.97991 20.5C9.64991 19.32 10.3499 18.09 11.5299 17.76C11.6999 17.71 15.7499 16.61 21.3899 16.43C24.7099 16.32 27.9099 16.55 30.8899 17.12C34.6699 17.84 38.1099 19.09 41.1299 20.86C42.1899 21.48 42.5499 22.84 41.9299 23.9C41.5299 24.6 40.7899 24.99 40.0199 24.99Z" fill="white"/>
<defs>
<linearGradient id="paint0_linear_8_2044" x1="25.6791" y1="0.892217" x2="25.6791" y2="51.4589" gradientUnits="userSpaceOnUse">
<stop stop-color="#009D47"/>
<stop offset="1" stop-color="#00954C"/>
</linearGradient>
</defs>
</svg>
