<svg width="51" height="51" viewBox="0 0 51 51" fill="none" xmlns="http://www.w3.org/2000/svg">
<path d="M0.399902 37.7301V13.6201C0.399902 6.34014 6.34991 0.390137 13.6299 0.390137H37.7399C45.0099 0.390137 50.9699 6.34014 50.9699 13.6201V37.7301C50.9699 45.0001 45.0199 50.9601 37.7399 50.9601H13.6299C6.34991 50.9601 0.399902 45.0101 0.399902 37.7301Z" fill="url(#paint0_linear_8_2039)"/>
<path d="M27.0899 30.2202C27.0899 30.9902 26.9399 31.6702 26.6299 32.2502C26.3199 32.8302 25.8999 33.3202 25.3599 33.7102C24.8199 34.1002 24.1999 34.4002 23.4899 34.6102C22.7799 34.8202 22.0199 34.9202 21.2199 34.9202H12.4199V16.7002H22.1699C22.7999 16.7002 23.3799 16.8402 23.8899 17.1102C24.3999 17.3802 24.8399 17.7402 25.1999 18.1702C25.5599 18.6102 25.8399 19.1002 26.0299 19.6602C26.2299 20.2202 26.3199 20.7802 26.3199 21.3402C26.3199 22.2302 26.0999 23.0602 25.6499 23.8402C25.1999 24.6202 24.5499 25.2002 23.6999 25.5702C24.7399 25.8802 25.5699 26.4302 26.1799 27.2302C26.7799 28.0202 27.0899 29.0202 27.0899 30.2202ZM15.9499 19.7202V24.3102H20.6699C21.2699 24.3102 21.7799 24.1002 22.1999 23.6902C22.6199 23.2802 22.8299 22.7202 22.8299 22.0002C22.8299 21.3002 22.6399 20.7402 22.2499 20.3302C21.8699 19.9202 21.3899 19.7102 20.8299 19.7102H15.9499V19.7202ZM23.5199 29.5502C23.5199 29.2302 23.4599 28.9102 23.3499 28.6102C23.2399 28.3102 23.0899 28.0502 22.8999 27.8302C22.7099 27.6102 22.4899 27.4302 22.2299 27.3002C21.9699 27.1702 21.6899 27.1102 21.3799 27.1102H15.9399V31.9102H21.1999C21.5199 31.9102 21.8299 31.8502 22.1099 31.7302C22.3899 31.6102 22.6399 31.4402 22.8399 31.2302C23.0499 31.0202 23.2099 30.7602 23.3299 30.4702C23.4599 30.1802 23.5199 29.8802 23.5199 29.5502Z" fill="white"/>
<path d="M34.7599 34.9102C33.7199 34.9102 32.7699 34.7302 31.9299 34.3802C30.2599 33.6702 29.0699 32.4702 28.3899 30.7902C28.0699 29.9802 27.9099 29.1202 27.9099 28.2302C27.9099 27.3002 28.0699 26.4302 28.3799 25.6102C29.0499 23.9102 30.2399 22.6902 31.9199 21.9702C32.7699 21.6102 33.7299 21.4202 34.7899 21.4202C35.8499 21.4202 36.7999 21.6002 37.6399 21.9702C40.3899 23.1702 41.6899 25.8402 41.5699 28.7302C41.5599 28.9302 41.5399 29.0902 41.5099 29.2302H31.4399C31.4899 29.7402 31.6099 30.2002 31.8099 30.6002C32.0099 31.0002 32.2699 31.3402 32.5799 31.6202C32.8899 31.9002 33.2499 32.1202 33.6499 32.2702C34.0499 32.4202 34.4599 32.4902 34.8899 32.4902C35.5499 32.4902 36.1799 32.3302 36.7699 32.0002C37.3599 31.6802 37.7599 31.2502 37.9799 30.7202L40.8399 31.5202C40.3599 32.5102 39.5899 33.3302 38.5399 33.9702C37.4699 34.5902 36.2199 34.9102 34.7599 34.9102ZM38.1399 27.0602C38.0599 26.0802 37.6999 25.3002 37.0599 24.7102C36.4199 24.1202 35.6499 23.8302 34.7399 23.8302C34.2899 23.8302 33.8699 23.9102 33.4799 24.0702C33.0899 24.2302 32.7499 24.4502 32.4499 24.7302C32.1499 25.0102 31.9099 25.3502 31.7199 25.7502C31.5299 26.1502 31.4199 26.5902 31.3799 27.0702L38.1399 27.0602Z" fill="white"/>
<path d="M30.3699 17.5601H39.0899V19.7201H30.3699V17.5601Z" fill="white"/>
<defs>
<linearGradient id="paint0_linear_8_2039" x1="47.0766" y1="4.27794" x2="4.2812" y2="47.0733" gradientUnits="userSpaceOnUse">
<stop stop-color="#0A69B3"/>
<stop offset="0.725" stop-color="#2B4093"/>
<stop offset="1" stop-color="#2D3189"/>
</linearGradient>
</defs>
</svg>
