<svg width="829" height="1193" viewBox="0 0 829 1193" fill="none" xmlns="http://www.w3.org/2000/svg">
<path d="M462.531 615.971C417.691 640.55 357.558 644.05 316.37 613.361C303.448 603.755 292.325 589.867 291.893 574.134C291.385 555.185 306.224 537.956 303.992 519.097C302.065 502.423 287.557 490.151 277.467 476.493C262.829 456.724 256.47 431.321 260.231 407.332C263.991 383.342 277.678 361.093 297.639 346.716C314.558 334.506 335.142 328.129 353.856 318.617C368.633 311.062 382.525 300.452 391.184 286.331C399.741 272.407 395.936 262.85 397.277 248.102C400.2 216.578 413.439 182.866 439.506 163.09C473.257 137.375 516.428 144.512 553.461 158.183C572.221 165.056 592.67 174.396 608.078 187.304C614.646 192.801 618.628 198.896 622.492 206.683C623.751 209.155 629.252 232.717 628.914 232.594C683.61 254.251 641.111 328.041 652.979 366.753C656.736 378.938 664.999 389.181 671.981 399.868C684.198 418.695 692.698 440.369 692.96 462.769C693.222 485.17 684.619 508.201 667.379 522.498C664.594 524.847 661.402 527.062 659.962 530.401C657.767 535.404 659.889 541.071 661.289 546.343C669.625 577.889 649.598 609.845 626.95 633.351C611.757 649.173 594.475 663.749 573.81 671.11C540.843 682.917 502.799 674.432 473.73 654.865" fill="url(#paint0_linear_15_2397)"/>
<g opacity="0.26">
<path opacity="0.42" d="M577.924 235.569C594.685 228.604 612.654 241.978 619.401 261.174C626.092 280.362 635.925 298.039 630.455 318.774C627.735 329.038 624.259 339.398 624.337 350.021C624.444 377.524 634.692 399.182 645.251 422.525C654.195 442.273 654.316 466.717 653.817 489.997C653.503 503.906 652.642 519.155 645.037 530.02C635.391 543.776 624.022 561.682 613.893 574.865C597.225 596.442 601.32 620.642 582.337 639.086C576.714 644.488 569.645 646.677 562.784 648.256C548.905 651.321 534.902 652.229 521.052 651.025C509.23 649.99 497.497 647.26 487.2 640.763C461.942 624.702 449.669 583.933 460.008 549.348C467.861 523.14 486.054 503.15 497.046 478.421C504.908 460.688 508.857 440.573 508.388 420.99C507.743 396.251 500.331 370.615 508.805 347.422" fill="#831720"/>
</g>
<path d="M378.729 1060.02C395.742 1083.32 354.662 1092.61 354.662 1092.61C347.743 1094.35 338.369 1093.72 323.401 1102.5C299.449 1116.58 270.959 1121.86 276.215 1101.44C279.804 1087.58 285.351 1076.91 297.54 1065.31C314.518 1049.18 335.547 1044.04 335.547 1044.04C335.547 1044.04 354.174 1026.28 378.729 1060.02Z" fill="#5F5449"/>
<path d="M355.979 1077.09C357.305 1069.56 362.652 1062.26 369.509 1058.47C369.988 1058.6 370.484 1058.65 370.963 1058.77C374.211 1059.45 394.592 1063.75 419.594 1072.5L416.526 1118.14C399.161 1107.98 383.98 1099.25 375.052 1093.13C368.73 1090.8 362.267 1089.3 355.475 1089.11C355.404 1085.09 355.281 1080.98 355.979 1077.09Z" fill="#F0A98F"/>
<path d="M336.438 1073.22C340.665 1072.91 342.909 1077.26 343.904 1081.37C353.111 1080.94 360.871 1088.22 366.58 1094.69C371.643 1100.27 377.737 1109.24 374.049 1116.88C371.033 1123.03 361.928 1118.76 358.378 1116.11C356.416 1114.66 354.762 1112.86 353.28 1110.96C353.528 1113.42 353.622 1115.92 353.494 1118.43C353.24 1122.59 352.079 1131.75 346.295 1131.89C339.639 1132.01 338.778 1123.65 338.811 1118.93C338.839 1111.08 340.064 1103.09 341.05 1095.19C339.71 1096.75 338.012 1097.99 336.006 1099.01C334.515 1099.72 332.742 1097.82 334.132 1096.64C337.101 1094.12 338.656 1089.71 338.738 1085.95C338.804 1081.67 335.287 1079.47 334.65 1075.67C334.552 1074.34 335.171 1073.33 336.438 1073.22ZM353.016 1103.4C354.494 1106.46 356.503 1109.16 358.702 1111.68C359.845 1112.62 360.971 1113.64 362.045 1114.57C366.926 1118.28 369.69 1115.7 370.456 1106.95C368.181 1101.86 364.415 1097.49 360.407 1093.78C359.571 1093.06 351.375 1088.07 346.762 1086.17C346.762 1086.17 346.744 1086.24 346.727 1086.3C346.829 1086.48 346.931 1086.65 347.033 1086.82C348.371 1090.72 349.727 1094.56 350.843 1098.48C351.521 1100.11 352.2 1101.74 353.016 1103.4ZM343.676 1122.42C343.897 1127.57 347.649 1126.26 348.757 1122.47C349.553 1119.91 349.751 1117.12 349.778 1114.43C349.796 1109.2 348.565 1104.01 347.077 1098.98C346.856 1098.41 346.585 1097.76 346.364 1097.2C345.326 1105.59 343.277 1113.95 343.676 1122.42Z" fill="#0F3C4A"/>
<path d="M323.027 1077.31C328.866 1076.1 332.279 1083.58 332.964 1088.34C333.783 1094 329.811 1099.62 325.744 1103.02C324.92 1103.69 323.69 1103.08 323.899 1101.97C324.683 1098.02 326.287 1094.28 326.507 1090.27C326.728 1085.67 321.483 1083.39 321.703 1079.08C321.757 1078.29 322.188 1077.46 323.027 1077.31Z" fill="#032733"/>
<path d="M312.479 1083.59C312.636 1082.68 313.648 1082.14 314.537 1082.36C319.323 1083.58 320.188 1090.78 320.533 1094.87C320.993 1100.52 319.246 1105.68 315.365 1109.78C314.163 1111.08 312.098 1109.46 312.925 1107.93C315.026 1103.95 315.589 1099.44 315.263 1094.99C314.951 1091.05 311.867 1087.43 312.479 1083.59Z" fill="#0F3C4A"/>
<path d="M398.894 1061.73C398.894 1061.73 381.309 1100.04 385.686 1110.61C390.081 1121.11 538.509 1176.39 553.998 1160.39C569.487 1144.38 588.806 1134.23 587.4 1041.4C586.012 948.5 554.049 682.979 554.049 682.979L487.849 692.879C487.849 692.879 422.566 724.692 466.971 861.465C466.971 861.465 489.892 1030.69 512.581 1089.56C512.598 1089.49 431.902 1061.01 398.894 1061.73Z" fill="#D3BBCE"/>
<path d="M287.354 1038.64C304.367 1061.95 263.287 1071.24 263.287 1071.24C256.368 1072.98 246.994 1072.34 232.026 1081.13C208.074 1095.21 179.584 1100.49 184.839 1080.07C188.429 1066.21 193.976 1055.54 206.165 1043.94C223.125 1027.87 244.172 1022.66 244.172 1022.66C244.172 1022.66 262.799 1004.91 287.354 1038.64Z" fill="#5F5449"/>
<path d="M264.604 1055.71C265.93 1048.19 271.277 1040.89 278.134 1037.1C278.613 1037.22 279.109 1037.28 279.588 1037.4C282.836 1038.08 303.217 1042.38 328.219 1051.12L325.169 1096.69C307.786 1086.61 292.622 1077.81 283.695 1071.69C277.372 1069.36 270.91 1067.86 264.118 1067.67C264.029 1063.72 263.889 1059.68 264.604 1055.71Z" fill="#F0A98F"/>
<path d="M245.062 1051.84C249.289 1051.53 251.601 1055.9 252.528 1060C261.734 1059.57 269.426 1066.83 275.272 1073.33C280.266 1078.89 286.429 1087.88 282.741 1095.53C279.725 1101.68 270.62 1097.4 267.07 1094.75C265.176 1093.33 263.454 1091.51 261.99 1089.53C262.238 1092 262.332 1094.5 262.203 1097.01C261.949 1101.17 260.856 1110.35 255.004 1110.46C248.416 1110.61 247.487 1102.22 247.521 1097.5C247.548 1089.65 248.774 1081.67 249.759 1073.77C248.419 1075.32 246.721 1076.57 244.716 1077.58C243.224 1078.3 241.452 1076.39 242.842 1075.22C245.81 1072.7 247.366 1068.29 247.447 1064.53C247.513 1060.25 243.996 1058.05 243.342 1054.32C243.176 1052.97 243.795 1051.96 245.062 1051.84ZM261.639 1082.02C263.117 1085.09 265.127 1087.78 267.325 1090.31C268.468 1091.25 269.594 1092.27 270.669 1093.19C275.55 1096.91 278.313 1094.33 279.079 1085.58C276.804 1080.49 273.021 1076.18 269.03 1072.41C268.194 1071.68 259.999 1066.69 255.385 1064.8C255.385 1064.8 255.368 1064.86 255.419 1064.95C255.521 1065.12 255.623 1065.29 255.725 1065.46C257.063 1069.37 258.419 1073.2 259.535 1077.13C260.145 1078.74 260.824 1080.36 261.639 1082.02ZM252.299 1101.04C252.521 1106.19 256.273 1104.89 257.381 1101.1C258.177 1098.53 258.443 1095.76 258.401 1093.06C258.419 1087.83 257.188 1082.64 255.632 1077.59C255.411 1077.02 255.208 1076.39 254.919 1075.81C254.017 1084.24 251.901 1092.58 252.299 1101.04Z" fill="#0F3C4A"/>
<path d="M231.717 1055.95C237.556 1054.74 240.969 1062.23 241.654 1066.99C242.473 1072.65 238.501 1078.27 234.434 1081.67C233.593 1082.4 232.381 1081.73 232.59 1080.62C233.373 1076.67 235.046 1072.95 235.197 1068.92C235.418 1064.32 230.173 1062.04 230.394 1057.73C230.379 1056.92 230.878 1056.11 231.717 1055.95Z" fill="#0F3C4A"/>
<path d="M221.101 1062.22C221.258 1061.31 222.27 1060.77 223.159 1061C227.945 1062.21 228.81 1069.42 229.155 1073.5C229.615 1079.15 227.851 1084.38 223.987 1088.42C222.785 1089.71 220.72 1088.1 221.547 1086.56C223.648 1082.58 224.212 1078.07 223.885 1073.62C223.573 1069.69 220.489 1066.07 221.101 1062.22Z" fill="#0F3C4A"/>
<path d="M298.243 1030.14C298.243 1030.14 273.912 1064.64 276.32 1075.8C278.728 1086.96 414.66 1168.24 432.791 1155.31C450.921 1142.37 471.767 1135.95 487.296 1044.37C502.825 952.779 528.244 689.163 528.244 689.163L452.789 683.618C452.789 683.618 382.81 702.962 401.58 845.524C401.58 845.524 393.373 1016.09 404.93 1078.1C404.998 1078.12 330.87 1035.51 298.243 1030.14Z" fill="#DDCAD9"/>
<path d="M359.795 94.2056C359.795 94.2056 293.515 165.501 285.272 160.056C277.029 154.611 254.949 116.271 254.949 116.271C254.949 116.271 325.88 39.7495 331.103 44.3855C336.367 49.0924 362.568 90.1544 359.795 94.2056Z" fill="#84A0FE"/>
<path d="M333.394 165.725C333.394 165.725 330.288 156.371 332.683 150.762C335.077 145.154 335.788 142.142 334.177 128.022C332.601 113.964 336.582 105.733 336.582 105.733C336.582 105.733 324.333 102.296 326.05 124.243C327.117 137.701 307.076 103.043 302.101 91.9993C302.101 91.9993 295.069 87.997 295.967 100.738C296.865 113.478 290.792 104.206 293.829 128.728C296.928 153.216 306.395 178.996 321.722 176.595C337.048 174.194 333.394 165.725 333.394 165.725Z" fill="#FFBC9F"/>
<path d="M439.904 530.762C439.904 530.762 335.203 448.021 309.634 420.287C277.536 385.585 291.202 249.145 300.859 178.404C301.631 172.78 302.385 167.515 303.069 162.813C313.073 164.407 323.147 165.436 333.225 165.592C333.98 169.786 334.63 174.68 335.433 180.122C343.966 245.439 351.196 390.457 351.129 395.023C376.929 410.375 423.121 431.702 431.174 448.151C438.293 462.545 447.205 483.068 447.942 497.37C449.05 518.241 439.904 530.762 439.904 530.762Z" fill="#E4D9FF"/>
<path d="M689.673 138.858C690.262 141.7 691.33 144.372 692.536 147.079C693.062 148.158 694.776 147.429 694.472 146.333C693.728 143.816 692.814 140.82 691.489 138.01C690.799 134.706 690.845 131.371 692.6 128.47C694.993 124.493 699.283 120.78 703.448 118.709C705.453 117.69 711.859 115.969 715.621 116.633C716.957 116.244 718.344 115.942 719.747 115.861C722.998 115.668 726.863 116.503 729.456 118.616C730.292 119.338 730.956 120.161 731.381 121.069C734.322 121.525 737.053 123.382 738.563 127.185C741.21 133.677 740.672 140.67 740.032 147.493C738.699 161.923 732.151 175.104 731.04 189.518C730.886 189.552 730.8 189.603 730.697 189.722C728.24 192.809 723.208 193.133 719.53 192.999C714.569 192.759 710.705 191.924 708.806 186.786C706.502 180.38 699.481 177.07 694.412 173.238C686.528 167.308 684.087 160.868 683.727 151.1C683.446 143.317 682.855 136.182 679.132 129.344C684.229 129.619 687.551 134.027 689.673 138.858Z" fill="#FFBC9F"/>
<path d="M584.471 544.761C584.471 544.761 692.112 465.93 718.691 439.209C752.07 405.773 743.375 268.823 736.299 197.764C735.771 192.101 735.207 186.865 734.676 182.074C724.611 183.303 714.548 183.95 704.471 183.793C703.567 187.929 702.677 192.869 701.751 198.236C690.797 263.191 678.249 407.845 678.182 412.412C651.816 426.819 604.917 446.419 596.238 462.551C588.574 476.685 578.94 496.866 577.641 511.161C575.721 531.918 584.471 544.761 584.471 544.761Z" fill="#E4D9FF"/>
<path d="M457.746 669.53C456.202 660.989 427.863 445.426 427.863 445.426C427.863 445.426 543.465 419.544 613.741 457.824L552.406 677.694L457.746 669.53Z" fill="#E4D9FF"/>
<path d="M469.282 544.931C469.282 544.931 553.894 559.421 578.64 543.365C578.622 543.434 544.489 611.964 469.282 544.931Z" fill="#DBCEFB"/>
<path d="M497.012 443.976C492.654 462.005 517.025 465.207 517.025 465.207C527.837 465.914 544.903 463.77 545.608 452.963L544.92 385.126C545.625 374.319 537.427 365.035 526.701 364.278C515.89 363.571 506.554 371.678 505.849 382.485L497.012 443.976Z" fill="#E99884"/>
<path d="M452.857 683.641C452.857 683.641 501.15 706.156 556.991 688.317L559.817 662.842C559.817 662.842 534.878 670.481 511.259 667.47C487.64 664.458 455.906 658.15 455.906 658.15L452.857 683.641Z" fill="#8F99B6"/>
<path d="M467.244 654.777C467.244 654.777 455.866 688.995 463.977 693.746C472.088 698.496 477.124 697.009 477.124 697.009L479.636 658.432L467.244 654.777Z" fill="#D7C2D2"/>
<path d="M553.47 657.738C553.47 657.738 556.966 690.71 549.417 696.361C539.279 703.901 539.148 697.247 539.148 697.247L540.733 659.744L553.47 657.738Z" fill="#D7C2D2"/>
<path d="M529.074 662.375L524.283 692.153L494.4 689.443C494.4 689.443 494.713 663.549 494.967 659.393L529.074 662.375ZM522.398 668.32L500.074 666.801L499.675 683.288L519.839 685.859L522.398 668.32Z" fill="#EAEAEA"/>
<path d="M496.493 233.236C512.754 221.648 528.115 208.158 538.202 190.783C538.441 190.989 538.594 191.246 538.747 191.503C550.399 206.101 565.177 217.564 580.316 228.464C589.55 235.1 599.536 241.636 610.233 245.951C614.363 258.64 617.172 272.522 618.885 286.998C626.585 350.722 602.49 400.919 554.096 407.771C502.517 415.125 451.178 383.106 443.477 319.382C441.315 301.518 440.694 283.317 442.413 266.219C460.689 255.579 479.34 245.471 496.493 233.236Z" fill="#F0A98F"/>
<path d="M442.32 308.16C442.32 308.16 414.209 278.108 410.982 310.611C408.429 336.446 433.286 352.358 446.637 345.925C459.971 339.56 442.32 308.16 442.32 308.16Z" fill="#F0A98F"/>
<path d="M443.312 314.007C443.312 314.007 423.683 295.274 420.482 305.593C417.28 315.912 421.279 327.113 421.279 327.113C421.279 327.113 421.463 313.772 432.619 318.568C432.619 318.568 427.784 341.059 445.341 330.673C445.341 330.673 451.683 322.606 443.312 314.007Z" fill="#D8826C"/>
<path d="M451.62 344.936C452.119 348.991 449.455 352.608 445.706 353.039C441.957 353.469 438.545 350.566 438.029 346.579C437.529 342.524 440.194 338.907 443.943 338.477C447.709 337.977 451.121 340.88 451.62 344.936Z" fill="white"/>
<path d="M533.361 325.028C533.361 325.028 546.646 342.369 556.282 321.896L533.361 325.028Z" fill="#D8826C"/>
<path d="M460.186 280.219C460.186 280.219 477.282 254.728 500.781 257.927C506.202 258.649 507.923 260.759 513.556 269.537C513.488 269.519 485.794 262.2 460.186 280.219Z" fill="#99360A"/>
<path d="M604.263 262.88C604.263 262.88 585.019 241.771 566.922 249.983C562.723 251.901 561.757 254.274 559.208 264.032C559.208 264.032 579.803 250.852 604.263 262.88Z" fill="#99360A"/>
<path d="M516.297 302.61C516.297 302.61 516.365 288.004 501.396 282.458C478.515 273.959 469.831 301.003 463.398 305.991C463.398 305.991 468.431 309.96 471.552 307.988C471.621 308.005 490.431 266.871 516.297 302.61Z" fill="#302725"/>
<path d="M556.517 294.992C556.517 294.992 553.156 282.425 566.496 274.316C586.763 261.853 601.353 283.235 608.717 286.05C608.717 286.05 604.732 290.568 601.194 289.597C601.194 289.597 573.737 258.401 556.517 294.992Z" fill="#302725"/>
<path d="M574.88 339.821C574.672 340.641 571.103 353.268 564.122 363.282C555.679 375.327 542.184 383.47 523.609 362.022C519.655 357.526 515.534 351.678 511.146 344.308C511.146 344.308 516.923 345.919 525.097 347.266C538.043 349.315 557.049 350.137 569.408 343.889C571.581 343.64 573.232 341.44 574.88 339.821Z" fill="#712311"/>
<path d="M564.122 363.279C555.679 375.324 542.185 383.467 523.609 362.019C531.799 358.713 551.274 352.816 564.122 363.279Z" fill="#D5503B"/>
<path d="M569.429 343.813C551.614 369.267 535.155 358.978 525.118 347.191C538.046 349.308 557.137 350.661 569.429 343.813Z" fill="white"/>
<path d="M361.064 93.4797C361.064 93.4797 329.906 134.292 323.856 127.584C317.806 120.877 306.69 86.4787 306.69 86.4787C306.69 86.4787 328.245 38.3923 332.372 43.6596C336.54 48.9979 361.645 90.6913 361.064 93.4797Z" fill="#84A0FE"/>
<path d="M628.323 239.272C608.591 246.231 585.683 243.668 567.78 232.517C549.877 221.367 537.416 201.812 534.891 180.889C534.151 175.083 534.878 167.981 539.991 165.242C541.763 164.277 543.867 164.066 545.91 164C558.377 163.522 570.679 167.992 581.102 174.986C591.525 181.979 600.059 191.356 607.712 201.286C613.205 208.467 618.228 216.033 621.542 224.417C623.589 229.712 624.948 235.265 625.534 240.869" fill="url(#paint1_linear_15_2397)"/>
<path d="M541.755 193.736C534.12 207.861 464.939 279.123 424.943 279.744C431.427 289.194 412.907 261.408 411.955 259.849C411.159 258.491 411.815 256.684 412.485 255.088C419.549 239.239 439.426 211.179 454.921 201.046C470.416 190.913 487.677 183.977 504.906 177.608C513.661 174.415 522.561 171.282 531.55 170.541C540.469 169.805 549.631 171.663 555.025 177.37" fill="url(#paint2_linear_15_2397)"/>
<defs>
<linearGradient id="paint0_linear_15_2397" x1="317.264" y1="602.566" x2="628.551" y2="191.75" gradientUnits="userSpaceOnUse">
<stop stop-color="#F05C68"/>
<stop offset="1" stop-color="#FE6F7B"/>
</linearGradient>
<linearGradient id="paint1_linear_15_2397" x1="626.865" y1="245.206" x2="542.717" y2="166.652" gradientUnits="userSpaceOnUse">
<stop stop-color="#FD6D79"/>
<stop offset="1" stop-color="#FD6E7A"/>
</linearGradient>
<linearGradient id="paint2_linear_15_2397" x1="416.758" y1="269.195" x2="544.102" y2="168.819" gradientUnits="userSpaceOnUse">
<stop stop-color="#F96874"/>
<stop offset="1" stop-color="#FD6E7A"/>
</linearGradient>
</defs>
</svg>
