<svg width="1032" height="1225" viewBox="0 0 1032 1225" fill="none" xmlns="http://www.w3.org/2000/svg">
<path d="M479.191 903.829H519.519V1005.84H479.191V903.829Z" fill="#969391"/>
<path d="M668.888 871.917C668.888 891.421 650.463 929.106 629.148 929.106H383.684C362.368 929.106 354.932 891.338 354.932 871.917V870.429C354.932 850.925 362.368 829.934 383.684 829.934H629.148C650.463 829.934 668.888 850.925 668.888 870.429V871.917Z" fill="#435467"/>
<path d="M499.933 1076.15C507.865 1071.44 518.109 1073.26 526.867 1073.92C537.938 1074.74 549.009 1075.65 560.08 1075.4C580.653 1074.99 602.216 1075.73 621.219 1084.41C636.834 1091.52 657.902 1105.65 663.768 1122.68C668.312 1135.82 667.982 1156.81 657.82 1167.55C656.085 1169.45 653.358 1167.47 653.771 1165.24C654.68 1160.11 652.201 1152.84 651.706 1147.55C650.962 1138.05 653.11 1130.69 646.501 1122.43C635.016 1107.97 618.245 1097.88 600.481 1093.5C584.04 1089.45 566.855 1090.61 550.083 1089.54C541.656 1089.04 533.394 1087.39 525.05 1085.9C516.705 1084.33 506.956 1084 499.685 1079.45C498.776 1078.54 498.694 1076.81 499.933 1076.15Z" fill="#838792"/>
<path d="M485.887 1076.15C477.956 1071.44 467.711 1073.26 458.953 1073.92C447.882 1074.74 436.811 1075.65 425.658 1075.4C405.085 1074.99 383.604 1075.73 364.519 1084.41C348.904 1091.52 327.836 1105.65 321.97 1122.68C317.426 1135.82 317.756 1156.81 327.918 1167.55C329.653 1169.45 332.38 1167.47 331.967 1165.24C330.975 1160.11 333.536 1152.84 333.949 1147.55C334.693 1138.05 332.545 1130.69 339.155 1122.43C350.639 1107.97 367.411 1097.88 385.174 1093.5C401.615 1089.45 418.8 1090.61 435.572 1089.54C443.999 1089.04 452.261 1087.39 460.523 1085.9C468.868 1084.33 478.617 1084 485.887 1079.45C487.044 1078.54 487.127 1076.81 485.887 1076.15Z" fill="#838792"/>
<path d="M406.324 1131.69C407.398 1120.37 414.338 1109.05 423.261 1102.27C433.258 1094.67 444.825 1091.61 457.052 1089.87C463.001 1089.05 468.95 1088.22 474.816 1086.73C480.847 1085.16 486.3 1082.27 492.496 1081.36C495.719 1080.87 498.61 1083.84 496.793 1087.06C486.878 1105.08 459.118 1101.69 442.181 1107.15C430.118 1111.03 421.03 1121.03 418.056 1133.26C416.569 1139.38 417.808 1146.15 417.891 1152.35C417.973 1157.48 419.378 1162.27 416.982 1166.9C416.156 1168.47 414.173 1168.06 413.264 1166.9C406.241 1157.56 405.25 1142.93 406.324 1131.69Z" fill="#838792"/>
<path d="M570.407 1131.69C569.332 1120.37 562.475 1109.05 553.469 1102.27C543.472 1094.67 531.906 1091.61 519.678 1089.87C513.647 1089.05 507.781 1088.22 501.915 1086.73C495.883 1085.16 490.431 1082.27 484.234 1081.36C481.012 1080.87 478.12 1083.84 479.855 1087.06C489.77 1105.08 517.612 1101.69 534.55 1107.15C546.529 1111.03 555.7 1121.03 558.675 1133.26C560.162 1139.38 558.922 1146.15 558.84 1152.35C558.757 1157.48 557.353 1162.27 559.749 1166.9C560.575 1168.47 562.558 1168.06 563.466 1166.9C570.489 1157.56 571.481 1142.93 570.407 1131.69Z" fill="#838792"/>
<path d="M474.651 996.648H523.387V1094.12H474.651V996.648Z" fill="#7F8B96"/>
<path d="M447.471 1181.84C447.471 1183.08 447.388 1184.32 447.223 1185.48C445.24 1199.94 431.773 1211.1 415.497 1211.1C399.138 1211.1 385.671 1199.94 383.688 1185.48C383.523 1184.24 383.44 1183.08 383.44 1181.84C383.44 1165.64 397.816 1152.59 415.497 1152.59C433.095 1152.59 447.471 1165.73 447.471 1181.84Z" fill="#838792"/>
<path d="M447.471 1177.63C447.471 1178.87 447.388 1177.14 447.223 1177.14H383.688C383.523 1177.14 383.44 1178.95 383.44 1177.63C383.44 1161.43 397.816 1148.38 415.497 1148.38C433.095 1148.38 447.471 1161.43 447.471 1177.63Z" fill="#2C2C42"/>
<path d="M357.497 1181.84C357.497 1183.08 357.414 1184.32 357.249 1185.48C355.266 1199.94 341.799 1211.1 325.441 1211.1C309.164 1211.1 295.697 1199.94 293.715 1185.48C293.549 1184.24 293.467 1183.08 293.467 1181.84C293.467 1165.65 307.843 1152.59 325.441 1152.59C343.121 1152.59 357.497 1165.73 357.497 1181.84Z" fill="#838792"/>
<path d="M357.497 1177.63C357.497 1178.87 357.414 1177.14 357.249 1177.14H293.715C293.549 1177.14 293.467 1178.96 293.467 1177.63C293.467 1161.44 307.843 1148.38 325.441 1148.38C343.121 1148.38 357.497 1161.44 357.497 1177.63Z" fill="#2C2C42"/>
<path d="M602.054 1181.84C602.054 1183.08 601.971 1184.32 601.806 1185.48C599.823 1199.94 586.356 1211.1 570.08 1211.1C553.721 1211.1 540.337 1199.94 538.354 1185.48C538.189 1184.24 538.106 1183.08 538.106 1181.84C538.106 1165.64 552.482 1152.59 570.08 1152.59C587.76 1152.59 602.054 1165.73 602.054 1181.84Z" fill="#838792"/>
<path d="M602.053 1177.63C602.053 1178.87 601.97 1177.14 601.805 1177.14H538.27C538.105 1177.14 538.022 1178.95 538.022 1177.63C538.022 1161.43 552.398 1148.38 569.996 1148.38C587.76 1148.38 602.053 1161.43 602.053 1177.63Z" fill="#2C2C42"/>
<path d="M620.973 1181.84C620.973 1183.08 621.055 1184.32 621.22 1185.48C623.203 1199.94 636.67 1211.1 652.946 1211.1C669.305 1211.1 682.772 1199.94 684.755 1185.48C684.92 1184.24 685.003 1183.08 685.003 1181.84C685.003 1165.64 670.627 1152.59 652.946 1152.59C635.266 1152.59 620.973 1165.73 620.973 1181.84Z" fill="#737373"/>
<path d="M620.971 1177.63C620.971 1178.87 621.053 1177.14 621.219 1177.14H684.753C684.918 1177.14 685.001 1178.95 685.001 1177.63C685.001 1161.43 670.625 1148.37 652.945 1148.37C635.264 1148.37 620.971 1161.43 620.971 1177.63Z" fill="#2C2C42"/>
<path d="M774.808 832.272C773.321 853.016 753.327 868.635 730.028 867.23C723.254 866.817 470.354 872.189 459.944 871.28C414.503 867.478 481.177 848.966 459.944 824.999C424.005 825.165 416.734 824.669 408.72 821.446C396.492 816.57 290.904 792.355 283.055 764.669C275.206 736.901 244.72 386.574 244.72 386.574C257.36 365.334 392.361 378.888 455.565 386.574C489.109 390.706 508.607 421.036 508.607 444.424C508.607 452.524 509.599 460.705 510.094 468.804C512.656 509.796 514.886 550.787 517.365 591.778C518.77 614.092 519.844 636.489 520.918 658.885C521.496 671.034 522.157 683.265 522.983 695.414C523.809 708.719 522.322 724.67 525.875 737.562C536.285 776.405 613.617 780.289 646.582 780.702C699.459 781.363 687.479 783.182 713.174 786.239C735.812 788.967 752.088 792.851 763.324 803.677C771.338 811.446 775.469 821.859 774.808 832.272Z" fill="#C1C7CC"/>
<path d="M370.798 869.382C432.928 875.746 472.172 871.531 477.294 871.779C494.727 872.688 506.129 862.358 507.781 841.118C508.607 830.457 505.716 819.961 499.85 812.193C491.588 801.367 479.443 797.73 462.506 795.499C443.255 792.937 413.264 791.863 373.441 792.441C360.47 792.606 347.086 791.449 334.362 789.135C319.573 786.408 307.759 779.879 295.614 770.21C280.742 758.392 282.725 733.02 282.973 713.516C283.138 701.368 283.055 689.384 282.725 677.318C281.32 620.459 281.238 563.518 280.577 506.659C280.246 474.841 279.833 443.106 279.503 411.288C279.255 390.131 264.796 374.015 247.281 375.503C229.683 376.908 215.72 395.255 215.968 416.412L220.099 761.367C220.099 762.689 220.182 763.929 220.264 765.251C220.76 770.54 224.478 798.226 247.116 824.094C269.919 850.126 303.132 865.002 346.177 868.639C354.026 869.217 362.37 868.473 370.798 869.382Z" fill="#979B9E"/>
<path d="M453.843 541.511C407.168 577.29 339.425 591.779 287.24 564.095C270.872 555.434 255.8 541.592 252.559 523.783C248.669 502.332 262.526 480.152 256.691 459.106C251.586 440.488 232.949 429.074 219.092 415.313C198.996 395.4 187.328 367.635 187.409 339.708C187.49 311.781 199.158 284.097 219.335 264.265C236.433 247.427 258.717 236.58 278.327 222.495C293.804 211.325 307.741 196.835 315.115 179.269C322.408 161.947 316.412 151.747 315.359 134.748C313.171 98.4026 322.327 57.7668 348.501 30.7302C382.372 -4.4011 432.693 -3.83446 477.18 5.23169C499.707 9.76476 524.584 16.8072 544.356 28.7875C552.783 33.8872 558.374 40.1202 564.128 48.2959C565.991 50.8862 576.363 76.7086 575.958 76.6276C641.918 91.6839 606.507 182.993 626.765 224.924C633.167 238.118 644.349 248.318 654.154 259.246C671.333 278.511 684.785 301.662 688.998 327.08C693.212 352.498 687.459 380.182 670.361 399.447C667.606 402.604 664.364 405.68 663.311 409.728C661.69 415.799 665.094 421.87 667.606 427.617C682.597 462.02 665.418 501.846 643.782 532.525C629.277 553.167 612.18 572.756 589.977 584.737C554.566 603.921 509.836 600.926 473.371 583.765" fill="url(#paint0_linear_17_1)"/>
<path opacity="0.42" d="M485.445 88.9386C507.729 78.0916 536.171 90.1528 549.946 110.794C563.641 131.436 581.468 149.811 578.227 174.338C576.606 186.481 573.932 198.866 576.363 210.927C582.521 242.173 601.807 265 621.903 289.689C638.92 310.574 644.43 338.339 648.806 364.889C651.399 380.755 653.506 398.24 645.078 411.92C634.382 429.243 622.146 451.584 610.64 468.341C591.678 495.782 602.78 522.576 579.847 546.86C573.041 553.983 563.479 557.707 554.079 560.702C535.037 566.611 515.346 570.092 495.412 571.144C478.395 572.035 461.135 570.982 445.091 565.397C405.709 551.555 379.374 507.357 386.504 466.236C391.934 435.071 413.407 409.168 423.617 379.136C430.91 357.604 432.126 334.048 427.183 311.869C420.862 283.861 404.737 256.015 411.705 228.169" fill="#113356"/>
<path d="M405.971 351.739C402.336 373.143 431.088 374.962 431.088 374.962C443.728 374.962 463.475 371.077 463.475 358.433L457.361 279.177C457.361 266.533 447.033 256.202 434.392 256.202C421.752 256.202 411.424 266.45 411.424 279.177L405.971 351.739Z" fill="#D8826C"/>
<path d="M518.263 71.7563C515.346 66.2519 493.305 72.1611 490.874 66.3328C476.693 79.0416 446.144 54.0288 429.127 63.6616C406.844 76.2894 388.935 88.9173 364.302 96.0407C356.198 98.3882 367.948 103.731 359.359 104.135C357.09 119.03 343.071 165.413 343.881 180.793C348.014 257.936 404.737 306.505 460.487 299.382C502.624 293.958 542.492 241.747 553.107 167.598C554.079 160.637 559.184 127.125 558.698 120.325C538.764 100.898 531.552 96.4454 518.263 71.7563Z" fill="#F0A98F"/>
<path d="M448.495 221.518C448.495 221.518 461.622 243.616 475.722 221.113L448.495 221.518Z" fill="#D8826C"/>
<path d="M434.963 176.67C434.963 191.24 423.132 203.14 408.465 203.14C393.798 203.14 381.968 191.321 381.968 176.67C381.968 162.099 393.798 150.2 408.465 150.2C423.132 150.2 434.963 162.099 434.963 176.67Z" fill="white"/>
<path d="M427.021 191.244C422.321 202.334 411.706 208.486 403.278 205.005C394.851 201.444 391.853 189.625 396.472 178.535C401.171 167.365 411.787 161.294 420.133 164.774C428.641 168.255 431.721 180.073 427.021 191.244Z" fill="#7F5242"/>
<path d="M422.563 189.382C419.241 197.234 411.705 201.605 405.708 199.096C399.712 196.586 397.524 188.168 400.927 180.235C404.25 172.302 411.786 167.931 417.782 170.44C423.778 173.03 425.885 181.449 422.563 189.382Z" fill="#400404"/>
<path d="M428.966 176.112C428.074 178.298 424.833 178.945 421.754 177.65C418.675 176.355 416.892 173.522 417.783 171.417C418.675 169.231 421.916 168.584 424.995 169.879C428.074 171.174 429.857 174.007 428.966 176.112Z" fill="white"/>
<path d="M420.539 242.809C420.539 242.809 463.243 262.48 481.313 244.428C481.313 244.428 464.864 285.469 420.539 242.809Z" fill="#D5503B"/>
<path d="M434.963 176.674C434.963 176.674 437.07 159.675 420.458 151.095C395.014 137.981 381.077 168.336 372.812 173.274C372.812 173.274 378.16 178.617 382.049 176.755C382.049 176.674 412.193 140.652 434.963 176.674Z" fill="#302725"/>
<path d="M483.339 180.325C483.339 194.977 495.17 206.795 509.836 206.795C524.422 206.795 536.334 194.977 536.334 180.325C536.334 165.754 524.503 153.936 509.836 153.936C495.251 153.855 483.339 165.754 483.339 180.325Z" fill="white"/>
<path d="M527.827 192.139C525.315 203.958 515.672 211.891 506.191 209.867C496.71 207.843 491.119 196.672 493.631 184.935C496.143 173.117 505.786 165.184 515.267 167.126C524.666 169.15 530.339 180.321 527.827 192.139Z" fill="#7F5242"/>
<path d="M522.884 191.087C521.101 199.505 514.294 205.09 507.569 203.714C500.843 202.338 496.872 194.324 498.574 185.987C500.357 177.568 507.244 171.902 513.97 173.359C520.615 174.735 524.666 182.668 522.884 191.087Z" fill="#400404"/>
<path d="M526.692 176.843C526.206 179.11 522.965 180.405 519.561 179.676C516.077 178.948 513.727 176.519 514.132 174.253C514.618 171.986 517.779 170.691 521.263 171.42C524.748 172.148 527.178 174.577 526.692 176.843Z" fill="white"/>
<path d="M482.934 177.075C482.934 177.075 480.827 161.938 497.439 154.329C522.883 142.673 536.82 169.628 545.005 173.999C545.005 173.999 539.657 178.694 535.767 177.075C535.848 177.075 508.54 144.292 482.934 177.075Z" fill="#302725"/>
<path d="M386.667 139.105C386.667 139.105 413.57 115.063 439.338 125.425C445.334 127.853 446.712 130.686 450.52 142.343C450.52 142.343 421.187 125.91 386.667 139.105Z" fill="#6F3B1E"/>
<path d="M544.681 149.147C544.681 149.147 529.366 121.382 506.029 126.968C500.599 128.263 498.736 130.772 492.658 141.295C492.658 141.376 520.452 130.61 544.681 149.147Z" fill="#6F3B1E"/>
<path d="M351.418 158.372C351.418 158.372 322.814 119.355 314.548 156.834C307.985 186.704 334.644 208.641 351.175 203.055C367.705 197.47 351.418 158.372 351.418 158.372Z" fill="#F0A98F"/>
<path d="M351.742 165.336C351.742 165.336 331.484 140.728 326.297 152.304C321.111 163.879 324.191 177.478 324.191 177.478C324.191 177.478 326.297 161.936 338.614 169.141C338.614 169.141 329.863 194.72 351.742 185.006C351.823 185.006 360.412 176.507 351.742 165.336Z" fill="#D8826C"/>
<path d="M352.981 205.055C352.981 209.021 349.983 212.178 346.336 212.178C342.609 212.178 339.691 208.94 339.691 205.055C339.691 201.088 342.69 197.851 346.336 197.851C349.983 197.851 352.981 201.007 352.981 205.055Z" fill="white"/>
<path d="M585.358 131.583C562.183 138.059 536.09 133.364 516.4 119.198C496.709 105.032 483.906 81.6383 482.609 57.4349C482.204 50.7162 483.582 42.6214 489.659 39.8692C491.766 38.8978 494.197 38.8169 496.547 38.8978C510.889 39.3026 524.665 45.3737 536.09 54.197C547.516 63.0203 556.592 74.4339 564.614 86.4142C570.367 95.0756 575.553 104.142 578.713 114.017C580.658 120.25 581.793 126.726 582.036 133.202" fill="url(#paint1_linear_17_1)"/>
<path d="M487.634 72.5764C445.254 96.537 397.283 138.873 351.338 136.525C348.988 136.444 337.157 121.955 336.185 120.093C335.375 118.474 336.266 116.45 337.157 114.669C346.476 97.0227 371.434 66.3434 389.99 55.9012C408.547 45.4589 428.886 38.8212 449.144 32.8311C459.435 29.836 469.888 26.9219 480.26 26.76C490.551 26.5981 500.924 29.4313 506.677 36.3928" fill="url(#paint2_linear_17_1)"/>
<path d="M707.889 810.779C707.889 810.779 717.638 768.796 622.542 729.954C527.53 691.111 488.698 686.896 483.328 714.251C477.958 741.607 501.257 798.713 637.084 835.407C692.356 850.283 707.889 810.779 707.889 810.779Z" fill="#DE947A"/>
<path d="M646.666 802.025C646.666 801.942 646.666 801.859 646.666 801.777C650.054 775.661 683.019 771.116 701.856 785.413C717.306 797.149 732.178 870.04 736.97 897.643C744.405 940.701 750.189 1005.49 757.542 1048.63C759.69 1061.2 761.756 1073.67 763.573 1086.24C773.322 1107.97 775.388 1111.53 783.65 1126.73C791.912 1141.86 799.761 1140.7 792.077 1144.09C779.684 1149.62 744.405 1138.63 736.143 1114.34C731.599 1101.11 729.038 1095.49 727.386 1080.86C654.267 939.957 644.022 823.347 646.666 802.025Z" fill="#DE947A"/>
<path d="M640.14 803.769C640.14 803.769 644.106 760.877 544.797 735.092C445.406 709.39 406.409 710.382 404.674 738.15C402.939 766.001 433.756 819.389 573.218 837.571C630.061 845.009 640.14 803.769 640.14 803.769Z" fill="#F0A98F"/>
<path d="M712.927 791.597C676.657 715.151 527.694 691.846 527.694 691.846L504.395 637.466L450.031 636.226C360.719 805.894 535.46 785.151 557.52 792.919C579.497 800.688 639.065 844.737 639.065 844.737C650.715 912.092 701.195 1079.2 714.167 1080.44C727.138 1081.76 764.647 1066.22 764.647 1066.22C764.647 1066.22 749.115 867.96 712.927 791.597Z" fill="#C2C2C2"/>
<path d="M592.386 802.11C600.318 782.193 629.317 778.805 639.727 799.962C648.32 817.317 639.727 906.82 631.63 933.597C618.99 975.497 606.184 1017.31 593.543 1059.13C589.825 1071.28 586.107 1083.43 582.059 1095.5C581.067 1119.3 581.398 1123.43 581.976 1140.7C582.554 1157.89 581.811 1184.5 573.383 1184.17C559.834 1183.68 536.287 1144.59 539.757 1119.13C541.657 1105.25 547.028 1088.39 552.068 1074.5C553.555 804.755 589.577 809.218 592.386 802.11Z" fill="#F0A98F"/>
<path d="M372.369 599.881C372.369 599.881 292.476 751.615 334.364 789.053C376.253 826.573 558.842 848.556 558.842 848.556C558.842 848.556 539.427 1013.02 545.871 1066.16L596.352 1073.93C596.352 1073.93 675.336 843.35 639.066 786.408C602.796 729.467 508.279 709.963 468.126 713.93C468.126 713.93 487.541 659.55 473.331 640.046C459.12 620.625 372.369 594.757 372.369 599.881Z" fill="#D4D4D4"/>
<path d="M361.712 624.838C372.7 530.624 320.897 349.882 320.897 349.882C320.897 349.882 459.12 309.056 547.523 349.882L502.33 642.028C502.33 642.028 477.875 648.144 443.588 643.268C409.466 638.309 361.712 624.838 361.712 624.838Z" fill="#4676A0"/>
<path d="M382.118 491.028C382.118 491.028 486.054 501.772 514.723 480.284C514.723 480.284 478.866 566.316 382.118 491.028Z" fill="#1F4E78"/>
<path d="M547.112 1090.21C547.112 1090.21 527.118 1104.34 523.978 1113.68C520.839 1123.02 531.579 1132.69 536.784 1153.43C541.99 1174.18 553.391 1206.32 595.858 1209.46C595.858 1209.46 607.259 1209.46 598.997 1193.93C590.735 1178.39 581.399 1130.71 582.391 1108.89C582.391 1108.89 555.374 1112.03 547.112 1090.21Z" fill="#393D45"/>
<path d="M573.301 1150.94C578.259 1149.95 582.885 1149.29 587.016 1153.01C589.825 1155.49 593.378 1160.11 591.065 1163.92C590.817 1164.33 590.156 1164.49 589.825 1164.08C587.677 1161.6 585.281 1159.2 582.555 1157.3C579.415 1155.16 575.945 1157.72 572.723 1155.98C570.575 1154.91 570.905 1151.35 573.301 1150.94Z" fill="#032733"/>
<path d="M568.676 1133.51C572.394 1129.04 579.582 1130.86 583.878 1133.34C589.579 1136.73 590.653 1142.1 590.901 1148.22C590.984 1149.38 589.496 1149.87 588.753 1149.13C586.109 1146.57 585.365 1142.93 582.391 1140.61C580.739 1139.38 579.252 1138.55 577.269 1138.05C575.203 1137.56 573.055 1138.8 570.99 1139.04C567.767 1139.54 567.024 1135.41 568.676 1133.51Z" fill="#032733"/>
<path d="M569.831 1115.98C571.566 1116.4 573.797 1116.65 576.028 1116.89C572.062 1112.27 570.079 1105.9 569.005 1099.79C568.014 1094.5 565.783 1085.74 570.162 1081.36C573.219 1078.3 577.184 1081.36 579.002 1084.17C581.15 1087.55 582.389 1092.02 583.629 1095.82C584.868 1099.46 584.868 1102.68 584.62 1105.98C588.09 1101.36 591.891 1096.81 597.261 1095.08C603.127 1093.17 610.15 1093.01 613.62 1098.96C617.42 1105.24 609.489 1111.44 604.779 1113.67C598.087 1116.89 590.156 1117.47 582.803 1116.23C582.72 1116.31 582.555 1116.4 582.472 1116.48C582.803 1116.89 583.133 1117.31 583.463 1117.72C583.711 1117.97 583.794 1118.3 583.877 1118.63C587.264 1120.03 589.66 1122.43 589.412 1126.98C589.329 1127.8 588.834 1128.71 588.008 1128.88C587.842 1128.88 587.677 1128.96 587.594 1128.96C586.107 1128.96 585.859 1127.8 585.033 1126.81C583.463 1124.83 581.068 1123.67 578.672 1123.34C574.954 1122.93 570.74 1124 567.518 1121.69C564.544 1119.7 566.196 1115.16 569.831 1115.98ZM577.432 1091.93C576.523 1089.54 575.532 1087.31 574.541 1084.99C573.301 1082.27 571.566 1083.26 571.401 1086.15C570.988 1094.91 574.458 1104.25 579.25 1111.85C579.663 1109.29 580.159 1106.73 580.407 1104.08C580.654 1100.03 578.754 1095.57 577.432 1091.93ZM606.184 1106.07L606.019 1099.79C604.201 1099.29 602.466 1099.29 600.731 1099.79C597.096 1100.53 594.369 1102.68 591.808 1105.24C589.743 1107.31 588.09 1109.62 586.273 1112.02C593.295 1111.03 600.566 1110.45 606.184 1106.07Z" fill="#032733"/>
<path d="M728.544 1091.58C728.544 1091.58 718.96 1116.21 722.347 1125.47C725.735 1134.72 742.176 1139.52 759.196 1152.58C776.133 1165.55 805.05 1183.65 840.246 1159.6C840.246 1159.6 849.169 1152.49 832.975 1145.47C816.782 1138.44 779.851 1106.96 767.045 1089.27C767.045 1089.19 748.538 1103.4 728.544 1091.58Z" fill="#393D45"/>
<path d="M786.13 1127.8C789.352 1124 792.657 1120.61 798.11 1120.86C801.91 1121.02 807.528 1122.43 808.107 1126.89C808.189 1127.39 807.776 1127.88 807.198 1127.8C803.976 1127.22 800.588 1126.81 797.283 1127.06C793.483 1127.31 792.409 1131.52 788.774 1132.18C786.46 1132.6 784.56 1129.62 786.13 1127.8Z" fill="#032733"/>
<path d="M771.671 1117.05C771.836 1111.27 778.528 1108.13 783.486 1107.47C790.013 1106.56 794.226 1110.11 798.275 1114.74C799.018 1115.56 798.192 1116.89 797.118 1116.8C793.4 1116.47 790.591 1114.08 786.79 1114.08C784.725 1114.08 783.072 1114.41 781.172 1115.32C779.272 1116.23 778.363 1118.54 776.876 1120.03C774.728 1122.26 771.588 1119.53 771.671 1117.05Z" fill="#032733"/>
<path d="M761.674 1102.59C763.244 1101.77 765.144 1100.61 767.127 1099.45C761.096 1098.3 755.643 1094.49 751.016 1090.44C746.968 1086.89 739.698 1081.44 740.441 1075.32C740.937 1071.02 745.977 1070.94 749.116 1072.02C752.917 1073.34 756.717 1076.06 760.022 1078.21C763.244 1080.28 765.31 1082.76 767.127 1085.57C766.962 1079.78 767.045 1073.83 770.184 1069.21C773.572 1064 779.025 1059.62 785.469 1062.02C792.326 1064.58 790.013 1074.33 787.7 1079.04C784.478 1085.73 778.612 1091.11 772.085 1094.74C772.085 1094.91 772.085 1094.99 772.002 1095.16C772.498 1095.24 772.993 1095.4 773.489 1095.49C773.82 1095.57 774.15 1095.73 774.398 1095.98C777.868 1094.99 781.255 1095.32 783.899 1099.04C784.395 1099.7 784.56 1100.78 783.982 1101.44C783.899 1101.52 783.817 1101.68 783.651 1101.77C782.495 1102.68 781.586 1101.93 780.347 1101.68C777.868 1101.11 775.307 1101.68 773.241 1103.01C770.102 1104.99 767.375 1108.46 763.409 1108.63C759.857 1108.87 758.37 1104.25 761.674 1102.59ZM752.586 1079.04C750.438 1077.72 748.207 1076.56 745.977 1075.4C743.25 1074 742.507 1075.9 744.242 1078.3C749.364 1085.4 757.874 1090.53 766.384 1093.5C765.062 1091.27 763.905 1088.96 762.418 1086.73C760.27 1083.34 755.891 1081.11 752.586 1079.04ZM783.899 1072.18L779.851 1067.39C778.198 1068.13 776.794 1069.21 775.72 1070.69C773.406 1073.5 772.58 1076.89 772.085 1080.53C771.754 1083.42 771.837 1086.31 772.002 1089.21C776.959 1084.08 782.247 1079.12 783.899 1072.18Z" fill="#032733"/>
<path d="M510.097 644.345C510.097 644.345 452.015 672.03 360.803 629.138C361.712 624.841 363.529 601.452 363.529 601.452L505.883 619.469L510.097 644.345Z" fill="#8F99B6"/>
<path d="M417.562 607.059L410.622 651.274L392.694 649.869L399.551 602.844L417.562 607.059Z" fill="#D4D4D4"/>
<path d="M488.038 612.607L493.573 652.689L447.967 656.821L445.241 607.069L488.038 612.607ZM458.956 644.342L478.95 640.21V621.532L455.486 619.466L458.956 644.342Z" fill="#EAEAEA"/>
<path d="M784.229 597.411C784.229 597.411 746.967 598.898 702.931 590.303C663.521 582.617 618.659 566.998 590.485 535.015C557.768 497.825 528.108 430.883 528.108 430.883C528.108 430.883 536.535 356.835 547.606 349.975C558.594 343.116 635.183 496.833 655.012 508.982C666.413 515.924 705.823 529.808 739.862 542.701C765.226 552.287 787.616 561.295 792.987 566.419C805.627 578.32 784.229 597.411 784.229 597.411Z" fill="#4676A0"/>
<path d="M805.873 597.495C801.164 574.438 785.796 557.496 767.537 557.496C749.279 557.496 733.911 574.438 729.202 597.495H805.873Z" fill="#22272E"/>
<path d="M746.636 578.475C746.636 583.764 741.348 587.979 734.821 587.979C728.294 587.979 723.006 583.681 723.006 578.475C723.006 573.185 728.294 568.97 734.821 568.97C741.348 568.888 746.636 573.185 746.636 578.475Z" fill="#F0A98F"/>
<path d="M762.995 557.495C762.995 565.098 759.442 571.297 754.981 571.297C750.52 571.297 746.967 565.098 746.967 557.495C746.967 549.892 750.52 543.776 754.981 543.776C759.442 543.776 762.995 549.892 762.995 557.495Z" fill="#F0A98F"/>
<path d="M786.212 558.485C783.734 565.592 778.363 570.138 774.15 568.568C770.019 566.997 768.614 559.89 771.093 552.783C773.571 545.675 778.942 541.13 783.155 542.7C787.369 544.27 788.691 551.378 786.212 558.485Z" fill="#F0A98F"/>
<path d="M805.297 577.175C800.587 582.961 794.06 585.275 790.673 582.299C787.286 579.324 788.36 572.134 792.986 566.349C797.696 560.564 804.223 558.25 807.61 561.225C810.997 564.283 809.923 571.39 805.297 577.175Z" fill="#F0A98F"/>
<path d="M810.832 596.007C803.892 598.238 797.2 596.503 795.96 592.04C794.638 587.577 799.182 582.205 806.123 579.891C813.063 577.66 819.755 579.395 821.077 583.858C822.316 588.321 817.772 593.775 810.832 596.007Z" fill="#F0A98F"/>
<path d="M334.611 593.358C334.611 593.358 378.978 516.169 447.305 596.829L334.611 593.358Z" fill="#F0A98F"/>
<path d="M320.979 349.895C315.608 350.308 220.017 473.944 208.037 577.414C208.037 577.414 207.376 618.157 265.954 558.736C289.253 535.1 297.68 475.514 340.477 426.093C340.477 426.01 343.121 348.16 320.979 349.895Z" fill="#4676A0"/>
<path d="M366.916 558.735C351.383 551.463 308.173 546.173 297.35 543.446C228.858 525.926 214.565 585.925 214.565 585.925C202.75 605.76 297.185 603.28 353.118 598.735C355.514 585.264 365.264 572.289 366.916 558.735Z" fill="#4676A0"/>
<path d="M248.689 402.867C306.606 418.899 222.747 510.221 214.485 525.097V515.758C206.223 498.072 196.06 388.321 248.689 402.867Z" fill="#10A2BD"/>
<path d="M150.372 378.562C201.101 391.124 205.149 488.892 181.437 524.098L162.765 514.759C145.002 481.206 116.581 459.636 115.259 419.057C114.515 395.091 120.96 371.289 150.372 378.562Z" fill="#10A2BD"/>
<path d="M70.8089 375.176C94.8513 345.341 123.686 379.391 123.686 406.994V413.192C98.817 428.894 41.8094 411.126 70.8089 375.176Z" fill="#10A2BD"/>
<path d="M258.189 497.159L242.657 609.142L127.568 612.282L118.232 500.3L258.189 497.159Z" fill="#96C03A"/>
<path d="M977.641 1224.99L852.967 656.154L882.958 646.071L1009.86 1224.99H977.641Z" fill="#C1C7CC"/>
<path d="M54.3634 1224.99L178.954 656.154L149.046 646.071L22.0591 1224.99H54.3634Z" fill="#C1C7CC"/>
<path d="M-0.000366211 597.075H1031.92V658.314H-0.000366211V597.075Z" fill="#D8DDE1"/>
<path d="M875.935 571.214C875.935 571.544 876.018 571.957 876.018 572.288C876.183 586.172 864.368 597.577 849.662 597.742L491.836 602.453C477.047 602.618 464.984 591.544 464.736 577.66C464.736 577.247 464.737 576.916 464.819 576.585L875.935 571.214Z" fill="#E7E9ED"/>
<path d="M543.969 559.557C542.482 569.805 548.513 578.069 557.271 577.904L858.75 573.855C867.591 573.772 875.522 566.582 876.596 557.739L896.094 392.865C897.168 384.022 891.055 376.253 882.462 375.51L589.41 349.807C580.817 349.064 572.721 356.832 571.233 367.08L543.969 559.557Z" fill="#E2E4E8"/>
<path d="M702.432 469.313C700.863 481.214 708.299 491.048 719.039 491.296C729.78 491.544 739.694 482.371 741.264 470.635C742.751 458.983 735.315 449.148 724.657 448.569C713.999 448.239 704.085 457.412 702.432 469.313Z" fill="#F2F2F2"/>
<defs>
<linearGradient id="paint0_linear_17_1" x1="264.506" y1="540.869" x2="597.804" y2="84.2143" gradientUnits="userSpaceOnUse">
<stop stop-color="#102D50"/>
<stop offset="1" stop-color="#18496D"/>
</linearGradient>
<linearGradient id="paint1_linear_17_1" x1="585.943" y1="135.218" x2="463.773" y2="4.74548" gradientUnits="userSpaceOnUse">
<stop stop-color="#17476B"/>
<stop offset="0.0001" stop-color="#17476B"/>
<stop offset="1" stop-color="#194E75"/>
</linearGradient>
<linearGradient id="paint2_linear_17_1" x1="335.318" y1="127.393" x2="507.661" y2="26.0955" gradientUnits="userSpaceOnUse">
<stop stop-color="#153F63"/>
<stop offset="0.0001" stop-color="#153B5B"/>
<stop offset="1" stop-color="#1C5075"/>
</linearGradient>
</defs>
</svg>
