<svg width="51" height="51" viewBox="0 0 51 51" fill="none" xmlns="http://www.w3.org/2000/svg">
<path d="M0.0297852 37.4001V13.2901C0.0297852 6.01006 5.97979 0.0600586 13.2598 0.0600586H37.3698C44.6398 0.0600586 50.5998 6.01006 50.5998 13.2901V37.4001C50.5998 44.6701 44.6498 50.6301 37.3698 50.6301H29.2598L25.0198 49.6001L21.3598 50.6301H13.2498C5.97979 50.6301 0.0297852 44.6801 0.0297852 37.4001Z" fill="url(#paint0_linear_8_2022)"/>
<path d="M35.1598 33.49L36.2798 26.18H29.2698V21.44C29.2698 19.44 30.2498 17.49 33.3898 17.49H36.5798V11.27C36.5798 11.27 33.6898 10.78 30.9198 10.78C25.1398 10.78 21.3698 14.28 21.3698 20.62V26.19H14.9498V33.5H21.3698V50.64H29.2698V33.49H35.1598Z" fill="white"/>
<defs>
<linearGradient id="paint0_linear_8_2022" x1="46.7122" y1="3.95026" x2="3.91729" y2="46.7457" gradientUnits="userSpaceOnUse">
<stop stop-color="#4B6DB3"/>
<stop offset="0.1763" stop-color="#4867AF"/>
<stop offset="0.463" stop-color="#3F56A3"/>
<stop offset="0.8223" stop-color="#343D91"/>
<stop offset="1" stop-color="#2D3189"/>
</linearGradient>
</defs>
</svg>
