<svg width="632" height="422" viewBox="0 0 632 422" fill="none" xmlns="http://www.w3.org/2000/svg">
<mask id="mask0_17_51" style="mask-type:alpha" maskUnits="userSpaceOnUse" x="0" y="0" width="632" height="422">
<rect width="632" height="422" fill="#C4C4C4"/>
</mask>
<g mask="url(#mask0_17_51)">
<path opacity="0.2" d="M-424.84 139.97C-408.92 139.97 -474.99 182.58 -396.87 134.42C-272.94 120.56 -79.68 1.91996 86.02 11.76C323.33 25.86 310.44 234.06 417.46 287.58C552.11 354.87 600.21 412.32 605.07 472.45C481.16 470.51 -433.49 456.14 -433.49 456.14L-424.84 139.97Z" fill="url(#paint0_linear_17_51)"/>
<path d="M-419.5 151.75C-403.62 151.75 -464.57 161.46 -397.35 142.37C-284.99 131.32 -75.71 0.949915 82.46 23.1799C308.89 33.1599 283.37 231.2 386.7 281.07C516.72 343.83 564.04 398.37 570.23 456.18C452.15 456.18 -419.5 456.18 -419.5 456.18V151.75Z" fill="url(#paint1_linear_17_51)" stroke="#87509B" stroke-miterlimit="10"/>
<path d="M-461.72 172.78C-460.85 172.78 -460.28 172.97 -459.92 173.24C-459.53 173.56 -459.35 174.03 -459.37 174.72C-459.39 175.41 -459.61 176.25 -460.01 177.22C-460.37 178.14 -460.85 179.11 -461.43 180.18L-461.72 172.78ZM-449.82 476.47L-460.2 211.46C-455.27 210.91 -448.74 209.43 -440.23 206.79C-401.61 206.79 -362.18 194.22 -322.15 175.64C-286.79 159.28 -250.94 138.16 -214.77 116.9C-209.99 114.08 -205.2 111.26 -200.41 108.44C-159.35 84.3599 -117.89 60.7899 -76.22 44.2499C-34.55 27.6999 7.30003 18.1799 49.15 22.1999H49.17H49.18C108.93 22.5199 150.91 34.3999 182.67 53.2099C214.43 72.0199 235.99 97.8099 254.85 126C262.41 137.28 269.52 148.92 276.7 160.66C278.48 163.57 280.26 166.48 282.06 169.39C291.08 184.09 300.37 198.78 310.85 212.88C331.83 241.16 357.63 267.14 395.77 286.18C481.9 329.25 520.59 369.51 541.47 402.41C551.15 417.66 557.01 431.3 562 442.94C562.39 443.86 562.77 444.74 563.15 445.62C568.3 457.59 572.74 467.3 580 474.09C516.76 476.35 259.93 476.96 18.57 477C-102.48 477 -219.64 476.86 -306.53 476.72C-349.98 476.67 -385.86 476.58 -410.89 476.54C-423.4 476.54 -433.19 476.49 -439.86 476.49C-443.19 476.49 -445.74 476.49 -447.46 476.49L-449.41 476.44H-449.82V476.47ZM-461.87 181.98L-460.73 211.05C-465.65 211.6 -468.84 211.19 -470.76 210.08C-472.67 209.06 -473.38 207.35 -473.29 205.18C-473.19 202.96 -472.27 200.37 -470.92 197.55C-469.57 194.73 -467.8 191.73 -466.03 188.86C-465.67 188.26 -465.31 187.66 -464.95 187.1C-463.85 185.31 -462.78 183.6 -461.87 181.98Z" stroke="#763A8E"/>
<path d="M-461.84 154.06C-460.95 154.06 -460.38 154.15 -460.03 154.29C-459.85 154.38 -459.75 154.48 -459.7 154.61C-459.64 154.7 -459.62 154.84 -459.65 155.03C-459.72 155.4 -459.98 155.86 -460.45 156.42C-460.78 156.84 -461.2 157.3 -461.69 157.76L-461.84 154.06ZM-450.26 457.8L-461.19 171.03C-456.75 169.87 -451.17 168.26 -444.22 166.13C-405.62 166.08 -366.76 156.19 -327.58 141.68C-293.65 129.06 -259.46 113.03 -224.98 96.8C-219.64 94.26 -214.29 91.76 -208.93 89.27C-129.06 51.88 -47.6 16.57 36.12 24.47H36.13H36.15C95.89 24.7 140.72 37.36 176.32 56.73C211.92 76.09 238.28 102.25 261.06 129.57C271.33 141.91 280.88 154.48 290.21 166.73C291.22 168.07 292.23 169.41 293.24 170.75C303.54 184.25 313.65 197.42 324.27 209.39C345.51 233.42 368.82 252.97 399.86 262.45C539.11 319.9 598.46 376.05 607.31 433.31C544.55 435.67 280.45 441.77 31.86 447.31C-92.62 450.08 -213.21 452.72 -302.68 454.61C-347.42 455.58 -384.37 456.37 -410.14 456.92C-423.02 457.2 -433.11 457.43 -439.98 457.57C-443.41 457.66 -446.04 457.71 -447.81 457.76L-449.82 457.81H-450.26V457.8ZM-462.16 158.87L-461.71 170.66C-462.71 170.94 -463.65 171.17 -464.54 171.35C-469.4 172.51 -472.49 172.92 -474.27 172.83C-475.17 172.83 -475.68 172.64 -475.93 172.41C-476.15 172.23 -476.22 171.95 -476.07 171.53C-475.92 171.07 -475.57 170.56 -475.04 169.96C-474.51 169.31 -473.82 168.67 -473.03 167.93C-471.48 166.54 -469.53 164.97 -467.58 163.4L-467.42 163.26C-465.53 161.74 -463.65 160.26 -462.16 158.87Z" stroke="#87509B"/>
</g>
<defs>
<linearGradient id="paint0_linear_17_51" x1="-435.895" y1="241.816" x2="605.059" y2="241.816" gradientUnits="userSpaceOnUse">
<stop offset="0.3821" stop-color="#56256C"/>
<stop offset="0.7478" stop-color="#935BA0"/>
</linearGradient>
<linearGradient id="paint1_linear_17_51" x1="-329.162" y1="780.985" x2="559.643" y2="718.029" gradientUnits="userSpaceOnUse">
<stop offset="0.3821" stop-color="#56256C"/>
<stop offset="0.7478" stop-color="#935BA0"/>
</linearGradient>
</defs>
</svg>
