<svg width="367" height="367" viewBox="0 0 367 367" fill="none" xmlns="http://www.w3.org/2000/svg">
<g id="arappdev 1">
<rect width="367" height="367" fill="white"/>
<path id="gear1" opacity="0.2" d="M102.82 141.411L116.513 138.918V127.034L102.82 124.749C101.768 119.866 99.7723 115.295 97.0246 111.244L104.88 100.087L96.188 91.6725L84.8344 99.4429C80.6488 96.7839 75.9485 94.8722 70.8833 93.8542L68.3078 80.5991H56.0311L53.6703 93.8542C48.6266 94.8722 43.9048 96.8043 39.7196 99.464L28.2156 91.8595L19.5233 100.274L27.5503 111.265C24.8031 115.316 22.8285 119.887 21.7769 124.769L8.08371 127.262V139.146L21.7769 141.432C22.8285 146.335 24.8246 150.885 27.5717 154.937L19.7165 166.073L28.4088 174.487L39.784 166.717C43.9692 169.376 48.691 171.308 53.7347 172.305L56.3102 185.56H68.5868L70.9477 172.305C76.0129 171.287 80.7132 169.355 84.8983 166.695L96.4022 174.3L105.095 165.886L97.0675 154.895C99.7933 150.864 101.768 146.314 102.82 141.411ZM62.2983 157.7C48.2617 157.7 36.8865 146.668 36.8865 133.1C36.8865 119.534 48.2617 108.501 62.2983 108.501C76.3348 108.501 87.7098 119.513 87.7098 133.1C87.7098 146.688 76.3348 157.7 62.2983 157.7Z" fill="#84B5FF"/>
<path id="Vector" opacity="0.06" d="M144.739 62.6449C82.2702 104.596 25.8451 171.571 27.8888 227.71C29.9324 283.849 118.83 316.917 183.5 304.005C193.369 300.869 202.413 302.604 212.601 302.049C234.882 300.869 236.044 283.268 253.871 267.196C272.445 260.886 236.979 277.635 253.871 267.196C261.207 262.606 277.939 259.455 288.907 250.357C313.163 230.235 343.877 155.487 329.902 130.757C315.927 106.027 230.279 5.19991 144.739 62.6449Z" fill="#276ED8"/>
<path id="Vector_2" d="M340.507 42.7789V149.527C340.507 152.272 338.211 154.495 335.375 154.495H167.213C164.377 154.495 162.081 152.272 162.081 149.527V42.7789C162.081 36.4458 167.388 31.3006 173.938 31.3006H328.65C335.2 31.3006 340.507 36.4458 340.507 42.7789Z" fill="white" stroke="#84B5FF" stroke-miterlimit="10"/>
<path id="Vector_3" d="M244.71 56.8354H224.696V58.4635H244.71V56.8354Z" fill="#84B5FF"/>
<path id="Vector_4" d="M268.186 56.8353H248.172V58.4634H268.186V56.8353Z" fill="#06B25F"/>
<path id="Vector_5" d="M261.914 65.6216H230.879V67.2497H261.914V65.6216Z" fill="#276ED8"/>
<path id="Vector_6" d="M282.812 65.6216H267.041V67.2497H282.812V65.6216Z" fill="#84B5FF"/>
<path id="Vector_7" d="M255.268 74.3966H241.64V76.0247H255.268V74.3966Z" fill="#06B25F"/>
<path id="Vector_8" d="M308.358 74.3966H263.145V76.0247H308.358V74.3966Z" fill="#06B25F"/>
<path id="Vector_9" d="M303.898 83.1783H252.227V84.8067H303.898V83.1783Z" fill="#276ED8"/>
<path id="Vector_10" d="M255.21 91.9542H239.308V93.5819H255.21V91.9542Z" fill="#84B5FF"/>
<path id="Vector_11" d="M277.917 91.9542H262.015V93.5819H277.917V91.9542Z" fill="#276ED8"/>
<path id="Vector_12" d="M247.824 137.513H224.696V139.142H247.824V137.513Z" fill="#84B5FF"/>
<path id="Vector_13" d="M279.047 137.513H255.919V139.142H279.047V137.513Z" fill="#06B25F"/>
<path id="Vector_14" d="M309.445 137.513H286.317V139.142H309.445V137.513Z" fill="#84B5FF"/>
<path id="Vector_15" d="M276.093 128.724H230.88V130.352H276.093V128.724Z" fill="#276ED8"/>
<path id="Vector_16" d="M328.343 128.724H283.13V130.352H328.343V128.724Z" fill="#84B5FF"/>
<path id="Vector_17" d="M286.505 119.951H241.64V121.58H286.505V119.951Z" fill="#84B5FF"/>
<path id="Vector_18" d="M302.898 119.951H290.415V121.58H302.898V119.951Z" fill="#06B25F"/>
<path id="Vector_19" d="M255.601 111.167H238.715V112.794H255.601V111.167Z" fill="#06B25F"/>
<path id="Vector_20" d="M281.45 111.167H264.564V112.794H281.45V111.167Z" fill="#276ED8"/>
<path id="Vector_21" d="M309.213 111.167H292.327V112.794H309.213V111.167Z" fill="#84B5FF"/>
<path id="Vector_22" d="M281.972 102.395H258.294V104.023H281.972V102.395Z" fill="#06B25F"/>
<path id="Vector_23" d="M249.359 102.395H225.681V104.023H249.359V102.395Z" fill="#276ED8"/>
<path id="Vector_24" d="M219.12 55.2785H216.962V57.3698H219.12V55.2785Z" fill="#84B5FF"/>
<path id="Vector_25" d="M219.12 131.828H216.962V127.575H219.12V131.828ZM219.12 121.189H216.962V116.937H219.12V121.189ZM219.12 110.551H216.962V106.298H219.12V110.551ZM219.12 99.9116H216.962V95.6587H219.12V99.9116ZM219.12 89.2726H216.962V85.0196H219.12V89.2726ZM219.12 78.6335H216.962V74.3808H219.12V78.6335ZM219.12 67.9947H216.962V63.7419H219.12V67.9947Z" fill="#84B5FF"/>
<path id="Vector_26" d="M219.121 138.213H216.963V140.304H219.121V138.213Z" fill="#84B5FF"/>
<path id="Vector_27" opacity="0.7" d="M161.674 44.416C161.674 41.823 163.845 39.7209 166.524 39.7209H208.109V154.504H166.524C163.845 154.504 161.674 152.402 161.674 149.809V44.416Z" fill="#84B5FF"/>
<path id="Vector_28" d="M185.4 58.442H165.387V60.0702H185.4V58.442Z" fill="#06B25F"/>
<path id="Vector_29" d="M200.72 68.3909H169.685V70.019H200.72V68.3909Z" fill="#84B5FF"/>
<path id="Vector_30" d="M200.72 78.3408H169.685V79.9692H200.72V78.3408Z" fill="#84B5FF"/>
<path id="Vector_31" d="M200.72 88.2905H169.685V89.9189H200.72V88.2905Z" fill="#84B5FF"/>
<path id="Vector_32" d="M200.72 98.2378H169.685V99.8663H200.72V98.2378Z" fill="#84B5FF"/>
<path id="Vector_33" d="M202.332 118.136H171.297V119.764H202.332V118.136Z" fill="#84B5FF"/>
<path id="Vector_34" d="M202.332 128.087H171.297V129.715H202.332V128.087Z" fill="#84B5FF"/>
<path id="Vector_35" d="M202.332 138.033H171.297V139.662H202.332V138.033Z" fill="#84B5FF"/>
<path id="Vector_36" d="M185.4 108.187H165.387V109.815H185.4V108.187Z" fill="#06B25F"/>
<path id="Vector_37" d="M340.507 42.7789V43.2605H162.081V42.7789C162.081 36.4458 167.388 31.3006 173.938 31.3006H328.65C335.2 31.3006 340.507 36.4458 340.507 42.7789Z" fill="#84B5FF"/>
<path id="Vector_38" opacity="0.3" d="M313.409 37.835C313.409 38.6618 312.721 39.328 311.868 39.328C311.013 39.328 310.325 38.6618 310.325 37.835C310.325 37.0082 311.013 36.342 311.868 36.342C312.713 36.342 313.409 37.0082 313.409 37.835Z" fill="white"/>
<path id="Vector_39" opacity="0.3" d="M321.85 37.8345C321.85 38.6613 321.162 39.3275 320.308 39.3275C319.453 39.3275 318.765 38.6613 318.765 37.8345C318.765 37.0078 319.453 36.3415 320.308 36.3415C321.153 36.3415 321.85 37.0078 321.85 37.8345Z" fill="white"/>
<path id="Vector_40" opacity="0.3" d="M329.919 37.8345C329.919 38.6613 329.231 39.3275 328.377 39.3275C327.523 39.3275 326.835 38.6613 326.835 37.8345C326.835 37.0078 327.523 36.3415 328.377 36.3415C329.231 36.3415 329.919 37.0078 329.919 37.8345Z" fill="white"/>
<path id="Vector_41" d="M340.507 42.7789V149.527C340.507 152.272 338.211 154.495 335.375 154.495H167.213C164.377 154.495 162.081 152.272 162.081 149.527V42.7789C162.081 36.4458 167.388 31.3006 173.938 31.3006H328.65C335.2 31.3006 340.507 36.4458 340.507 42.7789Z" stroke="#84B5FF" stroke-miterlimit="10"/>
<g id="green_sgr">
<g id="Group" filter="url(#filter0_d_1_2)">
<path id="Vector_42" d="M57.1353 212.062H13.7423C11.0636 212.062 8.89206 214.164 8.89206 216.757V257.876C8.89206 260.469 11.0636 262.571 13.7423 262.571H57.1353C59.814 262.571 61.9856 260.469 61.9856 257.876V216.757C61.9856 214.164 59.814 212.062 57.1353 212.062Z" fill="#06B25F"/>
</g>
<path id="Vector_43" d="M26.9655 245.669L14.8119 239.306C14.0264 238.866 13.6337 238.185 13.6337 237.265C13.6337 236.305 14.0471 235.625 14.8739 235.224L26.9655 228.801V231.143C26.9655 231.303 26.9035 231.523 26.7795 231.803C26.6555 232.043 26.4695 232.223 26.2214 232.343L17.6023 236.905C17.2716 237.145 17.2716 237.386 17.6023 237.625L26.9655 242.488V245.669Z" fill="white"/>
<path id="Vector_44" d="M37.3178 226.881H39.7362L33.7213 246.809C33.556 247.33 33.1839 247.59 32.6052 247.59H31.055L37.3178 226.881Z" fill="white"/>
<path id="Vector_45" d="M43.6395 228.801L55.7311 235.224C56.5993 235.665 57.0333 236.345 57.0333 237.265C57.0333 238.185 56.5993 238.846 55.7311 239.246L43.6395 245.669V243.328C43.6395 243.208 43.6808 243.008 43.7635 242.728C43.8875 242.448 44.0736 242.247 44.3216 242.128L53.0028 237.625C53.3335 237.386 53.3335 237.145 53.0028 236.905L43.6395 231.983V228.801Z" fill="white"/>
</g>
<g id="Mask group">
<mask id="mask0_1_2" style="mask-type:alpha" maskUnits="userSpaceOnUse" x="0" y="9" width="306" height="298">
<g id="Group_2">
<path id="Vector_46" d="M305.564 158.066C305.564 240.178 237.342 306.744 153.186 306.744C69.0306 306.744 0.808777 240.178 0.808777 158.066C0.808777 75.9531 69.0306 9.38769 153.186 9.38769C237.342 9.38769 305.564 75.9531 305.564 158.066Z" fill="#C4C4C4"/>
</g>
</mask>
<g mask="url(#mask0_1_2)">
<g id="Group_3">
<g id="element">
<path id="Vector_47" d="M164.403 131.337L157.511 119.784L155.029 124.083L159.165 131.337L155.581 137.518L158.338 141.817L164.403 131.337Z" fill="#135BC6"/>
<path id="Vector_48" d="M154.478 125.158L156.959 129.457L156.132 130.531H151.169L154.478 125.158Z" fill="#135BC6"/>
<path id="Vector_49" d="M155.856 135.637L158.338 131.337H145.655L138.762 142.891H143.725L148.136 135.637H155.856Z" fill="#135BC6"/>
<path id="Vector_50" d="M148.964 136.443H153.651L157.787 142.891H166.058L168.539 146.922L155.029 147.19L148.964 136.443Z" fill="#135BC6"/>
<path id="Vector_51" d="M147.309 138.592H149.24L151.721 142.891H144.828L147.309 138.592Z" fill="#135BC6"/>
<path id="Vector_52" d="M159.716 140.742L162.198 136.712L165.782 141.817H160.543L159.716 140.742Z" fill="#135BC6"/>
</g>
<path id="Vector_53" d="M184.762 54.8785C184.762 54.8785 188.868 42.7887 192.254 52.303C194.954 59.8805 190.454 67.2876 186.823 66.7768C183.191 66.2659 184.762 54.8785 184.762 54.8785Z" fill="#FFADA0"/>
<g id="Group 1">
<path id="Vector_54" d="M99.2767 157.624C99.2767 157.624 101.477 156.981 102.359 158.689C103.24 160.396 105.999 180.891 105.231 186.655C104.454 192.42 102.254 190.29 102.254 190.29C102.254 190.29 102.472 193.704 103.904 194.668L103.913 194.659C103.931 194.651 103.965 194.626 104.009 194.591C104.044 194.575 104.087 194.541 104.14 194.507H104.149C104.995 193.966 107.929 192.09 110.636 190.29C113.831 188.151 115.708 186.334 115.708 186.334C115.708 186.334 115.263 182.92 115.263 181.965C115.263 181.001 122.327 158.258 129.267 151.217C135.746 144.65 129.381 107.657 128.49 102.662L128.386 102.104C128.386 102.104 122.763 103.71 120.336 105.426C117.918 107.15 109.195 127.941 108.759 138.616C108.314 149.29 104.349 155.35 104.349 155.35C104.349 155.35 103.022 154.573 100.813 155.35L99.2767 157.624Z" fill="url(#paint0_linear_1_2)"/>
<path id="Vector_55" opacity="0.83" d="M104.149 194.507C104.995 193.966 107.929 192.09 110.636 190.29C113.831 188.151 115.708 186.334 115.708 186.334C115.708 186.334 115.263 182.92 115.263 181.965C115.263 181.001 122.327 158.258 129.267 151.217C135.746 144.65 129.381 107.657 128.49 102.662L128.386 102.104C128.386 102.104 123.811 107.657 121.829 118.703C119.838 129.758 122.65 151.538 122.65 151.538C122.65 151.538 118.686 169.152 108.925 169.473C108.925 169.473 117.114 181.077 113.884 186.901C113.264 188.008 105.642 193.484 104.149 194.507Z" fill="#436CF6"/>
<path id="Vector_56" d="M122.816 296.46C122.999 298.405 123.348 299.977 123.768 301.345V301.354C124.475 303.712 125.365 305.479 125.854 307.507C126.623 310.71 127.504 323.177 127.504 323.177H150.668C149.786 318.561 148.686 314.987 147.359 303.45C146.093 292.421 152.903 254.405 153.488 251.151C153.514 251.007 153.531 250.931 153.531 250.931C159.487 275.052 174.102 303.028 175.595 304.625C177.079 306.231 180.056 307.667 180.056 307.667C181.715 310.71 185.19 323.177 185.19 323.177H211.82C210.335 316.584 203.552 306.713 201.395 303.028C199.247 299.343 191.145 274.198 188.988 257.549C188.089 250.609 187.4 243.282 186.893 237.087V237.07C186.185 228.416 185.845 221.992 185.845 221.992C179.07 215.273 126.064 208.647 126.064 208.647L124.388 213.912C124.388 213.912 122.493 214.309 122.24 215.594C121.995 216.87 123.768 218.045 123.768 218.045C117.822 250.711 122.327 291.178 122.816 296.46Z" fill="url(#paint1_linear_1_2)"/>
<path id="Vector_57" opacity="0.62" d="M185.993 224.545C185.993 224.545 169.963 222.634 159.87 227.275C149.777 231.914 150.685 239.926 150.685 239.926L153.531 250.922L143.727 240.991L123.758 218.037C123.758 218.037 127.495 220.226 132.35 221.189C132.35 221.189 125.54 217.107 124.387 213.904L126.064 208.638L185.993 221.029V224.545Z" fill="#301E72"/>
<path id="Vector_58" d="M106.855 180.841C106.855 180.841 107.519 188.05 103.049 191.414C103.049 191.414 93.8639 186.774 89.35 179.193C84.8183 171.603 106.855 180.841 106.855 180.841Z" fill="url(#paint2_linear_1_2)"/>
<path id="Vector_59" d="M71.4773 158.139C71.4773 158.139 68.9191 160.151 68.9017 161.875C68.8842 163.599 73.1275 162.796 73.1275 162.796L71.4773 158.139Z" fill="url(#paint3_linear_1_2)"/>
<path id="Vector_60" d="M197.431 150.253L199.247 140.644C199.247 140.644 203.883 140.644 210.659 146.73C210.659 146.73 210.825 150.026 213.147 154.142C213.147 154.142 220.953 157.784 224.576 162.745C228.2 167.706 229.57 168.205 233.351 165.391C234.355 164.647 235.036 162.12 235.393 158.68C235.926 153.482 235.726 146.197 234.8 139.782C234.031 134.491 232.765 129.801 231.01 127.358C231.01 127.358 231.177 124.095 229.517 121.535C229.439 121.585 229.352 121.636 229.273 121.695C228.732 122.025 227.335 122.752 225.885 122.498C224.008 122.177 222.437 119.396 222.437 119.396C222.437 119.396 221.363 119.506 220.813 120.259C220.813 120.259 213.313 115.855 208.564 108.443C203.822 101.039 203.054 100.126 203.054 100.126C203.054 100.126 201.84 99.6448 200.199 99.349C198.907 99.1119 197.344 99.0024 195.886 99.3318C195.886 99.3318 172.836 133.815 197.431 150.253Z" fill="url(#paint4_linear_1_2)"/>
<path id="Vector_61" d="M148.346 102.103C148.346 102.103 151.219 97.9538 151.219 88.285L173.587 77.7205C173.587 77.7205 172.461 85.1753 176.25 91.6404C177.254 93.3479 181.925 96.0523 181.925 96.0523C181.925 96.0523 161.486 120.453 151.672 118.111C141.858 115.77 143.823 105.425 143.823 105.425C143.823 105.425 145.482 106.05 148.346 102.103Z" fill="#FF9B8B"/>
<path id="Vector_62" d="M179.175 94.2861C179.175 94.2861 168.096 104.978 158.561 105.578C148.346 106.22 150.031 97.9968 150.031 97.9968C150.031 97.9968 145.412 104.268 146.731 109.204C148.058 114.139 158.142 114.384 165.921 111.097C173.701 107.817 181.14 95.0639 181.14 95.0639L179.175 94.2861Z" fill="url(#paint5_linear_1_2)"/>
<path id="Vector_63" d="M180.175 93.9019C180.175 93.9019 169.042 104.646 159.46 105.248C149.194 105.894 150.888 97.6306 150.888 97.6306C150.888 97.6306 146.247 103.932 147.571 108.893C148.905 113.852 159.039 114.099 166.856 110.795C174.674 107.5 182.149 94.6829 182.149 94.6829L180.175 93.9019Z" fill="#CEC5FF"/>
<path id="Vector_64" d="M132.694 158.943C132.694 158.943 136.011 175.734 131.694 193.918C131.694 193.918 129.035 195.685 128.701 197.935C128.701 197.935 128.701 197.952 128.693 197.977C128.377 200.22 128.003 201.9 128.003 201.9C128.003 201.9 127.701 203.413 126.702 205.018C126.517 205.324 126.412 205.681 126.377 206.072C126.219 207.736 127.201 209.843 127.201 209.843C127.201 209.843 129.202 214.837 149.979 216.604C170.754 218.378 186.881 222.235 186.881 222.235C186.881 222.235 190.209 218.624 187.919 215.567C187.919 215.567 189.382 212.102 189.215 210.973C189.049 209.843 181.397 196.976 183.389 187.964C185.39 178.953 192.865 171.64 197.024 154.051C197.024 154.051 196.857 151.534 197.024 150.243C197.191 148.961 197.023 149.396 197.023 149.396C197.023 149.396 188.767 144.139 191.321 121.929C193.865 99.7191 194.969 101.336 196.182 99.3795C196.182 99.3795 201.726 100.645 195.839 98.989C195.839 98.989 192.453 98.5133 188.961 97.3325C185.468 96.1524 182.065 94.5678 182.065 94.5678C182.065 94.5678 162.077 111.16 152.839 110.098C142.293 108.892 149.733 97.7237 149.733 97.7237C149.733 97.7237 143.108 98.9718 139.563 99.77C136.011 100.578 134.686 99.77 134.686 99.77C134.686 99.77 129.974 100.205 127.201 102.235C124.429 104.256 123.604 111.95 124.71 129.972C125.816 147.995 132.694 158.943 132.694 158.943Z" fill="url(#paint6_linear_1_2)"/>
<path id="Vector_65" d="M57.1409 126.234C63.9772 143.957 82.731 181.644 82.731 181.644C107.432 186.233 130.595 182.387 130.595 182.387L131.922 180.317C123.322 155.131 104.786 122.287 104.786 122.287C82.0682 121.112 58.0227 124.628 58.0227 124.628L57.1409 126.234Z" fill="#06B25F"/>
<path id="Vector_66" opacity="0.3" d="M79.0297 152.899C79.0297 152.899 80.0774 164.799 77.2137 170.394L65.9332 146.568L71.3028 147.795L70.5955 150.203C70.5955 150.195 75.0571 149.992 79.0297 152.899Z" fill="#008444"/>
<path id="Vector_67" d="M66.7365 146.568C66.7365 146.568 64.9379 147.946 64.5886 149.079C64.2045 150.304 63.7069 153.397 67.4001 154.361L69.0502 154.793C69.0502 154.793 67.8366 155.325 67.6183 156.128C67.4001 156.93 68.7795 158.689 70.9798 159.12C73.1887 159.55 76.8819 158.689 77.982 157.733C79.0821 156.77 78.3662 155.434 76.716 155.063C76.716 155.063 79.1432 154.539 79.0297 152.908C78.9163 151.276 73.3459 149.518 67.4524 150.051L66.7365 146.568Z" fill="url(#paint7_linear_1_2)"/>
<path id="Vector_68" d="M62.267 138.447C62.267 138.447 59.2898 141.117 59.2898 142.959C59.2898 144.802 63.6727 147.126 71.1988 148.031C71.1988 148.031 71.9061 146.619 71.1988 145.098C70.4916 143.577 66.7285 141.438 63.629 140.965L62.267 138.447Z" fill="url(#paint8_linear_1_2)"/>
<path id="Vector_69" d="M70.9452 160.176C70.9452 160.176 76.0616 159.694 75.6163 164.216C75.6163 164.216 72.7526 164.605 70.6571 164.022C68.5617 163.439 68.841 161.883 69.0069 161.351C69.1641 160.818 69.3562 160.395 70.9452 160.176Z" fill="url(#paint9_linear_1_2)"/>
<path id="Vector_70" d="M176.485 83.1994C176.485 83.1994 166.882 99.3193 150.173 97.8865C150.173 97.8865 151.665 92.2289 151.499 88.1989C151.499 88.1989 159.289 88.0221 165.05 85.957C171.552 83.6298 176.475 77.6608 176.475 77.6608L176.485 83.1994Z" fill="url(#paint10_linear_1_2)"/>
<path id="Vector_71" d="M231.01 127.35C231.01 127.35 228.069 130.722 226.104 143.949C224.139 157.175 229.535 165.069 229.535 165.069C229.535 165.069 224.07 164.072 222.437 148.589C220.804 133.105 227.536 126.225 227.536 126.225L231.01 127.35Z" fill="url(#paint11_linear_1_2)"/>
<path id="Vector_72" opacity="0.5" d="M199.246 140.644C199.246 140.644 192.55 137.965 189.974 133.114C189.974 133.114 190.367 145.132 197.151 149.51C197.151 149.51 198.836 144.642 199.246 140.644Z" fill="#3739BE"/>
<path id="Vector_73" opacity="0.62" d="M153.531 250.922L150.004 238.431C150.004 238.431 143.875 229.835 133.921 225.914L143.727 240.459L153.531 250.922Z" fill="#281C6F"/>
<path id="Vector_74" opacity="0.62" d="M175.595 304.625C177.079 306.231 180.056 307.667 180.056 307.667C181.715 310.71 185.19 323.177 185.19 323.177H211.82C210.335 316.584 203.552 306.713 201.395 303.028C199.247 299.343 191.145 274.199 188.988 257.549C188.089 250.61 187.4 243.282 186.893 237.087C186.867 237.56 185.985 242.403 188.56 265.916C191.206 290.046 193.013 300.467 192.795 302.597C192.576 304.735 181.768 309.857 175.595 304.625Z" fill="#281C6F"/>
<path id="Vector_75" opacity="0.62" d="M123.767 301.354C124.474 303.712 125.365 305.479 125.854 307.507C126.622 310.71 127.504 323.177 127.504 323.177H150.667C149.786 318.561 148.686 314.987 147.359 303.45C146.093 292.421 152.902 254.405 153.488 251.151C152.72 254.649 144.163 294.077 142.234 297.424C138.034 304.676 126.657 307.135 123.767 301.354Z" fill="#281C6F"/>
<path id="Vector_76" opacity="0.62" d="M192.508 303.197C192.508 303.197 190.673 310.964 181.812 312.121L180.057 307.667C180.057 307.667 176.695 305.69 176.145 305.158C176.145 305.158 178.617 306.975 184.326 306.121C190.036 305.267 192.508 303.197 192.508 303.197Z" fill="url(#paint12_linear_1_2)"/>
<path id="Vector_77" opacity="0.62" d="M137.859 302.495C137.859 302.495 133.843 306.864 125.845 307.507C125.845 307.507 124.352 303.729 123.758 301.354C123.758 301.354 127.102 304.431 130.805 304.431C134.725 304.431 137.859 302.495 137.859 302.495Z" fill="url(#paint13_linear_1_2)"/>
<path id="Vector_78" d="M57.1409 126.234C90.5633 122.067 104.149 123.994 104.149 123.994C116.101 143.814 130.595 182.387 130.595 182.387L131.922 180.317C123.322 155.131 104.786 122.287 104.786 122.287C82.0682 121.112 58.0227 124.628 58.0227 124.628L57.1409 126.234Z" fill="#008444"/>
<path id="Vector_79" d="M69.05 154.784C69.05 154.784 73.4068 155.266 76.7159 155.055C76.7159 155.055 72.167 155.858 68.4825 155.105L69.05 154.784Z" fill="url(#paint14_linear_1_2)"/>
<path id="Vector_80" opacity="0.83" d="M181.996 101.816C181.978 101.884 181.952 101.943 181.925 102.01C181.961 101.918 181.987 101.851 181.996 101.816Z" fill="url(#paint15_linear_1_2)"/>
<path id="Vector_81" opacity="0.5" d="M117.044 149.544L81.0464 178.229L82.731 181.644C82.731 181.644 105.449 186.174 130.595 182.387L131.922 180.317C131.922 180.317 123.802 159.297 118.353 148.386L117.044 149.544Z" fill="#66D6A0"/>
<path id="Vector_82" opacity="0.62" d="M185.994 245.801C185.994 245.801 188.255 263.068 184.326 281.671L185.994 245.801Z" fill="#281C6F"/>
<path id="Vector_83" opacity="0.62" d="M148.956 249.858C148.956 249.858 142.827 273.345 137.868 283.326C137.868 283.326 147.638 270.353 151.183 261.597L153.488 251.151L150.685 239.935L148.956 249.858Z" fill="#281C6F"/>
<path id="Vector_84" d="M148.869 98.0813L150.022 97.9882C150.022 97.9882 147.638 101.682 147.14 104.724C146.643 107.767 148.73 109.728 151.96 110.395C151.96 110.395 146.756 110.099 146.093 106.634C145.429 103.169 148.869 98.0813 148.869 98.0813Z" fill="url(#paint16_linear_1_2)"/>
<path id="Vector_85" d="M140.196 72.0801C143.561 83.0899 150.05 86.3475 153.927 89.3054C159.431 92.2954 164.23 91.311 164.23 91.311C182.741 83.5555 184.551 75.745 185.77 67.0263C186.379 62.7249 186.932 54.7199 185.065 44.8245C184.818 43.4743 184.398 42.2591 183.865 41.1403C180.475 33.984 172.476 31.2064 172.476 31.2064C167.696 29.509 162.25 29.1425 157.279 30.0684C150.118 31.3993 144.481 35.1607 142.672 42.587C142.082 44.9789 141.757 47.4479 141.472 49.8976C140.843 54.9321 140.52 60.0244 140.348 65.0974C140.272 67.4121 140.215 69.7461 140.196 72.0801Z" fill="#FFADA0"/>
<path id="Vector_86" d="M157.812 45.1735C157.812 45.1735 147.871 43.2305 144.755 50.3178C144.755 50.3178 155.862 47.0794 157.984 48.6894L157.812 45.1735Z" fill="#38368E"/>
<path id="Vector_87" d="M168.381 46.22C168.381 46.22 178.169 43.6848 181.743 50.5686C181.743 50.5686 170.446 48.0149 168.438 49.7359L168.381 46.22Z" fill="#38368E"/>
<path id="Vector_88" d="M179.392 57.6009C179.187 60.5588 176.275 62.802 172.891 62.5837C169.507 62.3653 166.923 59.7846 167.128 56.8069C167.333 53.8491 170.245 51.6257 173.629 51.844C177.013 52.0624 179.596 54.6431 179.392 57.6009Z" fill="white"/>
<path id="Vector_89" d="M169.158 56.7449C168.974 59.3653 170.553 61.6085 172.665 61.7474C174.777 61.8864 176.643 59.8615 176.828 57.2412C177.013 54.6208 175.454 52.3776 173.321 52.2387C171.209 52.0997 169.343 54.1245 169.158 56.7449Z" fill="#7F9EC9"/>
<path id="Vector_90" d="M170.267 56.8238C170.144 58.6898 171.252 60.2779 172.749 60.3772C174.246 60.4764 175.578 59.0472 175.702 57.1811C175.825 55.3151 174.717 53.727 173.22 53.6277C171.723 53.5086 170.39 54.9577 170.267 56.8238Z" fill="#38368E"/>
<path id="Vector_91" d="M170.307 53.6091C170.266 54.1054 170.86 54.562 171.64 54.6216C172.419 54.6811 173.075 54.3039 173.116 53.7878C173.158 53.2717 172.542 52.8349 171.762 52.7754C171.004 52.7357 170.348 53.1129 170.307 53.6091Z" fill="white" fill-opacity="0.8"/>
<path id="Vector_92" d="M157.492 57.1374C157.292 60.0538 154.459 62.2555 151.167 62.043C147.875 61.8306 145.361 59.2812 145.561 56.3649C145.76 53.4293 148.593 51.2469 151.885 51.4593C155.177 51.6718 157.691 54.2212 157.492 57.1374Z" fill="white"/>
<path id="Vector_93" d="M148.374 56.3628C148.194 58.9121 149.73 61.0945 151.785 61.2297C153.84 61.3649 155.656 59.3949 155.835 56.8456C156.015 54.2962 154.479 52.1138 152.424 51.9786C150.369 51.8434 148.553 53.8134 148.374 56.3628Z" fill="#7F9EC9"/>
<path id="Vector_94" d="M149.451 56.442C149.331 58.2575 150.409 59.8026 151.865 59.8992C153.322 59.9957 154.619 58.5858 154.738 56.7704C154.858 54.9549 153.78 53.4098 152.324 53.3133C150.868 53.2167 149.591 54.6266 149.451 56.442Z" fill="#38368E"/>
<path id="Vector_95" d="M149.491 53.3116C149.451 53.7944 150.05 54.2385 150.789 54.2965C151.546 54.3544 152.185 53.9875 152.225 53.4854C152.265 52.9832 151.686 52.5583 150.928 52.5004C150.169 52.4617 149.532 52.8094 149.491 53.3116Z" fill="white" fill-opacity="0.8"/>
<path id="Vector_96" d="M140.856 54.8647C140.856 54.8647 137.206 43.7061 134.196 52.4876C131.797 59.4813 135.796 66.3375 139.023 65.8464C142.252 65.375 140.856 54.8647 140.856 54.8647Z" fill="#FFADA0"/>
<path id="Vector_97" d="M140.773 56.8582C140.773 56.8582 137.894 49.3217 136.393 52.034C134.891 54.7463 134.906 58.4525 134.906 58.4525C134.906 58.4525 135.975 54.5186 138.065 57.1066C138.065 57.1066 135.263 63.2559 139.937 61.9722C139.952 61.9722 141.981 60.2537 140.773 56.8582Z" fill="#E398AF"/>
<path id="Vector_98" d="M184.829 56.6275C184.829 56.6275 187.933 48.7634 189.552 51.5936C191.171 54.4239 191.154 58.2912 191.154 58.2912C191.154 58.2912 190.003 54.1863 187.75 56.8869C187.75 56.8869 190.77 63.3035 185.729 61.964C185.729 61.964 183.544 60.1708 184.829 56.6275Z" fill="#E398AF"/>
</g>
<path id="Vector_99" d="M170.757 73.8805C170.687 74.0865 169.286 77.365 167.016 79.8198C164.285 82.7722 160.295 84.5227 155.88 78.2061C154.94 76.8672 154 75.185 153.025 73.0738C153.025 73.0738 154.55 73.6401 156.784 74.2581C160.295 75.2193 165.508 76.3008 169.126 74.7387C169.729 74.7216 170.261 74.2581 170.757 73.8805Z" fill="#712311"/>
<path id="Vector_100" d="M167.015 79.855C164.284 82.8074 160.295 84.5415 155.88 78.2245C158.238 77.6066 163.823 76.6453 167.015 79.855Z" fill="#D5503B"/>
<path id="Vector_101" d="M169.126 74.826C163.363 81.0569 159.178 77.7783 156.784 74.311C160.295 75.2722 165.508 76.2507 169.126 74.826Z" fill="white"/>
<path id="Vector_102" d="M158.005 66.241C158.005 66.241 163.636 73.9874 168.852 65.5885L158.005 66.241Z" fill="#D8826C"/>
<path id="Vector_103" d="M184.99 60.7521C184.379 58.9987 184.012 55.3103 184.012 55.3103C184.012 55.3103 183.901 48.9492 183.89 48.1153C183.867 46.0947 182.823 36.9372 178.288 36.6912C177.233 36.6378 174.443 39.8344 170.742 41.2991C170.076 41.5664 164.431 38.0704 161.497 37.0762C152.762 34.1254 144.705 42.1651 144.705 42.1651C142.16 44.8806 141.971 49.1998 141.96 50.472C141.949 51.3166 142.038 51.2089 141.96 54.4696C141.916 56.3299 141.293 58.9881 140.671 60.7521C140.238 58.7742 139.137 55.8175 138.082 52.0436C136.326 45.7787 135.692 40.4011 136.015 39.0005L140.671 30.8112C146.994 19.7032 161.886 16.2393 172.787 23.3381L176.877 26.0003C182.589 24.0652 183.945 26.7807 185.534 28.8226C188.479 32.6286 189.624 36.1627 189.735 41.5082C189.779 43.4968 189.168 45.2501 187.602 50.9698C186.612 54.5834 185.39 58.9453 184.99 60.7521Z" fill="#293AA1"/>
<path id="Vector_104" d="M126.224 30.4158C129.98 37.3651 136.648 31.6881 139.115 26.5671C145.182 13.941 152.495 15.9082 152.495 15.9082C167.464 4.74669 171.399 16.0364 171.399 16.0364C183.111 14.9353 183.544 21.2322 181.778 26.8236C180.011 32.3937 175.955 37.0229 170.765 40.0057C170.531 40.134 170.299 40.273 170.076 40.4013C166.219 34.3181 159.04 33.7836 155.873 34.1791C151.617 34.7029 149.95 36.8839 147.205 39.0756C142.972 42.4539 141.082 43.9934 133.059 43.2771C120.189 42.1225 126.224 30.4158 126.224 30.4158Z" fill="#5A65BA"/>
<path id="Vector_105" d="M126.224 30.4158C129.98 37.3651 136.648 31.6881 139.115 26.5671C145.182 13.941 152.495 15.9082 152.495 15.9082C167.464 4.74669 171.399 16.0364 171.399 16.0364C183.111 14.9353 183.544 21.2322 181.778 26.8237C180.011 32.3937 175.955 37.0229 170.765 40.0057C170.531 40.134 170.299 40.273 170.076 40.4013C167.209 33.0779 159.685 32.4151 156.507 32.1799C154.595 32.0409 151.151 32.3616 148.494 34.3502C141.271 39.7598 141.093 43.9828 133.059 43.2665C120.189 42.1225 126.224 30.4158 126.224 30.4158Z" fill="#293AA1"/>
<path id="Vector_106" d="M126.224 30.4158C129.98 37.3651 136.648 31.6881 139.115 26.5671C145.182 13.941 152.495 15.9082 152.495 15.9082C167.464 4.74669 171.399 16.0364 171.399 16.0364C183.111 14.9353 183.544 21.2322 181.778 26.8237C180.011 32.3937 175.955 37.0229 170.765 40.0057C170.531 40.134 170.299 40.273 170.076 40.4013C167.209 33.0779 160.196 27.3796 157.007 27.1444C155.096 27.0054 151.65 27.3262 148.995 29.3253C141.771 34.735 141.082 43.9828 133.059 43.2665C120.189 42.1225 126.224 30.4158 126.224 30.4158Z" fill="#5A65BA"/>
<path id="Vector_107" d="M170.743 40.0163C170.743 40.0163 179.378 9.93177 162.942 10.9795C162.942 10.9795 157.285 11.5034 152.496 15.9081C152.496 15.9081 163.209 12.2517 166.843 17.5224C171.41 24.1508 171.744 32.6716 170.743 40.0163Z" fill="#293AA1"/>
<path id="Vector_108" d="M143.405 23.2206C143.405 23.2206 146.717 19.2649 153.684 18.987C160.397 18.709 169.632 21.6384 170.743 40.0162C170.743 40.0162 165.92 23.3169 153.084 20.9755C151.128 20.6227 148.395 20.751 143.405 23.2206Z" fill="#293AA1"/>
<g id="glass">
<path id="Vector_109" d="M141.58 54.6468C141.569 55.2691 141.047 55.7754 140.394 55.7754L139.142 55.7648C138.5 55.7543 137.978 55.2481 137.978 54.6152L138.054 46.7368C138.066 46.1145 138.588 45.6083 139.24 45.6083L140.481 45.6189C141.123 45.6294 141.645 46.1357 141.645 46.7685L141.58 54.6468Z" fill="#002E73"/>
<path id="Vector_110" d="M190.806 55.121C190.795 55.7432 190.273 56.2494 189.62 56.2494L188.379 56.2389C187.726 56.2284 187.215 55.7221 187.215 55.0893L187.291 47.2109C187.302 46.5887 187.824 46.0824 188.477 46.0824L189.718 46.0929C190.37 46.1035 190.882 46.6097 190.882 47.2425L190.806 55.121Z" fill="#002E73"/>
<path id="Vector_111" d="M160.588 36.7912L161.285 25.8226L168.39 25.8965L169.228 36.8757L160.588 36.7912Z" fill="#058145"/>
<path id="Vector_112" d="M187.246 41.6322C187.192 46.5575 177.116 50.4493 164.711 50.3227C152.318 50.2067 142.318 46.1145 142.361 41.1998C142.415 36.2744 152.502 32.3826 164.886 32.5092C177.29 32.6252 187.3 36.7068 187.246 41.6322Z" fill="#002E73"/>
<path id="Vector_113" d="M154.779 38.2999C163.278 38.1627 172.298 37.8253 180.774 38.901C183.484 39.3018 186.552 40.4724 188.99 42.1389V41.9912C189.022 38.7955 186.378 36.1799 183.081 36.1483L146.172 35.7897C142.875 35.7581 140.177 38.3209 140.144 41.5166V41.8224C143.637 38.1205 149.752 38.3842 154.779 38.2999Z" fill="white"/>
<path id="Vector_114" d="M170.294 62.093C169.196 61.6605 168.401 60.9434 167.237 60.5742C165.996 60.2051 164.604 60.1945 163.364 60.2578C162.634 60.3211 161.818 60.3843 161.231 60.6585C160.132 61.0066 159.315 61.9875 158.065 62.1879C156.965 62.3882 151.035 62.3355 149.425 62.1034C147.673 61.8714 145.627 61.3547 144.017 60.7746C142.961 60.3738 141.057 59.1609 140.023 57.8637C140.132 60.9434 142.711 63.4218 145.921 63.4534C149.196 63.4851 157.117 63.8121 157.77 63.7276C158.565 63.6222 158.804 63.0843 159.37 62.5992C160.719 61.4496 162.624 60.9328 164.397 60.9434C166.138 60.9644 167.977 61.4917 169.304 62.6203C169.826 63.0632 170.088 63.675 170.806 63.7909C171.938 63.9913 181.339 63.7909 182.819 63.8015C186.084 63.8331 188.76 61.3125 188.836 58.1695C187.563 59.3508 185.996 60.5847 184.364 61.2281C181.198 62.557 171.459 62.673 170.294 62.093Z" fill="white"/>
<path id="Vector_115" d="M188.999 42.1491C186.561 40.4828 183.494 39.3015 180.784 38.9113C172.297 37.8355 163.287 38.173 154.788 38.3102C149.751 38.384 143.635 38.1203 140.164 41.8327L140.001 57.6213C140.001 57.7056 140.012 57.79 140.012 57.8743C141.046 59.1716 142.961 60.3845 144.005 60.7853C145.616 61.3654 147.662 61.8821 149.413 62.1142C151.024 62.3462 156.954 62.3989 158.053 62.1985C159.305 61.9981 160.12 61.0067 161.22 60.6692C161.807 60.395 162.613 60.3317 163.352 60.2685C164.592 60.2052 165.985 60.2263 167.226 60.5849C168.39 60.954 169.195 61.6712 170.283 62.1036C171.448 62.6837 181.197 62.5677 184.353 61.2493C185.974 60.6165 187.541 59.372 188.825 58.1908C188.825 58.1591 188.825 58.1275 188.825 58.0959L188.999 42.1491Z" fill="#1B9D5E"/>
<g id="Mask group_2">
<mask id="mask1_1_2" style="mask-type:alpha" maskUnits="userSpaceOnUse" x="140" y="38" width="49" height="25">
<g id="Group_4">
<path id="Vector_116" d="M188.999 42.1491C186.561 40.4828 183.494 39.3015 180.784 38.9113C172.297 37.8355 163.287 38.173 154.788 38.3102C149.751 38.384 143.635 38.1203 140.164 41.8327L140.001 57.6213C140.001 57.7056 140.012 57.79 140.012 57.8743C141.046 59.1716 142.961 60.3845 144.005 60.7853C145.616 61.3654 147.662 61.8821 149.413 62.1142C151.024 62.3462 156.954 62.3989 158.053 62.1985C159.305 61.9981 160.12 61.0067 161.22 60.6692C161.807 60.395 162.613 60.3317 163.352 60.2685C164.592 60.2052 165.985 60.2263 167.226 60.5849C168.39 60.954 169.195 61.6712 170.283 62.1036C171.448 62.6837 181.197 62.5677 184.353 61.2493C185.974 60.6165 187.541 59.372 188.825 58.1908C188.825 58.1591 188.825 58.1275 188.825 58.0959L188.999 42.1491Z" fill="#06B25F"/>
</g>
</mask>
<g mask="url(#mask1_1_2)">
<g id="Group_5">
<g id="Group_6" opacity="0.2">
<path id="Vector_117" opacity="0.2" d="M191.144 21.2764L123.31 61.681L123.343 59.2131L191.176 18.8085L191.144 21.2764Z" fill="white"/>
<path id="Vector_118" opacity="0.2" d="M190.97 38.6044L123.137 79.0091L123.301 63.1677L191.133 22.7632L190.97 38.6044Z" fill="white"/>
<path id="Vector_119" opacity="0.2" d="M190.893 45.8397L123.06 86.2442L123.103 82.0992L190.937 41.6949L190.893 45.8397Z" fill="white"/>
<path id="Vector_120" opacity="0.2" d="M190.861 49.3518L123.027 89.7561L123.049 87.9845L190.883 47.5799L190.861 49.3518Z" fill="white"/>
</g>
</g>
</g>
</g>
</g>
<path id="Vector_121" fill-rule="evenodd" clip-rule="evenodd" d="M270.161 84.9609C268.497 85.6949 267.081 86.2935 266.124 86.6597C269.827 87.9305 272.869 89.1677 271.747 89.5699C270.137 90.1404 263.527 88.616 262.359 87.4759C262.31 87.515 262.262 87.5534 262.214 87.5909C261.802 88.0761 261.451 88.49 261.179 88.8124C261.295 88.821 261.391 88.8351 261.462 88.8563C261.954 88.7561 262.083 88.785 261.518 89.0887C261.469 89.1325 261.394 89.1818 261.293 89.2366C261.932 89.4924 262.609 89.7413 263.235 89.9721C264.757 90.5332 265.986 90.9855 265.684 91.1631C265.297 91.394 265.35 91.5943 265.417 91.8533C265.537 92.315 265.704 92.9613 263.529 94.2932C260.141 96.3723 260.538 100.135 260.538 100.135C260.538 100.135 255.108 129.657 252.462 141.396C249.817 153.135 239.671 165.306 230.845 165.847C230.845 165.847 222.908 162.855 222.463 147.059C222.017 131.245 227.535 126.234 227.535 126.234L231.01 127.358C231.01 127.358 246.892 118.238 252.017 96.0523C252.017 96.0523 255.341 96.6932 255.175 94.2932C255.081 92.9355 255.106 92.7947 255.285 91.7907C255.422 91.0191 255.649 89.7374 255.983 87.0009C256.054 86.4242 256.11 85.9484 256.155 85.5603C256.072 85.5822 256.016 85.6268 255.993 85.6941C255.974 85.8099 255.968 85.8428 255.983 85.7324C255.985 85.7191 255.988 85.7066 255.993 85.6941C256 85.6534 256.008 85.6033 256.017 85.5446C256.146 84.7504 256.501 82.5562 256.155 85.5603C256.538 85.4586 257.494 85.8381 258.447 86.6339C258.372 85.8013 258.292 84.946 258.211 84.1009C256.932 83.694 256.071 83.4076 255.983 83.3239C255.872 83.2159 256.779 83.1376 258.113 83.0875C257.759 79.452 257.421 76.2668 257.421 76.2668C257.421 76.2668 257.616 75.9819 257.944 75.511L257.613 77.3573L265.541 82.1618C265.229 82.4701 264.928 82.7651 264.636 83.0476C265.191 83.0594 265.679 83.0766 266.06 83.0977C266.178 82.9623 266.295 82.827 266.413 82.69L267.655 83.4428C267.609 83.4772 267.564 83.5117 267.518 83.5453C267.622 83.55 267.731 83.5539 267.845 83.5578L270.161 84.9609ZM264.228 86.0235C265.239 85.2504 266.363 84.4069 267.518 83.5453C266.283 83.4952 265.741 83.4217 266.492 83.3239C267.265 83.2237 266.953 83.1486 266.06 83.0977C265.221 84.0712 264.419 85.0071 263.698 85.8498C263.875 85.9077 264.052 85.9649 264.228 86.0235ZM263.732 86.4046C263.893 86.2794 264.059 86.1527 264.228 86.0235C264.574 86.137 264.919 86.2513 265.26 86.3663C264.712 86.3749 264.203 86.3874 263.732 86.4046ZM263.207 86.4258C263.366 86.2395 263.53 86.047 263.698 85.8498C263.177 85.68 262.657 85.5118 262.148 85.349C261.593 85.8373 261.087 86.263 260.626 86.6331C261.296 86.5439 262.147 86.4735 263.207 86.4258ZM263.036 86.6253C263.093 86.5596 263.15 86.4931 263.207 86.4258C263.377 86.4179 263.551 86.4109 263.732 86.4046C263.678 86.4453 263.625 86.4868 263.572 86.5275C264.024 86.461 264.599 86.4117 265.311 86.3835C265.584 86.4751 265.856 86.5674 266.124 86.6597C265.244 86.9954 264.751 87.1347 264.808 87.0009C264.961 86.6417 263.868 86.9391 262.402 87.4415C262.763 87.1558 263.155 86.8491 263.572 86.5275C263.369 86.5564 263.192 86.5893 263.036 86.6253ZM262.334 87.4509C262.553 87.1934 262.788 86.9172 263.036 86.6253C262.168 86.8264 262.019 87.1214 262.334 87.4509ZM262.334 87.4509C262.328 87.4579 262.323 87.4642 262.317 87.4712C262.326 87.4681 262.336 87.4649 262.344 87.4618C262.341 87.4579 262.338 87.454 262.334 87.4509ZM259.934 88.3288C259.936 88.3281 259.939 88.3273 259.942 88.3257C260.75 88.0299 261.578 87.7263 262.317 87.4712C262.282 87.5119 262.248 87.5518 262.214 87.5909C261.626 88.0612 261.13 88.4728 260.76 88.803C260.621 88.8046 260.468 88.8109 260.306 88.8203C260.401 88.8633 260.499 88.9063 260.598 88.9494C260.543 89.001 260.491 89.0503 260.442 89.0973C260.552 89.0691 260.658 89.0433 260.76 89.0182C260.82 89.0433 260.88 89.0683 260.94 89.0934C260.98 89.0472 261.023 88.9971 261.067 88.9439C261.215 88.9087 261.348 88.8789 261.462 88.8563C261.614 88.9009 261.648 88.976 261.518 89.0887C261.444 89.1286 261.358 89.1732 261.259 89.2233C261.27 89.228 261.281 89.2319 261.293 89.2366C261.122 89.3297 260.875 89.44 260.538 89.5699C260.488 89.4306 260.434 89.2945 260.376 89.1622C260.397 89.1411 260.419 89.1192 260.442 89.0973C260.414 89.1043 260.385 89.1114 260.357 89.1184C260.311 89.019 260.264 88.9212 260.216 88.8257C260.246 88.8234 260.276 88.8218 260.306 88.8203C260.264 88.8015 260.224 88.7835 260.184 88.7647C260.105 88.6145 260.021 88.4697 259.934 88.3288ZM259.39 87.5784C259.76 87.3108 260.171 86.9986 260.626 86.6331C259.79 86.7442 259.234 86.8851 258.903 87.0479C259.069 87.2122 259.232 87.389 259.39 87.5784ZM258.821 87.9759C258.999 87.8562 259.189 87.724 259.39 87.5784C259.582 87.8108 259.766 88.0612 259.934 88.3288C259.812 88.3734 259.691 88.418 259.571 88.4619C259.263 88.2968 259.005 88.134 258.821 87.9759ZM258.581 88.1348C258.601 88.3609 258.619 88.5832 258.638 88.8015C258.332 88.9118 258.041 89.0159 257.768 89.109C258.052 89.0644 258.352 89.0214 258.653 88.983C258.668 89.1653 258.683 89.3453 258.697 89.5214C257.271 89.8454 255.919 90.0574 255.983 89.5699C255.932 89.5511 255.94 89.5253 255.998 89.4956C256.04 89.3477 256.147 89.3125 256.4 89.2287C256.758 89.1106 257.408 88.8962 258.581 88.1348ZM255.998 89.4956C256.187 89.3954 256.906 89.2444 257.768 89.109C256.843 89.4283 256.153 89.6302 255.983 89.5699C255.987 89.5417 255.991 89.5175 255.998 89.4956ZM258.813 93.5107C258.887 93.6554 258.916 93.4418 258.91 92.9645C258.755 93.1178 258.696 93.2853 258.813 93.5107ZM258.536 87.6222C258.53 87.5541 258.524 87.4853 258.518 87.4164C258.502 87.4829 258.509 87.5518 258.536 87.6222ZM260.538 89.5699C260.538 89.5699 260.682 89.4001 260.94 89.0934C261.045 89.1372 261.151 89.1802 261.259 89.2233C261.068 89.3187 260.83 89.4337 260.538 89.5699ZM262.148 85.349C261.29 85.0744 260.463 84.813 259.707 84.5743C259.166 84.4037 258.662 84.2449 258.211 84.1009C258.178 83.7613 258.146 83.4225 258.113 83.0875C259.99 83.0179 262.714 83.0046 264.636 83.0476C263.712 83.9397 262.886 84.7003 262.148 85.349Z" fill="url(#paint17_linear_1_2)"/>
<path id="Vector_122" d="M277.729 80.9098C277.729 80.9098 275.289 87.7834 270.135 90.829C270.135 90.829 274.358 89.6826 277.194 83.3771L277.729 80.9098Z" fill="#E28183"/>
</g>
</g>
</g>
<path id="Vector_123" d="M96.5582 46.5847H76.6067C75.8212 46.5847 75.1792 45.9698 75.1792 45.2027C75.1792 44.4424 75.8144 43.8209 76.6067 43.8209H96.5582C97.3439 43.8209 97.9858 44.4358 97.9858 45.2027C97.9858 45.9631 97.3439 46.5847 96.5582 46.5847Z" fill="#66D6A0"/>
<path id="Vector_124" d="M96.5574 53.481H76.6059C75.8204 53.481 75.1784 52.8661 75.1784 52.0991C75.1784 51.3387 75.8136 50.7172 76.6059 50.7172H96.5574C97.3431 50.7172 97.9849 51.3321 97.9849 52.0991C97.9849 52.8594 97.3431 53.481 96.5574 53.481Z" fill="#66D6A0"/>
<path id="circle" d="M247.093 209.714C239.204 209.714 232.811 215.903 232.811 223.54C232.811 231.176 239.204 237.365 247.093 237.365C254.982 237.365 261.375 231.176 261.375 223.54C261.375 215.903 254.982 209.714 247.093 209.714ZM247.093 233.921C241.164 233.921 236.363 229.272 236.363 223.533C236.363 217.794 241.164 213.146 247.093 213.146C253.021 213.146 257.823 217.794 257.823 223.533C257.823 229.272 253.021 233.921 247.093 233.921Z" fill="#66D6A0"/>
<g id="Group_7" filter="url(#filter1_d_1_2)">
<path id="Vector_125" d="M253.221 107.206C252.929 107.083 252.639 106.957 252.35 106.833C249.364 105.539 247.075 102.803 247.185 99.7152C247.344 95.2611 247.928 90.5512 248.703 86.2067C249.348 82.5953 250.831 79.1218 250.797 75.3964C250.756 71.046 251.353 66.794 252.383 62.711C252.817 60.9876 253.259 59.1806 253.826 57.5148C254.112 56.6779 254.343 55.8112 254.656 54.9891C254.84 54.5029 255.191 53.5118 255.894 53.5891C255.947 53.595 256.004 53.6052 256.046 53.5809C256.084 53.5611 256.1 53.521 256.116 53.4809C256.448 52.6801 256.763 51.8447 257.235 51.1298C257.631 50.5328 258.442 50.8509 259.067 51.0992C259.423 51.2405 261.074 51.8657 261.365 52.8378C262.154 51.1942 262.764 49.4349 263.599 47.8052C263.601 47.8017 263.602 47.7981 263.605 47.7972C265.368 48.102 267.102 48.9237 268.494 50.2267C267.41 53.0154 266.323 55.8049 265.238 58.5909C264.66 60.0712 264.077 61.6465 264.38 63.32C265.014 60.7693 266.15 58.4091 267.713 56.3975C269.028 54.7057 270.65 53.2256 271.658 51.3282C271.74 51.3481 271.823 51.3741 271.907 51.3965C272.031 51.4507 272.155 51.5083 272.274 51.5705C272.946 51.9171 273.548 52.3389 274.163 52.8209C274.541 53.1156 274.906 53.4272 275.261 53.7523C275.584 54.241 275.86 54.7807 276.104 55.3445C274.201 58.07 272.349 60.836 270.92 63.8741C269.127 67.684 268.011 71.963 268.467 76.4452C268.56 77.353 268.856 78.2649 269.382 79.0678C272.204 83.3935 278.301 77.8596 280.574 76.0718C280.679 76.1394 280.781 76.2142 280.882 76.2986C281.997 77.2272 282.631 78.7861 283.073 80.114C283.298 80.794 283.481 81.4826 283.649 82.1704C283.569 82.2182 283.486 82.2667 283.4 82.3191C281.97 83.2362 279.355 85.1119 278.046 86.1832C275.517 88.2537 273.878 91.1748 270.889 92.7532C266.791 94.9168 263.037 95.6234 262.188 100.853C262.08 101.52 261.973 102.182 261.864 102.85C261.225 106.81 257.17 108.878 253.221 107.206Z" fill="#84B5FF"/>
<path id="Vector_126" d="M266.52 74.1086C265.879 68.3903 267.793 62.0895 271.048 57.9712C271.91 56.882 272.83 55.8396 273.626 54.7001C274.357 53.654 275.056 54.3117 274.895 54.2536C276.29 54.6192 275.59 57.6582 274.48 59.3166C272.884 61.6976 271.792 63.0679 270.519 65.3895C269.629 67.0126 268.961 69.8356 268.408 71.6449C267.854 73.4481 268.143 73.8823 268.288 75.8696C268.546 79.4191 269.095 78.3416 270.409 80.1711C270.409 80.1711 274.115 79.2344 274.532 79.1304C276.131 78.7235 277.943 75.2467 279.627 75.9188C279.821 75.9969 279.981 76.1016 280.173 76.2326C280.523 77.2945 280.545 76.9762 280.435 77.3256C280.691 77.0741 280.325 77.675 280.435 77.3256C279.352 78.3885 278.101 79.1883 276.78 79.9544C274.704 81.1571 270.644 82.2064 268.167 80.0944C266.342 78.5396 266.764 76.2718 266.52 74.1086Z" fill="#0D6EB7"/>
<path id="Vector_127" d="M266.694 50.9673C266.655 51.0486 266.614 51.1279 266.575 51.2092C265.467 53.549 265.373 55.2795 264.63 57.9096C264.263 59.2146 263.927 60.5556 263.712 61.9553C263.585 62.7812 263.483 63.6179 263.475 64.4909C263.409 64.8419 263.345 65.1897 263.282 65.5401C262.73 66.0715 262.071 65.4174 261.668 64.5779C261.501 64.2286 261.378 63.851 261.324 63.511C261.197 62.6933 261.338 61.9546 261.486 61.2473C262.231 57.7002 262.935 53.6237 264.584 50.7772C265.04 49.9877 265.28 49.3341 266.474 50.6458C266.565 50.7437 266.634 50.8513 266.694 50.9673Z" fill="#276ED8"/>
<path id="Vector_128" d="M256.864 63.8958C256.7 63.9056 256.502 63.8121 256.256 63.5635C256.006 63.3084 255.884 62.9619 255.839 62.6298C255.72 61.7457 256.066 60.9278 256.405 60.1573C257.143 58.4872 257.616 56.6875 258.359 55.0631C258.566 54.6118 259.21 53.233 259.847 54.5754C260.16 55.236 259.776 56.2793 259.573 56.8172C259.117 58.0261 258.684 59.2469 258.277 60.4779C258.072 61.1017 257.843 61.7266 257.664 62.3585C257.539 62.795 257.38 63.8632 256.864 63.8958Z" fill="#276ED8"/>
<path id="Vector_129" d="M248.148 87.4806C248.48 85.7512 248.834 84.115 249.385 82.2174C249.412 82.262 249.53 82.4208 249.559 82.4686C252.933 88.5691 259.027 93.3596 265.842 94.8456C265.881 94.8535 265.917 94.866 265.953 94.8746C265.011 96.2205 263.77 97.2644 263.218 98.7512C257.202 96.8403 252.024 92.5176 248.148 87.4806Z" fill="#276ED8"/>
<path id="Vector_130" d="M246.36 100.635C246.682 98.4546 246.934 97.0656 247.308 94.9012C247.362 94.9896 247.415 95.0812 247.461 95.179C250.136 100.746 255.804 103.968 261.514 102.992C261.69 102.963 261.861 102.951 262.025 102.957C262.043 104.614 261.592 106.338 261.42 107.954C255.75 108.507 250.452 106.781 246.36 100.635Z" fill="#276ED8"/>
<path id="Vector_131" opacity="0.33" d="M248.792 89.343C248.888 88.8602 248.988 88.3828 249.09 87.9063C249.464 86.8021 249.878 85.7145 250.335 84.651C252.127 87.738 254.642 90.48 257.611 92.6053C257.195 93.5639 256.846 94.5569 256.513 95.5562C256.368 95.8426 256.227 96.1337 256.09 96.4224C253.333 94.4262 250.873 91.9848 248.792 89.343Z" fill="white"/>
<path id="Vector_132" opacity="0.33" d="M258.783 97.1447C258.552 97.003 258.324 96.8614 258.095 96.7127C258.767 95.4396 259.464 94.1641 260.021 92.8236C260.155 92.9034 260.291 92.9793 260.425 93.0552C259.867 94.4121 259.32 95.7737 258.783 97.1447Z" fill="white"/>
<path id="Vector_133" opacity="0.33" d="M256.366 105.475C256.06 106.378 255.768 107.3 255.57 108.254C255.29 108.148 255.012 108.036 254.734 107.911C255.291 106.389 255.79 104.84 256.301 103.297C256.54 103.397 256.781 103.487 257.026 103.568C256.806 104.205 256.585 104.839 256.366 105.475Z" fill="white"/>
<path id="Vector_134" opacity="0.33" d="M254.289 103.391C253.777 104.822 253.276 106.257 252.741 107.678C250.943 106.535 249.267 104.931 247.757 102.763C248.086 100.675 248.344 99.3443 248.726 97.2714C248.78 97.3567 248.833 97.4459 248.88 97.5398C250.133 100.024 252.034 102.031 254.289 103.391Z" fill="white"/>
<path id="Vector_135" d="M248.839 103.34C248.554 101.798 248.45 100.017 248.586 98.1502C248.879 94.1335 249.106 90.3274 250.684 89.2311C251.162 88.8993 252.734 89.3414 253.244 89.44C255.435 89.8626 256.902 94.4473 256.522 99.6792C256.288 102.888 255.5 105.485 254.46 107.131C254.295 107.393 253.902 107.79 253.532 107.77C253.316 107.76 251.835 107.509 251.553 107.159C250.628 106.004 249.727 104.514 248.839 103.34Z" fill="#194484"/>
<path id="Vector_136" d="M248.272 102.813C247.568 101.841 247.211 100.717 247.287 99.6072C247.318 99.1729 247.36 98.7285 247.415 98.2793C248.106 92.7555 249.596 88.2326 251.958 89.2193C254.776 89.4596 256.294 93.9966 255.601 99.522C255.139 103.218 254.586 105.842 253.148 107.388C253.012 107.532 252.709 107.743 251.939 107.285C250.668 105.642 249.486 104.493 248.272 102.813Z" fill="#06B25F"/>
<path id="Vector_137" opacity="0.33" d="M265.228 79.1194C265.268 82.5054 262.705 84.9562 259.501 84.5947C256.297 84.2332 253.667 81.1954 253.625 77.8097C253.584 74.4244 256.148 71.9732 259.352 72.335C262.556 72.6968 265.187 75.7344 265.228 79.1194Z" fill="white"/>
<path id="Vector_138" d="M259.492 82.5914C261.383 82.8309 262.884 81.179 262.847 78.9027C262.81 76.6265 261.247 74.5867 259.357 74.3501C257.466 74.1109 255.965 75.7623 256.002 78.0388C256.041 80.312 257.603 82.352 259.492 82.5914Z" fill="#276ED8"/>
<path id="Vector_139" opacity="0.33" d="M259.462 80.6954C260.482 80.8253 261.296 79.9317 261.274 78.7031C261.255 77.473 260.41 76.3715 259.389 76.2417C258.369 76.1121 257.555 77.0056 257.577 78.2345C257.597 79.4669 258.442 80.5655 259.462 80.6954Z" fill="white"/>
<path id="Vector_140" opacity="0.33" d="M266.656 60.2691C267.336 60.3601 267.89 59.6585 267.887 58.6997C267.887 57.7437 267.334 56.8933 266.652 56.8032C265.973 56.7123 265.419 57.4139 265.421 58.3726C265.423 59.3286 265.974 60.179 266.656 60.2691Z" fill="white"/>
<path id="Vector_141" opacity="0.33" d="M275.995 81.7361C276.568 82.4897 277.613 82.6744 278.331 82.1493C279.048 81.6242 279.167 80.5858 278.593 79.8315C278.02 79.0779 276.975 78.8933 276.258 79.4183C275.54 79.9434 275.422 80.9826 275.995 81.7361Z" fill="white"/>
<path id="Vector_142" opacity="0.33" d="M262.41 55.7379C262.406 56.6355 261.902 57.3032 261.285 57.2292C260.667 57.1554 260.17 56.3678 260.173 55.4703C260.177 54.5727 260.681 53.905 261.298 53.9789C261.916 54.0528 262.413 54.8404 262.41 55.7379Z" fill="white"/>
<path id="Vector_143" opacity="0.33" d="M255.779 59.3178C256.409 59.425 256.894 58.7576 256.856 57.8238C256.818 56.8899 256.278 56.0454 255.647 55.9382C255.017 55.831 254.532 56.4984 254.57 57.4322C254.606 58.3669 255.147 59.208 255.779 59.3178Z" fill="white"/>
<path id="Vector_144" d="M248.396 102.811C248.393 102.535 248.399 102.25 248.422 101.96C248.578 99.7747 249.376 98.1385 250.203 98.3012C251.031 98.4679 251.574 100.371 251.418 102.556C251.317 103.989 250.935 105.177 250.453 105.786C249.76 104.799 249.077 103.805 248.396 102.811Z" fill="#194484"/>
<path id="Vector_145" d="M250.493 95.0154L250.636 93.8589L249.231 92.6475L248.887 92.6742L250.148 95.042L250.493 95.0154Z" fill="#194484"/>
<path id="Vector_146" d="M250.173 95.1148L250.321 93.9465L248.918 92.725L248.77 93.8933L250.173 95.1148Z" fill="#194484"/>
<path id="Vector_147" d="M252.467 96.4631L252.611 95.3073L251.206 94.0952L250.861 94.1226L252.121 96.4881L252.467 96.4631Z" fill="#194484"/>
<path id="Vector_148" d="M252.143 96.564L252.292 95.3981L250.891 94.1758L250.743 95.3441L252.143 96.564Z" fill="#194484"/>
<path id="Vector_149" d="M254.461 97.9319L254.604 96.7753L253.2 95.564L252.855 95.5914L254.117 97.9585L254.461 97.9319Z" fill="#194484"/>
<path id="Vector_150" d="M254.14 98.0352L254.288 96.8669L252.886 95.6446L252.738 96.8129L254.14 98.0352Z" fill="#194484"/>
<path id="Vector_151" d="M45.9543 71.2627C45.9479 71.2555 45.9405 71.2509 45.9369 71.2443C45.9104 71.2181 45.9789 71.2857 45.9543 71.2627Z" fill="#194484"/>
<path id="Vector_152" opacity="0.43" d="M50.292 77.4214C48.7952 76.0779 46.5788 73.6957 45.2496 72.1653C45.3159 72.0363 45.3821 71.9073 45.4542 71.7789C46.8788 73.3901 49.5528 76.272 50.9399 77.7575C50.8446 77.7103 50.3894 77.5076 50.292 77.4214Z" fill="#276ED8"/>
</g>
</g>
<defs>
<filter id="filter0_d_1_2" x="5.89206" y="209.062" width="69.0935" height="66.5093" filterUnits="userSpaceOnUse" color-interpolation-filters="sRGB">
<feFlood flood-opacity="0" result="BackgroundImageFix"/>
<feColorMatrix in="SourceAlpha" type="matrix" values="0 0 0 0 0 0 0 0 0 0 0 0 0 0 0 0 0 0 127 0" result="hardAlpha"/>
<feOffset dx="5" dy="5"/>
<feGaussianBlur stdDeviation="4"/>
<feColorMatrix type="matrix" values="0 0 0 0 0 0 0 0 0 0 0 0 0 0 0 0 0 0 0.2 0"/>
<feBlend mode="normal" in2="BackgroundImageFix" result="effect1_dropShadow_1_2"/>
<feBlend mode="normal" in="SourceGraphic" in2="effect1_dropShadow_1_2" result="shape"/>
</filter>
<filter id="filter1_d_1_2" x="37.2496" y="43.7972" width="254.399" height="76.4569" filterUnits="userSpaceOnUse" color-interpolation-filters="sRGB">
<feFlood flood-opacity="0" result="BackgroundImageFix"/>
<feColorMatrix in="SourceAlpha" type="matrix" values="0 0 0 0 0 0 0 0 0 0 0 0 0 0 0 0 0 0 127 0" result="hardAlpha"/>
<feOffset dy="4"/>
<feGaussianBlur stdDeviation="4"/>
<feColorMatrix type="matrix" values="0 0 0 0 0.0771528 0 0 0 0 0.152763 0 0 0 0 0.420833 0 0 0 0.25 0"/>
<feBlend mode="normal" in2="BackgroundImageFix" result="effect1_dropShadow_1_2"/>
<feBlend mode="normal" in="SourceGraphic" in2="effect1_dropShadow_1_2" result="shape"/>
</filter>
<linearGradient id="paint0_linear_1_2" x1="115.706" y1="194.665" x2="115.706" y2="102.101" gradientUnits="userSpaceOnUse">
<stop stop-color="#4485E4"/>
<stop offset="1" stop-color="#4384E4"/>
</linearGradient>
<linearGradient id="paint1_linear_1_2" x1="166.267" y1="323.174" x2="166.267" y2="208.644" gradientUnits="userSpaceOnUse">
<stop stop-color="#1C257B"/>
<stop offset="1" stop-color="#482C83"/>
</linearGradient>
<linearGradient id="paint2_linear_1_2" x1="97.8088" y1="191.407" x2="97.8088" y2="176.195" gradientUnits="userSpaceOnUse">
<stop offset="0.016" stop-color="#FFC2A9"/>
<stop offset="1" stop-color="#FF9595"/>
</linearGradient>
<linearGradient id="paint3_linear_1_2" x1="71.0164" y1="162.98" x2="71.0164" y2="158.138" gradientUnits="userSpaceOnUse">
<stop offset="0.016" stop-color="#FFA58B"/>
<stop offset="1" stop-color="#FF898E"/>
</linearGradient>
<linearGradient id="paint4_linear_1_2" x1="210.88" y1="167.101" x2="210.88" y2="99.1221" gradientUnits="userSpaceOnUse">
<stop stop-color="#3378DD"/>
<stop offset="1" stop-color="#5491EB"/>
</linearGradient>
<linearGradient id="paint5_linear_1_2" x1="163.813" y1="113.284" x2="163.813" y2="94.283" gradientUnits="userSpaceOnUse">
<stop stop-color="#D1C8F8"/>
<stop offset="1" stop-color="#EEE5F9"/>
</linearGradient>
<linearGradient id="paint6_linear_1_2" x1="162.897" y1="222.231" x2="162.897" y2="93.898" gradientUnits="userSpaceOnUse">
<stop stop-color="#67A1F8"/>
<stop offset="1" stop-color="#1B67D9"/>
</linearGradient>
<linearGradient id="paint7_linear_1_2" x1="71.6779" y1="159.225" x2="71.6779" y2="146.568" gradientUnits="userSpaceOnUse">
<stop offset="0.016" stop-color="#FFC2A9"/>
<stop offset="1" stop-color="#FF9595"/>
</linearGradient>
<linearGradient id="paint8_linear_1_2" x1="65.403" y1="148.035" x2="65.403" y2="138.447" gradientUnits="userSpaceOnUse">
<stop offset="0.016" stop-color="#FFC2A9"/>
<stop offset="1" stop-color="#FF9595"/>
</linearGradient>
<linearGradient id="paint9_linear_1_2" x1="72.2655" y1="164.347" x2="72.2655" y2="160.165" gradientUnits="userSpaceOnUse">
<stop offset="0.016" stop-color="#FFC2A9"/>
<stop offset="1" stop-color="#FF9595"/>
</linearGradient>
<linearGradient id="paint10_linear_1_2" x1="176.487" y1="87.8139" x2="150.178" y2="87.8139" gradientUnits="userSpaceOnUse">
<stop stop-color="#CF6074"/>
<stop offset="1" stop-color="#FF817F"/>
</linearGradient>
<linearGradient id="paint11_linear_1_2" x1="226.593" y1="165.076" x2="226.593" y2="126.23" gradientUnits="userSpaceOnUse">
<stop stop-color="#CF6074"/>
<stop offset="1" stop-color="#FF817F"/>
</linearGradient>
<linearGradient id="paint12_linear_1_2" x1="184.327" y1="312.117" x2="184.327" y2="303.195" gradientUnits="userSpaceOnUse">
<stop stop-color="#8B8BE0"/>
<stop offset="1" stop-color="#A177B7"/>
</linearGradient>
<linearGradient id="paint13_linear_1_2" x1="130.813" y1="307.504" x2="130.813" y2="301.351" gradientUnits="userSpaceOnUse">
<stop stop-color="#8B8BE0"/>
<stop offset="1" stop-color="#A177B7"/>
</linearGradient>
<linearGradient id="paint14_linear_1_2" x1="76.7155" y1="155.108" x2="68.4844" y2="155.108" gradientUnits="userSpaceOnUse">
<stop stop-color="#CF6074"/>
<stop offset="1" stop-color="#FF817F"/>
</linearGradient>
<linearGradient id="paint15_linear_1_2" x1="181.957" y1="102.007" x2="181.957" y2="101.813" gradientUnits="userSpaceOnUse">
<stop stop-color="#9D68C2"/>
<stop offset="1" stop-color="#CCEDFF"/>
</linearGradient>
<linearGradient id="paint16_linear_1_2" x1="148.987" y1="110.401" x2="148.987" y2="97.9921" gradientUnits="userSpaceOnUse">
<stop stop-color="#3D2CB0"/>
<stop offset="1" stop-color="#0355C7"/>
</linearGradient>
<linearGradient id="paint17_linear_1_2" x1="259.871" y1="165.839" x2="259.871" y2="68.2454" gradientUnits="userSpaceOnUse">
<stop offset="0.016" stop-color="#FFC2A9"/>
<stop offset="1" stop-color="#FF9595"/>
</linearGradient>
</defs>
</svg>
