<svg width="302" height="301" viewBox="0 0 302 301" fill="none" xmlns="http://www.w3.org/2000/svg">
<g clip-path="url(#clip0_1_2)">
<path d="M197.287 258.69C143.928 279.052 106.607 286.77 74.7561 257.789C42.9048 228.809 36.8721 198.784 57.4059 182.84C63.7963 177.904 27.0078 151.809 26.6036 121.626C26.3663 103.909 40.7991 89.5237 54.369 81.8019C87.0673 63.1954 113.839 96.3845 127.74 90.4328C133.809 87.8757 163.535 53.602 215.64 52.3407C260.168 51.2628 283.353 88.4094 284.204 120.986C285.055 153.563 270.353 230.806 197.287 258.69Z" fill="url(#paint0_linear_1_2)" fill-opacity="0.06"/>
<path d="M123.048 107.848V170.834C123.048 172.454 121.678 173.766 119.987 173.766H19.6976C18.0063 173.766 16.6365 172.454 16.6365 170.834V107.848C16.6365 104.112 19.8015 101.076 23.7082 101.076H115.976C119.883 101.076 123.048 104.112 123.048 107.848Z" fill="white"/>
<path d="M123.048 107.848V108.132H16.6365V107.848C16.6365 104.112 19.8015 101.076 23.7082 101.076H115.976C119.883 101.076 123.048 104.112 123.048 107.848Z" fill="#84B5FF"/>
<mask id="mask0_1_2" style="mask-type:alpha" maskUnits="userSpaceOnUse" x="26" y="14" width="259" height="263">
<path d="M197.287 258.69C143.928 279.052 106.607 286.77 74.7555 257.789C42.9046 228.809 36.8719 198.784 57.4056 182.84C63.7963 177.904 27.0075 151.809 26.6033 121.626C26.3661 103.909 40.7989 89.5237 54.3687 81.8019C87.0673 63.1954 116.008 20.4364 129.908 14.4846C135.978 11.9274 163.535 53.602 215.64 52.3407C260.168 51.2628 283.353 88.4094 284.204 120.986C285.055 153.563 270.353 230.806 197.287 258.69Z" fill="#84B5FF"/>
</mask>
<g mask="url(#mask0_1_2)">
<path d="M248.417 96.1468H233.972C233.403 96.1468 232.938 95.7068 232.938 95.1569C232.938 94.6127 233.398 94.1676 233.972 94.1676H248.417C248.986 94.1676 249.451 94.6076 249.451 95.1569C249.451 95.7017 248.986 96.1468 248.417 96.1468Z" fill="#66D6A0"/>
<path d="M248.417 101.087H233.972C233.403 101.087 232.938 100.647 232.938 100.097C232.938 99.5525 233.398 99.1069 233.972 99.1069H248.417C248.986 99.1069 249.45 99.5475 249.45 100.097C249.45 100.642 248.986 101.087 248.417 101.087Z" fill="#66D6A0"/>
<path class="gear1" opacity="0.2" d="M219.36 193.929L229.274 192.143V183.631L219.36 181.993C218.599 178.496 217.154 175.222 215.165 172.321L220.852 164.329L214.559 158.301L206.339 163.867C203.309 161.962 199.905 160.593 196.238 159.864L194.373 150.369H185.485L183.776 159.864C180.124 160.593 176.705 161.977 173.675 163.882L165.346 158.435L159.053 164.463L164.864 172.335C162.875 175.237 161.446 178.512 160.684 182.009L150.77 183.794V192.307L160.684 193.944C161.446 197.456 162.891 200.715 164.88 203.617L159.193 211.594L165.486 217.621L173.721 212.055C176.752 213.961 180.17 215.344 183.822 216.059L185.687 225.554H194.575L196.285 216.059C199.952 215.329 203.355 213.945 206.385 212.041L214.714 217.487L221.008 211.46L215.196 203.588C217.17 200.7 218.599 197.441 219.36 193.929ZM190.022 205.596C179.86 205.596 171.624 197.694 171.624 187.976C171.624 178.258 179.86 170.356 190.022 170.356C200.185 170.356 208.421 178.244 208.421 187.976C208.421 197.709 200.185 205.596 190.022 205.596Z" fill="#84B5FF"/>
<mask id="mask1_1_2" style="mask-type:alpha" maskUnits="userSpaceOnUse" x="51" y="22" width="203" height="285">
<path d="M51.5039 164.236C51.5039 242.558 96.726 306.05 152.51 306.05C208.294 306.05 253.516 242.558 253.516 164.236C253.516 85.9134 208.294 22.4206 152.51 22.4206C96.726 22.4206 51.5039 85.9134 51.5039 164.236Z" fill="#C4C4C4"/>
</mask>
<g mask="url(#mask1_1_2)">
<path class='circle' d="M85.8405 211.877C80.1289 211.877 75.5 216.31 75.5 221.78C75.5 227.251 80.1289 231.683 85.8405 231.683C91.5522 231.683 96.1811 227.251 96.1811 221.78C96.1811 216.31 91.5522 211.877 85.8405 211.877ZM85.8405 229.216C81.5482 229.216 78.0716 225.886 78.0716 221.775C78.0716 217.664 81.5482 214.335 85.8405 214.335C90.1329 214.335 93.6094 217.664 93.6094 221.775C93.6094 225.886 90.1329 229.216 85.8405 229.216Z" fill="#66D6A0"/>
<path class='hair' d="M157.197 179.902C168.192 188.677 184.148 192.231 196.44 185.441C200.296 183.317 203.846 179.922 204.61 175.554C205.526 170.293 202.262 164.853 203.636 159.691C204.838 155.125 209.229 152.325 212.492 148.95C217.226 144.066 219.974 137.257 219.955 130.407C219.936 123.557 217.188 116.767 212.435 111.904C208.407 107.774 203.159 105.113 198.54 101.659C194.894 98.9191 191.611 95.3654 189.874 91.0573C188.157 86.8085 189.569 84.3069 189.817 80.1377C190.333 71.2232 188.175 61.2566 182.011 54.6257C174.032 46.0093 162.179 46.1483 151.701 48.3719C146.394 49.4837 140.535 51.2109 135.877 54.1493C133.892 55.4 132.575 56.9288 131.22 58.9338C130.781 59.5694 128.338 65.9027 128.433 65.8826C112.896 69.5753 121.238 91.9704 116.466 102.254C114.958 105.491 112.324 107.992 110.015 110.672C105.968 115.397 102.799 121.075 101.807 127.31C100.815 133.544 102.17 140.334 106.197 145.059C106.846 145.833 107.61 146.588 107.858 147.58C108.239 149.069 107.438 150.558 106.846 151.968C103.315 160.406 107.362 170.174 112.458 177.698C115.874 182.761 119.902 187.566 125.132 190.504C133.472 195.209 144.008 194.475 152.597 190.266" fill="url(#paint1_radial_1_2)"/>
<g opacity="0.26">
<path opacity="0.42" d="M157 64.2514C151.642 61.5935 144.803 64.5485 141.49 69.6067C138.198 74.6648 133.911 79.1675 134.69 85.1774C135.08 88.1526 135.723 91.1873 135.139 94.1429C133.658 101.8 129.021 107.393 124.188 113.443C120.096 118.56 118.771 125.364 117.72 131.87C117.096 135.758 116.59 140.042 118.616 143.394C121.188 147.639 124.13 153.113 126.897 157.22C131.456 163.944 128.787 170.509 134.3 176.459C135.937 178.205 138.236 179.117 140.497 179.851C145.075 181.3 149.81 182.152 154.604 182.41C158.695 182.629 162.845 182.371 166.703 181.002C176.172 177.61 182.505 166.78 180.79 156.703C179.485 149.067 174.321 142.719 171.867 135.361C170.113 130.085 173.542 144.179 174.731 138.744C180.79 139.899 180.79 103.237 174.731 98.3681" fill="#005E30"/>
</g>
<path d="M167.81 185.025C168.362 182.927 179.462 129.704 179.462 129.704C179.462 129.704 149.862 121.33 130.92 129.704L143.051 185.484L167.81 185.025Z" fill="white"/>
<path d="M169.265 157.963C169.265 157.963 147.01 160.166 140.861 155.759C140.861 155.759 148.538 173.388 169.265 157.963Z" fill="#F4F4F4"/>
<path opacity="0.83" d="M155.296 205.531C155.687 205.204 157.043 204.071 158.301 202.977C159.789 201.677 160.727 200.523 160.727 200.523C160.727 200.523 160.943 198.121 161.053 197.457C161.163 196.787 166.508 181.379 170.013 176.888C173.283 172.699 175.033 146.592 175.258 143.065L175.281 142.671C175.281 142.671 172.866 146.266 170.834 153.834C168.796 161.408 167.402 176.724 167.402 176.724C167.402 176.724 163.848 188.744 160.014 188.396C160.014 188.396 161.874 196.948 159.952 200.81C159.584 201.544 155.994 204.907 155.296 205.531Z" fill="#CAC3CD" fill-opacity="0.3"/>
<path d="M146.51 126.117H149.922C149.922 126.117 148.835 128.931 150.185 129.636C153.072 131.145 153.335 131.145 157.272 131.145C159.609 131.145 161.208 126.62 161.208 126.62L164.095 127.122C164.095 127.122 161.05 132.438 157.272 133.658C154.649 134.505 152.603 134.947 150.185 133.658C147.381 132.163 146.51 126.117 146.51 126.117Z" fill="#CAC3CD" fill-opacity="0.3"/>
<path d="M168.766 186.607C168.766 186.607 186.769 222.73 179.425 337.691C179.425 337.691 171.675 339.26 169.226 338.467C169.226 338.467 147.008 238.561 152.402 188.405L168.766 186.607Z" fill="#47556B"/>
<path d="M141.784 187.762C141.784 187.762 123.781 223.885 131.126 338.846C131.126 338.846 138.875 340.415 141.324 339.622C141.324 339.622 163.542 239.716 158.148 189.561L141.784 187.762Z" fill="#47556B"/>
<path d="M169.816 190.054C169.816 190.054 155.845 194.038 141.652 188.679L141.468 183.32C141.468 183.32 148.739 185.418 154.943 185.065C161.128 184.712 169.503 183.672 169.503 183.672L169.816 190.054Z" fill="#8F99B6"/>
<path d="M166.575 182.631C166.575 182.631 168.932 191.358 166.759 192.398C164.569 193.438 163.28 192.98 163.28 192.98L163.298 183.319L166.575 182.631Z" fill="#47556B"/>
<path d="M144.119 181.942C144.119 181.942 142.646 190.105 144.506 191.621C147.028 193.666 147.157 192.009 147.157 192.009L147.396 182.63L144.119 181.942Z" fill="#47556B"/>
<path d="M150.377 183.51L151.114 191.002L158.937 190.826C158.937 190.826 159.305 184.373 159.305 183.334L150.377 183.51ZM152.015 185.185H157.851L157.667 189.257L152.384 189.557L152.015 185.185Z" fill="#EAEAEA"/>
<path d="M154.134 131.117C156.95 131.117 161.35 130.306 161.35 127.591L160.632 118.583L160.006 110.702C160.006 108.005 157.724 105.819 154.907 105.819C153.49 105.819 152.22 106.366 151.299 107.247C150.378 108.128 149.808 109.345 149.808 110.702L149.182 118.583L148.575 126.146C147.746 130.729 154.134 131.117 154.134 131.117Z" fill="#D8826C"/>
<path d="M177.88 86.4627C177.88 86.4627 183.972 78.4764 185.74 86.1454C187.157 92.245 181.451 96.7404 177.935 95.5947C174.419 94.4664 177.88 86.4627 177.88 86.4627Z" fill="#F0A98F"/>
<path d="M177.825 87.8869C177.825 87.8869 182.132 82.8451 183.236 85.225C184.341 87.5876 183.697 90.3729 183.697 90.3729C183.697 90.3729 183.236 87.1818 180.604 88.6627C180.604 88.6627 182.482 93.8985 177.806 91.9064C177.806 91.9064 175.965 90.161 177.825 87.8869Z" fill="#D8826C"/>
<path d="M176.886 95.8245C176.886 96.5296 177.475 97.0941 178.193 97.0941C178.911 97.0941 179.5 96.5296 179.5 95.8245C179.5 95.1373 178.911 94.5729 178.193 94.5729C177.475 94.5729 176.886 95.1373 176.886 95.8245Z" fill="white"/>
<path d="M143.108 69.517C145.758 66.4846 148.206 62.9056 150.213 59.0448C157.079 68.6706 167.148 78.2964 177.438 81.7868C177.77 84.3787 177.917 87.0406 177.917 89.6851C177.917 105.093 166.099 114.207 153.048 113.925C141.434 111.897 135.027 104.391 133.499 89.6851C133.499 85.2071 133.959 80.6938 135.027 76.5157C137.99 74.5409 140.733 72.2142 143.108 69.517Z" fill="#F0A98F"/>
<path d="M148.298 85.6275C148.298 88.6067 145.758 91.0393 142.646 91.0393C139.536 91.0393 136.996 88.624 136.996 85.6275C136.996 82.6478 139.518 80.2151 142.646 80.2151C145.776 80.2151 148.298 82.6478 148.298 85.6275Z" fill="white"/>
<path d="M139.443 85.2951C139.443 87.7631 141.118 89.7552 143.18 89.7552C145.241 89.7552 146.917 87.7631 146.917 85.2951C146.917 82.8271 145.241 80.8351 143.18 80.8351C141.118 80.8351 139.443 82.8271 139.443 85.2951Z" fill="#7F5242"/>
<path d="M140.509 85.2962C140.509 87.0417 141.687 88.4694 143.16 88.4694C144.632 88.4694 145.81 87.0417 145.81 85.2962C145.81 83.5334 144.632 82.1231 143.16 82.1231C141.687 82.1231 140.509 83.5334 140.509 85.2962Z" fill="#400404"/>
<path d="M140.345 82.2767C140.345 82.7526 140.953 83.1405 141.708 83.1405C142.462 83.1405 143.07 82.7526 143.07 82.2767C143.07 81.8008 142.462 81.4129 141.708 81.4129C140.971 81.4129 140.345 81.8008 140.345 82.2767Z" fill="white"/>
<path d="M142.793 79.4427C139.074 79.0901 136.185 82.3165 136.185 85.6482C136.185 86.0008 136.626 86.0535 136.829 85.8069C138.357 83.7968 138.836 81.8401 141.633 81.0643C145.738 79.9365 147.984 83.9734 148.223 87.1291C148.26 87.4464 148.683 87.429 148.72 87.1291C149.07 83.3563 146.953 79.8306 142.793 79.4427Z" fill="#390A0A"/>
<path d="M155.754 96.2556C155.754 96.2556 152.974 100.769 149.955 96.1675L155.754 96.2556Z" fill="#D8826C"/>
<path d="M158.642 85.6275C158.642 88.6067 161.164 91.0393 164.294 91.0393C167.405 91.0393 169.926 88.624 169.926 85.6275C169.926 82.6478 167.405 80.2151 164.294 80.2151C161.164 80.2151 158.642 82.6478 158.642 85.6275Z" fill="white"/>
<path d="M160.76 85.2951C160.76 87.7631 162.343 89.7552 164.294 89.7552C166.245 89.7552 167.81 87.7631 167.81 85.2951C167.81 82.8271 166.227 80.8351 164.294 80.8351C162.324 80.8351 160.76 82.8271 160.76 85.2951Z" fill="#7F5242"/>
<path d="M161.772 85.2962C161.772 87.0417 162.896 88.4694 164.276 88.4694C165.657 88.4694 166.779 87.0417 166.779 85.2962C166.779 83.5334 165.657 82.1231 164.276 82.1231C162.896 82.1231 161.772 83.5334 161.772 85.2962Z" fill="#400404"/>
<path d="M161.607 82.2986C161.607 82.775 162.196 83.1629 162.896 83.1629C163.614 83.1629 164.184 82.775 164.184 82.2986C164.184 81.8227 163.596 81.4348 162.896 81.4348C162.196 81.4174 161.607 81.8053 161.607 82.2986Z" fill="white"/>
<path d="M164.349 79.4427C168.086 79.0901 170.958 82.3165 170.958 85.6482C170.958 86.0008 170.516 86.0535 170.332 85.8069C168.805 83.8148 168.326 81.8401 165.528 81.0643C161.422 79.9365 159.177 83.9734 158.937 87.1465C158.919 87.4464 158.477 87.4464 158.441 87.1465C158.072 83.3563 160.189 79.8306 164.349 79.4427Z" fill="#390A0A"/>
<path d="M171.161 78.681C171.161 78.681 165.823 71.7882 157.575 77.6586C157.557 77.6586 164.221 75.12 171.161 78.681Z" fill="#99360A"/>
<path d="M147.912 77.556C147.912 77.556 141.671 71.5976 134.952 78.6669C134.952 78.6669 140.751 75.106 147.912 77.556Z" fill="#99360A"/>
<path d="M145.279 100.221C145.352 100.415 146.66 103.27 148.795 105.545C151.372 108.277 155.109 109.811 159.251 103.94C160.134 102.706 161.017 101.102 161.919 99.1277C161.919 99.1277 160.484 100.027 158.385 100.591C155.09 101.49 150.193 103.165 146.788 101.402C146.236 101.402 145.739 100.573 145.279 100.221Z" fill="#712311"/>
<path d="M148.795 105.385C151.372 108.118 155.109 109.74 159.251 103.869C157.023 103.288 151.795 102.406 148.795 105.385Z" fill="#D5503B"/>
<path d="M146.807 100.712C152.219 106.494 156.159 103.444 158.404 100.236C155.109 101.117 150.194 102.034 146.807 100.712Z" fill="white"/>
<path d="M128.514 73.5326C133.987 75.4238 140.328 74.8756 145.274 72.0892C150.221 69.3034 153.651 64.3238 154.328 58.9428C154.527 57.4501 154.319 55.6157 152.9 54.8844C152.408 54.627 151.825 54.5623 151.259 54.5353C147.806 54.3505 144.403 55.4421 141.524 57.1934C138.645 58.945 136.292 61.3199 134.183 63.8423C132.669 65.6662 131.286 67.5916 130.377 69.7367C129.815 71.0915 129.445 72.5163 129.289 73.958" fill="url(#paint2_radial_1_2)"/>
<path d="M149.209 63.6657C159.496 70.2995 170.812 81.4539 182.575 81.8591C183.176 81.8888 186.505 78.6664 186.793 78.2404C187.035 77.8699 186.851 77.366 186.662 76.9209C184.667 72.4962 178.967 64.6192 174.462 61.7263C169.956 58.8335 164.914 56.815 159.879 54.9529C157.32 54.0185 154.718 53.1001 152.077 52.8429C149.458 52.5873 146.752 53.0478 145.136 54.5947" fill="url(#paint3_linear_1_2)"/>
<path d="M92.0626 163.646C92.0626 163.646 89.43 163.099 88.4362 161.848C87.4237 160.613 86.8162 160.067 83.2636 158.569C79.7291 157.088 78.3303 155.166 78.3303 155.166C78.3303 155.166 75.8634 157.334 81.2754 159.82C84.5892 161.337 73.6915 161.125 70.4151 160.772C70.4151 160.772 68.5189 161.76 71.6483 163.223C74.7959 164.686 71.7771 164.792 77.9804 167.295C84.1842 169.816 91.5469 171.138 93.0564 167.542C94.5476 163.963 92.0626 163.646 92.0626 163.646Z" fill="#FFBC9F"/>
<path d="M135.487 143.196C135.487 143.196 128.05 177.714 124.663 179.601C121.938 181.135 101.027 174.612 93.112 172.055C91.2344 171.456 90.0744 171.068 90.0744 171.068L91.4369 162.218L95.9101 162.8L118.202 165.691C118.202 165.691 125.712 130.626 131.124 130.186C136.536 129.762 135.487 143.196 135.487 143.196Z" fill="white"/>
<path d="M179.589 129.946C179.589 129.946 198.179 161.108 196.407 173.849C196.407 173.849 190.581 179.819 163.537 187.114L163.053 180.876C163.053 180.876 180.093 169.9 185.624 167.431C185.624 167.431 169.733 146.033 171.495 141.575C173.239 137.113 176.659 129.45 179.589 129.946Z" fill="white"/>
<g filter="url(#filter0_d_1_2)">
<path d="M166.58 183.345C166.506 183.52 166.432 183.694 166.357 183.867C165.586 185.653 163.883 187.053 161.913 187.042C159.072 187.026 156.06 186.764 153.278 186.381C150.965 186.063 148.726 185.248 146.353 185.333C143.582 185.433 140.861 185.155 138.242 184.618C137.135 184.391 135.976 184.162 134.905 183.856C134.367 183.701 133.81 183.58 133.281 183.409C132.968 183.309 132.33 183.119 132.367 182.702C132.37 182.671 132.375 182.637 132.359 182.613C132.346 182.591 132.32 182.583 132.294 182.574C131.778 182.391 131.24 182.219 130.776 181.953C130.388 181.729 130.577 181.245 130.724 180.871C130.808 180.659 131.177 179.673 131.791 179.483C130.73 179.047 129.598 178.717 128.545 178.251C128.543 178.251 128.541 178.25 128.54 178.249C128.703 177.202 129.196 176.163 130.002 175.318C131.798 175.91 133.595 176.503 135.389 177.095C136.342 177.411 137.357 177.728 138.418 177.52C136.781 177.19 135.257 176.56 133.948 175.671C132.847 174.924 131.875 173.991 130.648 173.429C130.659 173.38 130.674 173.331 130.687 173.281C130.719 173.207 130.754 173.133 130.792 173.061C131.001 172.658 131.259 172.295 131.555 171.923C131.736 171.695 131.928 171.474 132.129 171.258C132.435 171.059 132.774 170.886 133.129 170.733C134.899 171.809 136.694 172.855 138.655 173.647C141.115 174.639 143.861 175.223 146.709 174.876C147.286 174.805 147.862 174.615 148.364 174.29C151.071 172.547 147.437 169.042 146.258 167.73C146.299 167.667 146.345 167.605 146.397 167.544C146.969 166.87 147.951 166.468 148.789 166.183C149.218 166.038 149.654 165.918 150.09 165.807C150.121 165.854 150.154 165.901 150.189 165.952C150.799 166.78 152.04 168.293 152.745 169.047C154.11 170.505 156 171.423 157.059 173.16C158.51 175.544 159.026 177.749 162.373 178.159C162.8 178.212 163.225 178.263 163.651 178.315C166.186 178.624 167.575 180.984 166.58 183.345Z" fill="#84B5FF"/>
<path d="M144.565 176.325C140.932 176.804 136.884 175.783 134.202 173.933C133.493 173.442 132.812 172.917 132.072 172.466C131.392 172.053 131.799 171.628 131.765 171.724C131.973 170.894 133.922 171.254 134.999 171.882C136.544 172.782 137.436 173.403 138.938 174.115C139.988 174.613 141.799 174.958 142.962 175.253C144.121 175.549 144.392 175.371 145.656 175.25C147.913 175.036 147.217 174.73 148.36 173.923C148.36 173.923 147.697 171.749 147.624 171.504C147.336 170.567 145.089 169.558 145.487 168.551C145.534 168.435 145.597 168.339 145.678 168.223C146.348 167.997 146.145 167.991 146.369 168.049C146.594 168.108 146.204 167.903 146.369 168.049C147.066 168.67 147.598 169.396 148.109 170.162C148.912 171.368 149.652 173.748 148.35 175.248C147.392 176.354 145.939 176.144 144.565 176.325Z" fill="#06B25F"/>
<path d="M130.505 176.369C130.557 176.39 130.609 176.413 130.661 176.434C132.172 177.048 133.276 177.074 134.965 177.466C135.803 177.661 136.664 177.836 137.559 177.938C138.088 177.999 138.623 178.045 139.179 178.034C139.404 178.066 139.627 178.098 139.851 178.13C140.199 178.446 139.794 178.847 139.266 179.1C139.047 179.205 138.808 179.284 138.593 179.322C138.074 179.411 137.601 179.341 137.147 179.265C134.874 178.887 132.264 178.543 130.421 177.619C129.91 177.362 129.489 177.232 130.304 176.504C130.364 176.449 130.432 176.406 130.505 176.369Z" fill="#276ED8"/>
<path d="M138.916 181.95C138.926 182.047 138.87 182.165 138.716 182.315C138.557 182.467 138.339 182.545 138.128 182.578C137.567 182.663 137.04 182.473 136.543 182.286C135.465 181.88 134.31 181.631 133.262 181.22C132.971 181.106 132.08 180.75 132.924 180.351C133.34 180.154 134.012 180.362 134.358 180.473C135.136 180.721 135.922 180.956 136.714 181.175C137.115 181.285 137.517 181.409 137.923 181.504C138.203 181.57 138.887 181.645 138.916 181.95Z" fill="#276ED8"/>
<path d="M154.761 186.303C153.654 186.137 152.604 185.956 151.386 185.664C151.414 185.647 151.513 185.575 151.543 185.557C155.37 183.458 158.316 179.774 159.142 175.721C159.146 175.698 159.153 175.677 159.159 175.656C160.032 176.188 160.72 176.903 161.677 177.203C160.566 180.791 157.903 183.926 154.761 186.303Z" fill="#276ED8"/>
<path d="M163.306 186.681C161.911 186.528 161.022 186.403 159.635 186.22C159.691 186.187 159.749 186.154 159.809 186.125C163.31 184.448 165.263 181.043 164.54 177.687C164.519 177.583 164.508 177.482 164.509 177.385C165.564 177.346 166.671 177.583 167.704 177.656C168.156 180.996 167.15 184.156 163.306 186.681Z" fill="#276ED8"/>
<path opacity="0.33" d="M155.275 186.275C154.966 186.226 154.66 186.176 154.354 186.123C153.644 185.922 152.944 185.697 152.258 185.445C154.193 184.333 155.896 182.799 157.199 181.008C157.817 181.237 158.455 181.426 159.098 181.605C159.283 181.685 159.471 181.764 159.658 181.84C158.434 183.503 156.922 185 155.275 186.275Z" fill="white"/>
<path opacity="0.33" d="M160.07 180.236C159.984 180.375 159.897 180.513 159.807 180.65C158.984 180.275 158.158 179.885 157.295 179.58C157.343 179.5 157.389 179.418 157.435 179.338C158.309 179.643 159.187 179.943 160.07 180.236Z" fill="white"/>
<path opacity="0.33" d="M165.421 181.518C166.002 181.683 166.595 181.839 167.206 181.94C167.143 182.107 167.077 182.273 167.002 182.439C166.022 182.138 165.027 181.87 164.035 181.594C164.094 181.451 164.147 181.307 164.194 181.161C164.604 181.28 165.012 181.4 165.421 181.518Z" fill="white"/>
<path opacity="0.33" d="M164.13 182.782C165.051 183.059 165.974 183.33 166.889 183.621C166.192 184.704 165.199 185.722 163.845 186.652C162.508 186.493 161.656 186.364 160.328 186.175C160.382 186.141 160.437 186.108 160.497 186.079C162.057 185.295 163.303 184.138 164.13 182.782Z" fill="white"/>
<path d="M163.261 187.891C162.283 188.086 161.151 188.179 159.959 188.132C157.394 188.029 154.965 187.961 154.238 187.048C154.018 186.771 154.273 185.835 154.326 185.532C154.557 184.23 157.453 183.283 160.793 183.417C162.842 183.499 164.51 183.919 165.578 184.505C165.748 184.598 166.008 184.823 166.002 185.042C165.998 185.169 165.865 186.049 165.647 186.221C164.927 186.788 163.994 187.346 163.261 187.891Z" fill="#194484"/>
<path d="M162.668 188.376C162.08 188.779 161.403 189.013 160.737 189.025C160.476 189.029 160.209 189.028 159.94 189.02C156.625 188.921 154.114 187.895 154.333 186.727C154.551 185.559 157.417 184.692 160.732 184.793C162.95 184.859 164.805 185.341 165.726 186.003C165.811 186.066 165.799 186.201 165.699 186.274C164.705 186.997 163.685 187.681 162.668 188.376Z" fill="#06B25F"/>
<path opacity="0.33" d="M147.005 178.439C149.285 178.381 150.998 179.73 150.831 181.45C150.665 183.171 148.682 184.612 146.403 184.669C144.124 184.726 142.411 183.377 142.577 181.657C142.743 179.937 144.726 178.496 147.005 178.439Z" fill="white"/>
<path d="M149.482 181.476C149.597 180.46 148.449 179.673 146.916 179.717C145.384 179.76 144.047 180.619 143.933 181.634C143.818 182.649 144.967 183.437 146.499 183.393C148.03 183.349 149.366 182.491 149.482 181.476Z" fill="#276ED8"/>
<path opacity="0.33" d="M148.205 181.512C148.268 180.964 147.646 180.537 146.819 180.561C145.991 180.584 145.27 181.049 145.207 181.597C145.144 182.145 145.766 182.572 146.593 182.547C147.423 182.524 148.143 182.06 148.205 181.512Z" fill="white"/>
<path opacity="0.33" d="M136.433 176.228C136.479 175.825 136.022 175.51 135.412 175.528C134.803 175.546 134.27 175.887 134.225 176.291C134.179 176.694 134.636 177.009 135.247 176.991C135.856 176.973 136.388 176.633 136.433 176.228Z" fill="white"/>
<path opacity="0.33" d="M149.948 170.336C150.418 169.985 150.517 169.364 150.17 168.95C149.822 168.535 149.159 168.483 148.688 168.835C148.218 169.186 148.119 169.807 148.466 170.221C148.813 170.636 149.478 170.688 149.948 170.336Z" fill="white"/>
<path opacity="0.33" d="M133.621 178.816C134.193 178.802 134.628 179.088 134.591 179.454C134.555 179.821 134.062 180.129 133.49 180.142C132.918 180.155 132.484 179.87 132.52 179.504C132.556 179.138 133.049 178.83 133.621 178.816Z" fill="white"/>
<path opacity="0.33" d="M136.019 182.671C136.076 182.297 135.642 182.022 135.048 182.061C134.454 182.099 133.925 182.433 133.868 182.807C133.811 183.182 134.244 183.456 134.839 183.418C135.434 183.38 135.96 183.046 136.019 182.671Z" fill="white"/>
<path d="M162.932 188.163C162.756 188.169 162.574 188.17 162.389 188.163C160.994 188.108 159.937 187.665 160.027 187.174C160.117 186.682 161.321 186.327 162.716 186.381C163.631 186.417 164.395 186.622 164.791 186.895C164.174 187.322 163.553 187.743 162.932 188.163Z" fill="#194484"/>
<path d="M157.585 187.581L156.876 187.374L155.964 188.062L155.943 188.266L157.566 187.784L157.585 187.581Z" fill="#194484"/>
<path d="M157.614 187.778L156.896 187.567L155.978 188.253L156.695 188.464L157.614 187.778Z" fill="#194484"/>
<path d="M158.706 186.587L157.996 186.381L157.083 187.069L157.063 187.272L158.684 186.792L158.706 186.587Z" fill="#194484"/>
<path d="M158.734 186.786L158.019 186.575L157.1 187.26L157.818 187.471L158.734 186.786Z" fill="#194484"/>
<path d="M159.843 185.584L159.133 185.377L158.221 186.065L158.201 186.269L159.823 185.787L159.843 185.584Z" fill="#194484"/>
<path d="M159.873 185.781L159.156 185.57L158.237 186.256L158.955 186.467L159.873 185.781Z" fill="#194484"/>
<path d="M133.586 183.162C133.581 183.162 133.575 183.162 133.571 183.161C133.547 183.159 133.607 183.163 133.586 183.162Z" fill="#194484"/>
<path opacity="0.43" d="M138.195 184.269C136.936 184.244 134.905 184.027 133.644 183.851C133.62 183.766 133.595 183.681 133.574 183.594C134.914 183.77 137.368 184.035 138.637 184.168C138.573 184.183 138.277 184.27 138.195 184.269Z" fill="#276ED8"/>
</g>
<path d="M132.36 86.6476C132.349 87.2485 131.839 87.7379 131.202 87.7379L129.98 87.7278C129.353 87.7177 128.843 87.2283 128.843 86.6168L128.917 79.0055C128.928 78.4041 129.438 77.9153 130.075 77.9153L131.287 77.9254C131.914 77.9355 132.423 78.4248 132.423 79.0363L132.36 86.6476Z" fill="#002E73"/>
<path d="M180.43 87.1056C180.42 87.707 179.909 88.1958 179.272 88.1958L178.061 88.1857C177.423 88.1756 176.923 87.6869 176.923 87.0753L176.998 79.4634C177.009 78.8626 177.519 78.3732 178.156 78.3732L179.367 78.3833C180.005 78.394 180.505 78.8827 180.505 79.4943L180.43 87.1056Z" fill="#002E73"/>
<path d="M150.923 69.397L151.603 58.7998L158.541 58.871L159.359 69.4783L150.923 69.397Z" fill="#070059"/>
<path d="M176.954 74.074C176.901 78.8323 167.061 82.5923 154.948 82.4701C142.845 82.358 133.08 78.4041 133.123 73.6559C133.176 68.8976 143.026 65.1376 155.118 65.2598C167.231 65.3719 177.007 69.3152 176.954 74.074Z" fill="#002E73"/>
<path d="M145.249 70.8544C153.548 70.7221 162.356 70.3959 170.633 71.4351C173.279 71.8224 176.276 72.9535 178.656 74.5634V74.421C178.688 71.3331 176.106 68.8062 172.886 68.776L136.844 68.4296C133.624 68.3987 130.989 70.8746 130.957 73.9625V74.2579C134.368 70.6812 140.34 70.9357 145.249 70.8544Z" fill="white"/>
<path d="M160.4 93.8414C159.327 93.4238 158.551 92.731 157.415 92.3739C156.203 92.0174 154.843 92.0073 153.632 92.0684C152.92 92.1295 152.123 92.1906 151.549 92.4558C150.476 92.7921 149.679 93.7394 148.457 93.9333C147.384 94.1267 141.593 94.0757 140.02 93.8515C138.31 93.6273 136.312 93.1284 134.739 92.5679C133.709 92.1805 131.849 91.0085 130.84 89.7552C130.946 92.731 133.464 95.1255 136.599 95.1558C139.797 95.1866 147.533 95.5022 148.17 95.4209C148.946 95.3189 149.18 94.7993 149.732 94.3307C151.05 93.2198 152.909 92.7203 154.641 92.731C156.341 92.7512 158.137 93.2607 159.433 94.3509C159.944 94.7786 160.198 95.3699 160.9 95.482C162.005 95.6754 171.185 95.482 172.63 95.4921C175.818 95.5229 178.432 93.0875 178.507 90.0511C177.263 91.1923 175.733 92.3846 174.139 93.0056C171.047 94.2898 161.537 94.4019 160.4 93.8414Z" fill="white"/>
<path d="M178.666 74.5734C176.285 72.9631 173.289 71.8218 170.643 71.4452C162.355 70.4054 153.557 70.7316 145.258 70.8645C140.339 70.9357 134.367 70.6806 130.977 74.2674L130.818 89.5214C130.818 89.6027 130.829 89.684 130.829 89.7658C131.838 91.0191 133.708 92.1906 134.728 92.578C136.301 93.1385 138.298 93.6379 140.009 93.8621C141.582 94.0863 147.373 94.1368 148.446 93.9434C149.668 93.75 150.465 92.7921 151.538 92.4659C152.112 92.2013 152.899 92.1396 153.621 92.0785C154.832 92.0174 156.193 92.0382 157.403 92.3846C158.541 92.7411 159.327 93.4339 160.389 93.8515C161.527 94.412 171.047 94.2999 174.129 93.0264C175.712 92.4148 177.242 91.2125 178.495 90.0713C178.495 90.041 178.495 90.0102 178.495 89.9799L178.666 74.5734Z" fill="#0B51B9"/>
<mask class='glasses' id="mask2_1_2" style="mask-type:alpha" maskUnits="userSpaceOnUse" x="130" y="70" width="49" height="25">
<path d="M178.666 74.5734C176.285 72.9631 173.289 71.8218 170.643 71.4452C162.355 70.4054 153.557 70.7316 145.258 70.8645C140.339 70.9357 134.367 70.6806 130.977 74.2674L130.818 89.5214C130.818 89.6027 130.829 89.684 130.829 89.7658C131.838 91.0191 133.708 92.1906 134.728 92.578C136.301 93.1385 138.298 93.6379 140.009 93.8621C141.582 94.0863 147.373 94.1368 148.446 93.9434C149.668 93.75 150.465 92.7921 151.538 92.4659C152.112 92.2013 152.899 92.1396 153.621 92.0785C154.832 92.0174 156.193 92.0382 157.403 92.3846C158.541 92.7411 159.327 93.4339 160.389 93.8515C161.527 94.412 171.047 94.2999 174.129 93.0264C175.712 92.4148 177.242 91.2125 178.495 90.0713C178.495 90.041 178.495 90.0102 178.495 89.9799L178.666 74.5734Z" fill="#0B51B9"/>
</mask>
<g mask="url(#mask2_1_2)">
<g opacity="0.2">
<path opacity="0.2" d="M180.759 54.4075L114.519 93.4434L114.55 91.0589L180.791 52.0231L180.759 54.4075Z" fill="white"/>
<path opacity="0.2" d="M180.59 71.1487L114.35 110.184L114.509 94.88L180.75 55.8438L180.59 71.1487Z" fill="white"/>
<path opacity="0.2" d="M180.515 78.1384L114.275 117.175L114.318 113.17L180.558 74.134L180.515 78.1384Z" fill="white"/>
<path opacity="0.2" d="M180.484 81.5317L114.243 120.568L114.264 118.856L180.505 79.8199L180.484 81.5317Z" fill="white"/>
</g>
</g>
</g>
</g>
<path class="oval" d="M86.6746 145.298V142.889C86.6746 142.445 86.3 142.086 85.8365 142.086C85.3735 142.086 84.9984 142.445 84.9984 142.889V142.913C83.4878 140.67 81.8443 138.661 80.9442 137.604C80.6516 137.26 80.1236 137.207 79.7655 137.49C79.4061 137.769 79.3528 138.275 79.6461 138.619C81.2813 140.538 82.5742 142.242 83.582 143.733C83.1395 143.597 82.6725 143.822 82.5279 144.241C82.381 144.662 82.6187 145.117 83.057 145.256L84.9094 145.848C86.7553 149.064 86.9579 150.924 86.4007 151.457C85.8066 152.026 83.6247 151.829 79.4348 149.409C76.8959 147.942 74.0684 145.917 71.1784 143.519C72.3653 142.491 73.5546 141.409 74.7327 140.281C78.9344 136.256 82.5285 132.095 84.9984 128.429V128.438C84.9984 128.882 85.3735 129.241 85.8365 129.241C86.3 129.241 86.6746 128.882 86.6746 128.438V126.029C86.6746 125.954 86.6424 125.886 86.6213 125.816C88.5463 122.344 88.8717 119.966 87.5858 118.734C85.0926 116.347 78.5013 120.366 74.7936 122.974C74.4202 123.236 74.34 123.738 74.6145 124.096C74.8866 124.452 75.4116 124.529 75.7856 124.268C81.8081 120.032 85.5128 119.017 86.4007 119.869C86.9391 120.385 86.8022 122.167 84.8907 125.486L83.0576 126.071C82.6186 126.21 82.381 126.665 82.5279 127.086C82.6707 127.5 83.1278 127.723 83.565 127.596C81.1613 131.159 77.6544 135.211 73.5481 139.146C72.3419 140.3 71.1251 141.402 69.913 142.448C68.7015 141.402 67.4847 140.3 66.2785 139.146C62.1716 135.211 58.6647 131.159 56.2609 127.596C56.6986 127.723 57.1551 127.5 57.2984 127.086C57.4449 126.665 57.2075 126.21 56.7689 126.071L54.9357 125.486C53.0236 122.167 52.8868 120.385 53.4255 119.869C54.3159 119.016 58.021 120.032 64.0486 124.274C64.4202 124.536 64.9464 124.459 65.2203 124.102C65.4942 123.746 65.414 123.243 65.0406 122.98C61.3317 120.368 54.7318 116.344 52.2404 118.734C50.9544 119.966 51.2797 122.344 53.205 125.816C53.184 125.887 53.1514 125.954 53.1514 126.029V128.438C53.1514 128.882 53.5262 129.241 53.9895 129.241C54.4527 129.241 54.8276 128.882 54.8276 128.438V128.429C57.2975 132.095 60.8916 136.256 65.0933 140.281C66.2714 141.409 67.4613 142.491 68.6476 143.519C65.7582 145.917 62.9307 147.942 60.3912 149.409C56.1976 151.831 54.0165 152.023 53.4256 151.457C52.8687 150.924 53.0709 149.063 54.9169 145.847L56.7689 145.256C57.2076 145.117 57.445 144.662 57.2985 144.241C57.1534 143.823 56.6872 143.597 56.2446 143.733C57.2485 142.249 58.5336 140.554 60.1589 138.644C60.4509 138.301 60.3971 137.795 60.0389 137.514C59.6807 137.235 59.1528 137.289 58.859 137.63C57.9637 138.682 56.3308 140.68 54.8276 142.912V142.889C54.8276 142.445 54.4528 142.086 53.9895 142.086C53.5262 142.086 53.1514 142.445 53.1514 142.889V145.298C53.1514 145.384 53.1854 145.462 53.2128 145.542C51.6412 148.389 50.7671 151.182 52.2404 152.593C52.7544 153.085 53.459 153.331 54.3519 153.331C56.0118 153.331 58.3213 152.48 61.2568 150.784C63.9233 149.243 66.8912 147.11 69.913 144.59C72.9348 147.11 75.9027 149.243 78.5686 150.784C81.5043 152.481 83.8144 153.332 85.4748 153.331C86.3667 153.331 87.0714 153.086 87.5853 152.593C89.059 151.183 88.1858 148.39 86.6131 145.542C86.6406 145.462 86.6746 145.384 86.6746 145.298Z" fill="#06B25F"/>
<path d="M61.5302 128.441C61.5302 128.885 61.9053 129.244 62.3683 129.244C62.8318 129.244 63.207 128.885 63.207 128.441C63.207 127.998 63.5827 127.639 64.0451 127.639C64.5074 127.639 64.8838 127.998 64.8838 128.441C64.8838 128.885 64.508 129.244 64.0451 129.244C63.5815 129.244 63.207 129.603 63.207 130.047C63.207 130.491 63.5815 130.85 64.0451 130.85C64.5074 130.85 64.8838 131.21 64.8838 131.653C64.8838 132.096 64.508 132.456 64.0451 132.456C63.5827 132.456 63.207 132.096 63.207 131.653C63.207 131.209 62.8318 130.85 62.3683 130.85C61.9053 130.85 61.5302 131.209 61.5302 131.653C61.5302 132.981 62.658 134.062 64.0451 134.062C65.4322 134.062 66.56 132.981 66.56 131.653C66.56 131.036 66.3171 130.474 65.9179 130.047C66.3171 129.621 66.56 129.058 66.56 128.441C66.56 127.113 65.4322 126.033 64.0451 126.033C62.658 126.033 61.5302 127.113 61.5302 128.441Z" fill="#06B25F"/>
<path d="M75.7809 134.061C77.1674 134.061 78.2958 132.98 78.2958 131.652V128.441C78.2958 127.113 77.1674 126.032 75.7809 126.032C74.3938 126.032 73.266 127.113 73.266 128.441V131.652C73.266 132.98 74.3938 134.061 75.7809 134.061ZM74.9422 128.441C74.9422 127.998 75.318 127.638 75.7809 127.638C76.2433 127.638 76.619 127.998 76.619 128.441V131.652C76.619 132.095 76.2433 132.455 75.7809 132.455C75.3186 132.455 74.9422 132.095 74.9422 131.652V128.441Z" fill="#06B25F"/>
<path d="M69.9124 134.061C71.2995 134.061 72.4273 132.98 72.4273 131.652C72.4273 130.324 71.2995 129.244 69.9124 129.244C69.6549 129.244 69.4114 129.292 69.1773 129.361C69.3663 128.631 69.9218 127.638 71.5892 127.638C72.0527 127.638 72.4273 127.279 72.4273 126.835C72.4273 126.391 72.0527 126.032 71.5892 126.032C68.2736 126.032 67.3975 128.658 67.3975 130.047V131.652C67.3975 132.98 68.5259 134.061 69.9124 134.061ZM69.9124 130.85C70.3754 130.85 70.7511 131.21 70.7511 131.652C70.7511 132.095 70.3754 132.455 69.9124 132.455C69.45 132.455 69.0743 132.095 69.0743 131.652C69.0743 131.21 69.45 130.85 69.9124 130.85Z" fill="#06B25F"/>
<path d="M81.6489 126.033C81.6489 125.148 80.8968 124.427 79.9726 124.427C79.0479 124.427 78.2958 125.148 78.2958 126.033C78.2958 126.918 79.0479 127.639 79.9726 127.639C80.8968 127.639 81.6489 126.918 81.6489 126.033Z" fill="#06B25F"/>
</g>
<defs>
<filter id="filter0_d_1_2" x="120.54" y="161.807" width="55.264" height="39.2199" filterUnits="userSpaceOnUse" color-interpolation-filters="sRGB">
<feFlood flood-opacity="0" result="BackgroundImageFix"/>
<feColorMatrix in="SourceAlpha" type="matrix" values="0 0 0 0 0 0 0 0 0 0 0 0 0 0 0 0 0 0 127 0" result="hardAlpha"/>
<feOffset dy="4"/>
<feGaussianBlur stdDeviation="4"/>
<feColorMatrix type="matrix" values="0 0 0 0 0.0771528 0 0 0 0 0.152763 0 0 0 0 0.420833 0 0 0 0.25 0"/>
<feBlend mode="normal" in2="BackgroundImageFix" result="effect1_dropShadow_1_2"/>
<feBlend mode="normal" in="SourceGraphic" in2="effect1_dropShadow_1_2" result="shape"/>
</filter>
<linearGradient id="paint0_linear_1_2" x1="110.232" y1="53.2851" x2="76.3171" y2="245.258" gradientUnits="userSpaceOnUse">
<stop offset="0.0041841" stop-color="#0214BE"/>
<stop offset="0.2856" stop-color="#0016D9"/>
<stop offset="1" stop-color="#2051FE"/>
</linearGradient>
<radialGradient id="paint1_radial_1_2" cx="0" cy="0" r="1" gradientUnits="userSpaceOnUse" gradientTransform="translate(109.698 171.53) rotate(-57.8277) scale(143.529 113.219)">
<stop stop-color="#0F7C47"/>
<stop offset="1" stop-color="#3EE695"/>
</radialGradient>
<radialGradient id="paint2_radial_1_2" cx="0" cy="0" r="1" gradientUnits="userSpaceOnUse" gradientTransform="translate(129.189 73.4687) rotate(-42.1516) scale(28.6414 31.7176)">
<stop stop-color="#21B16C"/>
<stop offset="1" stop-color="#39DB8D"/>
</radialGradient>
<linearGradient id="paint3_linear_1_2" x1="146.09" y1="53.5251" x2="183.633" y2="77.6279" gradientUnits="userSpaceOnUse">
<stop stop-color="#29CF7F"/>
<stop offset="1" stop-color="#36D387"/>
</linearGradient>
<clipPath id="clip0_1_2">
<rect width="302" height="301" fill="white"/>
</clipPath>
</defs>
</svg>
