<svg width="107" height="107" viewBox="0 0 107 107" fill="none" xmlns="http://www.w3.org/2000/svg">
<g id="Group1 1">
<path id="Vector" d="M77.2334 37.2694C67.7084 37.2694 63.9481 43.7759 61.952 48.4891C60.4157 45.4056 57.2094 43.281 53.5118 43.281C49.8143 43.281 46.6079 45.4056 45.0717 48.4891C43.0755 43.7759 39.3174 37.2694 29.7903 37.2694C7.82242 37.2694 0.0239258 81.2166 0.0239258 90.1025C0.0239258 101.865 6.68536 106.038 12.3895 106.038C22.4245 106.038 33.2161 89.0443 38.4228 80.556H68.6009C73.8034 89.0382 84.6347 106.038 94.6342 106.038C100.338 106.038 107 101.865 107 90.1025C107 86.3667 101.122 37.2694 77.2334 37.2694Z" fill="#276ED8"/>
<path id="pluss" d="M31.5411 63.9435H34.6764C36.4071 63.9435 37.8117 62.5519 37.8117 60.8372C37.8117 59.1227 36.4071 57.7311 34.6764 57.7311H31.5411V54.6248C31.5411 52.9101 30.1365 51.5185 28.4058 51.5185C26.6752 51.5185 25.2706 52.9101 25.2706 54.6248V57.7311H22.1353C20.4046 57.7311 19 59.1227 19 60.8372C19 62.5519 20.4046 63.9435 22.1353 63.9435H25.2706V67.0498C25.2706 68.7644 26.6752 70.156 28.4058 70.156C30.1365 70.156 31.5411 68.7644 31.5411 67.0498V63.9435Z" fill="#66D6A0"/>
<path id="Vector_2" d="M47.2175 70.156H59.7587C61.4893 70.156 62.894 68.7644 62.894 67.0498C62.894 65.3351 61.4893 63.9435 59.7587 63.9435H47.2175C45.4869 63.9435 44.0823 65.3351 44.0823 67.0498C44.0823 68.7644 45.4869 70.156 47.2175 70.156Z" fill="#66D6A0"/>
<g id="dots">
<path id="Vector_3" d="M81.7056 54.6248C81.7056 52.9101 80.301 51.5185 78.5704 51.5185C76.8397 51.5185 75.4351 52.9101 75.4351 54.6248C75.4351 56.3395 76.8397 57.7311 78.5704 57.7311C80.301 57.7311 81.7056 56.3395 81.7056 54.6248Z" fill="#66D6A0"/>
<path id="Vector_4" d="M69.1645 60.8372C69.1645 62.5519 70.5691 63.9435 72.2998 63.9435C74.0305 63.9435 75.4351 62.5519 75.4351 60.8372C75.4351 59.1227 74.0305 57.7311 72.2998 57.7311C70.5691 57.7311 69.1645 59.1227 69.1645 60.8372Z" fill="#66D6A0"/>
<path id="Vector_5" d="M75.4351 67.0498C75.4351 68.7644 76.8397 70.156 78.5704 70.156C80.301 70.156 81.7056 68.7644 81.7056 67.0498C81.7056 65.3351 80.301 63.9435 78.5704 63.9435C76.8397 63.9435 75.4351 65.3351 75.4351 67.0498Z" fill="#66D6A0"/>
<path id="Vector_6" d="M81.7056 60.8372C81.7056 62.5519 83.1103 63.9435 84.8409 63.9435C86.5716 63.9435 87.9762 62.5519 87.9762 60.8372C87.9762 59.1227 86.5716 57.7311 84.8409 57.7311C83.1103 57.7311 81.7056 59.1227 81.7056 60.8372Z" fill="#66D6A0"/>
</g>
<path id="Vector_7" d="M56.9026 37.4309C55.8052 37.1928 54.6703 37.0686 53.5123 37.0686C52.5195 37.0686 51.5454 37.1596 50.5986 37.3336C50.3164 33.341 49.4302 29.1641 47.2752 27.0291C41.7335 21.5385 27.9756 25.3805 20.0003 25.2606C6.60053 25.06 -0.176272 17.5656 0.00348438 8.09402C0.0394356 6.19777 0.149589 4.22219 0.766403 2.21016C1.26596 0.56592 3.01544 -0.361814 4.67296 0.133116C6.3263 0.628045 7.2648 2.35305 6.7736 3.99108C3.7932 14.0783 10.3825 21.6365 27.8699 18.4807C35.1013 17.1252 46.3072 17.2836 51.7085 22.6348C54.7601 25.6582 56.5075 30.6365 56.9026 37.4309Z" fill="#276ED8"/>
</g>
</svg>
