<svg width="88" height="87" viewBox="0 0 88 87" fill="none" xmlns="http://www.w3.org/2000/svg">
<g filter="url(#filter0_d_620_6650)">
<rect x="6" y="6" width="65.6797" height="64.5473" rx="6" fill="#06B25F"/>
</g>
<path d="M28.3574 48.9473L13.3227 40.8163C12.3511 40.2538 11.8652 39.3844 11.8652 38.2082C11.8652 36.9809 12.3766 36.1115 13.3994 35.6001L28.3574 27.3924V30.384C28.3574 30.5886 28.2807 30.8698 28.1273 31.2278C27.9739 31.5346 27.7438 31.7647 27.4369 31.9182L16.7745 37.748C16.3654 38.0548 16.3654 38.3616 16.7745 38.6685L28.3574 44.8818V48.9473Z" fill="white"/>
<path d="M41.1638 24.9377H44.1554L36.7147 50.4048C36.5102 51.0696 36.0499 51.402 35.334 51.402H33.4163L41.1638 24.9377Z" fill="white"/>
<path d="M48.9841 27.3924L63.9422 35.6001C65.0161 36.1627 65.553 37.032 65.553 38.2082C65.553 39.3844 65.0161 40.2282 63.9422 40.7396L48.9841 48.9473V45.9557C48.9841 45.8023 49.0353 45.5466 49.1375 45.1886C49.291 44.8307 49.5211 44.575 49.8279 44.4216L60.567 38.6685C60.9761 38.3616 60.9761 38.0548 60.567 37.748L48.9841 31.4579V27.3924Z" fill="white"/>
<defs>
<filter id="filter0_d_620_6650" x="0" y="0" width="87.6797" height="86.5474" filterUnits="userSpaceOnUse" color-interpolation-filters="sRGB">
<feFlood flood-opacity="0" result="BackgroundImageFix"/>
<feColorMatrix in="SourceAlpha" type="matrix" values="0 0 0 0 0 0 0 0 0 0 0 0 0 0 0 0 0 0 127 0" result="hardAlpha"/>
<feMorphology radius="3" operator="dilate" in="SourceAlpha" result="effect1_dropShadow_620_6650"/>
<feOffset dx="5" dy="5"/>
<feGaussianBlur stdDeviation="4"/>
<feColorMatrix type="matrix" values="0 0 0 0 0 0 0 0 0 0 0 0 0 0 0 0 0 0 0.2 0"/>
<feBlend mode="normal" in2="BackgroundImageFix" result="effect1_dropShadow_620_6650"/>
<feBlend mode="normal" in="SourceGraphic" in2="effect1_dropShadow_620_6650" result="shape"/>
</filter>
</defs>
</svg>
