<svg width="366" height="313" viewBox="0 0 366 313" fill="none" xmlns="http://www.w3.org/2000/svg">
<g id="mobileaplic">
<path id="Vector" opacity="0.04" d="M39.2039 256.115C32.6734 315.782 206.748 293.419 242.434 273.292C278.119 253.164 302.409 241.47 332.136 202.411C334.205 210.686 328.463 195.248 332.136 202.411C379.868 148.356 324.481 90.0863 316.183 74.6658C309.011 61.3178 236.299 87.7446 226.759 77.1486C222.58 72.5645 179.637 7.00853 126.336 18.5296C87.3962 26.9463 38.5483 29.0446 17.5422 91.8067C-3.46381 154.569 52.1356 137.964 39.2039 256.115Z" fill="#276ED8"/>
<g id="Mask group">
<mask id="mask0_1_2" style="mask-type:alpha" maskUnits="userSpaceOnUse" x="12" y="0" width="341" height="295">
<g id="Group">
<path id="Vector_2" d="M39.2037 256.115C32.6732 315.782 206.748 293.419 242.433 273.292C278.119 253.164 302.408 241.47 332.136 202.411C334.205 210.686 328.463 195.248 332.136 202.411C379.868 148.356 340.604 49.7692 265.268 4.39392C274.807 14.99 258.095 -8.95408 265.268 4.39392C261.088 -0.189417 179.637 7.00853 126.336 18.5296C87.3954 26.9463 38.5481 29.0445 17.542 91.8067C-3.46404 154.568 52.1354 137.963 39.2037 256.115Z" fill="#276ED8"/>
</g>
</mask>
<g mask="url(#mask0_1_2)">
<g id="Group_2">
<path id="Vector_3" d="M229.718 96.8305V195.466C229.718 198.003 227.66 200.057 225.121 200.057H74.5106C71.9702 200.057 69.9136 198.003 69.9136 195.466V96.8305C69.9136 90.9783 74.6667 86.2244 80.5336 86.2244H219.098C224.964 86.2244 229.718 90.9783 229.718 96.8305Z" fill="white" stroke="#84B5FF" stroke-miterlimit="10"/>
<path id="Vector_4" d="M143.918 109.819H125.993V111.323H143.918V109.819Z" fill="#84B5FF"/>
<path id="Vector_5" d="M164.944 109.819H147.019V111.323H164.944V109.819Z" fill="#06B25F"/>
<path id="Vector_6" d="M159.327 117.937H131.531V119.442H159.327V117.937Z" fill="#276ED8"/>
<path id="Vector_7" d="M178.043 117.937H163.919V119.442H178.043V117.937Z" fill="#84B5FF"/>
<path id="Vector_8" d="M153.374 126.045H141.169V127.55H153.374V126.045Z" fill="#06B25F"/>
<path id="Vector_9" d="M200.923 126.045H160.429V127.55H200.923V126.045Z" fill="#06B25F"/>
<path id="Vector_10" d="M196.929 134.16H150.65V135.664H196.929V134.16Z" fill="#276ED8"/>
<path id="Vector_11" d="M153.322 142.268H139.081V143.773H153.322V142.268Z" fill="#84B5FF"/>
<path id="Vector_12" d="M173.659 142.268H159.417V143.773H173.659V142.268Z" fill="#276ED8"/>
<path id="Vector_13" d="M146.707 184.365H125.993V185.87H146.707V184.365Z" fill="#84B5FF"/>
<path id="Vector_14" d="M174.672 184.365H153.957V185.87H174.672V184.365Z" fill="#06B25F"/>
<path id="Vector_15" d="M201.896 184.365H181.182V185.87H201.896V184.365Z" fill="#84B5FF"/>
<path id="Vector_16" d="M172.026 176.244H131.532V177.749H172.026V176.244Z" fill="#276ED8"/>
<path id="Vector_17" d="M218.823 176.244H178.329V177.749H218.823V176.244Z" fill="#84B5FF"/>
<path id="Vector_18" d="M181.351 168.137H141.169V169.642H181.351V168.137Z" fill="#84B5FF"/>
<path id="Vector_19" d="M196.034 168.137H184.853V169.642H196.034V168.137Z" fill="#06B25F"/>
<path id="Vector_20" d="M153.672 160.021H138.549V161.525H153.672V160.021Z" fill="#06B25F"/>
<path id="Vector_21" d="M176.824 160.021H161.701V161.525H176.824V160.021Z" fill="#276ED8"/>
<path id="Vector_22" d="M201.689 160.021H186.565V161.525H201.689V160.021Z" fill="#84B5FF"/>
<path id="Vector_23" d="M177.291 151.916H156.085V153.42H177.291V151.916Z" fill="#06B25F"/>
<path id="Vector_24" d="M148.082 151.916H126.875V153.42H148.082V151.916Z" fill="#276ED8"/>
<path id="Vector_25" d="M121 108.38H119.067V110.313H121V108.38Z" fill="#84B5FF"/>
<path id="Vector_26" d="M120.999 179.113H119.067V175.183H120.999V179.113ZM120.999 169.282H119.067V165.353H120.999V169.282ZM120.999 159.452H119.067V155.522H120.999V159.452ZM120.999 149.621H119.067V145.692H120.999V149.621ZM120.999 139.791H119.067V135.862H120.999V139.791ZM120.999 129.96H119.067V126.031H120.999V129.96ZM120.999 120.13H119.067V116.201H120.999V120.13Z" fill="#84B5FF"/>
<path id="Vector_27" d="M121 185.012H119.068V186.944H121V185.012Z" fill="#84B5FF"/>
<path id="Vector_28" opacity="0.7" d="M69.5493 98.6587C69.5493 96.089 71.6354 94.0048 74.2093 94.0048H111.138V200.065H74.2093C71.6354 200.065 69.5493 197.982 69.5493 195.411V98.6587Z" fill="#84B5FF"/>
<path id="Vector_29" d="M90.8003 111.303H72.875V112.808H90.8003V111.303Z" fill="#06B25F"/>
<path id="Vector_30" d="M104.52 120.496H76.7249V122.001H104.52V120.496Z" fill="#84B5FF"/>
<path id="Vector_31" d="M104.52 129.69H76.7249V131.194H104.52V129.69Z" fill="#84B5FF"/>
<path id="Vector_32" d="M104.52 138.884H76.7249V140.388H104.52V138.884Z" fill="#84B5FF"/>
<path id="Vector_33" d="M104.52 148.076H76.7249V149.579H104.52V148.076Z" fill="#84B5FF"/>
<path id="Vector_34" d="M105.963 166.461H78.1679V167.965H105.963V166.461Z" fill="#84B5FF"/>
<path id="Vector_35" d="M105.963 175.656H78.1679V177.16H105.963V175.656Z" fill="#84B5FF"/>
<path id="Vector_36" d="M105.963 184.846H78.1679V186.35H105.963V184.846Z" fill="#84B5FF"/>
<path id="Vector_37" d="M90.8003 157.268H72.875V158.772H90.8003V157.268Z" fill="#06B25F"/>
<path id="Vector_38" d="M229.718 96.8305V97.2757H69.9136V96.8305C69.9136 90.9783 74.6667 86.2244 80.5336 86.2244H219.098C224.964 86.2244 229.718 90.9783 229.718 96.8305Z" fill="#84B5FF"/>
<path id="Vector_39" opacity="0.3" d="M205.448 92.2619C205.448 93.026 204.831 93.6418 204.066 93.6418C203.302 93.6418 202.685 93.026 202.685 92.2619C202.685 91.4987 203.302 90.8829 204.066 90.8829C204.824 90.8829 205.448 91.4987 205.448 92.2619Z" fill="white"/>
<path id="Vector_40" opacity="0.3" d="M213.007 92.2619C213.007 93.026 212.391 93.641 211.626 93.641C210.861 93.641 210.244 93.026 210.244 92.2619C210.244 91.4979 210.861 90.8821 211.626 90.8821C212.383 90.8821 213.007 91.4979 213.007 92.2619Z" fill="white"/>
<path id="Vector_41" opacity="0.3" d="M220.235 92.2619C220.235 93.026 219.618 93.641 218.854 93.641C218.089 93.641 217.472 93.026 217.472 92.2619C217.472 91.4979 218.089 90.8821 218.854 90.8821C219.618 90.8821 220.235 91.4979 220.235 92.2619Z" fill="white"/>
<path id="Vector_42" d="M229.718 96.8305V195.466C229.718 198.003 227.66 200.057 225.121 200.057H74.5106C71.9702 200.057 69.9136 198.003 69.9136 195.466V96.8305C69.9136 90.9783 74.6667 86.2244 80.5336 86.2244H219.098C224.964 86.2244 229.718 90.9783 229.718 96.8305Z" stroke="#84B5FF" stroke-miterlimit="10"/>
<path id="hair" d="M221.796 140.148C211.452 148.066 196.438 151.273 184.873 145.146C181.245 143.229 177.906 140.166 177.187 136.224C176.325 131.476 179.396 126.567 178.103 121.908C176.971 117.788 172.841 115.262 169.77 112.216C165.317 107.809 162.731 101.663 162.748 95.4824C162.766 89.3013 165.353 83.1738 169.824 78.7844C173.613 75.0582 178.552 72.6576 182.898 69.5395C186.328 67.0676 187.521 63.3523 189.155 59.4647C190.771 55.6308 189.389 51.2049 189.155 47.4423C188.67 39.3979 192.649 33.0804 198.45 27.0964C205.956 19.3207 217.108 19.4462 226.968 21.4528C231.961 22.4561 237.474 24.0148 241.855 26.6664C243.723 27.7952 244.963 29.1746 246.237 30.9842C246.65 31.5576 248.949 37.2728 248.859 37.2549C263.477 40.5873 255.63 60.7965 260.119 70.0771C261.538 72.9974 264.016 75.2552 266.19 77.6737C269.997 81.9382 272.978 87.062 273.911 92.6878C274.845 98.3135 273.57 104.44 269.781 108.705C269.17 109.404 268.452 110.084 268.219 110.98C267.859 112.324 268.613 113.667 269.17 114.939C272.493 122.554 268.686 131.368 263.891 138.159C260.676 142.727 256.887 147.063 251.967 149.714C244.118 153.961 234.205 153.298 226.124 149.5" fill="url(#paint0_linear_1_2)"/>
<path id="Vector_43" opacity="0.42" d="M224.018 40.2589C228.956 37.8581 235.259 40.5275 238.312 45.096C241.347 49.6645 245.298 53.732 244.58 59.1607C244.221 61.8475 243.628 64.5886 244.167 67.2584C245.532 74.174 249.806 79.2265 254.259 84.6909C258.031 89.313 259.252 95.4584 260.222 101.335C260.796 104.847 261.263 108.716 259.395 111.744C257.025 115.578 254.314 120.523 251.763 124.232C247.561 130.306 250.021 136.236 244.939 141.611C243.43 143.187 241.312 144.011 239.229 144.674C235.008 145.982 230.644 146.752 226.226 146.986C222.455 147.183 218.63 146.95 215.074 145.714C206.346 142.65 200.51 132.868 202.09 123.766C203.293 116.868 208.053 111.136 210.315 104.488C211.931 99.7228 212.201 94.509 211.105 89.6C209.705 83.401 206.13 77.2378 207.675 71.0745" fill="#148951"/>
<path id="Vector_44" d="M208.38 157.095C207.824 154.909 196.725 99.494 196.725 99.494C196.725 99.494 226.32 90.7875 245.249 99.494L233.127 157.579L208.38 157.095Z" fill="white"/>
<path id="Vector_45" opacity="0.83" d="M213.569 158.786C213.213 158.471 211.977 157.378 210.838 156.329C209.492 155.083 208.701 154.025 208.701 154.025C208.701 154.025 208.888 152.036 208.888 151.48C208.888 150.918 205.914 137.67 202.99 133.569C200.262 129.743 202.943 108.194 203.318 105.284L203.362 104.959C203.362 104.959 205.288 108.194 206.123 114.629C206.962 121.068 205.778 133.756 205.778 133.756C205.778 133.756 207.448 144.016 211.558 144.204C211.558 144.204 208.109 150.963 209.469 154.355C209.731 155 212.941 158.191 213.569 158.786Z" fill="#CAC3CD" fill-opacity="0.3"/>
<path id="Vector_46" d="M206.926 128.913C206.926 128.913 229.176 131.207 235.318 126.621C235.3 126.621 227.631 144.985 206.926 128.913Z" fill="#CAC3CD" fill-opacity="0.3"/>
<path id="Vector_47" d="M206.944 156.894C206.944 156.894 188.95 194.518 196.295 314.234C196.295 314.234 204.053 315.865 206.495 315.04C206.495 315.04 228.692 211.001 223.305 158.775L206.944 156.894Z" fill="#276ED8"/>
<path id="Vector_48" d="M217.109 181.082C217.109 181.082 216.697 278.403 233.434 312.605L246.094 312.193C246.094 312.193 252.846 196.007 233.147 156.77L218.044 158.437L217.109 181.082Z" fill="#276ED8"/>
<path id="Vector_49" d="M205.885 159.298C205.885 159.298 219.856 163.454 234.044 157.864L234.224 152.293C234.224 152.293 226.95 154.478 220.755 154.102C214.577 153.744 206.208 152.651 206.208 152.651L205.885 159.298Z" fill="#8F99B6"/>
<path id="Vector_50" d="M209.135 151.556C209.135 151.556 206.783 160.639 208.956 161.714C211.147 162.806 212.422 162.323 212.422 162.323L212.403 152.272L209.135 151.556Z" fill="#276ED8"/>
<path id="Vector_51" d="M231.583 150.841C231.583 150.841 233.056 159.333 231.206 160.928C228.692 163.059 228.548 161.34 228.548 161.34L228.315 151.575L231.583 150.841Z" fill="#276ED8"/>
<path id="Vector_52" d="M216.41 152.293C216.41 153.386 216.786 160.104 216.786 160.104L224.616 160.283L225.335 152.472L216.41 152.293ZM223.323 158.939L218.044 158.581L217.864 154.443H223.682L223.323 158.939Z" fill="#EAEAEA"/>
<path id="Vector_53" d="M212.574 96.4202C211.765 101.168 218.141 101.58 218.141 101.58C220.96 101.58 225.36 100.72 225.36 97.9071L223.995 80.331C223.995 77.5186 221.714 75.2428 218.895 75.2428C216.076 75.2428 213.794 77.5186 213.794 80.331L212.574 96.4202Z" fill="#F39B8D"/>
<path id="Vector_54" d="M232.969 34.4314C232.174 33.3041 227.493 35.2156 226.797 34.0036C224.033 37.1892 216.619 32.5483 213.146 35.1375C208.599 38.531 205.014 41.8026 199.798 44.0528C198.081 44.7943 200.813 45.6397 198.936 45.9678C198.853 49.3015 197.064 59.8766 197.672 63.2313C200.733 80.0541 214.286 88.2232 226.345 85.1059C235.457 82.741 243.039 71.0807 243.304 54.5045C243.464 44.5034 234.315 37.8543 234.018 36.3749C229.094 32.6646 236.58 39.4821 232.969 34.4314Z" fill="#FBB2A6"/>
<path id="Vector_55" d="M220.611 69.3208C220.611 69.3208 223.521 74.212 226.645 69.2316L220.611 69.3208Z" fill="#D8826C"/>
<path id="Vector_56" d="M217.612 59.3965C217.612 62.6216 214.99 65.2549 211.739 65.2549C208.488 65.2549 205.867 62.6394 205.867 59.3965C205.867 56.1714 208.488 53.5381 211.739 53.5381C214.99 53.5381 217.612 56.1714 217.612 59.3965Z" fill="white"/>
<path id="Vector_57" d="M215 60.781C214.873 63.1188 213.338 64.9454 211.565 64.8655C209.787 64.7717 208.456 62.8101 208.568 60.4777C208.689 58.1252 210.23 56.3141 211.987 56.3986C213.775 56.4723 215.121 58.4293 215 60.781Z" fill="#06B25F"/>
<path id="Vector_58" d="M214.059 60.7345C213.971 62.3897 212.881 63.6866 211.618 63.6237C210.354 63.5617 209.396 62.1679 209.494 60.4925C209.577 58.8233 210.667 57.5264 211.931 57.5885C213.2 57.6653 214.142 59.0653 214.059 60.7345Z" fill="#400404"/>
<path id="Vector_59" opacity="0.8" d="M214.354 57.8863C214.335 58.3447 213.784 58.6767 213.135 58.6441C212.486 58.6108 211.972 58.2105 211.997 57.7669C212.014 57.3085 212.565 56.9757 213.214 57.0091C213.864 57.0424 214.378 57.4426 214.354 57.8863Z" fill="white"/>
<path id="Vector_60" d="M214.414 74.0352C214.414 74.0352 223.879 78.3888 227.883 74.3935C227.883 74.3935 224.238 83.477 214.414 74.0352Z" fill="#D5503B"/>
<path id="Vector_61" d="M217.613 59.398C217.613 59.398 218.08 55.6354 214.398 53.7366C208.759 50.8342 205.671 57.5528 203.838 58.6457C203.838 58.6457 205.024 59.8277 205.886 59.4159C205.886 59.398 212.567 51.4252 217.613 59.398Z" fill="#302725"/>
<path id="Vector_62" d="M226.852 59.7711C226.852 63.0141 229.474 65.6303 232.725 65.6303C235.957 65.6303 238.597 63.0141 238.597 59.7711C238.597 56.5468 235.975 53.9305 232.725 53.9305C229.492 53.9127 226.852 56.5468 226.852 59.7711Z" fill="white"/>
<path id="Vector_63" d="M235.73 60.6383C235.508 62.9699 233.855 64.7027 232.018 64.5118C230.18 64.3203 228.883 62.2842 229.106 59.9681C229.327 57.6366 230.981 55.9038 232.816 56.0791C234.638 56.2714 235.951 58.3067 235.73 60.6383Z" fill="#06B25F"/>
<path id="Vector_64" d="M234.631 60.5669C234.5 62.278 233.415 63.5245 232.19 63.3833C230.964 63.2421 230.081 61.7257 230.198 60.0317C230.328 58.3207 231.426 57.0572 232.653 57.2146C233.865 57.3573 234.76 58.8559 234.631 60.5669Z" fill="#400404"/>
<path id="Vector_65" opacity="0.8" d="M235.469 57.3907C235.41 57.8398 234.724 58.1694 233.959 58.112C233.176 58.057 232.606 57.6459 232.646 57.1983C232.705 56.7492 233.373 56.4219 234.156 56.477C234.939 56.5328 235.527 56.9416 235.469 57.3907Z" fill="white"/>
<path id="Vector_66" d="M226.762 59.0521C226.762 59.0521 226.296 55.7021 229.977 54.0174C235.616 51.4376 238.705 57.4039 240.519 58.3711C240.519 58.3711 239.333 59.4105 238.471 59.0521C238.489 59.0521 232.437 51.796 226.762 59.0521Z" fill="#302725"/>
<path id="Vector_67" d="M204.472 51.3702C204.472 51.3702 210.434 46.0493 216.145 48.3428C217.474 48.8804 217.78 49.5071 218.623 52.0868C218.623 52.0868 212.122 48.4499 204.472 51.3702Z" fill="#6F3B1E"/>
<path id="Vector_68" d="M240.519 52.8423C240.519 52.8423 237.125 46.6969 231.952 47.9333C230.749 48.2195 230.336 48.7749 228.989 51.1041C228.989 51.122 235.149 48.7392 240.519 52.8423Z" fill="#6F3B1E"/>
<path id="Vector_69" d="M199.095 55.35C199.095 55.35 192.756 46.7148 190.924 55.0095C189.469 61.621 195.378 66.4758 199.042 65.2402C202.705 64.0038 199.095 55.35 199.095 55.35Z" fill="#FBB2A6"/>
<path id="Vector_70" d="M199.168 56.8888C199.168 56.8888 194.678 51.4423 193.529 54.0042C192.38 56.5662 193.062 59.5757 193.062 59.5757C193.062 59.5757 193.529 56.1357 196.258 57.7304C196.258 57.7304 194.319 63.3918 199.168 61.2425C199.185 61.2425 201.089 59.3608 199.168 56.8888Z" fill="#F39B8D"/>
<path id="Vector_71" d="M199.442 65.6769C199.442 66.5549 198.778 67.2537 197.969 67.2537C197.144 67.2537 196.497 66.537 196.497 65.6769C196.497 64.7988 197.162 64.0821 197.969 64.0821C198.778 64.0821 199.442 64.781 199.442 65.6769Z" fill="white"/>
<path id="Vector_72" d="M251.288 49.0502C245.161 50.6791 238.262 49.4978 233.056 45.9337C227.85 42.3698 224.465 36.4839 224.122 30.3943C224.015 28.7038 224.379 26.6672 225.986 25.9747C226.543 25.7303 227.186 25.7099 227.807 25.7303C231.599 25.8322 235.241 27.3596 238.262 29.5796C241.283 31.7996 243.682 34.6712 245.803 37.6855C247.324 39.8648 248.695 42.1458 249.531 44.6306C250.045 46.199 250.345 47.8278 250.409 49.4574" fill="url(#paint1_linear_1_2)"/>
<path id="Vector_73" d="M228.232 36.5287C218.405 41.7727 207.281 51.0382 196.626 50.5247C196.081 50.5069 193.337 47.3353 193.112 46.9281C192.924 46.5736 193.131 46.1307 193.337 45.7413C195.499 41.8789 201.286 35.1646 205.589 32.8792C209.893 30.5938 214.608 29.1411 219.306 27.8301C221.693 27.1746 224.117 26.5368 226.522 26.5014C228.908 26.466 231.314 27.0861 232.648 28.6097" fill="url(#paint2_linear_1_2)"/>
<path id="Vector_74" d="M245.342 99.3529C245.342 99.3529 265.248 145.039 257.972 151.35C257.972 151.35 250.696 155.234 244.372 137.757C238.049 120.263 238.067 98.3461 245.342 99.3529Z" fill="white"/>
<path id="Vector_75" opacity="0.83" d="M255.841 151.56C255.442 151.301 254.058 150.403 252.775 149.535C251.26 148.502 253.333 152.618 253.333 152.618C253.333 152.618 253.416 151.649 253.333 151.099C253.25 150.544 248.345 137.881 244.846 134.257C241.58 130.877 241.037 109.169 240.977 106.236L240.972 105.909C240.972 105.909 243.357 108.823 245.137 115.063C246.921 121.307 247.63 134.03 247.63 134.03C247.63 134.03 250.802 143.931 254.895 143.508C254.895 143.508 252.144 148.624 253.993 151.778C254.347 152.377 255.131 151.064 255.841 151.56Z" fill="#CAC3CD" fill-opacity="0.3"/>
<path id="Vector_76" d="M243.403 129.989C243.403 129.989 260.183 141.73 258.925 148.94C258.727 150.108 257.955 151.367 257.955 151.367C257.955 151.367 250.679 159.637 241.444 140.687C241.463 140.669 236.109 128.532 243.403 129.989Z" fill="white"/>
<path id="Vector_77" d="M245.827 127.312C244.3 123.95 240.06 121.432 238.713 121.63C237.635 121.109 236.557 121.289 235.64 123.069C234.329 125.604 234.383 129.955 235.389 132.67C237.347 137.956 242.772 131.267 242.539 127.06C244.641 128.858 247.408 130.8 245.827 127.312Z" fill="#F0A98F"/>
<path id="Vector_78" d="M238.551 121.97C238.551 121.97 232.246 142.377 234.186 143.348C236.127 144.319 245.846 144.319 245.846 144.319C245.846 144.319 252.636 122.455 251.181 121.97C249.708 121.485 239.019 120.999 238.551 121.97Z" fill="#06B25F"/>
<path id="Vector_79" d="M226.802 146.513C226.802 146.513 229.263 146.01 230.198 144.77C231.132 143.529 231.707 142.99 235.03 141.551C238.335 140.113 239.647 138.189 239.647 138.189C239.647 138.189 241.965 140.454 236.899 142.864C233.79 144.338 243.995 144.356 247.067 144.05C247.067 144.05 248.845 145.093 245.917 146.513C242.988 147.934 245.809 148.096 240.007 150.541C234.204 152.968 227.305 154.155 225.886 150.469C224.467 146.783 226.802 146.513 226.802 146.513Z" fill="#FFBC9F"/>
<path id="Vector_80" d="M204.65 113.517C205.782 119.126 200.914 142.859 200.914 142.859C204.219 142.644 218.933 143.507 224.376 144.118C226.226 144.316 227.412 144.46 227.412 144.46L229.227 153.863C228.202 154.097 227.197 154.295 226.209 154.492C206.572 158.178 192.182 152.82 192.182 152.82C186.254 116.537 196.8 99.349 196.8 99.349C201.668 99.0255 204.65 113.517 204.65 113.517Z" fill="white"/>
<path id="Vector_81" d="M228.448 95.7081H224.798C224.798 95.7081 225.961 98.8464 224.518 99.6329C221.43 101.315 221.149 101.315 216.938 101.315C214.438 101.315 212.727 96.2689 212.727 96.2689L209.639 96.8297C209.639 96.8297 212.897 102.758 216.938 104.118C219.743 105.063 221.932 105.556 224.518 104.118C227.516 102.452 228.448 95.7081 228.448 95.7081Z" fill="#CAC3CD" fill-opacity="0.3"/>
</g>
</g>
</g>
<path id="Vector_82" d="M125.817 41.6497H106.648C105.893 41.6497 105.276 41.0403 105.276 40.28C105.276 39.5263 105.887 38.9103 106.648 38.9103H125.817C126.572 38.9103 127.188 39.5198 127.188 40.28C127.188 41.0337 126.572 41.6497 125.817 41.6497Z" fill="#66D6A0"/>
<path id="Vector_83" d="M125.816 48.4855H106.647C105.892 48.4855 105.276 47.8759 105.276 47.1158C105.276 46.3618 105.886 45.746 106.647 45.746H125.816C126.571 45.746 127.188 46.3556 127.188 47.1158C127.188 47.8697 126.571 48.4855 125.816 48.4855Z" fill="#66D6A0"/>
<path id="circle" d="M301.513 200.244C293.933 200.244 287.791 206.378 287.791 213.948C287.791 221.517 293.933 227.652 301.513 227.652C309.092 227.652 315.235 221.517 315.235 213.948C315.235 206.378 309.092 200.244 301.513 200.244ZM301.513 224.237C295.817 224.237 291.203 219.63 291.203 213.941C291.203 208.252 295.817 203.645 301.513 203.645C307.209 203.645 311.822 208.252 311.822 213.941C311.822 219.63 307.209 224.237 301.513 224.237Z" fill="#66D6A0"/>
<g id="gear1" filter="url(#filter0_d_1_2)">
<path id="Vector_84" d="M135.89 270.06L144.356 268.47V260.889L135.89 259.431C135.24 256.317 134.006 253.401 132.307 250.817L137.164 243.7L131.79 238.333L124.77 243.289C122.182 241.593 119.276 240.374 116.144 239.724L114.552 231.269H106.961L105.502 239.724C102.383 240.374 99.4639 241.606 96.8761 243.303L89.7634 238.452L84.3889 243.82L89.3518 250.83C87.6532 253.415 86.4323 256.33 85.7823 259.444L77.3159 261.034V268.616L85.7823 270.073C86.4323 273.201 87.6664 276.103 89.365 278.687L84.5085 285.791L89.883 291.158L96.9157 286.202C99.5035 287.898 102.423 289.13 105.541 289.767L107.134 298.222H114.724L116.184 289.767C119.316 289.117 122.222 287.885 124.809 286.188L131.922 291.039L137.297 285.672L132.334 278.661C134.019 276.09 135.24 273.187 135.89 270.06ZM110.837 280.45C102.157 280.45 95.1247 273.413 95.1247 264.759C95.1247 256.104 102.157 249.068 110.837 249.068C119.515 249.068 126.548 256.091 126.548 264.759C126.548 273.426 119.515 280.45 110.837 280.45Z" fill="#84B5FF"/>
</g>
<g id="gear1_2" filter="url(#filter1_d_1_2)">
<path id="Vector_85" d="M47.2125 224.541L52.5157 223.545V218.797L47.2125 217.883C46.8053 215.932 46.0322 214.107 44.9682 212.488L48.0105 208.03L44.6441 204.668L40.247 207.773C38.6262 206.71 36.8058 205.946 34.8442 205.54L33.8468 200.244H29.0922L28.1779 205.54C26.2246 205.946 24.396 206.719 22.7751 207.781L18.3199 204.743L14.9534 208.105L18.0622 212.496C16.9982 214.115 16.2335 215.941 15.8262 217.892L10.5231 218.888V223.636L15.8262 224.549C16.2335 226.508 17.0065 228.326 18.0705 229.945L15.0282 234.394L18.3947 237.757L22.8 234.652C24.4209 235.714 26.2496 236.486 28.2029 236.885L29.2003 242.181H33.9548L34.8692 236.885C36.8308 236.478 38.6511 235.706 40.272 234.643L44.7272 237.681L48.0936 234.32L44.9849 229.928C46.0406 228.318 46.8053 226.5 47.2125 224.541ZM31.5194 231.049C26.0833 231.049 21.6779 226.641 21.6779 221.221C21.6779 215.8 26.0833 211.392 31.5194 211.392C36.9554 211.392 41.3609 215.791 41.3609 221.221C41.3609 226.65 36.9554 231.049 31.5194 231.049Z" fill="#84B5FF"/>
</g>
<g id="green_sqr">
<g id="Group_3" filter="url(#filter2_d_1_2)">
<path id="Vector_86" d="M348.121 45.891H306.431C303.857 45.891 301.771 47.9746 301.771 50.5449V91.3027C301.771 93.873 303.857 95.9566 306.431 95.9566H348.121C350.695 95.9566 352.781 93.873 352.781 91.3027V50.5449C352.781 47.9746 350.695 45.891 348.121 45.891Z" fill="#276ED8"/>
</g>
<path id="Vector_87" d="M319.134 79.2033L307.458 72.8965C306.703 72.4598 306.326 71.7858 306.326 70.8729C306.326 69.9212 306.723 69.2471 307.517 68.85L319.134 62.4843V64.8043C319.134 64.9633 319.075 65.1812 318.956 65.4589C318.837 65.697 318.658 65.8754 318.42 65.9941L310.139 70.5161C309.821 70.7542 309.821 70.9923 310.139 71.2305L319.134 76.0495V79.2033Z" fill="white"/>
<path id="Vector_88" d="M329.081 60.5801H331.404L325.626 80.3334C325.467 80.8492 325.109 81.1067 324.553 81.1067H323.064L329.081 60.5801Z" fill="white"/>
<path id="Vector_89" d="M335.155 62.4843L346.772 68.85C347.606 69.2867 348.023 69.9607 348.023 70.8729C348.023 71.7858 347.606 72.4397 346.772 72.8368L335.155 79.2033V76.8825C335.155 76.7639 335.194 76.5653 335.274 76.2876C335.393 76.0099 335.572 75.8114 335.81 75.6927L344.151 71.2305C344.468 70.9923 344.468 70.7542 344.151 70.5161L335.155 65.6373V62.4843Z" fill="white"/>
</g>
</g>
<defs>
<filter id="filter0_d_1_2" x="67.3159" y="225.269" width="87.0405" height="86.9526" filterUnits="userSpaceOnUse" color-interpolation-filters="sRGB">
<feFlood flood-opacity="0" result="BackgroundImageFix"/>
<feColorMatrix in="SourceAlpha" type="matrix" values="0 0 0 0 0 0 0 0 0 0 0 0 0 0 0 0 0 0 127 0" result="hardAlpha"/>
<feOffset dy="4"/>
<feGaussianBlur stdDeviation="5"/>
<feColorMatrix type="matrix" values="0 0 0 0 0.0885677 0 0 0 0 0.0395834 0 0 0 0 0.395833 0 0 0 0.25 0"/>
<feBlend mode="normal" in2="BackgroundImageFix" result="effect1_dropShadow_1_2"/>
<feBlend mode="normal" in="SourceGraphic" in2="effect1_dropShadow_1_2" result="shape"/>
</filter>
<filter id="filter1_d_1_2" x="0.523132" y="194.244" width="61.9925" height="61.9374" filterUnits="userSpaceOnUse" color-interpolation-filters="sRGB">
<feFlood flood-opacity="0" result="BackgroundImageFix"/>
<feColorMatrix in="SourceAlpha" type="matrix" values="0 0 0 0 0 0 0 0 0 0 0 0 0 0 0 0 0 0 127 0" result="hardAlpha"/>
<feOffset dy="4"/>
<feGaussianBlur stdDeviation="5"/>
<feColorMatrix type="matrix" values="0 0 0 0 0.0885677 0 0 0 0 0.0395834 0 0 0 0 0.395833 0 0 0 0.25 0"/>
<feBlend mode="normal" in2="BackgroundImageFix" result="effect1_dropShadow_1_2"/>
<feBlend mode="normal" in="SourceGraphic" in2="effect1_dropShadow_1_2" result="shape"/>
</filter>
<filter id="filter2_d_1_2" x="298.771" y="42.891" width="67.0108" height="66.0655" filterUnits="userSpaceOnUse" color-interpolation-filters="sRGB">
<feFlood flood-opacity="0" result="BackgroundImageFix"/>
<feColorMatrix in="SourceAlpha" type="matrix" values="0 0 0 0 0 0 0 0 0 0 0 0 0 0 0 0 0 0 127 0" result="hardAlpha"/>
<feOffset dx="5" dy="5"/>
<feGaussianBlur stdDeviation="4"/>
<feColorMatrix type="matrix" values="0 0 0 0 0 0 0 0 0 0 0 0 0 0 0 0 0 0 0.2 0"/>
<feBlend mode="normal" in2="BackgroundImageFix" result="effect1_dropShadow_1_2"/>
<feBlend mode="normal" in="SourceGraphic" in2="effect1_dropShadow_1_2" result="shape"/>
</filter>
<linearGradient id="paint0_linear_1_2" x1="263.257" y1="138.601" x2="198.542" y2="20.2233" gradientUnits="userSpaceOnUse">
<stop stop-color="#12844D"/>
<stop offset="1" stop-color="#3BE090"/>
</linearGradient>
<linearGradient id="paint1_linear_1_2" x1="251.163" y1="49.7041" x2="229.156" y2="24.5736" gradientUnits="userSpaceOnUse">
<stop stop-color="#25B770" stop-opacity="0.6"/>
<stop offset="1" stop-color="#1FCF79"/>
</linearGradient>
<linearGradient id="paint2_linear_1_2" x1="194.208" y1="48.7873" x2="227.553" y2="27.7337" gradientUnits="userSpaceOnUse">
<stop stop-color="#33CF83"/>
<stop offset="1" stop-color="#32CE82"/>
</linearGradient>
</defs>
</svg>
