<svg width="351" height="343" viewBox="0 0 351 343" fill="none" xmlns="http://www.w3.org/2000/svg">
<g id="sdcdevelop">
<rect width="351" height="343" fill="white" fill-opacity="0.01"/>
<path id="Vector" opacity="0.08" d="M107.07 302.056C180.039 318.853 296.777 288.254 334.932 241.909C373.086 195.563 330.191 146.554 301.046 128.978C291.979 123.545 281.881 119.771 274.411 112.025C258.101 95.0586 251.777 66.6812 231.715 55.2489C214.364 45.3459 204.377 79.8633 185.283 74.6001C176.951 72.3593 129.143 46.129 96.4223 58.2172C66.5515 69.2526 25.8408 123.616 40.0588 176.246C54.2768 228.877 7.15083 279.054 107.07 302.056Z" fill="#84B5FF"/>
<path id="Vector_2" opacity="0.08" d="M143.747 292.639C198.823 309.972 288.11 291.7 318.035 256.637C347.96 221.573 316.384 180.059 294.608 164.439C287.833 159.607 280.24 156.048 274.726 149.45C262.685 135.001 258.462 111.95 243.459 101.73C230.484 92.8792 222.193 119.976 207.799 114.746C201.517 112.508 165.744 88.9651 140.646 96.8978C117.733 104.139 85.703 145.484 95.4249 188.368C105.147 231.252 68.3306 268.905 143.747 292.639Z" fill="#84B5FF"/>
<g id="Mask group">
<mask id="mask0_1_2" style="mask-type:alpha" maskUnits="userSpaceOnUse" x="89" y="68" width="242" height="232">
<g id="Group">
<path id="Vector_3" d="M143.747 292.639C198.822 309.972 288.109 291.7 318.034 256.637C347.96 221.573 316.383 180.059 294.607 164.439C287.832 159.607 295.841 152.577 290.326 145.979C278.286 131.53 309.61 89.7654 294.607 79.5453C281.631 70.6946 247.885 73.9743 233.491 68.7444C227.208 66.5067 169.275 75.7063 158.65 73.7025C135.149 69.2703 103.958 149.402 97.4588 173.742C90.9597 198.083 68.33 268.905 143.747 292.639Z" fill="#84B5FF"/>
</g>
</mask>
<g mask="url(#mask0_1_2)">
<g id="Group_2">
<path id="Vector_4" d="M217.177 282.595H225.077V304.504H217.177V282.595Z" fill="#969391"/>
<path id="Vector_5" d="M254.342 275.741C254.342 279.929 250.732 288.023 246.556 288.023H198.468C194.292 288.023 192.835 279.912 192.835 275.741V275.421C192.835 271.232 194.292 266.723 198.468 266.723H246.556C250.732 266.723 254.342 271.232 254.342 275.421V275.741Z" fill="#435467"/>
<path id="Vector_6" d="M275.091 267.226C274.8 271.681 270.883 275.036 266.318 274.734C264.991 274.645 215.446 275.799 213.407 275.603C204.504 274.787 217.566 270.811 213.407 265.664C206.366 265.699 204.941 265.592 203.371 264.901C200.976 263.853 180.29 258.652 178.753 252.706C177.215 246.742 171.242 171.498 171.242 171.498C173.719 166.936 200.167 169.847 212.549 171.498C219.12 172.386 222.94 178.9 222.94 183.923C222.94 185.663 223.134 187.42 223.231 189.16C223.733 197.964 224.17 206.768 224.655 215.572C224.931 220.365 225.141 225.175 225.352 229.985C225.465 232.595 225.595 235.222 225.756 237.831C225.918 240.689 225.627 244.115 226.323 246.884C228.362 255.227 243.512 256.061 249.97 256.149C260.329 256.292 257.983 256.682 263.016 257.339C267.451 257.924 270.64 258.759 272.841 261.084C274.411 262.752 275.22 264.989 275.091 267.226Z" fill="#C1C7CC"/>
<path id="Vector_7" d="M195.942 275.196C208.114 276.563 215.802 275.658 216.806 275.711C220.221 275.906 222.455 273.687 222.778 269.126C222.94 266.836 222.374 264.582 221.225 262.913C219.606 260.588 217.227 259.806 213.909 259.328C210.138 258.777 204.262 258.546 196.46 258.67C193.919 258.706 191.297 258.457 188.804 257.961C185.907 257.375 183.593 255.973 181.213 253.896C178.3 251.358 178.688 245.908 178.736 241.719C178.769 239.11 178.753 236.536 178.688 233.944C178.413 221.732 178.397 209.502 178.267 197.29C178.203 190.456 178.121 183.64 178.057 176.806C178.008 172.262 175.176 168.8 171.744 169.12C168.296 169.422 165.561 173.363 165.61 177.907L166.419 251.997C166.419 252.281 166.435 252.547 166.451 252.831C166.549 253.967 167.277 259.913 171.712 265.469C176.179 271.06 182.686 274.256 191.119 275.036C192.657 275.16 194.291 275.001 195.942 275.196Z" fill="#979B9E"/>
<path id="hair" class="hair" d="M212.217 204.776C203.073 212.46 189.801 215.572 179.578 209.626C176.371 207.766 173.418 204.793 172.783 200.968C172.022 196.361 174.736 191.597 173.593 187.076C172.593 183.078 168.942 180.626 166.227 177.671C162.29 173.393 160.004 167.43 160.02 161.432C160.036 155.434 162.322 149.488 166.274 145.228C169.624 141.612 173.99 139.282 177.832 136.257C180.864 133.858 183.594 130.746 185.039 126.973C186.467 123.252 185.293 121.061 185.087 117.411C184.658 109.605 186.452 100.877 191.579 95.0698C198.215 87.5238 208.073 87.646 216.789 89.5929C221.202 90.5664 226.076 92.0788 229.949 94.6523C231.6 95.7473 232.695 97.086 233.823 98.8421C234.187 99.3988 236.219 104.945 236.14 104.927C249.062 108.161 242.125 127.772 246.093 136.779C247.348 139.613 249.538 141.803 251.459 144.15C254.825 148.288 257.46 153.26 258.285 158.719C259.111 164.179 257.984 170.125 254.634 174.263C254.095 174.941 253.46 175.602 253.253 176.471C252.936 177.775 253.603 179.079 254.095 180.313C257.031 187.702 253.666 196.256 249.427 202.846C246.586 207.279 243.236 211.487 238.886 214.059C231.949 218.18 223.186 217.536 216.043 213.851" fill="url(#paint0_linear_1_2)"/>
<path id="Vector_8" opacity="0.42" d="M218.408 107.572C222.774 105.242 228.346 107.833 231.045 112.266C233.728 116.7 237.22 120.646 236.585 125.914C236.268 128.522 235.744 131.182 236.22 133.773C237.427 140.484 241.205 145.387 245.142 150.689C248.476 155.175 249.555 161.138 250.413 166.841C250.92 170.249 251.333 174.004 249.682 176.942C247.587 180.663 245.189 185.461 242.936 189.06C239.221 194.954 241.396 200.709 236.903 205.925C235.569 207.455 233.696 208.255 231.854 208.897C228.124 210.167 224.266 210.914 220.361 211.14C217.028 211.332 213.646 211.106 210.503 209.906C202.787 206.933 197.628 197.441 199.025 188.608C200.089 181.915 204.296 176.351 206.296 169.901C207.725 165.276 207.963 160.217 206.995 155.453C205.756 149.438 202.597 143.457 203.963 137.476" fill="#113356"/>
<path id="Vector_9" d="M202.837 164.016C202.125 168.614 207.758 169.004 207.758 169.004C210.235 169.004 214.103 168.17 214.103 165.454L212.905 148.431C212.905 145.716 210.882 143.497 208.406 143.497C205.929 143.497 203.906 145.698 203.906 148.431L202.837 164.016Z" fill="#F39B8D"/>
<path id="Vector_10" d="M224.837 103.881C224.266 102.698 219.948 103.968 219.472 102.716C216.694 105.445 210.709 100.073 207.375 102.142C203.01 104.854 199.501 107.567 194.675 109.096C193.088 109.601 195.39 110.748 193.707 110.835C193.262 114.034 190.516 123.996 190.675 127.299C191.484 143.869 202.597 154.3 213.519 152.77C221.774 151.605 229.584 140.392 231.664 124.466C231.854 122.97 232.854 115.773 232.759 114.312C228.854 110.14 227.441 109.184 224.837 103.881Z" fill="#FBB2A6"/>
<path id="Vector_11" d="M211.17 136.047C211.17 136.047 213.742 140.793 216.504 135.96L211.17 136.047Z" fill="#D8826C"/>
<path id="Vector_12" d="M208.518 126.415C208.518 129.544 206.2 132.1 203.327 132.1C200.454 132.1 198.136 129.561 198.136 126.415C198.136 123.285 200.454 120.729 203.327 120.729C206.2 120.729 208.518 123.285 208.518 126.415Z" fill="white"/>
<path id="Vector_13" d="M206.961 129.545C206.041 131.927 203.961 133.248 202.31 132.501C200.659 131.736 200.072 129.197 200.976 126.815C201.897 124.416 203.977 123.112 205.612 123.86C207.279 124.608 207.882 127.146 206.961 129.545Z" fill="#06B25F"/>
<path id="Vector_14" d="M206.089 129.145C205.438 130.831 203.961 131.77 202.787 131.231C201.612 130.692 201.183 128.884 201.85 127.18C202.501 125.477 203.977 124.538 205.152 125.077C206.327 125.633 206.74 127.441 206.089 129.145Z" fill="#400404"/>
<path id="Vector_15" d="M207.341 126.295C207.167 126.764 206.532 126.903 205.929 126.624C205.325 126.347 204.976 125.738 205.151 125.286C205.325 124.817 205.961 124.678 206.564 124.956C207.167 125.234 207.516 125.842 207.341 126.295Z" fill="white"/>
<path id="Vector_16" d="M205.693 140.62C205.693 140.62 214.059 144.845 217.599 140.968C217.599 140.968 214.376 149.783 205.693 140.62Z" fill="#D5503B"/>
<path id="Vector_17" d="M208.518 126.415C208.518 126.415 208.93 122.765 205.676 120.922C200.692 118.105 197.961 124.625 196.342 125.685C196.342 125.685 197.39 126.833 198.151 126.433C198.151 126.415 204.057 118.679 208.518 126.415Z" fill="#302725"/>
<path id="Vector_18" d="M217.995 127.199C217.995 130.347 220.312 132.885 223.186 132.885C226.043 132.885 228.377 130.347 228.377 127.199C228.377 124.07 226.059 121.532 223.186 121.532C220.328 121.514 217.995 124.07 217.995 127.199Z" fill="white"/>
<path id="Vector_19" d="M226.708 129.738C226.216 132.276 224.327 133.98 222.47 133.545C220.612 133.11 219.517 130.711 220.009 128.19C220.501 125.652 222.39 123.948 224.247 124.365C226.089 124.8 227.2 127.199 226.708 129.738Z" fill="#06B25F"/>
<path id="Vector_20" d="M225.741 129.511C225.391 131.319 224.058 132.519 222.74 132.223C221.423 131.928 220.644 130.206 220.978 128.415C221.327 126.608 222.676 125.39 223.994 125.703C225.296 125.999 226.09 127.702 225.741 129.511Z" fill="#400404"/>
<path id="Vector_21" d="M226.487 126.452C226.392 126.939 225.757 127.217 225.091 127.06C224.408 126.904 223.948 126.382 224.027 125.895C224.122 125.409 224.741 125.13 225.424 125.287C226.107 125.443 226.583 125.965 226.487 126.452Z" fill="white"/>
<path id="Vector_22" d="M217.916 126.502C217.916 126.502 217.503 123.25 220.757 121.616C225.742 119.112 228.472 124.902 230.075 125.841C230.075 125.841 229.028 126.849 228.266 126.502C228.282 126.502 222.932 119.46 217.916 126.502Z" fill="#302725"/>
<path id="Vector_23" d="M199.055 118.346C199.055 118.346 204.326 113.183 209.374 115.408C210.549 115.929 210.819 116.538 211.565 119.042C211.565 119.042 205.818 115.513 199.055 118.346Z" fill="#6F3B1E"/>
<path id="Vector_24" d="M230.012 120.503C230.012 120.503 227.012 114.54 222.44 115.739C221.377 116.018 221.011 116.557 219.821 118.817C219.821 118.834 225.266 116.522 230.012 120.503Z" fill="#6F3B1E"/>
<path id="Vector_25" d="M192.149 122.484C192.149 122.484 186.545 114.105 184.926 122.154C183.64 128.569 188.863 133.281 192.101 132.082C195.34 130.882 192.149 122.484 192.149 122.484Z" fill="#FBB2A6"/>
<path id="Vector_26" d="M192.214 123.98C192.214 123.98 188.245 118.695 187.229 121.181C186.213 123.667 186.817 126.588 186.817 126.588C186.817 126.588 187.229 123.25 189.642 124.797C189.642 124.797 187.927 130.291 192.214 128.205C192.23 128.205 193.912 126.379 192.214 123.98Z" fill="#F39B8D"/>
<path id="Vector_27" d="M192.458 132.511C192.458 133.363 191.87 134.041 191.156 134.041C190.426 134.041 189.854 133.346 189.854 132.511C189.854 131.66 190.442 130.964 191.156 130.964C191.87 130.964 192.458 131.642 192.458 132.511Z" fill="white"/>
<path id="Vector_28" d="M237.982 116.73C233.441 118.121 228.329 117.113 224.472 114.071C220.615 111.028 218.106 106.003 217.852 100.805C217.773 99.3622 218.043 97.6237 219.233 97.0324C219.646 96.8233 220.122 96.8064 220.582 96.8233C223.392 96.9109 226.091 98.2143 228.329 100.11C230.568 102.005 232.346 104.456 233.917 107.029C235.044 108.89 236.06 110.837 236.679 112.958C237.061 114.297 237.283 115.688 237.33 117.079" fill="url(#paint1_linear_1_2)"/>
<path id="Vector_29" d="M218.836 104.057C210.534 109.203 201.136 118.296 192.135 117.792C191.675 117.775 189.356 114.663 189.166 114.263C189.007 113.915 189.182 113.481 189.356 113.098C191.182 109.308 196.072 102.718 199.707 100.475C203.342 98.2332 207.327 96.8077 211.295 95.5206C213.312 94.8777 215.36 94.2518 217.392 94.2165C219.408 94.1819 221.44 94.7908 222.567 96.2857" fill="url(#paint2_linear_1_2)"/>
<path id="Vector_30" d="M261.987 262.609C261.987 262.609 263.897 253.592 245.267 245.25C226.653 236.907 219.045 236.002 217.993 241.877C216.941 247.752 221.505 260.018 248.115 267.899C258.944 271.094 261.987 262.609 261.987 262.609Z" fill="#DE947A"/>
<path id="Vector_31" d="M249.991 260.729C249.991 260.711 249.991 260.694 249.991 260.676C250.655 255.067 257.113 254.09 260.804 257.161C263.83 259.682 266.744 275.338 267.682 281.267C269.14 290.514 270.272 304.43 271.713 313.696C272.133 316.394 272.538 319.074 272.894 321.773C274.804 326.441 275.209 327.204 276.828 330.47C278.446 333.719 279.984 333.47 278.478 334.198C276.05 335.387 269.14 333.026 267.52 327.807C266.631 324.967 266.129 323.761 265.805 320.619C251.48 290.354 249.473 265.309 249.991 260.729Z" fill="#DE947A"/>
<path id="Vector_32" d="M248.711 261.104C248.711 261.104 249.488 251.891 230.033 246.354C210.561 240.833 202.921 241.046 202.581 247.01C202.241 252.992 208.278 264.459 235.6 268.364C246.736 269.961 248.711 261.104 248.711 261.104Z" fill="#F0A98F"/>
<path id="Vector_33" d="M262.972 258.489C255.866 242.07 226.683 237.065 226.683 237.065L222.119 225.385L211.468 225.118C193.971 261.56 228.205 257.105 232.526 258.773C236.831 260.442 248.501 269.902 248.501 269.902C250.784 284.369 260.674 320.26 263.215 320.527C265.756 320.811 273.104 317.474 273.104 317.474C273.104 317.474 270.061 274.891 262.972 258.489Z" fill="#C2C2C2"/>
<path id="Vector_34" d="M239.356 260.747C240.911 256.469 246.591 255.741 248.631 260.285C250.314 264.013 248.631 283.237 247.045 288.988C244.568 297.987 242.059 306.969 239.583 315.951C238.855 318.56 238.126 321.17 237.333 323.761C237.139 328.873 237.204 329.76 237.317 333.47C237.43 337.162 237.285 342.878 235.634 342.807C232.979 342.7 228.366 334.304 229.046 328.837C229.418 325.855 230.471 322.234 231.458 319.252C231.749 261.315 238.806 262.273 239.356 260.747Z" fill="#F0A98F"/>
<path id="Vector_35" d="M196.255 217.312C196.255 217.312 180.604 249.902 188.809 257.943C197.016 266.001 232.787 270.723 232.787 270.723C232.787 270.723 228.983 306.046 230.245 317.459L240.135 319.128C240.135 319.128 255.609 269.605 248.503 257.375C241.397 245.144 222.881 240.956 215.015 241.808C215.015 241.808 218.818 230.128 216.034 225.939C213.25 221.767 196.255 216.212 196.255 217.312Z" fill="#D4D4D4"/>
<path id="Vector_36" d="M194.166 222.673C196.319 202.437 186.171 163.618 186.171 163.618C186.171 163.618 213.249 154.848 230.568 163.618L221.715 226.365C221.715 226.365 216.924 227.678 210.207 226.631C203.522 225.566 194.166 222.673 194.166 222.673Z" fill="white"/>
<path id="Vector_37" d="M198.164 193.933C198.164 193.933 218.526 196.24 224.142 191.625C224.142 191.625 217.118 210.103 198.164 193.933Z" fill="#EFEDF0"/>
<path id="Vector_38" d="M223.235 226.862C223.235 226.862 211.856 232.808 193.987 223.596C194.164 222.673 194.521 217.65 194.521 217.65L222.409 221.519L223.235 226.862Z" fill="#8F99B6"/>
<path id="Vector_39" d="M205.107 218.854L203.747 228.35L200.234 228.049L201.578 217.949L205.107 218.854Z" fill="#D4D4D4"/>
<path id="Vector_40" d="M218.913 220.046L219.998 228.655L211.063 229.542L210.529 218.856L218.913 220.046ZM213.216 226.862L217.133 225.974V221.963L212.536 221.519L213.216 226.862Z" fill="#EAEAEA"/>
<path id="Vector_41" d="M276.937 216.782C276.937 216.782 269.637 217.101 261.01 215.255C253.29 213.604 244.5 210.249 238.981 203.38C232.572 195.392 226.761 181.014 226.761 181.014C226.761 181.014 228.412 165.11 230.581 163.637C232.733 162.164 247.737 195.179 251.622 197.789C253.856 199.28 261.577 202.262 268.245 205.031C273.214 207.09 277.6 209.025 278.653 210.125C281.129 212.682 276.937 216.782 276.937 216.782Z" fill="white"/>
<path id="Vector_42" d="M281.177 216.8C280.255 211.847 277.244 208.208 273.667 208.208C270.09 208.208 267.079 211.847 266.157 216.8H281.177Z" fill="#22272E"/>
<path id="Vector_43" d="M269.573 212.715C269.573 213.85 268.537 214.756 267.258 214.756C265.98 214.756 264.944 213.833 264.944 212.715C264.944 211.579 265.98 210.673 267.258 210.673C268.537 210.656 269.573 211.579 269.573 212.715Z" fill="#F0A98F"/>
<path id="Vector_44" d="M272.778 208.209C272.778 209.842 272.082 211.173 271.209 211.173C270.334 211.173 269.638 209.842 269.638 208.209C269.638 206.576 270.334 205.262 271.209 205.262C272.082 205.262 272.778 206.576 272.778 208.209Z" fill="#F0A98F"/>
<path id="Vector_45" d="M277.326 208.421C276.84 209.947 275.788 210.923 274.962 210.586C274.153 210.249 273.878 208.722 274.363 207.196C274.849 205.669 275.901 204.693 276.727 205.03C277.552 205.367 277.811 206.894 277.326 208.421Z" fill="#F0A98F"/>
<path id="Vector_46" d="M281.065 212.435C280.142 213.678 278.864 214.175 278.2 213.536C277.537 212.897 277.747 211.353 278.653 210.11C279.576 208.867 280.855 208.371 281.518 209.01C282.182 209.666 281.972 211.193 281.065 212.435Z" fill="#F0A98F"/>
<path id="Vector_47" d="M282.15 216.48C280.79 216.959 279.479 216.587 279.236 215.628C278.977 214.67 279.867 213.516 281.227 213.019C282.587 212.539 283.898 212.912 284.156 213.871C284.399 214.829 283.509 216 282.15 216.48Z" fill="#F0A98F"/>
<path id="Vector_48" d="M188.855 215.911C188.855 215.911 197.546 199.333 210.932 216.657L188.855 215.911Z" fill="#F0A98F"/>
<path id="Vector_49" d="M186.186 163.62C185.134 163.709 166.407 190.264 164.06 212.487C164.06 212.487 163.93 221.238 175.406 208.475C179.971 203.398 181.621 190.601 190.006 179.986C190.006 179.969 190.524 163.248 186.186 163.62Z" fill="white"/>
<path id="Vector_50" d="M195.185 208.475C192.142 206.913 183.677 205.776 181.556 205.191C168.138 201.428 165.338 214.315 165.338 214.315C163.023 218.575 181.524 218.042 192.481 217.066C192.951 214.172 194.861 211.386 195.185 208.475Z" fill="white"/>
<path id="Vector_51" d="M314.83 351.575L290.405 229.399L296.28 227.234L321.142 351.575H314.83Z" fill="#C1C7CC"/>
<path id="Vector_52" d="M133.953 351.574L158.361 229.398L152.501 227.233L127.624 351.574H133.953Z" fill="#C1C7CC"/>
<path id="Vector_53" d="M123.301 216.709H325.463V229.863H123.301V216.709Z" fill="#D8DDE1"/>
<path id="Vector_54" d="M294.906 211.155C294.906 211.226 294.922 211.315 294.922 211.385C294.954 214.368 292.64 216.817 289.759 216.852L219.657 217.864C216.761 217.9 214.397 215.522 214.349 212.539C214.349 212.45 214.349 212.38 214.365 212.309L294.906 211.155Z" fill="#E7E9ED"/>
<path id="Vector_55" d="M229.868 208.651C229.577 210.852 230.758 212.627 232.474 212.592L291.536 211.722C293.268 211.705 294.822 210.16 295.032 208.261L298.852 172.849C299.063 170.95 297.865 169.281 296.181 169.121L238.771 163.601C237.087 163.441 235.501 165.11 235.209 167.311L229.868 208.651Z" fill="#E2E4E8"/>
<path id="Vector_56" d="M260.914 189.269C260.606 191.825 262.064 193.937 264.168 193.99C266.272 194.043 268.214 192.073 268.522 189.552C268.813 187.049 267.356 184.937 265.268 184.813C263.18 184.742 261.238 186.712 260.914 189.269Z" fill="#F2F2F2"/>
</g>
</g>
</g>
<path id="circle" class="circle" d="M338.416 173.787C331.887 173.787 326.597 179.588 326.597 186.745C326.597 193.903 331.887 199.704 338.416 199.704C344.945 199.704 350.237 193.903 350.237 186.745C350.237 179.588 344.945 173.787 338.416 173.787ZM338.416 196.475C333.51 196.475 329.536 192.118 329.536 186.739C329.536 181.359 333.51 177.003 338.416 177.003C343.323 177.003 347.297 181.359 347.297 186.739C347.297 192.118 343.323 196.475 338.416 196.475Z" fill="#66D6A0"/>
<g id="gear1" class="gear1" filter="url(#filter0_d_1_2)">
<path id="Vector_57" d="M87.284 225.407L93.7802 224.068V217.683L87.284 216.455C86.7852 213.831 85.8383 211.376 84.535 209.199L88.2613 203.204L84.1375 198.683L78.7515 202.858C76.7659 201.429 74.5359 200.402 72.1332 199.855L70.9109 192.733H65.087L63.9672 199.855C61.5746 200.402 59.3342 201.44 57.3487 202.869L51.8911 198.784L47.7674 203.305L51.5755 209.21C50.2722 211.387 49.3355 213.843 48.8365 216.466L42.3404 217.805V224.191L48.8365 225.418C49.3355 228.053 50.2824 230.497 51.5857 232.674L47.8591 238.657L51.9828 243.179L57.3793 239.004C59.3648 240.433 61.605 241.471 63.9976 242.006L65.2192 249.128H71.0438L72.1636 242.006C74.5663 241.46 76.7963 240.421 78.7819 238.993L84.2394 243.079L88.3632 238.557L84.5552 232.652C85.8484 230.486 86.7852 228.041 87.284 225.407ZM68.06 234.159C61.4012 234.159 56.0047 228.232 56.0047 220.942C56.0047 213.652 61.4012 207.725 68.06 207.725C74.7195 207.725 80.1156 213.641 80.1156 220.942C80.1156 228.243 74.7195 234.159 68.06 234.159Z" fill="#84B5FF"/>
</g>
<g id="gear1_2" class="gear1" filter="url(#filter1_d_1_2)">
<path id="Vector_58" d="M111.015 145.253L115.084 144.413V140.414L111.015 139.645C110.702 138.002 110.109 136.464 109.293 135.1L111.627 131.345L109.044 128.513L105.67 131.129C104.426 130.233 103.03 129.59 101.525 129.248L100.759 124.787H97.1114L96.41 129.248C94.9106 129.59 93.5078 130.241 92.2641 131.136L88.8459 128.577L86.2626 131.408L88.6481 135.107C87.8316 136.471 87.2446 138.009 86.9324 139.652L82.8634 140.491V144.491L86.9324 145.26C87.2446 146.91 87.8382 148.441 88.6546 149.805L86.3198 153.552L88.9031 156.384L92.2832 153.769C93.5269 154.664 94.9303 155.314 96.429 155.65L97.1942 160.111H100.842L101.544 155.65C103.049 155.308 104.445 154.657 105.689 153.762L109.108 156.321L111.691 153.49L109.306 149.79C110.116 148.434 110.702 146.903 111.015 145.253ZM98.9736 150.734C94.8028 150.734 91.4221 147.022 91.4221 142.456C91.4221 137.89 94.8028 134.177 98.9736 134.177C103.145 134.177 106.525 137.883 106.525 142.456C106.525 147.029 103.145 150.734 98.9736 150.734Z" fill="#84B5FF"/>
</g>
<path id="Vector_59" d="M116.718 259.218H100.206C99.5565 259.218 99.0249 258.642 99.0249 257.923C99.0249 257.21 99.5505 256.627 100.206 256.627H116.718C117.368 256.627 117.899 257.204 117.899 257.923C117.899 258.635 117.368 259.218 116.718 259.218Z" fill="#66D6A0"/>
<path id="Vector_60" d="M116.718 265.681H100.206C99.5565 265.681 99.0249 265.105 99.0249 264.386C99.0249 263.674 99.5505 263.091 100.206 263.091H116.718C117.368 263.091 117.899 263.668 117.899 264.386C117.899 265.099 117.368 265.681 116.718 265.681Z" fill="#66D6A0"/>
<path id="Vector_61" opacity="0.83" d="M223.174 214.293C227.287 219.206 221.263 212.78 222.221 212.007C222.221 212.007 224.319 210.186 224.366 209.72C224.413 209.25 226.452 190.12 227.494 183.587C229.897 180.634 230.46 165.711 230.418 163.241L230.412 162.965C230.412 162.965 228.671 167.822 227.494 173.133C226.315 178.448 225.558 190.447 225.558 190.447C225.558 190.447 225.372 212.228 222.221 212.007C221.967 212.523 223.704 213.852 223.174 214.293Z" fill="#CAC3CD" fill-opacity="0.3"/>
<path id="Vector_62" opacity="0.83" d="M193.974 208.413C193.974 208.74 194.931 209.514 193.974 208.74C193.974 208.74 194.02 208.879 193.974 208.413C193.927 207.944 190.845 186.853 189.802 180.32C187.4 177.368 186.366 165.826 186.407 163.356L186.414 163.08C186.414 163.08 188.154 167.937 189.331 173.248C190.511 178.563 194.605 191.753 194.605 191.753C194.605 191.753 194.832 206.665 193.974 208.74C194.227 209.256 194.296 202.418 193.974 208.413Z" fill="#CAC3CD" fill-opacity="0.3"/>
<path id="Vector_63" d="M204.223 159.413H203.895C203.845 159.46 203.936 159.585 204.438 159.886H213.485L216.023 159.413C216.023 159.413 214.654 162.514 211.553 163.66C209.402 164.456 207.281 164.871 205.296 163.66C202.995 162.256 201.423 159.413 201.423 159.413H203.895C203.956 159.356 204.223 159.413 204.223 159.413Z" fill="#CAC3CD" fill-opacity="0.3"/>
<g id="sqr_green" class="sqr_green" clip-path="url(#clip0_1_2)">
<rect width="56" height="41.6038" transform="translate(279 83.2076)" fill="white"/>
<g id="Group_3" filter="url(#filter2_d_1_2)">
<path id="Vector_64" d="M320.796 86.0768H286.636C284.528 86.0768 282.818 87.3614 282.818 88.946V114.074C282.818 115.659 284.528 116.944 286.636 116.944H320.796C322.905 116.944 324.614 115.659 324.614 114.074V88.946C324.614 87.3614 322.905 86.0768 320.796 86.0768Z" fill="#06B25F"/>
</g>
<path id="Vector_65" d="M297.046 106.614L287.478 102.726C286.86 102.457 286.551 102.041 286.551 101.479C286.551 100.892 286.876 100.476 287.527 100.232L297.046 96.3067V97.7373C297.046 97.8352 296.997 97.9696 296.899 98.1408C296.802 98.2875 296.655 98.3976 296.46 98.471L289.675 101.259C289.414 101.406 289.414 101.552 289.675 101.699L297.046 104.67V106.614Z" fill="white"/>
<path id="Vector_66" d="M305.195 95.1329H307.099L302.364 107.311C302.234 107.629 301.941 107.788 301.485 107.788H300.265L305.195 95.1329Z" fill="white"/>
<path id="Vector_67" d="M310.172 96.3067L319.69 100.232C320.374 100.501 320.716 100.916 320.716 101.479C320.716 102.041 320.374 102.445 319.69 102.689L310.172 106.614V105.184C310.172 105.11 310.204 104.988 310.269 104.817C310.367 104.646 310.513 104.524 310.709 104.45L317.543 101.699C317.803 101.552 317.803 101.406 317.543 101.259L310.172 98.2509V96.3067Z" fill="white"/>
</g>
</g>
<defs>
<filter id="filter0_d_1_2" x="32.3404" y="186.733" width="71.4398" height="76.3951" filterUnits="userSpaceOnUse" color-interpolation-filters="sRGB">
<feFlood flood-opacity="0" result="BackgroundImageFix"/>
<feColorMatrix in="SourceAlpha" type="matrix" values="0 0 0 0 0 0 0 0 0 0 0 0 0 0 0 0 0 0 127 0" result="hardAlpha"/>
<feOffset dy="4"/>
<feGaussianBlur stdDeviation="5"/>
<feColorMatrix type="matrix" values="0 0 0 0 0.0885677 0 0 0 0 0.0395834 0 0 0 0 0.395833 0 0 0 0.25 0"/>
<feBlend mode="normal" in2="BackgroundImageFix" result="effect1_dropShadow_1_2"/>
<feBlend mode="normal" in="SourceGraphic" in2="effect1_dropShadow_1_2" result="shape"/>
</filter>
<filter id="filter1_d_1_2" x="72.8634" y="118.787" width="52.2205" height="55.3244" filterUnits="userSpaceOnUse" color-interpolation-filters="sRGB">
<feFlood flood-opacity="0" result="BackgroundImageFix"/>
<feColorMatrix in="SourceAlpha" type="matrix" values="0 0 0 0 0 0 0 0 0 0 0 0 0 0 0 0 0 0 127 0" result="hardAlpha"/>
<feOffset dy="4"/>
<feGaussianBlur stdDeviation="5"/>
<feColorMatrix type="matrix" values="0 0 0 0 0.0885677 0 0 0 0 0.0395834 0 0 0 0 0.395833 0 0 0 0.25 0"/>
<feBlend mode="normal" in2="BackgroundImageFix" result="effect1_dropShadow_1_2"/>
<feBlend mode="normal" in="SourceGraphic" in2="effect1_dropShadow_1_2" result="shape"/>
</filter>
<filter id="filter2_d_1_2" x="279.818" y="83.0768" width="57.7962" height="46.8668" filterUnits="userSpaceOnUse" color-interpolation-filters="sRGB">
<feFlood flood-opacity="0" result="BackgroundImageFix"/>
<feColorMatrix in="SourceAlpha" type="matrix" values="0 0 0 0 0 0 0 0 0 0 0 0 0 0 0 0 0 0 127 0" result="hardAlpha"/>
<feOffset dx="5" dy="5"/>
<feGaussianBlur stdDeviation="4"/>
<feColorMatrix type="matrix" values="0 0 0 0 0 0 0 0 0 0 0 0 0 0 0 0 0 0 0.2 0"/>
<feBlend mode="normal" in2="BackgroundImageFix" result="effect1_dropShadow_1_2"/>
<feBlend mode="normal" in="SourceGraphic" in2="effect1_dropShadow_1_2" result="shape"/>
</filter>
<linearGradient id="paint0_linear_1_2" x1="175.124" y1="204.638" x2="248.459" y2="112.989" gradientUnits="userSpaceOnUse">
<stop stop-color="#13864E"/>
<stop offset="1" stop-color="#38D98B"/>
</linearGradient>
<linearGradient id="paint1_linear_1_2" x1="238.096" y1="117.511" x2="211.809" y2="91.9043" gradientUnits="userSpaceOnUse">
<stop stop-color="#35D286"/>
<stop offset="0.0001" stop-color="#35D286"/>
<stop offset="1" stop-color="#37D88A"/>
</linearGradient>
<linearGradient id="paint2_linear_1_2" x1="188.997" y1="115.831" x2="224.282" y2="96.9135" gradientUnits="userSpaceOnUse">
<stop stop-color="#26B16E"/>
<stop offset="0.0001" stop-color="#27B36F"/>
<stop offset="1" stop-color="#38D98B"/>
</linearGradient>
<clipPath id="clip0_1_2">
<rect width="56" height="41.6038" fill="white" transform="translate(279 83.2076)"/>
</clipPath>
</defs>
</svg>
