<svg width="67" height="115" viewBox="0 0 67 115" fill="none" xmlns="http://www.w3.org/2000/svg">
<g id="smartphone 1">
<path id="Vector" d="M59.8769 0H7.1253C3.1963 0 0 3.24398 0 7.23V12H67V7.23C67.0002 3.24398 63.8041 0 59.8769 0ZM43.3537 9.22992H23.649C22.5614 9.22992 21.6786 8.33391 21.6786 7.23C21.6786 6.12609 22.5614 5.23008 23.649 5.23008H43.3537C44.4413 5.23008 45.3241 6.12609 45.3241 7.23C45.3241 8.33391 44.4413 9.22992 43.3537 9.22992Z" fill="#276ED8"/>
<path id="Vector_2" d="M34.8798 101.583H30.1208C29.3196 101.583 28.666 102.235 28.666 103.038V103.964C28.666 104.765 29.3176 105.417 30.1208 105.417H34.8798C35.681 105.417 36.3326 104.765 36.3326 103.964V103.038C36.3346 102.235 35.681 101.583 34.8798 101.583Z" fill="#276ED8"/>
<path id="Vector_3" d="M67 15H0V92H67V15Z" fill="#276ED8"/>
<path id="gear1" d="M48.0748 56.5956L53 55.6692V51.2536L48.0748 50.4044C47.6966 48.5903 46.9786 46.8919 45.9905 45.3866L48.8159 41.2411L45.6894 38.1146L41.6057 41.0018C40.1003 40.0137 38.4097 39.3034 36.5879 38.9252L35.6615 34H31.2458L30.3967 38.9252C28.5825 39.3034 26.8842 40.0214 25.3789 41.0095L21.2411 38.1841L18.1146 41.3106L21.0018 45.3943C20.0137 46.8996 19.3034 48.598 18.9252 50.4121L14 51.3385V55.7542L18.9252 56.6033C19.3034 58.4252 20.0214 60.1158 21.0095 61.6211L18.1841 65.7589L21.3106 68.8854L25.402 65.9982C26.9074 66.9863 28.6057 67.7043 30.4198 68.0748L31.3462 73H35.7619L36.611 68.0748C38.4329 67.6966 40.1235 66.9786 41.6289 65.9905L45.7666 68.8159L48.8931 65.6894L46.0059 61.6057C46.9863 60.1081 47.6966 58.4175 48.0748 56.5956ZM33.5 62.6479C28.4513 62.6479 24.3599 58.5487 24.3599 53.5077C24.3599 48.4667 28.4513 44.3676 33.5 44.3676C38.5487 44.3676 42.6401 48.459 42.6401 53.5077C42.6401 58.5564 38.5487 62.6479 33.5 62.6479Z" fill="#66D6A0"/>
<path id="Vector_4" d="M0 96V108.131C0 111.918 3.1962 115 7.1235 115H59.8765C63.8038 115 67 111.918 67 108.131V96H0Z" fill="#276ED8"/>
</g>
</svg>
