<svg width="88" height="89" viewBox="0 0 88 89" fill="none" xmlns="http://www.w3.org/2000/svg">
<g id="tools 1">
<g id="wrench">
<path id="Vector" d="M48.6876 42.663C49.7015 42.1386 50.8309 41.8614 52.0026 41.8614C53.9443 41.8614 55.7699 42.6238 57.146 44.0083L60.1085 41.0125C67.4396 43.6115 75.9187 41.9476 81.7794 36.0206C86.7106 31.0333 88.6554 24.1715 87.6173 17.7035C87.5029 16.9912 87.0042 16.4037 86.3255 16.182C85.6467 15.9601 84.9016 16.1405 84.3972 16.6508L79.9986 21.0995C76.4165 24.7223 70.6083 24.7223 67.0262 21.0995C63.4438 17.4767 63.4438 11.6025 67.0262 7.97971L71.4249 3.53106C71.9295 3.02068 72.1094 2.26708 71.8896 1.5803C71.6702 0.8932 71.0884 0.3901 70.3837 0.274421C63.9887 -0.7755 57.2037 1.19136 52.2728 6.17863C46.325 12.194 44.7243 20.9359 47.4598 28.4247L41.0347 34.9227L48.6876 42.663Z" fill="#276ED8"/>
<path id="Vector_2" d="M36.9797 54.4381L29.3589 46.7307L2.71076 73.6812C-0.754254 77.1856 -0.754254 82.8672 2.71076 86.3717C6.17577 89.8761 11.7936 89.8761 15.2586 86.3717L38.2309 63.1386C35.9139 60.7828 35.4963 57.2262 36.9797 54.4381Z" fill="#276ED8"/>
</g>
<path id="screwdriver" d="M53.9762 47.2423C53.4313 46.6913 52.7169 46.4156 52.0027 46.4156C51.2885 46.4156 50.574 46.6913 50.0291 47.2423L48.4383 48.8512L20.101 20.1919L21.4255 18.8524C22.6323 17.632 22.4825 15.6078 21.107 14.5834L9.54528 5.97183C8.43422 5.14446 6.89234 5.26196 5.91667 6.24873L1.00764 11.2138C0.0319634 12.2006 -0.0842175 13.7603 0.733852 14.8837L9.24838 26.5767C10.2613 27.9676 12.2616 28.1207 13.4693 26.8989L14.7938 25.559L43.1312 54.2183L41.4284 55.9405C40.3384 57.0429 40.3384 58.83 41.4284 59.9325L67.5703 86.3715C71.0353 89.8759 76.6531 89.8759 80.1181 86.3715C83.5831 82.867 83.5831 77.1854 80.1181 73.681L53.9762 47.2423Z" fill="#06B25F"/>
</g>
</svg>
