<svg width="112" height="66" viewBox="0 0 112 66" fill="none" xmlns="http://www.w3.org/2000/svg">
<g id="Clip path group">
<mask id="mask0_1_12" style="mask-type:luminance" maskUnits="userSpaceOnUse" x="0" y="0" width="112" height="66">
<g id="clip0_1_2">
<path id="Vector" d="M112 0H0V66H112V0Z" fill="white"/>
</g>
</mask>
<g mask="url(#mask0_1_12)">
<g id="vrapp 1">
<path id="Vector_2" d="M85.1695 12.5385H69.8557V27.6732H41.576V12.5385H26.2553C20.3827 12.5385 15.4793 16.7335 14.4133 22.2658V55.5125C15.4793 61.0449 20.3827 65.2389 26.2553 65.2389H34.2081L37.3696 47.3271H74.062L77.2235 65.2389H85.1695C91.042 65.2389 95.9454 61.0449 97.0115 55.5125V22.2658C95.9463 16.7335 91.042 12.5385 85.1695 12.5385Z" fill="#276ED8"/>
<path id="Vector_2_2" d="M48.1027 0H63.3307V21.1866H48.1027V0Z" fill="#06B25F"/>
<path id="Vector1" d="M0 22.7719H7.88815V55.0056H0V22.7719Z" fill="#276ED8"/>
<path id="Vector1_2" d="M103.54 22.7719H111.426V55.0056H103.54V22.7719Z" fill="#276ED8"/>
<path id="Vector_3" d="M42.8529 53.8121L40.8356 65.2385H70.6004L68.5832 53.8121H42.8529Z" fill="#06B25F"/>
</g>
</g>
</g>
</svg>
