<svg width="418" height="410" viewBox="0 0 418 410" fill="none" xmlns="http://www.w3.org/2000/svg">
<path opacity="0.04" d="M55.4488 327.678C48.3769 395.07 236.882 369.812 275.527 347.079C314.17 324.345 340.474 311.137 372.665 267.02C374.906 276.367 368.688 258.93 372.665 267.02C424.355 205.966 364.376 140.153 355.39 122.735C347.623 107.659 268.883 137.508 258.553 125.54C254.027 120.362 207.524 46.3182 149.804 59.3309C107.636 68.8374 54.7388 71.2074 31.9913 142.096C9.24385 212.985 69.4526 194.229 55.4488 327.678Z" fill="#276ED8"/>
<mask id="mask0_1_2" style="mask-type:alpha" maskUnits="userSpaceOnUse" x="26" y="38" width="370" height="334">
<path d="M55.4486 327.678C48.3767 395.07 236.882 369.812 275.526 347.079C314.17 324.345 340.473 311.137 372.665 267.02C374.906 276.367 368.688 258.93 372.665 267.02C424.355 205.966 381.835 94.6154 300.254 43.365C310.584 55.3331 292.486 28.2888 300.254 43.365C295.728 38.1883 207.524 46.3182 149.804 59.3309C107.635 68.8374 54.7386 71.2073 31.9911 142.096C9.24362 212.984 69.4524 194.229 55.4486 327.678Z" fill="#276ED8"/>
</mask>
<g mask="url(#mask0_1_2)">
<path d="M261.756 147.77V259.177C261.756 262.042 259.528 264.362 256.778 264.362H93.6825C90.9314 264.362 88.7043 262.042 88.7043 259.177V147.77C88.7043 141.16 93.8515 135.791 100.205 135.791H250.256C256.609 135.791 261.756 141.16 261.756 147.77Z" fill="white" stroke="#84B5FF" stroke-miterlimit="10"/>
<path d="M168.844 162.44H149.433V164.139H168.844V162.44Z" fill="#84B5FF"/>
<path d="M191.613 162.44H172.202V164.138H191.613V162.44Z" fill="#06B25F"/>
<path d="M185.531 171.61H155.43V173.309H185.531V171.61Z" fill="#276ED8"/>
<path d="M205.798 171.61H190.503V173.309H205.798V171.61Z" fill="#84B5FF"/>
<path d="M179.084 180.767H165.867V182.467H179.084V180.767Z" fill="#06B25F"/>
<path d="M230.575 180.767H186.724V182.467H230.575V180.767Z" fill="#06B25F"/>
<path d="M226.249 189.932H176.134V191.632H226.249V189.932Z" fill="#276ED8"/>
<path d="M179.028 199.091H163.605V200.79H179.028V199.091Z" fill="#84B5FF"/>
<path d="M201.05 199.091H185.628V200.79H201.05V199.091Z" fill="#276ED8"/>
<path d="M171.864 246.639H149.433V248.338H171.864V246.639Z" fill="#84B5FF"/>
<path d="M202.147 246.639H179.716V248.338H202.147V246.639Z" fill="#06B25F"/>
<path d="M231.628 246.639H209.197V248.338H231.628V246.639Z" fill="#84B5FF"/>
<path d="M199.282 237.466H155.431V239.166H199.282V237.466Z" fill="#276ED8"/>
<path d="M249.958 237.466H206.108V239.166H249.958V237.466Z" fill="#84B5FF"/>
<path d="M209.38 228.31H165.867V230.009H209.38V228.31Z" fill="#84B5FF"/>
<path d="M225.28 228.31H213.172V230.009H225.28V228.31Z" fill="#06B25F"/>
<path d="M179.407 219.142H163.029V220.841H179.407V219.142Z" fill="#06B25F"/>
<path d="M204.478 219.142H188.101V220.841H204.478V219.142Z" fill="#276ED8"/>
<path d="M231.404 219.142H215.026V220.841H231.404V219.142Z" fill="#84B5FF"/>
<path d="M204.984 209.987H182.019V211.687H204.984V209.987Z" fill="#06B25F"/>
<path d="M173.353 209.987H150.388V211.687H173.353V209.987Z" fill="#276ED8"/>
<path d="M144.026 160.815H141.932V162.998H144.026V160.815Z" fill="#84B5FF"/>
<path d="M144.025 240.706H141.932V236.268H144.025V240.706ZM144.025 229.603H141.932V225.164H144.025V229.603ZM144.025 218.499H141.932V214.061H144.025V218.499ZM144.025 207.396H141.932V202.958H144.025V207.396ZM144.025 196.293H141.932V191.855H144.025V196.293ZM144.025 185.189H141.932V180.751H144.025V185.189ZM144.025 174.086H141.932V169.648H144.025V174.086Z" fill="#84B5FF"/>
<path d="M144.026 247.369H141.933V249.552H144.026V247.369Z" fill="#84B5FF"/>
<path opacity="0.7" d="M88.3099 149.835C88.3099 146.932 90.5689 144.578 93.3562 144.578H133.346V264.371H93.3562C90.5689 264.371 88.3099 262.018 88.3099 259.115V149.835Z" fill="#84B5FF"/>
<path d="M111.323 164.117H91.9112V165.816H111.323V164.117Z" fill="#06B25F"/>
<path d="M126.18 174.5H96.0803V176.199H126.18V174.5Z" fill="#84B5FF"/>
<path d="M126.18 184.884H96.0803V186.583H126.18V184.884Z" fill="#84B5FF"/>
<path d="M126.18 195.269H96.0803V196.967H126.18V195.269Z" fill="#84B5FF"/>
<path d="M126.18 205.65H96.0803V207.349H126.18V205.65Z" fill="#84B5FF"/>
<path d="M127.742 226.415H97.643V228.115H127.742V226.415Z" fill="#84B5FF"/>
<path d="M127.742 236.801H97.643V238.5H127.742V236.801Z" fill="#84B5FF"/>
<path d="M127.742 247.182H97.643V248.881H127.742V247.182Z" fill="#84B5FF"/>
<path d="M111.323 216.032H91.9112V217.732H111.323V216.032Z" fill="#06B25F"/>
<path d="M261.756 147.77V148.273H88.7043V147.77C88.7043 141.16 93.8515 135.791 100.205 135.791H250.256C256.609 135.791 261.756 141.16 261.756 147.77Z" fill="#84B5FF"/>
<path opacity="0.3" d="M235.474 142.61C235.474 143.473 234.807 144.168 233.978 144.168C233.151 144.168 232.483 143.473 232.483 142.61C232.483 141.748 233.151 141.052 233.978 141.052C234.799 141.052 235.474 141.748 235.474 142.61Z" fill="white"/>
<path opacity="0.3" d="M243.66 142.61C243.66 143.473 242.993 144.168 242.165 144.168C241.337 144.168 240.669 143.473 240.669 142.61C240.669 141.747 241.337 141.051 242.165 141.051C242.985 141.051 243.66 141.747 243.66 142.61Z" fill="white"/>
<path opacity="0.3" d="M251.487 142.61C251.487 143.473 250.819 144.168 249.992 144.168C249.163 144.168 248.496 143.473 248.496 142.61C248.496 141.747 249.163 141.051 249.992 141.051C250.819 141.051 251.487 141.747 251.487 142.61Z" fill="white"/>
<path d="M261.756 147.77V259.177C261.756 262.042 259.528 264.362 256.778 264.362H93.6825C90.9314 264.362 88.7043 262.042 88.7043 259.177V147.77C88.7043 141.16 93.8515 135.791 100.205 135.791H250.256C256.609 135.791 261.756 141.16 261.756 147.77Z" stroke="#84B5FF" stroke-miterlimit="10"/>
<path class='hair' d="M253.178 196.696C241.977 205.64 225.718 209.262 213.194 202.341C209.266 200.176 205.649 196.716 204.871 192.264C203.938 186.901 207.263 181.357 205.863 176.095C204.638 171.441 200.165 168.588 196.839 165.148C192.017 160.17 189.216 153.229 189.235 146.247C189.255 139.266 192.055 132.345 196.897 127.387C201.001 123.179 206.349 120.467 211.056 116.945C214.77 114.153 216.061 109.957 217.831 105.566C219.581 101.236 218.084 96.237 217.831 91.9872C217.306 82.9012 221.615 75.7657 227.897 69.0069C236.025 60.2245 248.102 60.3662 258.779 62.6327C264.185 63.7659 270.156 65.5264 274.9 68.5212C276.923 69.7962 278.265 71.3543 279.645 73.3981C280.093 74.0457 282.582 80.501 282.485 80.4807C298.315 84.2446 289.817 107.07 294.678 117.553C296.215 120.851 298.899 123.401 301.252 126.133C305.375 130.949 308.603 136.737 309.614 143.091C310.625 149.445 309.244 156.365 305.141 161.182C304.48 161.971 303.702 162.739 303.45 163.751C303.06 165.269 303.877 166.787 304.48 168.224C308.078 176.824 303.955 186.78 298.762 194.45C295.281 199.61 291.178 204.507 285.85 207.501C277.351 212.298 266.616 211.549 257.865 207.258" fill="url(#paint0_linear_1_2)"/>
<path opacity="0.42" d="M255.584 83.8736C260.931 81.162 267.757 84.1771 271.063 89.3371C274.35 94.4971 278.629 99.0912 277.851 105.223C277.462 108.258 276.82 111.354 277.403 114.369C278.882 122.18 283.51 127.887 288.333 134.059C292.417 139.279 293.739 146.22 294.789 152.858C295.412 156.824 295.917 161.195 293.894 164.615C291.328 168.945 288.391 174.53 285.629 178.72C281.079 185.579 283.743 192.278 278.24 198.348C276.606 200.129 274.311 201.059 272.056 201.808C267.486 203.286 262.76 204.155 257.976 204.419C253.892 204.642 249.75 204.379 245.899 202.982C236.448 199.522 230.127 188.473 231.839 178.193C233.141 170.402 238.295 163.927 240.745 156.419C242.496 151.037 242.787 145.148 241.601 139.603C240.084 132.602 236.214 125.64 237.887 118.679" fill="#148951"/>
<path d="M238.65 215.837C238.047 213.368 226.029 150.778 226.029 150.778C226.029 150.778 258.078 140.945 278.576 150.778L265.449 216.384L238.65 215.837Z" fill="white"/>
<path opacity="0.83" d="M244.269 217.748C243.883 217.391 242.545 216.157 241.311 214.972C239.854 213.565 238.998 212.37 238.998 212.37C238.998 212.37 239.2 210.123 239.2 209.495C239.2 208.861 235.979 193.897 232.813 189.265C229.859 184.944 232.762 160.605 233.168 157.318L233.216 156.951C233.216 156.951 235.302 160.605 236.206 167.873C237.114 175.146 235.832 189.476 235.832 189.476C235.832 189.476 237.64 201.065 242.092 201.277C242.092 201.277 238.357 208.912 239.829 212.743C240.113 213.471 243.589 217.075 244.269 217.748Z" fill="#CAC3CD" fill-opacity="0.3"/>
<path d="M237.075 184.007C237.075 184.007 261.17 186.597 267.821 181.417C267.802 181.417 259.497 202.159 237.075 184.007Z" fill="#CAC3CD" fill-opacity="0.3"/>
<path d="M237.095 215.61C237.095 215.61 217.609 258.106 225.563 393.322C225.563 393.322 233.964 395.164 236.609 394.233C236.609 394.233 260.646 276.723 254.812 217.735L237.095 215.61Z" fill="#276ED8"/>
<path d="M248.103 242.93C248.103 242.93 247.656 352.852 265.781 391.483L279.491 391.017C279.491 391.017 286.803 259.788 265.47 215.471L249.115 217.353L248.103 242.93Z" fill="#276ED8"/>
<path d="M235.948 218.325C235.948 218.325 251.078 223.02 266.441 216.706L266.636 210.413C266.636 210.413 258.76 212.882 252.051 212.457C245.36 212.052 236.298 210.818 236.298 210.818L235.948 218.325Z" fill="#8F99B6"/>
<path d="M239.468 209.581C239.468 209.581 236.92 219.84 239.273 221.054C241.646 222.288 243.027 221.743 243.027 221.743L243.007 210.39L239.468 209.581Z" fill="#276ED8"/>
<path d="M263.777 208.773C263.777 208.773 265.371 218.365 263.369 220.166C260.645 222.574 260.49 220.632 260.49 220.632L260.237 209.603L263.777 208.773Z" fill="#276ED8"/>
<path d="M247.345 210.413C247.345 211.648 247.753 219.236 247.753 219.236L256.232 219.438L257.01 210.616L247.345 210.413ZM254.832 217.92L249.115 217.516L248.92 212.842H255.221L254.832 217.92Z" fill="#EAEAEA"/>
<path d="M243.191 147.307C242.316 152.669 249.22 153.134 249.22 153.134C252.273 153.134 257.037 152.163 257.037 148.986L255.56 129.134C255.56 125.958 253.089 123.387 250.036 123.387C246.983 123.387 244.513 125.958 244.513 129.134L243.191 147.307Z" fill="#F39B8D"/>
<path d="M265.278 77.2917C264.417 76.0184 259.348 78.1774 258.593 76.8085C255.601 80.4065 247.572 75.1647 243.811 78.0891C238.887 81.922 235.005 85.6173 229.356 88.1588C227.497 88.9963 230.456 89.9512 228.423 90.3218C228.333 94.0871 226.396 106.031 227.054 109.82C230.368 128.821 245.046 138.048 258.104 134.527C267.972 131.856 276.182 118.686 276.469 99.9638C276.642 88.6678 266.734 81.1577 266.413 79.4868C261.081 75.2961 269.188 82.9963 265.278 77.2917Z" fill="#FBB2A6"/>
<path d="M251.895 116.698C251.895 116.698 255.046 122.223 258.429 116.598L251.895 116.698Z" fill="#D8826C"/>
<path d="M248.647 105.489C248.647 109.132 245.808 112.106 242.288 112.106C238.767 112.106 235.929 109.152 235.929 105.489C235.929 101.846 238.767 98.8722 242.288 98.8722C245.808 98.8722 248.647 101.846 248.647 105.489Z" fill="white"/>
<path d="M245.819 107.053C245.681 109.693 244.019 111.757 242.099 111.666C240.173 111.56 238.733 109.345 238.853 106.71C238.984 104.053 240.653 102.008 242.556 102.103C244.492 102.186 245.95 104.397 245.819 107.053Z" fill="#06B25F"/>
<path d="M244.8 107C244.704 108.87 243.524 110.335 242.156 110.264C240.787 110.194 239.75 108.619 239.856 106.727C239.946 104.842 241.126 103.377 242.495 103.447C243.869 103.534 244.89 105.115 244.8 107Z" fill="#400404"/>
<path opacity="0.8" d="M245.119 103.783C245.099 104.301 244.502 104.676 243.799 104.639C243.096 104.602 242.54 104.15 242.566 103.649C242.586 103.131 243.182 102.755 243.885 102.793C244.588 102.83 245.145 103.282 245.119 103.783Z" fill="white"/>
<path d="M245.184 122.023C245.184 122.023 255.433 126.941 259.77 122.428C259.77 122.428 255.823 132.688 245.184 122.023Z" fill="#D5503B"/>
<path d="M248.648 105.491C248.648 105.491 249.154 101.241 245.167 99.0965C239.061 95.8182 235.716 103.407 233.732 104.641C233.732 104.641 235.015 105.976 235.949 105.511C235.949 105.491 243.183 96.4858 248.648 105.491Z" fill="#302725"/>
<path d="M258.654 105.912C258.654 109.575 261.493 112.53 265.013 112.53C268.513 112.53 271.372 109.575 271.372 105.912C271.372 102.27 268.533 99.3155 265.013 99.3155C261.512 99.2953 258.654 102.27 258.654 105.912Z" fill="white"/>
<path d="M268.267 106.892C268.027 109.525 266.237 111.482 264.247 111.267C262.258 111.05 260.852 108.751 261.094 106.135C261.333 103.501 263.125 101.544 265.112 101.742C267.085 101.959 268.507 104.258 268.267 106.892Z" fill="#06B25F"/>
<path d="M267.077 106.811C266.935 108.744 265.761 110.152 264.433 109.992C263.106 109.833 262.15 108.12 262.277 106.207C262.417 104.274 263.607 102.847 264.935 103.025C266.248 103.186 267.217 104.879 267.077 106.811Z" fill="#400404"/>
<path opacity="0.8" d="M267.984 103.224C267.921 103.731 267.178 104.103 266.349 104.038C265.501 103.976 264.884 103.512 264.928 103.006C264.991 102.499 265.715 102.129 266.563 102.192C267.411 102.255 268.047 102.716 267.984 103.224Z" fill="white"/>
<path d="M258.556 105.1C258.556 105.1 258.051 101.316 262.037 99.4136C268.144 96.4998 271.489 103.239 273.453 104.331C273.453 104.331 272.169 105.505 271.236 105.1C271.255 105.1 264.702 96.9046 258.556 105.1Z" fill="#302725"/>
<path d="M234.418 96.4236C234.418 96.4236 240.874 90.4138 247.058 93.0043C248.498 93.6114 248.829 94.3193 249.742 97.2331C249.742 97.2331 242.702 93.1252 234.418 96.4236Z" fill="#6F3B1E"/>
<path d="M273.453 98.0864C273.453 98.0864 269.777 91.1453 264.176 92.5417C262.873 92.865 262.426 93.4923 260.967 96.1231C260.967 96.1432 267.638 93.452 273.453 98.0864Z" fill="#6F3B1E"/>
<path d="M228.596 100.919C228.596 100.919 221.731 91.1654 219.747 100.534C218.172 108.002 224.569 113.485 228.538 112.089C232.505 110.693 228.596 100.919 228.596 100.919Z" fill="#FBB2A6"/>
<path d="M228.674 102.657C228.674 102.657 223.812 96.5051 222.568 99.3987C221.323 102.292 222.061 105.692 222.061 105.692C222.061 105.692 222.568 101.806 225.523 103.607C225.523 103.607 223.423 110.002 228.674 107.574C228.693 107.574 230.755 105.449 228.674 102.657Z" fill="#F39B8D"/>
<path d="M228.971 112.583C228.971 113.574 228.252 114.364 227.376 114.364C226.482 114.364 225.781 113.554 225.781 112.583C225.781 111.591 226.501 110.781 227.376 110.781C228.252 110.781 228.971 111.571 228.971 112.583Z" fill="white"/>
<path d="M285.115 93.8033C278.48 95.643 271.009 94.3088 265.371 90.2832C259.734 86.2579 256.068 79.6099 255.697 72.7318C255.581 70.8225 255.975 68.5222 257.715 67.7401C258.318 67.464 259.015 67.441 259.687 67.464C263.793 67.579 267.738 69.3043 271.009 71.8117C274.28 74.3191 276.878 77.5625 279.175 80.9671C280.823 83.4285 282.307 86.0049 283.212 88.8114C283.769 90.5828 284.094 92.4226 284.163 94.2632" fill="url(#paint1_linear_1_2)"/>
<path d="M260.147 79.6605C249.506 85.5835 237.459 96.0486 225.921 95.4687C225.331 95.4485 222.36 91.8663 222.116 91.4063C221.913 91.006 222.136 90.5057 222.36 90.066C224.701 85.7035 230.967 78.1198 235.628 75.5385C240.288 72.9572 245.395 71.3164 250.482 69.8357C253.067 69.0953 255.692 68.3749 258.296 68.3349C260.88 68.295 263.485 68.9953 264.93 70.7162" fill="url(#paint2_linear_1_2)"/>
<path d="M278.677 150.619C278.677 150.619 300.233 202.22 292.354 209.349C292.354 209.349 284.474 213.735 277.626 193.996C270.778 174.237 270.798 149.482 278.677 150.619Z" fill="white"/>
<path opacity="0.83" d="M290.046 209.586C289.613 209.294 288.115 208.279 286.725 207.298C285.084 206.132 287.33 210.781 287.33 210.781C287.33 210.781 287.419 209.686 287.33 209.065C287.24 208.438 281.928 194.136 278.139 190.043C274.602 186.225 274.015 161.706 273.949 158.393L273.944 158.023C273.944 158.023 276.527 161.315 278.454 168.363C280.385 175.416 281.153 189.786 281.153 189.786C281.153 189.786 284.588 200.968 289.021 200.491C289.021 200.491 286.042 206.269 288.044 209.832C288.428 210.509 289.277 209.026 290.046 209.586Z" fill="#CAC3CD" fill-opacity="0.3"/>
<path d="M276.576 185.222C276.576 185.222 294.747 198.483 293.385 206.626C293.171 207.946 292.334 209.367 292.334 209.367C292.334 209.367 284.455 218.709 274.455 197.305C274.475 197.284 268.677 183.577 276.576 185.222Z" fill="white"/>
<path d="M279.201 182.198C277.548 178.401 272.957 175.557 271.497 175.78C270.33 175.192 269.163 175.395 268.17 177.406C266.75 180.269 266.808 185.183 267.898 188.25C270.019 194.22 275.893 186.666 275.641 181.914C277.917 183.945 280.913 186.137 279.201 182.198Z" fill="#F0A98F"/>
<path d="M271.322 176.164C271.322 176.164 264.494 199.214 266.595 200.31C268.697 201.407 279.222 201.407 279.222 201.407C279.222 201.407 286.575 176.713 285 176.164C283.404 175.617 271.829 175.068 271.322 176.164Z" fill="#06B25F"/>
<path d="M258.599 203.886C258.599 203.886 261.264 203.317 262.276 201.916C263.288 200.515 263.91 199.906 267.509 198.281C271.089 196.656 272.509 194.484 272.509 194.484C272.509 194.484 275.019 197.042 269.533 199.764C266.167 201.428 277.217 201.448 280.544 201.103C280.544 201.103 282.47 202.282 279.299 203.886C276.127 205.49 279.182 205.673 272.899 208.435C266.614 211.176 259.144 212.517 257.607 208.354C256.07 204.191 258.599 203.886 258.599 203.886Z" fill="#FFBC9F"/>
<path d="M234.611 166.617C235.836 172.953 230.564 199.758 230.564 199.758C234.144 199.515 250.078 200.49 255.972 201.18C257.976 201.404 259.26 201.567 259.26 201.567L261.225 212.187C260.115 212.451 259.026 212.674 257.956 212.898C236.692 217.061 221.109 211.009 221.109 211.009C214.69 170.028 226.109 150.615 226.109 150.615C231.381 150.249 234.611 166.617 234.611 166.617Z" fill="white"/>
<path d="M260.381 146.502H256.429C256.429 146.502 257.688 150.047 256.126 150.935C252.782 152.835 252.477 152.835 247.918 152.835C245.21 152.835 243.358 147.136 243.358 147.136L240.014 147.769C240.014 147.769 243.542 154.465 247.918 156.002C250.955 157.069 253.325 157.626 256.126 156.002C259.372 154.119 260.381 146.502 260.381 146.502Z" fill="#CAC3CD" fill-opacity="0.3"/>
</g>
<path d="M149.242 85.4446H128.484C127.667 85.4446 126.999 84.7562 126.999 83.8975C126.999 83.0462 127.66 82.3504 128.484 82.3504H149.242C150.059 82.3504 150.727 83.0388 150.727 83.8975C150.727 84.7488 150.059 85.4446 149.242 85.4446Z" fill="#66D6A0"/>
<path d="M149.241 93.1655H128.483C127.666 93.1655 126.998 92.4769 126.998 91.6184C126.998 90.7668 127.659 90.0712 128.483 90.0712H149.241C150.059 90.0712 150.726 90.7598 150.726 91.6184C150.726 92.4699 150.059 93.1655 149.241 93.1655Z" fill="#66D6A0"/>
<path class="circle" d="M339.503 264.573C331.296 264.573 324.644 271.501 324.644 280.051C324.644 288.601 331.296 295.529 339.503 295.529C347.711 295.529 354.363 288.601 354.363 280.051C354.363 271.501 347.711 264.573 339.503 264.573ZM339.503 291.673C333.335 291.673 328.339 286.469 328.339 280.043C328.339 273.618 333.335 268.414 339.503 268.414C345.672 268.414 350.668 273.618 350.668 280.043C350.668 286.469 345.672 291.673 339.503 291.673Z" fill="#66D6A0"/>
<g class='gear1' filter="url(#filter0_d_1_2)">
<path d="M160.15 343.428L169.319 341.632V333.071L160.15 331.424C159.446 327.906 158.11 324.613 156.271 321.694L161.53 313.656L155.71 307.594L148.108 313.192C145.306 311.276 142.159 309.899 138.768 309.165L137.043 299.615H128.823L127.243 309.165C123.866 309.899 120.704 311.291 117.902 313.207L110.2 307.729L104.38 313.791L109.754 321.709C107.915 324.628 106.593 327.921 105.889 331.439L96.7203 333.234V341.797L105.889 343.443C106.593 346.977 107.929 350.254 109.768 353.173L104.509 361.196L110.329 367.258L117.945 361.66C120.747 363.576 123.909 364.968 127.286 365.687L129.011 375.237H137.23L138.81 365.687C142.202 364.953 145.349 363.561 148.151 361.645L155.853 367.124L161.674 361.062L156.299 353.143C158.124 350.239 159.446 346.961 160.15 343.428ZM133.02 355.164C123.621 355.164 116.006 347.216 116.006 337.441C116.006 327.666 123.621 319.719 133.02 319.719C142.418 319.719 150.034 327.651 150.034 337.441C150.034 347.231 142.418 355.164 133.02 355.164Z" fill="#84B5FF"/>
</g>
<g class='gear1' filter="url(#filter1_d_1_2)">
<path d="M64.1214 292.016L69.8641 290.891V285.528L64.1214 284.496C63.6803 282.293 62.8432 280.231 61.691 278.402L64.9855 273.367L61.34 269.57L56.5784 273.077C54.8232 271.876 52.8519 271.014 50.7276 270.554L49.6476 264.573H44.4988L43.5088 270.554C41.3935 271.014 39.4133 271.886 37.658 273.086L32.8334 269.655L29.1879 273.452L32.5544 278.412C31.4022 280.24 30.5741 282.303 30.1331 284.506L24.3904 285.631V290.994L30.1331 292.025C30.5741 294.238 31.4112 296.292 32.5634 298.12L29.2689 303.145L32.9144 306.943L37.685 303.436C39.4403 304.636 41.4205 305.508 43.5358 305.958L44.6159 311.94H49.7645L50.7547 305.958C52.8789 305.499 54.8502 304.627 56.6054 303.426L61.43 306.858L65.0755 303.061L61.7091 298.101C62.8522 296.282 63.6803 294.228 64.1214 292.016ZM47.1272 299.367C41.2405 299.367 36.4699 294.388 36.4699 288.266C36.4699 282.143 41.2405 277.164 47.1272 277.164C53.0139 277.164 57.7846 282.133 57.7846 288.266C57.7846 294.398 53.0139 299.367 47.1272 299.367Z" fill="#84B5FF"/>
</g>
<g class='sqr_green' filter="url(#filter2_d_1_2)">
<path d="M389.976 90.235H344.829C342.042 90.235 339.783 92.5884 339.783 95.4915V141.526C339.783 144.43 342.042 146.783 344.829 146.783H389.976C392.763 146.783 395.022 144.43 395.022 141.526V95.4915C395.022 92.5884 392.763 90.235 389.976 90.235Z" fill="#276ED8"/>
</g>
<path d="M358.586 127.86L345.942 120.737C345.124 120.244 344.715 119.483 344.715 118.451C344.715 117.377 345.146 116.615 346.006 116.167L358.586 108.977V111.597C358.586 111.777 358.522 112.023 358.393 112.336C358.264 112.605 358.07 112.807 357.812 112.941L348.845 118.048C348.5 118.317 348.5 118.586 348.845 118.855L358.586 124.298V127.86Z" fill="white"/>
<path d="M369.357 106.826H371.873L365.615 129.137C365.443 129.719 365.056 130.01 364.454 130.01H362.841L369.357 106.826Z" fill="white"/>
<path d="M375.934 108.977L388.515 116.167C389.418 116.66 389.87 117.421 389.87 118.451C389.87 119.483 389.418 120.221 388.515 120.67L375.934 127.86V125.239C375.934 125.105 375.977 124.881 376.064 124.567C376.192 124.254 376.386 124.029 376.644 123.895L385.676 118.855C386.02 118.586 386.02 118.317 385.676 118.048L375.934 112.538V108.977Z" fill="white"/>
<defs>
<filter id="filter0_d_1_2" x="86.7203" y="293.615" width="92.5983" height="95.6213" filterUnits="userSpaceOnUse" color-interpolation-filters="sRGB">
<feFlood flood-opacity="0" result="BackgroundImageFix"/>
<feColorMatrix in="SourceAlpha" type="matrix" values="0 0 0 0 0 0 0 0 0 0 0 0 0 0 0 0 0 0 127 0" result="hardAlpha"/>
<feOffset dy="4"/>
<feGaussianBlur stdDeviation="5"/>
<feColorMatrix type="matrix" values="0 0 0 0 0.0885677 0 0 0 0 0.0395834 0 0 0 0 0.395833 0 0 0 0.25 0"/>
<feBlend mode="normal" in2="BackgroundImageFix" result="effect1_dropShadow_1_2"/>
<feBlend mode="normal" in="SourceGraphic" in2="effect1_dropShadow_1_2" result="shape"/>
</filter>
<filter id="filter1_d_1_2" x="14.3904" y="258.573" width="65.4738" height="67.3673" filterUnits="userSpaceOnUse" color-interpolation-filters="sRGB">
<feFlood flood-opacity="0" result="BackgroundImageFix"/>
<feColorMatrix in="SourceAlpha" type="matrix" values="0 0 0 0 0 0 0 0 0 0 0 0 0 0 0 0 0 0 127 0" result="hardAlpha"/>
<feOffset dy="4"/>
<feGaussianBlur stdDeviation="5"/>
<feColorMatrix type="matrix" values="0 0 0 0 0.0885677 0 0 0 0 0.0395834 0 0 0 0 0.395833 0 0 0 0.25 0"/>
<feBlend mode="normal" in2="BackgroundImageFix" result="effect1_dropShadow_1_2"/>
<feBlend mode="normal" in="SourceGraphic" in2="effect1_dropShadow_1_2" result="shape"/>
</filter>
<filter id="filter2_d_1_2" x="336.783" y="87.235" width="71.2397" height="72.5479" filterUnits="userSpaceOnUse" color-interpolation-filters="sRGB">
<feFlood flood-opacity="0" result="BackgroundImageFix"/>
<feColorMatrix in="SourceAlpha" type="matrix" values="0 0 0 0 0 0 0 0 0 0 0 0 0 0 0 0 0 0 127 0" result="hardAlpha"/>
<feOffset dx="5" dy="5"/>
<feGaussianBlur stdDeviation="4"/>
<feColorMatrix type="matrix" values="0 0 0 0 0 0 0 0 0 0 0 0 0 0 0 0 0 0 0.2 0"/>
<feBlend mode="normal" in2="BackgroundImageFix" result="effect1_dropShadow_1_2"/>
<feBlend mode="normal" in="SourceGraphic" in2="effect1_dropShadow_1_2" result="shape"/>
</filter>
<linearGradient id="paint0_linear_1_2" x1="298.076" y1="194.949" x2="223.349" y2="63.8936" gradientUnits="userSpaceOnUse">
<stop stop-color="#12844D"/>
<stop offset="1" stop-color="#3BE090"/>
</linearGradient>
<linearGradient id="paint1_linear_1_2" x1="284.979" y1="94.5418" x2="260.007" y2="67.2002" gradientUnits="userSpaceOnUse">
<stop stop-color="#25B770" stop-opacity="0.6"/>
<stop offset="1" stop-color="#1FCF79"/>
</linearGradient>
<linearGradient id="paint2_linear_1_2" x1="223.303" y1="93.5063" x2="260.263" y2="71.1324" gradientUnits="userSpaceOnUse">
<stop stop-color="#33CF83"/>
<stop offset="1" stop-color="#32CE82"/>
</linearGradient>
</defs>
</svg>
