<svg width="384" height="376" viewBox="0 0 384 376" fill="none" xmlns="http://www.w3.org/2000/svg">
<g id="Illustration 4 1">
<path id="Vector" opacity="0.04" d="M206.996 304.067C175.005 307.688 119.896 299.418 74.4379 266.688C28.9802 233.958 68.9261 168.997 100.407 169.254C110.188 169.36 62.1733 154.11 90.8888 142.567C125.759 128.55 111.71 79.8373 154.639 68.3506C197.568 56.8638 212.555 76.0472 230.967 80.9677C265.673 90.4151 261.62 59.6788 302.618 90.5705C328.781 110.285 346.24 152.95 326.332 201.35C306.423 249.751 283.936 295.357 206.996 304.067Z" fill="#276ED8"/>
<path id="Vector_2" d="M96.9706 272.986C87.6158 272.986 80.0355 280.629 80.0355 290.061C80.0355 299.492 87.6158 307.134 96.9706 307.134C106.325 307.134 113.905 299.492 113.905 290.061C113.905 280.629 106.325 272.986 96.9706 272.986ZM96.9706 302.88C89.9403 302.88 84.2469 297.14 84.2469 290.052C84.2469 282.965 89.9403 277.224 96.9706 277.224C104 277.224 109.694 282.965 109.694 290.052C109.694 297.14 104 302.88 96.9706 302.88Z" fill="#66D6A0"/>
<path id="Vector_3" d="M235.889 258.374H212.232C211.301 258.374 210.539 257.615 210.539 256.667C210.539 255.729 211.293 254.961 212.232 254.961H235.889C236.821 254.961 237.582 255.72 237.582 256.667C237.582 257.606 236.821 258.374 235.889 258.374Z" fill="#66D6A0"/>
<path id="Vector_4" d="M235.889 266.891H212.232C211.301 266.891 210.539 266.132 210.539 265.185C210.539 264.246 211.293 263.478 212.232 263.478H235.889C236.821 263.478 237.582 264.237 237.582 265.185C237.582 266.124 236.821 266.891 235.889 266.891Z" fill="#66D6A0"/>
<path id="gear1" class="gear1" opacity="0.2" d="M100.428 187.824L114.945 185.051V171.832L100.428 169.29C99.3138 163.86 97.198 158.775 94.2852 154.269L102.613 141.859L93.398 132.5L81.3622 141.143C76.9255 138.185 71.9427 136.059 66.5732 134.926L63.8429 120.183H50.8286L48.3258 134.926C42.9791 136.059 37.9736 138.208 33.5369 141.166L21.3416 132.708L12.127 142.067L20.6363 154.292C17.724 158.798 15.6308 163.883 14.516 169.313L0 172.086V185.305L14.516 187.847C15.6308 193.301 17.7468 198.361 20.6591 202.868L12.3318 215.255L21.5464 224.615L33.6051 215.972C38.0418 218.929 43.0473 221.079 48.3941 222.188L51.1244 236.932H64.1386L66.6414 222.188C72.011 221.055 76.9937 218.906 81.4304 215.948L93.6253 224.406L102.84 215.047L94.3312 202.822C97.221 198.339 99.3138 193.278 100.428 187.824ZM57.4723 205.942C42.5922 205.942 30.5335 193.671 30.5335 178.58C30.5335 163.49 42.5922 151.219 57.4723 151.219C72.3522 151.219 84.4109 163.466 84.4109 178.58C84.4109 193.694 72.3522 205.942 57.4723 205.942Z" fill="#84B5FF"/>
<path id="Vector_5" d="M188.169 85.0909V219.658C188.169 223.792 191.129 227.489 194.775 227.489H285.438C289.084 227.489 292.044 223.792 292.044 219.658V85.0909C292.044 80.9569 289.084 77.2603 285.438 77.2603H194.768C191.121 77.2684 188.169 80.9569 188.169 85.0909ZM285.531 223.305H240.106H194.682C193.331 223.305 192.237 222.066 192.237 220.533V84.2155C192.237 82.6834 193.331 81.4433 194.682 81.4433H285.531C286.882 81.4433 287.976 82.6834 287.976 84.2155V220.533C287.976 222.066 286.882 223.305 285.531 223.305Z" fill="#66D6A0"/>
<path id="Vector_6" d="M226.988 117.078C226.988 117.918 226.316 118.596 225.482 118.596C224.648 118.596 223.976 117.918 223.976 117.078C223.976 116.236 224.648 115.558 225.482 115.558C226.308 115.558 226.988 116.236 226.988 117.078Z" fill="#84B5FF"/>
<path id="Vector_7" d="M223.078 116.32C223.078 117.033 222.508 117.607 221.8 117.607C221.093 117.607 220.523 117.033 220.523 116.32C220.523 115.606 221.093 115.032 221.8 115.032C222.508 115.032 223.078 115.606 223.078 116.32Z" fill="#84B5FF"/>
<path id="Vector_8" d="M254.581 126.432V248.423C254.581 251.559 252.049 254.1 248.923 254.1H63.5559C60.4299 254.1 57.898 251.559 57.898 248.423V126.432C57.898 119.195 63.7478 113.315 70.9687 113.315H241.51C248.731 113.315 254.581 119.195 254.581 126.432Z" fill="white" stroke="#84B5FF" stroke-miterlimit="10"/>
<path id="Vector_9" d="M254.581 125.673V126.192H57.898V125.673C57.898 118.855 63.7478 113.315 70.9687 113.315H241.51C248.731 113.315 254.581 118.855 254.581 125.673Z" fill="#84B5FF"/>
<path id="Vector_10" d="M254.582 228.347V248.536C254.582 251.61 252.05 254.1 248.924 254.1H63.5568C60.4307 254.1 57.8989 251.61 57.8989 248.536V228.347H254.582Z" fill="#EDF1FF"/>
<path id="Vector_11" d="M254.581 126.432V248.423C254.581 251.559 252.049 254.1 248.923 254.1H63.5559C60.4299 254.1 57.898 251.559 57.898 248.423V126.432C57.898 119.195 63.7478 113.315 70.9687 113.315H241.51C248.731 113.315 254.581 119.195 254.581 126.432Z" stroke="#84B5FF" stroke-miterlimit="10"/>
<g id="Group" filter="url(#filter0_d_1_2)">
<path id="Vector_12" d="M259.69 178.557H176.248C173.427 178.557 171.14 180.863 171.14 183.708V267.836C171.14 270.68 173.427 272.986 176.248 272.986H259.69C262.511 272.986 264.798 270.68 264.798 267.836V183.708C264.798 180.863 262.511 178.557 259.69 178.557Z" fill="#06B25F"/>
</g>
<g id="apple" class="gear1">
<path id="Vector_13" d="M209.959 252.984C201.761 252.936 194.98 236.064 194.98 227.471C194.98 213.435 205.424 210.362 209.449 210.362C211.263 210.362 213.199 211.079 214.908 211.715C216.103 212.158 217.338 212.616 218.025 212.616C218.436 212.616 219.405 212.227 220.261 211.885C222.087 211.153 224.357 210.242 227.002 210.242C227.006 210.242 227.013 210.242 227.017 210.242C228.992 210.242 234.979 210.679 238.578 216.13L239.422 217.407L238.208 218.33C236.474 219.648 233.312 222.055 233.312 226.82C233.312 232.463 236.894 234.633 238.615 235.678C239.374 236.138 240.161 236.614 240.161 237.653C240.161 238.332 234.79 252.899 226.991 252.899C225.082 252.899 223.733 252.322 222.543 251.812C221.339 251.295 220.3 250.85 218.585 250.85C217.714 250.85 216.614 251.265 215.45 251.705C213.858 252.304 212.057 252.984 210.013 252.984H209.959Z" fill="white"/>
<path id="Vector_14" d="M227.829 197.443C228.031 204.827 222.794 209.95 217.562 209.629C216.7 203.736 222.793 197.443 227.829 197.443Z" fill="white"/>
</g>
<g id="gear1_2" class="gear1" clip-path="url(#clip0_1_2)">
<g id="Group_2" filter="url(#filter1_d_1_2)">
<path id="Vector_15" d="M151.931 71.9L158.667 70.6332V64.5946L151.931 63.4333C151.414 60.9525 150.432 58.63 149.081 56.5714L152.945 50.9023L148.669 46.6268L143.085 50.5751C141.026 49.2238 138.714 48.2526 136.223 47.7352L134.956 41H128.917L127.756 47.7352C125.275 48.2526 122.953 49.2343 120.894 50.5857L115.236 46.7218L110.96 50.9973L114.908 56.5819C113.557 58.6405 112.586 60.9631 112.069 63.4439L105.333 64.7107V70.7492L112.069 71.9105C112.586 74.4019 113.568 76.7139 114.919 78.7725L111.055 84.431L115.331 88.7065L120.926 84.7582C122.984 86.1095 125.307 87.0913 127.788 87.5981L129.055 94.3333H135.093L136.254 87.5981C138.746 87.0808 141.058 86.099 143.116 84.7477L148.775 88.6115L153.05 84.336L149.102 78.7514C150.443 76.7033 151.414 74.3914 151.931 71.9ZM132 80.1766C125.096 80.1766 119.501 74.5708 119.501 67.6772C119.501 60.7836 125.096 55.1779 132 55.1779C138.904 55.1779 144.499 60.773 144.499 67.6772C144.499 74.5814 138.904 80.1766 132 80.1766Z" fill="#276ED8"/>
</g>
</g>
<g id="gear1_3" class="gear1" clip-path="url(#clip1_1_2)">
<g id="Group_3" filter="url(#filter2_d_1_2)">
<path id="Vector_16" d="M338.674 113.098L343.67 114.849L346.004 110.819L341.946 107.44C342.557 105.58 342.801 103.64 342.692 101.754L347.471 99.4603L346.262 94.955L341.009 95.4436C340.154 93.7472 338.973 92.2003 337.52 90.8976L339.272 85.9037L335.24 83.5696L331.86 87.6271C330 87.0165 328.059 86.7722 326.172 86.8808L323.878 82.1176L319.371 83.3254L319.86 88.5906C318.163 89.4455 316.615 90.6262 315.312 92.0781L310.317 90.3276L307.982 94.3579L312.041 97.7369C311.43 99.6096 311.186 101.523 311.294 103.423L306.529 105.716L307.738 110.221L313.005 109.733C313.86 111.429 315.027 112.976 316.493 114.279L314.742 119.273L318.774 121.607L322.154 117.549C324.027 118.16 325.941 118.404 327.842 118.296L330.136 123.059L334.643 121.851L334.154 116.586C335.824 115.745 337.371 114.578 338.674 113.098ZM322.154 110.941C317.538 108.281 315.964 102.378 318.624 97.764C321.285 93.1502 327.19 91.5761 331.805 94.2358C336.421 96.8955 337.995 102.799 335.335 107.412C332.674 112.026 326.769 113.6 322.154 110.941Z" fill="#84B5FF"/>
</g>
</g>
<g id="sqr_green" class="sqr_green" clip-path="url(#clip2_1_2)">
<g id="Group_4" filter="url(#filter3_d_1_2)">
<path id="Vector_17" d="M122.738 156.414H78.8182C76.107 156.414 73.9091 158.39 73.9091 160.828V199.483C73.9091 201.921 76.107 203.897 78.8182 203.897H122.738C125.449 203.897 127.647 201.921 127.647 199.483V160.828C127.647 158.39 125.449 156.414 122.738 156.414Z" fill="#276ED8"/>
</g>
<path id="Vector_18" d="M92.2015 188.007L79.9004 182.026C79.1054 181.612 78.7079 180.973 78.7079 180.107C78.7079 179.204 79.1263 178.565 79.9631 178.189L92.2015 172.151V174.352C92.2015 174.502 92.1387 174.709 92.0132 174.972C91.8877 175.198 91.6995 175.367 91.4484 175.48L82.7246 179.769C82.3899 179.994 82.3899 180.22 82.7246 180.446L92.2015 185.017V188.007Z" fill="white"/>
<path id="Vector_19" d="M102.679 170.345H105.127L99.0393 189.08C98.872 189.569 98.4954 189.813 97.9096 189.813H96.3406L102.679 170.345Z" fill="white"/>
<path id="Vector_20" d="M109.078 172.151L121.316 178.189C122.195 178.603 122.634 179.242 122.634 180.107C122.634 180.973 122.195 181.593 121.316 181.97L109.078 188.007V185.807C109.078 185.694 109.12 185.506 109.203 185.242C109.329 184.979 109.517 184.791 109.768 184.678L118.555 180.446C118.89 180.22 118.89 179.994 118.555 179.769L109.078 175.142V172.151Z" fill="white"/>
</g>
</g>
<defs>
<filter id="filter0_d_1_2" x="168.14" y="175.557" width="109.659" height="110.429" filterUnits="userSpaceOnUse" color-interpolation-filters="sRGB">
<feFlood flood-opacity="0" result="BackgroundImageFix"/>
<feColorMatrix in="SourceAlpha" type="matrix" values="0 0 0 0 0 0 0 0 0 0 0 0 0 0 0 0 0 0 127 0" result="hardAlpha"/>
<feOffset dx="5" dy="5"/>
<feGaussianBlur stdDeviation="4"/>
<feColorMatrix type="matrix" values="0 0 0 0 0 0 0 0 0 0 0 0 0 0 0 0 0 0 0.2 0"/>
<feBlend mode="normal" in2="BackgroundImageFix" result="effect1_dropShadow_1_2"/>
<feBlend mode="normal" in="SourceGraphic" in2="effect1_dropShadow_1_2" result="shape"/>
</filter>
<filter id="filter1_d_1_2" x="95.3333" y="35" width="73.3333" height="73.3333" filterUnits="userSpaceOnUse" color-interpolation-filters="sRGB">
<feFlood flood-opacity="0" result="BackgroundImageFix"/>
<feColorMatrix in="SourceAlpha" type="matrix" values="0 0 0 0 0 0 0 0 0 0 0 0 0 0 0 0 0 0 127 0" result="hardAlpha"/>
<feOffset dy="4"/>
<feGaussianBlur stdDeviation="5"/>
<feColorMatrix type="matrix" values="0 0 0 0 0.0885677 0 0 0 0 0.0395834 0 0 0 0 0.395833 0 0 0 0.25 0"/>
<feBlend mode="normal" in2="BackgroundImageFix" result="effect1_dropShadow_1_2"/>
<feBlend mode="normal" in="SourceGraphic" in2="effect1_dropShadow_1_2" result="shape"/>
</filter>
<filter id="filter2_d_1_2" x="296.529" y="76.1176" width="60.9412" height="60.9412" filterUnits="userSpaceOnUse" color-interpolation-filters="sRGB">
<feFlood flood-opacity="0" result="BackgroundImageFix"/>
<feColorMatrix in="SourceAlpha" type="matrix" values="0 0 0 0 0 0 0 0 0 0 0 0 0 0 0 0 0 0 127 0" result="hardAlpha"/>
<feOffset dy="4"/>
<feGaussianBlur stdDeviation="5"/>
<feColorMatrix type="matrix" values="0 0 0 0 0.0885677 0 0 0 0 0.0395834 0 0 0 0 0.395833 0 0 0 0.25 0"/>
<feBlend mode="normal" in2="BackgroundImageFix" result="effect1_dropShadow_1_2"/>
<feBlend mode="normal" in="SourceGraphic" in2="effect1_dropShadow_1_2" result="shape"/>
</filter>
<filter id="filter3_d_1_2" x="70.9091" y="153.414" width="69.7379" height="63.4831" filterUnits="userSpaceOnUse" color-interpolation-filters="sRGB">
<feFlood flood-opacity="0" result="BackgroundImageFix"/>
<feColorMatrix in="SourceAlpha" type="matrix" values="0 0 0 0 0 0 0 0 0 0 0 0 0 0 0 0 0 0 127 0" result="hardAlpha"/>
<feOffset dx="5" dy="5"/>
<feGaussianBlur stdDeviation="4"/>
<feColorMatrix type="matrix" values="0 0 0 0 0 0 0 0 0 0 0 0 0 0 0 0 0 0 0.2 0"/>
<feBlend mode="normal" in2="BackgroundImageFix" result="effect1_dropShadow_1_2"/>
<feBlend mode="normal" in="SourceGraphic" in2="effect1_dropShadow_1_2" result="shape"/>
</filter>
<clipPath id="clip0_1_2">
<rect width="70" height="70" fill="white" transform="translate(97 36)"/>
</clipPath>
<clipPath id="clip1_1_2">
<rect width="58" height="58" fill="white" transform="translate(298 77)"/>
</clipPath>
<clipPath id="clip2_1_2">
<rect width="72" height="64" fill="white" transform="translate(69 152)"/>
</clipPath>
</defs>
</svg>
