<svg width="400" height="366" viewBox="0 0 400 366" fill="none" xmlns="http://www.w3.org/2000/svg">
<g id="technologies 1">
<rect width="400" height="366" fill="white" fill-opacity="0.01"/>
<path id="Vector" opacity="0.04" d="M82.8163 293.438C137.941 342.488 207.156 349.954 257.804 325.963C308.452 301.971 302.559 267.136 284.842 237.76C279.317 228.653 375.142 231.42 378.802 195.827C382.462 160.234 354.363 149.31 354.363 149.31C354.363 149.31 252.766 118.721 238.684 105.104C232.518 99.2134 211.699 42.1933 149.836 18.4117C96.9705 -1.91119 53.1805 36.3394 38.11 78.1647C23.0397 119.99 7.33149 226.272 82.8163 293.438Z" fill="#276ED8"/>
<path id="gear1" class="gear1" opacity="0.2" d="M374.347 125.267L383.861 123.427V114.655L374.347 112.969C373.616 109.366 372.23 105.992 370.32 103.002L375.779 94.7666L369.739 88.5566L361.85 94.2912C358.942 92.3286 355.676 90.9177 352.157 90.1668L350.368 80.3832H341.838L340.198 90.1668C336.694 90.9177 333.413 92.344 330.505 94.3066L322.511 88.6943L316.472 94.9052L322.049 103.017C320.141 106.007 318.768 109.381 318.038 112.985L308.524 114.824V123.596L318.038 125.282C318.768 128.901 320.156 132.259 322.064 135.25L316.606 143.469L322.646 149.679L330.55 143.944C333.457 145.907 336.738 147.333 340.242 148.069L342.032 157.853H350.561L352.202 148.069C355.721 147.318 358.987 145.892 361.895 143.929L369.888 149.542L375.928 143.331L370.35 135.219C372.244 132.244 373.616 128.886 374.347 125.267ZM346.192 137.289C336.44 137.289 328.536 129.147 328.536 119.133C328.536 109.12 336.44 100.978 346.192 100.978C355.945 100.978 363.849 109.105 363.849 119.133C363.849 129.162 355.945 137.289 346.192 137.289Z" fill="#84B5FF"/>
<path id="Vector_2" d="M218.582 180.094V264.597C218.582 268.802 221.909 272.216 226.009 272.216H327.928C332.027 272.216 335.355 268.802 335.355 264.597V180.094C335.355 175.888 332.027 172.474 327.928 172.474H226.001C221.902 172.483 218.582 175.888 218.582 180.094ZM328.032 268.307H276.968H225.904C224.385 268.307 223.155 267.046 223.155 265.487V179.203C223.155 177.644 224.385 176.383 225.904 176.383H328.032C329.551 176.383 330.781 177.644 330.781 179.203V265.487C330.781 267.046 329.551 268.307 328.032 268.307Z" fill="#66D6A0"/>
<path id="circle" class="circle" d="M271.129 31.3901C260.253 31.3901 251.438 40.454 251.438 51.6387C251.438 62.8233 260.253 71.8873 271.129 71.8873C282.007 71.8873 290.821 62.8233 290.821 51.6387C290.821 40.454 282.007 31.3901 271.129 31.3901ZM271.129 66.842C262.955 66.842 256.335 60.0344 256.335 51.629C256.335 43.2236 262.955 36.4159 271.129 36.4159C279.303 36.4159 285.923 43.2236 285.923 51.629C285.923 60.0344 279.303 66.842 271.129 66.842Z" fill="#66D6A0"/>
<path id="Vector_3" d="M295.491 110.314V239.097C295.491 242.409 292.882 245.092 289.662 245.092H98.6827C95.4619 245.092 92.8532 242.409 92.8532 239.097V110.314C92.8532 102.673 98.8807 96.4667 106.32 96.4667H282.025C289.464 96.4667 295.491 102.673 295.491 110.314Z" fill="white" stroke="#84B5FF" stroke-miterlimit="10"/>
<path id="Vector_4" d="M186.695 127.272H163.966V129.236H186.695V127.272Z" fill="#84B5FF"/>
<path id="Vector_5" d="M213.356 127.272H190.626V129.236H213.356V127.272Z" fill="#06B25F"/>
<path id="Vector_6" d="M206.235 137.872H170.988V139.836H206.235V137.872Z" fill="#276ED8"/>
<path id="Vector_7" d="M229.968 137.872H212.057V139.836H229.968V137.872Z" fill="#84B5FF"/>
<path id="Vector_8" d="M198.684 148.458H183.208V150.423H198.684V148.458Z" fill="#06B25F"/>
<path id="Vector_9" d="M258.98 148.458H207.632V150.423H258.98V148.458Z" fill="#06B25F"/>
<path id="Vector_10" d="M253.914 159.053H195.231V161.018H253.914V159.053Z" fill="#276ED8"/>
<path id="Vector_11" d="M198.62 169.639H180.56V171.604H198.62V169.639Z" fill="#84B5FF"/>
<path id="Vector_12" d="M224.407 169.639H206.348V171.604H224.407V169.639Z" fill="#276ED8"/>
<path id="Vector_13" d="M190.231 224.603H163.965V226.568H190.231V224.603Z" fill="#84B5FF"/>
<path id="Vector_14" d="M225.69 224.603H199.425V226.568H225.69V224.603Z" fill="#06B25F"/>
<path id="Vector_15" d="M260.213 224.603H233.947V226.568H260.213V224.603Z" fill="#84B5FF"/>
<path id="Vector_16" d="M222.336 214.001H170.988V215.965H222.336V214.001Z" fill="#276ED8"/>
<path id="Vector_17" d="M281.676 214.001H230.328V215.965H281.676V214.001Z" fill="#84B5FF"/>
<path id="Vector_18" d="M234.161 203.416H183.209V205.381H234.161V203.416Z" fill="#84B5FF"/>
<path id="Vector_19" d="M252.778 203.416H238.601V205.381H252.778V203.416Z" fill="#06B25F"/>
<path id="Vector_20" d="M199.063 192.818H179.885V194.782H199.063V192.818Z" fill="#06B25F"/>
<path id="Vector_21" d="M228.421 192.818H209.243V194.782H228.421V192.818Z" fill="#276ED8"/>
<path id="Vector_22" d="M259.95 192.818H240.773V194.782H259.95V192.818Z" fill="#84B5FF"/>
<path id="Vector_23" d="M229.013 182.236H202.122V184.201H229.013V182.236Z" fill="#06B25F"/>
<path id="Vector_24" d="M191.974 182.236H165.084V184.201H191.974V182.236Z" fill="#276ED8"/>
<path id="Vector_25" d="M157.632 125.393H155.182V127.917H157.632V125.393Z" fill="#84B5FF"/>
<path id="Vector_26" d="M157.632 217.745H155.182V212.614H157.632V217.745ZM157.632 204.91H155.182V199.78H157.632V204.91ZM157.632 192.075H155.182V186.944H157.632V192.075ZM157.632 179.24H155.182V174.109H157.632V179.24ZM157.632 166.404H155.182V161.274H157.632V166.404ZM157.632 153.569H155.182V148.439H157.632V153.569ZM157.632 140.735H155.182V135.604H157.632V140.735Z" fill="#84B5FF"/>
<path id="Vector_27" d="M157.633 225.448H155.183V227.971H157.633V225.448Z" fill="#84B5FF"/>
<path id="Vector_28" opacity="0.7" d="M92.3925 111.756C92.3925 108.922 94.6262 106.625 97.3821 106.625H145.128V245.102H97.3821C94.6262 245.102 92.3925 242.804 92.3925 239.971V111.756Z" fill="#84B5FF"/>
<path id="Vector_29" d="M119.339 129.211H96.6096V131.175H119.339V129.211Z" fill="#06B25F"/>
<path id="Vector_30" d="M136.737 141.213H101.491V143.177H136.737V141.213Z" fill="#84B5FF"/>
<path id="Vector_31" d="M136.737 153.217H101.491V155.181H136.737V153.217Z" fill="#84B5FF"/>
<path id="Vector_32" d="M136.737 165.221H101.491V167.185H136.737V165.221Z" fill="#84B5FF"/>
<path id="Vector_33" d="M136.737 177.222H101.491V179.186H136.737V177.222Z" fill="#84B5FF"/>
<path id="Vector_34" d="M138.566 201.226H103.321V203.191H138.566V201.226Z" fill="#84B5FF"/>
<path id="Vector_35" d="M138.566 213.232H103.321V215.196H138.566V213.232Z" fill="#84B5FF"/>
<path id="Vector_36" d="M138.566 225.231H103.321V227.195H138.566V225.231Z" fill="#84B5FF"/>
<path id="Vector_37" d="M119.339 189.224H96.6096V191.188H119.339V189.224Z" fill="#06B25F"/>
<path id="Vector_38" d="M295.491 110.314V110.895H92.8532V110.314C92.8532 102.673 98.8807 96.4667 106.32 96.4667H282.025C289.464 96.4667 295.491 102.673 295.491 110.314Z" fill="#84B5FF"/>
<path id="Vector_39" opacity="0.3" d="M264.717 104.349C264.717 105.347 263.935 106.15 262.965 106.15C261.995 106.15 261.213 105.347 261.213 104.349C261.213 103.352 261.995 102.548 262.965 102.548C263.926 102.548 264.717 103.352 264.717 104.349Z" fill="white"/>
<path id="Vector_40" opacity="0.3" d="M274.303 104.349C274.303 105.346 273.521 106.15 272.551 106.15C271.582 106.15 270.8 105.346 270.8 104.349C270.8 103.351 271.582 102.548 272.551 102.548C273.512 102.548 274.303 103.351 274.303 104.349Z" fill="white"/>
<path id="Vector_41" opacity="0.3" d="M283.467 104.349C283.467 105.346 282.685 106.15 281.716 106.15C280.745 106.15 279.963 105.346 279.963 104.349C279.963 103.351 280.745 102.548 281.716 102.548C282.685 102.548 283.467 103.351 283.467 104.349Z" fill="white"/>
<path id="Vector_42" d="M295.491 110.314V239.097C295.491 242.409 292.882 245.092 289.662 245.092H98.6827C95.4619 245.092 92.8532 242.409 92.8532 239.097V110.314C92.8532 102.673 98.8807 96.4667 106.32 96.4667H282.025C289.464 96.4667 295.491 102.673 295.491 110.314Z" stroke="#84B5FF" stroke-miterlimit="10"/>
<g id="gear1_2" class="gear1" filter="url(#filter0_d_1_2)">
<path id="Vector_43" d="M175.979 253.395L186.564 251.348V241.59L175.979 239.714C175.167 235.705 173.623 231.952 171.5 228.625L177.572 219.464L170.853 212.555L162.077 218.935C158.842 216.752 155.209 215.181 151.294 214.346L149.303 203.462H139.814L137.988 214.346C134.09 215.181 130.44 216.769 127.205 218.952L118.313 212.708L111.594 219.617L117.799 228.642C115.675 231.969 114.149 235.722 113.336 239.731L102.752 241.778V251.536L113.336 253.412C114.149 257.438 115.691 261.174 117.815 264.501L111.743 273.645L118.462 280.554L127.255 274.174C130.49 276.357 134.14 277.944 138.038 278.763L140.029 289.647H149.519L151.343 278.763C155.258 277.927 158.891 276.34 162.127 274.157L171.019 280.4L177.738 273.492L171.533 264.467C173.64 261.157 175.167 257.421 175.979 253.395ZM144.658 266.77C133.808 266.77 125.015 257.711 125.015 246.571C125.015 235.431 133.808 226.373 144.658 226.373C155.508 226.373 164.3 235.414 164.3 246.571C164.3 257.728 155.508 266.77 144.658 266.77Z" fill="#276ED8"/>
</g>
<g id="gear1_3" class="gear1" filter="url(#filter1_d_1_2)">
<path id="Vector_44" d="M221.112 312.231L226.627 314.219L229.205 309.643L224.724 305.807C225.398 303.696 225.668 301.492 225.548 299.351L230.824 296.747L229.49 291.633L223.69 292.187C222.746 290.261 221.442 288.505 219.838 287.026L221.771 281.357L217.32 278.706L213.588 283.313C211.535 282.62 209.392 282.342 207.308 282.466L204.776 277.058L199.8 278.429L200.339 284.407C198.466 285.377 196.758 286.718 195.318 288.366L189.803 286.379L187.225 290.955L191.706 294.791C191.032 296.917 190.763 299.09 190.882 301.246L185.622 303.85L186.956 308.965L192.771 308.411C193.715 310.336 195.004 312.093 196.622 313.571L194.689 319.241L199.14 321.891L202.872 317.284C204.941 317.978 207.054 318.255 209.152 318.132L211.685 323.54L216.66 322.168L216.121 316.191C217.964 315.235 219.673 313.911 221.112 312.231ZM202.872 309.781C197.776 306.762 196.038 300.06 198.975 294.822C201.913 289.584 208.432 287.797 213.528 290.816C218.624 293.836 220.363 300.537 217.425 305.776C214.487 311.014 207.968 312.801 202.872 309.781Z" fill="#84B5FF"/>
</g>
<g id="sqr_green" class="sqr_green">
<g id="Group" filter="url(#filter2_d_1_2)">
<path id="Vector_45" d="M122.246 80.4788H77.6061C74.8504 80.4788 72.6165 82.7759 72.6165 85.6096V130.545C72.6165 133.379 74.8504 135.676 77.6061 135.676H122.246C125.002 135.676 127.236 133.379 127.236 130.545V85.6096C127.236 82.7759 125.002 80.4788 122.246 80.4788Z" fill="#06B25F"/>
</g>
<path id="Vector_46" d="M91.2091 117.205L78.706 110.252C77.898 109.771 77.494 109.027 77.494 108.021C77.494 106.972 77.9193 106.229 78.7698 105.791L91.2091 98.7721V101.331C91.2091 101.506 91.1451 101.746 91.0179 102.052C90.8898 102.315 90.6985 102.512 90.4432 102.642L81.5766 107.628C81.2363 107.89 81.2363 108.153 81.5766 108.416L91.2091 113.729V117.205Z" fill="white"/>
<path id="Vector_47" d="M101.859 96.6736H104.347L98.1588 118.451C97.9884 119.02 97.6058 119.304 97.0104 119.304H95.4162L101.859 96.6736Z" fill="white"/>
<path id="Vector_48" d="M108.362 98.7721L120.801 105.791C121.694 106.273 122.141 107.016 122.141 108.021C122.141 109.027 121.694 109.749 120.801 110.187L108.362 117.205V114.647C108.362 114.515 108.405 114.297 108.49 113.991C108.617 113.685 108.808 113.466 109.064 113.335L117.994 108.416C118.334 108.153 118.334 107.89 117.994 107.628L108.362 102.249V98.7721Z" fill="white"/>
</g>
<g id="robot" class="robot">
<g id="Group_2" filter="url(#filter3_d_1_2)">
<path id="Vector_49" d="M328.768 125H274.232C272.447 125 271 126.827 271 129.08V197.92C271 200.173 272.447 202 274.232 202H328.768C330.553 202 332 200.173 332 197.92V129.08C332 126.827 330.553 125 328.768 125Z" fill="white"/>
</g>
<path id="Vector_50" d="M285.703 151.471L285.706 180.282C285.706 182.909 287.737 185.029 290.251 185.029H291.541V195.835C291.541 198.287 293.605 200.283 295.949 200.283C298.303 200.283 300.299 198.287 300.299 195.832V185.029H306.138V195.835C306.138 198.287 308.202 200.283 310.549 200.283C312.902 200.283 314.896 198.287 314.896 195.832V185.029L316.192 185.026C318.697 185.026 320.734 182.903 320.734 180.276V151.471H285.703ZM332.412 155.959C332.412 153.503 330.383 151.471 328.032 151.471C325.682 151.468 323.654 153.505 323.654 155.961V174.59C323.654 177.048 325.68 178.928 328.032 178.928C330.383 178.928 332.412 177.052 332.412 174.59V155.959ZM282.783 155.959C282.783 153.503 280.754 151.471 278.404 151.471C276.054 151.468 274.026 153.505 274.026 155.961V174.59C274.026 177.048 276.052 178.928 278.404 178.928C280.754 178.928 282.783 177.052 282.783 174.59V155.959ZM311.834 133.652L314.578 127.98C314.776 127.578 314.522 127.064 314.101 127.064C313.909 127.064 313.722 127.181 313.623 127.385L310.852 133.115C306.383 130.866 300.506 130.637 295.588 133.115L292.814 127.385C292.718 127.181 292.531 127.064 292.335 127.064C291.915 127.064 291.661 127.578 291.859 127.98L294.604 133.652C289.217 136.806 285.703 141.534 285.703 148.417H320.734C320.734 141.534 317.22 136.806 311.834 133.652ZM295.924 142.318C295.118 142.318 294.461 141.635 294.461 140.793C294.461 139.957 295.118 139.268 295.924 139.268C296.729 139.268 297.38 139.957 297.38 140.793C297.38 141.635 296.729 142.318 295.924 142.318ZM310.514 142.318C309.708 142.318 309.057 141.635 309.057 140.793C309.057 139.957 309.708 139.268 310.514 139.268C311.32 139.268 311.977 139.957 311.977 140.793C311.977 141.635 311.32 142.318 310.514 142.318Z" fill="#06B25F"/>
</g>
</g>
<defs>
<filter id="filter0_d_1_2" x="92.7518" y="197.462" width="103.812" height="106.185" filterUnits="userSpaceOnUse" color-interpolation-filters="sRGB">
<feFlood flood-opacity="0" result="BackgroundImageFix"/>
<feColorMatrix in="SourceAlpha" type="matrix" values="0 0 0 0 0 0 0 0 0 0 0 0 0 0 0 0 0 0 127 0" result="hardAlpha"/>
<feOffset dy="4"/>
<feGaussianBlur stdDeviation="5"/>
<feColorMatrix type="matrix" values="0 0 0 0 0.0885677 0 0 0 0 0.0395834 0 0 0 0 0.395833 0 0 0 0.25 0"/>
<feBlend mode="normal" in2="BackgroundImageFix" result="effect1_dropShadow_1_2"/>
<feBlend mode="normal" in="SourceGraphic" in2="effect1_dropShadow_1_2" result="shape"/>
</filter>
<filter id="filter1_d_1_2" x="175.622" y="271.058" width="65.2025" height="66.482" filterUnits="userSpaceOnUse" color-interpolation-filters="sRGB">
<feFlood flood-opacity="0" result="BackgroundImageFix"/>
<feColorMatrix in="SourceAlpha" type="matrix" values="0 0 0 0 0 0 0 0 0 0 0 0 0 0 0 0 0 0 127 0" result="hardAlpha"/>
<feOffset dy="4"/>
<feGaussianBlur stdDeviation="5"/>
<feColorMatrix type="matrix" values="0 0 0 0 0.0885677 0 0 0 0 0.0395834 0 0 0 0 0.395833 0 0 0 0.25 0"/>
<feBlend mode="normal" in2="BackgroundImageFix" result="effect1_dropShadow_1_2"/>
<feBlend mode="normal" in="SourceGraphic" in2="effect1_dropShadow_1_2" result="shape"/>
</filter>
<filter id="filter2_d_1_2" x="69.6165" y="77.4788" width="70.6193" height="71.197" filterUnits="userSpaceOnUse" color-interpolation-filters="sRGB">
<feFlood flood-opacity="0" result="BackgroundImageFix"/>
<feColorMatrix in="SourceAlpha" type="matrix" values="0 0 0 0 0 0 0 0 0 0 0 0 0 0 0 0 0 0 127 0" result="hardAlpha"/>
<feOffset dx="5" dy="5"/>
<feGaussianBlur stdDeviation="4"/>
<feColorMatrix type="matrix" values="0 0 0 0 0 0 0 0 0 0 0 0 0 0 0 0 0 0 0.2 0"/>
<feBlend mode="normal" in2="BackgroundImageFix" result="effect1_dropShadow_1_2"/>
<feBlend mode="normal" in="SourceGraphic" in2="effect1_dropShadow_1_2" result="shape"/>
</filter>
<filter id="filter3_d_1_2" x="268" y="122" width="77" height="93" filterUnits="userSpaceOnUse" color-interpolation-filters="sRGB">
<feFlood flood-opacity="0" result="BackgroundImageFix"/>
<feColorMatrix in="SourceAlpha" type="matrix" values="0 0 0 0 0 0 0 0 0 0 0 0 0 0 0 0 0 0 127 0" result="hardAlpha"/>
<feOffset dx="5" dy="5"/>
<feGaussianBlur stdDeviation="4"/>
<feColorMatrix type="matrix" values="0 0 0 0 0 0 0 0 0 0 0 0 0 0 0 0 0 0 0.2 0"/>
<feBlend mode="normal" in2="BackgroundImageFix" result="effect1_dropShadow_1_2"/>
<feBlend mode="normal" in="SourceGraphic" in2="effect1_dropShadow_1_2" result="shape"/>
</filter>
</defs>
</svg>
