<svg width="553" height="440" viewBox="0 0 553 440" fill="none" xmlns="http://www.w3.org/2000/svg">
<mask id="mask0" mask-type="alpha" maskUnits="userSpaceOnUse" x="0" y="0" width="553" height="440">
<rect width="553" height="440" fill="#C4C4C4"/>
</mask>
<g mask="url(#mask0)">
<path opacity="0.04" d="M228.456 349.865C320.017 371.366 470.374 342.008 521.967 292.094C573.559 242.18 522.373 186.126 486.534 165.484C475.382 159.1 462.809 154.518 453.843 145.631C434.268 126.169 428.146 94.4403 403.433 80.9698C382.058 69.3024 356.116 81.1525 332.215 74.564C321.782 71.7508 304.932 59.0741 287.212 56.7817C248.021 51.7115 151.631 87.4508 139.734 121.452C127.836 155.453 103.077 320.423 228.456 349.865Z" fill="#276ED8"/>
<path opacity="0.2" d="M383.75 194.692L396 192.387V181.405L383.75 179.293C382.809 174.781 381.024 170.557 378.566 166.813L385.593 156.502L377.817 148.726L367.66 155.907C363.916 153.449 359.711 151.683 355.18 150.742L352.876 138.492H341.893L339.781 150.742C335.269 151.683 331.045 153.468 327.301 155.926L317.01 148.899L309.234 156.675L316.415 166.832C313.957 170.576 312.191 174.8 311.25 179.312L299 181.616V192.599L311.25 194.711C312.191 199.242 313.976 203.447 316.434 207.191L309.407 217.482L317.183 225.258L327.359 218.078C331.103 220.535 335.327 222.321 339.839 223.242L342.143 235.492H353.126L355.238 223.242C359.769 222.302 363.974 220.516 367.718 218.058L378.009 225.086L385.785 217.309L378.605 207.153C381.043 203.428 382.809 199.223 383.75 194.692ZM347.5 209.745C334.943 209.745 324.767 199.549 324.767 187.011C324.767 174.474 334.943 164.278 347.5 164.278C360.057 164.278 370.233 174.454 370.233 187.011C370.233 199.568 360.057 209.745 347.5 209.745Z" fill="#84B5FF"/>
<path d="M108.56 146.812V249.282C108.56 254.382 112.7 258.522 117.8 258.522H255.6C260.7 258.522 264.84 254.382 264.84 249.282V146.812C264.84 141.712 260.7 137.572 255.6 137.572H117.79C112.69 137.582 108.56 141.712 108.56 146.812ZM255.73 253.782H192.2L118 253.492C116.11 253.492 114.25 252.252 114.25 250.362V145.732C114.25 143.842 115.78 142.312 117.67 142.312H255.73C257.62 142.312 259.15 143.842 259.15 145.732V250.362C259.15 252.252 257.62 253.782 255.73 253.782Z" fill="#66D6A0"/>
<path d="M397.91 256.492C386.36 256.492 377 265.852 377 277.402C377 288.952 386.36 298.312 397.91 298.312C409.46 298.312 418.82 288.952 418.82 277.402C418.82 265.852 409.46 256.492 397.91 256.492ZM397.91 293.102C389.23 293.102 382.2 286.072 382.2 277.392C382.2 268.712 389.23 261.682 397.91 261.682C406.59 261.682 413.62 268.712 413.62 277.392C413.62 286.072 406.59 293.102 397.91 293.102Z" fill="#66D6A0"/>
<path d="M352.669 195.302V328.292C352.669 331.712 349.899 334.482 346.479 334.482H143.679C140.259 334.482 137.489 331.712 137.489 328.292V195.302C137.489 187.412 143.889 181.002 151.789 181.002H338.369C346.269 181.002 352.669 187.412 352.669 195.302Z" fill="white" stroke="#84B5FF" stroke-miterlimit="10"/>
<path d="M352.669 195.302V195.902H137.489V195.302C137.489 187.412 143.889 181.002 151.789 181.002H338.369C346.269 181.002 352.669 187.412 352.669 195.302Z" fill="#84B5FF"/>
<path opacity="0.1" d="M352.669 305.832V328.292C352.669 331.712 349.899 334.482 346.479 334.482H143.679C140.259 334.482 137.489 331.712 137.489 328.292V305.832H352.669Z" fill="#84B5FF"/>
<path d="M319.99 189.142C319.99 190.172 319.16 191.002 318.13 191.002C317.1 191.002 316.27 190.172 316.27 189.142C316.27 188.112 317.1 187.282 318.13 187.282C319.15 187.282 319.99 188.112 319.99 189.142Z" fill="#84B5FF"/>
<path d="M330.169 189.142C330.169 190.172 329.339 191.002 328.309 191.002C327.279 191.002 326.449 190.172 326.449 189.142C326.449 188.112 327.279 187.282 328.309 187.282C329.329 187.282 330.169 188.112 330.169 189.142Z" fill="#84B5FF"/>
<path d="M339.9 189.142C339.9 190.172 339.07 191.002 338.04 191.002C337.01 191.002 336.18 190.172 336.18 189.142C336.18 188.112 337.01 187.282 338.04 187.282C339.07 187.282 339.9 188.112 339.9 189.142Z" fill="#84B5FF"/>
<path opacity="0.1" d="M352.999 195.747V328.322C352.999 331.731 350.231 334.492 346.814 334.492H144.184C140.767 334.492 137.999 331.731 137.999 328.322V195.747C137.999 187.882 144.394 181.492 152.287 181.492H338.711C346.604 181.492 352.999 187.882 352.999 195.747Z" stroke="#276ED8" stroke-miterlimit="10"/>
<g filter="url(#filter0_d)">
<path d="M161.918 339.08L170 337.56V330.314L161.918 328.92C161.297 325.943 160.119 323.156 158.497 320.686L163.134 313.883L158.003 308.752L151.302 313.49C148.831 311.869 146.057 310.703 143.067 310.082L141.547 302H134.301L132.907 310.082C129.93 310.703 127.143 311.881 124.673 313.503L117.883 308.866L112.752 313.997L117.49 320.698C115.869 323.169 114.703 325.956 114.082 328.933L106 330.453V337.699L114.082 339.093C114.703 342.082 115.881 344.857 117.503 347.327L112.866 354.117L117.997 359.248L124.711 354.51C127.181 356.131 129.968 357.31 132.945 357.918L134.466 366H141.712L143.105 357.918C146.095 357.297 148.869 356.119 151.34 354.497L158.13 359.134L163.26 354.003L158.523 347.302C160.131 344.844 161.297 342.07 161.918 339.08ZM138 349.012C129.715 349.012 123.001 342.285 123.001 334.013C123.001 325.74 129.715 319.013 138 319.013C146.285 319.013 152.999 325.728 152.999 334.013C152.999 342.298 146.285 349.012 138 349.012Z" fill="#84B5FF"/>
</g>
<g filter="url(#filter1_d)">
<path d="M74.687 278.322L80.5437 280.375L83.2811 275.649L78.5225 271.688C79.2387 269.508 79.5252 267.233 79.3978 265.022L85 262.333L83.5835 257.051L77.4244 257.623C76.4217 255.635 75.0371 253.821 73.3342 252.294L75.3873 246.439L70.6605 243.702L66.6976 248.459C64.5172 247.743 62.2414 247.457 60.0292 247.584L57.3395 242L52.0557 243.416L52.6287 249.589C50.6393 250.591 48.8249 251.975 47.2971 253.678L41.4403 251.625L38.7029 256.351L43.4615 260.312C42.7454 262.508 42.4589 264.751 42.5862 266.978L37 269.667L38.4164 274.949L44.5915 274.377C45.5941 276.365 46.9629 278.179 48.6817 279.706L46.6286 285.561L51.3554 288.298L55.3183 283.541C57.5146 284.257 59.7586 284.543 61.9868 284.416L64.6764 290L69.9602 288.584L69.3873 282.411C71.3448 281.425 73.1591 280.056 74.687 278.322ZM55.3183 275.793C49.9072 272.674 48.061 265.753 51.1804 260.344C54.2997 254.935 61.2228 253.089 66.6339 256.207C72.0451 259.326 73.8912 266.247 70.7719 271.656C67.6525 277.065 60.7295 278.911 55.3183 275.793Z" fill="#276ED8"/>
</g>
<rect x="136" y="253.492" width="21" height="5" fill="#66D6A0"/>
<g filter="url(#filter2_d)">
<rect x="156" y="222" width="138" height="61.64" rx="6" fill="#06B25F"/>
</g>
<path d="M203.396 264.739L196.34 252.802L203.396 240.865L206.798 252.802L203.396 264.739ZM187.691 263.574L178.825 254.731H192.938L199.995 266.668L187.691 263.574ZM187.691 241.993L199.959 238.899L192.902 250.837H178.789L187.691 241.993ZM205.712 233.04L189.681 237.225L187.293 241.338L182.481 241.301L170.72 252.802L182.481 264.302L187.293 264.266L189.681 268.378L205.712 272.6L210.018 256.914L207.594 252.838L210.018 248.762L205.712 233.04ZM242.116 244.65C239.981 244.65 238.533 245.559 237.448 247.234H237.376V245.086H233.612V260.881H237.448V251.928C237.448 249.781 238.787 248.289 240.632 248.289C242.369 248.289 243.672 249.345 243.672 251.201V260.918H247.508V250.582C247.544 247.124 245.373 244.65 242.116 244.65V244.65ZM227.786 254.221C227.786 256.332 226.592 257.788 224.638 257.788C222.865 257.788 221.743 256.769 221.743 254.913V245.086H217.907V255.64C217.907 259.098 219.861 261.354 223.371 261.354C225.579 261.354 226.809 260.517 227.859 259.062H227.967V260.918H231.658V245.086H227.822V254.221H227.786ZM249.571 245.086H253.406V260.881H249.571V245.086ZM249.571 240.173H253.406V243.34H249.571V240.173ZM275.154 245.086L272.875 252.219C272.368 253.675 271.97 255.677 271.97 255.677H271.861C271.861 255.677 271.355 253.675 270.848 252.219L268.279 245.086H264.154L268.387 256.332C269.292 258.734 269.582 259.753 269.582 260.626C269.582 261.936 268.894 262.774 267.266 262.774H265.782V266.085H268.243C271.427 266.085 272.549 264.812 273.743 261.318L279.28 245.123H275.154V245.086ZM260.571 256.259V247.889H263.032V245.123H260.571V240.173H256.736V245.086H254.564V247.852H256.736V257.132C256.736 260.117 258.979 260.918 261.005 260.918C262.67 260.918 263.104 260.845 263.104 260.845V257.788H262.127C261.222 257.824 260.571 257.424 260.571 256.259Z" fill="white"/>
<g filter="url(#filter3_d)">
<rect x="232" y="87" width="65.6797" height="64.5473" rx="6" fill="#276ED8"/>
</g>
<path d="M279.253 113.875C278.181 109.021 273.698 105.5 268.508 105.5C266.447 105.5 264.429 106.054 262.675 107.115C261.927 107.567 261.24 108.103 260.628 108.711C260.045 108.58 259.445 108.513 258.84 108.513C256.773 108.513 254.793 109.279 253.289 110.696C252.432 111.503 251.777 112.478 251.367 113.555C250.332 114.045 249.395 114.736 248.621 115.599L279.253 113.875ZM279.253 113.875C281.669 115.26 283.316 117.743 283.486 120.615L280.99 120.762L283.486 120.615C283.782 125.644 279.59 129.5 274.721 129.5H255.186C250.508 129.5 246.5 125.844 246.5 121.1C246.5 119.066 247.263 117.114 248.621 115.599L279.253 113.875Z" stroke="white" stroke-width="5"/>
<path d="M108.772 90.976H80.988C79.8941 90.976 79 90.0914 79 88.988C79 87.8941 79.8846 87 80.988 87H108.772C109.866 87 110.76 87.8846 110.76 88.988C110.76 90.0819 109.866 90.976 108.772 90.976Z" fill="#66D6A0"/>
<path d="M108.772 100.897H80.988C79.8941 100.897 79 100.013 79 98.9091C79 97.8153 79.8846 96.9211 80.988 96.9211H108.772C109.866 96.9211 110.76 97.8058 110.76 98.9091C110.76 100.003 109.866 100.897 108.772 100.897Z" fill="#66D6A0"/>
</g>
<defs>
<filter id="filter0_d" x="96" y="296" width="84" height="84" filterUnits="userSpaceOnUse" color-interpolation-filters="sRGB">
<feFlood flood-opacity="0" result="BackgroundImageFix"/>
<feColorMatrix in="SourceAlpha" type="matrix" values="0 0 0 0 0 0 0 0 0 0 0 0 0 0 0 0 0 0 127 0"/>
<feOffset dy="4"/>
<feGaussianBlur stdDeviation="5"/>
<feColorMatrix type="matrix" values="0 0 0 0 0.0885677 0 0 0 0 0.0395834 0 0 0 0 0.395833 0 0 0 0.25 0"/>
<feBlend mode="normal" in2="BackgroundImageFix" result="effect1_dropShadow"/>
<feBlend mode="normal" in="SourceGraphic" in2="effect1_dropShadow" result="shape"/>
</filter>
<filter id="filter1_d" x="27" y="236" width="68" height="68" filterUnits="userSpaceOnUse" color-interpolation-filters="sRGB">
<feFlood flood-opacity="0" result="BackgroundImageFix"/>
<feColorMatrix in="SourceAlpha" type="matrix" values="0 0 0 0 0 0 0 0 0 0 0 0 0 0 0 0 0 0 127 0"/>
<feOffset dy="4"/>
<feGaussianBlur stdDeviation="5"/>
<feColorMatrix type="matrix" values="0 0 0 0 0.0885677 0 0 0 0 0.0395834 0 0 0 0 0.395833 0 0 0 0.25 0"/>
<feBlend mode="normal" in2="BackgroundImageFix" result="effect1_dropShadow"/>
<feBlend mode="normal" in="SourceGraphic" in2="effect1_dropShadow" result="shape"/>
</filter>
<filter id="filter2_d" x="152" y="218" width="152" height="75.64" filterUnits="userSpaceOnUse" color-interpolation-filters="sRGB">
<feFlood flood-opacity="0" result="BackgroundImageFix"/>
<feColorMatrix in="SourceAlpha" type="matrix" values="0 0 0 0 0 0 0 0 0 0 0 0 0 0 0 0 0 0 127 0"/>
<feMorphology radius="1" operator="dilate" in="SourceAlpha" result="effect1_dropShadow"/>
<feOffset dx="3" dy="3"/>
<feGaussianBlur stdDeviation="3"/>
<feColorMatrix type="matrix" values="0 0 0 0 0 0 0 0 0 0 0 0 0 0 0 0 0 0 0.2 0"/>
<feBlend mode="normal" in2="BackgroundImageFix" result="effect1_dropShadow"/>
<feBlend mode="normal" in="SourceGraphic" in2="effect1_dropShadow" result="shape"/>
</filter>
<filter id="filter3_d" x="226" y="81" width="87.6797" height="86.5473" filterUnits="userSpaceOnUse" color-interpolation-filters="sRGB">
<feFlood flood-opacity="0" result="BackgroundImageFix"/>
<feColorMatrix in="SourceAlpha" type="matrix" values="0 0 0 0 0 0 0 0 0 0 0 0 0 0 0 0 0 0 127 0"/>
<feMorphology radius="3" operator="dilate" in="SourceAlpha" result="effect1_dropShadow"/>
<feOffset dx="5" dy="5"/>
<feGaussianBlur stdDeviation="4"/>
<feColorMatrix type="matrix" values="0 0 0 0 0 0 0 0 0 0 0 0 0 0 0 0 0 0 0.2 0"/>
<feBlend mode="normal" in2="BackgroundImageFix" result="effect1_dropShadow"/>
<feBlend mode="normal" in="SourceGraphic" in2="effect1_dropShadow" result="shape"/>
</filter>
</defs>
</svg>
