<svg width="387" height="366" viewBox="0 0 387 366" fill="none" xmlns="http://www.w3.org/2000/svg">
<g id="Unity-technologies 1" clip-path="url(#clip0_1_2)">
<g id="Mask group">
<mask id="mask0_1_2" style="mask-type:alpha" maskUnits="userSpaceOnUse" x="0" y="0" width="387" height="366">
<g id="Group">
<path id="Vector" d="M387 0H0V366H387V0Z" fill="#C4C4C4"/>
</g>
</mask>
<g mask="url(#mask0_1_2)">
<g id="Group_2">
<path id="Vector_2" opacity="0.04" d="M159.878 291.024C223.954 308.909 329.177 284.488 365.283 242.969C401.388 201.45 365.567 154.823 340.486 137.653C332.681 132.342 323.883 128.531 317.608 121.139C303.909 104.95 299.625 78.5572 282.33 67.3522C267.372 57.647 249.217 67.5041 232.49 62.0237C225.189 59.6836 213.397 49.1389 200.996 47.2321C173.57 43.0146 106.114 72.7432 97.7885 101.026C89.4621 129.309 72.1353 266.534 159.878 291.024Z" fill="#276ED8"/>
<path id="gear1" class="gear1" opacity="0.2" d="M268.556 161.948L277.128 160.031V150.896L268.556 149.139C267.897 145.386 266.648 141.872 264.928 138.758L269.845 130.181L264.404 123.713L257.296 129.686C254.675 127.642 251.733 126.173 248.562 125.39L246.949 115.2H239.263L237.785 125.39C234.628 126.173 231.672 127.657 229.052 129.702L221.85 123.857L216.408 130.325L221.433 138.774C219.713 141.888 218.477 145.402 217.819 149.155L209.246 151.071V160.207L217.819 161.964C218.477 165.733 219.726 169.231 221.447 172.345L216.529 180.905L221.971 187.374L229.092 181.401C231.712 183.445 234.668 184.931 237.826 185.697L239.438 195.887H247.124L248.602 185.697C251.773 184.915 254.716 183.429 257.336 181.385L264.538 187.231L269.98 180.762L264.955 172.314C266.661 169.215 267.897 165.717 268.556 161.948ZM243.187 174.47C234.4 174.47 227.278 165.988 227.278 155.559C227.278 145.131 234.4 136.649 243.187 136.649C251.975 136.649 259.096 145.114 259.096 155.559C259.096 166.004 251.975 174.47 243.187 174.47Z" fill="#84B5FF"/>
<path id="Vector_3" d="M75.9724 122.121V207.357C75.9724 211.6 78.8696 215.043 82.4387 215.043H178.874C182.443 215.043 185.34 211.6 185.34 207.357V122.121C185.34 117.879 182.443 114.435 178.874 114.435H82.4317C78.8626 114.443 75.9724 117.879 75.9724 122.121ZM178.965 211.1H134.505L82.5787 210.859C81.256 210.859 79.9543 209.828 79.9543 208.256V121.223C79.9543 119.65 81.0251 118.378 82.3477 118.378H178.965C180.287 118.378 181.358 119.65 181.358 121.223V208.256C181.358 209.828 180.287 211.1 178.965 211.1Z" fill="#66D6A0"/>
<path id="circle" class="circle" d="M278.465 213.355C270.382 213.355 263.832 221.141 263.832 230.748C263.832 240.356 270.382 248.141 278.465 248.141C286.548 248.141 293.098 240.356 293.098 230.748C293.098 221.141 286.548 213.355 278.465 213.355ZM278.465 243.808C272.391 243.808 267.471 237.96 267.471 230.74C267.471 223.52 272.391 217.672 278.465 217.672C284.539 217.672 289.459 223.52 289.459 230.74C289.459 237.96 284.539 243.808 278.465 243.808Z" fill="#66D6A0"/>
<path id="Vector_4" d="M246.805 162.456V273.079C246.805 275.924 244.866 278.228 242.473 278.228H100.549C98.1559 278.228 96.2174 275.924 96.2174 273.079V162.456C96.2174 155.893 100.696 150.561 106.225 150.561H236.797C242.326 150.561 246.805 155.893 246.805 162.456Z" fill="white" stroke="#84B5FF" stroke-miterlimit="10"/>
<path id="Vector_5" d="M246.805 162.456V162.955H96.2174V162.456C96.2174 155.893 100.696 150.561 106.225 150.561H236.797C242.326 150.561 246.805 155.893 246.805 162.456Z" fill="#84B5FF"/>
<path id="Vector_6" opacity="0.1" d="M246.805 254.397V273.079C246.805 275.924 244.866 278.228 242.473 278.228H100.549C98.1559 278.228 96.2174 275.924 96.2174 273.079V254.397H246.805Z" fill="#84B5FF"/>
<path id="Vector_7" d="M223.935 157.332C223.935 158.189 223.354 158.879 222.633 158.879C221.913 158.879 221.332 158.189 221.332 157.332C221.332 156.475 221.913 155.785 222.633 155.785C223.347 155.785 223.935 156.475 223.935 157.332Z" fill="#84B5FF"/>
<path id="Vector_8" d="M231.059 157.332C231.059 158.189 230.478 158.879 229.757 158.879C229.036 158.879 228.455 158.189 228.455 157.332C228.455 156.475 229.036 155.785 229.757 155.785C230.471 155.785 231.059 156.475 231.059 157.332Z" fill="#84B5FF"/>
<path id="Vector_9" d="M237.869 157.332C237.869 158.189 237.288 158.879 236.567 158.879C235.846 158.879 235.265 158.189 235.265 157.332C235.265 156.475 235.846 155.785 236.567 155.785C237.288 155.785 237.869 156.475 237.869 157.332Z" fill="#84B5FF"/>
<path id="Vector_10" opacity="0.1" d="M247.035 162.826V273.104C247.035 275.94 245.098 278.237 242.707 278.237H100.903C98.5114 278.237 96.5743 275.94 96.5743 273.104V162.826C96.5743 156.284 101.05 150.968 106.573 150.968H237.036C242.56 150.968 247.035 156.284 247.035 162.826Z" stroke="#276ED8" stroke-miterlimit="10"/>
<g id="gear1_2" class="gear1" filter="url(#filter0_d_1_2)">
<path id="Vector_11" d="M113.313 282.053L118.969 280.789V274.761L113.313 273.602C112.879 271.125 112.054 268.807 110.919 266.752L114.164 261.094L110.574 256.826L105.884 260.767C104.155 259.418 102.213 258.448 100.121 257.932L99.0573 251.209H93.9864L93.0109 257.932C90.9275 258.448 88.9771 259.428 87.2486 260.777L82.4968 256.92L78.906 261.188L82.2218 266.762C81.0873 268.818 80.2714 271.136 79.8368 273.612L74.1808 274.877V280.904L79.8368 282.064C80.2714 284.55 81.0957 286.858 82.2309 288.913L78.9858 294.561L82.5766 298.829L87.2751 294.888C89.0037 296.236 90.9541 297.217 93.0375 297.723L94.1019 304.445H99.1728L100.148 297.723C102.24 297.206 104.181 296.226 105.911 294.877L110.662 298.734L114.252 294.466L110.937 288.892C112.063 286.848 112.879 284.54 113.313 282.053ZM96.575 290.315C90.777 290.315 86.0785 284.719 86.0785 277.838C86.0785 270.956 90.777 265.361 96.575 265.361C102.373 265.361 107.072 270.946 107.072 277.838C107.072 284.73 102.373 290.315 96.575 290.315Z" fill="#84B5FF"/>
</g>
<g id="gear1_3" class="gear1" filter="url(#filter1_d_1_2)">
<path id="Vector_12" d="M52.2674 231.513L56.366 233.221L58.2817 229.29L54.9516 225.995C55.4528 224.182 55.6533 222.289 55.5641 220.45L59.4846 218.213L58.4933 213.82L54.1831 214.295C53.4814 212.642 52.5124 211.133 51.3207 209.863L52.7575 204.992L49.4496 202.716L46.6763 206.673C45.1504 206.077 43.5577 205.839 42.0096 205.945L40.1273 201.3L36.4296 202.478L36.8306 207.613C35.4384 208.446 34.1686 209.597 33.0994 211.014L29.0007 209.306L27.085 213.237L30.4152 216.532C29.9141 218.359 29.7136 220.225 29.8026 222.077L25.8933 224.314L26.8845 228.708L31.206 228.232C31.9076 229.885 32.8655 231.394 34.0684 232.665L32.6316 237.535L35.9395 239.812L38.7128 235.855C40.2498 236.45 41.8202 236.688 43.3796 236.582L45.2618 241.227L48.9595 240.049L48.5586 234.915C49.9285 234.094 51.1981 232.956 52.2674 231.513ZM38.7128 229.41C34.926 226.815 33.634 221.058 35.817 216.559C38 212.06 42.8449 210.524 46.6317 213.118C50.4185 215.712 51.7105 221.469 49.5275 225.968C47.3445 230.468 42.4997 232.003 38.7128 229.41Z" fill="#276ED8"/>
</g>
<path id="Vector_13" d="M109.872 210.859H95.1754V215.018H109.872V210.859Z" fill="#66D6A0"/>
<g id="sqr_green" class="sqr_green" filter="url(#filter2_d_1_2)">
<path id="Vector_14" d="M201.548 184.664H113.371C111.052 184.664 109.172 186.898 109.172 189.655V230.946C109.172 233.702 111.052 235.937 113.371 235.937H201.548C203.867 235.937 205.747 233.702 205.747 230.946V189.655C205.747 186.898 203.867 184.664 201.548 184.664Z" fill="#06B25F"/>
</g>
<path id="Vector_15" d="M142.34 220.215L137.402 210.285L142.34 200.356L144.721 210.285L142.34 220.215ZM131.35 219.246L125.145 211.89H135.022L139.96 221.819L131.35 219.246ZM131.35 201.294L139.935 198.721L134.997 208.651H125.12L131.35 201.294ZM143.961 193.847L132.742 197.328L131.071 200.749L127.704 200.719L119.473 210.285L127.704 219.851L131.071 219.821L132.742 223.242L143.961 226.754L146.975 213.706L145.278 210.315L146.975 206.925L143.961 193.847ZM169.437 203.504C167.943 203.504 166.93 204.26 166.171 205.654H166.12V203.867H163.486V217.006H166.171V209.558C166.171 207.772 167.108 206.531 168.399 206.531C169.614 206.531 170.526 207.41 170.526 208.954V217.036H173.211V208.439C173.236 205.562 171.717 203.504 169.437 203.504ZM159.409 211.466C159.409 213.222 158.573 214.433 157.206 214.433C155.965 214.433 155.18 213.585 155.18 212.041V203.867H152.495V212.646C152.495 215.522 153.863 217.399 156.319 217.399C157.865 217.399 158.725 216.703 159.46 215.492H159.536V217.036H162.119V203.867H159.434V211.466H159.409ZM174.655 203.867H177.338V217.006H174.655V203.867ZM174.655 199.78H177.338V202.415H174.655V199.78ZM192.558 203.867L190.963 209.8C190.608 211.011 190.33 212.677 190.33 212.677H190.254C190.254 212.677 189.899 211.011 189.545 209.8L187.747 203.867H184.86L187.822 213.222C188.456 215.22 188.659 216.067 188.659 216.793C188.659 217.883 188.177 218.58 187.038 218.58H185.999V221.334H187.722C189.95 221.334 190.735 220.275 191.571 217.369L195.445 203.898H192.558V203.867ZM182.353 213.161V206.199H184.075V203.898H182.353V199.78H179.669V203.867H178.149V206.168H179.669V213.887C179.669 216.37 181.238 217.036 182.656 217.036C183.822 217.036 184.125 216.976 184.125 216.976V214.433H183.442C182.808 214.463 182.353 214.13 182.353 213.161Z" fill="white"/>
<g id="Group_3" filter="url(#filter3_d_1_2)">
<path id="Vector_16" d="M204.123 72.3682H166.557C164.238 72.3682 162.358 74.6027 162.358 77.3591V121.069C162.358 123.825 164.238 126.06 166.557 126.06H204.123C206.442 126.06 208.322 123.825 208.322 121.069V77.3591C208.322 74.6027 206.442 72.3682 204.123 72.3682Z" fill="#276ED8"/>
</g>
<path id="Vector_17" d="M195.427 94.7233C194.676 90.6857 191.539 87.7568 187.907 87.7568C186.465 87.7568 185.052 88.2176 183.825 89.1002C183.302 89.4762 182.821 89.922 182.392 90.4278C181.984 90.3188 181.565 90.2631 181.141 90.2631C179.695 90.2631 178.309 90.9003 177.257 92.0789C176.657 92.7502 176.198 93.5612 175.911 94.4571C175.187 94.8647 174.531 95.4395 173.99 96.1574M195.427 94.7233L173.99 96.1574M195.427 94.7233C197.117 95.8754 198.27 97.9408 198.389 100.33M173.99 96.1574C173.039 97.4176 172.505 99.0413 172.505 100.733C172.505 104.679 175.31 107.72 178.584 107.72H192.255C195.662 107.72 198.596 104.513 198.389 100.33M198.389 100.33L196.642 100.452" stroke="white" stroke-width="5"/>
<path id="Vector_18" d="M76.1207 75.6755H56.677C55.9114 75.6755 55.2857 74.9397 55.2857 74.0218C55.2857 73.1119 55.9048 72.3682 56.677 72.3682H76.1207C76.8863 72.3682 77.512 73.104 77.512 74.0218C77.512 74.9318 76.8863 75.6755 76.1207 75.6755Z" fill="#66D6A0"/>
<path id="Vector_19" d="M76.1207 83.928H56.677C55.9114 83.928 55.2857 83.1926 55.2857 82.2744C55.2857 81.3645 55.9048 80.6207 56.677 80.6207H76.1207C76.8863 80.6207 77.512 81.3566 77.512 82.2744C77.512 83.1843 76.8863 83.928 76.1207 83.928Z" fill="#66D6A0"/>
</g>
</g>
</g>
</g>
<defs>
<filter id="filter0_d_1_2" x="64.1808" y="245.209" width="64.7884" height="73.2364" filterUnits="userSpaceOnUse" color-interpolation-filters="sRGB">
<feFlood flood-opacity="0" result="BackgroundImageFix"/>
<feColorMatrix in="SourceAlpha" type="matrix" values="0 0 0 0 0 0 0 0 0 0 0 0 0 0 0 0 0 0 127 0" result="hardAlpha"/>
<feOffset dy="4"/>
<feGaussianBlur stdDeviation="5"/>
<feColorMatrix type="matrix" values="0 0 0 0 0.0885677 0 0 0 0 0.0395834 0 0 0 0 0.395833 0 0 0 0.25 0"/>
<feBlend mode="normal" in2="BackgroundImageFix" result="effect1_dropShadow_1_2"/>
<feBlend mode="normal" in="SourceGraphic" in2="effect1_dropShadow_1_2" result="shape"/>
</filter>
<filter id="filter1_d_1_2" x="15.8933" y="195.3" width="53.5913" height="59.9273" filterUnits="userSpaceOnUse" color-interpolation-filters="sRGB">
<feFlood flood-opacity="0" result="BackgroundImageFix"/>
<feColorMatrix in="SourceAlpha" type="matrix" values="0 0 0 0 0 0 0 0 0 0 0 0 0 0 0 0 0 0 127 0" result="hardAlpha"/>
<feOffset dy="4"/>
<feGaussianBlur stdDeviation="5"/>
<feColorMatrix type="matrix" values="0 0 0 0 0.0885677 0 0 0 0 0.0395834 0 0 0 0 0.395833 0 0 0 0.25 0"/>
<feBlend mode="normal" in2="BackgroundImageFix" result="effect1_dropShadow_1_2"/>
<feBlend mode="normal" in="SourceGraphic" in2="effect1_dropShadow_1_2" result="shape"/>
</filter>
<filter id="filter2_d_1_2" x="106.172" y="181.664" width="108.575" height="63.2733" filterUnits="userSpaceOnUse" color-interpolation-filters="sRGB">
<feFlood flood-opacity="0" result="BackgroundImageFix"/>
<feColorMatrix in="SourceAlpha" type="matrix" values="0 0 0 0 0 0 0 0 0 0 0 0 0 0 0 0 0 0 127 0" result="hardAlpha"/>
<feOffset dx="3" dy="3"/>
<feGaussianBlur stdDeviation="3"/>
<feColorMatrix type="matrix" values="0 0 0 0 0 0 0 0 0 0 0 0 0 0 0 0 0 0 0.2 0"/>
<feBlend mode="normal" in2="BackgroundImageFix" result="effect1_dropShadow_1_2"/>
<feBlend mode="normal" in="SourceGraphic" in2="effect1_dropShadow_1_2" result="shape"/>
</filter>
<filter id="filter3_d_1_2" x="159.358" y="69.3682" width="61.9639" height="69.6916" filterUnits="userSpaceOnUse" color-interpolation-filters="sRGB">
<feFlood flood-opacity="0" result="BackgroundImageFix"/>
<feColorMatrix in="SourceAlpha" type="matrix" values="0 0 0 0 0 0 0 0 0 0 0 0 0 0 0 0 0 0 127 0" result="hardAlpha"/>
<feOffset dx="5" dy="5"/>
<feGaussianBlur stdDeviation="4"/>
<feColorMatrix type="matrix" values="0 0 0 0 0 0 0 0 0 0 0 0 0 0 0 0 0 0 0.2 0"/>
<feBlend mode="normal" in2="BackgroundImageFix" result="effect1_dropShadow_1_2"/>
<feBlend mode="normal" in="SourceGraphic" in2="effect1_dropShadow_1_2" result="shape"/>
</filter>
<clipPath id="clip0_1_2">
<rect width="387" height="366" fill="white"/>
</clipPath>
</defs>
</svg>
