<svg width="342" height="337" viewBox="0 0 342 337" fill="none" xmlns="http://www.w3.org/2000/svg">
<path class="sqr_green" d="M108.843 28.742H63.9957C53.0226 28.742 44.129 39.1677 44.129 52.0315V53.4728C44.129 66.3365 53.0226 76.762 63.9957 76.762H65.0762V91.2559L80.3007 76.762H108.843C119.816 76.762 128.71 66.3365 128.71 53.4728V52.0315C128.698 39.1677 119.805 28.742 108.843 28.742Z" fill="#E6F0FF"/>
<path opacity="0.06" d="M173.482 57.5238C126.119 96.0457 83.3377 157.546 84.8871 209.096C86.4365 260.645 153.839 291.011 202.871 279.155C210.353 276.274 217.21 277.868 224.935 277.358C241.829 276.275 242.71 260.113 256.226 245.354C270.309 239.56 243.418 254.94 256.226 245.354C261.788 241.14 274.474 238.246 282.79 229.891C301.181 211.415 324.469 142.777 313.873 120.068C303.277 97.3599 238.338 4.77456 173.482 57.5238Z" fill="#276ED8"/>
<path d="M220.645 72.7726V174.883C220.645 177.508 218.822 179.635 216.572 179.635H83.1373C80.8873 179.635 79.0645 177.508 79.0645 174.883V72.7726C79.0645 66.7148 83.2758 61.7932 88.4732 61.7932H211.236C216.434 61.7932 220.645 66.7148 220.645 72.7726Z" fill="white" stroke="#84B5FF" stroke-miterlimit="10"/>
<path d="M220.645 72.1374V72.5714H79.0645V72.1374C79.0645 66.43 83.2758 61.7932 88.4732 61.7932H211.236C216.434 61.7932 220.645 66.43 220.645 72.1374Z" fill="#84B5FF"/>
<path d="M220.645 158.079V174.978C220.645 177.552 218.822 179.635 216.572 179.635H83.1373C80.8873 179.635 79.0645 177.552 79.0645 174.978V158.079H220.645Z" fill="#EDF1FF"/>
<path d="M220.645 72.7726V174.883C220.645 177.508 218.822 179.635 216.572 179.635H83.1373C80.8873 179.635 79.0645 177.508 79.0645 174.883V72.7726C79.0645 66.7148 83.2758 61.7932 88.4732 61.7932H211.236C216.434 61.7932 220.645 66.7148 220.645 72.7726Z" stroke="#84B5FF" stroke-miterlimit="10"/>
<path class="circle" d="M278.607 208.191C278.135 216.166 272.478 222.461 265.559 222.461C258.326 222.461 252.467 215.592 252.467 207.113C252.467 199 257.842 192.375 264.639 191.815V179.635C252.112 180.203 242.097 192.282 242.097 207.113C242.097 222.303 252.602 234.619 265.559 234.619C278.209 234.619 288.512 222.885 288.996 208.191H278.607Z" fill="#06B25F"/>
<path class="circle" d="M266.477 179.635V191.815C272.974 192.347 278.153 198.418 278.607 206.035H288.996C288.524 191.7 278.699 180.189 266.477 179.635Z" fill="#66D6A0"/>
<g filter="url(#filter0_d_1_2)">
<path d="M91.341 193.403H46.1516C43.6816 193.403 41.6774 191.053 41.6774 188.157V145.361C41.6774 142.465 43.6816 140.115 46.1516 140.115H91.341C93.811 140.115 95.8152 142.465 95.8152 145.361V188.157C95.8152 191.053 93.811 193.403 91.341 193.403Z" fill="#EDF1FF"/>
</g>
<path d="M50.6513 183.242H47.6022C46.9765 183.242 46.4645 182.596 46.4645 181.805V167.384C46.4645 166.594 46.9765 165.947 47.6022 165.947H50.6513C51.277 165.947 51.789 166.594 51.789 167.384V181.805C51.789 182.596 51.2827 183.242 50.6513 183.242Z" fill="#276ED8"/>
<path d="M60.0483 183.242H56.9993C56.3735 183.242 55.8616 182.596 55.8616 181.805V158.912C55.8616 158.122 56.3735 157.475 56.9993 157.475H60.0483C60.674 157.475 61.1861 158.122 61.1861 158.912V181.805C61.1861 182.596 60.674 183.242 60.0483 183.242Z" fill="#276ED8"/>
<path d="M69.4407 183.242H66.3915C65.7657 183.242 65.254 182.596 65.254 181.805V172.824C65.254 172.033 65.7657 171.386 66.3915 171.386H69.4407C70.0665 171.386 70.5783 172.033 70.5783 172.824V181.805C70.5783 182.596 70.072 183.242 69.4407 183.242Z" fill="#276ED8"/>
<path d="M78.839 183.242H75.7898C75.164 183.242 74.6522 182.596 74.6522 181.805V150.8C74.6522 150.01 75.164 149.363 75.7898 149.363H78.839C79.4647 149.363 79.9765 150.01 79.9765 150.8V181.805C79.9765 182.596 79.4647 183.242 78.839 183.242Z" fill="#276ED8"/>
<path d="M88.2299 183.242H85.1807C84.5549 183.242 84.0431 182.596 84.0431 181.805V163.403C84.0431 162.613 84.5549 161.966 85.1807 161.966H88.2299C88.8556 161.966 89.3674 162.613 89.3674 163.403V181.805C89.3674 182.596 88.8611 183.242 88.2299 183.242Z" fill="#276ED8"/>
<path class="sqr_green" d="M34.5187 87.6609H10.5971C4.74387 87.6609 0 93.2225 0 100.085V100.854C0 107.716 4.74387 113.277 10.5971 113.277H11.1732V121.009L19.2942 113.277H34.5187C40.3719 113.277 45.1158 107.716 45.1158 100.854V100.085C45.1158 93.2225 40.3719 87.6609 34.5187 87.6609Z" fill="#66D6A0"/>
<path d="M310.705 127.183H290.296C285 127.183 280.71 132.213 280.71 138.421C280.71 144.63 285 149.66 290.296 149.66H310.705C316.001 149.66 320.291 144.63 320.291 138.421C320.285 132.213 315.995 127.183 310.705 127.183Z" fill="#84B5FF"/>
<path d="M293.85 132.759L295.253 136.086L298.385 136.625L296.117 139.212L296.651 142.869L293.85 141.145L291.049 142.869L291.582 139.212L289.314 136.625L292.446 136.086L293.85 132.759Z" fill="white"/>
<path d="M307.144 132.759L308.548 136.086L311.68 136.625L309.412 139.212L309.945 142.869L307.144 141.145L304.343 142.869L304.876 139.212L302.609 136.625L305.741 136.086L307.144 132.759Z" fill="white"/>
<mask id="mask0_1_2" style="mask-type:alpha" maskUnits="userSpaceOnUse" x="64" y="8" width="232" height="274">
<path d="M295.419 145.145C295.419 220.545 243.694 281.67 179.887 281.67C116.08 281.67 64.3548 220.545 64.3548 145.145C64.3548 69.7446 116.08 8.62051 179.887 8.62051C243.694 8.62051 295.419 69.7446 295.419 145.145Z" fill="#C4C4C4"/>
</mask>
<g mask="url(#mask0_1_2)">
<path d="M125.109 144.739C125.109 144.739 126.777 144.149 127.446 145.717C128.114 147.285 130.206 166.104 129.623 171.398C129.034 176.691 127.366 174.735 127.366 174.735C127.366 174.735 127.532 177.87 128.617 178.755L128.624 178.747C128.637 178.739 128.664 178.716 128.697 178.685C128.723 178.67 128.756 178.639 128.796 178.607H128.803C129.445 178.111 131.669 176.388 133.721 174.735C136.144 172.771 137.567 171.103 137.567 171.103C137.567 171.103 137.23 167.968 137.23 167.09C137.23 166.206 142.585 145.321 147.848 138.856C152.76 132.826 147.934 98.8567 147.259 94.2702L147.179 93.7578C147.179 93.7578 142.916 95.2323 141.076 96.8081C139.242 98.3911 132.629 117.483 132.298 127.285C131.961 137.086 128.955 142.652 128.955 142.652C128.955 142.652 127.948 141.937 126.274 142.652L125.109 144.739Z" fill="url(#paint0_linear_1_2)"/>
<path opacity="0.83" d="M128.803 178.607C129.445 178.111 131.669 176.388 133.721 174.735C136.144 172.771 137.567 171.103 137.567 171.103C137.567 171.103 137.23 167.968 137.23 167.09C137.23 166.206 142.585 145.321 147.848 138.856C152.76 132.826 147.934 98.8567 147.259 94.2702L147.18 93.7578C147.18 93.7578 143.71 98.8567 142.208 109C140.699 119.151 142.83 139.151 142.83 139.151C142.83 139.151 139.825 155.325 132.424 155.62C132.424 155.62 138.633 166.275 136.184 171.623C135.714 172.64 129.935 177.669 128.803 178.607Z" fill="#436CF6"/>
<path d="M142.955 272.226C143.095 274.012 143.359 275.455 143.677 276.712V276.72C144.213 278.886 144.888 280.508 145.259 282.37C145.842 285.312 146.51 296.759 146.51 296.759H164.072C163.404 292.521 162.57 289.239 161.564 278.645C160.604 268.517 165.767 233.609 166.211 230.621C166.23 230.489 166.244 230.419 166.244 230.419C170.759 252.568 181.84 278.257 182.972 279.724C184.098 281.198 186.355 282.517 186.355 282.517C187.613 285.312 190.247 296.759 190.247 296.759H210.438C209.313 290.705 204.168 281.641 202.534 278.257C200.905 274.873 194.762 251.784 193.127 236.496C192.445 230.124 191.922 223.395 191.538 217.706V217.691C191.002 209.744 190.743 203.845 190.743 203.845C185.607 197.676 145.418 191.591 145.418 191.591L144.147 196.426C144.147 196.426 142.71 196.791 142.518 197.971C142.333 199.143 143.677 200.221 143.677 200.221C139.169 230.217 142.585 267.376 142.955 272.226Z" fill="url(#paint1_linear_1_2)"/>
<path opacity="0.62" d="M190.856 206.189C190.856 206.189 178.702 204.436 171.05 208.696C163.397 212.957 164.085 220.315 164.085 220.315L166.243 230.412L158.809 221.293L143.67 200.214C143.67 200.214 146.503 202.224 150.184 203.109C150.184 203.109 145.02 199.36 144.146 196.419L145.417 191.583L190.856 202.961V206.189Z" fill="#301E72"/>
<path d="M130.855 166.058C130.855 166.058 131.358 172.678 127.969 175.767C127.969 175.767 121.004 171.506 117.582 164.545C114.146 157.576 130.855 166.058 130.855 166.058Z" fill="url(#paint2_linear_1_2)"/>
<path d="M104.03 145.213C104.03 145.213 102.091 147.059 102.078 148.643C102.064 150.226 105.281 149.489 105.281 149.489L104.03 145.213Z" fill="url(#paint3_linear_1_2)"/>
<path d="M199.528 137.972L200.905 129.147C200.905 129.147 204.42 129.147 209.557 134.735C209.557 134.735 209.683 137.762 211.444 141.541C211.444 141.541 217.362 144.886 220.109 149.442C222.856 153.998 223.896 154.455 226.762 151.871C227.524 151.188 228.04 148.868 228.311 145.709C228.715 140.936 228.563 134.246 227.861 128.356C227.279 123.497 226.319 119.19 224.988 116.947C224.988 116.947 225.114 113.951 223.856 111.6C223.797 111.647 223.731 111.693 223.671 111.747C223.26 112.05 222.201 112.718 221.102 112.485C219.679 112.19 218.488 109.636 218.488 109.636C218.488 109.636 217.673 109.738 217.256 110.428C217.256 110.428 211.57 106.385 207.968 99.5781C204.374 92.7799 203.792 91.9414 203.792 91.9414C203.792 91.9414 202.872 91.4995 201.627 91.2278C200.647 91.0101 199.462 90.9095 198.356 91.212C198.356 91.212 180.881 122.876 199.528 137.972Z" fill="url(#paint4_linear_1_2)"/>
<path d="M162.313 93.7578C162.313 93.7578 164.49 89.9474 164.49 81.069L181.451 71.3677C181.451 71.3677 180.596 78.2127 183.469 84.1501C184.231 85.7173 187.772 88.2013 187.772 88.2013C187.772 88.2013 172.275 110.606 164.835 108.457C157.394 106.307 158.883 96.8081 158.883 96.8081C158.883 96.8081 160.141 97.3822 162.313 93.7578Z" fill="#FF9B8B"/>
<path d="M185.686 86.5788C185.686 86.5788 177.286 96.3964 170.057 96.9475C162.312 97.5374 163.59 89.9862 163.59 89.9862C163.59 89.9862 160.088 95.7446 161.087 100.277C162.094 104.809 169.739 105.034 175.638 102.015C181.536 99.004 187.176 87.2931 187.176 87.2931L185.686 86.5788Z" fill="url(#paint5_linear_1_2)"/>
<path d="M186.445 86.226C186.445 86.226 178.004 96.0917 170.74 96.6457C162.956 97.2385 164.24 89.6499 164.24 89.6499C164.24 89.6499 160.721 95.4364 161.726 99.9913C162.737 104.545 170.42 104.772 176.347 101.738C182.274 98.7123 187.942 86.9438 187.942 86.9438L186.445 86.226Z" fill="#CEC5FF"/>
<path d="M150.445 145.95C150.445 145.95 152.96 161.369 149.687 178.066C149.687 178.066 147.671 179.689 147.419 181.755C147.419 181.755 147.419 181.771 147.412 181.795C147.172 183.853 146.889 185.396 146.889 185.396C146.889 185.396 146.66 186.786 145.902 188.259C145.762 188.54 145.682 188.868 145.656 189.227C145.536 190.756 146.281 192.689 146.281 192.689C146.281 192.689 147.798 197.275 163.55 198.898C179.303 200.527 191.53 204.068 191.53 204.068C191.53 204.068 194.053 200.754 192.317 197.945C192.317 197.945 193.426 194.764 193.299 193.727C193.173 192.689 187.372 180.874 188.882 172.599C190.399 164.325 196.067 157.61 199.22 141.458C199.22 141.458 199.094 139.147 199.22 137.962C199.346 136.784 199.22 137.184 199.22 137.184C199.22 137.184 192.96 132.357 194.896 111.962C196.825 91.5677 197.662 93.0522 198.581 91.2559C198.581 91.2559 202.785 92.4185 198.321 90.8973C198.321 90.8973 195.754 90.4604 193.107 89.3769C190.459 88.2926 187.879 86.8382 187.879 86.8382C187.879 86.8382 172.724 102.073 165.719 101.099C157.723 99.9913 163.364 89.7354 163.364 89.7354C163.364 89.7354 158.342 90.8815 155.654 91.6151C152.96 92.356 151.955 91.6151 151.955 91.6151C151.955 91.6151 148.383 92.0139 146.281 93.8778C144.179 95.7339 143.554 102.799 144.391 119.348C145.23 135.897 150.445 145.95 150.445 145.95Z" fill="url(#paint6_linear_1_2)"/>
<path d="M174.487 120.601L169.261 109.993L167.379 113.94L170.515 120.601L167.798 126.277L169.888 130.224L174.487 120.601Z" fill="#135BC6"/>
<path d="M166.961 114.927L168.843 118.875L168.216 119.861H164.453L166.961 114.927Z" fill="#135BC6"/>
<path d="M168.007 124.549L169.888 120.601H160.272L155.046 131.211H158.809L162.153 124.549H168.007Z" fill="#135BC6"/>
<path d="M162.78 125.289H166.334L169.47 131.211H175.741L177.622 134.912L167.379 135.159L162.78 125.289Z" fill="#135BC6"/>
<path d="M161.526 127.263H162.989L164.871 131.211H159.645L161.526 127.263Z" fill="#135BC6"/>
<path d="M170.933 129.237L172.814 125.536L175.532 130.224H171.56L170.933 129.237Z" fill="#135BC6"/>
<path d="M93.1607 115.915C98.344 132.189 112.563 166.796 112.563 166.796C131.291 171.01 148.853 167.478 148.853 167.478L149.86 165.577C143.339 142.45 129.285 112.291 129.285 112.291C112.061 111.212 93.8293 114.441 93.8293 114.441L93.1607 115.915Z" fill="#06B25F"/>
<path opacity="0.62" d="M109.757 140.4C109.757 140.4 110.551 151.328 108.38 156.466L99.8272 134.588L103.899 135.713L103.362 137.925C103.362 137.917 106.745 137.731 109.757 140.4Z" fill="url(#paint7_linear_1_2)"/>
<path d="M100.436 134.588C100.436 134.588 99.0727 135.853 98.8079 136.893C98.5168 138.018 98.1393 140.859 100.94 141.743L102.191 142.139C102.191 142.139 101.271 142.628 101.105 143.365C100.94 144.102 101.985 145.717 103.654 146.113C105.329 146.509 108.128 145.717 108.963 144.84C109.797 143.955 109.254 142.729 108.003 142.387C108.003 142.387 109.843 141.906 109.757 140.408C109.671 138.911 105.448 137.296 100.979 137.786L100.436 134.588Z" fill="url(#paint8_linear_1_2)"/>
<path d="M97.0477 127.129C97.0477 127.129 94.7904 129.582 94.7904 131.273C94.7904 132.966 98.1135 135.1 103.82 135.93C103.82 135.93 104.356 134.634 103.82 133.237C103.284 131.84 100.43 129.876 98.0804 129.442L97.0477 127.129Z" fill="url(#paint9_linear_1_2)"/>
<path d="M103.627 147.083C103.627 147.083 107.507 146.64 107.169 150.793C107.169 150.793 104.998 151.149 103.409 150.614C101.82 150.079 102.032 148.651 102.158 148.161C102.277 147.673 102.423 147.285 103.627 147.083Z" fill="url(#paint10_linear_1_2)"/>
<path d="M183.647 76.3991C183.647 76.3991 176.367 91.2005 163.697 89.8849C163.697 89.8849 164.829 84.6897 164.703 80.9899C164.703 80.9899 170.608 80.8268 174.977 78.9306C179.907 76.7936 183.64 71.3126 183.64 71.3126L183.647 76.3991Z" fill="url(#paint11_linear_1_2)"/>
<path d="M224.988 116.94C224.988 116.94 222.757 120.036 221.268 132.182C219.778 144.327 223.87 151.576 223.87 151.576C223.87 151.576 219.725 150.661 218.488 136.443C217.25 122.225 222.353 115.907 222.353 115.907L224.988 116.94Z" fill="url(#paint12_linear_1_2)"/>
<path opacity="0.5" d="M200.905 129.147C200.905 129.147 195.828 126.687 193.875 122.233C193.875 122.233 194.173 133.269 199.317 137.288C199.317 137.288 200.594 132.818 200.905 129.147Z" fill="#3739BE"/>
<path opacity="0.62" d="M166.244 230.412L163.57 218.941C163.57 218.941 158.923 211.048 151.376 207.447L158.81 220.803L166.244 230.412Z" fill="#281C6F"/>
<path opacity="0.62" d="M182.972 279.724C184.098 281.198 186.355 282.517 186.355 282.517C187.613 285.312 190.247 296.759 190.247 296.759H210.438C209.313 290.705 204.168 281.641 202.534 278.257C200.905 274.873 194.762 251.785 193.127 236.496C192.445 230.124 191.922 223.395 191.538 217.706C191.518 218.141 190.849 222.588 192.803 244.179C194.808 266.336 196.179 275.905 196.013 277.861C195.848 279.825 187.653 284.528 182.972 279.724Z" fill="#281C6F"/>
<path opacity="0.62" d="M143.677 276.721C144.213 278.886 144.888 280.508 145.259 282.37C145.842 285.312 146.51 296.759 146.51 296.759H164.072C163.404 292.522 162.569 289.239 161.563 278.645C160.603 268.517 165.767 233.609 166.211 230.621C165.628 233.834 159.14 270.038 157.677 273.112C154.493 279.77 145.868 282.029 143.677 276.721Z" fill="#281C6F"/>
<path opacity="0.62" d="M195.795 278.412C195.795 278.412 194.405 285.545 187.686 286.607L186.355 282.517C186.355 282.517 183.807 280.702 183.389 280.213C183.389 280.213 185.263 281.881 189.592 281.098C193.921 280.314 195.795 278.412 195.795 278.412Z" fill="url(#paint13_linear_1_2)"/>
<path opacity="0.62" d="M154.361 277.768C154.361 277.768 151.315 281.78 145.252 282.37C145.252 282.37 144.12 278.901 143.669 276.72C143.669 276.72 146.205 279.545 149.012 279.545C151.984 279.545 154.361 277.768 154.361 277.768Z" fill="url(#paint14_linear_1_2)"/>
<path d="M93.1607 115.915C118.502 112.089 128.802 113.859 128.802 113.859C137.865 132.058 148.853 167.478 148.853 167.478L149.86 165.577C143.339 142.45 129.285 112.291 129.285 112.291C112.061 111.212 93.8293 114.441 93.8293 114.441L93.1607 115.915Z" fill="#008444"/>
<path d="M102.191 142.131C102.191 142.131 105.494 142.574 108.003 142.38C108.003 142.38 104.554 143.117 101.76 142.427L102.191 142.131Z" fill="url(#paint15_linear_1_2)"/>
<path opacity="0.83" d="M187.825 93.4941C187.812 93.5559 187.792 93.6105 187.772 93.6723C187.798 93.5868 187.818 93.525 187.825 93.4941Z" fill="url(#paint16_linear_1_2)"/>
<path opacity="0.5" d="M138.579 137.32L111.286 163.66L112.563 166.796C112.563 166.796 129.788 170.955 148.853 167.478L149.86 165.577C149.86 165.577 143.703 146.276 139.572 136.256L138.579 137.32Z" fill="#66D6A0"/>
<path opacity="0.62" d="M190.857 225.708C190.857 225.708 192.572 241.564 189.592 258.646L190.857 225.708Z" fill="#281C6F"/>
<path opacity="0.62" d="M162.775 229.434C162.775 229.434 158.128 251.001 154.368 260.167C154.368 260.167 161.775 248.253 164.463 240.213L166.211 230.621L164.086 220.323L162.775 229.434Z" fill="#281C6F"/>
<path d="M162.709 90.0638L163.583 89.9783C163.583 89.9783 161.776 93.3698 161.399 96.1636C161.021 98.958 162.604 100.758 165.053 101.372C165.053 101.372 161.108 101.1 160.605 97.9175C160.101 94.7358 162.709 90.0638 162.709 90.0638Z" fill="url(#paint17_linear_1_2)"/>
<path d="M156.133 66.1882C158.684 76.2978 163.605 79.2891 166.544 82.0052C170.717 84.7508 174.356 83.8476 174.356 83.8476C188.39 76.7253 189.762 69.5536 190.686 61.5475C191.149 57.5977 191.567 50.2471 190.153 41.1606C189.964 39.9208 189.647 38.8049 189.242 37.7775C186.673 31.2063 180.608 28.6557 180.608 28.6557C176.983 27.0969 172.853 26.7604 169.085 27.6106C163.656 28.8328 159.382 32.2867 158.009 39.1059C157.562 41.3023 157.317 43.5695 157.1 45.819C156.624 50.4418 156.378 55.118 156.248 59.7763C156.19 61.9018 156.147 64.045 156.133 66.1882Z" fill="#FFADA0"/>
<path d="M169.489 41.4811C169.489 41.4811 161.952 39.6969 159.59 46.2048C159.59 46.2048 168.011 43.2313 169.62 44.7095L169.489 41.4811Z" fill="#38368E"/>
<path d="M177.503 42.442C177.503 42.442 184.925 40.1141 187.635 46.4351C187.635 46.4351 179.069 44.0903 177.547 45.6705L177.503 42.442Z" fill="#38368E"/>
<path d="M185.851 52.8926C185.695 55.6087 183.487 57.6685 180.922 57.468C178.356 57.2675 176.397 54.8977 176.553 52.1634C176.708 49.4474 178.916 47.4058 181.481 47.6063C184.047 47.8068 186.006 50.1766 185.851 52.8926Z" fill="white"/>
<path d="M178.091 52.1066C177.952 54.5128 179.149 56.5726 180.75 56.7002C182.352 56.8278 183.767 54.9685 183.907 52.5623C184.046 50.1561 182.865 48.0963 181.248 47.9687C179.646 47.8411 178.231 49.7004 178.091 52.1066Z" fill="#7F9EC9"/>
<path d="M178.932 52.1789C178.838 53.8925 179.678 55.3508 180.813 55.4419C181.948 55.533 182.959 54.2206 183.052 52.5071C183.145 50.7936 182.306 49.3353 181.171 49.2442C180.036 49.1348 179.025 50.4655 178.932 52.1789Z" fill="#38368E"/>
<path d="M178.962 49.2272C178.931 49.6829 179.382 50.1022 179.973 50.1569C180.564 50.2116 181.061 49.8652 181.092 49.3913C181.123 48.9173 180.657 48.5163 180.066 48.4616C179.491 48.4252 178.993 48.7715 178.962 49.2272Z" fill="white" fill-opacity="0.8"/>
<path d="M169.246 52.4672C169.095 55.1451 166.947 57.1668 164.451 56.9717C161.955 56.7767 160.049 54.4357 160.2 51.7578C160.351 49.0622 162.5 47.0581 164.995 47.2532C167.492 47.4483 169.397 49.7893 169.246 52.4672Z" fill="white"/>
<path d="M162.333 51.7557C162.197 54.0967 163.361 56.1006 164.92 56.2248C166.478 56.349 167.855 54.54 167.991 52.1991C168.127 49.8581 166.962 47.8541 165.404 47.73C163.846 47.6058 162.469 49.4148 162.333 51.7557Z" fill="#7F9EC9"/>
<path d="M163.15 51.8285C163.059 53.4955 163.876 54.9143 164.981 55.003C166.085 55.0917 167.068 53.797 167.159 52.13C167.25 50.463 166.433 49.0442 165.328 48.9555C164.224 48.8669 163.256 50.1615 163.15 51.8285Z" fill="#38368E"/>
<path d="M163.18 48.9539C163.15 49.3973 163.603 49.8051 164.164 49.8584C164.738 49.9116 165.222 49.5746 165.253 49.1135C165.283 48.6524 164.844 48.2623 164.269 48.209C163.694 48.1736 163.211 48.4928 163.18 48.9539Z" fill="white" fill-opacity="0.8"/>
<path d="M156.634 50.3798C156.634 50.3798 153.866 40.1334 151.584 48.197C149.765 54.6191 152.797 60.9149 155.245 60.4639C157.692 60.031 156.634 50.3798 156.634 50.3798Z" fill="#FFADA0"/>
<path d="M156.57 52.2103C156.57 52.2103 154.388 45.2899 153.25 47.7806C152.111 50.2711 152.123 53.6743 152.123 53.6743C152.123 53.6743 152.933 50.062 154.517 52.4385C154.517 52.4385 152.393 58.0851 155.937 56.9064C155.948 56.9064 157.486 55.3283 156.57 52.2103Z" fill="#E398AF"/>
<path d="M189.922 50.3928C189.922 50.3928 193.036 39.2913 195.603 48.0279C197.65 54.9859 194.239 61.7875 191.485 61.3185C188.732 60.8494 189.922 50.3928 189.922 50.3928Z" fill="#FFADA0"/>
<path d="M189.973 51.9988C189.973 51.9988 192.327 44.7774 193.554 47.3764C194.782 49.9752 194.769 53.5264 194.769 53.5264C194.769 53.5264 193.896 49.757 192.187 52.2368C192.187 52.2368 194.478 58.129 190.656 56.8989C190.656 56.8989 188.998 55.2523 189.973 51.9988Z" fill="#E398AF"/>
<path d="M179.304 67.8414C179.25 68.0305 178.188 71.041 176.467 73.295C174.397 76.0061 171.372 77.6135 168.024 71.8134C167.312 70.584 166.599 69.0393 165.86 67.1006C165.86 67.1006 167.016 67.6207 168.71 68.1882C171.372 69.0708 175.325 70.0638 178.067 68.6295C178.525 68.6137 178.928 68.1882 179.304 67.8414Z" fill="#712311"/>
<path d="M176.467 73.328C174.397 76.0384 171.371 77.6307 168.024 71.8304C169.812 71.2629 174.047 70.3802 176.467 73.328Z" fill="#D5503B"/>
<path d="M178.067 68.7095C173.698 74.431 170.525 71.4206 168.71 68.2367C171.372 69.1193 175.325 70.0177 178.067 68.7095Z" fill="white"/>
<path d="M169.636 60.8263C169.636 60.8263 173.905 67.9395 177.86 60.2271L169.636 60.8263Z" fill="#D8826C"/>
<path d="M190.094 55.7861C189.631 54.1761 189.353 50.7891 189.353 50.7891C189.353 50.7891 189.269 44.948 189.26 44.1823C189.244 42.3268 188.452 33.9179 185.014 33.6921C184.214 33.6429 182.098 36.5783 179.293 37.9232C178.787 38.1687 174.506 34.9585 172.282 34.0455C165.66 31.336 159.551 38.7184 159.551 38.7184C157.622 41.2119 157.478 45.178 157.47 46.3463C157.461 47.1219 157.528 47.0229 157.47 50.0172C157.436 51.7253 156.964 54.1662 156.492 55.7861C156.163 53.9699 155.329 51.2548 154.529 47.7894C153.198 42.0366 152.718 37.0986 152.962 35.8125L156.492 28.2927C161.287 18.0927 172.577 14.9119 180.843 21.4305L183.944 23.875C188.275 22.0981 189.303 24.5916 190.507 26.4667C192.74 29.9616 193.608 33.2067 193.693 38.1153C193.726 39.9412 193.262 41.5512 192.075 46.8034C191.325 50.1216 190.398 54.1269 190.094 55.7861Z" fill="#293AA1"/>
<path d="M145.539 27.9296C148.386 34.3107 153.442 29.0978 155.313 24.3954C159.913 12.8015 165.457 14.6078 165.457 14.6078C176.807 4.35872 179.79 14.7256 179.79 14.7256C188.671 13.7144 188.999 19.4967 187.659 24.631C186.319 29.7457 183.245 33.9965 179.309 36.7355C179.133 36.8533 178.955 36.981 178.787 37.0987C175.863 31.5128 170.42 31.0219 168.019 31.3852C164.792 31.8662 163.527 33.8689 161.447 35.8814C158.236 38.9836 156.804 40.3973 150.72 39.7395C140.963 38.6793 145.539 27.9296 145.539 27.9296Z" fill="#5A65BA"/>
<path d="M145.539 27.9296C148.386 34.3107 153.442 29.0978 155.313 24.3954C159.913 12.8015 165.457 14.6078 165.457 14.6078C176.807 4.35872 179.79 14.7256 179.79 14.7256C188.671 13.7144 188.999 19.4967 187.659 24.631C186.319 29.7457 183.245 33.9965 179.309 36.7355C179.133 36.8533 178.955 36.981 178.787 37.0987C176.613 30.374 170.909 29.7654 168.499 29.5494C167.05 29.4218 164.438 29.7163 162.424 31.5423C156.947 36.5097 156.812 40.3875 150.72 39.7298C140.963 38.6793 145.539 27.9296 145.539 27.9296Z" fill="#293AA1"/>
<path d="M145.539 27.9296C148.386 34.3107 153.442 29.0978 155.313 24.3954C159.913 12.8015 165.457 14.6078 165.457 14.6078C176.807 4.35872 179.79 14.7256 179.79 14.7256C188.671 13.7144 188.999 19.4967 187.659 24.631C186.319 29.7457 183.245 33.9965 179.309 36.7355C179.133 36.8533 178.955 36.981 178.787 37.0987C176.613 30.374 171.297 25.1416 168.878 24.9256C167.429 24.7979 164.817 25.0924 162.803 26.9282C157.326 31.8957 156.804 40.3875 150.72 39.7298C140.963 38.6793 145.539 27.9296 145.539 27.9296Z" fill="#5A65BA"/>
<path d="M179.293 36.7454C179.293 36.7454 185.84 9.12005 173.377 10.0821C173.377 10.0821 169.089 10.5632 165.458 14.6078C165.458 14.6078 173.58 11.2504 176.335 16.0902C179.798 22.1768 180.051 30.001 179.293 36.7454Z" fill="#293AA1"/>
<path d="M158.565 21.3225C158.565 21.3225 161.075 17.6903 166.358 17.435C171.447 17.1797 178.45 19.8696 179.292 36.7452C179.292 36.7452 175.635 21.4109 165.904 19.2609C164.42 18.937 162.348 19.0548 158.565 21.3225Z" fill="#293AA1"/>
<path fill-rule="evenodd" clip-rule="evenodd" d="M260.529 82.3149C260.205 82.621 259.587 83.5221 258.814 84.6495C257.334 86.808 255.286 89.7936 253.645 91.0101C251.076 92.9193 247.376 91.9492 247.376 91.9492C247.376 91.9492 243.258 119.058 241.253 129.838C239.247 140.617 231.555 151.793 224.862 152.29C224.862 152.29 218.844 149.542 218.507 135.038C218.17 120.517 222.353 115.915 222.353 115.915L224.988 116.947C224.988 116.947 237.029 108.573 240.915 88.2006C240.915 88.2006 237.903 82.0929 237.777 79.8891C237.763 79.6412 237.745 79.3646 237.726 79.0599C237.572 76.6513 237.306 72.5031 237.824 67.3705C238.254 63.1011 237.731 59.5765 237.46 57.7496C237.364 57.1025 237.3 56.6684 237.32 56.4897C237.407 55.8068 240.412 55.7059 241.253 58.5464C241.749 60.238 241.507 62.7307 241.317 64.6768C241.188 65.9985 241.084 67.0681 241.253 67.4636C241.67 68.4415 245.013 70.0325 245.013 70.0325C245.013 70.0325 245.16 69.7708 245.409 69.3384L245.158 71.0338L260.529 82.3149Z" fill="url(#paint18_linear_1_2)"/>
<path d="M241.953 68.8067C241.953 68.8067 244.563 59.0968 245.073 52.9366C245.583 46.7764 247.525 40.1085 247.525 40.1085C247.525 40.1085 248.892 39.8041 249.705 40.6458C250.519 41.4875 251.549 48.2381 249.687 53.002C247.825 57.766 246.418 69.9404 246.418 69.9404L247.862 70.2963L251.927 66.0246L253.553 65.8937C253.553 65.8937 260.653 77.7687 259.486 83.5056L257.831 85.7913L250.859 82.7281L243.938 73.8188L241.953 68.8067Z" fill="#F88A7F"/>
<path d="M253.516 65.7688C253.516 65.7688 252.127 72.1855 249.9 77.4281C249.9 77.4281 249.7 79.7483 251.938 80.4611L252.63 79.8676C252.63 79.8676 252.563 82.5427 254.53 83.2311L256.835 81.4642L256.012 83.1887C256.012 83.1887 256.345 85.3264 258.168 85.69C258.168 85.69 261.685 83.6615 262.527 80.0903L260.074 76.3862L260.481 74.117L257.46 70.3157L257.695 68.6414C257.68 68.646 255.926 66.3286 253.516 65.7688Z" fill="url(#paint19_linear_1_2)"/>
<path opacity="0.3" d="M245.494 51.2729C245.494 51.2729 245.731 52.9826 246.356 53.7804C246.982 54.5782 249.032 55.5744 249.032 55.5744L246.529 70.0828L247.933 70.429L251.915 66.1172C251.915 66.1172 249.836 68.6282 249.352 70.7785L250.439 71.7918L252.27 67.7123L252.21 70.958L251.014 74.7199C251.014 74.7199 249.528 72.3889 246.246 71.5036L245.56 72.4607C245.56 72.4607 250.459 79.8589 251.203 83.6924C251.203 83.6924 249.065 78.4736 243.234 71.8622L243.02 69.3197L243.188 63.4247C243.202 63.4281 245.474 55.4346 245.494 51.2729Z" fill="url(#paint20_linear_1_2)"/>
<path d="M257.74 68.5168C257.74 68.5168 255.5 76.6427 252.584 80.0493C252.584 80.0493 256.124 76.596 257.5 70.228L257.74 68.5168Z" fill="#E28183"/>
<path d="M260.411 74.2959C260.411 74.2959 258.561 80.6077 254.652 83.4043C254.652 83.4043 257.854 82.3516 260.005 76.5615L260.411 74.2959Z" fill="#E28183"/>
</g>
<path d="M296.645 28.7399H246.387C244.356 28.7399 242.71 30.6701 242.71 33.0512V48.8593C242.71 51.2404 244.356 53.1706 246.387 53.1706H296.645C298.676 53.1706 300.323 51.2404 300.323 48.8593V33.0512C300.323 30.6701 298.676 28.7399 296.645 28.7399Z" fill="#276ED8"/>
<path d="M255.222 45.4045C254.522 45.4045 253.888 45.2282 253.32 44.8757C252.757 44.5154 252.313 44.021 251.986 43.3926C251.665 42.7564 251.505 42.0398 251.505 41.2427C251.505 40.4455 251.665 39.7327 251.986 39.1043C252.313 38.4681 252.757 37.9737 253.32 37.6212C253.888 37.2609 254.526 37.0808 255.232 37.0808C255.826 37.0808 256.363 37.2034 256.84 37.4487C257.324 37.694 257.729 38.0466 258.056 38.5064L257.036 39.6101C256.572 38.9816 255.997 38.6674 255.31 38.6674C254.885 38.6674 254.506 38.7785 254.173 39.0008C253.839 39.2154 253.578 39.5182 253.388 39.9091C253.205 40.2999 253.114 40.7444 253.114 41.2427C253.114 41.7409 253.205 42.1854 253.388 42.5763C253.578 42.9672 253.839 43.2737 254.173 43.4961C254.506 43.7106 254.885 43.818 255.31 43.818C255.997 43.818 256.572 43.4999 257.036 42.8637L258.056 43.9674C257.729 44.4349 257.324 44.7913 256.84 45.0366C256.356 45.2819 255.817 45.4045 255.222 45.4045ZM263.502 45.2666L262.179 43.0247H262.1H260.717V45.2666H259.129V37.2188H262.1C262.708 37.2188 263.235 37.3376 263.679 37.5752C264.13 37.8128 264.476 38.15 264.718 38.5869C264.961 39.0238 265.081 39.5412 265.081 40.139C265.081 40.7368 264.957 41.2542 264.709 41.6911C264.467 42.1202 264.12 42.4498 263.669 42.6798L265.209 45.2666H263.502ZM263.473 40.139C263.473 39.6867 263.349 39.3418 263.1 39.1043C262.852 38.859 262.489 38.7364 262.012 38.7364H260.717V41.5416H262.012C262.489 41.5416 262.852 41.4189 263.1 41.1737C263.349 40.9284 263.473 40.5835 263.473 40.139ZM271.655 43.772V45.2666H266.34V37.2188H271.528V38.7134H267.919V40.4609H271.106V41.9095H267.919V43.772H271.655ZM277.44 43.542H274.253L273.645 45.2666H272.017L275.076 37.2188H276.646L279.715 45.2666H278.048L277.44 43.542ZM276.94 42.1279L275.851 39.0468L274.763 42.1279H276.94ZM281.504 38.7364H279.307V37.2188H285.289V38.7364H283.093V45.2666H281.504V38.7364ZM291.459 43.772V45.2666H286.144V37.2188H291.332V38.7134H287.723V40.4609H290.91V41.9095H287.723V43.772H291.459Z" fill="white"/>
<defs>
<filter id="filter0_d_1_2" x="33.6774" y="132.115" width="78.1377" height="77.2877" filterUnits="userSpaceOnUse" color-interpolation-filters="sRGB">
<feFlood flood-opacity="0" result="BackgroundImageFix"/>
<feColorMatrix in="SourceAlpha" type="matrix" values="0 0 0 0 0 0 0 0 0 0 0 0 0 0 0 0 0 0 127 0" result="hardAlpha"/>
<feOffset dx="4" dy="4"/>
<feGaussianBlur stdDeviation="6"/>
<feColorMatrix type="matrix" values="0 0 0 0 0.320833 0 0 0 0 0.320833 0 0 0 0 0.320833 0 0 0 0.25 0"/>
<feBlend mode="normal" in2="BackgroundImageFix" result="effect1_dropShadow_1_2"/>
<feBlend mode="normal" in="SourceGraphic" in2="effect1_dropShadow_1_2" result="shape"/>
</filter>
<linearGradient id="paint0_linear_1_2" x1="137.566" y1="178.752" x2="137.566" y2="93.755" gradientUnits="userSpaceOnUse">
<stop stop-color="#4485E4"/>
<stop offset="1" stop-color="#4384E4"/>
</linearGradient>
<linearGradient id="paint1_linear_1_2" x1="175.9" y1="296.756" x2="175.9" y2="191.588" gradientUnits="userSpaceOnUse">
<stop stop-color="#1C257B"/>
<stop offset="1" stop-color="#482C83"/>
</linearGradient>
<linearGradient id="paint2_linear_1_2" x1="123.996" y1="175.76" x2="123.996" y2="161.792" gradientUnits="userSpaceOnUse">
<stop offset="0.016" stop-color="#FFC2A9"/>
<stop offset="1" stop-color="#FF9595"/>
</linearGradient>
<linearGradient id="paint3_linear_1_2" x1="103.681" y1="149.657" x2="103.681" y2="145.211" gradientUnits="userSpaceOnUse">
<stop offset="0.016" stop-color="#FFA58B"/>
<stop offset="1" stop-color="#FF898E"/>
</linearGradient>
<linearGradient id="paint4_linear_1_2" x1="209.726" y1="153.442" x2="209.726" y2="91.0195" gradientUnits="userSpaceOnUse">
<stop stop-color="#3378DD"/>
<stop offset="1" stop-color="#5491EB"/>
</linearGradient>
<linearGradient id="paint5_linear_1_2" x1="174.039" y1="104.024" x2="174.039" y2="86.5759" gradientUnits="userSpaceOnUse">
<stop stop-color="#D1C8F8"/>
<stop offset="1" stop-color="#EEE5F9"/>
</linearGradient>
<linearGradient id="paint6_linear_1_2" x1="173.345" y1="204.065" x2="173.345" y2="86.2231" gradientUnits="userSpaceOnUse">
<stop stop-color="#67A1F8"/>
<stop offset="1" stop-color="#1B67D9"/>
</linearGradient>
<linearGradient id="paint7_linear_1_2" x1="104.863" y1="156.461" x2="104.863" y2="134.587" gradientUnits="userSpaceOnUse">
<stop stop-color="#8B8BE0"/>
<stop offset="1" stop-color="#A177B7"/>
</linearGradient>
<linearGradient id="paint8_linear_1_2" x1="104.183" y1="146.209" x2="104.183" y2="134.587" gradientUnits="userSpaceOnUse">
<stop offset="0.016" stop-color="#FFC2A9"/>
<stop offset="1" stop-color="#FF9595"/>
</linearGradient>
<linearGradient id="paint9_linear_1_2" x1="99.4258" y1="135.934" x2="99.4258" y2="127.13" gradientUnits="userSpaceOnUse">
<stop offset="0.016" stop-color="#FFC2A9"/>
<stop offset="1" stop-color="#FF9595"/>
</linearGradient>
<linearGradient id="paint10_linear_1_2" x1="104.629" y1="150.913" x2="104.629" y2="147.072" gradientUnits="userSpaceOnUse">
<stop offset="0.016" stop-color="#FFC2A9"/>
<stop offset="1" stop-color="#FF9595"/>
</linearGradient>
<linearGradient id="paint11_linear_1_2" x1="183.649" y1="80.6357" x2="163.702" y2="80.6357" gradientUnits="userSpaceOnUse">
<stop stop-color="#CF6074"/>
<stop offset="1" stop-color="#FF817F"/>
</linearGradient>
<linearGradient id="paint12_linear_1_2" x1="221.639" y1="151.582" x2="221.639" y2="115.911" gradientUnits="userSpaceOnUse">
<stop stop-color="#CF6074"/>
<stop offset="1" stop-color="#FF817F"/>
</linearGradient>
<linearGradient id="paint13_linear_1_2" x1="189.593" y1="286.604" x2="189.593" y2="278.411" gradientUnits="userSpaceOnUse">
<stop stop-color="#8B8BE0"/>
<stop offset="1" stop-color="#A177B7"/>
</linearGradient>
<linearGradient id="paint14_linear_1_2" x1="149.018" y1="282.367" x2="149.018" y2="276.717" gradientUnits="userSpaceOnUse">
<stop stop-color="#8B8BE0"/>
<stop offset="1" stop-color="#A177B7"/>
</linearGradient>
<linearGradient id="paint15_linear_1_2" x1="108.003" y1="142.43" x2="101.762" y2="142.43" gradientUnits="userSpaceOnUse">
<stop stop-color="#CF6074"/>
<stop offset="1" stop-color="#FF817F"/>
</linearGradient>
<linearGradient id="paint16_linear_1_2" x1="187.795" y1="93.6695" x2="187.795" y2="93.4913" gradientUnits="userSpaceOnUse">
<stop stop-color="#9D68C2"/>
<stop offset="1" stop-color="#CCEDFF"/>
</linearGradient>
<linearGradient id="paint17_linear_1_2" x1="162.798" y1="101.377" x2="162.798" y2="89.9819" gradientUnits="userSpaceOnUse">
<stop stop-color="#3D2CB0"/>
<stop offset="1" stop-color="#0355C7"/>
</linearGradient>
<linearGradient id="paint18_linear_1_2" x1="246.869" y1="152.281" x2="246.869" y2="48.3501" gradientUnits="userSpaceOnUse">
<stop offset="0.016" stop-color="#FFC2A9"/>
<stop offset="1" stop-color="#FF9595"/>
</linearGradient>
<linearGradient id="paint19_linear_1_2" x1="255.095" y1="84.9484" x2="259.459" y2="67.2367" gradientUnits="userSpaceOnUse">
<stop offset="0.016" stop-color="#FFC2A9"/>
<stop offset="1" stop-color="#FF9595"/>
</linearGradient>
<linearGradient id="paint20_linear_1_2" x1="245.635" y1="82.3243" x2="252.841" y2="53.0846" gradientUnits="userSpaceOnUse">
<stop stop-color="#FFEADB"/>
<stop offset="0.9944" stop-color="#C27CB6"/>
</linearGradient>
</defs>
</svg>
