<svg width="526" height="408" viewBox="0 0 526 408" fill="none" xmlns="http://www.w3.org/2000/svg">
<g id="stanassets 1" clip-path="url(#clip0_1_2)">
<g id="Group">
<g id="Clip path group">
<mask id="mask0_1_2" style="mask-type:luminance" maskUnits="userSpaceOnUse" x="0" y="-1" width="528" height="409">
<g id="1">
<path id="Vector" fill-rule="evenodd" clip-rule="evenodd" d="M0 407.99V-0.999969H527.006V407.99H0Z" fill="white"/>
</g>
</mask>
<g mask="url(#mask0_1_2)">
<g id="Group_2">
<path id="Vector_2" d="M104.522 307.534C67.4611 375.874 322.885 382.807 377.709 358.033C432.532 333.259 444.286 238.872 425.109 208.537C419.128 199.132 498.969 264.048 495.444 253.26C487.767 229.654 498.735 123.801 485.25 103.539C473.593 86.0011 361.351 117.6 346.109 103.539C339.433 97.4557 270.167 11.0419 187.599 24.0416C127.279 33.5385 48.4599 86.8484 32.1471 130.039C15.8342 173.23 172.308 182.537 104.522 307.534Z" fill="#276ED8" fill-opacity="0.08" stroke="white" stroke-width="1.3333"/>
<path id="gear1" class="gear1" d="M166.155 154.736C151.111 154.736 138.921 142.754 138.921 128.02C138.921 113.284 151.111 101.302 166.155 101.302C181.198 101.302 193.389 113.262 193.389 128.02C193.389 142.776 181.198 154.736 166.155 154.736ZM209.582 137.046L224.258 134.338V121.43L209.582 118.948C208.456 113.645 206.316 108.681 203.372 104.281L211.791 92.164L202.475 83.0252L190.307 91.4644C185.821 88.5762 180.785 86.5002 175.355 85.3946L172.595 70.9982H159.438L156.908 85.3946C151.503 86.5002 146.443 88.5987 141.956 91.487L129.627 83.2283L120.311 92.3671L128.915 104.303C125.97 108.704 123.854 113.668 122.727 118.971L108.052 121.679V134.586L122.727 137.068C123.854 142.393 125.993 147.334 128.937 151.735L120.518 163.83L129.834 172.969L142.026 164.529C146.511 167.418 151.572 169.516 156.977 170.599L159.737 184.995H172.895L175.425 170.599C180.853 169.494 185.89 167.395 190.376 164.507L202.705 172.766L212.021 163.627L203.418 151.69C206.34 147.312 208.456 142.37 209.582 137.046Z" fill="#84B5FF" stroke="white" stroke-width="1.3333"/>
<path id="Vector_3" d="M379.883 132.297V265.283C379.883 268.703 377.059 271.473 373.573 271.473H166.848C163.362 271.473 160.538 268.703 160.538 265.283V132.297C160.538 124.407 167.062 117.997 175.115 117.997H365.306C373.359 117.997 379.883 124.407 379.883 132.297Z" fill="white" stroke="#84B5FF" stroke-width="1.3333"/>
<path id="Vector_4" d="M262.118 149.808H237.514V151.836H262.118V149.808Z" fill="#84B5FF" stroke="white" stroke-width="1.3333"/>
<path id="Vector_5" d="M290.976 149.808H266.372V151.836H290.976V149.808Z" fill="#06B25F" stroke="white" stroke-width="1.3333"/>
<path id="Vector_6" d="M283.266 160.754H245.115V162.782H283.266V160.754Z" fill="#276ED8" stroke="white" stroke-width="1.3333"/>
<path id="Vector_7" d="M308.958 160.754H289.57V162.782H308.958V160.754Z" fill="#84B5FF" stroke="white" stroke-width="1.3333"/>
<path id="Vector_8" d="M275.095 171.686H258.343V173.714H275.095V171.686Z" fill="#06B25F" stroke="white" stroke-width="1.3333"/>
<path id="Vector_9" d="M340.361 171.686H284.78V173.714H340.361V171.686Z" fill="#06B25F" stroke="white" stroke-width="1.3333"/>
<path id="Vector_10" d="M334.878 182.626H271.357V184.654H334.878V182.626Z" fill="#276ED8" stroke="white" stroke-width="1.3333"/>
<path id="Vector_11" d="M275.024 193.558H255.476V195.587H275.024V193.558Z" fill="#84B5FF" stroke="white" stroke-width="1.3333"/>
<path id="Vector_12" d="M302.938 193.558H283.391V195.587H302.938V193.558Z" fill="#276ED8" stroke="white" stroke-width="1.3333"/>
<path id="Vector_13" d="M265.945 250.317H237.514V252.345H265.945V250.317Z" fill="#84B5FF" stroke="white" stroke-width="1.3333"/>
<path id="Vector_14" d="M304.328 250.317H275.896V252.345H304.328V250.317Z" fill="#06B25F" stroke="white" stroke-width="1.3333"/>
<path id="Vector_15" d="M341.696 250.317H313.264V252.345H341.696V250.317Z" fill="#84B5FF" stroke="white" stroke-width="1.3333"/>
<path id="Vector_16" d="M300.698 239.367H245.117V241.395H300.698V239.367Z" fill="#276ED8" stroke="white" stroke-width="1.3333"/>
<path id="Vector_17" d="M364.929 239.367H309.349V241.395H364.929V239.367Z" fill="#84B5FF" stroke="white" stroke-width="1.3333"/>
<path id="Vector_18" d="M313.496 228.437H258.343V230.466H313.496V228.437Z" fill="#84B5FF" stroke="white" stroke-width="1.3333"/>
<path id="Vector_19" d="M333.65 228.437H318.304V230.466H333.65V228.437Z" fill="#06B25F" stroke="white" stroke-width="1.3333"/>
<path id="Vector_20" d="M275.505 217.494H254.747V219.522H275.505V217.494Z" fill="#06B25F" stroke="white" stroke-width="1.3333"/>
<path id="Vector_21" d="M307.282 217.494H286.524V219.522H307.282V217.494Z" fill="#276ED8" stroke="white" stroke-width="1.3333"/>
<path id="Vector_22" d="M341.413 217.494H320.654V219.522H341.413V217.494Z" fill="#84B5FF" stroke="white" stroke-width="1.3333"/>
<path id="Vector_23" d="M307.926 206.566H278.817V208.595H307.926V206.566Z" fill="#06B25F" stroke="white" stroke-width="1.3333"/>
<path id="Vector_24" d="M267.832 206.566H238.724V208.595H267.832V206.566Z" fill="#276ED8" stroke="white" stroke-width="1.3333"/>
<path id="Vector_25" d="M230.657 147.868H228.005V150.473H230.657V147.868Z" fill="#84B5FF" stroke="white" stroke-width="1.3333"/>
<path id="Vector_26" d="M230.657 163.71H228.005V158.412H230.657V163.71ZM230.657 176.965H228.005V171.666H230.657V176.965ZM230.657 190.218H228.005V184.92H230.657V190.218ZM230.657 203.472H228.005V198.174H230.657V203.472ZM230.657 216.726H228.005V211.428H230.657V216.726ZM230.657 229.98H228.005V224.681H230.657V229.98ZM230.657 243.234H228.005V237.936H230.657V243.234Z" fill="#84B5FF" stroke="white" stroke-width="1.3333"/>
<path id="Vector_27" d="M230.657 251.188H228.005V253.794H230.657V251.188Z" fill="#84B5FF" stroke="white" stroke-width="1.3333"/>
<path id="Vector_28" d="M160.039 134.487C160.039 131.174 162.777 128.487 166.155 128.487H217.122V271.483H166.155C162.777 271.483 160.039 268.797 160.039 265.483V134.487Z" fill="#84B5FF" stroke="white" stroke-width="1.3333"/>
<path id="Vector_29" d="M189.207 151.809H164.604V153.838H189.207V151.809Z" fill="#06B25F" stroke="white" stroke-width="1.3333"/>
<path id="Vector_30" d="M208.04 164.204H169.888V166.232H208.04V164.204Z" fill="#84B5FF" stroke="white" stroke-width="1.3333"/>
<path id="Vector_31" d="M208.04 176.6H169.888V178.628H208.04V176.6Z" fill="#84B5FF" stroke="white" stroke-width="1.3333"/>
<path id="Vector_32" d="M208.04 188.995H169.888V191.023H208.04V188.995Z" fill="#84B5FF" stroke="white" stroke-width="1.3333"/>
<path id="Vector_33" d="M208.04 201.388H169.888V203.416H208.04V201.388Z" fill="#84B5FF" stroke="white" stroke-width="1.3333"/>
<path id="Vector_34" d="M210.021 226.176H171.868V228.204H210.021V226.176Z" fill="#84B5FF" stroke="white" stroke-width="1.3333"/>
<path id="Vector_35" d="M210.021 238.573H171.868V240.601H210.021V238.573Z" fill="#84B5FF" stroke="white" stroke-width="1.3333"/>
<path id="Vector_36" d="M210.021 250.965H171.868V252.993H210.021V250.965Z" fill="#84B5FF" stroke="white" stroke-width="1.3333"/>
<path id="Vector_37" d="M189.207 213.782H164.604V215.81H189.207V213.782Z" fill="#06B25F" stroke="white" stroke-width="1.3333"/>
<path id="Vector_38" d="M379.883 132.297V132.897H160.538V132.297C160.538 124.407 167.062 117.997 175.115 117.997H365.306C373.359 117.997 379.883 124.407 379.883 132.297Z" fill="#84B5FF" stroke="white" stroke-width="1.3333"/>
<path id="Vector_39" d="M346.57 126.137C346.57 127.167 345.724 127.997 344.674 127.997C343.624 127.997 342.778 127.167 342.778 126.137C342.778 125.107 343.624 124.277 344.674 124.277C345.714 124.277 346.57 125.107 346.57 126.137Z" fill="white" stroke="white" stroke-width="1.3333"/>
<path id="Vector_40" d="M356.946 126.137C356.946 127.167 356.1 127.997 355.05 127.997C354 127.997 353.154 127.167 353.154 126.137C353.154 125.107 354 124.277 355.05 124.277C356.09 124.277 356.946 125.107 356.946 126.137Z" fill="white" stroke="white" stroke-width="1.3333"/>
<path id="Vector_41" d="M366.866 126.137C366.866 127.167 366.02 127.997 364.97 127.997C363.92 127.997 363.074 127.167 363.074 126.137C363.074 125.107 363.92 124.277 364.97 124.277C366.02 124.277 366.866 125.107 366.866 126.137Z" fill="white" stroke="white" stroke-width="1.3333"/>
<path id="Vector_42" d="M379.883 132.297V265.283C379.883 268.703 377.059 271.473 373.573 271.473H166.848C163.362 271.473 160.538 268.703 160.538 265.283V132.297C160.538 124.407 167.062 117.997 175.115 117.997H365.306C373.359 117.997 379.883 124.407 379.883 132.297Z" stroke="#84B5FF" stroke-width="1.3333"/>
<path id="circle" class="circle" d="M288.365 347.814C279.948 347.814 273.132 341.127 273.132 332.872C273.132 324.616 279.948 317.929 288.365 317.929C296.781 317.929 303.597 324.616 303.597 332.872C303.597 341.127 296.781 347.814 288.365 347.814ZM288.365 312.992C277.166 312.992 268.09 321.895 268.09 332.882C268.09 343.867 277.166 352.77 288.365 352.77C299.564 352.77 308.639 343.867 308.639 332.882C308.639 321.895 299.564 312.992 288.365 312.992Z" fill="#66D6A0" stroke="white" stroke-width="1.3333"/>
<path id="Vector_43" d="M76.2197 96.9736H47.8974C46.7824 96.9736 45.871 96.089 45.871 94.9856C45.871 93.8917 46.7727 92.9977 47.8974 92.9977H76.2197C77.3348 92.9977 78.2462 93.8823 78.2462 94.9856C78.2462 96.0795 77.3348 96.9736 76.2197 96.9736Z" fill="#66D6A0" stroke="white" stroke-width="1.3333"/>
<path id="Vector_44" d="M76.2197 106.894H47.8974C46.7824 106.894 45.871 106.009 45.871 104.906C45.871 103.812 46.7727 102.918 47.8974 102.918H76.2197C77.3348 102.918 78.2462 103.803 78.2462 104.906C78.2462 106 77.3348 106.894 76.2197 106.894Z" fill="#66D6A0" stroke="white" stroke-width="1.3333"/>
<path id="Vector_45" d="M278.87 164.623C278.87 165.461 278.182 166.137 277.327 166.137C276.472 166.137 275.783 165.461 275.783 164.623C275.783 163.784 276.472 163.108 277.327 163.108C278.174 163.108 278.87 163.784 278.87 164.623Z" fill="white" stroke="white" stroke-width="1.3333"/>
<path id="Vector_46" d="M287.317 164.623C287.317 165.461 286.629 166.137 285.774 166.137C284.92 166.137 284.231 165.461 284.231 164.623C284.231 163.784 284.92 163.108 285.774 163.108C286.621 163.108 287.317 163.784 287.317 164.623Z" fill="white" stroke="white" stroke-width="1.3333"/>
<path id="Vector_47" d="M295.393 164.623C295.393 165.461 294.705 166.137 293.849 166.137C292.995 166.137 292.306 165.461 292.306 164.623C292.306 163.784 292.995 163.108 293.849 163.108C294.705 163.108 295.393 163.784 295.393 164.623Z" fill="white" stroke="white" stroke-width="1.3333"/>
<path id="Vector_48" d="M270.638 71.3846C270.625 71.7057 267.97 79.5991 267.777 79.4919C267.583 79.3875 249.07 74.5934 249.07 74.5934L251.777 64.2242L270.638 71.3846Z" fill="#66D6A0" stroke="white" stroke-width="1.3333"/>
<path id="Vector_49" d="M248.74 110.121L251.111 111.414L252.558 109.545L255.085 111.134L256.474 109.481L258.729 110.88L260.48 108.966L262.903 109.932L262.758 112.426L249.193 114.164L248.74 110.121Z" fill="#06B25F" stroke="white" stroke-width="1.3333"/>
<path id="Vector_50" d="M279.562 118.986L254.126 117.017L254.418 113.493L271.946 111.219L279.562 118.986Z" fill="#66D6A0" stroke="white" stroke-width="1.3333"/>
<path id="Vector_51" d="M318.302 55.0974L316.705 69.5421L285.905 85.6491L278.526 77.1729L318.302 55.0974Z" fill="#66D6A0" stroke="white" stroke-width="1.3333"/>
<path id="Vector_52" d="M288.828 99.4365C288.584 99.2185 280.995 95.4928 280.934 95.7018C280.873 95.9108 271.272 112.119 271.272 112.119L280.695 117.556L288.828 99.4365Z" fill="#66D6A0" stroke="white" stroke-width="1.3333"/>
<g id="Vector_53">
<path d="M223.836 80.8901C223.836 80.8901 225.205 80.8901 226.894 80.8901H279.9C281.589 80.8901 282.959 80.8901 282.959 80.8901H279.9C281.589 80.8901 282.959 80.8901 282.959 80.8901V137.889C282.959 137.889 281.589 137.889 279.9 137.889H282.959C282.959 137.889 281.589 137.889 279.9 137.889H226.894C225.205 137.889 223.836 137.889 223.836 137.889H226.894C225.205 137.889 223.836 137.889 223.836 137.889V80.8901C223.836 80.8901 225.205 80.8901 226.894 80.8901H223.836Z" fill="#276ED8"/>
<path d="M223.836 80.8901C223.836 80.8901 225.205 80.8901 226.894 80.8901M223.836 80.8901V137.889M223.836 80.8901H226.894M226.894 80.8901H279.9M279.9 80.8901C281.589 80.8901 282.959 80.8901 282.959 80.8901M279.9 80.8901H282.959M282.959 80.8901V137.889M282.959 137.889C282.959 137.889 281.589 137.889 279.9 137.889M282.959 137.889H279.9M279.9 137.889H226.894M226.894 137.889C225.205 137.889 223.836 137.889 223.836 137.889M226.894 137.889H223.836" stroke="white" stroke-width="0.999975"/>
</g>
<path id="Vector_54" d="M243.961 118.815L230.428 111.635C229.554 111.138 229.116 110.37 229.116 109.332C229.116 108.248 229.576 107.48 230.496 107.028L243.961 99.7805V102.422C243.961 102.603 243.893 102.851 243.754 103.167C243.617 103.438 243.41 103.641 243.133 103.777L233.535 108.925C233.167 109.196 233.167 109.467 233.535 109.738L243.961 115.225V118.815Z" fill="white" stroke="white" stroke-width="1.3333"/>
<path id="Vector_55" d="M255.489 97.6133H258.182L251.485 120.102C251.3 120.689 250.886 120.983 250.241 120.983H248.516L255.489 97.6133Z" fill="white" stroke="white" stroke-width="1.3333"/>
<path id="Vector_56" d="M262.529 99.7805L275.993 107.028C276.961 107.525 277.444 108.293 277.444 109.332C277.444 110.37 276.961 111.115 275.993 111.567L262.529 118.815V116.173C262.529 116.038 262.574 115.812 262.667 115.496C262.805 115.18 263.012 114.954 263.288 114.818L272.956 109.738C273.324 109.467 273.324 109.196 272.956 108.925L262.529 103.371V99.7805Z" fill="white" stroke="white" stroke-width="1.3333"/>
<path id="Vector_57" d="M270.472 70.6968C278.074 70.3414 292.453 90.407 289.836 97.0428C287.449 103.092 283.516 103.203 280.968 101.705C276.908 99.3135 282.9 94.6834 280.558 91.3366C278.215 87.9899 275.329 84.0178 273.082 81.1192C270.577 77.8886 264.2 81.993 263.159 77.4694C262.507 74.6294 263.855 71.0072 270.472 70.6968Z" fill="#06B25F" stroke="white" stroke-width="1.3333"/>
<g id="Vector_58">
<path d="M258.496 80.8896C258.496 80.8896 259.865 80.8896 261.554 80.8896H279.902C281.591 80.8896 282.961 80.8896 282.961 80.8896H279.902C281.591 80.8896 282.961 80.8896 282.961 80.8896V112.889C282.961 112.889 281.591 112.889 279.902 112.889H282.961C282.961 112.889 281.591 112.889 279.902 112.889H261.554C259.865 112.889 258.496 112.889 258.496 112.889H261.554C259.865 112.889 258.496 112.889 258.496 112.889V80.8896C258.496 80.8896 259.865 80.8896 261.554 80.8896H258.496Z" fill="#276ED8"/>
<path d="M258.496 80.8896C258.496 80.8896 259.865 80.8896 261.554 80.8896M258.496 80.8896V112.889M258.496 80.8896H261.554M261.554 80.8896H279.902M279.902 80.8896C281.591 80.8896 282.961 80.8896 282.961 80.8896M279.902 80.8896H282.961M282.961 80.8896V112.889M282.961 112.889C282.961 112.889 281.591 112.889 279.902 112.889M282.961 112.889H279.902M279.902 112.889H261.554M261.554 112.889C259.865 112.889 258.496 112.889 258.496 112.889M261.554 112.889H258.496" stroke="white" stroke-width="0.999975"/>
</g>
<path id="Vector_59" d="M243.781 119.091L230.247 111.911C229.372 111.414 228.935 110.646 228.935 109.607C228.935 108.524 229.395 107.756 230.316 107.304L243.781 100.057V102.698C243.781 102.879 243.711 103.127 243.573 103.443C243.435 103.714 243.228 103.917 242.952 104.053L233.354 109.201C232.986 109.472 232.986 109.743 233.354 110.014L243.781 115.501V119.091Z" fill="white" stroke="white" stroke-width="1.3333"/>
<path id="Vector_60" d="M255.309 97.8892H258.001L251.303 120.378C251.119 120.965 250.705 121.258 250.061 121.258H248.334L255.309 97.8892Z" fill="white" stroke="white" stroke-width="1.3333"/>
<path id="Vector_61" d="M262.348 100.057L275.813 107.304C276.779 107.801 277.262 108.569 277.262 109.607C277.262 110.646 276.779 111.391 275.813 111.843L262.348 119.091V116.449C262.348 116.314 262.394 116.088 262.486 115.772C262.624 115.455 262.831 115.23 263.108 115.094L272.774 110.014C273.142 109.743 273.142 109.472 272.774 109.201L262.348 103.646V100.057Z" fill="white" stroke="white" stroke-width="1.3333"/>
<path id="Vector_62" d="M265.475 74.3494C264.948 75.6395 265.588 77.109 266.906 77.6272C268.224 78.1453 269.723 77.5211 270.25 76.231C270.779 74.9378 270.138 73.4715 268.82 72.9533C267.503 72.4319 266.007 73.0575 265.475 74.3494Z" fill="#66D6A0" stroke="white" stroke-width="1.3333"/>
<path id="Vector_63" d="M282.304 96.197C281.777 97.4871 282.416 98.9565 283.735 99.4745C285.053 99.9925 286.553 99.3685 287.08 98.0786C287.607 96.7886 286.968 95.319 285.649 94.8008C284.332 94.2796 282.832 94.9039 282.304 96.197Z" fill="#66D6A0" stroke="white" stroke-width="1.3333"/>
<path id="Vector_64" d="M234.628 91.6123L235.364 89.0583L237.739 89.3742L238.37 86.4995L240.548 86.7065L241.122 84.1553L243.742 84.2943L244.75 81.933L242.844 80.2715L232.019 88.4428L234.628 91.6123Z" fill="#06B25F" stroke="white" stroke-width="1.3333"/>
<path id="Vector_65" d="M249.945 64.0004L233.431 83.0098L236.193 85.3014L250.2 74.7581L249.945 64.0004Z" fill="#66D6A0" stroke="white" stroke-width="1.3333"/>
<path id="Vector_66" d="M247.326 74.0947C244.668 72.6589 243.694 69.3863 245.154 66.7837C246.612 64.1811 249.95 63.234 252.608 64.6699C255.267 66.1058 256.24 69.3783 254.782 71.9808C253.326 74.5824 249.99 75.5295 247.326 74.0947Z" fill="#06B25F" stroke="white" stroke-width="1.3333"/>
<path id="Vector_67" d="M248.61 71.8007C247.365 71.126 246.908 69.5952 247.594 68.3755C248.275 67.1568 249.841 66.7118 251.086 67.3865C252.333 68.0612 252.789 69.592 252.103 70.8116C251.42 72.0286 249.858 72.4726 248.61 71.8007Z" fill="#66D6A0" stroke="white" stroke-width="1.3333"/>
<g id="Vector_68">
<path d="M279.902 93.8893C279.902 93.8893 280.245 93.8893 280.667 93.8893H282.196C282.618 93.8893 282.961 93.8893 282.961 93.8893H282.196C282.618 93.8893 282.961 93.8893 282.961 93.8893V99.8891C282.961 99.8891 282.618 99.8891 282.196 99.8891H282.961C282.961 99.8891 282.618 99.8891 282.196 99.8891H280.667C280.245 99.8891 279.902 99.8891 279.902 99.8891H280.667C280.245 99.8891 279.902 99.8891 279.902 99.8891V93.8893C279.902 93.8893 280.245 93.8893 280.667 93.8893H279.902Z" fill="#276ED8"/>
<path d="M279.902 93.8893C279.902 93.8893 280.245 93.8893 280.667 93.8893M279.902 93.8893V99.8891M279.902 93.8893H280.667M280.667 93.8893H282.196M282.196 93.8893C282.618 93.8893 282.961 93.8893 282.961 93.8893M282.196 93.8893H282.961M282.961 93.8893V99.8891M282.961 99.8891C282.961 99.8891 282.618 99.8891 282.196 99.8891M282.961 99.8891H282.196M282.196 99.8891H280.667M280.667 99.8891C280.245 99.8891 279.902 99.8891 279.902 99.8891M280.667 99.8891H279.902" stroke="white" stroke-width="0.999975"/>
</g>
<path id="Vector_69" d="M319.048 46.5891H400.463V48.4975H319.048V46.5891Z" fill="#66D6A0" stroke="white" stroke-width="1.3333"/>
<path id="Vector_70" d="M396.093 43.9188H404.023V59.0607H396.093V43.9188Z" fill="#66D6A0" stroke="white" stroke-width="1.3333"/>
<path id="Vector_71" d="M313.419 42.8905H321.349V58.0324H313.419V42.8905Z" fill="#66D6A0" stroke="white" stroke-width="1.3333"/>
<path id="Vector_72" d="M401.948 55.1717L392.733 70.596L319.05 68.737L315.425 54.6495L401.948 55.1717Z" fill="#66D6A0" stroke="white" stroke-width="1.3333"/>
<path id="Vector_73" d="M489.107 151.347C487.086 153.383 444.04 133.075 444.04 133.075L423.632 149.648L488.067 201.22L489.107 151.347Z" fill="#66D6A0" stroke="white" stroke-width="1.3333"/>
<path id="Vector_74" d="M444.038 133.075L405.559 56.0059L392.733 70.5959L423.63 149.649L444.038 133.075Z" fill="#66D6A0" stroke="white" stroke-width="1.3333"/>
<path id="Vector_75" d="M483.56 142.308V200.419C483.56 203.109 485.789 205.29 488.537 205.29H518.901C521.651 205.29 523.879 203.109 523.879 200.419V142.308C523.879 139.618 521.651 137.437 518.901 137.437H488.537C485.789 137.437 483.56 139.618 483.56 142.308Z" fill="#66D6A0" stroke="white" stroke-width="1.3333"/>
<path id="Vector_76" d="M434.662 155.111C426.859 155.111 420.534 148.92 420.534 141.283C420.534 133.647 426.859 127.455 434.662 127.455C442.465 127.455 448.791 133.647 448.791 141.283C448.791 148.92 442.465 155.111 434.662 155.111Z" fill="#06B25F" stroke="white" stroke-width="1.3333"/>
<path id="Vector_77" d="M390.046 64.4375C390.046 69.844 394.523 74.2255 400.047 74.2255C405.571 74.2255 410.048 69.844 410.048 64.4375C410.048 59.0311 405.571 54.6495 400.047 54.6495C394.523 54.6495 390.046 59.0311 390.046 64.4375Z" fill="#06B25F" stroke="white" stroke-width="1.3333"/>
<path id="Vector_78" d="M521.166 136.301V205.237C521.166 208.358 523.592 210.887 526.586 210.887V130.651C523.592 130.651 521.166 133.18 521.166 136.301Z" fill="#06B25F" stroke="white" stroke-width="1.3333"/>
<path id="Vector_79" d="M436.152 134.383C436.152 133.364 403.133 64.4374 403.133 64.4374L398.451 65.9285L427.051 138.452L436.152 134.383Z" fill="#06B25F" stroke="white" stroke-width="1.3333"/>
<path id="Vector_80" d="M395.211 64.4309C395.211 67.0519 397.382 69.1738 400.057 69.1738C402.732 69.1738 404.903 67.0487 404.903 64.4309C404.903 61.8097 402.732 59.688 400.057 59.688C397.382 59.688 395.211 61.8097 395.211 64.4309Z" fill="#66D6A0" stroke="white" stroke-width="1.3333"/>
<path id="Vector_81" d="M309.077 62.2104C309.077 66.7003 312.795 70.343 317.386 70.343C321.974 70.343 325.696 66.7036 325.696 62.2104C325.696 57.7204 321.977 54.0778 317.386 54.0778C312.799 54.0778 309.077 57.7171 309.077 62.2104Z" fill="#06B25F" stroke="white" stroke-width="1.3333"/>
<path id="Vector_82" d="M392.734 60.394L323.749 59.6845V62.9625L392.734 66.8613V60.394Z" fill="#06B25F" stroke="white" stroke-width="1.3333"/>
<path id="Vector_83" d="M313.672 61.6655C313.672 63.6723 315.332 65.2982 317.383 65.2982C319.433 65.2982 321.095 63.6723 321.095 61.6655C321.095 59.6586 319.433 58.0327 317.383 58.0327C315.336 58.0327 313.672 59.6586 313.672 61.6655Z" fill="#66D6A0" stroke="white" stroke-width="1.3333"/>
<path id="Vector_84" d="M428.728 141.78C428.728 145.035 431.423 147.673 434.748 147.673C438.075 147.673 440.769 145.035 440.769 141.78C440.769 138.526 438.075 135.889 434.748 135.889C431.423 135.889 428.728 138.526 428.728 141.78Z" fill="#66D6A0" stroke="white" stroke-width="1.3333"/>
<g id="outlet"  class="outlet">
<g id="Vector_85">
<path d="M78.4903 147.996C78.4903 147.996 79.8594 147.996 81.5484 147.996H134.555C136.244 147.996 137.613 147.996 137.613 147.996H134.555C136.244 147.996 137.613 147.996 137.613 147.996V204.995C137.613 204.995 136.244 204.995 134.555 204.995H137.613C137.613 204.995 136.244 204.995 134.555 204.995H81.5484C79.8594 204.995 78.4903 204.995 78.4903 204.995H81.5484C79.8594 204.995 78.4903 204.995 78.4903 204.995V147.996C78.4903 147.996 79.8594 147.996 81.5484 147.996H78.4903Z" fill="#06B25F"/>
<path d="M78.4903 147.996C78.4903 147.996 79.8594 147.996 81.5484 147.996M78.4903 147.996V204.995M78.4903 147.996H81.5484M81.5484 147.996H134.555M134.555 147.996C136.244 147.996 137.613 147.996 137.613 147.996M134.555 147.996H137.613M137.613 147.996V204.995M137.613 204.995C137.613 204.995 136.244 204.995 134.555 204.995M137.613 204.995H134.555M134.555 204.995H81.5484M81.5484 204.995C79.8594 204.995 78.4903 204.995 78.4903 204.995M81.5484 204.995H78.4903" stroke="white" stroke-width="0.999975"/>
</g>
<path id="Vector_86" d="M99.0098 164.521C98.8324 164.351 98.5887 164.257 98.34 164.264C98.0895 164.27 97.8524 164.374 97.6839 164.551C92.1813 170.361 95.1748 182.923 95.4886 184.165L89.9715 189.457C89.7996 189.622 89.7032 189.845 89.7032 190.078C89.7032 190.311 89.7996 190.535 89.9715 190.7L93.2956 193.888C93.4745 194.058 93.709 194.145 93.9435 194.145C94.1777 194.145 94.4125 194.059 94.591 193.888L100.107 188.598C102.793 189.259 106.152 189.654 109.117 189.654C112.678 189.654 117.555 189.105 120.559 186.491C120.745 186.33 120.854 186.102 120.86 185.862C120.866 185.621 120.769 185.389 120.592 185.22L99.0098 164.521Z" fill="white" stroke="white" stroke-width="1.3333"/>
<path id="Vector_87" d="M106.979 169.752C107.158 169.923 107.392 170.009 107.626 170.009C107.861 170.009 108.095 169.923 108.275 169.751L115.113 163.193C115.597 162.729 115.864 162.111 115.864 161.454C115.864 160.798 115.597 160.18 115.113 159.716C114.628 159.251 113.985 158.996 113.3 158.996C112.615 158.996 111.971 159.252 111.487 159.716L104.649 166.274C104.291 166.617 104.291 167.174 104.649 167.517L106.979 169.752Z" fill="white" stroke="white" stroke-width="1.3333"/>
<path id="Vector_88" d="M125.694 169.864C125.209 169.4 124.565 169.144 123.88 169.144C123.195 169.144 122.551 169.399 122.068 169.864L115.229 176.423C115.057 176.587 114.96 176.811 114.96 177.044C114.96 177.277 115.057 177.5 115.229 177.665L117.559 179.9C117.737 180.07 117.972 180.156 118.207 180.156C118.441 180.156 118.676 180.071 118.855 179.9L125.694 173.341C126.694 172.382 126.694 170.822 125.694 169.864Z" fill="white" stroke="white" stroke-width="1.3333"/>
</g>
<g id="glasses" class="glasses">
<path id="Vector_89" d="M140.624 251.802C161.193 248.125 179.894 251.839 188.548 260.252C188.547 259.471 188.487 258.685 188.359 257.91C185.993 243.561 162.357 235.808 135.57 240.597C108.785 245.385 88.9831 260.903 91.3483 275.252C91.898 278.587 93.5969 281.563 96.2182 284.109C96.2038 270.453 115.288 256.331 140.624 251.802Z" fill="#043072" stroke="white" stroke-width="1.3333"/>
<path id="Vector_90" d="M189.353 260.127C189.355 273.787 170.278 287.911 144.945 292.441C135.116 294.199 124.862 294.494 115.138 292.483C111.164 291.661 107.256 290.436 103.661 288.607C102.076 287.799 100.54 286.863 99.1035 285.83C97.7663 284.87 95.1661 282.485 95.1457 280.633C95.1882 284.664 97.1656 288.7 99.4007 291.937C109.576 306.667 133.934 306.52 149.997 303.647C176.786 298.858 196.58 283.338 194.216 268.987C193.667 265.652 191.968 262.675 189.353 260.127Z" fill="#84B5FF" stroke="white" stroke-width="1.3333"/>
<path id="Vector_91" d="M188.322 257.736C185.887 243.455 162.229 235.818 135.486 240.681C108.744 245.544 89.0332 261.067 91.4675 275.348C92.0332 278.667 93.7455 281.625 96.3774 284.151" stroke="#84B5FF" stroke-width="1.99995"/>
<path id="Vector_92" d="M188.963 260.035C189.016 273.67 170.056 287.836 144.827 292.447C124.345 296.191 105.696 292.548 97.0421 284.18" stroke="#84B5FF" stroke-width="1.99995"/>
<path id="Vector_93" d="M191.949 281.843C171.512 297.076 145.424 306.283 114.954 311.099C112.987 311.409 111.147 310.159 110.82 308.271L105.593 278.095C105.269 276.224 106.541 274.408 108.475 274.009C135.137 268.478 159.958 259.303 182.599 245.81C184.806 244.495 187.648 245.699 188.072 248.143L193.331 278.438C193.552 279.714 193.028 281.035 191.949 281.843Z" fill="#276ED8" stroke="white" stroke-width="1.3333"/>
<path id="Vector_94" d="M197.399 284.574C176.965 299.805 131.714 319.117 131.714 319.117L112.905 310.825C111.783 310.318 111.539 308.945 111.481 307.74L111.022 280.824C110.696 278.947 111.981 277.135 113.921 276.735C140.414 271.237 163.496 259.322 186.004 245.94C186.294 245.764 186.665 245.781 186.929 245.987C189.607 248.059 204.301 256.771 204.872 258.71L198.776 281.175C199.003 282.451 198.481 283.772 197.399 284.574Z" fill="#276ED8" stroke="white" stroke-width="1.3333"/>
<path id="Vector_95" d="M163.336 263.004C164.603 263.773 165.957 264.504 167.333 265.254C167.607 265.385 167.887 265.504 168.167 265.628C164.405 263.241 160.586 260.936 156.814 258.568C156.733 258.605 156.651 258.643 156.569 258.674C158.802 260.164 161.056 261.612 163.336 263.004Z" fill="white" stroke="white" stroke-width="1.3333"/>
<path id="Vector_96" d="M185.935 263.974C176.639 267.712 167.348 271.489 157.883 274.785C151.148 277.13 144.43 278.803 137.586 280.684C134.945 281.41 130.488 282.577 127.837 284.774C131.619 286.984 135.409 289.18 139.212 291.351C140.407 292.036 139.303 293.874 138.108 293.19C134.182 290.95 130.281 288.684 126.378 286.407C126.09 286.87 125.884 287.363 125.771 287.89C130.608 290.821 135.45 293.75 140.452 296.42C141.67 297.072 140.56 298.911 139.347 298.258C137.346 297.19 135.384 296.07 133.424 294.939C133.698 295.34 133.97 295.741 134.227 296.15C136.285 299.414 137.888 302.975 139.126 306.647C139.262 306.599 139.395 306.553 139.532 306.506C141.313 305.795 143.162 305.235 144.912 304.715C149.921 303.228 154.866 302.091 159.686 300.081C160.471 299.736 161.251 299.392 162.03 299.055C170.937 295.111 179.581 290.629 188.238 286.185C190.956 284.516 193.633 282.787 196.288 281.023C196.842 279.07 197.41 277.12 197.99 275.18C198.669 272.292 199.414 269.416 200.191 266.55C200.443 263.852 200.629 261.144 200.81 258.438C200.388 258.154 199.967 257.87 199.552 257.591C195.271 260.189 190.51 262.132 185.935 263.974Z" fill="white" stroke="white" stroke-width="1.3333"/>
<path id="Vector_97" d="M122.832 314.089L117.496 285.486C116.991 282.787 118.555 280.086 121.215 279.061L192.15 251.708C193.13 251.329 194.134 251.227 195.088 251.342C193.506 249.899 191.124 249.361 188.884 250.22L117.948 277.573C115.289 278.598 113.725 281.299 114.23 283.999L119.566 312.601C119.926 314.539 121.687 315.803 123.599 315.746C123.222 315.285 122.948 314.726 122.832 314.089Z" fill="#06B25F" stroke="white" stroke-width="1.3333"/>
<path id="Vector_98" d="M206.106 291.816L135.768 318.963C132.113 320.376 128.104 318.223 127.459 314.508L123.125 289.515C122.601 286.498 124.529 283.545 127.594 282.672C151.505 275.857 174.586 266.947 196.913 256.148C200.64 254.345 205.044 256.449 205.726 260.381L210.024 285.157C210.504 287.962 208.869 290.75 206.106 291.816Z" fill="#84B5FF" stroke="white" stroke-width="1.3333"/>
<path id="Vector_99" d="M178.003 272.1L150.836 282.706C149.618 283.182 148.291 282.431 148.124 281.174L148.087 280.882C147.965 279.962 148.527 279.063 149.429 278.741C159.114 275.258 168.159 271.971 176.519 268.47C177.721 267.969 179.063 268.667 179.273 269.91C179.435 270.834 178.9 271.75 178.003 272.1Z" fill="#06B25F" stroke="white" stroke-width="1.3333"/>
<path id="Vector_100" d="M205.624 291.762L136.144 318.574C132.533 319.968 128.574 317.84 127.938 314.174L123.657 289.486C123.14 286.508 125.045 283.593 128.07 282.727C151.687 275.998 174.482 267.19 196.535 256.525C200.22 254.747 204.566 256.822 205.24 260.705L209.483 285.175C209.967 287.958 208.348 290.709 205.624 291.762Z" stroke="#1351AC" stroke-width="2.99992"/>
<path id="Vector_101" d="M122.112 309.709C121.66 310.063 121.031 310.127 120.522 309.867L108.812 303.939L104.277 287.854C104.098 287.216 104.421 286.541 105.043 286.247C105.469 286.044 105.963 286.02 106.404 286.168L118.649 290.394C119.225 290.592 119.642 291.065 119.746 291.643L122.721 308.152C122.831 308.734 122.601 309.331 122.112 309.709Z" fill="#194484" stroke="white" stroke-width="1.3333"/>
<path id="Vector_102" d="M120.302 309.902L108.347 305.529C107.699 305.292 107.234 304.754 107.117 304.104L104.194 287.927C104.102 287.414 104.633 287.002 105.14 287.184L117.109 291.566C117.712 291.788 118.154 292.297 118.263 292.903L121.206 309.189C121.3 309.679 120.79 310.077 120.302 309.902Z" fill="#194484" stroke="white" stroke-width="1.3333"/>
<path id="Vector_103" d="M114.07 303.557L109.654 301.926C109.235 301.772 108.927 301.414 108.853 300.994L107.69 294.429C107.53 293.523 108.476 292.789 109.38 293.126L113.827 294.768C114.229 294.92 114.519 295.253 114.591 295.657L115.76 302.254C115.92 303.16 114.973 303.888 114.07 303.557Z" fill="#276ED8" stroke="white" stroke-width="1.3333"/>
<path id="Vector_104" d="M113.481 304.003L109.065 302.371C108.645 302.218 108.338 301.859 108.264 301.439L107.101 294.874C106.94 293.968 107.886 293.235 108.791 293.571L113.238 295.214C113.64 295.365 113.93 295.698 114.002 296.102L115.171 302.7C115.325 303.601 114.378 304.335 113.481 304.003Z" fill="#06B25F" stroke="white" stroke-width="1.3333"/>
</g>
<path id="Vector_105" d="M393.245 184.995H338.652C334.587 184.995 331.29 188.22 331.29 192.2V281.104V301.386C331.29 305.397 334.621 308.591 338.652 308.591H393.245C397.309 308.591 400.606 305.367 400.606 301.386V212.483V192.2C400.606 188.184 397.271 184.995 393.245 184.995Z" fill="#276ED8" stroke="white" stroke-width="1.3333"/>
<path id="Vector_106" d="M397.039 194.814H334.86V298.773H397.039V194.814Z" fill="white" stroke="white" stroke-width="1.3333"/>
<path id="cub" class="cub" d="M376.586 257.674L370.551 246.496L376.586 235.314L379.501 246.496L376.586 257.674ZM363.135 256.602L355.543 248.312H367.612L373.645 259.492L363.135 256.602ZM363.135 236.388L373.645 233.499L367.612 244.679H355.543L363.135 236.388ZM378.577 227.994L364.837 231.932L362.804 235.771L358.677 235.738L348.619 246.496L358.677 257.253L362.801 257.22L364.839 261.055L378.577 264.993L382.258 250.302L380.166 246.496L382.258 242.691L378.577 227.994Z" fill="#06B25F" stroke="white" stroke-width="1.3333"/>
<path id="Vector_107" d="M378.767 191.547H353.23C352.934 191.547 352.695 191.313 352.695 191.023V190.768C352.695 190.479 352.933 190.244 353.23 190.244H378.767C379.062 190.244 379.302 190.478 379.302 190.768V191.023C379.301 191.312 379.062 191.547 378.767 191.547Z" fill="white" stroke="white" stroke-width="1.3333"/>
<path id="Vector_108" d="M397.039 292.624H334.86V298.774H397.039V292.624Z" fill="#84B5FF" stroke="white" stroke-width="1.3333"/>
<path id="Vector_109" d="M397.039 194.814H334.86V200.331H397.039V194.814Z" fill="#84B5FF" stroke="white" stroke-width="1.3333"/>
</g>
</g>
</g>
</g>
</g>
<defs>
<clipPath id="clip0_1_2">
<rect width="526" height="408" fill="white"/>
</clipPath>
</defs>
</svg>
