<svg width="66" height="66" viewBox="0 0 66 66" fill="none" xmlns="http://www.w3.org/2000/svg">
<path opacity="0.2" d="M57.6651 27.7613L66 29.329V36.8017L57.6651 38.2387C57.0249 41.3088 55.81 44.1829 54.1377 46.7304L58.9192 53.7458L53.6283 59.0368L46.7173 54.1508C44.1698 55.823 41.3088 57.0249 38.2256 57.6651L36.6579 66H29.1852L27.7482 57.6651C24.6782 57.0249 21.804 55.81 19.2565 54.1378L12.2541 58.9192L6.96318 53.6283L11.8492 46.7173C10.1769 44.1698 8.97505 41.2957 8.3349 38.2257L0 36.658V29.1853L8.3349 27.7482C8.97505 24.6651 10.19 21.804 11.8622 19.2565L7.08076 12.2542L12.3717 6.96318L19.2957 11.8492C21.8432 10.177 24.7173 8.962 27.7874 8.33492L29.3551 0H36.8278L38.2648 8.33492C41.348 8.97506 44.209 10.19 46.7565 11.8622L53.7589 7.08076L59.0499 12.3717L54.1639 19.2827C55.823 21.8171 57.0249 24.6781 57.6651 27.7613ZM33 17.519C24.456 17.519 17.5321 24.4561 17.5321 32.9869C17.5321 41.5178 24.456 48.4549 33 48.4549C41.5439 48.4549 48.4679 41.5309 48.4679 32.9869C48.4679 24.443 41.5439 17.519 33 17.519Z" fill="#84B5FF"/>
</svg>
