<svg width="322" height="399" viewBox="0 0 322 399" fill="none" xmlns="http://www.w3.org/2000/svg">
<g id="pazl" clip-path="url(#clip0_1_2)">
<rect width="322" height="399" fill="white"/>
<g id="Mask group">
<mask id="mask0_1_2" style="mask-type:alpha" maskUnits="userSpaceOnUse" x="0" y="0" width="322" height="399">
<g id="Group">
<path id="Vector" d="M306 0H16C7.16344 0 0 7.4627 0 16.6684V382.332C0 391.537 7.16344 399 16 399H306C314.837 399 322 391.537 322 382.332V16.6684C322 7.4627 314.837 0 306 0Z" fill="#3D27C7"/>
</g>
</mask>
<g mask="url(#mask0_1_2)">
<g id="Group_2">
<g id="left_hand">
<path id="Vector_2" d="M253.067 137.42C255.533 140.374 260.076 140.629 263.228 137.988L272.266 130.398C275.418 127.757 275.97 123.21 273.504 120.255C271.039 117.301 266.495 117.047 263.344 119.686L253.813 130.394C250.67 133.04 250.601 134.465 253.067 137.42Z" fill="#DEC29B"/>
<path id="Vector_3" d="M261.175 153.585C264.087 155.868 268.475 155.242 270.961 152.196L278.121 143.444C280.615 140.397 280.271 136.079 277.359 133.795C274.447 131.512 270.059 132.138 267.574 135.184L260.547 146.92C258.044 149.969 258.255 151.303 261.175 153.585Z" fill="#DEC29B"/>
<path id="Vector_4" d="M267.084 164.428C269.775 166.19 273.542 165.357 275.507 162.57L281.131 154.546C283.094 151.751 282.501 148.056 279.809 146.293C277.118 144.531 273.35 145.364 271.386 148.151L266.081 158.736C264.117 161.523 264.392 162.665 267.084 164.428Z" fill="#DEC29B"/>
<path id="Vector_5" d="M302.676 129.939C302.676 129.939 277.135 134.849 274.772 135.407C272.4 135.965 258.956 122.03 265.021 116.774C275.441 107.709 302.676 129.939 302.676 129.939Z" fill="#D3AF85"/>
<path id="Vector_6" d="M303.451 130.865C303.451 130.865 277.669 135.859 275.284 136.426C272.89 136.993 302.898 168.574 305.552 155.214C308.214 141.852 303.451 130.865 303.451 130.865Z" fill="#DEC29B"/>
<path id="Vector_7" d="M247.473 125.077C249.833 128.11 254.357 128.506 257.58 125.958L266.832 118.643C270.055 116.094 270.75 111.567 268.39 108.534C266.031 105.501 261.507 105.105 258.284 107.653L248.45 118.073C245.225 120.612 245.113 122.044 247.473 125.077Z" fill="#EAD7B7"/>
<path id="Vector_8" d="M255.37 114.036C255.556 117.904 258.908 120.682 262.851 120.249L284.851 117.454C288.795 117.022 291.844 113.53 291.657 109.662C291.471 105.794 288.12 103.015 284.176 103.448C284.176 103.448 273.007 105.375 262.176 106.243C258.226 106.559 255.184 110.168 255.37 114.036Z" fill="#EAD7B7"/>
<path id="Vector_9" d="M276.966 108.36C274.011 112.558 274.02 116.107 277.438 119.525C281.262 123.355 284.888 126.952 289.809 127.592C292.506 137.149 301.879 139.414 301.879 139.414C305.928 142.079 312.987 138.005 315.942 133.808C318.897 129.61 318.016 124.04 313.966 121.375C313.966 121.375 302.258 114.934 289.648 105.588C285.765 102.7 279.929 104.162 276.966 108.36Z" fill="#EAD7B7"/>
<path id="Vector_10" d="M258.429 109.409L258.503 109.37C260.948 108.065 263.695 107.762 266.236 108.502C268.777 109.242 270.813 110.942 271.959 113.274L274.692 118.733L265.285 119.956L257.466 126.141C256.929 126.571 256.346 126.912 255.745 127.18L253.667 123.02C251.315 118.218 253.444 112.113 258.429 109.409Z" fill="#DEC29B"/>
<path id="Vector_11" d="M310.271 122.836C304.04 123.54 300.369 134.175 296.111 136.846C282.435 145.421 289.561 173.31 289.561 173.31C287.799 183.17 293.316 195.503 303.435 200.267C315.398 205.9 326.153 198.002 325.435 183.967L322.435 131.351C322.165 125.685 319.061 123.9 315.043 122.001L310.271 122.836Z" fill="#EAD7B7"/>
<g id="Group_3" filter="url(#filter0_d_1_2)">
<path id="Vector_12" d="M169.844 180.702C169.387 180.788 168.966 180.538 168.825 180.11C168.827 180.052 168.82 179.995 168.812 179.929L164.495 145.884C164.438 144.485 165.038 144.373 165.561 144.266C166.256 144.136 167.581 144.131 169.939 144.831L173.014 145.726L172.968 145.357C174.058 145.425 175.17 145.353 176.275 145.146C183.798 143.724 189.13 136.541 188.193 129.117C187.25 121.712 180.401 116.818 172.914 118.213C171.781 118.425 170.694 118.772 169.66 119.235L169.61 118.839L166.898 120.851C165.383 121.984 164.056 122.674 163.074 122.858C162.341 122.994 162.056 122.816 161.887 122.635C161.675 122.423 161.513 122.058 161.417 121.602L157.132 87.8118C157.125 87.7551 157.117 87.6891 157.1 87.6343C157.131 87.1747 157.472 86.7828 157.928 86.6882L192.258 80.2217C194.029 79.7275 195.258 78.7163 195.789 77.3522C196.432 75.7068 196.043 73.6838 194.646 71.3176L194.713 71.3052L193.789 69.9903C192.831 68.6432 192.231 67.1135 192.022 65.4431C191.283 59.6713 195.447 54.0669 201.285 52.9692C207.143 51.8773 212.482 55.6909 213.213 61.4644C213.42 63.1253 213.23 64.8024 212.655 66.445L212.093 68.0367L212.16 68.0243C211.336 70.9493 211.439 73.0254 212.461 74.3414C213.041 75.083 214.208 75.9276 216.487 75.6767L250.98 69.1799C251.504 69.0823 251.985 69.427 252.059 69.9443L256.369 103.933C256.956 106.605 258.819 107.87 261.363 107.396C262.477 107.188 263.744 106.642 265.144 105.755L265.152 105.82L266.527 104.811C267.937 103.766 269.507 103.068 271.193 102.754C277.051 101.662 282.391 105.476 283.121 111.249C283.48 114.049 282.705 116.898 280.961 119.251C279.209 121.615 276.688 123.205 273.859 123.733C272.164 124.048 270.506 123.962 268.907 123.487L267.348 123.024L267.356 123.09C265.682 122.717 264.299 122.646 263.137 122.863C260.65 123.326 259.291 125.163 259.418 127.902L263.748 162.05C263.812 162.569 263.437 163.074 262.913 163.171L228.449 169.664C227.044 169.809 226.97 169.215 226.896 168.697C226.81 168.008 226.889 166.69 227.737 164.272L228.827 161.133L228.446 161.204C228.581 160.098 228.579 158.987 228.441 157.884C227.498 150.479 220.649 145.585 213.162 146.981C205.638 148.393 200.307 155.586 201.244 163.011C201.382 164.115 201.66 165.174 202.058 166.181L201.668 166.254L203.502 168.848C204.532 170.306 205.15 171.583 205.271 172.554C205.36 173.271 205.165 173.579 204.973 173.759C204.746 173.974 204.371 174.17 203.9 174.296L169.844 180.702Z" fill="#06B25F"/>
</g>
<path id="Vector_13" d="M202.35 114.154L209.136 97.4447L213.081 102.375L209.067 112.818L214.759 119.901L211.988 126.167L202.35 114.154Z" fill="white"/>
<path id="Vector_14" d="M213.979 103.626L211.561 109.822L212.812 111.001L219.175 109.736L213.979 103.626Z" fill="white"/>
<path id="Vector_15" d="M214.072 117.537L210.127 112.607L226.388 109.374L237.276 122.568L230.913 123.833L223.969 115.569L214.072 117.537Z" fill="white"/>
<path id="Vector_16" d="M223.052 116.824L217.043 118.019L212.885 127.417L202.281 129.526L199.815 135.375L217.184 132.278L223.052 116.824Z" fill="white"/>
<path id="Vector_17" d="M225.555 119.183L223.08 119.676L220.662 125.871L229.499 124.114L225.555 119.183Z" fill="white"/>
<path id="Vector_18" d="M210.029 125.128L206.132 120.545L202.443 128.065L209.16 126.73L210.029 125.128Z" fill="white"/>
<path id="Vector_19" d="M271.638 164.877L263.343 139.824L254.923 123.109C252.808 118.829 254.727 113.441 259.215 111.071C263.703 108.701 269.061 110.244 271.176 114.523L278.249 128.558L294.787 152.64C297.626 157.297 294.562 164.259 287.733 167.863C280.913 171.474 273.642 169.986 271.638 164.877Z" fill="#EAD7B7"/>
<path id="Vector_20" d="M273.633 179.638C277.782 203.184 302.848 208.394 316.029 201.25C329.21 194.107 325.061 178.172 324.361 157.423C323.974 145.929 306.542 166.338 288.718 144.782C279.292 145.569 273.04 149.361 267.623 152.3C267.632 152.298 270.198 160.182 273.633 179.638Z" fill="#EAD7B7"/>
<path id="Vector_21" d="M325.898 191.647C323.471 208.063 326.793 212.791 328.97 217.125L299.27 233.232C299.27 233.232 300.476 216.671 284.528 198.271C309.493 188.583 325.898 191.647 325.898 191.647Z" fill="#EAD7B7"/>
<path id="Vector_22" d="M367.839 340.362L327.206 205.14L295.308 223.281L325.763 379.987L367.839 340.362Z" fill="#276ED8"/>
</g>
<g id="right_hand">
<path id="Vector_23" d="M59.1425 144.252L55.6665 133.881C54.6476 131.728 52.7019 130.172 50.8013 129.782C46.0708 127.993 39.5699 125.465 35.2834 123.8C34.242 122.859 32.738 122.422 31.339 122.259C30.999 122.129 30.8141 122.049 30.8141 122.049C29.5438 121.686 28.312 121.915 27.3217 122.573C18.0962 126.656 7.71069 132.421 7.71069 132.421C5.2138 134.061 6.43387 139.714 8.52438 142.415C10.6149 145.115 17.6388 154.542 20.1272 152.899C20.1272 152.899 22.8768 143.629 26.6548 140.344C28.5847 140.13 32.132 137.501 35.1174 134.941C38.6515 136.301 43.3575 137.831 48.0876 138.497L50.9921 144.612C52.3727 147.517 55.4271 149.342 57.8135 148.68C60.1998 148.019 60.523 147.157 59.1425 144.252Z" fill="#DEC29B"/>
<path id="Vector_24" d="M59.9657 146.901C59.9928 146.272 59.7113 145.429 59.1527 144.256L55.6766 133.885C54.6577 131.731 52.7119 130.176 50.8113 129.786C46.0806 127.996 39.5794 125.468 35.2928 123.805C34.2513 122.862 32.7473 122.425 31.3483 122.263C31.0083 122.133 30.8233 122.053 30.8233 122.053C29.553 121.689 28.3211 121.918 27.3308 122.577C18.1049 126.659 7.71899 132.424 7.71899 132.424C5.222 134.064 6.4421 139.718 8.53268 142.418C10.6233 145.119 17.6474 154.546 20.1359 152.903C20.1359 152.903 21.1844 149.389 22.8675 145.916C23.7957 143.591 24.9598 141.33 26.3289 139.917C28.4109 139.52 32.0514 136.294 35.0855 133.2C39.0564 134.432 44.3155 135.751 49.5389 136.112L53.2348 142.703C54.7419 145.414 57.5773 147.112 59.9657 146.901Z" fill="#D3AF85"/>
<path id="Vector_25" d="M67.5067 139.988L63.0382 126.661C61.724 123.893 59.2291 121.902 56.7805 121.391C50.7069 119.087 42.3528 115.852 36.8464 113.704C35.5111 112.493 33.5822 111.929 31.7735 111.722C31.34 111.556 31.1041 111.457 31.1041 111.457C29.4769 110.992 27.8825 111.281 26.6172 112.129C14.7611 117.367 1.41815 124.778 1.41815 124.778C-1.7834 126.882 -0.223564 134.144 2.45787 137.615C5.1499 141.081 14.1645 153.197 17.3661 151.093C17.3661 151.093 20.9026 139.182 25.7547 134.959C28.2339 134.688 32.7881 131.301 36.6213 128.021C41.1564 129.771 47.2095 131.729 53.2835 132.59L57.0164 140.448C58.7865 144.175 62.713 146.524 65.7776 145.671C68.8421 144.82 69.2768 143.715 67.5067 139.988Z" fill="#DEC29B"/>
<path id="Vector_26" d="M68.5519 143.387C68.5889 142.579 68.2301 141.5 67.5088 139.989L63.0403 126.661C61.726 123.894 59.231 121.903 56.7824 121.391C50.7086 119.087 42.3543 115.852 36.8477 113.705C35.5123 112.494 33.5833 111.929 31.7747 111.722C31.3411 111.556 31.1052 111.457 31.1052 111.457C29.4779 110.992 27.8835 111.281 26.6182 112.129C14.7617 117.367 1.41837 124.778 1.41837 124.778C-1.78328 126.883 -0.223425 134.144 2.45808 137.615C5.15018 141.082 14.165 153.198 17.3667 151.093C17.3667 151.093 18.7102 146.576 20.873 142.111C22.0617 139.125 23.5562 136.22 25.3161 134.394C27.9982 133.889 32.6703 129.744 36.5666 125.769C41.6613 127.353 48.4306 129.049 55.1248 129.516L59.8767 137.979C61.8411 141.47 65.4827 143.658 68.5519 143.387Z" fill="#D3AF85"/>
<path id="Vector_27" d="M73.226 133.264L67.1941 118.735C65.5186 115.757 62.6239 113.722 59.9062 113.347C53.0698 111.265 43.6583 108.309 37.4564 106.35C35.8922 105.102 33.7355 104.63 31.74 104.541C31.2544 104.389 30.9775 104.3 30.9775 104.3C29.1573 103.906 27.449 104.36 26.1366 105.406C13.6338 112.204 -0.305165 121.534 -0.305165 121.534C-3.62128 124.14 -1.29155 132.129 1.94155 135.782C5.18317 139.437 16.079 152.248 19.4037 149.644C19.4037 149.644 22.2391 136.062 27.1701 130.958C29.8588 130.456 34.5427 126.314 38.4488 122.341C43.556 123.934 50.3419 125.641 57.0526 126.117L61.8155 134.596C64.0759 138.621 68.5606 140.927 71.8464 139.736C75.1194 138.559 75.4864 137.288 73.226 133.264Z" fill="#DEC29B"/>
<path id="Vector_28" d="M27.3476 143.979C27.3476 143.979 23.0442 155.559 35.5705 165.499C23.1934 159.166 16.8552 142.561 19.2533 133.95C21.6601 125.344 27.3476 143.979 27.3476 143.979Z" fill="#D3AF85"/>
<path id="Vector_29" d="M79.3763 95.6005C78.7521 99.2088 74.461 101.15 69.7999 99.9314L56.4023 96.4309C51.7328 95.2093 48.4584 91.2953 49.0826 87.687C49.7067 84.0787 53.9979 82.1378 58.6589 83.3561L74.4145 89.5013C79.0755 90.7196 80.0005 91.9922 79.3763 95.6005Z" fill="#EAD7B7"/>
<path id="Vector_30" d="M61.3936 88.883C63.5481 93.2185 62.0464 97.1619 58.7881 98.9558C46.8632 105.51 31.5763 107.064 31.5763 107.064C27.9879 108.286 23.3299 105.764 21.1776 101.421C19.0232 97.0857 20.1926 92.5784 23.7831 91.3484C23.7831 91.3484 43.3027 87.0653 54.4592 84.4481C58.2052 83.557 59.2414 84.5398 61.3936 88.883Z" fill="#EAD7B7"/>
<path id="Vector_31" d="M27.4114 91.5302C30.9973 94.0499 36.0269 93.9986 34.6006 98.4479C33.0027 103.433 27.4125 118.254 23.9527 120.849C21.0563 128.133 21.9571 143.42 21.9571 143.42C19.8096 147.464 7.61576 138.454 4.02986 135.934C0.443966 133.414 -3.42786 126.019 -1.28251 121.983C-1.28251 121.983 8.31446 106.388 17.2083 94.2625C17.9724 93.218 23.8255 89.0104 27.4114 91.5302Z" fill="#EAD7B7"/>
<path id="Vector_32" d="M11.9351 123.953C17.9964 126.492 23.5341 127.284 23.238 131.899C22.2665 147.367 30.203 160.269 36.7365 162.276C46.8212 165.381 11.6002 195.224 0.351694 196.485C-12.9503 197.973 -21.8208 187.531 -17.7668 174.967L-5.45289 124.745C-3.83712 119.67 2.88431 122.246 7.36143 121.737L11.9351 123.953Z" fill="#EAD7B7"/>
<path id="Vector_33" d="M17.792 204.237C28.1478 202.84 36.9157 198.797 44.4672 195.377C47.3574 194.066 57.8248 188.292 65.7122 185.236L78.384 173.127C80.1111 171.073 87.1277 168.616 85.437 163.919C83.7462 159.223 76.2952 156.943 71.8048 157.927C64.3854 159.554 59.3965 167.215 55.4689 168.256C32.2535 163.259 27.3034 162.676 27.3034 162.676C21.9946 163.305 -18.9682 177.711 -16.3975 184.853C-13.8349 191.988 12.5054 204.945 17.792 204.237Z" fill="#EAD7B7"/>
<path id="Vector_34" d="M34.4712 187.346C24.8542 207.428 -1.27482 204.509 -12.714 194.004C-24.1533 183.497 -16.3146 170.324 -10.7791 151.721C-7.71576 141.419 1.10751 165.347 23.8547 151.234C29.5053 161.528 31.5845 163.791 45.0359 167.198C47.2032 166.275 42.4172 170.739 34.4712 187.346Z" fill="#EAD7B7"/>
<path id="Vector_35" d="M-16.5356 167.063C-19.7647 189.061 -24.6735 194.329 -28.3009 199.378L2.23883 236.317C2.23883 236.317 7.93579 219.876 26.5797 192.08C5.20491 172.832 -16.5356 167.063 -16.5356 167.063Z" fill="#EAD7B7"/>
<path id="Vector_36" d="M-5.32776 247.94L13.3033 218.952L-23.6827 196.688L-52.5414 229.869L-5.32776 247.94Z" fill="#84B5FF"/>
<g id="Group_4" filter="url(#filter1_d_1_2)">
<path id="Vector_37" d="M43.3315 135.219C42.8839 135.052 42.5901 134.603 42.6285 134.149C42.6534 134.099 42.6717 134.036 42.6873 133.983L52.062 101.58C52.5633 100.314 53.1414 100.531 53.6636 100.727C54.3444 100.982 55.5475 101.681 57.4103 103.564L59.8468 106L59.9509 105.64C60.9224 106.283 61.9583 106.81 63.0494 107.22C66.6115 108.554 70.3377 108.467 73.5584 106.986C76.779 105.505 79.0912 102.808 80.0831 99.3867C82.1294 92.3294 77.8184 84.3435 70.4797 81.5939C69.3793 81.1816 68.2705 80.9055 67.1532 80.7656L67.26 80.3976L64.0217 80.7272C62.2006 80.9108 60.7287 80.8173 59.7683 80.4575C59.0596 80.1919 58.8609 79.8787 58.7783 79.6286C58.6689 79.3288 58.6637 78.9188 58.754 78.4649L68.0703 46.2993C68.0859 46.2455 68.1041 46.1826 68.1104 46.1252C68.3167 45.7347 68.7782 45.5691 69.2258 45.7369L102.847 58.3139C104.645 58.818 106.152 58.5764 107.162 57.6607C108.384 56.546 108.828 54.5522 108.485 51.7062L108.55 51.7306L108.224 50.0754C107.882 48.3647 107.94 46.7041 108.401 45.1148C109.174 42.4482 110.973 40.3448 113.49 39.1875C116.007 38.0302 118.908 37.9724 121.677 39.01C127.403 41.1552 130.757 47.379 129.161 52.883C128.703 54.4633 127.878 55.8465 126.708 56.9911L125.571 58.0977L125.636 58.1222C123.751 60.2729 123.03 62.153 123.445 63.861C123.682 64.8259 124.412 66.1944 126.566 67.1806L160.353 79.8295C160.865 80.0216 161.168 80.5829 161.025 81.0767L151.663 113.435C151.153 116.12 152.35 118.231 154.849 119.168C155.94 119.576 157.301 119.768 158.904 119.73L158.885 119.794L160.525 119.631C162.218 119.459 163.91 119.685 165.551 120.3C171.277 122.445 174.631 128.669 173.035 134.173C172.262 136.84 170.463 138.943 167.946 140.1C165.441 141.252 162.528 141.316 159.759 140.278C158.108 139.659 156.63 138.698 155.367 137.419L154.137 136.17L154.119 136.234C152.746 135.013 151.513 134.203 150.375 133.776C147.942 132.864 146.004 133.771 145.054 136.262L135.639 168.769C135.496 169.262 134.959 169.509 134.446 169.317L100.694 156.691C99.3666 156.064 99.528 155.508 99.6738 155.005C99.8639 154.349 100.448 153.224 102.167 151.54L104.385 149.345L104.012 149.204C104.565 148.297 104.995 147.313 105.3 146.262C107.346 139.205 103.035 131.219 95.6963 128.47C92.1342 127.135 88.408 127.223 85.1873 128.703C81.9666 130.184 79.6545 132.882 78.6626 136.303C78.358 137.353 78.1891 138.434 78.1586 139.537L77.7763 139.395L78.4302 142.666C78.7963 144.505 78.8503 145.959 78.5796 146.892C78.3817 147.575 78.085 147.743 77.8408 147.8C77.5489 147.88 77.1353 147.845 76.668 147.709L43.3315 135.219Z" fill="#276ED8"/>
</g>
</g>
</g>
</g>
</g>
</g>
<defs>
<filter id="filter0_d_1_2" x="145.1" y="44.7826" width="150.107" height="151.936" filterUnits="userSpaceOnUse" color-interpolation-filters="sRGB">
<feFlood flood-opacity="0" result="BackgroundImageFix"/>
<feColorMatrix in="SourceAlpha" type="matrix" values="0 0 0 0 0 0 0 0 0 0 0 0 0 0 0 0 0 0 127 0" result="hardAlpha"/>
<feOffset dy="4"/>
<feGaussianBlur stdDeviation="6"/>
<feColorMatrix type="matrix" values="0 0 0 0 0.160784 0 0 0 0 0.0941176 0 0 0 0 0.435294 0 0 0 0.25 0"/>
<feBlend mode="normal" in2="BackgroundImageFix" result="effect1_dropShadow_1_2"/>
<feBlend mode="normal" in="SourceGraphic" in2="effect1_dropShadow_1_2" result="shape"/>
</filter>
<filter id="filter1_d_1_2" x="30.6251" y="30.2733" width="154.807" height="155.109" filterUnits="userSpaceOnUse" color-interpolation-filters="sRGB">
<feFlood flood-opacity="0" result="BackgroundImageFix"/>
<feColorMatrix in="SourceAlpha" type="matrix" values="0 0 0 0 0 0 0 0 0 0 0 0 0 0 0 0 0 0 127 0" result="hardAlpha"/>
<feOffset dy="4"/>
<feGaussianBlur stdDeviation="6"/>
<feColorMatrix type="matrix" values="0 0 0 0 0.160784 0 0 0 0 0.0941176 0 0 0 0 0.435294 0 0 0 0.25 0"/>
<feBlend mode="normal" in2="BackgroundImageFix" result="effect1_dropShadow_1_2"/>
<feBlend mode="normal" in="SourceGraphic" in2="effect1_dropShadow_1_2" result="shape"/>
</filter>
<clipPath id="clip0_1_2">
<rect width="322" height="399" fill="white"/>
</clipPath>
</defs>
</svg>
