<svg width="103" height="103" viewBox="0 0 103 103" fill="none" xmlns="http://www.w3.org/2000/svg">
<g opacity="0.2" clip-path="url(#clip0_52_3)">
<path d="M37.9486 28.1585C36.8261 28.8066 35.389 28.4215 34.741 27.299L31.6774 21.9928C31.0293 20.8702 31.4144 19.4332 32.5369 18.7851C33.6594 18.137 35.0964 18.5221 35.7445 19.6446L38.8081 24.9508C39.4562 26.0734 39.0711 27.5104 37.9486 28.1585Z" fill="#84B5FF"/>
<path d="M60.0268 25.2522C59.5063 25.5528 58.8714 25.6554 58.2454 25.4854C56.9923 25.1496 56.2487 23.8617 56.5845 22.6086L58.1705 16.6895C58.5063 15.4363 59.7942 14.6928 61.0473 15.0285C62.3004 15.3643 63.044 16.6522 62.7082 17.9053L61.1222 23.8245C60.9522 24.4505 60.5474 24.9517 60.0268 25.2522Z" fill="#84B5FF"/>
<path d="M82.9992 35.7446L77.693 38.8082C76.5705 39.4563 75.1334 39.0712 74.4854 37.9487C73.8373 36.8262 74.2223 35.3892 75.3448 34.7411L80.6511 31.6775C81.7736 31.0294 83.2106 31.4145 83.8587 32.537C84.5068 33.6595 84.1217 35.0966 82.9992 35.7446Z" fill="#84B5FF"/>
<path d="M86.519 62.4717C85.9984 62.7722 85.3635 62.8749 84.7375 62.7048L78.8184 61.1188C77.5653 60.783 76.8217 59.4951 77.1575 58.242C77.4932 56.9889 78.7811 56.2453 80.0343 56.5811L85.9534 58.1671C87.2065 58.5029 87.9501 59.7908 87.6143 61.0439C87.4459 61.6726 87.0396 62.1711 86.519 62.4717Z" fill="#84B5FF"/>
<path d="M43.3799 87.378C42.8593 87.6786 42.2244 87.7812 41.5985 87.6112C40.3453 87.2754 39.6018 85.9875 39.9375 84.7344L41.5236 78.8152C41.8593 77.5621 43.1473 76.8185 44.4004 77.1543C45.6535 77.4901 46.3971 78.778 46.0613 80.0311L44.4753 85.9503C44.3068 86.579 43.9005 87.0774 43.3799 87.378Z" fill="#84B5FF"/>
<path d="M27.299 67.9031L21.9928 70.9667C20.8703 71.6148 19.4333 71.2297 18.7852 70.1072C18.1371 68.9847 18.5221 67.5477 19.6447 66.8996L24.9509 63.836C26.0734 63.1879 27.5104 63.573 28.1585 64.6955C28.8066 65.818 28.4216 67.255 27.299 67.9031Z" fill="#84B5FF"/>
<path d="M24.393 45.8255C23.8724 46.1261 23.2375 46.2287 22.6115 46.0587L16.6924 44.4726C15.4393 44.1369 14.6957 42.849 15.0314 41.5958C15.3672 40.3427 16.6551 39.5991 17.9083 39.9349L23.8274 41.5209C25.0805 41.8567 25.8241 43.1446 25.4883 44.3977C25.3156 45.0253 24.9135 45.5249 24.393 45.8255Z" fill="#84B5FF"/>
<path d="M73.5452 71.0284L75.5019 74.4177C77.0048 77.0206 76.0994 80.3993 73.4965 81.9022L66.718 85.8157C64.4404 87.1307 60.9711 86.8199 58.7795 83.024L57.2767 80.421L73.5452 71.0284Z" fill="#84B5FF"/>
<path d="M54.7636 29.6684C48.2349 28.6295 41.5642 30.6009 36.5476 35.1241C30.2234 40.7638 27.7752 49.9861 30.4323 58.0323C33.1719 66.284 40.1642 72.008 48.658 73.0692C50.9465 73.3386 53.1227 74.5406 54.739 76.4634L54.7547 76.4905C54.7932 76.4321 54.8746 76.3852 54.9288 76.3538L71.1972 66.9613C71.2515 66.9299 71.2786 66.9143 71.3485 66.9101L71.3328 66.883C70.5227 64.6032 70.647 62.0007 71.6726 59.4564C74.1572 53.1775 73.6835 46.2206 70.3021 40.364C66.9834 34.6158 61.3351 30.7187 54.7636 29.6684ZM62.2728 46.8073C61.1611 47.4491 59.707 47.0595 59.0651 45.9478C56.6857 41.8265 51.4252 40.4169 47.3038 42.7964C46.1922 43.4382 44.738 43.0486 44.0962 41.9369C43.4544 40.8252 43.844 39.3711 44.9557 38.7293C51.3004 35.0662 59.4691 37.255 63.1323 43.5997C63.7741 44.7114 63.3845 46.1655 62.2728 46.8073Z" fill="#84B5FF"/>
<path d="M54.7389 76.4634L54.9287 76.3538C54.8745 76.3851 54.7932 76.4321 54.7546 76.4905L54.7389 76.4634Z" fill="#84B5FF"/>
<path d="M71.3326 66.883L71.3482 66.9101C71.2783 66.9143 71.2512 66.93 71.197 66.9613L71.3326 66.883Z" fill="#84B5FF"/>
</g>
<defs>
<clipPath id="clip0_52_3">
<rect width="75.1407" height="75.1407" fill="white" transform="translate(0 37.5703) rotate(-30)"/>
</clipPath>
</defs>
</svg>
