<svg width="401" height="404" viewBox="0 0 401 404" fill="none" xmlns="http://www.w3.org/2000/svg">
<g id="dedicat4 1">
<g id="Group 533">
<path id="Vector" opacity="0.08" d="M154.499 331.562C222.955 354.889 333.935 330.298 371.131 283.108C408.327 235.918 369.079 180.046 342.012 159.022C333.591 152.519 324.154 147.73 317.3 138.85C302.334 119.404 297.085 88.38 278.437 74.6258C262.308 62.7137 243.311 73.556 225.42 66.5174C217.611 63.5058 204.82 50.7312 191.612 48.0342C162.403 42.0692 73.005 122.104 64.9271 154.863C56.849 187.622 60.7588 299.619 154.499 331.562Z" fill="#84B5FF"/>
<g id="Group 474">
<path id="Vector_2" d="M302.831 266.879H287.214C286.599 266.879 286.096 266.289 286.096 265.552C286.096 264.823 286.594 264.226 287.214 264.226H302.831C303.446 264.226 303.948 264.816 303.948 265.552C303.948 266.282 303.446 266.879 302.831 266.879Z" fill="#66D6A0"/>
<path id="Vector_3" d="M302.831 273.498H287.214C286.599 273.498 286.096 272.908 286.096 272.172C286.096 271.442 286.594 270.846 287.214 270.846H302.831C303.446 270.846 303.948 271.436 303.948 272.172C303.948 272.902 303.446 273.498 302.831 273.498Z" fill="#66D6A0"/>
</g>
<g id="Mask Group">
<g id="Mask group">
<mask id="mask0_1_2" style="mask-type:alpha" maskUnits="userSpaceOnUse" x="15" y="50" width="372" height="293">
<g id="Group">
<path id="Vector_4" d="M154.868 333.931C223.324 357.258 334.304 332.666 371.5 285.477C408.695 238.286 369.447 182.414 342.381 161.391C333.959 154.888 324.523 150.098 317.668 141.219C302.703 121.772 297.453 90.7485 278.805 76.9943C262.677 65.0821 243.68 75.9244 225.788 68.8858C217.98 65.8743 205.188 53.0997 191.981 50.4026C162.771 44.4377 24.7542 131.812 16.6761 164.571C8.59799 197.33 61.1275 301.988 154.868 333.931Z" fill="#276ED8"/>
</g>
</mask>
<g mask="url(#mask0_1_2)">
<g id="Group_2">
<g id="Group 442">
<path id="gear1r_5" class="gear1" opacity="0.2" d="M154.174 179.302L160.159 177.966V171.597L154.174 170.372C153.714 167.755 152.842 165.306 151.641 163.134L155.075 157.155L151.275 152.645L146.313 156.81C144.484 155.384 142.43 154.36 140.216 153.815L139.091 146.71H133.725L132.693 153.815C130.49 154.36 128.426 155.396 126.597 156.821L121.569 152.745L117.77 157.255L121.278 163.146C120.078 165.317 119.214 167.767 118.755 170.384L112.77 171.72V178.089L118.755 179.314C119.214 181.942 120.087 184.38 121.288 186.551L117.854 192.52L121.653 197.029L126.625 192.864C128.454 194.29 130.517 195.326 132.722 195.861L133.848 202.964H139.213L140.245 195.861C142.458 195.315 144.513 194.279 146.341 192.854L151.369 196.929L155.168 192.419L151.66 186.529C152.851 184.369 153.714 181.93 154.174 179.302ZM136.464 188.032C130.33 188.032 125.358 182.12 125.358 174.848C125.358 167.577 130.33 161.665 136.464 161.665C142.599 161.665 147.57 167.566 147.57 174.848C147.57 182.13 142.599 188.032 136.464 188.032Z" fill="#84B5FF"/>
<path id="hair_6" class="hair" d="M233.936 217.182C243.224 225.634 256.705 229.057 267.09 222.517C270.347 220.471 273.347 217.201 273.992 212.994C274.766 207.927 272.008 202.687 273.17 197.715C274.185 193.317 277.894 190.621 280.652 187.37C284.651 182.666 286.973 176.107 286.957 169.509C286.94 162.912 284.619 156.372 280.603 151.687C277.2 147.71 272.766 145.147 268.864 141.82C265.784 139.181 263.01 135.758 261.543 131.609C260.091 127.517 261.285 125.107 261.495 121.091C261.93 112.505 260.107 102.906 254.899 96.5187C248.158 88.2194 238.144 88.3535 229.292 90.4952C224.809 91.5656 219.858 93.2296 215.924 96.0593C214.246 97.2647 213.134 98.7366 211.989 100.668C211.618 101.28 209.554 107.38 209.634 107.361C196.509 110.918 203.555 132.488 199.524 142.393C198.25 145.51 196.025 147.92 194.074 150.502C190.655 155.052 187.978 160.522 187.139 166.527C186.301 172.531 187.446 179.071 190.848 183.622C191.397 184.368 192.042 185.094 192.251 186.05C192.574 187.485 191.896 188.919 191.397 190.277C188.414 198.404 191.832 207.812 196.138 215.06C199.024 219.936 202.427 224.564 206.845 227.393C213.892 231.926 222.793 231.218 230.05 227.164" fill="url(#paint0_linear_1_2)"/>
<path id="Vector_7" opacity="0.42" d="M231.941 110.568C227.506 108.005 221.846 110.854 219.104 115.73C216.38 120.606 212.832 124.948 213.477 130.742C213.799 133.61 214.331 136.535 213.847 139.385C212.622 146.766 208.784 152.159 204.785 157.991C201.399 162.925 200.302 169.484 199.432 175.756C198.916 179.504 198.496 183.635 200.173 186.867C202.302 190.959 204.737 196.236 207.027 200.194C210.8 206.677 208.59 213.007 213.154 218.744C214.508 220.427 216.412 221.306 218.282 222.014C222.072 223.41 225.99 224.232 229.957 224.481C233.344 224.691 236.778 224.442 239.971 223.123C247.808 219.853 253.049 209.412 251.63 199.698C250.55 192.335 246.276 186.216 244.245 179.122C242.793 174.035 242.551 168.47 243.535 163.231C244.793 156.615 248.001 150.036 246.615 143.458" fill="#148951"/>
<g id="Mask Group_2">
<path id="circlefg_8" class="circle" d="M99.1635 99.1812C93.3402 99.1812 88.6217 104.783 88.6217 111.695C88.6217 118.607 93.3402 124.208 99.1635 124.208C104.986 124.208 109.705 118.607 109.705 111.695C109.705 104.783 104.986 99.1812 99.1635 99.1812ZM99.1635 121.091C94.7873 121.091 91.2432 116.883 91.2432 111.689C91.2432 106.495 94.7873 102.287 99.1635 102.287C103.539 102.287 107.083 106.495 107.083 111.689C107.083 116.883 103.539 121.091 99.1635 121.091Z" fill="#66D6A0"/>
<g id="Group 440">
<path id="Vector_9" d="M64.0204 285.059H49.2948C48.7151 285.059 48.2412 284.503 48.2412 283.808C48.2412 283.12 48.7101 282.558 49.2948 282.558H64.0204C64.6002 282.558 65.0741 283.115 65.0741 283.808C65.0741 284.497 64.6002 285.059 64.0204 285.059Z" fill="#66D6A0"/>
<path id="Vector_10" d="M64.0204 291.301H49.2948C48.7151 291.301 48.2412 290.744 48.2412 290.05C48.2412 289.362 48.7101 288.8 49.2948 288.8H64.0204C64.6002 288.8 65.0741 289.356 65.0741 290.05C65.0741 290.738 64.6002 291.301 64.0204 291.301Z" fill="#66D6A0"/>
</g>
<g id="Group 341">
<g id="Group 318">
<path id="Vector_11" d="M123.179 218.192C123.179 218.192 124.725 221.38 126.17 233.312C127.615 245.243 126.733 247.015 126.733 247.015C126.733 247.015 130.663 249.985 128.34 230.685C128.34 213.294 124.608 217.132 124.608 217.132L123.179 218.192Z" fill="url(#paint1_linear_1_2)" fill-opacity="0.5"/>
<path id="Vector_12" d="M124.202 217.311C124.202 217.311 125.82 216.731 126.469 218.271C127.118 219.812 129.147 238.3 128.582 243.5C128.01 248.699 126.392 246.779 126.392 246.779C126.392 246.779 126.552 249.858 127.606 250.728L127.612 250.72C127.625 250.713 127.651 250.689 127.683 250.659C127.708 250.644 127.74 250.613 127.779 250.583H127.786C128.409 250.095 130.566 248.402 132.557 246.779C134.908 244.85 136.289 243.21 136.289 243.21C136.289 243.21 135.961 240.13 135.961 239.268C135.961 238.399 141.158 217.883 146.263 211.531C151.029 205.608 146.347 172.236 145.691 167.73L145.615 167.227C145.615 167.227 141.478 168.676 139.693 170.224C137.914 171.779 131.498 190.535 131.177 200.164C130.849 209.794 127.933 215.26 127.933 215.26C127.933 215.26 126.957 214.558 125.332 215.26L124.202 217.311Z" fill="url(#paint2_linear_1_2)"/>
<path id="Vector_13" opacity="0.83" d="M127.786 250.583C128.409 250.095 130.566 248.402 132.557 246.779C134.908 244.85 136.289 243.21 136.289 243.21C136.289 243.21 135.961 240.13 135.961 239.268C135.961 238.399 141.158 217.883 146.263 211.531C151.029 205.608 146.347 172.236 145.691 167.73L145.615 167.227C145.615 167.227 142.249 172.236 140.791 182.202C139.327 192.174 141.395 211.821 141.395 211.821C141.395 211.821 138.479 227.71 131.299 228C131.299 228 137.323 238.468 134.947 243.721C134.491 244.72 128.883 249.66 127.786 250.583Z" fill="#3E64F9"/>
<path id="Vector_14" d="M141.518 342.553C141.653 344.307 141.909 345.725 142.218 346.96V346.967C142.738 349.095 143.393 350.688 143.753 352.518C144.318 355.407 144.967 366.653 144.967 366.653H162.006C161.358 362.491 160.548 359.265 159.571 348.858C158.64 338.909 163.65 304.615 164.08 301.68C164.1 301.55 164.112 301.482 164.112 301.482C168.493 323.241 179.244 348.477 180.343 349.918C181.434 351.367 183.625 352.663 183.625 352.663C184.845 355.407 187.401 366.653 187.401 366.653H206.99C205.898 360.707 200.907 351.801 199.321 348.477C197.741 345.153 191.781 322.471 190.195 307.451C189.533 301.192 189.026 294.581 188.653 288.993V288.978C188.133 281.171 187.883 275.377 187.883 275.377C182.899 269.315 143.907 263.338 143.907 263.338L142.674 268.087C142.674 268.087 142.662 268.783 142.476 269.941C142.296 271.092 142.218 271.816 142.218 271.816C137.844 301.283 141.158 337.788 141.518 342.553Z" fill="url(#paint3_linear_1_2)"/>
<path id="Vector_15" opacity="0.62" d="M187.991 277.679C187.991 277.679 176.199 275.956 168.775 280.142C161.351 284.327 162.019 291.556 162.019 291.556L164.112 301.474L156.9 292.516L142.211 271.808C142.211 271.808 144.96 273.783 148.531 274.652C148.531 274.652 143.521 270.97 142.674 268.081L143.907 263.33L187.991 274.507V277.679Z" fill="#220786"/>
<path id="Vector_16" d="M196.406 210.662L197.741 201.993C197.741 201.993 201.151 201.993 206.136 207.483C206.136 207.483 206.258 210.457 207.966 214.17C207.966 214.17 213.708 217.456 216.373 221.931C219.039 226.406 220.046 226.856 222.828 224.317C223.566 223.646 224.068 221.366 224.331 218.263C224.722 213.574 224.575 207.003 223.894 201.216C223.328 196.443 222.397 192.212 221.107 190.008C221.107 190.008 221.229 187.065 220.008 184.755C219.95 184.801 219.886 184.847 219.828 184.9C219.43 185.198 218.403 185.853 217.336 185.625C215.956 185.335 214.799 182.827 214.799 182.827C214.799 182.827 214.01 182.925 213.605 183.604C213.605 183.604 208.088 179.632 204.594 172.945C201.107 166.267 200.541 165.443 200.541 165.443C200.541 165.443 199.648 165.008 198.441 164.742C197.491 164.528 196.341 164.429 195.268 164.726C195.268 164.726 178.313 195.833 196.406 210.662Z" fill="url(#paint4_linear_1_2)"/>
<path id="Vector_17" d="M160.297 167.227C160.297 167.227 162.663 162.864 162.663 154.142L178.864 145.231C178.864 145.231 178.036 151.956 180.823 157.788C181.562 159.328 184.998 161.768 184.998 161.768C184.998 161.768 169.963 183.779 162.744 181.668C155.525 179.556 156.97 170.224 156.97 170.224C156.97 170.224 158.19 170.788 160.297 167.227Z" fill="#FF9B8B"/>
<path id="Vector_18" d="M182.975 160.175C182.975 160.175 174.824 169.82 167.811 170.361C160.297 170.941 161.536 163.522 161.536 163.522C161.536 163.522 158.138 169.18 159.108 173.632C160.085 178.085 167.503 178.306 173.225 175.34C178.948 172.382 184.42 160.877 184.42 160.877L182.975 160.175Z" fill="#CEC5FF"/>
<path id="Vector_19" opacity="0.83" d="M196.403 210.662L197.739 201.993C197.739 201.993 201.149 201.993 206.134 207.483C206.134 207.483 206.256 210.457 207.963 214.17C207.963 214.17 213.706 217.456 216.371 221.931C219.036 226.406 220.044 226.856 222.826 224.317C223.564 223.646 224.065 221.366 224.328 218.263L223.892 217.021V201.216C223.326 196.443 222.395 192.212 221.104 190.008C221.104 190.008 221.226 187.065 220.006 184.755C219.948 184.801 219.884 184.847 219.826 184.9C215.105 188.552 213.436 199.295 213.114 207.293C213.07 205.264 211.984 197.419 211.169 197.564C210.115 197.755 208.33 212.203 208.33 212.203C206.223 199.813 213.018 184.87 213.564 183.68C207.353 193.866 206.3 205.562 206.3 205.562L196.647 197.183C196.647 197.183 190.835 190.244 192.845 178.305C194.855 166.366 198.439 164.742 198.439 164.742C197.489 164.528 196.339 164.429 195.266 164.726C195.266 164.726 178.31 195.833 196.403 210.662Z" fill="#446EF7"/>
<path id="Vector_20" d="M148.216 218.562C148.216 218.562 150.643 233.635 147.484 249.958C147.484 249.958 145.538 251.544 145.294 253.564C145.294 253.564 145.294 253.58 145.288 253.602C145.056 255.615 144.782 257.124 144.782 257.124C144.782 257.124 144.562 258.481 143.829 259.923C143.695 260.197 143.617 260.517 143.591 260.868C143.476 262.362 144.195 264.253 144.195 264.253C144.195 264.253 145.66 268.736 160.869 270.322C176.077 271.915 187.881 275.377 187.881 275.377C187.881 275.377 190.317 272.136 188.642 269.392C188.642 269.392 189.712 266.282 189.59 265.267C189.468 264.253 183.868 252.703 185.325 244.613C186.79 236.524 192.262 229.96 195.307 214.17C195.307 214.17 197.336 213.362 197.458 212.203C197.58 211.051 196.565 209.169 196.565 209.169L196.199 209.991C196.199 209.991 189.263 205.273 191.131 185.335C192.994 165.397 194.965 164.185 198.441 164.742C198.441 164.742 198.748 166.229 194.439 164.742C194.439 164.742 191.96 164.315 189.404 163.255C186.848 162.195 184.356 160.774 184.356 160.774C184.356 160.774 169.725 175.667 162.962 174.714C155.242 173.631 160.689 163.606 160.689 163.606C160.689 163.606 155.84 164.727 153.245 165.444C150.643 166.167 149.674 165.444 149.674 165.444C149.674 165.444 146.225 165.834 144.195 167.656C142.166 169.471 141.562 176.377 142.371 192.555C143.181 208.734 148.216 218.562 148.216 218.562Z" fill="url(#paint5_linear_1_2)"/>
<g id="Vector 3">
<path id="Vector_5" d="M171.427 193.781L166.382 183.409L164.566 187.269L167.593 193.781L164.969 199.328L166.988 203.188L171.427 193.781Z" fill="#135BC6"/>
<path id="Vector_6" d="M164.162 188.233L165.978 192.093L165.373 193.057H161.74L164.162 188.233Z" fill="#135BC6"/>
<path id="Vector_8" d="M165.171 197.64L166.988 193.781H157.704L152.658 204.152H156.291L159.52 197.64H165.171Z" fill="#135BC6"/>
<path id="Vector_21" d="M160.125 198.364H163.556L166.584 204.152H172.639L174.455 207.77L164.566 208.012L160.125 198.364Z" fill="#135BC6"/>
<path id="Vector_22" d="M158.915 200.294H160.327L162.143 204.152H157.098L158.915 200.294Z" fill="#135BC6"/>
<path id="Vector_23" d="M167.997 202.223L169.813 198.605L172.436 203.188H168.602L167.997 202.223Z" fill="#135BC6"/>
</g>
<path id="Vector_21_2" d="M181.126 149.913C181.126 149.913 174.198 163.507 161.906 162.214C161.906 162.214 162.786 157.777 162.664 154.142C162.664 154.142 168.483 154.537 172.721 152.675C177.504 150.575 181.126 145.191 181.126 145.191V149.913Z" fill="url(#paint6_linear_1_2)" fill-opacity="0.7"/>
<path id="Vector_22_2" opacity="0.5" d="M197.74 201.993C197.74 201.993 192.814 199.577 190.92 195.2C190.92 195.2 191.209 206.042 196.199 209.991C196.199 209.991 197.438 205.6 197.74 201.993Z" fill="#446EF7"/>
<path id="Vector_23_2" opacity="0.62" d="M164.112 301.474L161.518 290.205C161.518 290.205 157.009 282.451 149.687 278.914L156.9 292.035L164.112 301.474Z" fill="#1B0C78"/>
<path id="Vector_24" opacity="0.62" d="M180.343 349.919C181.434 351.367 183.625 352.663 183.625 352.663C184.845 355.408 187.401 366.654 187.401 366.654H206.99C205.898 360.707 200.907 351.802 199.321 348.477C197.741 345.153 191.781 322.471 190.195 307.451C189.533 301.192 189.026 294.582 188.653 288.993C188.634 289.42 187.985 293.789 189.88 315C191.826 336.767 193.156 346.168 192.995 348.089C192.834 350.018 184.883 354.638 180.343 349.919Z" fill="#281C6F"/>
<path id="Vector_25" opacity="0.62" d="M142.218 346.967C142.739 349.095 143.394 350.689 143.753 352.518C144.319 355.407 144.967 366.653 144.967 366.653H162.007C161.358 362.491 160.549 359.265 159.572 348.858C158.641 338.909 163.651 304.615 164.081 301.68C163.516 304.836 157.222 340.403 155.802 343.422C152.713 349.964 144.345 352.183 142.218 346.967Z" fill="#281C6F"/>
<path id="Vector_26" opacity="0.83" d="M185.049 166.968C185.036 167.029 185.017 167.083 184.997 167.145C185.023 167.06 185.042 166.999 185.049 166.968Z" fill="url(#paint7_linear_1_2)"/>
<path id="Vector_27" opacity="0.62" d="M187.991 296.854C187.991 296.854 189.654 312.43 186.764 329.211L187.991 296.854Z" fill="#281C6F"/>
<path id="Vector_28" opacity="0.62" d="M160.748 300.513C160.748 300.513 156.239 321.701 152.591 330.705C152.591 330.705 159.778 319.002 162.385 311.103L164.081 301.68L162.019 291.562L160.748 300.513Z" fill="#281C6F"/>
<path id="Vector_29" d="M160.683 163.598L161.531 163.514C161.531 163.514 159.777 166.846 159.411 169.591C159.045 172.336 160.581 174.104 162.957 174.707C162.957 174.707 159.129 174.44 158.64 171.314C158.152 168.188 160.683 163.598 160.683 163.598Z" fill="url(#paint8_linear_1_2)"/>
<g id="Group 299">
<g id="Group 297">
<g id="Group_3">
<path id="Vector_30" d="M154.302 140.143C156.777 150.074 161.551 153.013 164.402 155.682C168.451 158.379 171.982 157.491 171.982 157.491C185.598 150.495 186.929 143.449 187.826 135.584C188.275 131.704 188.681 124.483 187.308 115.556C187.126 114.339 186.818 113.242 186.425 112.233C183.931 105.778 178.047 103.272 178.047 103.272C174.531 101.74 170.525 101.41 166.868 102.245C161.601 103.446 157.454 106.839 156.123 113.538C155.688 115.696 155.451 117.922 155.241 120.133C154.778 124.674 154.54 129.268 154.414 133.844C154.358 135.932 154.316 138.038 154.302 140.143Z" fill="#FFADA0"/>
</g>
<path id="Vector_31" d="M167.26 115.871C167.26 115.871 159.947 114.118 157.655 120.511C157.655 120.511 165.825 117.591 167.386 119.043L167.26 115.871Z" fill="#38368E"/>
<path id="Vector_32" d="M175.035 116.815C175.035 116.815 182.235 114.528 184.864 120.738C184.864 120.738 176.553 118.434 175.077 119.986L175.035 116.815Z" fill="#38368E"/>
<g id="Group_2_2">
<path id="Vector_33" d="M183.135 127.082C182.984 129.75 180.842 131.774 178.353 131.577C175.864 131.379 173.964 129.052 174.114 126.366C174.265 123.698 176.407 121.692 178.896 121.889C181.385 122.086 183.286 124.414 183.135 127.082Z" fill="white"/>
<g id="Group_3_2">
<path id="Vector_34" d="M175.608 126.31C175.473 128.674 176.634 130.697 178.188 130.823C179.741 130.948 181.115 129.122 181.25 126.758C181.386 124.394 180.239 122.371 178.671 122.246C177.117 122.12 175.744 123.947 175.608 126.31Z" fill="#7F9EC9"/>
<path id="Vector_35" d="M176.423 126.382C176.333 128.066 177.147 129.498 178.248 129.587C179.35 129.677 180.33 128.388 180.421 126.704C180.511 125.021 179.697 123.588 178.596 123.499C177.494 123.391 176.514 124.699 176.423 126.382Z" fill="#38368E"/>
<path id="Vector_36" d="M176.452 123.482C176.422 123.929 176.859 124.342 177.432 124.395C178.006 124.449 178.488 124.108 178.518 123.643C178.549 123.178 178.096 122.784 177.523 122.73C176.964 122.693 176.482 123.034 176.452 123.482Z" fill="white" fill-opacity="0.8"/>
</g>
</g>
<g id="Group_4">
<path id="Vector_37" d="M167.025 126.664C166.879 129.295 164.794 131.281 162.373 131.089C159.951 130.898 158.102 128.598 158.249 125.967C158.396 123.319 160.48 121.35 162.901 121.542C165.323 121.733 167.172 124.033 167.025 126.664Z" fill="white"/>
<g id="Group_5">
<path id="Vector_38" d="M160.316 125.965C160.184 128.265 161.314 130.234 162.826 130.355C164.337 130.477 165.673 128.701 165.805 126.401C165.937 124.101 164.808 122.132 163.296 122.01C161.784 121.888 160.448 123.665 160.316 125.965Z" fill="#7F9EC9"/>
<path id="Vector_39" d="M161.109 126.036C161.021 127.674 161.814 129.067 162.885 129.154C163.957 129.242 164.911 127.969 164.999 126.332C165.086 124.694 164.294 123.3 163.223 123.213C162.151 123.126 161.212 124.398 161.109 126.036Z" fill="#38368E"/>
<path id="Vector_40" d="M161.14 123.213C161.111 123.648 161.551 124.049 162.094 124.101C162.652 124.153 163.121 123.822 163.151 123.369C163.18 122.916 162.754 122.533 162.196 122.481C161.639 122.446 161.169 122.76 161.14 123.213Z" fill="white" fill-opacity="0.8"/>
</g>
</g>
<g id="Group_6">
<g id="Group_7">
<path id="Vector_41" d="M154.788 124.613C154.788 124.613 152.103 114.547 149.889 122.469C148.124 128.778 151.065 134.963 153.44 134.52C155.815 134.095 154.788 124.613 154.788 124.613Z" fill="#FFADA0"/>
<path id="Vector_42" d="M154.728 126.411C154.728 126.411 152.61 119.613 151.506 122.059C150.402 124.507 150.413 127.849 150.413 127.849C150.413 127.849 151.199 124.301 152.736 126.636C152.736 126.636 150.675 132.183 154.113 131.025C154.125 131.025 155.616 129.475 154.728 126.411Z" fill="#FF9B8B"/>
</g>
</g>
<g id="Group_8">
<g id="Group_9">
<path id="Vector_43" d="M187.085 124.626C187.085 124.626 190.105 113.719 192.596 122.303C194.582 129.138 191.273 135.819 188.601 135.359C185.929 134.898 187.085 124.626 187.085 124.626Z" fill="#FFADA0"/>
<path id="Vector_44" d="M187.134 126.204C187.134 126.204 189.418 119.11 190.609 121.663C191.799 124.216 191.787 127.705 191.787 127.705C191.787 127.705 190.94 124.002 189.282 126.438C189.282 126.438 191.505 132.226 187.797 131.018C187.797 131.018 186.189 129.4 187.134 126.204Z" fill="#FF9B8B"/>
</g>
</g>
<g id="Group_10">
<path id="Vector_45" d="M176.783 141.768C176.731 141.953 175.701 144.911 174.031 147.125C172.022 149.788 169.087 151.368 165.84 145.669C165.148 144.461 164.457 142.944 163.739 141.04C163.739 141.04 164.861 141.551 166.505 142.108C169.087 142.975 172.922 143.951 175.583 142.542C176.026 142.526 176.418 142.108 176.783 141.768Z" fill="#712311"/>
<path id="Vector_46" d="M174.033 147.157C172.023 149.82 169.089 151.384 165.841 145.686C167.575 145.129 171.684 144.261 174.033 147.157Z" fill="#D5503B"/>
<path id="Vector_47" d="M175.584 142.62C171.346 148.242 168.267 145.284 166.506 142.156C169.089 143.023 172.924 143.906 175.584 142.62Z" fill="white"/>
</g>
<path id="Vector_48" d="M166.416 134.929C166.416 134.929 170.193 142.202 174.411 134.916L166.416 134.929Z" fill="#D8826C"/>
</g>
<g id="Group_11">
<g id="Group_12">
<path id="Vector_49" d="M154.875 129.924C155.324 128.342 155.594 125.015 155.594 125.015C155.594 125.015 155.676 119.277 155.684 118.524C155.7 116.701 156.469 108.441 159.804 108.219C160.581 108.171 162.633 111.054 165.355 112.376C165.846 112.617 169.998 109.463 172.157 108.566C178.582 105.904 184.509 113.156 184.509 113.156C186.381 115.606 185.809 119.952 185.816 121.101C185.825 121.862 185.759 118.159 185.816 121.101C185.849 122.779 186.307 125.176 186.765 126.767C187.084 124.983 187.62 125.096 188.397 121.692C189.688 116.04 191.138 111.565 190.901 110.302L187.476 102.915C182.825 92.8943 171.871 89.77 163.851 96.1735L160.843 98.5743C156.641 96.8292 155.643 99.2789 154.474 101.121C152.308 104.554 151.466 107.742 151.384 112.564C151.351 114.358 152.584 115.491 153.736 120.65C154.464 123.91 154.581 128.294 154.875 129.924Z" fill="#293AA1"/>
<path id="Vector_50" d="M198.103 102.558C195.34 108.828 190.435 103.706 188.621 99.0868C184.157 87.697 178.778 89.4711 178.778 89.4711C167.767 79.4026 164.873 89.587 164.873 89.587C156.257 88.5936 155.937 94.2744 157.237 99.3178C158.537 104.343 161.521 108.519 165.339 111.209C165.51 111.325 165.682 111.45 165.845 111.566C168.682 106.079 173.963 105.596 176.293 105.953C179.424 106.426 180.65 108.393 182.669 110.371C185.784 113.418 187.174 114.806 193.076 114.161C202.543 113.119 198.103 102.558 198.103 102.558Z" fill="#5A65BA"/>
<path id="Vector_51" d="M198.103 102.558C195.34 108.828 190.435 103.706 188.621 99.0868C184.157 87.697 178.778 89.4711 178.778 89.4711C167.767 79.4026 164.873 89.587 164.873 89.587C156.257 88.5936 155.937 94.2744 157.237 99.3178C158.537 104.343 161.521 108.519 165.339 111.209C165.51 111.325 165.682 111.45 165.845 111.566C167.955 104.96 173.489 104.362 175.827 104.15C177.233 104.024 179.767 104.314 181.721 106.107C187.035 110.987 187.165 114.797 193.076 114.151C202.543 113.119 198.103 102.558 198.103 102.558Z" fill="#293AA1"/>
<path id="Vector_52" d="M197.508 101.575C194.745 107.843 190.435 103.706 188.621 99.0868C184.157 87.697 178.778 89.4711 178.778 89.4711C167.767 79.4026 164.873 89.587 164.873 89.587C156.257 88.5936 155.937 94.2744 157.237 99.3178C158.537 104.343 161.521 108.519 165.339 111.209C165.51 111.325 165.682 111.45 165.845 111.566C167.955 104.96 173.113 99.8195 175.459 99.6075C176.865 99.4817 179.4 99.7714 181.353 101.575C186.667 106.455 187.174 114.797 193.076 114.151C202.904 113.056 197.925 101.503 197.508 101.575Z" fill="#5A65BA"/>
<path id="Vector_53" d="M165.557 111.3C165.557 111.3 158.254 83.8863 171.424 84.7887C171.424 84.7887 176.34 86.7474 180.178 90.5399C180.178 90.5399 171.594 87.3915 168.682 91.9307C165.023 97.638 164.756 104.975 165.557 111.3Z" fill="#293AA1"/>
<path id="Vector_54" d="M185.464 96.0676C185.464 96.0676 183.028 92.4986 177.902 92.2478C172.964 91.9978 166.171 94.6395 165.354 111.218C165.354 111.218 168.901 96.1537 178.343 94.0418C179.782 93.7239 181.792 93.8398 185.464 96.0676Z" fill="#293AA1"/>
</g>
</g>
</g>
<g id="Group 300">
<path id="Vector_55" d="M238.46 166.892C238.46 166.892 240.992 157.353 241.487 151.301C241.982 145.25 243.867 138.699 243.867 138.699C243.867 138.699 245.192 138.401 245.982 139.227C246.771 140.054 247.77 146.686 245.964 151.366C240.063 157.183 242.792 168.006 242.792 168.006L244.193 168.355L248.137 164.159L249.714 164.031C249.714 164.031 256.602 175.696 255.471 181.332L253.865 183.577L247.1 180.568L240.386 171.816L238.46 166.892Z" fill="#F88A7F"/>
<path id="Vector_56" d="M249.679 163.908C249.679 163.908 248.331 170.212 246.17 175.362C246.17 175.362 245.977 177.642 248.147 178.341L248.819 177.758C248.819 177.758 248.754 180.387 250.662 181.063L252.899 179.327L252.101 181.022C252.101 181.022 252.424 183.12 254.191 183.479C254.191 183.479 257.604 181.485 258.422 177.977L256.042 174.338L256.436 172.11L253.505 168.374L253.733 166.73C253.718 166.734 252.016 164.458 249.679 163.908Z" fill="url(#paint9_linear_1_2)"/>
<path id="Vector_57" opacity="0.3" d="M241.827 149.503C241.827 149.503 242.057 151.183 242.664 151.966C243.271 152.75 241.071 158.38 241.071 158.38L242.832 167.982L244.194 168.321L248.057 164.086C248.057 164.086 246.04 166.552 245.57 168.665L246.625 169.66L248.402 165.653L248.344 168.841L247.183 172.537C247.183 172.537 245.741 170.247 242.557 169.377L241.891 170.317C241.891 170.317 246.645 177.585 247.367 181.351C247.367 181.351 245.292 176.224 239.635 169.73L239.427 167.232L239.591 161.441C239.603 161.444 241.809 153.591 241.827 149.503Z" fill="url(#paint10_linear_1_2)"/>
<g id="Group_13">
<path id="Vector_58" d="M237.767 133.433L236.696 135.574L237.232 150.42L237.989 150.441L237.767 133.433Z" fill="url(#paint11_linear_1_2)"/>
</g>
</g>
<path id="Vector_59" d="M221.105 190.001C221.105 190.001 218.94 193.042 217.495 204.975C216.05 216.907 220.02 224.027 220.02 224.027C220.02 224.027 215.999 223.128 214.798 209.16C213.597 195.192 218.549 188.987 218.549 188.987L221.105 190.001Z" fill="url(#paint12_linear_1_2)" fill-opacity="0.7"/>
</g>
<g id="Group 439">
<g id="Group_14">
<path id="Vector_60" d="M130.969 192.921V249.788C130.969 251.25 129.972 252.435 128.74 252.435H55.6891C54.4572 252.435 53.4594 251.25 53.4594 249.788V192.921C53.4594 189.547 55.7647 186.806 58.6104 186.806H125.818C128.664 186.806 130.969 189.547 130.969 192.921Z" fill="white" stroke="#84B5FF" stroke-miterlimit="10"/>
<g id="Group 284">
<g id="Group 76">
<g id="Group 77">
<g id="Group_15">
<g id="Group_16">
<g id="Group_17">
<path id="Vector_61" d="M89.3546 200.409H80.6603V201.276H89.3546V200.409Z" fill="#84B5FF"/>
</g>
<g id="Group_18">
<path id="Vector_62" d="M99.5526 200.409H90.8582V201.276H99.5526V200.409Z" fill="#06B25F"/>
</g>
<g id="Group_19">
<path id="Vector_63" d="M96.8286 205.09H83.3473V205.956H96.8286V205.09Z" fill="#276ED8"/>
</g>
<g id="Group_20">
<path id="Vector_64" d="M105.907 205.09H99.0554V205.956H105.907V205.09Z" fill="#84B5FF"/>
</g>
<g id="Group_21">
<path id="Vector_65" d="M93.9407 209.764H88.0212V210.631H93.9407V209.764Z" fill="#06B25F"/>
</g>
<g id="Group_22">
<path id="Vector_66" d="M117.005 209.764H97.3635V210.631H117.005V209.764Z" fill="#06B25F"/>
</g>
<g id="Group_23">
<path id="Vector_67" d="M115.067 214.442H92.6205V215.31H115.067V214.442Z" fill="#276ED8"/>
</g>
<g id="Group_24">
<path id="Vector_68" d="M93.9163 219.117H87.0086V219.984H93.9163V219.117Z" fill="#84B5FF"/>
</g>
<g id="Group_25">
<path id="Vector_69" d="M103.781 219.117H96.8732V219.984H103.781V219.117Z" fill="#276ED8"/>
</g>
</g>
<g id="Group_26">
<g id="Group_27">
<path id="Vector_70" d="M90.7076 243.388H80.661V244.254H90.7076V243.388Z" fill="#84B5FF"/>
</g>
<g id="Group_28">
<path id="Vector_71" d="M104.272 243.388H94.2245V244.254H104.272V243.388Z" fill="#06B25F"/>
</g>
<g id="Group_29">
<path id="Vector_72" d="M117.477 243.388H107.43V244.254H117.477V243.388Z" fill="#84B5FF"/>
</g>
<g id="Group_30">
<path id="Vector_73" d="M102.988 238.705H83.3473V239.573H102.988V238.705Z" fill="#276ED8"/>
</g>
<g id="Group_31">
<path id="Vector_74" d="M125.687 238.704H106.047V239.572H125.687V238.704Z" fill="#84B5FF"/>
</g>
<g id="Group_32">
<path id="Vector_75" d="M107.512 234.032H88.0219V234.9H107.512V234.032Z" fill="#84B5FF"/>
</g>
<g id="Group_33">
<path id="Vector_76" d="M114.634 234.032H109.211V234.9H114.634V234.032Z" fill="#06B25F"/>
</g>
<g id="Group_34">
<path id="Vector_77" d="M94.0857 229.352H86.7506V230.22H94.0857V229.352Z" fill="#06B25F"/>
</g>
<g id="Group_35">
<path id="Vector_78" d="M105.317 229.352H97.9814V230.22H105.317V229.352Z" fill="#276ED8"/>
</g>
<g id="Group_36">
<path id="Vector_79" d="M117.377 229.352H110.041V230.219H117.377V229.352Z" fill="#84B5FF"/>
</g>
<g id="Group_37">
<path id="Vector_80" d="M105.543 224.679H95.2574V225.546H105.543V224.679Z" fill="#06B25F"/>
</g>
<g id="Group_38">
<path id="Vector_81" d="M91.3764 224.679H81.0899V225.546H91.3764V224.679Z" fill="#276ED8"/>
</g>
</g>
</g>
<g id="Group_39">
<g id="Group_40">
<g id="Group_41">
<path id="Vector_82" d="M78.2389 199.579H77.3016V200.694H78.2389V199.579Z" fill="#84B5FF"/>
</g>
</g>
<g id="Group_42">
<g id="Group_43">
<path id="Vector_83" d="M78.2375 240.359H77.3002V238.093H78.2375V240.359ZM78.2375 234.692H77.3002V232.426H78.2375V234.692ZM78.2375 229.024H77.3002V226.758H78.2375V229.024ZM78.2375 223.357H77.3002V221.091H78.2375V223.357ZM78.2375 217.689H77.3002V215.423H78.2375V217.689ZM78.2375 212.021H77.3002V209.755H78.2375V212.021ZM78.2375 206.354H77.3002V204.088H78.2375V206.354Z" fill="#84B5FF"/>
</g>
</g>
<g id="Group_44">
<g id="Group_45">
<path id="Vector_84" d="M78.2375 243.76H77.3002V244.875H78.2375V243.76Z" fill="#84B5FF"/>
</g>
</g>
</g>
</g>
</g>
<path id="Rectangle 3" opacity="0.7" d="M53.2823 196.259C53.2823 193.515 55.1557 191.292 57.4666 191.292H73.4541V252.439H57.4666C55.1557 252.439 53.2823 250.215 53.2823 247.472V196.259Z" fill="#84B5FF"/>
<path id="Vector_85" d="M63.5907 201.265H54.8964V202.132H63.5907V201.265Z" fill="#06B25F"/>
<path id="Vector_86" d="M70.244 206.565H56.7625V207.432H70.244V206.565Z" fill="#84B5FF"/>
<path id="Vector_87" d="M70.244 211.866H56.7625V212.732H70.244V211.866Z" fill="#84B5FF"/>
<path id="Vector_88" d="M70.244 217.166H56.7625V218.033H70.244V217.166Z" fill="#84B5FF"/>
<path id="Vector_89" d="M70.244 222.465H56.7625V223.333H70.244V222.465Z" fill="#84B5FF"/>
<path id="Vector_90" d="M70.9442 233.065H57.4626V233.933H70.9442V233.065Z" fill="#84B5FF"/>
<path id="Vector_91" d="M70.9442 238.366H57.4626V239.233H70.9442V238.366Z" fill="#84B5FF"/>
<path id="Vector_92" d="M70.9442 243.665H57.4626V244.532H70.9442V243.665Z" fill="#84B5FF"/>
<path id="Vector_93" d="M63.5907 227.765H54.8964V228.633H63.5907V227.765Z" fill="#06B25F"/>
</g>
<path id="Vector_94" d="M130.969 192.921V193.177H53.4594V192.921C53.4594 189.547 55.7647 186.806 58.6104 186.806H125.818C128.664 186.806 130.969 189.547 130.969 192.921Z" fill="#84B5FF"/>
<g id="Group_46">
<g id="Group_47">
<path id="Vector_95" opacity="0.3" d="M119.197 190.288C119.197 190.728 118.899 191.084 118.528 191.084C118.157 191.084 117.858 190.728 117.858 190.288C117.858 189.848 118.157 189.492 118.528 189.492C118.895 189.492 119.197 189.848 119.197 190.288Z" fill="white"/>
<path id="Vector_96" opacity="0.3" d="M122.865 190.287C122.865 190.728 122.567 191.083 122.196 191.083C121.824 191.083 121.525 190.728 121.525 190.287C121.525 189.847 121.824 189.492 122.196 189.492C122.562 189.492 122.865 189.847 122.865 190.287Z" fill="white"/>
<path id="Vector_97" opacity="0.3" d="M126.37 190.287C126.37 190.728 126.071 191.083 125.7 191.083C125.329 191.083 125.03 190.728 125.03 190.287C125.03 189.847 125.329 189.492 125.7 189.492C126.071 189.492 126.37 189.847 126.37 190.287Z" fill="white"/>
</g>
</g>
<path id="Vector_98" d="M130.969 192.921V249.788C130.969 251.25 129.972 252.435 128.74 252.435H55.6891C54.4572 252.435 53.4594 251.25 53.4594 249.788V192.921C53.4594 189.547 55.7647 186.806 58.6104 186.806H125.818C128.664 186.806 130.969 189.547 130.969 192.921Z" stroke="#84B5FF" stroke-miterlimit="10"/>
</g>
<g id="Group 438">
<path id="Vector_99" d="M91.4015 180.291C91.4015 180.291 89.6845 179.719 88.2583 182.221L88.4173 183.125C88.4173 183.125 86.6704 183.258 84.6577 186.283C84.6577 186.283 85.7714 189.667 89.2249 191.652C89.2249 191.652 90.967 191.35 91.4412 189.709L91.2306 188.576L92.4134 189.95C92.4134 189.95 93.9225 190.756 94.9198 188.096L91.4015 180.291Z" fill="#FFA49C"/>
<path id="Vector_100" d="M96.2832 179.354C96.2832 179.354 94.5662 178.781 93.1401 181.284L93.2991 182.187C93.3123 182.178 93.5481 183.731 96.1124 187.639L97.2951 189.013C97.2951 189.013 98.8043 189.818 99.8016 187.158L96.2832 179.354Z" fill="#FFA49C"/>
<path id="Vector_101" d="M82.8815 189.937C82.8815 189.937 82.4812 187.935 84.2581 186.588L87.8294 191.083C87.8294 191.083 87.7499 192.557 86.2408 192.911C86.2408 192.911 83.8376 192.008 82.8815 189.937Z" fill="#FFA49C"/>
<path id="Vector_102" d="M88.4166 183.131C88.4166 183.131 89.7354 186.679 91.2299 188.583L91.4398 189.716C91.4398 189.716 88.4696 186.602 87.6049 183.409C87.5993 183.409 88.0289 183.134 88.4166 183.131Z" fill="#E28183"/>
<path id="Vector_103" d="M84.6263 186.472C84.6263 186.472 86.0936 188.967 87.4703 190.154L87.7806 190.991C87.7806 190.991 85.134 189.149 84.0552 186.843C84.051 186.843 84.3355 186.549 84.6263 186.472Z" fill="#E28183"/>
<path id="Vector_104" d="M91.6058 180.429C91.6058 180.429 93.6129 182.917 95.3773 186.507H94.1164C94.1164 186.507 93.1491 184.893 91.9754 181.693C91.9754 181.693 91.2181 180.432 91.6058 180.429Z" fill="#E28183"/>
<path id="Vector_105" d="M96.4304 179.365C96.4304 179.365 99.2708 183.269 100.923 186.507H99.4103C99.4103 186.507 98.5016 185.65 96.9255 181.146C96.9255 181.146 95.9031 179.373 96.4304 179.365Z" fill="#FF9E8D"/>
</g>
</g>
<path id="Vector_106" d="M242.831 117.076V126.742L249.811 121.467L242.831 117.076Z" fill="white"/>
</g>
</g>
<g id="Group_48">
<path id="Vector_107" d="M245.982 235.27C246.482 232.937 256.448 173.791 256.448 173.791C256.448 173.791 229.873 164.498 212.877 173.791L223.761 235.787L245.982 235.27Z" fill="white"/>
<path id="Vector_108" opacity="0.83" d="M241.322 237.075C241.643 236.739 242.752 235.573 243.776 234.453C244.984 233.124 245.694 231.994 245.694 231.994C245.694 231.994 245.526 229.871 245.526 229.277C245.526 228.678 248.197 214.537 250.822 210.16C253.272 206.077 250.865 183.077 250.528 179.971L250.488 179.624C250.488 179.624 248.758 183.077 248.009 189.945C247.256 196.818 248.319 210.36 248.319 210.36C248.319 210.36 246.82 221.311 243.129 221.51C243.129 221.51 246.226 228.725 245.004 232.346C244.77 233.034 241.887 236.439 241.322 237.075Z" fill="#CAC3CD" fill-opacity="0.3"/>
<path id="Vector_109" d="M247.289 205.191C247.289 205.191 227.31 207.639 221.795 202.743C221.811 202.743 228.696 222.344 247.289 205.191Z" fill="#CAC3CD" fill-opacity="0.3"/>
</g>
<path id="Vector_110" d="M247.272 235.056C247.272 235.056 263.429 275.213 256.834 402.991C256.834 402.991 249.868 404.731 247.675 403.851C247.675 403.851 227.744 292.806 232.581 237.064L247.272 235.056Z" fill="#84B5FF"/>
<path id="Vector_111" d="M238.144 260.873C238.144 260.873 238.515 364.747 223.486 401.252L212.117 400.813C212.117 400.813 206.054 276.802 223.744 234.924L237.306 236.703L238.144 260.873Z" fill="#84B5FF"/>
<g id="Group_49">
<path id="Vector_112" d="M248.223 237.622C248.223 237.622 235.677 242.058 222.938 236.092L222.777 230.145C222.777 230.145 229.308 232.478 234.871 232.076C240.418 231.694 247.932 230.528 247.932 230.528L248.223 237.622Z" fill="#8F99B6"/>
<path id="Vector_113" d="M245.305 229.358C245.305 229.358 247.417 239.053 245.466 240.2C243.498 241.367 242.353 240.851 242.353 240.851L242.369 230.123L245.305 229.358Z" fill="#84B5FF"/>
<path id="Vector_114" d="M225.147 228.595C225.147 228.595 223.825 237.66 225.486 239.361C227.744 241.637 227.873 239.801 227.873 239.801L228.083 229.379L225.147 228.595Z" fill="#84B5FF"/>
<path id="Vector_115" d="M238.773 230.145C238.773 231.312 238.434 238.483 238.434 238.483L231.403 238.674L230.758 230.336L238.773 230.145ZM232.565 237.239L237.306 236.857L237.467 232.439H232.242L232.565 237.239Z" fill="#EAEAEA"/>
</g>
<path id="Vector_116" d="M242.217 170.51C242.943 175.578 237.218 176.017 237.218 176.017C234.686 176.017 230.735 175.099 230.735 172.097L231.961 153.338C231.961 150.336 234.009 147.907 236.54 147.907C239.072 147.907 241.12 150.336 241.12 153.338L242.217 170.51Z" fill="#F39B8D"/>
<path id="Vector_117" d="M223.902 104.347C224.616 103.144 228.819 105.185 229.445 103.891C231.927 107.291 238.584 102.338 241.702 105.101C245.785 108.723 249.004 112.215 253.689 114.617C255.23 115.408 252.776 116.311 254.462 116.661C254.537 120.219 256.142 131.506 255.597 135.087C252.849 153.042 240.679 161.761 229.851 158.434C221.668 155.91 214.861 143.465 214.623 125.772C214.479 115.098 222.694 108.001 222.96 106.422C227.382 102.462 220.66 109.738 223.902 104.347Z" fill="#FBB2A6"/>
<path id="Vector_118" d="M235 141.586C235 141.586 232.387 146.807 229.582 141.49L235 141.586Z" fill="#D8826C"/>
<path id="Vector_119" d="M237.693 130.994C237.693 134.436 240.048 137.247 242.966 137.247C245.885 137.247 248.239 134.455 248.239 130.994C248.239 127.551 245.885 124.741 242.966 124.741C240.048 124.741 237.693 127.551 237.693 130.994Z" fill="white"/>
<g id="Group_50">
<path id="Vector_120" d="M240.039 132.471C240.152 134.967 241.53 136.915 243.122 136.831C244.719 136.731 245.914 134.637 245.814 132.148C245.706 129.637 244.322 127.704 242.743 127.794C241.138 127.873 239.93 129.961 240.039 132.471Z" fill="#06B25F"/>
<path id="Vector_121" d="M240.883 132.422C240.963 134.188 241.941 135.573 243.076 135.506C244.21 135.439 245.07 133.952 244.982 132.163C244.908 130.382 243.929 128.998 242.795 129.064C241.655 129.146 240.809 130.64 240.883 132.422Z" fill="#400404"/>
<path id="Vector_122" opacity="0.8" d="M240.619 129.381C240.636 129.87 241.129 130.225 241.712 130.19C242.295 130.154 242.757 129.728 242.735 129.254C242.719 128.765 242.225 128.41 241.642 128.445C241.059 128.481 240.597 128.907 240.619 129.381Z" fill="white"/>
</g>
<path id="Vector_123" d="M240.563 146.618C240.563 146.618 232.065 151.265 228.469 147.001C228.469 147.001 231.742 156.696 240.563 146.618Z" fill="#D5503B"/>
<path id="Vector_124" d="M237.692 130.995C237.692 130.995 237.273 126.979 240.578 124.952C245.642 121.855 248.416 129.025 250.06 130.191C250.06 130.191 248.996 131.454 248.222 131.014C248.222 130.995 242.224 122.486 237.692 130.995Z" fill="#302725"/>
<g id="Group_51">
<path id="Vector_125" d="M229.396 131.394C229.396 134.855 227.041 137.647 224.122 137.647C221.219 137.647 218.849 134.855 218.849 131.394C218.849 127.952 221.203 125.16 224.122 125.16C227.025 125.141 229.396 127.952 229.396 131.394Z" fill="white"/>
<g id="Group_52">
<path id="Vector_126" d="M221.424 132.319C221.623 134.808 223.108 136.656 224.757 136.453C226.407 136.249 227.573 134.076 227.373 131.604C227.174 129.114 225.688 127.266 224.04 127.453C222.404 127.658 221.225 129.83 221.424 132.319Z" fill="#06B25F"/>
<path id="Vector_127" d="M222.412 132.244C222.528 134.07 223.503 135.4 224.604 135.249C225.704 135.098 226.497 133.48 226.392 131.673C226.275 129.846 225.289 128.497 224.187 128.665C223.1 128.817 222.295 130.417 222.412 132.244Z" fill="#400404"/>
<path id="Vector_128" opacity="0.8" d="M221.659 128.853C221.711 129.332 222.327 129.684 223.015 129.623C223.718 129.564 224.229 129.125 224.192 128.648C224.14 128.168 223.54 127.819 222.837 127.878C222.134 127.936 221.607 128.373 221.659 128.853Z" fill="white"/>
</g>
<path id="Vector_129" d="M229.477 130.626C229.477 130.626 229.896 127.051 226.59 125.252C221.526 122.499 218.753 128.867 217.124 129.899C217.124 129.899 218.189 131.009 218.963 130.626C218.946 130.626 224.381 122.881 229.477 130.626Z" fill="#302725"/>
</g>
<path id="Vector_130" d="M249.492 122.427C249.492 122.427 244.138 116.748 239.01 119.196C237.817 119.769 237.543 120.438 236.785 123.192C236.785 123.192 242.622 119.31 249.492 122.427Z" fill="#6F3B1E"/>
<path id="Vector_131" d="M217.124 123.998C217.124 123.998 220.171 117.439 224.815 118.759C225.896 119.064 226.267 119.657 227.476 122.143C227.476 122.162 221.945 119.619 217.124 123.998Z" fill="#6F3B1E"/>
<g id="Group_53">
<g id="Group_54">
<g id="Group_55">
<path id="Vector_132" d="M254.32 126.675C254.32 126.675 260.012 117.457 261.657 126.311C262.963 133.367 257.657 138.55 254.368 137.23C251.078 135.911 254.32 126.675 254.32 126.675Z" fill="#FBB2A6"/>
<path id="Vector_133" d="M254.255 128.316C254.255 128.316 258.286 122.503 259.318 125.238C260.35 127.973 259.737 131.185 259.737 131.185C259.737 131.185 259.318 127.513 256.867 129.215C256.867 129.215 258.609 135.258 254.255 132.963C254.238 132.963 252.529 130.956 254.255 128.316Z" fill="#F39B8D"/>
</g>
</g>
<path id="Vector_134" d="M254.008 137.697C254.008 138.634 254.605 139.379 255.33 139.379C256.072 139.379 256.653 138.614 256.653 137.697C256.653 136.76 256.056 135.995 255.33 135.995C254.605 135.995 254.008 136.741 254.008 137.697Z" fill="white"/>
</g>
<path id="Vector_135" d="M207.764 120.345C212.376 121.875 217.568 120.766 221.487 117.419C225.405 114.073 227.953 108.547 228.211 102.829C228.292 101.242 228.018 99.3294 226.808 98.6795C226.389 98.4502 225.905 98.4311 225.437 98.4502C222.583 98.5454 219.842 99.9792 217.568 102.064C215.294 104.148 213.488 106.845 211.892 109.674C210.747 111.721 209.715 113.863 209.086 116.196C208.699 117.668 208.473 119.198 208.425 120.727" fill="url(#paint13_linear_1_2)"/>
<path id="Vector_136" d="M227.21 106.406C235.644 112.066 245.19 122.067 254.334 121.513C254.801 121.494 257.155 118.071 257.349 117.631C257.51 117.249 257.333 116.77 257.155 116.35C255.301 112.181 250.334 104.933 246.641 102.466C242.949 99.9999 238.901 98.4319 234.87 97.0163C232.822 96.3093 230.742 95.6205 228.678 95.5824C226.63 95.5443 224.566 96.2133 223.421 97.8582" fill="url(#paint14_linear_1_2)"/>
<path id="Vector_137" d="M212.793 173.641C212.793 173.641 194.919 222.403 201.452 229.139C201.452 229.139 207.985 233.284 213.664 214.631C219.342 195.959 219.326 172.566 212.793 173.641Z" fill="white"/>
<path id="Vector_138" opacity="0.83" d="M203.366 229.364C203.724 229.087 204.967 228.128 206.118 227.201C207.479 226.099 205.617 230.493 205.617 230.493C205.617 230.493 205.543 229.458 205.617 228.871C205.692 228.278 210.097 214.763 213.239 210.895C216.17 207.288 216.659 184.118 216.712 180.987L216.716 180.637C216.716 180.637 214.575 183.747 212.978 190.408C211.376 197.073 210.738 210.653 210.738 210.653C210.738 210.653 207.89 221.22 204.215 220.769C204.215 220.769 206.684 226.229 205.025 229.595C204.707 230.234 204.003 228.834 203.366 229.364Z" fill="#CAC3CD" fill-opacity="0.3"/>
<path id="Vector_139" d="M214.534 206.34C214.534 206.34 199.467 218.871 200.596 226.566C200.774 227.814 201.467 229.157 201.467 229.157C201.467 229.157 208.001 237.984 216.292 217.758C216.276 217.739 221.084 204.785 214.534 206.34Z" fill="white"/>
<path id="Vector_140" d="M212.358 203.482C213.729 199.893 217.536 197.207 218.746 197.418C219.714 196.861 220.682 197.053 221.504 198.953C222.682 201.659 222.634 206.303 221.73 209.201C219.972 214.843 215.1 207.704 215.31 203.214C213.423 205.133 210.938 207.205 212.358 203.482Z" fill="#F0A98F"/>
<path id="Vector_141" d="M218.89 197.78C218.89 197.78 224.553 219.562 222.81 220.598C221.068 221.635 212.341 221.635 212.341 221.635C212.341 221.635 206.243 198.299 207.55 197.78C208.873 197.262 218.471 196.745 218.89 197.78Z" fill="#06B25F"/>
<path id="Vector_142" d="M229.441 223.977C229.441 223.977 227.231 223.439 226.392 222.115C225.553 220.791 225.037 220.215 222.053 218.68C219.084 217.145 217.907 215.091 217.907 215.091C217.907 215.091 215.826 217.509 220.375 220.081C223.166 221.654 214.003 221.673 211.244 221.347C211.244 221.347 209.647 222.46 212.277 223.977C214.906 225.492 212.374 225.665 217.584 228.275C222.795 230.866 228.989 232.132 230.263 228.198C231.538 224.264 229.441 223.977 229.441 223.977Z" fill="#FFBC9F"/>
<g id="Group_56">
<g id="Group_57">
<path id="Vector_143" d="M249.331 188.758C248.315 194.745 252.686 220.077 252.686 220.077C249.718 219.846 236.506 220.768 231.618 221.42C229.957 221.631 228.892 221.784 228.892 221.784L227.263 231.821C228.182 232.071 229.086 232.282 229.973 232.493C247.605 236.427 260.527 230.708 260.527 230.708C265.85 191.982 256.381 173.636 256.381 173.636C252.009 173.291 249.331 188.758 249.331 188.758Z" fill="white"/>
<g id="Group 437">
<path id="Vector_144" d="M249.901 163.821C249.901 163.821 248.553 170.125 246.392 175.275C246.392 175.275 246.199 177.555 248.37 178.254L249.041 177.671C249.041 177.671 248.976 180.299 250.884 180.975L253.121 179.24L252.322 180.934C252.322 180.934 252.645 183.034 254.413 183.391C254.413 183.391 257.826 181.398 258.644 177.89L256.263 174.251L256.658 172.022L253.727 168.288L253.955 166.643C253.94 166.648 252.238 164.371 249.901 163.821Z" fill="url(#paint15_linear_1_2)"/>
<path id="Vector_145" d="M254 166.521C254 166.521 251.827 174.503 248.997 177.85C248.997 177.85 252.432 174.457 253.767 168.201L254 166.521Z" fill="#E28183"/>
<path id="Vector_146" d="M256.59 172.198C256.59 172.198 254.795 178.398 251.003 181.146C251.003 181.146 254.11 180.111 256.196 174.424L256.59 172.198Z" fill="#E28183"/>
</g>
</g>
</g>
<path id="Vector 10" d="M227.963 169.75H231.24C231.24 169.75 230.196 173.1 231.492 173.939C234.265 175.735 234.517 175.735 238.298 175.735C240.543 175.735 242.078 170.349 242.078 170.349L244.851 170.947C244.851 170.947 241.926 177.275 238.298 178.727C235.78 179.735 233.814 180.262 231.492 178.727C228.799 176.948 227.963 169.75 227.963 169.75Z" fill="#CAC3CD" fill-opacity="0.3"/>
</g>
</g>
</g>
</g>
</g>
<g id="oval_58" class="oval">
<g id="Group_59">
<path id="Vector_147" d="M346.773 201.287V198.716C346.773 198.242 346.45 197.859 346.051 197.859C345.652 197.859 345.329 198.242 345.329 198.716V198.741C344.028 196.346 342.612 194.201 341.837 193.073C341.585 192.706 341.13 192.649 340.821 192.951C340.512 193.25 340.466 193.79 340.718 194.157C342.127 196.207 343.241 198.025 344.109 199.617C343.727 199.472 343.326 199.712 343.201 200.159C343.075 200.608 343.279 201.094 343.657 201.243L345.253 201.875C346.843 205.308 347.016 207.295 346.537 207.865C346.025 208.471 344.145 208.261 340.537 205.677C338.35 204.111 335.914 201.949 333.425 199.388C334.447 198.291 335.472 197.136 336.486 195.931C340.106 191.633 343.202 187.192 345.329 183.278V183.287C345.329 183.761 345.652 184.145 346.051 184.145C346.45 184.145 346.773 183.76 346.773 183.287V180.715C346.773 180.635 346.745 180.563 346.727 180.488C348.385 176.781 348.665 174.242 347.558 172.927C345.41 170.378 339.732 174.669 336.539 177.454C336.217 177.733 336.148 178.27 336.385 178.652C336.619 179.032 337.071 179.114 337.393 178.835C342.581 174.312 345.771 173.229 346.537 174.139C347.001 174.689 346.883 176.593 345.236 180.135L343.657 180.76C343.279 180.909 343.075 181.394 343.201 181.844C343.324 182.285 343.718 182.524 344.094 182.389C342.024 186.192 339.003 190.518 335.466 194.719C334.427 195.952 333.379 197.129 332.335 198.245C331.292 197.129 330.243 195.952 329.204 194.719C325.667 190.518 322.646 186.192 320.575 182.389C320.953 182.524 321.346 182.285 321.469 181.844C321.596 181.394 321.391 180.909 321.013 180.76L319.434 180.135C317.787 176.593 317.669 174.689 318.133 174.139C318.9 173.228 322.092 174.313 327.284 178.841C327.604 179.121 328.057 179.039 328.293 178.658C328.528 178.277 328.459 177.741 328.138 177.46C324.943 174.671 319.259 170.375 317.112 172.927C316.005 174.242 316.285 176.781 317.943 180.488C317.925 180.563 317.897 180.635 317.897 180.715V183.287C317.897 183.761 318.22 184.145 318.619 184.145C319.018 184.145 319.341 183.76 319.341 183.287V183.278C321.469 187.192 324.565 191.633 328.183 195.931C329.198 197.136 330.223 198.291 331.245 199.388C328.756 201.949 326.321 204.111 324.134 205.677C320.521 208.263 318.642 208.468 318.133 207.865C317.654 207.295 317.828 205.308 319.418 201.874L321.013 201.243C321.391 201.094 321.596 200.608 321.469 200.159C321.345 199.713 320.943 199.472 320.561 199.617C321.426 198.032 322.533 196.223 323.933 194.184C324.185 193.817 324.138 193.278 323.829 192.978C323.521 192.68 323.067 192.737 322.813 193.101C322.042 194.225 320.636 196.357 319.341 198.741V198.716C319.341 198.242 319.018 197.859 318.619 197.859C318.22 197.859 317.897 198.242 317.897 198.716V201.287C317.897 201.38 317.927 201.463 317.95 201.548C316.596 204.588 315.844 207.571 317.112 209.077C317.555 209.602 318.162 209.864 318.931 209.864C320.361 209.864 322.35 208.956 324.879 207.145C327.176 205.5 329.732 203.222 332.335 200.531C334.938 203.222 337.494 205.5 339.791 207.145C342.319 208.957 344.309 209.865 345.739 209.864C346.508 209.864 347.115 209.602 347.558 209.077C348.826 207.571 348.074 204.59 346.72 201.549C346.744 201.464 346.773 201.38 346.773 201.287Z" fill="#66D6A0"/>
<path id="Vector_148" d="M325.114 183.291C325.114 183.765 325.437 184.148 325.836 184.148C326.235 184.148 326.558 183.765 326.558 183.291C326.558 182.817 326.882 182.433 327.28 182.433C327.678 182.433 328.002 182.817 328.002 183.291C328.002 183.764 327.678 184.148 327.28 184.148C326.881 184.148 326.558 184.531 326.558 185.006C326.558 185.479 326.881 185.862 327.28 185.862C327.678 185.862 328.002 186.246 328.002 186.72C328.002 187.193 327.678 187.577 327.28 187.577C326.882 187.577 326.558 187.193 326.558 186.72C326.558 186.246 326.235 185.862 325.836 185.862C325.437 185.862 325.114 186.246 325.114 186.719C325.114 188.137 326.086 189.291 327.28 189.291C328.475 189.291 329.446 188.137 329.446 186.719C329.446 186.062 329.237 185.461 328.893 185.006C329.237 184.549 329.446 183.948 329.446 183.291C329.446 181.873 328.475 180.719 327.28 180.719C326.086 180.719 325.114 181.873 325.114 183.291Z" fill="#66D6A0"/>
<path id="Vector_149" d="M337.389 189.291C338.583 189.291 339.555 188.137 339.555 186.718V183.29C339.555 181.872 338.583 180.718 337.389 180.718C336.194 180.718 335.223 181.872 335.223 183.29V186.718C335.223 188.137 336.194 189.291 337.389 189.291ZM336.667 183.29C336.667 182.817 336.991 182.432 337.389 182.432C337.787 182.432 338.111 182.817 338.111 183.29V186.719C338.111 187.192 337.787 187.576 337.389 187.576C336.991 187.576 336.667 187.192 336.667 186.719V183.29Z" fill="#66D6A0"/>
<path id="Vector_150" d="M332.336 189.291C333.53 189.291 334.502 188.137 334.502 186.718C334.502 185.301 333.53 184.147 332.336 184.147C332.114 184.147 331.904 184.198 331.702 184.273C331.865 183.492 332.343 182.432 333.78 182.432C334.179 182.432 334.502 182.049 334.502 181.576C334.502 181.102 334.179 180.718 333.78 180.718C330.923 180.718 330.169 183.522 330.169 185.005V186.718C330.169 188.137 331.141 189.291 332.336 189.291ZM332.336 185.862C332.734 185.862 333.057 186.246 333.057 186.719C333.057 187.192 332.734 187.576 332.336 187.576C331.937 187.576 331.613 187.192 331.613 186.718C331.613 186.246 331.937 185.862 332.336 185.862Z" fill="#66D6A0"/>
<path id="Vector_151" d="M342.444 180.719C342.444 179.773 341.796 179.004 340.999 179.004C340.204 179.004 339.556 179.773 339.556 180.719C339.556 181.664 340.204 182.433 340.999 182.433C341.796 182.433 342.444 181.664 342.444 180.719Z" fill="#66D6A0"/>
</g>
</g>
</g>
</g>
<defs>
<linearGradient id="paint0_linear_1_2" x1="196.707" y1="215.532" x2="271.686" y2="100.145" gradientUnits="userSpaceOnUse">
<stop stop-color="#12844D"/>
<stop offset="1" stop-color="#3BE090"/>
</linearGradient>
<linearGradient id="paint1_linear_1_2" x1="125.809" y1="252.37" x2="125.809" y2="217.327" gradientUnits="userSpaceOnUse">
<stop stop-color="#CF6074"/>
<stop offset="1" stop-color="#FF817F"/>
</linearGradient>
<linearGradient id="paint2_linear_1_2" x1="136.288" y1="250.725" x2="136.288" y2="167.225" gradientUnits="userSpaceOnUse">
<stop stop-color="#79ADFA"/>
<stop offset="1" stop-color="#2C72DA"/>
</linearGradient>
<linearGradient id="paint3_linear_1_2" x1="173.48" y1="366.65" x2="173.48" y2="263.334" gradientUnits="userSpaceOnUse">
<stop stop-color="#000B78"/>
<stop offset="1" stop-color="#1B279B"/>
</linearGradient>
<linearGradient id="paint4_linear_1_2" x1="206.299" y1="225.86" x2="206.299" y2="164.537" gradientUnits="userSpaceOnUse">
<stop stop-color="#7CAFFC"/>
<stop offset="1" stop-color="#2C72DA"/>
</linearGradient>
<linearGradient id="paint5_linear_1_2" x1="170.325" y1="275.374" x2="170.325" y2="160.172" gradientUnits="userSpaceOnUse">
<stop stop-color="#67A1F8"/>
<stop offset="1" stop-color="#1B67D9"/>
</linearGradient>
<linearGradient id="paint6_linear_1_2" x1="180.998" y1="154.336" x2="161.645" y2="154.336" gradientUnits="userSpaceOnUse">
<stop stop-color="#CF6074"/>
<stop offset="1" stop-color="#FF817F"/>
</linearGradient>
<linearGradient id="paint7_linear_1_2" x1="185.02" y1="167.142" x2="185.02" y2="166.965" gradientUnits="userSpaceOnUse">
<stop stop-color="#9D68C2"/>
<stop offset="1" stop-color="#CCEDFF"/>
</linearGradient>
<linearGradient id="paint8_linear_1_2" x1="160.769" y1="174.712" x2="160.769" y2="163.518" gradientUnits="userSpaceOnUse">
<stop stop-color="#3D2CB0"/>
<stop offset="1" stop-color="#0355C7"/>
</linearGradient>
<linearGradient id="paint9_linear_1_2" x1="251.21" y1="182.75" x2="255.546" y2="165.375" gradientUnits="userSpaceOnUse">
<stop offset="0.016" stop-color="#FFC2A9"/>
<stop offset="1" stop-color="#FF9595"/>
</linearGradient>
<linearGradient id="paint10_linear_1_2" x1="241.964" y1="180.007" x2="249.121" y2="151.324" gradientUnits="userSpaceOnUse">
<stop stop-color="#FFEADB"/>
<stop offset="0.9944" stop-color="#C27CB6"/>
</linearGradient>
<linearGradient id="paint11_linear_1_2" x1="237.344" y1="150.439" x2="237.344" y2="133.429" gradientUnits="userSpaceOnUse">
<stop stop-color="#A242EA"/>
<stop offset="1" stop-color="#FE117E"/>
</linearGradient>
<linearGradient id="paint12_linear_1_2" x1="217.855" y1="224.033" x2="217.855" y2="188.991" gradientUnits="userSpaceOnUse">
<stop stop-color="#CF6074"/>
<stop offset="1" stop-color="#FF817F"/>
</linearGradient>
<linearGradient id="paint13_linear_1_2" x1="207.857" y1="120.959" x2="228.621" y2="101.951" gradientUnits="userSpaceOnUse">
<stop stop-color="#25B770" stop-opacity="0.6"/>
<stop offset="1" stop-color="#1FCF79"/>
</linearGradient>
<linearGradient id="paint14_linear_1_2" x1="256.408" y1="119.638" x2="224.441" y2="103.591" gradientUnits="userSpaceOnUse">
<stop stop-color="#33CF83"/>
<stop offset="1" stop-color="#32CE82"/>
</linearGradient>
<linearGradient id="paint15_linear_1_2" x1="251.432" y1="182.663" x2="255.767" y2="165.288" gradientUnits="userSpaceOnUse">
<stop offset="0.016" stop-color="#FFC2A9"/>
<stop offset="1" stop-color="#FF9595"/>
</linearGradient>
</defs>
</svg>
