<svg width="404" height="403" viewBox="0 0 404 403" fill="none" xmlns="http://www.w3.org/2000/svg">
<g id="gamedevelop2 1">
<g id="Group 679">
<g id="Group 499">
<g id="Group 498">
<path id="Vector" opacity="0.08" d="M122.115 345.769C201.319 364.413 328.032 330.451 369.448 279.012C410.862 227.573 364.302 173.177 332.667 153.67C322.825 147.639 311.863 143.451 303.756 134.854C286.053 116.023 279.187 84.5264 257.412 71.8376C238.577 60.8463 227.737 99.1572 207.011 93.3156C197.968 90.8285 146.074 61.7155 110.558 75.1322C78.1336 87.3804 33.9441 147.718 49.3771 206.133C64.81 264.548 13.657 320.24 122.115 345.769Z" fill="#84B5FF"/>
<path id="Vector_2" opacity="0.08" d="M165.824 343.83C229.108 364.195 331.702 342.727 366.088 301.529C400.473 260.333 364.19 211.557 339.169 193.204C331.384 187.526 322.66 183.345 316.324 175.593C302.489 158.616 297.636 131.533 280.397 119.525C265.488 109.126 255.961 140.963 239.421 134.818C232.203 132.189 191.097 104.527 162.259 113.848C135.932 122.356 99.1272 170.933 110.299 221.318C121.47 271.704 79.1655 315.944 165.824 343.83Z" fill="#84B5FF"/>
<g id="Mask Group">
<g id="Mask group">
<mask id="mask0_1_2" style="mask-type:alpha" maskUnits="userSpaceOnUse" x="103" y="80" width="278" height="272">
<g id="Group">
<path id="Vector_3" d="M165.822 343.83C229.106 364.195 331.701 342.727 366.086 301.529C400.472 260.333 364.19 211.557 339.168 193.204C331.383 187.526 340.585 179.267 334.248 171.515C320.414 154.538 356.407 105.468 339.168 93.4599C324.258 83.061 285.481 86.9144 268.942 80.7697C261.724 78.1406 195.155 88.9494 182.946 86.5951C155.943 81.3876 120.103 175.536 112.635 204.134C105.167 232.733 79.1648 315.944 165.822 343.83Z" fill="#84B5FF"/>
</g>
</mask>
<g mask="url(#mask0_1_2)">
<g id="Group_2">
<g id="Group 299">
<g id="Group 112">
<g id="Group 111">
<g id="Group_3">
<g id="Group_2_2">
<path id="Vector_4" d="M250.197 332.028H259.276V357.77H250.197V332.028Z" fill="#969391"/>
</g>
<path id="Vector_5" d="M292.901 323.975C292.901 328.896 288.753 338.406 283.955 338.406H228.699C223.901 338.406 222.227 328.876 222.227 323.975V323.6C222.227 318.678 223.901 313.38 228.699 313.38H283.955C288.753 313.38 292.901 318.678 292.901 323.6V323.975Z" fill="#435467"/>
<g id="Group_3_2">
<path id="Vector_6" d="M316.743 313.971C316.408 319.205 311.907 323.147 306.663 322.792C305.138 322.688 248.208 324.043 245.865 323.814C235.635 322.855 250.644 318.183 245.865 312.135C237.775 312.177 236.138 312.052 234.334 311.239C231.581 310.008 207.812 303.897 206.045 296.911C204.279 289.904 197.416 201.498 197.416 201.498C200.261 196.138 230.651 199.558 244.879 201.498C252.43 202.541 256.819 210.195 256.819 216.096C256.819 218.14 257.043 220.205 257.154 222.249C257.73 232.593 258.233 242.938 258.791 253.281C259.106 258.913 259.349 264.565 259.591 270.216C259.721 273.282 259.869 276.368 260.055 279.434C260.241 282.792 259.906 286.817 260.706 290.07C263.05 299.873 280.457 300.853 287.878 300.957C299.781 301.124 297.084 301.582 302.869 302.354C307.964 303.042 311.628 304.022 314.158 306.754C315.962 308.715 316.891 311.342 316.743 313.971Z" fill="#C1C7CC"/>
<g id="Group_4">
<path id="Vector_7" d="M225.797 323.335C239.783 324.941 248.617 323.878 249.771 323.94C253.695 324.169 256.261 321.563 256.633 316.203C256.819 313.513 256.168 310.864 254.847 308.904C252.988 306.172 250.254 305.254 246.441 304.691C242.108 304.044 235.357 303.773 226.392 303.919C223.472 303.961 220.459 303.669 217.595 303.085C214.266 302.397 211.606 300.749 208.873 298.309C205.525 295.327 205.971 288.924 206.027 284.002C206.064 280.936 206.045 277.913 205.971 274.868C205.655 260.519 205.637 246.15 205.487 231.801C205.413 223.772 205.32 215.764 205.246 207.735C205.19 202.395 201.936 198.328 197.992 198.704C194.031 199.058 190.888 203.688 190.943 209.027L191.873 296.078C191.873 296.412 191.892 296.724 191.911 297.058C192.023 298.393 192.859 305.379 197.955 311.907C203.089 318.476 210.565 322.23 220.255 323.148C222.021 323.294 223.9 323.106 225.797 323.335Z" fill="#979B9E"/>
</g>
</g>
</g>
<g id="Group_5">
<g id="Group 78">
<path id="hair" class="hair" d="M244.497 240.596C233.991 249.625 218.741 253.281 206.994 246.295C203.309 244.11 199.916 240.616 199.187 236.123C198.311 230.709 201.43 225.112 200.117 219.801C198.968 215.103 194.773 212.223 191.653 208.75C187.129 203.725 184.503 196.719 184.521 189.671C184.539 182.623 187.166 175.637 191.708 170.632C195.557 166.384 200.573 163.646 204.988 160.092C208.472 157.273 211.609 153.617 213.269 149.184C214.91 144.812 213.561 142.238 213.324 137.949C212.831 128.777 214.892 118.523 220.784 111.7C228.409 102.834 239.736 102.978 249.751 105.265C254.822 106.409 260.422 108.186 264.873 111.21C266.769 112.496 268.028 114.069 269.324 116.132C269.743 116.786 272.078 123.303 271.986 123.282C286.835 127.082 278.863 150.123 283.424 160.705C284.865 164.035 287.382 166.609 289.589 169.366C293.456 174.228 296.484 180.07 297.432 186.484C298.381 192.898 297.086 199.884 293.237 204.746C292.617 205.543 291.887 206.319 291.65 207.341C291.285 208.872 292.052 210.404 292.617 211.855C295.992 220.536 292.125 230.587 287.254 238.329C283.989 243.538 280.14 248.481 275.142 251.504C267.171 256.346 257.102 255.59 248.893 251.259" fill="url(#paint0_linear_1_2)"/>
<path id="Vector_9" opacity="0.42" d="M251.612 126.389C256.628 123.652 263.031 126.696 266.132 131.905C269.215 137.114 273.228 141.751 272.498 147.94C272.133 151.004 271.531 154.129 272.078 157.173C273.465 165.058 277.806 170.819 282.33 177.049C286.161 182.32 287.401 189.326 288.386 196.026C288.97 200.03 289.444 204.442 287.547 207.894C285.139 212.266 282.384 217.903 279.795 222.132C275.526 229.057 278.025 235.819 272.863 241.947C271.331 243.744 269.178 244.684 267.062 245.439C262.776 246.931 258.343 247.809 253.856 248.075C250.025 248.299 246.14 248.034 242.528 246.624C233.663 243.131 227.735 231.978 229.34 221.601C230.562 213.737 235.396 207.2 237.694 199.621C239.336 194.188 239.61 188.243 238.497 182.646C237.074 175.578 233.444 168.551 235.013 161.524" fill="#113356"/>
<path id="Vector_10" d="M233.721 192.707C232.903 198.109 239.375 198.568 239.375 198.568C242.221 198.568 246.665 197.587 246.665 194.396L245.289 174.396C245.289 171.205 242.964 168.598 240.118 168.598C237.273 168.598 234.949 171.184 234.949 174.396L233.721 192.707Z" fill="#D8826C"/>
<path id="Vector_11" d="M259 122.052C258.343 120.663 253.381 122.154 252.834 120.684C249.642 123.891 242.765 117.579 238.934 120.01C233.918 123.196 229.887 126.383 224.341 128.18C222.518 128.773 225.162 130.121 223.228 130.224C222.718 133.982 219.562 145.686 219.744 149.568C220.675 169.035 233.444 181.292 245.994 179.494C255.479 178.125 264.454 164.95 266.843 146.238C267.062 144.481 268.211 136.024 268.102 134.309C263.614 129.406 261.991 128.283 259 122.052Z" fill="#F0A98F"/>
<path id="Vector_12" d="M243.295 159.845C243.295 159.845 246.25 165.422 249.424 159.743L243.295 159.845Z" fill="#D8826C"/>
<path id="Vector_13" d="M240.248 148.528C240.248 152.205 237.584 155.208 234.283 155.208C230.981 155.208 228.318 152.225 228.318 148.528C228.318 144.851 230.981 141.848 234.283 141.848C237.584 141.848 240.248 144.851 240.248 148.528Z" fill="white"/>
<path id="Vector_14" d="M238.459 152.206C237.401 155.005 235.011 156.557 233.114 155.679C231.217 154.78 230.542 151.797 231.582 148.999C232.64 146.18 235.029 144.648 236.908 145.526C238.824 146.405 239.517 149.387 238.459 152.206Z" fill="#84B5FF"/>
<path id="Vector_15" d="M237.456 151.736C236.708 153.717 235.012 154.82 233.662 154.187C232.312 153.554 231.819 151.43 232.586 149.428C233.334 147.426 235.03 146.323 236.38 146.956C237.73 147.609 238.204 149.734 237.456 151.736Z" fill="#400404"/>
<path id="Vector_16" d="M238.896 148.387C238.696 148.938 237.966 149.102 237.273 148.775C236.58 148.448 236.178 147.733 236.379 147.202C236.58 146.651 237.309 146.487 238.003 146.814C238.696 147.14 239.097 147.856 238.896 148.387Z" fill="white"/>
<path id="Vector_17" d="M237.001 165.218C237.001 165.218 246.614 170.183 250.682 165.628C250.682 165.628 246.979 175.984 237.001 165.218Z" fill="#D5503B"/>
<path id="Vector_18" d="M240.247 148.529C240.247 148.529 240.722 144.239 236.982 142.074C231.254 138.765 228.117 146.425 226.256 147.671C226.256 147.671 227.46 149.019 228.336 148.55C228.336 148.529 235.122 139.439 240.247 148.529Z" fill="#302725"/>
<path id="Vector_19" d="M251.137 149.45C251.137 153.148 253.8 156.13 257.101 156.13C260.385 156.13 263.066 153.148 263.066 149.45C263.066 145.773 260.403 142.791 257.101 142.791C253.818 142.77 251.137 145.773 251.137 149.45Z" fill="white"/>
<g id="Group_6">
<path id="Vector_20" d="M261.149 152.432C260.583 155.414 258.413 157.416 256.278 156.906C254.144 156.395 252.886 153.576 253.451 150.614C254.017 147.632 256.187 145.63 258.322 146.12C260.438 146.631 261.714 149.45 261.149 152.432Z" fill="#84B5FF"/>
<path id="Vector_21" d="M260.037 152.166C259.636 154.29 258.103 155.7 256.589 155.352C255.075 155.005 254.182 152.983 254.565 150.879C254.966 148.755 256.516 147.325 258.03 147.692C259.526 148.039 260.438 150.041 260.037 152.166Z" fill="#400404"/>
<path id="Vector_22" d="M260.895 148.572C260.785 149.144 260.056 149.471 259.29 149.287C258.505 149.103 257.977 148.49 258.068 147.918C258.177 147.346 258.889 147.019 259.673 147.203C260.457 147.387 261.005 148 260.895 148.572Z" fill="white"/>
</g>
<path id="Vector_23" d="M251.046 148.63C251.046 148.63 250.571 144.81 254.31 142.89C260.038 139.948 263.176 146.751 265.019 147.854C265.019 147.854 263.814 149.039 262.939 148.63C262.957 148.63 256.81 140.357 251.046 148.63Z" fill="#302725"/>
<path id="Vector_24" d="M229.374 139.048C229.374 139.048 235.43 132.982 241.23 135.596C242.581 136.209 242.891 136.924 243.748 139.866C243.748 139.866 237.145 135.719 229.374 139.048Z" fill="#6F3B1E"/>
<path id="Vector_25" d="M264.945 141.583C264.945 141.583 261.498 134.576 256.244 135.985C255.022 136.312 254.603 136.946 253.235 139.602C253.235 139.621 259.491 136.905 264.945 141.583Z" fill="#6F3B1E"/>
<g id="Group_7">
<g id="Group_8">
<path id="Vector_26" d="M221.439 143.91C221.439 143.91 215 134.065 213.139 143.523C211.662 151.06 217.664 156.596 221.384 155.186C225.105 153.777 221.439 143.91 221.439 143.91Z" fill="#F0A98F"/>
<path id="Vector_27" d="M221.513 145.667C221.513 145.667 216.953 139.458 215.786 142.379C214.618 145.3 215.311 148.732 215.311 148.732C215.311 148.732 215.786 144.81 218.559 146.628C218.559 146.628 216.588 153.082 221.513 150.631C221.532 150.631 223.465 148.487 221.513 145.667Z" fill="#D8826C"/>
</g>
</g>
<path id="Vector_28" d="M221.793 155.691C221.793 156.692 221.118 157.489 220.297 157.489C219.458 157.489 218.802 156.672 218.802 155.691C218.802 154.691 219.476 153.873 220.297 153.873C221.118 153.873 221.793 154.67 221.793 155.691Z" fill="white"/>
<path id="Vector_29" d="M274.102 137.15C268.886 138.784 263.012 137.6 258.579 134.025C254.147 130.45 251.265 124.546 250.973 118.438C250.882 116.743 251.192 114.701 252.56 114.006C253.034 113.76 253.581 113.74 254.111 113.76C257.339 113.863 260.44 115.395 263.012 117.622C265.584 119.848 267.627 122.728 269.433 125.751C270.728 127.938 271.895 130.225 272.607 132.717C273.044 134.29 273.3 135.925 273.355 137.559" fill="url(#paint1_linear_1_2)"/>
<path id="Vector_30" d="M252.104 122.259C242.564 128.306 231.765 138.99 221.422 138.397C220.894 138.377 218.23 134.72 218.011 134.25C217.829 133.842 218.029 133.332 218.23 132.882C220.328 128.429 225.946 120.687 230.123 118.051C234.3 115.417 238.879 113.742 243.439 112.23C245.756 111.474 248.109 110.739 250.444 110.698C252.76 110.657 255.095 111.372 256.39 113.129" fill="url(#paint2_linear_1_2)"/>
</g>
<path id="Vector_31" d="M301.685 308.547C301.685 308.547 303.88 297.952 282.473 288.15C261.085 278.349 252.344 277.285 251.135 284.188C249.926 291.091 255.171 305.502 285.746 314.762C298.189 318.516 301.685 308.547 301.685 308.547Z" fill="#DE947A"/>
<g id="Group_9">
<path id="Vector_32" d="M287.902 306.338C287.902 306.317 287.902 306.296 287.902 306.275C288.665 299.685 296.085 298.538 300.326 302.146C303.804 305.107 307.152 323.502 308.23 330.468C309.904 341.333 311.206 357.684 312.861 368.57C313.344 371.74 313.81 374.889 314.219 378.059C316.413 383.544 316.878 384.441 318.738 388.279C320.598 392.095 322.365 391.803 320.636 392.658C317.845 394.055 309.904 391.282 308.045 385.15C307.022 381.813 306.445 380.395 306.073 376.704C289.613 341.145 287.307 311.719 287.902 306.338Z" fill="#DE947A"/>
</g>
<path id="Vector_33" d="M286.431 306.778C286.431 306.778 287.323 295.954 264.969 289.448C242.594 282.961 233.816 283.212 233.426 290.219C233.035 297.247 239.972 310.72 271.366 315.308C284.162 317.185 286.431 306.778 286.431 306.778Z" fill="#F0A98F"/>
<path id="Vector_34" d="M302.818 303.706C294.653 284.415 261.12 278.534 261.12 278.534L255.875 264.811L243.637 264.498C223.533 307.314 262.868 302.08 267.834 304.039C272.782 306 286.191 317.116 286.191 317.116C288.813 334.113 300.177 376.282 303.097 376.595C306.016 376.929 314.46 373.008 314.46 373.008C314.46 373.008 310.964 322.977 302.818 303.706Z" fill="#C2C2C2"/>
<g id="Group_10">
<g id="Group_11">
<path id="Vector_35" d="M275.682 306.359C277.468 301.333 283.996 300.478 286.339 305.816C288.273 310.196 286.339 332.783 284.517 339.539C281.671 350.113 278.788 360.666 275.943 371.219C275.105 374.285 274.269 377.351 273.357 380.395C273.134 386.402 273.209 387.444 273.339 391.804C273.469 396.141 273.302 402.856 271.404 402.773C268.355 402.648 263.054 392.783 263.835 386.36C264.263 382.856 265.472 378.602 266.606 375.098C266.941 307.026 275.05 308.152 275.682 306.359Z" fill="#F0A98F"/>
</g>
<path id="Vector_36" d="M226.157 255.326C226.157 255.326 208.172 293.617 217.602 303.064C227.031 312.532 268.133 318.08 268.133 318.08C268.133 318.08 263.763 359.582 265.214 372.992L276.577 374.952C276.577 374.952 294.357 316.766 286.192 302.397C278.027 288.027 256.751 283.106 247.712 284.107C247.712 284.107 252.083 270.384 248.884 265.462C245.685 260.561 226.157 254.033 226.157 255.326Z" fill="#D4D4D4"/>
</g>
<path id="Vector_37" d="M223.756 261.625C226.23 237.849 214.569 192.239 214.569 192.239C214.569 192.239 245.684 181.936 265.584 192.239L255.411 265.962C255.411 265.962 249.906 267.505 242.188 266.275C234.506 265.024 223.756 261.625 223.756 261.625Z" fill="#194484"/>
<path id="Vector_38" d="M228.35 227.857C228.35 227.857 251.747 230.568 258.201 225.146C258.201 225.146 250.129 246.856 228.35 227.857Z" fill="#0E3979"/>
<path id="Vector_39" d="M257.158 266.547C257.158 266.547 244.083 273.533 223.55 262.709C223.755 261.625 224.165 255.722 224.165 255.722L256.209 260.269L257.158 266.547Z" fill="#8F99B6"/>
<path id="Vector_40" d="M236.328 257.138L234.765 268.295L230.729 267.941L232.273 256.074L236.328 257.138Z" fill="#D4D4D4"/>
<path id="Vector_41" d="M252.193 258.538L253.439 268.653L243.172 269.695L242.558 257.14L252.193 258.538ZM245.646 266.547L250.147 265.503V260.79L244.864 260.269L245.646 266.547Z" fill="#EAEAEA"/>
</g>
<g id="Group_12">
<path id="Vector_42" d="M318.864 254.703C318.864 254.703 310.476 255.078 300.564 252.909C291.692 250.969 281.593 247.027 275.251 238.957C267.886 229.572 261.209 212.679 261.209 212.679C261.209 212.679 263.106 193.993 265.598 192.262C268.072 190.531 285.313 229.322 289.776 232.387C292.343 234.139 301.214 237.643 308.877 240.897C314.587 243.315 319.627 245.589 320.836 246.882C323.681 249.885 318.864 254.703 318.864 254.703Z" fill="#194484"/>
<g id="Group_13">
<path id="Vector_43" d="M323.736 254.724C322.676 248.905 319.217 244.629 315.107 244.629C310.996 244.629 307.537 248.905 306.477 254.724H323.736Z" fill="#22272E"/>
<path id="Vector_44" d="M310.403 249.925C310.403 251.259 309.212 252.323 307.743 252.323C306.274 252.323 305.084 251.238 305.084 249.925C305.084 248.59 306.274 247.526 307.743 247.526C309.212 247.505 310.403 248.59 310.403 249.925Z" fill="#F0A98F"/>
<path id="Vector_45" d="M314.085 244.63C314.085 246.549 313.286 248.113 312.282 248.113C311.277 248.113 310.477 246.549 310.477 244.63C310.477 242.711 311.277 241.168 312.282 241.168C313.286 241.168 314.085 242.711 314.085 244.63Z" fill="#F0A98F"/>
<path id="Vector_46" d="M319.311 244.879C318.753 246.673 317.544 247.82 316.595 247.424C315.665 247.027 315.349 245.234 315.907 243.44C316.465 241.646 317.674 240.5 318.622 240.896C319.571 241.292 319.869 243.086 319.311 244.879Z" fill="#F0A98F"/>
<path id="Vector_47" d="M323.607 249.596C322.547 251.056 321.078 251.64 320.315 250.889C319.553 250.139 319.795 248.324 320.836 246.864C321.896 245.404 323.366 244.821 324.128 245.571C324.891 246.343 324.649 248.136 323.607 249.596Z" fill="#F0A98F"/>
<path id="Vector_48" d="M324.854 254.348C323.291 254.911 321.785 254.473 321.506 253.347C321.208 252.221 322.231 250.866 323.794 250.281C325.356 249.718 326.862 250.156 327.16 251.282C327.439 252.408 326.416 253.785 324.854 254.348Z" fill="#F0A98F"/>
</g>
</g>
<g id="Group_14">
<path id="Vector_49" d="M217.653 253.68C217.653 253.68 227.64 234.201 243.021 254.556L217.653 253.68Z" fill="#F0A98F"/>
<g id="Group_15">
<path id="Vector_50" d="M214.587 192.242C213.378 192.346 191.86 223.546 189.163 249.657C189.163 249.657 189.014 259.938 202.201 244.943C207.445 238.978 209.343 223.942 218.976 211.471C218.976 211.45 219.571 191.804 214.587 192.242Z" fill="#194484"/>
<g id="Group_16">
<path id="Vector_51" d="M224.927 244.943C221.43 243.107 211.704 241.772 209.267 241.085C193.849 236.663 190.632 251.804 190.632 251.804C187.972 256.809 209.23 256.184 221.821 255.037C222.36 251.637 224.555 248.363 224.927 244.943Z" fill="#4676A0"/>
</g>
</g>
</g>
<g id="Group_17">
<path id="left_hand" class="cactus" d="M198.313 205.608C211.35 209.654 192.472 232.699 190.613 236.454V234.097C188.753 229.633 186.465 201.938 198.313 205.608Z" fill="#06B25F"/>
<g id="right_hand" class="cactus1">
<path id="Vector_53" d="M176.182 199.475C187.601 202.645 188.512 227.317 183.174 236.202L178.971 233.845C174.972 225.378 168.575 219.934 168.277 209.694C168.11 203.646 169.56 197.64 176.182 199.475Z" fill="#06B25F"/>
<path id="Vector_54" d="M158.271 198.621C163.684 191.092 170.174 199.684 170.174 206.65V208.214C164.577 212.177 151.744 207.692 158.271 198.621Z" fill="#06B25F"/>
</g>
<path id="Vector_55" d="M200.45 229.404L196.954 257.663L171.047 258.455L168.945 230.196L200.45 229.404Z" fill="#66D6A0"/>
</g>
<g id="Group_18">
<g id="Group_19">
<path id="Vector_56" d="M362.404 413.075L334.339 269.527L341.09 266.983L369.658 413.075H362.404Z" fill="#C1C7CC"/>
<path id="Vector_57" d="M154.568 413.073L182.614 269.526L175.882 266.982L147.296 413.073H154.568Z" fill="#C1C7CC"/>
</g>
<path id="Vector_58" d="M142.329 254.618H374.623V270.072H142.329V254.618Z" fill="#D8DDE1"/>
</g>
</g>
</g>
<g id="Group_20">
<path id="Vector_59" d="M339.511 248.091C339.511 248.175 339.53 248.279 339.53 248.362C339.567 251.867 336.907 254.744 333.597 254.786L253.048 255.975C249.719 256.016 247.003 253.222 246.947 249.718C246.947 249.614 246.947 249.531 246.966 249.447L339.511 248.091Z" fill="#E7E9ED"/>
<g id="Group_21">
<path id="Vector_60" d="M264.78 245.15C264.445 247.736 265.803 249.822 267.774 249.78L335.639 248.758C337.63 248.738 339.415 246.923 339.656 244.692L344.046 203.085C344.287 200.854 342.911 198.893 340.977 198.705L275.009 192.22C273.075 192.031 271.252 193.992 270.917 196.578L264.78 245.15Z" fill="#E2E4E8"/>
<path id="Vector_61" d="M300.453 222.377C300.099 225.38 301.774 227.862 304.191 227.924C306.609 227.987 308.841 225.672 309.194 222.71C309.529 219.769 307.856 217.288 305.456 217.142C303.057 217.058 300.825 219.373 300.453 222.377Z" fill="#F2F2F2"/>
</g>
</g>
</g>
</g>
</g>
</g>
</g>
</g>
</g>
<path id="circle" class="circle" d="M389.507 204.187C382.005 204.187 375.925 211.002 375.925 219.412C375.925 227.822 382.005 234.637 389.507 234.637C397.009 234.637 403.089 227.822 403.089 219.412C403.089 211.002 397.009 204.187 389.507 204.187ZM389.507 230.844C383.869 230.844 379.303 225.725 379.303 219.405C379.303 213.084 383.869 207.966 389.507 207.966C395.145 207.966 399.711 213.084 399.711 219.405C399.711 225.725 395.145 230.844 389.507 230.844Z" fill="#66D6A0"/>
<g id="gea1r1" class="gear1" filter="url(#filter0_d_1_2)">
<path id="Vector_8" d="M100.944 264.837L108.408 263.263V255.761L100.944 254.318C100.371 251.236 99.2827 248.351 97.7851 245.793L102.067 238.75L97.3291 233.438L91.1397 238.343C88.8581 236.665 86.2958 235.458 83.5349 234.815L82.1311 226.448H75.4384L74.1518 234.815C71.4026 235.458 68.8286 236.678 66.547 238.356L60.276 233.557L55.5376 238.868L59.9133 245.806C58.4157 248.364 57.3394 251.249 56.766 254.331L49.3017 255.905V263.408L56.766 264.85C57.3394 267.946 58.4274 270.818 59.925 273.375L55.6429 280.405L60.3813 285.717L66.5821 280.812C68.8635 282.491 71.4375 283.71 74.1867 284.34L75.5911 292.708H82.2832L83.5698 284.34C86.3314 283.697 88.893 282.478 91.1746 280.799L97.4455 285.6L102.184 280.288L97.8084 273.349C99.2943 270.805 100.371 267.932 100.944 264.837ZM78.8553 275.12C71.2033 275.12 65.0026 268.155 65.0026 259.591C65.0026 251.026 71.2033 244.062 78.8553 244.062C86.5067 244.062 92.7077 251.013 92.7077 259.591C92.7077 268.168 86.5067 275.12 78.8553 275.12Z" fill="#84B5FF"/>
</g>
<g id="gear1_2" class="gear1"filter="url(#filter1_d_1_2)">
<path id="Vector_52" d="M128.212 170.662L132.887 169.675V164.977L128.212 164.072C127.853 162.142 127.171 160.335 126.233 158.733L128.915 154.321L125.947 150.994L122.07 154.067C120.641 153.015 119.037 152.259 117.307 151.857L116.428 146.615H112.236L111.43 151.857C109.708 152.259 108.095 153.023 106.666 154.075L102.739 151.068L99.7702 154.395L102.511 158.741C101.573 160.343 100.899 162.15 100.54 164.081L95.8644 165.067V169.766L100.54 170.669C100.899 172.608 101.581 174.408 102.519 176.01L99.8366 180.413L102.804 183.74L106.688 180.668C108.117 181.719 109.73 182.483 111.452 182.878L112.331 188.119H116.523L117.329 182.878C119.059 182.475 120.664 181.711 122.093 180.659L126.021 183.666L128.988 180.339L126.248 175.993C127.179 174.399 127.853 172.6 128.212 170.662ZM114.376 177.102C109.583 177.102 105.699 172.74 105.699 167.375C105.699 162.011 109.583 157.648 114.376 157.648C119.168 157.648 123.053 162.002 123.053 167.375C123.053 172.748 119.168 177.102 114.376 177.102Z" fill="#84B5FF"/>
</g>
<g id="Group_22">
<g id="Group 279">
<path id="Vector_65" d="M134.765 304.562H115.793C115.045 304.562 114.435 303.885 114.435 303.041C114.435 302.203 115.039 301.518 115.793 301.518H134.765C135.512 301.518 136.123 302.196 136.123 303.041C136.123 303.877 135.512 304.562 134.765 304.562Z" fill="#66D6A0"/>
<path id="Vector_66" d="M134.765 312.156H115.793C115.046 312.156 114.435 311.479 114.435 310.635C114.435 309.797 115.039 309.113 115.793 309.113H134.765C135.512 309.113 136.123 309.79 136.123 310.635C136.123 311.472 135.512 312.156 134.765 312.156Z" fill="#66D6A0"/>
</g>
</g>
</g>
</g>
<defs>
<filter id="filter0_d_1_2" x="39.3017" y="220.448" width="79.1066" height="86.2601" filterUnits="userSpaceOnUse" color-interpolation-filters="sRGB">
<feFlood flood-opacity="0" result="BackgroundImageFix"/>
<feColorMatrix in="SourceAlpha" type="matrix" values="0 0 0 0 0 0 0 0 0 0 0 0 0 0 0 0 0 0 127 0" result="hardAlpha"/>
<feOffset dy="4"/>
<feGaussianBlur stdDeviation="5"/>
<feColorMatrix type="matrix" values="0 0 0 0 0.0885677 0 0 0 0 0.0395834 0 0 0 0 0.395833 0 0 0 0.25 0"/>
<feBlend mode="normal" in2="BackgroundImageFix" result="effect1_dropShadow_1_2"/>
<feBlend mode="normal" in="SourceGraphic" in2="effect1_dropShadow_1_2" result="shape"/>
</filter>
<filter id="filter1_d_1_2" x="85.8644" y="140.615" width="57.0228" height="61.5036" filterUnits="userSpaceOnUse" color-interpolation-filters="sRGB">
<feFlood flood-opacity="0" result="BackgroundImageFix"/>
<feColorMatrix in="SourceAlpha" type="matrix" values="0 0 0 0 0 0 0 0 0 0 0 0 0 0 0 0 0 0 127 0" result="hardAlpha"/>
<feOffset dy="4"/>
<feGaussianBlur stdDeviation="5"/>
<feColorMatrix type="matrix" values="0 0 0 0 0.0885677 0 0 0 0 0.0395834 0 0 0 0 0.395833 0 0 0 0.25 0"/>
<feBlend mode="normal" in2="BackgroundImageFix" result="effect1_dropShadow_1_2"/>
<feBlend mode="normal" in="SourceGraphic" in2="effect1_dropShadow_1_2" result="shape"/>
</filter>
<linearGradient id="paint0_linear_1_2" x1="201.876" y1="240.434" x2="288.441" y2="134.636" gradientUnits="userSpaceOnUse">
<stop stop-color="#0D6EB7"/>
<stop offset="1" stop-color="#00A4E8"/>
</linearGradient>
<linearGradient id="paint1_linear_1_2" x1="274.235" y1="138.067" x2="243.374" y2="108.668" gradientUnits="userSpaceOnUse">
<stop stop-color="#00A2E7"/>
<stop offset="0.0001" stop-color="#09A4E6"/>
<stop offset="1" stop-color="#01A0E4"/>
</linearGradient>
<linearGradient id="paint2_linear_1_2" x1="217.816" y1="136.093" x2="258.759" y2="114.626" gradientUnits="userSpaceOnUse">
<stop stop-color="#0491D7"/>
<stop offset="0.0001" stop-color="#098CCD"/>
<stop offset="1" stop-color="#00A3E7"/>
</linearGradient>
</defs>
</svg>
