<svg width="314" height="302" viewBox="0 0 314 302" fill="none" xmlns="http://www.w3.org/2000/svg">
<g id="mobileaplic1 1">
<g id="Group 681">
<path id="Vector" opacity="0.04" d="M41.653 241.363C36.3405 291.003 177.945 272.398 206.975 255.653C236.004 238.908 255.763 229.179 279.945 196.683C281.628 203.568 276.957 190.724 279.945 196.683C318.774 151.712 273.718 103.234 266.968 90.4051C261.133 79.3002 201.984 101.286 194.224 92.4707C190.824 88.657 155.891 34.1173 112.532 43.7023C80.8559 50.7046 41.1196 52.4503 24.0317 104.666C6.94395 156.881 52.1725 143.066 41.653 241.363Z" fill="#276ED8"/>
<g id="Mask Group">
<g id="Mask group">
<mask id="mask0_1_2" style="mask-type:alpha" maskUnits="userSpaceOnUse" x="20" y="28" width="277" height="246">
<g id="Group">
<path id="Vector_2" d="M41.6528 241.363C36.3403 291.003 177.945 272.398 206.974 255.653C236.004 238.908 255.762 229.179 279.945 196.683C281.628 203.568 276.957 190.724 279.945 196.683C318.774 151.712 286.833 69.6923 225.549 31.942C233.31 40.7575 219.715 20.8371 225.549 31.942C222.15 28.1289 155.891 34.1173 112.532 43.7023C80.8553 50.7046 41.1194 52.4502 24.0316 104.666C6.94376 156.881 52.1723 143.066 41.6528 241.363Z" fill="#276ED8"/>
</g>
</mask>
<g mask="url(#mask0_1_2)">
<g id="Group_2">
<g id="Group_3">
<path id="Vector_3" d="M196.63 108.845V190.906C196.63 193.016 194.957 194.725 192.891 194.725H70.3739C68.3073 194.725 66.6343 193.016 66.6343 190.906V108.845C66.6343 103.976 70.5009 100.021 75.2734 100.021H187.991C192.764 100.021 196.63 103.976 196.63 108.845Z" fill="white" stroke="#84B5FF" stroke-miterlimit="10"/>
<g id="Group 284">
<g id="Group 76">
<g id="Group 77">
<g id="Group_2_2">
<g id="Group_3_2">
<g id="Group_4">
<path id="Vector_4" d="M126.835 119.651H112.253V120.903H126.835V119.651Z" fill="#84B5FF"/>
</g>
<g id="Group_5">
<path id="Vector_5" d="M143.939 119.651H129.357V120.902H143.939V119.651Z" fill="#06B25F"/>
</g>
<g id="Group_6">
<path id="Vector_6" d="M139.37 126.405H116.759V127.657H139.37V126.405Z" fill="#276ED8"/>
</g>
<g id="Group_7">
<path id="Vector_7" d="M154.595 126.405H143.105V127.657H154.595V126.405Z" fill="#84B5FF"/>
</g>
<g id="Group_8">
<path id="Vector_8" d="M134.527 133.15H124.599V134.402H134.527V133.15Z" fill="#06B25F"/>
</g>
<g id="Group_9">
<path id="Vector_9" d="M173.207 133.15H140.266V134.402H173.207V133.15Z" fill="#06B25F"/>
</g>
<g id="Group_10">
<path id="Vector_10" d="M169.957 139.901H132.311V141.153H169.957V139.901Z" fill="#276ED8"/>
</g>
<g id="Group_11">
<path id="Vector_11" d="M134.485 146.647H122.9V147.899H134.485V146.647Z" fill="#84B5FF"/>
</g>
<g id="Group_12">
<path id="Vector_12" d="M151.028 146.647H139.443V147.899H151.028V146.647Z" fill="#276ED8"/>
</g>
</g>
<g id="Group_13">
<g id="Group_14">
<path id="Vector_13" d="M129.104 181.67H112.253V182.922H129.104V181.67Z" fill="#84B5FF"/>
</g>
<g id="Group_15">
<path id="Vector_14" d="M151.852 181.67H135.002V182.922H151.852V181.67Z" fill="#06B25F"/>
</g>
<g id="Group_16">
<path id="Vector_15" d="M173.998 181.67H157.148V182.922H173.998V181.67Z" fill="#84B5FF"/>
</g>
<g id="Group_17">
<path id="Vector_16" d="M149.7 174.914H116.759V176.166H149.7V174.914Z" fill="#276ED8"/>
</g>
<g id="Group_18">
<path id="Vector_17" d="M187.768 174.914H154.827V176.166H187.768V174.914Z" fill="#84B5FF"/>
</g>
<g id="Group_19">
<path id="Vector_18" d="M157.286 168.169H124.599V169.421H157.286V168.169Z" fill="#84B5FF"/>
</g>
<g id="Group_20">
<path id="Vector_19" d="M169.23 168.169H160.134V169.421H169.23V168.169Z" fill="#06B25F"/>
</g>
<g id="Group_21">
<path id="Vector_20" d="M134.77 161.417H122.467V162.668H134.77V161.417Z" fill="#06B25F"/>
</g>
<g id="Group_22">
<path id="Vector_21" d="M153.603 161.417H141.301V162.668H153.603V161.417Z" fill="#276ED8"/>
</g>
<g id="Group_23">
<path id="Vector_22" d="M173.83 161.417H161.527V162.668H173.83V161.417Z" fill="#84B5FF"/>
</g>
<g id="Group_24">
<path id="Vector_23" d="M153.983 154.674H136.732V155.926H153.983V154.674Z" fill="#06B25F"/>
</g>
<g id="Group_25">
<path id="Vector_24" d="M130.222 154.674H112.971V155.926H130.222V154.674Z" fill="#276ED8"/>
</g>
</g>
</g>
<g id="Group_26">
<g id="Group_27">
<g id="Group_28">
<path id="Vector_25" d="M108.192 118.454H106.619V120.062H108.192V118.454Z" fill="#84B5FF"/>
</g>
</g>
<g id="Group_29">
<g id="Group_30">
<path id="Vector_26" d="M108.191 177.3H106.619V174.031H108.191V177.3ZM108.191 169.122H106.619V165.853H108.191V169.122ZM108.191 160.943H106.619V157.674H108.191V160.943ZM108.191 152.765H106.619V149.496H108.191V152.765ZM108.191 144.586H106.619V141.317H108.191V144.586ZM108.191 136.408H106.619V133.139H108.191V136.408ZM108.191 128.229H106.619V124.96H108.191V128.229Z" fill="#84B5FF"/>
</g>
</g>
<g id="Group_31">
<g id="Group_32">
<path id="Vector_27" d="M108.192 182.209H106.62V183.816H108.192V182.209Z" fill="#84B5FF"/>
</g>
</g>
</g>
</g>
</g>
<path id="Rectangle 3" opacity="0.7" d="M66.338 110.366C66.338 108.228 68.035 106.494 70.1288 106.494H100.169V194.732H70.1288C68.035 194.732 66.338 192.999 66.338 190.86V110.366Z" fill="#84B5FF"/>
<path id="Vector_28" d="M83.6251 120.886H69.0434V122.138H83.6251V120.886Z" fill="#06B25F"/>
<path id="Vector_29" d="M94.7857 128.534H72.1751V129.786H94.7857V128.534Z" fill="#84B5FF"/>
<path id="Vector_30" d="M94.7857 136.183H72.1751V137.435H94.7857V136.183Z" fill="#84B5FF"/>
<path id="Vector_31" d="M94.7857 143.832H72.1751V145.083H94.7857V143.832Z" fill="#84B5FF"/>
<path id="Vector_32" d="M94.7857 151.479H72.1751V152.73H94.7857V151.479Z" fill="#84B5FF"/>
<path id="Vector_33" d="M95.9595 166.774H73.349V168.026H95.9595V166.774Z" fill="#84B5FF"/>
<path id="Vector_34" d="M95.9595 174.424H73.349V175.676H95.9595V174.424Z" fill="#84B5FF"/>
<path id="Vector_35" d="M95.9595 182.07H73.349V183.322H95.9595V182.07Z" fill="#84B5FF"/>
<path id="Vector_36" d="M83.6251 159.126H69.0434V160.378H83.6251V159.126Z" fill="#06B25F"/>
</g>
<path id="Vector_37" d="M196.63 108.845V109.216H66.6343V108.845C66.6343 103.976 70.5009 100.021 75.2734 100.021H187.991C192.764 100.021 196.63 103.976 196.63 108.845Z" fill="#84B5FF"/>
<g id="Group_33">
<g id="Group_34">
<path id="Vector_38" opacity="0.3" d="M176.888 105.044C176.888 105.68 176.386 106.192 175.764 106.192C175.142 106.192 174.64 105.68 174.64 105.044C174.64 104.409 175.142 103.897 175.764 103.897C176.38 103.897 176.888 104.409 176.888 105.044Z" fill="white"/>
<path id="Vector_39" opacity="0.3" d="M183.037 105.044C183.037 105.68 182.536 106.192 181.913 106.192C181.291 106.192 180.789 105.68 180.789 105.044C180.789 104.409 181.291 103.896 181.913 103.896C182.529 103.896 183.037 104.409 183.037 105.044Z" fill="white"/>
<path id="Vector_40" opacity="0.3" d="M188.916 105.044C188.916 105.68 188.415 106.192 187.793 106.192C187.171 106.192 186.669 105.68 186.669 105.044C186.669 104.409 187.171 103.896 187.793 103.896C188.415 103.896 188.916 104.409 188.916 105.044Z" fill="white"/>
</g>
</g>
<path id="Vector_41" d="M196.63 108.845V190.906C196.63 193.016 194.957 194.725 192.891 194.725H70.3739C68.3073 194.725 66.6343 193.016 66.6343 190.906V108.845C66.6343 103.976 70.5009 100.021 75.2734 100.021H187.991C192.764 100.021 196.63 103.976 196.63 108.845Z" stroke="#84B5FF" stroke-miterlimit="10"/>
</g>
<g id="Group 442">
<path id="hair" class="hair" d="M190.186 144.883C181.772 151.471 169.559 154.139 160.151 149.042C157.2 147.447 154.483 144.898 153.899 141.619C153.197 137.669 155.695 133.585 154.643 129.709C153.723 126.281 150.363 124.179 147.865 121.645C144.242 117.979 142.138 112.866 142.153 107.724C142.167 102.581 144.271 97.4834 147.909 93.8317C150.991 90.7316 155.009 88.7344 158.544 86.1403C161.334 84.0838 162.305 80.9928 163.634 77.7586C164.949 74.5688 163.824 70.8868 163.634 67.7564C163.24 61.0638 166.476 55.8079 171.195 50.8295C177.301 44.3605 186.373 44.4649 194.394 46.1343C198.455 46.969 202.94 48.2658 206.504 50.4718C208.023 51.4109 209.032 52.5585 210.069 54.064C210.405 54.541 212.275 59.2958 212.201 59.2809C224.093 62.0533 217.709 78.8665 221.361 86.5875C222.515 89.0171 224.531 90.8955 226.299 92.9076C229.396 96.4554 231.821 100.718 232.58 105.399C233.341 110.079 232.303 115.176 229.221 118.724C228.724 119.305 228.14 119.871 227.95 120.617C227.658 121.735 228.271 122.853 228.724 123.911C231.427 130.246 228.33 137.579 224.429 143.229C221.814 147.029 218.732 150.637 214.729 152.842C208.345 156.375 200.281 155.824 193.707 152.664" fill="url(#paint0_linear_1_2)"/>
<path id="Vector_43" opacity="0.42" d="M191.994 61.7801C196.011 59.7828 201.138 62.0036 203.622 65.8044C206.091 69.6052 209.305 72.9891 208.72 77.5056C208.428 79.7409 207.946 82.0214 208.384 84.2425C209.495 89.996 212.972 94.1995 216.594 98.7456C219.662 102.591 220.655 107.704 221.445 112.593C221.912 115.514 222.292 118.734 220.772 121.253C218.844 124.443 216.639 128.556 214.564 131.642C211.145 136.695 213.147 141.629 209.013 146.1C207.785 147.412 206.062 148.097 204.367 148.649C200.934 149.737 197.384 150.378 193.79 150.572C190.722 150.736 187.611 150.542 184.719 149.514C177.618 146.965 172.871 138.826 174.156 131.254C175.135 125.516 179.007 120.746 180.847 115.216C182.162 111.252 182.381 106.914 181.489 102.83C180.35 97.6725 177.443 92.5449 178.699 87.4174" fill="#148951"/>
<g id="Group_35">
<path id="Vector_44" d="M179.273 158.982C178.82 157.164 169.792 111.061 169.792 111.061C169.792 111.061 193.867 103.818 209.265 111.061L199.404 159.385L179.273 158.982Z" fill="white"/>
<path id="Vector_45" opacity="0.83" d="M183.494 160.39C183.204 160.127 182.199 159.218 181.272 158.345C180.177 157.309 179.534 156.429 179.534 156.429C179.534 156.429 179.686 154.774 179.686 154.311C179.686 153.844 177.267 142.821 174.889 139.41C172.669 136.227 174.85 118.299 175.155 115.878L175.191 115.608C175.191 115.608 176.758 118.299 177.437 123.653C178.119 129.01 177.156 139.565 177.156 139.565C177.156 139.565 178.514 148.101 181.858 148.257C181.858 148.257 179.053 153.881 180.159 156.703C180.372 157.239 182.983 159.894 183.494 160.39Z" fill="#CAC3CD" fill-opacity="0.3"/>
<path id="Vector_46" d="M178.09 135.537C178.09 135.537 196.19 137.445 201.186 133.629C201.172 133.629 194.933 148.907 178.09 135.537Z" fill="#CAC3CD" fill-opacity="0.3"/>
</g>
<path id="Vector_47" d="M178.105 158.815C178.105 158.815 163.467 190.117 169.442 289.715C169.442 289.715 175.753 291.072 177.74 290.386C177.74 290.386 195.796 203.83 191.414 160.381L178.105 158.815Z" fill="#276ED8"/>
<path id="Vector_48" d="M186.374 178.939C186.374 178.939 186.038 259.906 199.653 288.36L209.952 288.018C209.952 288.018 215.445 191.356 199.42 158.713L187.134 160.099L186.374 178.939Z" fill="#276ED8"/>
<g id="Group_36">
<path id="Vector_49" d="M177.243 160.815C177.243 160.815 188.608 164.273 200.149 159.622L200.296 154.987C200.296 154.987 194.379 156.806 189.339 156.493C184.314 156.195 177.506 155.285 177.506 155.285L177.243 160.815Z" fill="#8F99B6"/>
<path id="Vector_50" d="M179.887 154.374C179.887 154.374 177.974 161.931 179.741 162.825C181.524 163.734 182.561 163.332 182.561 163.332L182.546 154.97L179.887 154.374Z" fill="#276ED8"/>
<path id="Vector_51" d="M198.148 153.779C198.148 153.779 199.346 160.845 197.841 162.171C195.796 163.945 195.679 162.514 195.679 162.514L195.489 154.39L198.148 153.779Z" fill="#276ED8"/>
<path id="Vector_52" d="M185.805 154.987C185.805 155.897 186.111 161.486 186.111 161.486L192.481 161.635L193.065 155.136L185.805 154.987ZM191.429 160.517L187.134 160.219L186.988 156.776H191.721L191.429 160.517Z" fill="#EAEAEA"/>
</g>
<path id="Vector_53" d="M182.684 108.504C182.027 112.454 187.213 112.796 187.213 112.796C189.506 112.796 193.085 112.081 193.085 109.741L191.975 95.1184C191.975 92.7785 190.12 90.8852 187.826 90.8852C185.533 90.8852 183.677 92.7785 183.677 95.1184L182.684 108.504Z" fill="#F39B8D"/>
<path id="Vector_54" d="M199.276 56.9319C198.629 55.994 194.821 57.5844 194.254 56.576C192.006 59.2263 185.975 55.3652 183.15 57.5193C179.451 60.3426 176.535 63.0644 172.291 64.9364C170.895 65.5534 173.118 66.2567 171.591 66.5297C171.523 69.3032 170.068 78.1012 170.562 80.8921C173.052 94.888 184.077 101.684 193.886 99.0908C201.299 97.1233 207.467 87.4225 207.682 73.6319C207.812 65.3114 200.37 59.7796 200.129 58.5488C196.123 55.462 202.213 61.1338 199.276 56.9319Z" fill="#FBB2A6"/>
<path id="Vector_55" d="M189.223 85.9584C189.223 85.9584 191.589 90.0276 194.131 85.8842L189.223 85.9584Z" fill="#D8826C"/>
<path id="Vector_56" d="M186.783 77.7018C186.783 80.3849 184.65 82.5757 182.006 82.5757C179.361 82.5757 177.229 80.3998 177.229 77.7018C177.229 75.0186 179.361 72.8278 182.006 72.8278C184.65 72.8278 186.783 75.0186 186.783 77.7018Z" fill="white"/>
<g id="Group_37">
<path id="Vector_57" d="M184.658 78.8536C184.555 80.7985 183.306 82.3182 181.864 82.2518C180.417 82.1737 179.335 80.5417 179.425 78.6013C179.524 76.6441 180.777 75.1373 182.207 75.2077C183.662 75.269 184.756 76.8971 184.658 78.8536Z" fill="#06B25F"/>
<path id="Vector_58" d="M183.893 78.8149C183.821 80.192 182.934 81.2709 181.906 81.2186C180.879 81.167 180.1 80.0074 180.179 78.6136C180.247 77.2249 181.133 76.1459 182.161 76.1976C183.193 76.2614 183.96 77.4262 183.893 78.8149Z" fill="#400404"/>
<path id="Vector_59" opacity="0.8" d="M184.132 76.4454C184.117 76.8267 183.669 77.1029 183.141 77.0758C182.613 77.0481 182.195 76.7151 182.215 76.346C182.229 75.9646 182.677 75.6878 183.205 75.7155C183.734 75.7433 184.152 76.0762 184.132 76.4454Z" fill="white"/>
</g>
<path id="Vector_60" d="M184.182 89.8805C184.182 89.8805 191.881 93.5026 195.138 90.1786C195.138 90.1786 192.173 97.7357 184.182 89.8805Z" fill="#D5503B"/>
<path id="Vector_61" d="M186.783 77.7031C186.783 77.7031 187.164 74.5727 184.168 72.993C179.581 70.5783 177.069 76.1679 175.578 77.0771C175.578 77.0771 176.543 78.0605 177.244 77.7179C177.244 77.703 182.678 71.07 186.783 77.7031Z" fill="#302725"/>
<g id="Group_38">
<path id="Vector_62" d="M194.3 78.0134C194.3 80.7114 196.433 82.888 199.077 82.888C201.706 82.888 203.854 80.7114 203.854 78.0134C203.854 75.3309 201.721 73.1543 199.077 73.1543C196.447 73.1395 194.3 75.3309 194.3 78.0134Z" fill="white"/>
<g id="Group_39">
<path id="Vector_63" d="M201.521 78.7349C201.341 80.6746 199.996 82.1162 198.502 81.9575C197.007 81.7981 195.951 80.1042 196.132 78.1773C196.313 76.2376 197.658 74.796 199.151 74.9418C200.633 75.1018 201.701 76.7951 201.521 78.7349Z" fill="#06B25F"/>
<path id="Vector_64" d="M200.627 78.6755C200.521 80.099 199.638 81.136 198.641 81.0186C197.644 80.9012 196.926 79.6396 197.021 78.2303C197.127 76.8067 198.02 75.7555 199.018 75.8865C200.004 76.0053 200.733 77.252 200.627 78.6755Z" fill="#400404"/>
<path id="Vector_65" opacity="0.8" d="M201.309 76.033C201.261 76.4066 200.703 76.6809 200.081 76.6331C199.444 76.5873 198.98 76.2453 199.013 75.873C199.06 75.4994 199.604 75.227 200.241 75.2729C200.878 75.3193 201.356 75.6594 201.309 76.033Z" fill="white"/>
</g>
<path id="Vector_66" d="M194.226 77.4152C194.226 77.4152 193.847 74.6282 196.841 73.2266C201.429 71.0803 203.941 76.044 205.417 76.8487C205.417 76.8487 204.453 77.7134 203.751 77.4152C203.766 77.4152 198.843 71.3785 194.226 77.4152Z" fill="#302725"/>
</g>
<path id="Vector_67" d="M176.094 71.0242C176.094 71.0242 180.944 66.5974 185.589 68.5056C186.671 68.9528 186.919 69.4742 187.605 71.6205C187.605 71.6205 182.317 68.5946 176.094 71.0242Z" fill="#6F3B1E"/>
<path id="Vector_68" d="M205.417 72.249C205.417 72.249 202.656 67.1363 198.448 68.1649C197.469 68.403 197.133 68.865 196.038 70.8029C196.038 70.8177 201.048 68.8354 205.417 72.249Z" fill="#6F3B1E"/>
<g id="Group_40">
<g id="Group_41">
<g id="Group_42">
<path id="Vector_69" d="M171.72 74.3352C171.72 74.3352 166.563 67.1511 165.073 74.0519C163.89 79.5525 168.696 83.5914 171.676 82.5634C174.657 81.5348 171.72 74.3352 171.72 74.3352Z" fill="#FBB2A6"/>
<path id="Vector_70" d="M171.779 75.6155C171.779 75.6155 168.126 71.0842 167.192 73.2156C166.257 75.3471 166.812 77.8508 166.812 77.8508C166.812 77.8508 167.192 74.9889 169.412 76.3157C169.412 76.3157 167.835 81.0257 171.779 79.2376C171.793 79.2376 173.342 77.6721 171.779 75.6155Z" fill="#F39B8D"/>
</g>
</g>
<path id="Vector_71" d="M172.002 82.9268C172.002 83.6572 171.462 84.2387 170.804 84.2387C170.132 84.2387 169.606 83.6424 169.606 82.9268C169.606 82.1963 170.147 81.6 170.804 81.6C171.462 81.6 172.002 82.1814 172.002 82.9268Z" fill="white"/>
</g>
<path id="Vector_72" d="M214.177 69.0941C209.193 70.4492 203.581 69.4664 199.346 66.5013C195.111 63.5363 192.358 58.6395 192.078 53.5732C191.991 52.1668 192.287 50.4725 193.595 49.8963C194.048 49.693 194.571 49.676 195.076 49.693C198.161 49.7777 201.124 51.0485 203.581 52.8954C206.038 54.7423 207.99 57.1314 209.715 59.6392C210.953 61.4522 212.068 63.3499 212.748 65.4172C213.166 66.722 213.41 68.0771 213.462 69.4329" fill="url(#paint1_linear_1_2)"/>
<path id="Vector_73" d="M195.422 58.6768C187.428 63.0395 178.379 70.748 169.711 70.3208C169.268 70.306 167.036 67.6674 166.853 67.3286C166.7 67.0337 166.868 66.6652 167.036 66.3413C168.794 63.1279 173.502 57.5419 177.002 55.6405C180.503 53.7392 184.339 52.5306 188.161 51.44C190.103 50.8946 192.074 50.364 194.031 50.3345C195.972 50.3051 197.929 50.8209 199.014 52.0885" fill="url(#paint2_linear_1_2)"/>
<path id="Vector_74" d="M209.341 110.944C209.341 110.944 225.534 148.952 219.615 154.203C219.615 154.203 213.696 157.434 208.552 142.894C203.408 128.34 203.422 110.106 209.341 110.944Z" fill="white"/>
<path id="Vector_75" opacity="0.83" d="M217.881 154.378C217.557 154.163 216.431 153.415 215.387 152.693C214.154 151.834 215.841 155.258 215.841 155.258C215.841 155.258 215.908 154.452 215.841 153.994C215.774 153.532 211.783 142.998 208.937 139.983C206.28 137.171 205.839 119.111 205.789 116.67L205.786 116.398C205.786 116.398 207.726 118.822 209.173 124.014C210.624 129.209 211.201 139.794 211.201 139.794C211.201 139.794 213.782 148.03 217.112 147.679C217.112 147.679 214.874 151.935 216.378 154.559C216.666 155.058 217.304 153.965 217.881 154.378Z" fill="#CAC3CD" fill-opacity="0.3"/>
<path id="Vector_76" d="M207.763 136.432C207.763 136.432 221.413 146.2 220.389 152.198C220.229 153.17 219.6 154.217 219.6 154.217C219.6 154.217 213.682 161.098 206.17 145.332C206.185 145.317 201.829 135.22 207.763 136.432Z" fill="white"/>
<path id="Vector_77" d="M209.735 134.204C208.493 131.407 205.044 129.313 203.948 129.477C203.071 129.044 202.194 129.193 201.448 130.674C200.382 132.783 200.425 136.403 201.244 138.662C202.837 143.06 207.25 137.495 207.061 133.995C208.77 135.491 211.021 137.106 209.735 134.204Z" fill="#F0A98F"/>
<path id="Vector_78" d="M203.816 129.76C203.816 129.76 198.687 146.738 200.265 147.546C201.844 148.354 209.75 148.354 209.75 148.354C209.75 148.354 215.274 130.164 214.091 129.76C212.892 129.357 204.197 128.953 203.816 129.76Z" fill="#06B25F"/>
<path id="Vector_79" d="M194.259 150.179C194.259 150.179 196.261 149.76 197.021 148.729C197.781 147.696 198.248 147.248 200.952 146.051C203.641 144.854 204.708 143.254 204.708 143.254C204.708 143.254 206.593 145.138 202.472 147.143C199.943 148.369 208.245 148.384 210.743 148.13C210.743 148.13 212.19 148.998 209.808 150.179C207.426 151.361 209.72 151.496 205 153.53C200.28 155.549 194.668 156.537 193.513 153.47C192.359 150.404 194.259 150.179 194.259 150.179Z" fill="#FFBC9F"/>
<g id="Group_43">
<g id="Group_44">
<path id="Vector_80" d="M176.239 122.728C177.159 127.394 173.199 147.139 173.199 147.139C175.888 146.96 187.857 147.678 192.285 148.186C193.79 148.351 194.755 148.471 194.755 148.471L196.231 156.294C195.398 156.488 194.58 156.653 193.776 156.817C177.802 159.884 166.097 155.426 166.097 155.426C161.274 125.24 169.852 110.94 169.852 110.94C173.813 110.671 176.239 122.728 176.239 122.728Z" fill="white"/>
</g>
</g>
<path id="Vector 10" d="M195.597 107.911H192.629C192.629 107.911 193.574 110.522 192.4 111.177C189.888 112.576 189.66 112.576 186.235 112.576C184.201 112.576 182.809 108.378 182.809 108.378L180.297 108.845C180.297 108.845 182.948 113.777 186.235 114.908C188.516 115.694 190.297 116.105 192.4 114.908C194.839 113.522 195.597 107.911 195.597 107.911Z" fill="#CAC3CD" fill-opacity="0.3"/>
</g>
</g>
</g>
</g>
</g>
<g id="Group 680">
<path id="Vector_81" d="M112.11 62.9372H96.5167C95.9026 62.9372 95.401 62.4302 95.401 61.7976C95.401 61.1706 95.8976 60.6581 96.5167 60.6581H112.11C112.724 60.6581 113.226 61.1652 113.226 61.7976C113.226 62.4247 112.724 62.9372 112.11 62.9372Z" fill="#66D6A0"/>
<path id="Vector_82" d="M112.109 68.6243H96.5161C95.902 68.6243 95.4004 68.1171 95.4004 67.4847C95.4004 66.8575 95.897 66.3451 96.5161 66.3451H112.109C112.723 66.3451 113.225 66.8523 113.225 67.4847C113.225 68.112 112.723 68.6243 112.109 68.6243Z" fill="#66D6A0"/>
</g>
<path id="circle" class="circle" d="M255.034 194.88C248.868 194.88 243.871 199.984 243.871 206.281C243.871 212.579 248.868 217.683 255.034 217.683C261.199 217.683 266.196 212.579 266.196 206.281C266.196 199.984 261.199 194.88 255.034 194.88ZM255.034 214.842C250.4 214.842 246.647 211.009 246.647 206.276C246.647 201.543 250.4 197.71 255.034 197.71C259.667 197.71 263.42 201.543 263.42 206.276C263.42 211.009 259.667 214.842 255.034 214.842Z" fill="#66D6A0"/>
<g id="ge" class="gear1" filter="url(#filter0_d_1_2)">
<path id="Vector_42" d="M120.304 252.964L127.191 251.641V245.335L120.304 244.122C119.776 241.531 118.772 239.105 117.39 236.955L121.34 231.035L116.969 226.569L111.258 230.693C109.153 229.281 106.789 228.267 104.242 227.727L102.947 220.692H96.7714L95.5842 227.727C93.0476 228.267 90.6727 229.292 88.5676 230.703L82.7816 226.668L78.4096 231.134L82.4468 236.966C81.0651 239.116 80.0719 241.542 79.5431 244.133L72.6559 245.456V251.763L79.5431 252.975C80.0719 255.578 81.0758 257.992 82.4575 260.142L78.5069 266.052L82.8789 270.517L88.5998 266.394C90.7049 267.805 93.0798 268.83 95.6165 269.359L96.9123 276.394H103.087L104.274 269.359C106.822 268.819 109.185 267.794 111.291 266.383L117.077 270.418L121.449 265.953L117.411 260.12C118.782 257.981 119.776 255.566 120.304 252.964ZM99.924 261.609C92.8638 261.609 87.1429 255.754 87.1429 248.554C87.1429 241.354 92.8638 235.5 99.924 235.5C106.984 235.5 112.705 241.343 112.705 248.554C112.705 255.765 106.984 261.609 99.924 261.609Z" fill="#84B5FF"/>
</g>
<g id="_2"  class="gear1" filter="url(#filter1_d_1_2)">
<path id="Vector_83" d="M48.1677 215.095L52.4817 214.266V210.316L48.1677 209.556C47.8364 207.933 47.2075 206.414 46.342 205.067L48.8168 201.358L46.0784 198.561L42.5014 201.144C41.183 200.26 39.7022 199.625 38.1064 199.286L37.295 194.88H33.4274L32.6836 199.286C31.0947 199.625 29.6071 200.267 28.2886 201.151L24.6644 198.624L21.9259 201.42L24.4547 205.074C23.5892 206.421 22.9672 207.94 22.6359 209.563L18.3219 210.391V214.342L22.6359 215.101C22.9672 216.731 23.596 218.244 24.4615 219.591L21.9867 223.292L24.7252 226.09L28.3088 223.506C29.6274 224.391 31.1149 225.033 32.7039 225.364L33.5153 229.77H37.3829L38.1267 225.364C39.7225 225.026 41.2032 224.383 42.5218 223.499L46.146 226.027L48.8844 223.23L46.3556 219.577C47.2144 218.237 47.8364 216.724 48.1677 215.095ZM35.4018 220.509C30.9797 220.509 27.396 216.842 27.396 212.332C27.396 207.822 30.9797 204.155 35.4018 204.155C39.8239 204.155 43.4076 207.815 43.4076 212.332C43.4076 216.849 39.8239 220.509 35.4018 220.509Z" fill="#84B5FF"/>
</g>
<g id="sqr_green" class="sqr_green">
<g id="Rectangle 3_2" filter="url(#filter2_d_1_2)">
<path id="Vector_84" d="M292.949 66.4658H259.034C256.941 66.4658 255.243 68.1993 255.243 70.3376V104.246C255.243 106.385 256.941 108.118 259.034 108.118H292.949C295.042 108.118 296.739 106.385 296.739 104.246V70.3376C296.739 68.1993 295.042 66.4658 292.949 66.4658Z" fill="#276ED8"/>
</g>
<g id="&#60; / &#62;">
<path id="Vector_85" d="M269.368 94.1801L259.87 88.9332C259.256 88.5699 258.949 88.0091 258.949 87.2496C258.949 86.4578 259.272 85.8971 259.918 85.5667L269.368 80.2707V82.2008C269.368 82.3331 269.32 82.5144 269.223 82.7454C269.126 82.9435 268.981 83.0919 268.787 83.1907L262.051 86.9528C261.792 87.1509 261.792 87.349 262.051 87.5471L269.368 91.5563V94.1801Z" fill="white"/>
<path id="Vector_86" d="M277.46 78.6865H279.349L274.649 95.1203C274.519 95.5494 274.229 95.7637 273.776 95.7637H272.565L277.46 78.6865Z" fill="white"/>
<path id="Vector_87" d="M282.4 80.2707L291.851 85.5667C292.529 85.93 292.868 86.4907 292.868 87.2496C292.868 88.0091 292.529 88.5531 291.851 88.8835L282.4 94.1801V92.2494C282.4 92.1506 282.433 91.9854 282.498 91.7544C282.594 91.5234 282.74 91.3582 282.934 91.2595L289.718 87.5471C289.977 87.349 289.977 87.1509 289.718 86.9528L282.4 82.8938V80.2707Z" fill="white"/>
</g>
</g>
</g>
</g>
<defs>
<filter id="filter0_d_1_2" x="62.6559" y="214.692" width="74.5356" height="75.7016" filterUnits="userSpaceOnUse" color-interpolation-filters="sRGB">
<feFlood flood-opacity="0" result="BackgroundImageFix"/>
<feColorMatrix in="SourceAlpha" type="matrix" values="0 0 0 0 0 0 0 0 0 0 0 0 0 0 0 0 0 0 127 0" result="hardAlpha"/>
<feOffset dy="4"/>
<feGaussianBlur stdDeviation="5"/>
<feColorMatrix type="matrix" values="0 0 0 0 0.0885677 0 0 0 0 0.0395834 0 0 0 0 0.395833 0 0 0 0.25 0"/>
<feBlend mode="normal" in2="BackgroundImageFix" result="effect1_dropShadow_1_2"/>
<feBlend mode="normal" in="SourceGraphic" in2="effect1_dropShadow_1_2" result="shape"/>
</filter>
<filter id="filter1_d_1_2" x="8.32193" y="188.88" width="54.1597" height="54.89" filterUnits="userSpaceOnUse" color-interpolation-filters="sRGB">
<feFlood flood-opacity="0" result="BackgroundImageFix"/>
<feColorMatrix in="SourceAlpha" type="matrix" values="0 0 0 0 0 0 0 0 0 0 0 0 0 0 0 0 0 0 127 0" result="hardAlpha"/>
<feOffset dy="4"/>
<feGaussianBlur stdDeviation="5"/>
<feColorMatrix type="matrix" values="0 0 0 0 0.0885677 0 0 0 0 0.0395834 0 0 0 0 0.395833 0 0 0 0.25 0"/>
<feBlend mode="normal" in2="BackgroundImageFix" result="effect1_dropShadow_1_2"/>
<feBlend mode="normal" in="SourceGraphic" in2="effect1_dropShadow_1_2" result="shape"/>
</filter>
<filter id="filter2_d_1_2" x="252.243" y="63.4658" width="57.4958" height="57.6523" filterUnits="userSpaceOnUse" color-interpolation-filters="sRGB">
<feFlood flood-opacity="0" result="BackgroundImageFix"/>
<feColorMatrix in="SourceAlpha" type="matrix" values="0 0 0 0 0 0 0 0 0 0 0 0 0 0 0 0 0 0 127 0" result="hardAlpha"/>
<feOffset dx="5" dy="5"/>
<feGaussianBlur stdDeviation="4"/>
<feColorMatrix type="matrix" values="0 0 0 0 0 0 0 0 0 0 0 0 0 0 0 0 0 0 0.2 0"/>
<feBlend mode="normal" in2="BackgroundImageFix" result="effect1_dropShadow_1_2"/>
<feBlend mode="normal" in="SourceGraphic" in2="effect1_dropShadow_1_2" result="shape"/>
</filter>
<linearGradient id="paint0_linear_1_2" x1="223.914" y1="143.596" x2="169.427" y2="46.142" gradientUnits="userSpaceOnUse">
<stop stop-color="#12844D"/>
<stop offset="1" stop-color="#3BE090"/>
</linearGradient>
<linearGradient id="paint1_linear_1_2" x1="214.075" y1="69.6381" x2="195.717" y2="49.1396" gradientUnits="userSpaceOnUse">
<stop stop-color="#25B770" stop-opacity="0.6"/>
<stop offset="1" stop-color="#1FCF79"/>
</linearGradient>
<linearGradient id="paint2_linear_1_2" x1="167.744" y1="68.8754" x2="195.213" y2="51.917" gradientUnits="userSpaceOnUse">
<stop stop-color="#33CF83"/>
<stop offset="1" stop-color="#32CE82"/>
</linearGradient>
</defs>
</svg>
