<svg width="364" height="358" viewBox="0 0 364 358" fill="none" xmlns="http://www.w3.org/2000/svg">
<g clip-path="url(#clip0_1_2)">
<rect width="283" height="235" transform="translate(35 54)" fill="white"/>
<g class="gear1" clip-path="url(#clip1_1_2)">
<g filter="url(#filter0_d_1_2)">
<path d="M142.95 262.828L149.505 261.561V255.521L142.95 254.359C142.447 251.878 141.491 249.555 140.176 247.495L143.937 241.825L139.776 237.548L134.341 241.498C132.337 240.146 130.087 239.174 127.662 238.657L126.429 231.92H120.553L119.422 238.657C117.008 239.174 114.748 240.156 112.744 241.508L107.237 237.643L103.076 241.92L106.919 247.506C105.604 249.565 104.658 251.888 104.155 254.37L97.6 255.637V261.677L104.155 262.839C104.658 265.331 105.614 267.643 106.929 269.702L103.169 275.362L107.33 279.639L112.775 275.69C114.779 277.041 117.039 278.023 119.453 278.53L120.686 285.267H126.563L127.693 278.53C130.118 278.013 132.368 277.031 134.371 275.679L139.878 279.544L144.039 275.267L140.197 269.681C141.502 267.633 142.447 265.32 142.95 262.828ZM123.553 271.107C116.833 271.107 111.388 265.5 111.388 258.604C111.388 251.709 116.833 246.102 123.553 246.102C130.272 246.102 135.717 251.698 135.717 258.604C135.717 265.51 130.272 271.107 123.553 271.107Z" fill="#84B5FF"/>
</g>
</g>
<path opacity="0.04" d="M57.1143 277.164C51.6556 332.641 197.161 311.849 226.99 293.135C256.818 274.42 277.122 263.547 301.97 227.231C303.699 234.925 298.9 220.57 301.97 227.231C341.869 176.971 295.571 122.793 288.635 108.455C282.64 96.0444 221.862 120.615 213.888 110.763C210.395 106.502 174.499 45.5486 129.946 56.2607C97.3969 64.0864 56.5663 66.0374 39.0078 124.393C21.4493 182.748 67.9237 167.309 57.1143 277.164Z" fill="#276ED8"/>
<g clip-path="url(#clip2_1_2)">
<g class="gear1" filter="url(#filter1_d_1_2)">
<path d="M73.3184 239.65L78.2086 238.711V234.235L73.3184 233.375C72.9429 231.536 72.2301 229.815 71.2489 228.289L74.0543 224.087L70.95 220.918L66.8953 223.844C65.4007 222.843 63.7221 222.123 61.9132 221.74L60.9934 216.748H56.6091L55.7661 221.74C53.9648 222.123 52.2786 222.851 50.7839 223.852L46.6756 220.989L43.5713 224.157L46.4379 228.297C45.4569 229.822 44.7517 231.544 44.3761 233.383L39.486 234.321V238.797L44.3761 239.658C44.7517 241.504 45.4645 243.218 46.4456 244.744L43.6403 248.938L46.7446 252.107L50.8069 249.18C52.3015 250.182 53.9878 250.909 55.789 251.285L56.7088 256.277H61.0931L61.9362 251.285C63.7451 250.902 65.4237 250.174 66.9183 249.172L71.0266 252.036L74.1309 248.867L71.2643 244.728C72.2377 243.21 72.9429 241.497 73.3184 239.65ZM58.8473 245.784C53.8345 245.784 49.7722 241.63 49.7722 236.52C49.7722 231.411 53.8345 227.256 58.8473 227.256C63.8601 227.256 67.9224 231.403 67.9224 236.52C67.9224 241.637 63.8601 245.784 58.8473 245.784Z" fill="#84B5FF"/>
</g>
</g>
<g class="sqr_green" clip-path="url(#clip3_1_2)">
<g filter="url(#filter2_d_1_2)">
<path d="M90.5717 65.3793H60.6818C58.8367 65.3793 57.3409 66.8923 57.3409 68.7586V98.3542C57.3409 100.221 58.8367 101.734 60.6818 101.734H90.5717C92.4168 101.734 93.9126 100.221 93.9126 98.3542V68.7586C93.9126 66.8923 92.4168 65.3793 90.5717 65.3793Z" fill="#06B25F"/>
</g>
<path d="M69.7899 89.568L61.4183 84.9885C60.8773 84.6717 60.6068 84.182 60.6068 83.5196C60.6068 82.8283 60.8915 82.3387 61.461 82.0506L69.7899 77.4279V79.1128C69.7899 79.2281 69.7472 79.3864 69.6618 79.5881C69.5764 79.7609 69.4483 79.8905 69.2774 79.9769L63.3404 83.2604C63.1126 83.4332 63.1126 83.606 63.3404 83.7788L69.7899 87.2783V89.568Z" fill="white"/>
<path d="M76.9208 76.0454H78.5865L74.4434 90.3889C74.3295 90.7633 74.0732 90.9506 73.6746 90.9506H72.6068L76.9208 76.0454Z" fill="white"/>
<path d="M81.2752 77.4279L89.6042 82.0506C90.2021 82.3675 90.5011 82.8571 90.5011 83.5196C90.5011 84.182 90.2021 84.6573 89.6042 84.9453L81.2752 89.568V87.8831C81.2752 87.7967 81.3037 87.6527 81.3607 87.451C81.4461 87.2495 81.5742 87.1055 81.7451 87.0191L87.7248 83.7788C87.9526 83.606 87.9526 83.4332 87.7248 83.2604L81.2752 79.7177V77.4279Z" fill="white"/>
</g>
</g>
<mask id="mask0_1_2" style="mask-type:alpha" maskUnits="userSpaceOnUse" x="23" y="33" width="322" height="292">
<path d="M48.2854 286.119C42.127 344.964 206.28 322.909 239.932 303.059C273.584 283.209 296.489 271.675 324.522 233.154C326.473 241.316 321.058 226.09 324.522 233.154C369.534 179.844 332.507 82.6154 261.465 37.8651C270.461 48.3152 254.701 24.7009 261.465 37.8651C257.524 33.3449 180.715 40.4437 130.451 51.806C93.7304 60.1068 47.6671 62.1761 27.8583 124.074C8.04945 185.971 60.48 169.595 48.2854 286.119Z" fill="#276ED8"/>
</mask>
<g mask="url(#mask0_1_2)">
<path d="M227.941 129.028V226.306C227.941 228.807 226.001 230.834 223.606 230.834H81.5799C79.1843 230.834 77.2449 228.807 77.2449 226.306V129.028C77.2449 123.257 81.7271 118.568 87.2596 118.568H217.926C223.459 118.568 227.941 123.257 227.941 129.028Z" fill="white" stroke="#84B5FF" stroke-miterlimit="10"/>
<path d="M147.032 141.838H130.128V143.322H147.032V141.838Z" fill="#84B5FF"/>
<path d="M166.859 141.838H149.956V143.321H166.859V141.838Z" fill="#06B25F"/>
<path d="M161.563 149.844H135.351V151.328H161.563V149.844Z" fill="#276ED8"/>
<path d="M179.212 149.844H165.892V151.328H179.212V149.844Z" fill="#84B5FF"/>
<path d="M155.949 157.841H144.439V159.325H155.949V157.841Z" fill="#06B25F"/>
<path d="M200.787 157.841H162.602V159.325H200.787V157.841Z" fill="#06B25F"/>
<path d="M197.021 165.843H153.379V167.328H197.021V165.843Z" fill="#276ED8"/>
<path d="M155.9 173.84H142.47V175.324H155.9V173.84Z" fill="#84B5FF"/>
<path d="M175.077 173.84H161.647V175.324H175.077V173.84Z" fill="#276ED8"/>
<path d="M149.662 215.358H130.128V216.842H149.662V215.358Z" fill="#84B5FF"/>
<path d="M176.032 215.358H156.499V216.842H176.032V215.358Z" fill="#06B25F"/>
<path d="M201.705 215.358H182.171V216.842H201.705V215.358Z" fill="#84B5FF"/>
<path d="M173.537 207.349H135.352V208.833H173.537V207.349Z" fill="#276ED8"/>
<path d="M217.667 207.349H179.481V208.833H217.667V207.349Z" fill="#84B5FF"/>
<path d="M182.331 199.353H144.439V200.837H182.331V199.353Z" fill="#84B5FF"/>
<path d="M196.177 199.353H185.633V200.837H196.177V199.353Z" fill="#06B25F"/>
<path d="M156.23 191.349H141.968V192.832H156.23V191.349Z" fill="#06B25F"/>
<path d="M178.062 191.349H163.801V192.832H178.062V191.349Z" fill="#276ED8"/>
<path d="M201.51 191.349H187.248V192.832H201.51V191.349Z" fill="#84B5FF"/>
<path d="M178.503 183.355H158.505V184.839H178.503V183.355Z" fill="#06B25F"/>
<path d="M150.958 183.355H130.96V184.839H150.958V183.355Z" fill="#276ED8"/>
<path d="M125.42 140.419H123.597V142.325H125.42V140.419Z" fill="#84B5FF"/>
<path d="M125.419 210.177H123.597V206.302H125.419V210.177ZM125.419 200.482H123.597V196.607H125.419V200.482ZM125.419 190.787H123.597V186.912H125.419V190.787ZM125.419 181.092H123.597V177.217H125.419V181.092ZM125.419 171.397H123.597V167.522H125.419V171.397ZM125.419 161.702H123.597V157.827H125.419V161.702ZM125.419 152.007H123.597V148.132H125.419V152.007Z" fill="#84B5FF"/>
<path d="M125.42 215.996H123.597V217.901H125.42V215.996Z" fill="#84B5FF"/>
<path opacity="0.7" d="M76.9014 130.831C76.9014 128.297 78.8686 126.242 81.2958 126.242H116.12V230.841H81.2958C78.8686 230.841 76.9014 228.786 76.9014 226.251V130.831Z" fill="#84B5FF"/>
<path d="M96.9412 143.302H80.0375V144.786H96.9412V143.302Z" fill="#06B25F"/>
<path d="M109.879 152.368H83.668V153.852H109.879V152.368Z" fill="#84B5FF"/>
<path d="M109.879 161.435H83.668V162.919H109.879V161.435Z" fill="#84B5FF"/>
<path d="M109.879 170.503H83.668V171.986H109.879V170.503Z" fill="#84B5FF"/>
<path d="M109.879 179.568H83.668V181.051H109.879V179.568Z" fill="#84B5FF"/>
<path d="M111.24 197.699H85.0288V199.183H111.24V197.699Z" fill="#84B5FF"/>
<path d="M111.24 206.768H85.0288V208.251H111.24V206.768Z" fill="#84B5FF"/>
<path d="M111.24 215.832H85.0288V217.315H111.24V215.832Z" fill="#84B5FF"/>
<path d="M96.9412 188.633H80.0375V190.117H96.9412V188.633Z" fill="#06B25F"/>
<path d="M227.941 129.028V129.467H77.2449V129.028C77.2449 123.257 81.7271 118.568 87.2596 118.568H217.926C223.459 118.568 227.941 123.257 227.941 129.028Z" fill="#84B5FF"/>
<path opacity="0.3" d="M205.054 124.523C205.054 125.276 204.473 125.884 203.751 125.884C203.031 125.884 202.449 125.276 202.449 124.523C202.449 123.77 203.031 123.163 203.751 123.163C204.466 123.163 205.054 123.77 205.054 124.523Z" fill="white"/>
<path opacity="0.3" d="M212.183 124.523C212.183 125.276 211.602 125.883 210.881 125.883C210.159 125.883 209.578 125.276 209.578 124.523C209.578 123.769 210.159 123.162 210.881 123.162C211.595 123.162 212.183 123.769 212.183 124.523Z" fill="white"/>
<path opacity="0.3" d="M218.998 124.523C218.998 125.276 218.417 125.883 217.696 125.883C216.975 125.883 216.393 125.276 216.393 124.523C216.393 123.769 216.975 123.162 217.696 123.162C218.417 123.162 218.998 123.769 218.998 124.523Z" fill="white"/>
<path d="M227.941 129.028V226.306C227.941 228.807 226.001 230.834 223.606 230.834H81.5799C79.1843 230.834 77.2449 228.807 77.2449 226.306V129.028C77.2449 123.257 81.7271 118.568 87.2596 118.568H217.926C223.459 118.568 227.941 123.257 227.941 129.028Z" stroke="#84B5FF" stroke-miterlimit="10"/>
<path class="hair" d="M220.47 171.749C210.716 179.558 196.559 182.722 185.652 176.678C182.231 174.788 179.082 171.767 178.405 167.879C177.592 163.197 180.488 158.355 179.268 153.761C178.201 149.698 174.306 147.206 171.41 144.202C167.211 139.856 164.772 133.795 164.789 127.699C164.806 121.603 167.244 115.56 171.461 111.231C175.034 107.556 179.691 105.189 183.79 102.113C187.024 99.6755 188.149 96.0113 189.69 92.1774C191.214 88.3962 189.911 84.0313 189.69 80.3205C189.233 72.3869 192.985 66.1564 198.455 60.2548C205.534 52.5863 216.05 52.71 225.348 54.689C230.056 55.6785 235.255 57.2157 239.387 59.8308C241.148 60.944 242.317 62.3045 243.519 64.0891C243.909 64.6546 246.076 70.2911 245.991 70.2734C259.777 73.5599 252.377 93.4908 256.61 102.644C257.948 105.524 260.285 107.75 262.334 110.135C265.924 114.341 268.735 119.395 269.616 124.943C270.497 130.491 269.294 136.533 265.721 140.739C265.145 141.428 264.468 142.099 264.248 142.983C263.909 144.308 264.62 145.633 265.145 146.888C268.278 154.397 264.688 163.09 260.166 169.788C257.135 174.293 253.562 178.569 248.922 181.184C241.521 185.372 232.173 184.718 224.552 180.972" fill="url(#paint0_linear_1_2)"/>
<path opacity="0.42" d="M222.566 73.236C227.222 70.8683 233.167 73.501 236.046 78.0065C238.908 82.5121 242.633 86.5236 241.956 91.8775C241.618 94.5273 241.059 97.2307 241.566 99.8636C242.854 106.684 246.884 111.667 251.084 117.056C254.64 121.614 255.792 127.675 256.706 133.471C257.248 136.934 257.689 140.751 255.927 143.737C253.692 147.518 251.135 152.395 248.73 156.053C244.767 162.042 247.087 167.891 242.295 173.192C240.872 174.747 238.874 175.559 236.91 176.213C232.93 177.503 228.815 178.263 224.649 178.493C221.092 178.687 217.485 178.458 214.132 177.238C205.902 174.217 200.398 164.569 201.888 155.593C203.023 148.79 207.511 143.137 209.644 136.581C211.168 131.881 211.422 126.739 210.389 121.897C209.069 115.784 205.698 109.706 207.155 103.627" fill="#148951"/>
<path d="M207.82 188.463C207.295 186.307 196.829 131.655 196.829 131.655C196.829 131.655 224.737 123.069 242.587 131.655L231.156 188.94L207.82 188.463Z" fill="white"/>
<path opacity="0.83" d="M212.713 190.131C212.377 189.82 211.212 188.742 210.137 187.708C208.868 186.479 208.122 185.436 208.122 185.436C208.122 185.436 208.299 183.473 208.299 182.925C208.299 182.371 205.494 169.305 202.737 165.261C200.164 161.488 202.692 140.236 203.046 137.366L203.088 137.045C203.088 137.045 204.904 140.236 205.691 146.582C206.482 152.933 205.366 165.445 205.366 165.445C205.366 165.445 206.94 175.564 210.817 175.749C210.817 175.749 207.564 182.416 208.847 185.761C209.093 186.396 212.12 189.543 212.713 190.131Z" fill="#CAC3CD" fill-opacity="0.3"/>
<path d="M206.448 160.669C206.448 160.669 227.43 162.931 233.222 158.408C233.205 158.408 225.974 176.519 206.448 160.669Z" fill="#CAC3CD" fill-opacity="0.3"/>
<path d="M206.466 188.264C206.466 188.264 189.497 225.37 196.423 343.438C196.423 343.438 203.739 345.045 206.042 344.232C206.042 344.232 226.974 241.626 221.894 190.12L206.466 188.264Z" fill="#276ED8"/>
<path d="M216.051 212.12C216.051 212.12 215.662 308.1 231.445 341.831L243.384 341.425C243.384 341.425 249.752 226.839 231.174 188.143L216.932 189.786L216.051 212.12Z" fill="#276ED8"/>
<path d="M205.467 190.635C205.467 190.635 218.642 194.734 232.02 189.221L232.19 183.727C232.19 183.727 225.331 185.882 219.489 185.511C213.663 185.158 205.771 184.08 205.771 184.08L205.467 190.635Z" fill="#8F99B6"/>
<path d="M208.532 183C208.532 183 206.313 191.958 208.363 193.018C210.429 194.096 211.631 193.619 211.631 193.619L211.614 183.706L208.532 183Z" fill="#276ED8"/>
<path d="M229.7 182.295C229.7 182.295 231.089 190.67 229.345 192.243C226.973 194.345 226.838 192.649 226.838 192.649L226.618 183.019L229.7 182.295Z" fill="#276ED8"/>
<path d="M215.391 183.727C215.391 184.804 215.747 191.431 215.747 191.431L223.131 191.607L223.808 183.903L215.391 183.727ZM221.911 190.282L216.932 189.928L216.763 185.847H222.249L221.911 190.282Z" fill="#EAEAEA"/>
<path d="M211.774 128.624C211.012 133.306 217.024 133.712 217.024 133.712C219.682 133.712 223.831 132.864 223.831 130.09L222.545 112.756C222.545 109.982 220.394 107.738 217.735 107.738C215.076 107.738 212.925 109.982 212.925 112.756L211.774 128.624Z" fill="#F39B8D"/>
<path d="M231.007 67.4888C230.257 66.377 225.843 68.2623 225.186 67.0669C222.581 70.2086 215.589 65.6317 212.314 68.1852C208.026 71.5319 204.646 74.7585 199.726 76.9776C198.108 77.7089 200.684 78.5428 198.914 78.8663C198.836 82.1541 197.149 92.5835 197.722 95.892C200.608 112.483 213.389 120.54 224.76 117.465C233.353 115.133 240.503 103.633 240.753 87.2855C240.904 77.4221 232.276 70.8646 231.996 69.4056C227.353 65.7463 234.412 72.4699 231.007 67.4888Z" fill="#FBB2A6"/>
<path d="M219.354 101.898C219.354 101.898 222.097 106.721 225.044 101.81L219.354 101.898Z" fill="#D8826C"/>
<path d="M216.525 92.11C216.525 95.2907 214.053 97.8878 210.987 97.8878C207.922 97.8878 205.45 95.3083 205.45 92.11C205.45 88.9293 207.922 86.3323 210.987 86.3323C214.053 86.3323 216.525 88.9293 216.525 92.11Z" fill="white"/>
<path d="M214.062 93.4755C213.943 95.7811 212.495 97.5825 210.823 97.5037C209.146 97.4112 207.892 95.4766 207.996 93.1764C208.111 90.8563 209.564 89.0701 211.221 89.1535C212.907 89.2261 214.176 91.1561 214.062 93.4755Z" fill="#06B25F"/>
<path d="M213.175 93.4296C213.092 95.062 212.064 96.341 210.872 96.2791C209.681 96.2179 208.778 94.8432 208.87 93.1909C208.948 91.5447 209.976 90.2657 211.168 90.3269C212.364 90.4027 213.253 91.7834 213.175 93.4296Z" fill="#400404"/>
<path opacity="0.8" d="M213.453 90.6207C213.435 91.0727 212.916 91.4001 212.304 91.368C211.691 91.3351 211.207 90.9404 211.23 90.5029C211.247 90.0508 211.766 89.7226 212.378 89.7555C212.991 89.7884 213.475 90.1831 213.453 90.6207Z" fill="white"/>
<path d="M213.51 106.547C213.51 106.547 222.435 110.841 226.211 106.9C226.211 106.9 222.774 115.859 213.51 106.547Z" fill="#D5503B"/>
<path d="M216.526 92.1116C216.526 92.1116 216.967 88.4008 213.494 86.5281C208.177 83.6657 205.264 90.2917 203.537 91.3696C203.537 91.3696 204.654 92.5353 205.467 92.1292C205.467 92.1116 211.767 84.2486 216.526 92.1116Z" fill="#302725"/>
<path d="M225.239 92.4795C225.239 95.6778 227.712 98.258 230.777 98.258C233.825 98.258 236.314 95.6778 236.314 92.4795C236.314 89.2996 233.842 86.7194 230.777 86.7194C227.729 86.7018 225.239 89.2996 225.239 92.4795Z" fill="white"/>
<path d="M233.61 93.3347C233.402 95.6342 231.842 97.3431 230.11 97.1549C228.377 96.966 227.154 94.958 227.364 92.6738C227.572 90.3744 229.133 88.6654 230.863 88.8383C232.581 89.028 233.819 91.0353 233.61 93.3347Z" fill="#06B25F"/>
<path d="M232.574 93.2644C232.451 94.9519 231.428 96.1811 230.272 96.0419C229.116 95.9027 228.284 94.4072 228.394 92.7365C228.517 91.049 229.552 89.8029 230.709 89.9582C231.852 90.099 232.696 91.5769 232.574 93.2644Z" fill="#400404"/>
<path opacity="0.8" d="M233.364 90.1319C233.309 90.5748 232.662 90.8999 231.94 90.8433C231.202 90.789 230.665 90.3835 230.703 89.9422C230.758 89.4992 231.388 89.1764 232.127 89.2307C232.865 89.2858 233.419 89.6889 233.364 90.1319Z" fill="white"/>
<path d="M225.154 91.7704C225.154 91.7704 224.714 88.4665 228.186 86.8051C233.503 84.2608 236.416 90.1449 238.126 91.0988C238.126 91.0988 237.009 92.1238 236.196 91.7704C236.213 91.7704 230.506 84.6142 225.154 91.7704Z" fill="#302725"/>
<path d="M204.134 84.1943C204.134 84.1943 209.756 78.9466 215.142 81.2086C216.395 81.7387 216.683 82.3568 217.479 84.9011C217.479 84.9011 211.348 81.3142 204.134 84.1943Z" fill="#6F3B1E"/>
<path d="M238.126 85.6461C238.126 85.6461 234.926 79.5854 230.048 80.8047C228.914 81.087 228.524 81.6347 227.254 83.9319C227.254 83.9495 233.063 81.5995 238.126 85.6461Z" fill="#6F3B1E"/>
<path d="M199.064 88.1193C199.064 88.1193 193.086 79.603 191.359 87.7834C189.987 94.3039 195.558 99.0918 199.014 97.8732C202.468 96.6539 199.064 88.1193 199.064 88.1193Z" fill="#FBB2A6"/>
<path d="M199.132 89.6369C199.132 89.6369 194.898 84.2654 193.815 86.792C192.731 89.3187 193.374 92.2867 193.374 92.2867C193.374 92.2867 193.815 88.8942 196.389 90.4669C196.389 90.4669 194.56 96.0503 199.132 93.9306C199.149 93.9306 200.944 92.0748 199.132 89.6369Z" fill="#F39B8D"/>
<path d="M199.391 98.3039C199.391 99.1698 198.764 99.8591 198.002 99.8591C197.224 99.8591 196.613 99.1522 196.613 98.3039C196.613 97.438 197.24 96.7311 198.002 96.7311C198.764 96.7311 199.391 97.4204 199.391 98.3039Z" fill="white"/>
<path d="M248.282 81.9063C242.504 83.5127 235.998 82.3477 231.089 78.8327C226.179 75.3179 222.988 69.513 222.664 63.5073C222.563 61.8401 222.906 59.8316 224.422 59.1486C224.947 58.9076 225.553 58.8875 226.139 58.9076C229.715 59.008 233.15 60.5145 235.998 62.7039C238.847 64.8932 241.109 67.7253 243.11 70.6981C244.544 72.8473 245.837 75.0969 246.625 77.5475C247.11 79.0943 247.393 80.7007 247.453 82.3079" fill="url(#paint1_linear_1_2)"/>
<path d="M226.54 69.5573C217.273 74.729 206.783 83.8669 196.735 83.3605C196.222 83.3429 193.634 80.215 193.422 79.8133C193.244 79.4638 193.439 79.027 193.634 78.643C195.672 74.8338 201.129 68.2119 205.188 65.958C209.246 63.7041 213.693 62.2714 218.123 60.9785C220.374 60.332 222.66 59.703 224.928 59.668C227.178 59.6332 229.446 60.2447 230.704 61.7473" fill="url(#paint2_linear_1_2)"/>
<path d="M242.675 131.516C242.675 131.516 261.446 176.573 254.585 182.797C254.585 182.797 247.724 186.627 241.76 169.391C235.797 152.139 235.814 130.523 242.675 131.516Z" fill="white"/>
<path opacity="0.83" d="M252.576 183.005C252.199 182.749 250.894 181.863 249.684 181.006C248.255 179.988 250.211 184.048 250.211 184.048C250.211 184.048 250.288 183.092 250.211 182.549C250.132 182.002 245.507 169.514 242.207 165.94C239.127 162.606 238.616 141.197 238.558 138.304L238.554 137.981C238.554 137.981 240.803 140.855 242.481 147.009C244.163 153.168 244.832 165.716 244.832 165.716C244.832 165.716 247.823 175.48 251.684 175.063C251.684 175.063 249.09 180.108 250.833 183.219C251.167 183.81 251.906 182.515 252.576 183.005Z" fill="#CAC3CD" fill-opacity="0.3"/>
<path d="M240.846 161.73C240.846 161.73 256.67 173.309 255.483 180.42C255.297 181.573 254.569 182.813 254.569 182.813C254.569 182.813 247.707 190.97 238.999 172.281C239.017 172.263 233.968 160.294 240.846 161.73Z" fill="white"/>
<path d="M243.132 159.09C241.692 155.774 237.694 153.291 236.423 153.486C235.407 152.972 234.39 153.15 233.526 154.905C232.29 157.405 232.34 161.697 233.289 164.374C235.136 169.587 240.252 162.991 240.032 158.842C242.014 160.615 244.623 162.53 243.132 159.09Z" fill="#F0A98F"/>
<path d="M236.271 153.821C236.271 153.821 230.325 173.947 232.154 174.905C233.985 175.863 243.15 175.863 243.15 175.863C243.15 175.863 249.553 154.3 248.181 153.821C246.792 153.343 236.712 152.864 236.271 153.821Z" fill="#06B25F"/>
<path d="M225.191 178.027C225.191 178.027 227.512 177.531 228.394 176.307C229.275 175.083 229.817 174.552 232.95 173.133C236.068 171.715 237.305 169.817 237.305 169.817C237.305 169.817 239.49 172.051 234.713 174.428C231.782 175.881 241.404 175.899 244.301 175.597C244.301 175.597 245.978 176.626 243.217 178.027C240.455 179.428 243.115 179.587 237.644 181.999C232.171 184.393 225.666 185.563 224.327 181.928C222.989 178.293 225.191 178.027 225.191 178.027Z" fill="#FFBC9F"/>
<path d="M204.302 145.485C205.369 151.017 200.779 174.423 200.779 174.423C203.896 174.211 217.771 175.062 222.903 175.665C224.649 175.86 225.767 176.002 225.767 176.002L227.478 185.276C226.512 185.506 225.564 185.701 224.632 185.896C206.115 189.531 192.545 184.247 192.545 184.247C186.955 148.464 196.899 131.512 196.899 131.512C201.49 131.193 204.302 145.485 204.302 145.485Z" fill="white"/>
<path d="M226.743 127.922H223.302C223.302 127.922 224.398 131.017 223.038 131.792C220.126 133.451 219.86 133.451 215.89 133.451C213.533 133.451 211.919 128.475 211.919 128.475L209.007 129.028C209.007 129.028 212.079 134.874 215.89 136.216C218.535 137.148 220.599 137.634 223.038 136.216C225.865 134.572 226.743 127.922 226.743 127.922Z" fill="#CAC3CD" fill-opacity="0.3"/>
</g>
<g class="circle" clip-path="url(#clip4_1_2)">
<rect width="24" height="24" transform="translate(294 211)" fill="white"/>
<path d="M305.779 211C299.272 211 294 216.272 294 222.779C294 229.285 299.272 234.557 305.779 234.557C312.285 234.557 317.557 229.285 317.557 222.779C317.557 216.272 312.285 211 305.779 211ZM305.779 231.622C300.889 231.622 296.929 227.662 296.929 222.773C296.929 217.884 300.889 213.924 305.779 213.924C310.668 213.924 314.628 217.884 314.628 222.773C314.628 227.662 310.668 231.622 305.779 231.622Z" fill="#66D6A0"/>
</g>
<defs>
<filter id="filter0_d_1_2" x="87.6" y="225.92" width="71.9054" height="73.3472" filterUnits="userSpaceOnUse" color-interpolation-filters="sRGB">
<feFlood flood-opacity="0" result="BackgroundImageFix"/>
<feColorMatrix in="SourceAlpha" type="matrix" values="0 0 0 0 0 0 0 0 0 0 0 0 0 0 0 0 0 0 127 0" result="hardAlpha"/>
<feOffset dy="4"/>
<feGaussianBlur stdDeviation="5"/>
<feColorMatrix type="matrix" values="0 0 0 0 0.0885677 0 0 0 0 0.0395834 0 0 0 0 0.395833 0 0 0 0.25 0"/>
<feBlend mode="normal" in2="BackgroundImageFix" result="effect1_dropShadow_1_2"/>
<feBlend mode="normal" in="SourceGraphic" in2="effect1_dropShadow_1_2" result="shape"/>
</filter>
<filter id="filter1_d_1_2" x="29.486" y="210.748" width="58.7226" height="59.5294" filterUnits="userSpaceOnUse" color-interpolation-filters="sRGB">
<feFlood flood-opacity="0" result="BackgroundImageFix"/>
<feColorMatrix in="SourceAlpha" type="matrix" values="0 0 0 0 0 0 0 0 0 0 0 0 0 0 0 0 0 0 127 0" result="hardAlpha"/>
<feOffset dy="4"/>
<feGaussianBlur stdDeviation="5"/>
<feColorMatrix type="matrix" values="0 0 0 0 0.0885677 0 0 0 0 0.0395834 0 0 0 0 0.395833 0 0 0 0.25 0"/>
<feBlend mode="normal" in2="BackgroundImageFix" result="effect1_dropShadow_1_2"/>
<feBlend mode="normal" in="SourceGraphic" in2="effect1_dropShadow_1_2" result="shape"/>
</filter>
<filter id="filter2_d_1_2" x="54.3409" y="62.3793" width="52.5717" height="52.3542" filterUnits="userSpaceOnUse" color-interpolation-filters="sRGB">
<feFlood flood-opacity="0" result="BackgroundImageFix"/>
<feColorMatrix in="SourceAlpha" type="matrix" values="0 0 0 0 0 0 0 0 0 0 0 0 0 0 0 0 0 0 127 0" result="hardAlpha"/>
<feOffset dx="5" dy="5"/>
<feGaussianBlur stdDeviation="4"/>
<feColorMatrix type="matrix" values="0 0 0 0 0 0 0 0 0 0 0 0 0 0 0 0 0 0 0.2 0"/>
<feBlend mode="normal" in2="BackgroundImageFix" result="effect1_dropShadow_1_2"/>
<feBlend mode="normal" in="SourceGraphic" in2="effect1_dropShadow_1_2" result="shape"/>
</filter>
<linearGradient id="paint0_linear_1_2" x1="259.569" y1="170.224" x2="194.23" y2="55.9421" gradientUnits="userSpaceOnUse">
<stop stop-color="#12844D"/>
<stop offset="1" stop-color="#3BE090"/>
</linearGradient>
<linearGradient id="paint1_linear_1_2" x1="248.164" y1="82.5511" x2="226.353" y2="58.736" gradientUnits="userSpaceOnUse">
<stop stop-color="#25B770" stop-opacity="0.6"/>
<stop offset="1" stop-color="#1FCF79"/>
</linearGradient>
<linearGradient id="paint2_linear_1_2" x1="194.455" y1="81.647" x2="226.687" y2="62.1879" gradientUnits="userSpaceOnUse">
<stop stop-color="#33CF83"/>
<stop offset="1" stop-color="#32CE82"/>
</linearGradient>
<clipPath id="clip0_1_2">
<rect width="283" height="235" fill="white" transform="translate(35 54)"/>
</clipPath>
<clipPath id="clip1_1_2">
<rect width="72" height="74" fill="white" transform="translate(88 226)"/>
</clipPath>
<clipPath id="clip2_1_2">
<rect width="48" height="49" fill="white" transform="translate(35 214)"/>
</clipPath>
<clipPath id="clip3_1_2">
<rect width="49" height="49" fill="white" transform="translate(54 62)"/>
</clipPath>
<clipPath id="clip4_1_2">
<rect width="24" height="24" fill="white" transform="translate(294 211)"/>
</clipPath>
</defs>
</svg>
