<svg width="107" height="107" viewBox="0 0 107 107" fill="none" xmlns="http://www.w3.org/2000/svg">
<g filter="url(#filter0_d_673_166)">
<path d="M85.4182 56.0111L96.3192 53.9608V44.1875L85.4182 42.3081C84.581 38.2928 82.992 34.5339 80.8049 31.2021L87.0585 22.0268L80.1386 15.1069L71.1 21.4971C67.7682 19.3101 64.0264 17.7382 59.994 16.901L57.9437 6H48.1704L46.291 16.901C42.2757 17.7382 38.5168 19.3272 35.185 21.5142L26.0268 15.2607L19.1069 22.1806L25.4971 31.2191C23.3101 34.5509 21.7382 38.3099 20.9009 42.3251L10 44.3755V54.1488L20.9009 56.0282C21.7382 60.0606 23.3272 63.8024 25.5142 67.1342L19.2607 76.2924L26.1806 83.2123L35.2362 76.8221C38.568 79.0091 42.327 80.5981 46.3422 81.4182L48.3925 92.3192H58.1658L60.0453 81.4182C64.0776 80.581 67.8195 78.992 71.1513 76.805L80.3094 83.0585L87.2294 76.1386L80.8391 67.1C83.0091 63.7853 84.581 60.0435 85.4182 56.0111ZM53.1596 69.4067C41.9852 69.4067 32.9296 60.3339 32.9296 49.1767C32.9296 38.0194 41.9852 28.9467 53.1596 28.9467C64.3339 28.9467 73.3896 38.0023 73.3896 49.1767C73.3896 60.351 64.3339 69.4067 53.1596 69.4067Z" fill="#84B5FF"/>
</g>
<defs>
<filter id="filter0_d_673_166" x="0" y="0" width="106.319" height="106.319" filterUnits="userSpaceOnUse" color-interpolation-filters="sRGB">
<feFlood flood-opacity="0" result="BackgroundImageFix"/>
<feColorMatrix in="SourceAlpha" type="matrix" values="0 0 0 0 0 0 0 0 0 0 0 0 0 0 0 0 0 0 127 0" result="hardAlpha"/>
<feOffset dy="4"/>
<feGaussianBlur stdDeviation="5"/>
<feColorMatrix type="matrix" values="0 0 0 0 0.0885677 0 0 0 0 0.0395834 0 0 0 0 0.395833 0 0 0 0.25 0"/>
<feBlend mode="normal" in2="BackgroundImageFix" result="effect1_dropShadow_673_166"/>
<feBlend mode="normal" in="SourceGraphic" in2="effect1_dropShadow_673_166" result="shape"/>
</filter>
</defs>
</svg>
