<svg width="75" height="75" viewBox="0 0 75 75" fill="none" xmlns="http://www.w3.org/2000/svg">
<g filter="url(#filter0_d_673_167)">
<path d="M57.24 37.3257L64.0681 36.0414V29.9197L57.24 28.7424C56.7156 26.2274 55.7202 23.8729 54.3503 21.7859L58.2674 16.0388L53.933 11.7043L48.2714 15.707C46.1845 14.3371 43.8407 13.3525 41.3149 12.8281L40.0307 6H33.9089L32.7317 12.8281C30.2167 13.3525 27.8622 14.3478 25.7752 15.7177L20.0388 11.8007L15.7043 16.1351L19.707 21.7966C18.3371 23.8836 17.3525 26.2381 16.8281 28.7531L10 30.0374V36.1591L16.8281 37.3364C17.3525 39.8621 18.3478 42.2059 19.7177 44.2929L15.8006 50.0293L20.1351 54.3637L25.8073 50.3611C27.8943 51.731 30.2488 52.7263 32.7638 53.24L34.0481 60.0681H40.1698L41.3471 53.24C43.8728 52.7156 46.2166 51.7203 48.3036 50.3504L54.04 54.2674L58.3744 49.933L54.3718 44.2715C55.731 42.1952 56.7156 39.8514 57.24 37.3257ZM37.034 45.7163C30.0347 45.7163 24.3625 40.0333 24.3625 33.0447C24.3625 26.0561 30.0347 20.3732 37.034 20.3732C44.0333 20.3732 49.7056 26.0454 49.7056 33.0447C49.7056 40.044 44.0333 45.7163 37.034 45.7163Z" fill="#84B5FF"/>
</g>
<defs>
<filter id="filter0_d_673_167" x="0" y="0" width="74.0679" height="74.0679" filterUnits="userSpaceOnUse" color-interpolation-filters="sRGB">
<feFlood flood-opacity="0" result="BackgroundImageFix"/>
<feColorMatrix in="SourceAlpha" type="matrix" values="0 0 0 0 0 0 0 0 0 0 0 0 0 0 0 0 0 0 127 0" result="hardAlpha"/>
<feOffset dy="4"/>
<feGaussianBlur stdDeviation="5"/>
<feColorMatrix type="matrix" values="0 0 0 0 0.0885677 0 0 0 0 0.0395834 0 0 0 0 0.395833 0 0 0 0.25 0"/>
<feBlend mode="normal" in2="BackgroundImageFix" result="effect1_dropShadow_673_167"/>
<feBlend mode="normal" in="SourceGraphic" in2="effect1_dropShadow_673_167" result="shape"/>
</filter>
</defs>
</svg>
