<svg width="555" height="424" viewBox="0 0 555 424" fill="none" xmlns="http://www.w3.org/2000/svg">
<path opacity="0.06" d="M455.41 335.622C337.471 396.862 181.11 435.114 86.4276 399.366C-8.25508 363.618 0.630981 222.036 70.4358 140.732C83.087 129.009 86.781 115.561 95.2446 101.884C113.694 71.9538 144.708 80.6837 185.391 65.6137C209.898 43.7878 155.049 82.7051 185.391 65.6137C198.665 58.224 216.401 37.0777 240.076 27.3421C292.438 5.81023 443.16 7.45575 475.229 41.1727C507.298 74.8896 616.907 251.763 455.41 335.622Z" fill="#276ED8"/>
<mask id="mask0_196_3686" style="mask-type:alpha" maskUnits="userSpaceOnUse" x="16" y="13" width="526" height="401">
<path d="M455.41 335.622C337.471 396.862 181.11 435.114 86.4276 399.366C-8.25508 363.618 0.630981 222.036 70.4358 140.732C83.087 129.009 86.781 115.561 95.2446 101.884C113.694 71.9538 144.708 80.6837 185.391 65.6137C209.898 43.7878 155.049 82.7051 185.391 65.6137C198.665 58.224 216.401 37.0777 240.076 27.3421C292.438 5.81023 443.16 7.45575 475.229 41.1727C507.298 74.8896 616.907 251.763 455.41 335.622Z" fill="#276ED8"/>
</mask>
<g mask="url(#mask0_196_3686)">
<path d="M197.498 269.525C212.616 281.272 234.558 286.029 251.461 276.94C256.763 274.096 261.645 269.552 262.695 263.705C263.954 256.662 259.466 249.38 261.356 242.47C263.009 236.357 269.046 232.61 273.534 228.092C280.043 221.554 283.823 212.438 283.797 203.269C283.77 194.1 279.991 185.011 273.456 178.5C267.918 172.972 260.7 169.41 254.348 164.786C249.335 161.118 244.821 156.361 242.432 150.594C240.07 144.907 242.012 141.558 242.353 135.977C243.062 124.044 240.096 110.702 231.619 101.826C220.648 90.2914 204.348 90.4774 189.939 93.454C182.643 94.9423 174.585 97.2545 168.181 101.188C165.451 102.862 163.64 104.909 161.776 107.593C161.173 108.443 157.813 116.921 157.944 116.895C136.58 121.838 148.05 151.817 141.488 165.583C139.414 169.915 135.792 173.264 132.617 176.852C127.052 183.177 122.695 190.778 121.331 199.123C119.966 207.468 121.829 216.557 127.367 222.883C128.26 223.919 129.309 224.929 129.651 226.258C130.176 228.251 129.073 230.245 128.26 232.131C123.404 243.427 128.968 256.502 135.976 266.575C140.674 273.352 146.212 279.784 153.404 283.717C164.874 290.016 179.362 289.032 191.173 283.398" fill="url(#paint0_linear_196_3686)"/>
<path opacity="0.2" d="M190.824 107.829C184.79 104.326 177.087 108.221 173.357 114.886C169.648 121.552 164.82 127.485 165.698 135.405C166.137 139.326 166.861 143.325 166.203 147.22C164.535 157.309 159.312 164.68 153.87 172.653C149.262 179.397 147.77 188.362 146.585 196.936C145.883 202.059 145.312 207.705 147.594 212.122C150.491 217.716 153.804 224.93 156.921 230.341C162.055 239.202 159.049 247.854 165.259 255.695C167.103 257.995 169.692 259.198 172.238 260.165C177.394 262.073 182.727 263.197 188.125 263.537C192.733 263.824 197.407 263.485 201.752 261.681C212.417 257.211 219.549 242.94 217.618 229.661C216.148 219.598 210.333 211.233 207.568 201.536C205.593 194.583 205.263 186.977 206.602 179.815C208.314 170.771 212.681 161.779 210.793 152.787" fill="#464646"/>
<path d="M210.172 287.385C210.917 284.428 225.888 209.434 225.888 209.434C225.888 209.434 185.965 197.635 160.418 209.434L176.779 288.03L210.172 287.385Z" fill="#66D6A0"/>
<path opacity="0.83" d="M198.611 291.511C199.066 291.207 200.642 290.152 202.104 289.133C203.83 287.922 204.897 286.835 204.897 286.835C204.897 286.835 205.01 284.524 205.1 283.886C205.192 283.243 208.408 302.785 214.697 264.297C215.534 259.178 220.38 240.754 220.43 237.357L220.431 237.357C220.431 237.357 216.235 234.829 214.241 242.074C212.241 249.323 211.512 264.063 211.512 264.063C211.512 264.063 207.949 275.559 203.266 275.112C203.266 275.112 206.067 283.419 203.974 287.09C203.573 287.787 199.42 290.929 198.611 291.511Z" fill="#4CCC8E"/>
<path d="M182.34 204.848H186.525C186.525 204.848 185.191 208.452 186.847 209.355C190.388 211.286 190.71 211.286 195.538 211.286C198.405 211.286 200.367 205.492 200.367 205.492L203.908 206.136C203.908 206.136 200.172 212.943 195.538 214.506C192.322 215.59 189.812 216.157 186.847 214.506C183.408 212.591 182.34 204.848 182.34 204.848Z" fill="#4CCC8E"/>
<path d="M212.223 244.288C212.223 244.288 182.206 247.393 173.914 241.183C173.939 241.183 184.267 266.049 212.223 244.288Z" fill="#4CCC8E"/>
<path d="M211.606 288.691C211.606 288.691 235.887 339.59 225.981 501.577C225.981 501.577 215.529 503.787 212.227 502.67C212.227 502.67 171.667 382.99 189.535 291.225L211.606 288.691Z" fill="#D1CFD7"/>
<path d="M175.246 288.843C175.246 288.843 150.965 339.742 160.871 501.728C160.871 501.728 171.324 503.939 174.626 502.821C174.626 502.821 204.592 362.049 197.318 291.377L175.246 288.843Z" fill="#D1CFD7"/>
<path d="M213.031 294.341C213.031 294.341 194.187 299.955 175.045 292.404L174.797 284.852C174.797 284.852 184.628 287.808 192.97 287.311C201.312 286.814 212.609 285.349 212.609 285.349L213.031 294.341Z" fill="#8F99B6"/>
<path d="M208.725 281.958C208.725 281.958 211.903 294.254 208.974 295.719C206.019 297.185 204.281 296.539 204.281 296.539L204.306 282.926L208.725 281.958Z" fill="#D1CFD7"/>
<path d="M178.535 280.979C178.535 280.979 176.549 292.48 179.057 294.617C182.458 297.498 182.632 295.163 182.632 295.163L182.955 281.948L178.535 280.979Z" fill="#D1CFD7"/>
<path d="M186.812 285.1L187.806 295.658L198.357 295.409C198.357 295.409 198.854 286.318 198.854 284.852L186.812 285.1ZM189.022 287.485H196.892L196.644 293.223L189.519 293.646L189.022 287.485Z" fill="#EAEAEA"/>
<path d="M191.879 211.268C195.678 211.268 201.611 210.125 201.611 206.3L200.643 193.606L199.799 182.502C199.799 178.702 196.72 175.622 192.922 175.622C191.01 175.622 189.297 176.392 188.056 177.634C186.814 178.876 186.045 180.59 186.045 182.502L185.201 193.606L184.381 204.263C183.239 210.722 191.879 211.268 191.879 211.268Z" fill="#FDA686"/>
<path d="M163.722 148.347C163.722 148.347 155.504 137.094 153.121 147.9C151.234 156.495 158.906 162.83 163.648 161.215C168.39 159.625 163.722 148.347 163.722 148.347Z" fill="#FBB79E"/>
<path d="M163.819 150.356C163.819 150.356 157.984 143.251 156.495 146.605C155.005 149.934 155.899 153.858 155.899 153.858C155.899 153.858 156.495 149.362 160.045 151.449C160.045 151.449 157.513 158.827 163.819 156.02C163.819 156.044 166.301 153.585 163.819 150.356Z" fill="#EF9F8A"/>
<path d="M223.885 148.347C223.885 148.347 232.102 137.094 234.486 147.9C236.398 156.495 228.701 162.83 223.959 161.215C219.217 159.625 223.885 148.347 223.885 148.347Z" fill="#FBB79E"/>
<path d="M223.543 150.365C223.543 150.365 229.353 143.261 230.843 146.614C232.332 149.943 231.463 153.868 231.463 153.868C231.463 153.868 230.843 149.372 227.292 151.458C227.292 151.458 229.825 158.836 223.519 156.029C223.519 156.054 221.061 153.594 223.543 150.365Z" fill="#EF9F8A"/>
<path d="M222.543 161.539C222.543 162.532 223.337 163.327 224.306 163.327C225.274 163.327 226.068 162.532 226.068 161.539C226.068 160.57 225.274 159.775 224.306 159.775C223.337 159.775 222.543 160.57 222.543 161.539Z" fill="white"/>
<path d="M162.09 160.597C162.09 161.565 162.884 162.36 163.853 162.36C164.821 162.36 165.615 161.565 165.615 160.597C165.615 159.628 164.821 158.833 163.853 158.833C162.884 158.833 162.09 159.628 162.09 160.597Z" fill="white"/>
<path d="M176.917 124.165C180.492 119.892 183.794 114.849 186.5 109.409C195.761 122.972 212.822 132.931 226.701 137.85C227.148 141.501 223.865 148.856 223.865 152.583C223.865 174.293 207.926 187.136 190.324 186.739C179.02 186.483 163.957 174.293 163.957 152.583C163.957 146.273 164.578 139.914 166.018 134.026C170.04 131.269 173.739 127.965 176.917 124.165Z" fill="#FBB79E"/>
<path d="M194.043 159.858C194.043 159.858 190.294 166.217 186.223 159.734L194.043 159.858Z" fill="#D8826C"/>
<path d="M214.823 137.421C214.823 137.421 207.623 127.708 196.5 135.98C196.5 135.98 205.487 132.378 214.823 137.421Z" fill="#99360A"/>
<path d="M183.467 135.806C183.467 135.806 175.05 127.41 165.988 137.371C165.988 137.371 173.834 132.378 183.467 135.806Z" fill="#99360A"/>
<path d="M179.914 167.597C180.013 167.87 181.776 171.894 184.656 175.099C188.132 178.949 193.172 181.11 198.758 172.838C199.95 171.099 201.141 168.839 202.358 166.057C202.358 166.057 200.421 167.324 197.591 168.118C193.147 169.385 186.543 171.745 181.95 169.261C181.23 169.261 180.535 168.069 179.914 167.597Z" fill="#712311"/>
<path d="M184.656 174.854C188.132 178.704 193.172 180.989 198.758 172.717C195.754 171.897 188.703 170.655 184.656 174.854Z" fill="#D5503B"/>
<path d="M181.973 168.27C189.272 176.418 194.585 172.121 197.614 167.6C193.17 168.866 186.566 170.133 181.973 168.27Z" fill="white"/>
<path d="M180.66 115.823C194.178 122.285 232.929 146.149 232.929 135.953C235.045 133.858 234.734 132.003 235.045 131.501C235.303 131.064 235.019 130.518 234.734 130.038C237.997 124.73 234.117 109.228 228.198 106.412C222.278 103.595 216.107 100.167 209.645 98.5508C206.362 97.7429 202.94 97.8123 199.403 98.5514C195.865 99.291 182.495 107.047 180.66 108.924" fill="url(#paint1_linear_196_3686)"/>
<path d="M150.457 141.023C158.56 142.527 169.031 135.871 175.431 130.753C181.831 125.635 185.643 117.695 185.49 109.791C185.463 107.595 184.791 104.999 182.64 104.262C181.894 104.001 181.059 104.038 180.256 104.125C175.349 104.63 170.777 106.962 167.079 110.128C163.38 113.294 160.551 117.242 158.097 121.346C156.338 124.312 154.784 127.395 153.945 130.688C153.432 132.766 152.1 139.899 152.1 138.614" fill="url(#paint2_linear_196_3686)"/>
<path d="M198.769 145.544C198.769 149.795 202.221 153.266 206.5 153.266C210.779 153.266 214.23 149.818 214.23 145.544C214.23 141.293 210.779 137.821 206.5 137.821C202.221 137.821 198.769 141.293 198.769 145.544Z" fill="white"/>
<path d="M201.084 149.798C202.455 153.034 205.552 154.828 208.011 153.813C210.47 152.774 211.345 149.326 209.997 146.09C208.626 142.831 205.529 141.06 203.094 142.075C200.611 143.091 199.713 146.539 201.084 149.798Z" fill="#84B5FF"/>
<path d="M202.383 149.255C203.352 151.546 205.551 152.821 207.3 152.089C209.05 151.357 209.688 148.901 208.695 146.587C207.726 144.272 205.527 142.997 203.778 143.729C202.028 144.485 201.413 146.941 202.383 149.255Z" fill="#400404"/>
<path d="M200.514 145.381C200.774 146.019 201.72 146.208 202.618 145.83C203.517 145.452 204.037 144.625 203.777 144.011C203.517 143.374 202.571 143.185 201.673 143.563C200.774 143.941 200.254 144.767 200.514 145.381Z" fill="white"/>
<path d="M198.77 145.544C198.77 145.544 198.155 140.585 203.001 138.082C210.425 134.256 214.491 143.112 216.902 144.552C216.902 144.552 215.342 146.111 214.207 145.568C214.207 145.544 205.413 135.035 198.77 145.544Z" fill="#302725"/>
<path d="M184.652 146.608C184.652 150.882 181.201 154.33 176.922 154.33C172.666 154.33 169.191 150.882 169.191 146.608C169.191 142.357 172.643 138.909 176.922 138.909C181.177 138.885 184.652 142.357 184.652 146.608Z" fill="white"/>
<path d="M171.676 150.055C172.409 153.503 175.222 155.818 177.988 155.227C180.754 154.637 182.386 151.378 181.653 147.953C180.92 144.505 178.107 142.191 175.341 142.758C172.598 143.348 170.943 146.607 171.676 150.055Z" fill="#84B5FF"/>
<path d="M173.117 149.747C173.637 152.203 175.623 153.833 177.585 153.431C179.548 153.03 180.706 150.692 180.209 148.259C179.689 145.803 177.68 144.15 175.718 144.575C173.779 144.976 172.597 147.291 173.117 149.747Z" fill="#400404"/>
<path d="M172.01 145.593C172.152 146.255 173.097 146.632 174.09 146.42C175.107 146.207 175.792 145.499 175.674 144.838C175.532 144.176 174.61 143.798 173.594 144.011C172.577 144.224 171.868 144.932 172.01 145.593Z" fill="white"/>
<path d="M184.772 145.662C184.772 145.662 185.386 141.245 180.54 139.025C173.117 135.625 169.05 143.489 166.663 144.764C166.663 144.764 168.223 146.134 169.358 145.662C169.334 145.662 177.301 136.097 184.772 145.662Z" fill="#302725"/>
<g clip-path="url(#clip0_196_3686)">
<path d="M94.9357 215.517C94.9357 215.517 89.9957 211.892 89.379 211.022C88.5116 209.802 84.4218 204.761 80.1803 199.9C78.5701 198.056 76.1591 198.861 77.7184 201.569C79.0026 203.8 83.2912 208.746 84.8067 211.234C85.646 212.616 84.8462 212.765 84.6049 212.633C81.8314 211.097 76.2692 207.174 74.1781 205.375C71.4864 203.056 69.3249 205.124 71.8064 207.691C72.4219 208.327 75.2681 210.362 77.5133 212.169C79.3653 213.66 80.681 214.568 81.4764 215.382C82.8814 216.828 83.3102 217.693 81.222 217.288C78.0673 216.679 71.3536 213.75 70.4475 213.528C65.9801 212.448 66.3416 214.853 68.9327 216.264C70.1913 216.952 76.812 219.336 80.5226 220.848C81.1068 221.086 81.3617 221.777 80.1785 221.726L82.3377 223.209L89.206 226.898L94.9357 215.517Z" fill="#FBB79E"/>
<path d="M93.0304 203.856C92.0525 206.118 93.8796 211.464 93.9553 212.66C94.0327 213.884 93.3347 214.305 92.2735 213.51C90.3438 212.063 91.1801 216.488 90.3139 218.026C90.2471 218.141 90.1667 218.22 90.0743 218.271C89.9135 218.601 89.7514 218.958 89.607 219.31C88.8895 221.08 89.3519 222.689 89.3519 222.689C89.3519 222.689 86.7678 222.281 82.158 221.879C80.748 221.758 77.5511 221.567 76.2113 221.474C73.3623 221.283 70.9357 221.201 70.0522 221.389C68.4994 221.717 68.1634 223.64 70.6447 223.995C74.0282 224.479 79.2438 224.964 81.5797 225.648C83.414 226.187 86.6037 228.14 88.7649 228.905C90.9261 229.671 93.3631 230.64 94.4075 231.271C95.4519 231.902 99.3016 234.871 99.3016 234.871L103.863 228.671L104.237 228.163C102.546 226.887 100.1 224.937 99.8408 224.128C99.4382 222.879 99.9615 219.583 99.9432 219.079C99.9257 218.32 99.9518 217.396 100.009 216.262C100.078 214.87 100.101 213.316 98.7264 211.568C96.9892 209.356 95.7374 205.894 96.1393 201.83C95.6374 201.562 94.2656 200.997 93.0304 203.856Z" fill="#FBB79E"/>
<path d="M79.3125 203.328C79.3125 203.328 79.7449 203.399 80.4588 202.944C81.1727 202.49 81.3004 201.906 81.3004 201.906C81.3004 201.906 80.9654 202.2 80.3065 202.617C79.6475 203.034 79.3125 203.328 79.3125 203.328Z" fill="#EC8B56" fill-opacity="0.3"/>
<path d="M74.0516 208.776C74.0516 208.776 74.4881 208.717 75.0369 208.077C75.5878 207.433 75.54 206.84 75.54 206.84C75.54 206.84 75.3023 207.219 74.7958 207.808C74.2864 208.395 74.0516 208.776 74.0516 208.776Z" fill="#EC8B56" fill-opacity="0.3"/>
<path d="M83.0925 208.104C83.0925 208.104 83.4975 207.976 84.2017 207.509C84.9029 207.041 84.9986 206.681 84.9986 206.681C84.9986 206.681 84.6934 206.754 84.0442 207.183C83.3949 207.612 83.0925 208.104 83.0925 208.104Z" fill="#EC8B56" fill-opacity="0.3"/>
<path d="M79.2642 212.707C79.2642 212.707 79.6017 212.447 80.0963 211.762C80.5909 211.078 80.556 210.709 80.556 210.709C80.556 210.709 80.2952 210.883 79.834 211.51C79.3714 212.145 79.2642 212.707 79.2642 212.707Z" fill="#EC8B56" fill-opacity="0.3"/>
<path d="M71.0366 216.82C71.0366 216.82 71.4367 216.643 71.7861 215.869C72.1333 215.099 71.9222 214.541 71.9222 214.541C71.9222 214.541 71.8028 214.971 71.4809 215.682C71.156 216.39 71.0366 216.82 71.0366 216.82Z" fill="#EC8B56" fill-opacity="0.3"/>
<path d="M73.0137 223.801C73.0137 223.801 73.1512 223.769 73.1633 222.926C73.1723 222.081 72.994 221.827 72.994 221.827C72.994 221.827 72.8158 222.094 72.8047 222.873C72.7906 223.65 73.0137 223.801 73.0137 223.801Z" fill="#EC8B56" fill-opacity="0.3"/>
<path d="M76.9356 224.191C76.9356 224.191 77.0731 224.16 77.0851 223.317C77.0942 222.472 76.9159 222.217 76.9159 222.217C76.9159 222.217 76.7406 222.487 76.7295 223.266C76.7133 224.046 76.9356 224.191 76.9356 224.191Z" fill="#EC8B56" fill-opacity="0.3"/>
<path d="M76.8622 218.991C76.8622 218.991 77.1403 218.669 77.4875 217.898C77.8347 217.128 77.7234 216.776 77.7234 216.776C77.7234 216.776 77.5042 216.999 77.1793 217.708C76.8544 218.417 76.8622 218.991 76.8622 218.991Z" fill="#EC8B56" fill-opacity="0.3"/>
<path d="M80.391 217.103C80.391 217.103 82.0888 218.412 82.6785 217.902C83.2989 217.37 82.1529 216.137 82.1529 216.137C82.1529 216.137 82.5475 217.229 81.8831 217.262C81.2217 217.297 80.391 217.103 80.391 217.103Z" fill="#EC8B56" fill-opacity="0.3"/>
<path d="M83.4707 211.984C83.4707 211.984 84.8679 213.466 85.4807 212.987C86.1263 212.482 84.7997 211.241 84.7997 211.241C84.7997 211.241 85.4064 212.218 84.9472 212.301C84.3005 212.416 83.4707 211.984 83.4707 211.984Z" fill="#EC8B56" fill-opacity="0.3"/>
<path d="M79.6641 221.702C79.6641 221.702 81.2928 222.328 81.4086 221.822C81.5245 221.317 80.5221 220.858 80.5221 220.858C80.5221 220.858 80.9251 221.292 80.744 221.489C80.5659 221.687 79.6641 221.702 79.6641 221.702Z" fill="#EC8B56" fill-opacity="0.3"/>
<path d="M93.5898 230.408C93.5898 230.408 94.9672 230.331 95.7225 229.454C96.4778 228.576 96.914 228.132 96.914 228.132C96.914 228.132 96.7269 229.542 95.6142 230.148C94.5065 230.752 93.5898 230.408 93.5898 230.408Z" fill="#EC8B56" fill-opacity="0.3"/>
<path d="M84.4459 224.871C84.4459 224.871 85.5762 221.806 86.4362 219.289C87.2941 216.774 87.335 213.512 87.335 213.512C87.335 213.512 87.8026 214.685 87.404 217.222C87.0605 219.391 86.7506 220.564 86.0106 222.465C85.3486 224.166 84.4459 224.871 84.4459 224.871Z" fill="#EC8B56" fill-opacity="0.3"/>
<path d="M89.4996 214.367C89.4996 214.367 88.6252 217.625 88.4747 219.781C88.2836 222.539 89.5064 225.444 89.5064 225.444C89.5064 225.444 88.9539 221.466 89.0749 219.742C89.196 218.017 89.4996 214.367 89.4996 214.367Z" fill="#EC8B56" fill-opacity="0.3"/>
<path d="M96.1052 204.501L95.6393 204.488C95.6393 204.488 95.5529 202.108 96.1394 201.838C96.1708 202.411 96.1052 204.501 96.1052 204.501Z" fill="#FFD6BB"/>
</g>
<path d="M162.466 228.845C162.466 228.845 136.958 271.455 131.768 272.458C127.587 273.287 107.962 247.931 100.462 238.642C98.8851 235.506 97.4874 233.898 97.4874 233.898L103.548 223.973L108.002 228.194L130.004 251.081C130.004 251.081 155.86 207.777 162.956 209.597C170.035 211.465 162.466 228.845 162.466 228.845Z" fill="#66D6A0"/>
<path d="M132.585 267.193C133.111 267.048 130.109 272.599 131.813 272.092C133.827 271.485 134.039 270.31 134.039 270.31C134.039 270.31 135.095 269.548 135.375 268.975C135.658 268.396 143.836 256.06 148.65 250.254C153.391 247.682 161.498 224.103 162.579 220.912L162.698 220.555C162.698 220.555 159.081 222.921 154.976 229.138C150.864 235.359 145.685 249.043 145.685 249.043C145.685 249.043 136.914 268.626 132.585 266.748C132.585 266.748 135.697 263.461 132.585 266.275C131.99 266.809 133.533 266.895 132.585 267.193Z" fill="#4CCC8E"/>
<path d="M376.228 367.284H389.387V411.149H376.228V367.284Z" fill="#BEC1C4"/>
<path d="M374.028 404.586H393.766V441.867H374.028V404.586Z" fill="#7F8B96"/>
<path d="M360.869 362.897H409.102V371.661H360.869V362.897Z" fill="#D0D5D9"/>
<path d="M376.231 332.18H391.566V354.112H376.231V332.18Z" fill="#6F7275"/>
<path d="M422.26 351.932V358.517H439.534C443.122 358.517 446.256 357.775 448.601 355.308C450.898 352.89 452.142 349.706 452.86 345.276C453.314 342.427 452.955 340.391 452.955 339.889V314.628H446.376V340.104C446.376 342.259 446.52 347.79 443.601 350.831C442.452 352.028 441.4 351.932 439.534 351.932H422.26Z" fill="#D0D5D9"/>
<path d="M436.112 315.876V317.264C436.112 320.329 438.6 322.795 441.639 322.795H458.075C461.137 322.795 463.602 320.305 463.602 317.264V315.876C463.602 312.811 461.137 310.345 458.099 310.345H441.615C441.519 310.345 441.423 310.345 441.328 310.345C440.49 310.393 439.701 310.608 439.007 310.991C438.911 311.039 438.839 311.087 438.744 311.135C437.189 312.117 436.112 313.864 436.112 315.876Z" fill="#A3886F"/>
<path d="M345.535 351.932V358.516H328.955C325.367 358.516 322.233 357.774 319.888 355.308C317.591 352.89 315.988 349.705 315.294 345.275C314.84 342.426 314.864 340.391 314.864 339.888V314.627H321.443V340.104C321.443 342.259 321.658 347.79 324.553 350.83C325.702 352.028 327.089 351.932 328.955 351.932H345.535Z" fill="#C1C7CC"/>
<path d="M303.904 315.249C303.904 312.184 307.11 308.042 310.172 308.042H326.393C329.456 308.042 332.398 312.184 332.398 315.249V316.925C332.398 319.99 329.456 321.211 326.393 321.211H310.172C307.11 321.211 303.904 319.99 303.904 316.925V315.249Z" fill="#A3886F"/>
<path d="M343.359 341.996C343.359 345.061 345.847 347.527 348.885 347.527H421.114C424.176 347.527 426.641 345.037 426.641 341.996V247.777C426.641 244.712 424.176 242.246 421.114 242.246H348.885C345.823 242.246 343.359 244.736 343.359 247.777V341.996Z" fill="#A3886F"/>
<path d="M312.613 283.381C312.613 283.381 314.997 282.658 315.953 284.58C316.909 286.502 319.9 309.575 319.067 316.064C318.225 322.553 315.84 320.156 315.84 320.156C315.84 320.156 316.076 324 317.628 325.084L317.638 325.075C317.657 325.065 317.695 325.037 317.742 324.999C317.78 324.98 317.827 324.941 317.884 324.903H317.893C318.811 324.294 321.991 322.182 324.925 320.156C328.389 317.748 330.424 315.703 330.424 315.703C330.424 315.703 329.941 311.859 329.941 310.784C329.941 309.699 337.597 284.095 345.121 276.169C352.143 268.776 345.244 227.13 344.279 221.507L344.165 220.879C344.165 220.879 338.07 222.687 335.439 224.618C332.818 226.559 323.363 249.965 322.89 261.983C322.408 274 318.111 280.822 318.111 280.822C318.111 280.822 316.673 279.946 314.278 280.822L312.613 283.381Z" fill="url(#paint3_linear_196_3686)"/>
<path opacity="0.83" d="M317.066 324.194C318.009 323.589 321.275 321.491 324.289 319.478C327.847 317.087 329.938 315.056 329.938 315.056C329.938 315.056 329.442 311.238 329.442 310.17C329.442 309.093 337.307 283.663 345.036 275.792C352.25 268.449 345.162 227.087 344.171 221.503L344.054 220.879C344.054 220.879 338.96 227.087 336.753 239.438C334.536 251.799 337.667 276.151 337.667 276.151C337.667 276.151 333.253 295.844 322.384 296.203C322.384 296.203 331.503 309.178 327.906 315.689C327.215 316.927 318.728 323.05 317.066 324.194Z" fill="#3E64F9"/>
<path d="M415.762 272.041L418.959 262.104C418.959 262.104 424.001 262.71 430.596 270.038C430.596 270.038 430.357 273.55 432.359 278.211C432.359 278.211 440.384 283.088 443.694 288.814C447.003 294.54 448.431 295.247 452.9 292.761C454.087 292.105 455.149 289.518 455.976 285.923C457.216 280.49 457.924 272.75 457.734 265.837C457.571 260.135 456.791 255.003 455.193 252.188C455.193 252.188 452.345 250.42 450.867 247.492C450.775 247.535 450.674 247.578 450.581 247.63C449.95 247.908 450.973 248.102 450.847 247.662C448.846 247.077 445.006 243.339 445.006 243.339C445.006 243.339 437.41 237.697 433.187 229.228C428.973 220.77 428.253 219.703 428.253 219.703C428.253 219.703 426.995 219.035 425.247 218.507C423.872 218.088 422.187 217.767 420.559 217.926C420.559 217.926 391.105 251.423 415.762 272.041Z" fill="url(#paint4_linear_196_3686)"/>
<path d="M366.611 220.939C366.611 220.939 370.173 214.13 370.173 203.512L393.638 194.16C393.638 194.16 392.432 202.347 396.49 209.447C397.565 211.322 402.566 214.293 402.566 214.293C402.566 214.293 380.681 241.09 370.173 238.518C359.665 235.947 361.769 224.586 361.769 224.586C361.769 224.586 363.545 225.273 366.611 220.939Z" fill="#FF9B8B"/>
<path d="M399.458 212.864C399.458 212.864 386.925 224.391 376.141 225.038C364.586 225.73 366.492 216.864 366.492 216.864C366.492 216.864 361.268 223.625 362.759 228.947C364.26 234.268 375.667 234.532 384.466 230.988C393.265 227.452 401.68 213.702 401.68 213.702L399.458 212.864Z" fill="#CEC5FF"/>
<path opacity="0.83" d="M416.647 275.139L418.616 264.941C418.616 264.941 423.64 264.941 430.983 271.399C430.983 271.399 431.162 274.897 433.679 279.265C433.679 279.265 442.139 283.131 446.065 288.396C449.992 293.661 451.478 294.19 455.575 291.203C456.663 290.414 457.401 287.732 457.789 284.081L457.146 282.619V264.026C456.313 258.411 454.941 253.433 453.039 250.841C453.039 250.841 450.482 249.603 448.684 246.885C448.599 246.939 445.36 248.938 448.684 246.885C441.73 251.181 441.741 261.766 441.268 271.174C441.202 268.789 439.603 259.559 438.401 259.73C436.849 259.954 434.219 276.951 434.219 276.951C431.115 262.376 441.126 244.796 441.93 243.396C432.78 255.379 431.229 269.138 431.229 269.138L417.007 259.281C417.007 259.281 408.444 251.119 411.405 237.073C414.367 223.027 419.647 221.116 419.647 221.116C418.247 220.865 416.553 220.749 414.973 221.099C414.973 221.099 389.992 257.694 416.647 275.139Z" fill="#446EF7"/>
<path d="M348.518 285.169C348.518 285.169 352.12 304.028 347.432 324.453C347.432 324.453 344.544 326.437 344.182 328.965C344.182 328.965 344.182 328.984 344.172 329.012C343.829 331.531 343.423 333.418 343.423 333.418C343.423 333.418 343.095 335.118 342.009 336.921C341.809 337.264 341.694 337.665 341.656 338.104C341.485 339.973 342.552 342.339 342.552 342.339C342.552 342.339 344.725 347.948 367.292 349.933C389.86 351.926 407.376 356.257 407.376 356.257C407.376 356.257 410.991 352.203 408.503 348.768C408.503 348.768 410.092 344.877 409.911 343.608C409.73 342.339 401.42 327.887 403.583 317.765C405.756 307.644 410.519 302.09 415.037 282.334C415.037 282.334 416.925 275.896 417.106 274.446C417.287 273.006 418.393 264.521 418.393 264.521C418.393 264.521 409.425 268.541 412.198 243.595C414.962 218.65 421.717 218.707 423.044 217.829C423.044 217.829 423.501 218.268 417.107 216.408C417.107 216.408 413.428 217.295 409.635 215.969C405.842 214.643 402.145 212.864 402.145 212.864C402.145 212.864 380.434 231.499 370.399 230.307C358.944 228.952 367.026 216.408 367.026 216.408C367.026 216.408 359.83 217.81 355.98 218.707C352.12 219.613 349.129 219.544 349.129 219.544C349.129 219.544 345.121 220.434 342.552 221.475C339.057 222.891 338.645 232.386 339.846 252.629C341.046 272.872 348.518 285.169 348.518 285.169Z" fill="url(#paint5_linear_196_3686)"/>
<path d="M397.227 198.923C397.227 198.923 387.275 215.198 369.617 213.651C369.617 213.651 370.879 208.338 370.704 203.985C370.704 203.985 379.064 204.46 385.152 202.229C392.024 199.716 397.227 193.27 397.227 193.27L397.227 198.923Z" fill="url(#paint6_linear_196_3686)" fill-opacity="0.7"/>
<path d="M357.312 186.838C360.988 199.262 368.078 202.938 372.312 206.276C378.324 209.65 383.567 208.54 383.567 208.54C403.788 199.787 405.765 190.974 407.096 181.135C407.762 176.281 408.365 167.247 406.327 156.081C406.056 154.557 405.598 153.186 405.016 151.923C401.313 143.848 392.575 140.713 392.575 140.713C387.353 138.798 381.403 138.384 375.974 139.429C368.151 140.931 361.993 145.176 360.017 153.556C359.372 156.255 359.018 159.041 358.706 161.806C358.02 167.487 357.666 173.233 357.479 178.958C357.396 181.57 357.333 184.204 357.312 186.838Z" fill="#FFADA0"/>
<path d="M376.554 156.475C376.554 156.475 365.696 154.282 362.292 162.28C362.292 162.28 374.424 158.626 376.742 160.442L376.554 156.475Z" fill="#38368E"/>
<path d="M388.103 157.656C388.103 157.656 398.794 154.795 402.699 162.563C402.699 162.563 390.358 159.681 388.165 161.623L388.103 157.656Z" fill="#38368E"/>
<path d="M400.128 170.499C399.904 173.837 396.723 176.368 393.027 176.122C389.331 175.875 386.508 172.963 386.732 169.603C386.956 166.265 390.137 163.756 393.833 164.003C397.53 164.249 400.352 167.161 400.128 170.499Z" fill="white"/>
<mask id="mask1_196_3686" style="mask-type:alpha" maskUnits="userSpaceOnUse" x="386" y="163" width="15" height="14">
<path d="M400.128 170.499C399.904 173.837 396.723 176.368 393.027 176.122C389.331 175.875 386.508 172.963 386.732 169.603C386.956 166.265 390.137 163.756 393.833 164.003C397.53 164.249 400.352 167.161 400.128 170.499Z" fill="white"/>
</mask>
<g mask="url(#mask1_196_3686)">
<path d="M388.332 171.643C388.131 174.6 389.855 177.131 392.163 177.288C394.47 177.445 396.509 175.16 396.71 172.203C396.912 169.246 395.209 166.714 392.88 166.557C390.572 166.401 388.534 168.686 388.332 171.643Z" fill="#7F9EC9"/>
<path d="M389.542 171.732C389.407 173.838 390.617 175.63 392.252 175.742C393.888 175.854 395.344 174.241 395.478 172.135C395.612 170.03 394.403 168.237 392.767 168.125C391.132 167.991 389.676 169.626 389.542 171.732Z" fill="#38368E"/>
<path d="M389.585 168.105C389.54 168.665 390.19 169.18 391.041 169.247C391.892 169.314 392.609 168.889 392.654 168.306C392.699 167.724 392.027 167.231 391.176 167.164C390.347 167.119 389.63 167.545 389.585 168.105Z" fill="white" fill-opacity="0.8"/>
</g>
<path d="M376.207 169.975C375.989 173.266 372.894 175.751 369.298 175.511C365.702 175.272 362.956 172.395 363.174 169.104C363.391 165.791 366.486 163.328 370.082 163.568C373.678 163.808 376.425 166.684 376.207 169.975Z" fill="white"/>
<mask id="mask2_196_3686" style="mask-type:alpha" maskUnits="userSpaceOnUse" x="363" y="163" width="14" height="13">
<path d="M376.207 169.975C375.989 173.266 372.894 175.751 369.298 175.511C365.702 175.272 362.956 172.395 363.174 169.104C363.391 165.791 366.486 163.328 370.082 163.568C373.678 163.808 376.425 166.684 376.207 169.975Z" fill="white"/>
</mask>
<g mask="url(#mask2_196_3686)">
<path d="M365.177 171.505C364.981 174.381 366.659 176.844 368.904 176.997C371.149 177.149 373.132 174.926 373.328 172.049C373.524 169.173 371.846 166.71 369.601 166.557C367.356 166.405 365.373 168.628 365.177 171.505Z" fill="#7F9EC9"/>
<path d="M366.355 171.594C366.224 173.642 367.401 175.386 368.992 175.495C370.583 175.604 372 174.013 372.131 171.964C372.261 169.915 371.085 168.172 369.494 168.063C367.903 167.954 366.508 169.545 366.355 171.594Z" fill="#38368E"/>
<path d="M366.399 168.061C366.355 168.606 367.009 169.107 367.815 169.173C368.644 169.238 369.341 168.824 369.385 168.257C369.428 167.691 368.796 167.211 367.968 167.146C367.14 167.102 366.442 167.495 366.399 168.061Z" fill="white" fill-opacity="0.8"/>
</g>
<path d="M358.035 167.411C358.035 167.411 354.048 154.819 350.76 164.729C348.139 172.621 352.507 180.358 356.034 179.804C359.56 179.272 358.035 167.411 358.035 167.411Z" fill="#FFADA0"/>
<path d="M357.944 169.66C357.944 169.66 354.8 161.156 353.159 164.216C351.519 167.277 351.536 171.459 351.536 171.459C351.536 171.459 352.703 167.02 354.986 169.941C354.986 169.941 351.925 176.88 357.031 175.431C357.048 175.431 359.263 173.492 357.944 169.66Z" fill="#FF9B8B"/>
<path d="M405.994 167.426C405.994 167.426 410.48 153.783 414.179 164.52C417.128 173.071 412.213 181.43 408.246 180.853C404.279 180.277 405.994 167.426 405.994 167.426Z" fill="#FFADA0"/>
<path d="M406.07 169.4C406.07 169.4 409.462 160.526 411.23 163.72C412.999 166.914 412.98 171.278 412.98 171.278C412.98 171.278 411.722 166.645 409.261 169.693C409.261 169.693 412.561 176.934 407.055 175.422C407.055 175.422 404.667 173.399 406.07 169.4Z" fill="#FF9B8B"/>
<path d="M390.695 188.87C390.618 189.102 389.088 192.802 386.608 195.572C383.625 198.904 379.267 200.879 374.444 193.751C373.417 192.24 372.391 190.342 371.325 187.959C371.325 187.959 372.991 188.599 375.432 189.296C379.267 190.381 384.962 191.601 388.913 189.838C389.572 189.819 390.153 189.296 390.695 188.87Z" fill="#712311"/>
<path d="M386.613 195.612C383.63 198.944 379.272 200.9 374.449 193.772C377.025 193.075 383.127 191.99 386.613 195.612Z" fill="#D5503B"/>
<path d="M388.914 189.937C382.619 196.968 378.047 193.268 375.432 189.355C379.268 190.44 384.963 191.544 388.914 189.937Z" fill="white"/>
<path d="M375.299 180.315C375.299 180.315 380.908 189.414 387.171 180.3L375.299 180.315Z" fill="#D8826C"/>
<path d="M358.165 174.054C358.833 172.076 359.233 167.914 359.233 167.914C359.233 167.914 359.355 160.735 359.367 159.794C359.391 157.514 360.532 147.18 365.485 146.903C366.639 146.842 369.686 150.45 373.728 152.102C374.457 152.404 380.623 148.459 383.828 147.337C393.37 144.007 402.171 153.08 402.171 153.08C404.951 156.144 404.101 161.581 404.114 163.017C404.029 159.337 404.126 163.97 404.114 163.017C404.162 165.116 404.842 168.116 405.522 170.106C405.995 167.874 406.791 168.015 407.945 163.756C409.863 156.687 412.016 151.089 411.664 149.509L406.578 140.267C399.67 127.732 383.403 123.823 371.494 131.834L367.027 134.838C360.787 132.654 359.306 135.719 357.57 138.023C354.353 142.318 353.103 146.306 352.981 152.338C352.933 154.582 354.762 155.999 356.474 162.454C357.555 166.531 357.728 172.016 358.165 174.054Z" fill="#293AA1"/>
<path d="M422.358 139.822C418.255 147.664 410.971 141.257 408.276 135.479C401.648 121.23 393.66 123.45 393.66 123.45C377.308 110.855 373.01 123.595 373.01 123.595C360.215 122.352 359.742 129.458 361.672 135.768C363.602 142.054 368.033 147.278 373.702 150.644C373.957 150.788 374.212 150.945 374.455 151.09C378.667 144.225 386.51 143.622 389.969 144.068C394.619 144.66 396.44 147.121 399.438 149.594C404.063 153.406 406.127 155.144 414.892 154.335C428.95 153.032 422.358 139.822 422.358 139.822Z" fill="#5A65BA"/>
<path d="M422.358 139.822C418.255 147.664 410.971 141.257 408.276 135.479C401.648 121.23 393.66 123.45 393.66 123.45C377.308 110.855 373.01 123.595 373.01 123.595C360.215 122.352 359.742 129.458 361.672 135.768C363.602 142.054 368.033 147.278 373.702 150.644C373.957 150.788 374.212 150.945 374.455 151.09C377.587 142.826 385.805 142.078 389.277 141.812C391.365 141.656 395.129 142.018 398.03 144.262C405.921 150.366 406.115 155.132 414.892 154.323C428.95 153.032 422.358 139.822 422.358 139.822Z" fill="#293AA1"/>
<path d="M421.474 138.591C417.371 146.433 410.971 141.257 408.276 135.479C401.648 121.23 393.66 123.45 393.66 123.45C377.308 110.855 373.01 123.595 373.01 123.595C360.215 122.352 359.742 129.458 361.672 135.768C363.602 142.054 368.033 147.278 373.702 150.644C373.957 150.788 374.212 150.945 374.455 151.09C377.587 142.826 385.247 136.395 388.731 136.13C390.819 135.973 394.582 136.335 397.484 138.591C405.375 144.696 406.127 155.132 414.892 154.323C429.487 152.954 422.092 138.501 421.474 138.591Z" fill="#5A65BA"/>
<path d="M374.026 150.756C374.026 150.756 363.181 116.464 382.738 117.592C382.738 117.592 390.039 120.042 395.738 124.787C395.738 124.787 382.991 120.849 378.668 126.526C373.233 133.666 372.836 142.845 374.026 150.756Z" fill="#293AA1"/>
<path d="M403.59 131.701C403.59 131.701 399.972 127.237 392.361 126.924C385.029 126.61 374.941 129.916 373.727 150.655C373.727 150.655 378.995 131.81 393.016 129.168C395.153 128.77 398.139 128.914 403.59 131.701Z" fill="#293AA1"/>
<path d="M327.997 358.852C327.997 362.3 330.796 365.078 334.217 365.078H429.174C432.619 365.078 435.395 362.276 435.395 358.852V353.776C435.395 350.328 432.595 347.551 429.174 347.551H334.241C330.796 347.551 328.02 350.352 328.02 353.776V358.852H327.997Z" fill="#A3886F"/>
<path d="M333.192 344.92C334.269 344.369 356.615 331.152 356.615 331.152L377.645 331.416V351.313C370.706 364.075 358.289 363.572 353.744 366.35C357.643 384.188 361.806 428.675 364.031 445.963H339.676C331.757 402.577 311.206 356.15 333.192 344.92Z" fill="#774E24"/>
<path d="M433.628 344.92C432.551 344.369 410.206 331.152 410.206 331.152L389.176 331.416V351.313C396.114 364.075 408.531 363.572 413.077 366.35C409.177 384.188 405.014 428.675 402.789 445.963H427.144C435.063 402.577 455.615 356.15 433.628 344.92Z" fill="#774E24"/>
<path d="M353.767 349.99C354.987 356.12 406.186 354.061 411.665 351.355C415.421 349.488 413.435 331.937 411.832 321.114C411.09 316.182 410.42 312.638 410.42 312.638L356.351 313.189C356.351 313.189 355.992 315.942 355.561 319.965C354.532 329.375 352.905 345.705 353.767 349.99Z" fill="#774E24"/>
<path d="M361.325 322.575C359.411 321.785 357.473 320.875 355.559 319.798C356.014 316.182 356.349 313.716 356.349 313.716L363.191 313.644C362.665 316.637 362.019 319.606 361.325 322.575Z" fill="#4D3114"/>
<path d="M368.502 324.419C370.488 324.946 372.473 325.353 374.435 325.616C380.847 326.574 386.972 326.358 392.522 325.568C394.245 325.329 395.943 325.018 397.57 324.658C397.188 320.708 397.116 316.733 396.9 312.782L371.205 312.998C370.44 316.853 369.554 320.66 368.502 324.419Z" fill="#4D3114"/>
<path d="M404.487 313.262L410.444 313.214C410.444 313.214 411.114 316.375 411.855 320.805C410.037 321.523 407.884 322.313 405.515 323.079C405.635 319.99 405.085 316.543 404.487 313.262Z" fill="#4D3114"/>
<path d="M374.438 325.616C380.85 326.574 386.975 326.359 392.525 325.568L393.387 314.578L375.324 313.142L374.438 325.616Z" fill="#C28C4B"/>
<path d="M409.18 287.784C441.598 266.546 456.454 279.217 456.454 279.217C460.641 286.903 459.572 300.592 409.18 298.99V287.784Z" fill="#4875F5"/>
<path d="M420.785 300.331C420.785 300.331 407.196 272.388 385.807 299.852L420.785 300.331Z" fill="#F5AE94"/>
<path d="M345.04 229.786C345.04 229.786 328.686 255.092 314.138 263.939C297.783 273.864 270.994 283.858 270.994 283.858C270.994 283.858 260.32 294.081 271.16 295.48C298.401 298.987 336.578 294.906 347.465 272.122C358.352 249.361 360.824 244.685 345.04 229.786Z" fill="#3B7BD7"/>
<path d="M263.905 299.877C265.532 292.263 270.844 286.66 277.16 286.66C283.476 286.66 288.787 292.263 290.414 299.877H263.905Z" fill="#22272E"/>
<path d="M284.361 293.579C284.361 295.303 286.179 296.715 288.452 296.715C290.725 296.715 292.543 295.303 292.543 293.579C292.543 291.831 290.701 290.442 288.452 290.442C286.203 290.442 284.361 291.831 284.361 293.579Z" fill="#F0A98F"/>
<path d="M278.715 286.656C278.715 289.17 279.959 291.206 281.49 291.206C283.022 291.206 284.266 289.17 284.266 286.656C284.266 284.142 283.022 282.107 281.49 282.107C279.959 282.107 278.715 284.142 278.715 286.656Z" fill="#F0A98F"/>
<path d="M270.699 286.969C271.561 289.316 273.427 290.8 274.862 290.298C276.298 289.771 276.776 287.424 275.915 285.078C275.054 282.731 273.187 281.247 271.752 281.774C270.316 282.277 269.862 284.623 270.699 286.969Z" fill="#F0A98F"/>
<path d="M264.123 293.147C265.749 295.063 267.998 295.829 269.171 294.823C270.343 293.842 269.984 291.471 268.357 289.556C266.73 287.64 264.481 286.898 263.309 287.88C262.137 288.885 262.496 291.232 264.123 293.147Z" fill="#F0A98F"/>
<path d="M262.18 299.37C264.573 300.112 266.893 299.538 267.348 298.077C267.802 296.616 266.223 294.821 263.831 294.078C261.438 293.336 259.118 293.935 258.663 295.395C258.209 296.832 259.788 298.628 262.18 299.37Z" fill="#F0A98F"/>
<path d="M510.879 472.029L476.068 315.054L484.418 312.085L519.898 472.029H510.879Z" fill="#C1C7CC"/>
<path d="M233.736 472.029L268.547 315.054L260.197 312.085L224.717 472.029H233.736Z" fill="#C1C7CC"/>
<path d="M220.427 298.907H524.055C526.264 298.907 528.055 300.698 528.055 302.907V311.553C528.055 313.763 526.264 315.553 524.055 315.553H220.427C218.218 315.553 216.427 313.763 216.427 311.554V302.907C216.427 300.698 218.218 298.907 220.427 298.907Z" fill="#D8DDE1"/>
<g clip-path="url(#clip1_196_3686)">
<path d="M241.742 309.913C241.742 309.913 240.413 309.182 239.984 307.853C239.557 306.527 239.001 302.884 239.001 302.884L242.098 305.198L241.742 309.913Z" fill="#F7AA88"/>
<path d="M233.605 308.738C232.343 308.755 231.681 307.348 231.17 306.199C230.586 304.887 230.537 303.583 230.537 303.583C229.615 302.053 228.454 300.246 227.029 299.403C225.693 298.611 224.196 296.327 223.828 294.308C223.674 293.459 222.661 287.232 222.661 287.232L228.411 284.855C228.411 284.855 230.057 288.482 232.914 290.805C235.773 293.131 240.249 296.9 241.37 297.872C242.492 298.846 243.601 299.505 244.227 300.202C244.846 300.894 245.243 301.832 245.568 303.708C245.779 304.932 246.422 311.067 246.422 311.067C246.422 311.067 245.13 311.228 244.374 310.193C244.43 310.878 244.529 312.745 244.529 312.745C244.529 312.745 242.691 312.682 241.906 311.287C241.12 309.891 241.358 307.826 241.358 307.826C241.358 307.826 240.396 304.452 238.281 303.195C236.218 301.971 234.595 300.903 232.914 299.364C231.593 298.157 231.358 298.882 231.358 298.882C231.358 298.882 233.455 301.318 233.741 303.712C234.099 306.733 234.712 308.722 233.605 308.738Z" fill="#FBB79E"/>
<path d="M244.374 310.196C244.374 310.196 244.07 307.817 243.925 306.997C243.781 306.176 243.329 304.182 243.029 303.264C242.729 302.345 242.237 301.775 241.146 301.025C239.212 299.691 238.057 298.092 238.057 298.092C238.057 298.092 240.281 299.653 241.654 300.504C243.206 301.468 243.581 302.516 244.014 304.475C244.449 306.432 244.374 310.196 244.374 310.196Z" fill="#F7AA88"/>
<path d="M233.782 308.301C233.357 308.503 232.616 308.208 232.325 307.341C232.034 306.474 232.225 306.194 232.225 306.194L233.804 306.035C233.804 306.035 234.268 308.067 233.782 308.301Z" fill="#FFD6BB"/>
<path d="M231.481 299.029C231.481 299.029 230.671 297.922 231.002 297.782C231.466 297.435 233.099 298.61 233.83 299.597C234.674 300.736 235.435 301.384 235.435 301.384C235.435 301.384 234.125 300.815 232.993 299.678C232.158 298.84 231.481 299.029 231.481 299.029Z" fill="#F7AA88"/>
<path d="M241.363 307.831C241.363 307.831 241.803 307.888 242.198 307.775C242.589 307.663 242.821 307.496 242.821 307.496C242.821 307.496 242.587 307.41 242.125 307.489C241.661 307.571 241.363 307.831 241.363 307.831Z" fill="#F7AA88"/>
<path d="M239.095 303.756C239.095 303.756 239.475 303.554 239.681 303.207C239.888 302.86 239.941 302.638 239.941 302.638C239.941 302.638 239.415 302.878 239.229 303.06C238.878 303.396 239.095 303.756 239.095 303.756Z" fill="#F7AA88"/>
<path d="M244.548 312.806C244.548 312.806 244.001 312.487 243.876 311.376C243.753 310.263 243.753 310.263 243.753 310.263L244.375 310.199C244.375 310.199 244.532 311.038 244.574 311.583C244.597 311.899 244.548 312.806 244.548 312.806Z" fill="#FFD6BB"/>
<path d="M246.423 311.082C246.423 311.082 245.876 310.763 245.751 309.651C245.628 308.539 245.628 308.539 245.628 308.539L246.147 308.485C246.147 308.485 246.322 309.364 246.354 309.909C246.383 310.317 246.423 311.082 246.423 311.082Z" fill="#FFD6BB"/>
</g>
<path d="M312.832 288.215C312.832 290.538 314.722 292.406 317.018 292.406H396.329C398.649 292.406 400.516 290.514 400.516 288.215V244.805C400.516 242.483 398.649 240.615 396.329 240.615H317.042C314.722 240.615 312.856 242.483 312.856 244.805V288.215H312.832Z" fill="#EDE9EB"/>
<path d="M407.574 291.833C407.574 291.929 407.598 292.025 407.598 292.121C407.598 295.784 404.631 298.729 400.994 298.729H312.401C308.741 298.729 305.798 295.76 305.798 292.121C305.798 292.025 305.798 291.929 305.822 291.833H407.574Z" fill="#BFC3C6"/>
<path d="M351.497 266.691C351.497 269.54 353.817 271.863 356.664 271.863C359.535 271.863 361.832 269.54 361.832 266.691C361.832 263.818 359.511 261.519 356.664 261.519C353.817 261.519 351.497 263.842 351.497 266.691Z" fill="#FFFFFE"/>
</g>
<path d="M225.796 209.16C225.796 209.16 242.702 234.683 242.702 253.834C242.702 253.834 242.317 265.412 230.233 287.233L222.662 288.569C222.662 288.569 224.872 265.708 228.006 255.615C228.006 255.615 216.527 231.073 217.919 225.156C219.288 219.235 222.157 208.999 225.796 209.16Z" fill="#66D6A0"/>
<path d="M51.8896 308C40.9032 308 32 316.903 32 327.89C32 338.876 40.9032 347.779 51.8896 347.779C62.8759 347.779 71.7791 338.876 71.7791 327.89C71.7791 316.903 62.8759 308 51.8896 308ZM51.8896 342.823C43.6332 342.823 36.9462 336.136 36.9462 327.88C36.9462 319.624 43.6332 312.937 51.8896 312.937C60.146 312.937 66.8329 319.624 66.8329 327.88C66.8329 336.136 60.146 342.823 51.8896 342.823Z" fill="#66D6A0"/>
<path d="M457.772 60.976H429.988C428.894 60.976 428 60.0914 428 58.988C428 57.8941 428.885 57 429.988 57H457.772C458.866 57 459.76 57.8846 459.76 58.988C459.76 60.0819 458.866 60.976 457.772 60.976Z" fill="#66D6A0"/>
<path d="M457.772 70.8969H429.988C428.894 70.8969 428 70.0123 428 68.9089C428 67.815 428.885 66.9209 429.988 66.9209H457.772C458.866 66.9209 459.76 67.8055 459.76 68.9089C459.76 70.0028 458.866 70.8969 457.772 70.8969Z" fill="#66D6A0"/>
<g filter="url(#filter0_d_196_3686)">
<path d="M534.687 196.322L540.544 198.375L543.281 193.649L538.523 189.688C539.239 187.508 539.525 185.233 539.398 183.022L545 180.333L543.584 175.051L537.424 175.623C536.422 173.635 535.037 171.821 533.334 170.294L535.387 164.439L530.66 161.702L526.698 166.459C524.517 165.743 522.241 165.457 520.029 165.584L517.34 160L512.056 161.416L512.629 167.589C510.639 168.591 508.825 169.975 507.297 171.678L501.44 169.625L498.703 174.351L503.462 178.312C502.745 180.508 502.459 182.751 502.586 184.978L497 187.667L498.416 192.949L504.591 192.377C505.594 194.365 506.963 196.179 508.682 197.706L506.629 203.561L511.355 206.298L515.318 201.541C517.515 202.257 519.759 202.543 521.987 202.416L524.676 208L529.96 206.584L529.387 200.411C531.345 199.425 533.159 198.056 534.687 196.322ZM515.318 193.793C509.907 190.674 508.061 183.753 511.18 178.344C514.3 172.935 521.223 171.089 526.634 174.207C532.045 177.326 533.891 184.247 530.772 189.656C527.653 195.065 520.729 196.911 515.318 193.793Z" fill="#84B5FF"/>
</g>
<defs>
<filter id="filter0_d_196_3686" x="487" y="154" width="68" height="68" filterUnits="userSpaceOnUse" color-interpolation-filters="sRGB">
<feFlood flood-opacity="0" result="BackgroundImageFix"/>
<feColorMatrix in="SourceAlpha" type="matrix" values="0 0 0 0 0 0 0 0 0 0 0 0 0 0 0 0 0 0 127 0" result="hardAlpha"/>
<feOffset dy="4"/>
<feGaussianBlur stdDeviation="5"/>
<feColorMatrix type="matrix" values="0 0 0 0 0.0885677 0 0 0 0 0.0395834 0 0 0 0 0.395833 0 0 0 0.25 0"/>
<feBlend mode="normal" in2="BackgroundImageFix" result="effect1_dropShadow_196_3686"/>
<feBlend mode="normal" in="SourceGraphic" in2="effect1_dropShadow_196_3686" result="shape"/>
</filter>
<linearGradient id="paint0_linear_196_3686" x1="129.095" y1="258.005" x2="234.8" y2="102.5" gradientUnits="userSpaceOnUse">
<stop stop-color="#194484"/>
<stop offset="1" stop-color="#84B5FF"/>
</linearGradient>
<linearGradient id="paint1_linear_196_3686" x1="183.036" y1="116.962" x2="232.764" y2="135.17" gradientUnits="userSpaceOnUse">
<stop stop-color="#75A5EE"/>
<stop offset="1" stop-color="#76A6EF"/>
</linearGradient>
<linearGradient id="paint2_linear_196_3686" x1="151.581" y1="138.453" x2="191.261" y2="103.753" gradientUnits="userSpaceOnUse">
<stop stop-color="#5785CB"/>
<stop offset="0.901042" stop-color="#76A7EF"/>
<stop offset="1" stop-color="#FFC63C"/>
</linearGradient>
<linearGradient id="paint3_linear_196_3686" x1="330.421" y1="325.081" x2="330.421" y2="220.875" gradientUnits="userSpaceOnUse">
<stop stop-color="#79ADFA"/>
<stop offset="1" stop-color="#2C72DA"/>
</linearGradient>
<linearGradient id="paint4_linear_196_3686" x1="428.245" y1="291.636" x2="436.893" y2="219.663" gradientUnits="userSpaceOnUse">
<stop stop-color="#7CAFFC"/>
<stop offset="1" stop-color="#2C72DA"/>
</linearGradient>
<linearGradient id="paint5_linear_196_3686" x1="381.325" y1="356.254" x2="381.325" y2="212.111" gradientUnits="userSpaceOnUse">
<stop stop-color="#67A1F8"/>
<stop offset="1" stop-color="#1B67D9"/>
</linearGradient>
<linearGradient id="paint6_linear_196_3686" x1="397.044" y1="204.219" x2="369.241" y2="204.219" gradientUnits="userSpaceOnUse">
<stop stop-color="#CF6074"/>
<stop offset="1" stop-color="#FF817F"/>
</linearGradient>
<clipPath id="clip0_196_3686">
<rect width="33.3528" height="40.6487" fill="white" transform="translate(61.4531 217.728) rotate(-53.6593)"/>
</clipPath>
<clipPath id="clip1_196_3686">
<rect width="16.5941" height="32.1071" fill="white" transform="matrix(0.912604 -0.408845 -0.408845 -0.912604 234.008 317.529)"/>
</clipPath>
</defs>
</svg>
