<svg width="65" height="32" viewBox="0 0 65 32" fill="none" xmlns="http://www.w3.org/2000/svg">
<path d="M48.94 0H15.64C7 0 0 7 0 15.64C0 24.28 7 31.28 15.64 31.28H48.94C57.58 31.28 64.58 24.28 64.58 15.64C64.57 7 57.57 0 48.94 0Z" fill="#84B5FF"/>
<path d="M21.4391 7.75977L23.7291 12.3898L28.8391 13.1398L25.1391 16.7398L26.0091 21.8298L21.4391 19.4298L16.869 21.8298L17.7391 16.7398L14.0391 13.1398L19.1491 12.3898L21.4391 7.75977Z" fill="white"/>
<path d="M43.1305 7.75977L45.4205 12.3898L50.5305 13.1398L46.8305 16.7398L47.7005 21.8298L43.1305 19.4298L38.5605 21.8298L39.4305 16.7398L35.7305 13.1398L40.8405 12.3898L43.1305 7.75977Z" fill="white"/>
</svg>
