<svg width="550" height="370" viewBox="0 0 550 370" fill="none" xmlns="http://www.w3.org/2000/svg">
<g id="hand 1" clip-path="url(#clip0_1_2)">
<rect width="550" height="370" fill="white"/>
<path id="Vector" d="M216.249 63.8526C205.263 63.8526 196.359 72.1923 196.359 82.4833C196.359 92.7744 205.263 101.114 216.249 101.114C227.235 101.114 236.139 92.7744 236.139 82.4833C236.139 72.1923 227.235 63.8526 216.249 63.8526ZM216.249 96.4716C207.993 96.4716 201.306 90.2082 201.306 82.4744C201.306 74.7406 207.993 68.4769 216.249 68.4769C224.505 68.4769 231.192 74.7406 231.192 82.4744C231.192 90.2082 224.505 96.4716 216.249 96.4716Z" fill="#66D6A0"/>
<g id="Mask group">
<mask id="mask0_1_2" style="mask-type:alpha" maskUnits="userSpaceOnUse" x="0" y="0" width="550" height="370">
<g id="Group">
<path id="Vector_2" d="M550 0H0V370H550V0Z" fill="#C4C4C4"/>
</g>
</mask>
<g mask="url(#mask0_1_2)">
<g id="Group_2">
<path id="Vector_3" opacity="0.04" d="M305.557 353.427C208.766 370.475 35.1283 388.266 9.00005 276.797C-17.1282 165.329 46.0189 127.047 91 124.114C104.973 123.238 142.583 150.842 185.321 132.485C237.217 110.194 237.776 47.2706 268.327 45.9503C294.761 44.7927 318.332 104.483 343.949 109.119C355.093 111.2 401.857 32.5844 456.007 69.4519C490.565 92.9804 519.576 183.417 504.357 130.402C489.137 77.388 416.847 333.825 305.557 353.427Z" fill="#276ED8"/>
</g>
</g>
</g>
<path id="Vector_4" d="M295.569 277.852H267.785C266.691 277.852 265.797 277.023 265.797 275.99C265.797 274.965 266.681 274.128 267.785 274.128H295.569C296.663 274.128 297.557 274.956 297.557 275.99C297.557 277.015 296.663 277.852 295.569 277.852Z" fill="#66D6A0"/>
<path id="Vector_5" d="M295.569 287.145H267.785C266.691 287.145 265.797 286.316 265.797 285.283C265.797 284.258 266.681 283.421 267.785 283.421H295.569C296.663 283.421 297.557 284.249 297.557 285.283C297.557 286.308 296.663 287.145 295.569 287.145Z" fill="#66D6A0"/>
<path id="gear1" class="gear1" opacity="0.2" d="M156.402 132.171L168.775 129.991V119.6L156.402 117.602C155.452 113.332 153.648 109.336 151.166 105.794L158.264 96.0389L150.41 88.6819L140.151 95.4759C136.369 93.1505 132.122 91.4794 127.545 90.5892L125.218 78.9996H114.125L111.992 90.5892C107.435 91.4794 103.168 93.1687 99.3867 95.4937L88.992 88.8453L81.1379 96.2028L88.3908 105.812C85.9085 109.354 84.1244 113.351 83.1741 117.62L70.8014 119.799V130.19L83.1741 132.188C84.1244 136.476 85.9279 140.454 88.4102 143.996L81.3124 153.733L89.1665 161.09L99.4448 154.296C103.226 156.621 107.493 158.31 112.05 159.182L114.377 170.772H125.47L127.603 159.182C132.18 158.293 136.427 156.603 140.209 154.278L150.604 160.927L158.458 153.57L151.205 143.96C153.668 140.435 155.452 136.457 156.402 132.171ZM119.788 146.412C107.105 146.412 96.8268 136.766 96.8268 124.904C96.8268 113.042 107.105 103.396 119.788 103.396C132.471 103.396 142.749 113.023 142.749 124.904C142.749 136.785 132.471 146.412 119.788 146.412Z" fill="#84B5FF"/>
<path id="Vector_6" d="M89.8254 170.21V302.311C89.8254 308.885 93.0511 312.349 97.0246 312.349H195.819C199.792 312.349 203.018 308.885 203.018 302.311V170.21C203.018 163.636 199.792 160.172 195.819 160.172H97.0168C93.0433 160.185 89.8254 163.636 89.8254 170.21ZM195.92 308.112H146.422H96.9233C95.4508 308.112 94.2587 306.139 94.2587 303.703V168.817C94.2587 166.381 95.4508 164.408 96.9233 164.408H195.92C197.393 164.408 198.585 166.381 198.585 168.817V303.703C198.585 306.139 197.393 308.112 195.92 308.112Z" fill="#66D6A0"/>
<path id="Vector_7" d="M316.382 129.163V247.656C316.382 250.704 313.747 253.171 310.494 253.171H117.591C114.338 253.171 111.703 250.704 111.703 247.656V129.163C111.703 122.133 117.791 116.422 125.305 116.422H302.78C310.294 116.422 316.382 122.133 316.382 129.163Z" fill="white" stroke="#84B5FF" stroke-miterlimit="10"/>
<path id="Vector_8" d="M316.382 129.163V129.697H111.703V129.163C111.703 122.133 117.791 116.422 125.305 116.422H302.78C310.294 116.422 316.382 122.133 316.382 129.163Z" fill="#84B5FF"/>
<path id="Vector_9" d="M316.382 227.645V247.656C316.382 250.704 313.747 253.171 310.494 253.171H117.591C114.338 253.171 111.703 250.704 111.703 247.656V227.645H316.382Z" fill="#EDF1FF"/>
<path id="Vector_10" d="M285.297 123.675C285.297 124.592 284.507 125.332 283.527 125.332C282.548 125.332 281.758 124.592 281.758 123.675C281.758 122.757 282.548 122.017 283.527 122.017C284.498 122.017 285.297 122.757 285.297 123.675Z" fill="#84B5FF"/>
<path id="Vector_11" d="M294.98 123.675C294.98 124.592 294.19 125.332 293.211 125.332C292.231 125.332 291.441 124.592 291.441 123.675C291.441 122.757 292.231 122.017 293.211 122.017C294.181 122.017 294.98 122.757 294.98 123.675Z" fill="#84B5FF"/>
<path id="Vector_12" d="M304.235 123.675C304.235 124.592 303.446 125.332 302.466 125.332C301.486 125.332 300.697 124.592 300.697 123.675C300.697 122.757 301.486 122.017 302.466 122.017C303.446 122.017 304.235 122.757 304.235 123.675Z" fill="#84B5FF"/>
<path id="Vector_13" d="M316.382 129.163V247.656C316.382 250.704 313.747 253.171 310.494 253.171H117.591C114.338 253.171 111.703 250.704 111.703 247.656V129.163C111.703 122.133 117.791 116.422 125.305 116.422H302.78C310.294 116.422 316.382 122.133 316.382 129.163Z" stroke="#84B5FF" stroke-miterlimit="10"/>
<g id="glasses" class="glasses" filter="url(#filter0_d_1_2)">
<path id="Vector_14" d="M472.409 61.8637C453.366 54.1329 434.698 53.3243 424.776 58.8496C424.927 58.1621 425.135 57.4817 425.406 56.827C430.428 44.696 454.609 43.0229 479.409 53.0911C504.21 63.1592 520.247 81.1595 515.225 93.2903C514.058 96.1099 511.856 98.3618 508.851 100.034C511.483 88.001 495.867 71.3869 472.409 61.8637Z" fill="#043072"/>
<path id="Vector_15" d="M423.381 59.6562C420.761 71.6915 436.369 88.3007 459.821 97.8215C468.92 101.515 478.709 104.014 488.43 104.363C492.403 104.507 496.389 104.281 500.191 103.454C501.867 103.088 503.522 102.599 505.099 102.002C506.567 101.447 509.52 99.9131 509.895 98.2861C509.081 101.829 506.409 104.953 503.643 107.318C491.051 118.077 467.694 112.63 452.823 106.594C428.023 96.525 411.994 78.5305 417.015 66.4009C418.181 63.5821 420.383 61.3297 423.381 59.6562Z" fill="#84B5FF"/>
<path id="Vector_16" d="M425.499 56.9443C430.662 44.7486 454.88 42.9872 479.584 53.0112C504.288 63.0352 520.132 81.0521 514.969 93.2478C513.769 96.082 511.54 98.3507 508.514 100.04" stroke="#84B5FF" stroke-width="2" stroke-miterlimit="10"/>
<path id="Vector_17" d="M424.108 59.6236C421.368 71.6806 436.739 88.2397 460.002 97.6716C478.887 105.327 497.473 106.058 507.414 100.487" stroke="#84B5FF" stroke-width="2" stroke-miterlimit="10"/>
<path id="Vector_18" d="M416.768 78.2511C433.418 96.3012 456.71 110.154 485.096 121.005C486.929 121.704 488.949 120.977 489.641 119.354L500.679 93.3902C501.364 91.7803 500.5 89.8779 498.717 89.1055C474.14 78.4293 452.062 64.8757 432.943 47.9153C431.079 46.2627 428.103 46.7341 427.208 48.8367L416.115 74.8987C415.647 75.9969 415.889 77.2946 416.768 78.2511Z" fill="#276ED8"/>
<path id="Vector_19" d="M410.939 79.746C427.59 97.799 467.333 124.835 467.333 124.835L487.1 121.422C488.282 121.207 488.791 120.027 489.086 118.957L494.885 94.8914C495.573 93.2766 494.696 91.3741 492.907 90.5993C468.483 79.9858 448.621 64.3411 429.605 47.5038C429.36 47.2834 428.999 47.2196 428.704 47.3478C425.712 48.6337 409.824 53.3059 408.889 54.9248L410.289 76.3996C409.816 77.4959 410.058 78.794 410.939 79.746Z" fill="#276ED8"/>
<path id="Vector_20" opacity="0.21" d="M448.404 67.4069C447.026 67.8278 445.572 68.1958 444.093 68.5762C443.801 68.6349 443.508 68.6821 443.213 68.734C447.325 67.3905 451.475 66.1338 455.592 64.8086C455.663 64.8596 455.734 64.9106 455.808 64.9567C453.353 65.821 450.885 66.6416 448.404 67.4069Z" fill="white"/>
<path id="Vector_21" opacity="0.21" d="M426.143 63.9093C434.338 69.2375 442.519 74.5986 450.964 79.5675C456.973 83.1034 463.099 86.0335 469.305 89.1774C471.7 90.3906 475.753 92.3866 477.865 94.9167C473.792 96.0848 469.712 97.2388 465.625 98.3675C464.34 98.7244 465.037 100.604 466.322 100.248C470.54 99.0841 474.74 97.8908 478.944 96.688C479.128 97.1639 479.229 97.6491 479.233 98.1446C474.002 99.7314 468.765 101.316 463.428 102.634C462.127 102.957 462.829 104.838 464.125 104.514C466.26 103.987 468.369 103.405 470.477 102.811C470.135 103.112 469.793 103.412 469.465 103.724C466.838 106.202 464.591 109.043 462.672 112.062C462.55 111.991 462.432 111.921 462.31 111.85C460.738 110.833 459.072 109.938 457.492 109.098C452.973 106.7 448.444 104.626 444.21 101.8C443.524 101.324 442.843 100.85 442.16 100.381C434.381 94.9523 426.961 89.0988 419.521 83.2759C417.24 81.2033 415.009 79.0853 412.807 76.9408C412.661 75.0763 412.503 73.2122 412.33 71.3533C412.25 68.6266 412.105 65.8952 411.928 63.1673C412.221 60.7017 412.579 58.2408 412.943 55.7819C413.405 55.618 413.866 55.4541 414.321 55.2928C417.92 58.5313 422.111 61.2855 426.143 63.9093Z" fill="white"/>
<path id="Vector_22" d="M476.884 122.214L487.717 97.6791C488.74 95.3635 487.772 92.604 485.414 91.1137L422.532 51.3538C421.663 50.8035 420.716 50.4967 419.774 50.3954C421.585 49.4397 423.988 49.4669 425.974 50.7181L488.856 90.4781C491.214 91.9683 492.182 94.7275 491.159 97.044L480.326 121.579C479.593 123.242 477.645 123.999 475.816 123.537C476.271 123.204 476.645 122.761 476.884 122.214Z" fill="#06B25F"/>
<path id="Vector_23" d="M401.09 84.6025L463.417 124.024C466.654 126.074 470.943 125.003 472.303 121.807L481.449 100.312C482.553 97.7175 481.284 94.6563 478.507 93.216C456.839 81.9802 436.388 69.0425 417.038 54.571C413.808 52.1554 409.149 53.0993 407.71 56.4823L398.643 77.7892C397.622 80.2031 398.642 83.0541 401.09 84.6025Z" fill="#84B5FF"/>
<path id="Vector_24" d="M432.313 72.7411L456.262 87.9191C457.336 88.6003 458.756 88.2157 459.164 87.1363L459.258 86.8851C459.555 86.0941 459.195 85.1781 458.394 84.7003C449.797 79.554 441.775 74.7171 434.452 69.8363C433.398 69.136 431.975 69.4703 431.528 70.5283C431.19 71.3138 431.522 72.24 432.313 72.7411Z" fill="#06B25F"/>
<path id="Vector_25" d="M401.565 84.6574L463.132 123.595C466.331 125.619 470.566 124.558 471.908 121.405L480.942 100.173C482.033 97.6107 480.778 94.5879 478.038 93.1629C456.636 82.068 436.439 69.2831 417.327 54.9904C414.133 52.606 409.535 53.5362 408.114 56.877L399.159 77.9212C398.141 80.3142 399.152 83.1285 401.565 84.6574Z" stroke="#1351AC" stroke-width="3" stroke-miterlimit="10"/>
<path id="Vector_26" d="M477.84 118.102C478.209 118.523 478.808 118.718 479.357 118.591L491.958 115.742L499.616 102.099C499.92 101.559 499.741 100.874 499.193 100.472C498.82 100.195 498.343 100.066 497.883 100.105L485.103 101.291C484.503 101.346 484.001 101.686 483.783 102.189L477.56 116.554C477.335 117.06 477.439 117.653 477.84 118.102Z" fill="#194484"/>
<path id="Vector_27" d="M479.533 118.663L492.072 117.28C492.752 117.205 493.314 116.816 493.559 116.251L499.67 102.167C499.864 101.72 499.429 101.229 498.897 101.284L486.344 102.674C485.71 102.745 485.177 103.111 484.948 103.638L478.796 117.818C478.605 118.244 479.022 118.716 479.533 118.663Z" fill="#194484"/>
<path id="Vector_28" d="M486.895 114.193L491.538 113.701C491.979 113.657 492.35 113.4 492.506 113.035L494.933 107.341C495.268 106.555 494.485 105.679 493.534 105.782L488.858 106.276C488.435 106.324 488.085 106.56 487.935 106.91L485.496 112.634C485.161 113.42 485.946 114.292 486.895 114.193Z" fill="#276ED8"/>
<path id="Vector_29" d="M487.364 114.718L492.007 114.226C492.448 114.181 492.819 113.924 492.975 113.56L495.402 107.866C495.737 107.08 494.954 106.203 494.003 106.305L489.326 106.801C488.904 106.848 488.554 107.085 488.404 107.435L485.965 113.158C485.638 113.941 486.42 114.818 487.364 114.718Z" fill="#06B25F"/>
</g>
<g id="hand" class="hand" filter="url(#filter1_d_1_2)">
<path id="Vector_30" d="M172.57 280.797C172.18 281.24 171.789 281.679 171.398 282.116C167.356 286.625 161.006 288.929 155.31 286.683C147.094 283.442 138.633 279.269 130.957 274.993C124.577 271.438 118.912 266.468 111.949 264.059C103.818 261.246 96.217 257.354 89.1682 252.794C86.1928 250.87 83.0659 248.877 80.2702 246.753C78.8663 245.684 77.3768 244.694 76.0156 243.585C75.2098 242.931 73.5541 241.643 74.0823 240.43C74.1218 240.339 74.1722 240.242 74.1495 240.152C74.133 240.072 74.0672 240.016 74.0014 239.96C72.6899 238.832 71.3052 237.71 70.2303 236.387C69.3333 235.28 70.3688 234.034 71.1735 233.074C71.631 232.528 73.6981 229.974 75.6696 230.094C73.0363 227.587 70.0902 225.323 67.5086 222.739C67.5026 222.734 67.4966 222.731 67.4963 222.725C69.0275 219.757 71.5064 217.183 74.6958 215.544C79.302 219.343 83.9085 223.147 88.5091 226.947C90.9529 228.967 93.5712 231.06 96.856 231.626C92.4474 228.794 88.6684 225.186 85.7721 221.042C83.3366 217.555 81.4634 213.657 78.4771 210.585C78.5591 210.45 78.6526 210.319 78.7401 210.184C78.9092 209.995 79.0843 209.812 79.2656 209.637C80.2785 208.659 81.3933 207.858 82.6279 207.072C83.3837 206.586 84.1643 206.136 84.9637 205.714C86.051 205.458 87.2081 205.318 88.3925 205.254C92.4335 210.484 96.5779 215.649 101.461 220.234C107.584 225.984 114.951 230.829 123.555 232.981C125.298 233.417 127.159 233.489 128.944 233.076C138.549 230.87 131.562 216.237 129.471 210.964C129.655 210.82 129.85 210.686 130.063 210.56C132.402 209.173 135.655 209.065 138.372 209.151C139.761 209.197 141.145 209.325 142.519 209.48C142.564 209.655 142.609 209.836 142.661 210.026C143.589 213.205 145.657 219.152 146.939 222.215C149.417 228.136 153.968 233.021 155.278 239.442C157.073 248.245 156.34 255.465 165.624 260.459C166.808 261.096 167.986 261.729 169.17 262.366C176.203 266.142 177.842 274.805 172.57 280.797Z" fill="#84B5FF"/>
<path id="Vector_31" d="M119.129 233.763C107.928 231.189 97.005 223.703 90.9498 215.255C89.349 213.019 87.8681 210.711 86.1366 208.558C84.5466 206.582 86.1731 205.769 85.9759 206.017C87.4247 203.781 92.8142 206.995 95.3605 210.042C99.0164 214.418 101.026 217.244 104.744 221.01C107.343 223.642 112.339 226.66 115.474 228.815C118.597 230.968 119.577 230.738 123.428 231.771C130.305 233.618 128.557 231.944 132.741 230.803C132.741 230.803 132.968 223.619 132.996 222.811C133.089 219.711 127.471 214.24 129.658 211.689C129.911 211.396 130.197 211.179 130.549 210.925C132.754 210.992 132.162 210.747 132.765 211.168C133.369 211.591 132.427 210.551 132.765 211.168C134.197 213.778 135.038 216.519 135.777 219.359C136.936 223.821 136.73 231.706 131.381 234.728C127.442 236.956 123.366 234.736 119.129 233.763Z" fill="#06B25F"/>
<path id="Vector_32" d="M75.2205 216.3C75.3538 216.42 75.4814 216.544 75.6146 216.664C79.4442 220.119 82.6611 221.396 87.2329 224.391C89.5015 225.877 91.8554 227.329 94.3839 228.606C95.8757 229.36 97.4013 230.075 99.0449 230.651C99.673 230.991 100.295 231.327 100.923 231.663C101.634 232.977 100.05 233.72 98.2515 233.892C97.5036 233.963 96.7256 233.937 96.0549 233.816C94.4439 233.515 93.1241 232.793 91.8673 232.078C85.5658 228.489 78.2428 224.634 73.7429 219.901C72.4946 218.589 71.388 217.746 74.4971 216.482C74.7301 216.384 74.9694 216.333 75.2205 216.3Z" fill="#276ED8"/>
<path id="Vector_33" d="M92.2185 241.91C92.1458 242.21 91.8617 242.505 91.2605 242.787C90.6457 243.069 89.9303 243.066 89.2848 242.934C87.5662 242.58 86.2289 241.437 84.9766 240.334C82.2632 237.943 79.1616 235.939 76.5366 233.567C75.8073 232.908 73.5866 230.871 76.448 230.591C77.856 230.455 79.5937 231.81 80.4865 232.519C82.494 234.112 84.536 235.67 86.6121 237.187C87.6645 237.955 88.7058 238.765 89.7877 239.492C90.5345 239.995 92.4432 240.965 92.2185 241.91Z" fill="#276ED8"/>
<path id="Vector_34" d="M134.523 278.306C131.392 276.545 128.449 274.808 125.111 272.544C125.211 272.525 125.577 272.423 125.683 272.404C139.123 270.551 151.494 262.98 157.924 251.888C157.96 251.825 158.001 251.77 158.037 251.711C160.115 254.295 161.457 257.205 164.01 259.194C157.189 268.577 146.196 274.841 134.523 278.306Z" fill="#276ED8"/>
<path id="Vector_35" d="M158.676 291.068C154.753 289.035 152.279 287.654 148.412 285.538C148.608 285.501 148.809 285.469 149.017 285.451C160.924 284.378 170.042 276.378 171.292 265.496C171.333 265.161 171.403 264.848 171.504 264.558C174.625 265.633 177.623 267.592 180.566 268.979C178.541 279.506 172.436 287.844 158.676 291.068Z" fill="#276ED8"/>
<path id="Vector_36" opacity="0.33" d="M134.679 278.332C133.786 277.83 132.903 277.328 132.026 276.819C130.061 275.406 128.148 273.932 126.305 272.397C133.239 271.382 139.869 268.861 145.527 265.12C147.186 266.509 148.947 267.803 150.728 269.075C151.213 269.526 151.709 269.974 152.204 270.414C146.907 273.87 140.892 276.502 134.679 278.332Z" fill="white"/>
<path id="Vector_37" opacity="0.33" d="M156.707 267.022C156.32 267.348 155.932 267.669 155.532 267.986C153.574 265.937 151.625 263.841 149.479 261.957C149.7 261.769 149.914 261.57 150.129 261.377C152.304 263.274 154.495 265.154 156.707 267.022Z" fill="white"/>
<path id="Vector_38" opacity="0.33" d="M170.238 278.515C171.744 279.665 173.295 280.799 174.955 281.786C174.603 282.221 174.245 282.646 173.858 283.064C171.34 281.058 168.743 279.135 166.161 277.197C166.477 276.83 166.776 276.457 167.063 276.068C168.123 276.886 169.178 277.703 170.238 278.515Z" fill="white"/>
<path id="Vector_39" opacity="0.33" d="M163.4 280.062C165.93 281.944 168.476 283.81 170.975 285.725C167.831 288.092 163.849 289.928 158.854 291.084C154.947 289.069 152.484 287.702 148.634 285.606C148.828 285.57 149.029 285.538 149.236 285.52C154.718 285.032 159.6 283.081 163.4 280.062Z" fill="white"/>
<path id="Vector_40" d="M155.554 293.071C152.436 292.544 148.955 291.54 145.432 290.056C137.853 286.861 130.646 283.922 129.364 280.411C128.976 279.348 130.652 276.874 131.108 276.042C133.071 272.461 142.667 272.934 152.538 277.093C158.591 279.646 163.177 282.766 165.801 285.695C166.22 286.162 166.777 287.119 166.545 287.756C166.41 288.129 165.151 290.574 164.331 290.836C161.622 291.695 158.28 292.29 155.554 293.071Z" fill="#194484"/>
<path id="Vector_41" d="M152.948 293.763C150.785 294.279 148.516 294.197 146.495 293.478C145.704 293.194 144.9 292.889 144.095 292.56C134.189 288.516 127.602 282.661 129.39 279.484C131.179 276.307 140.662 277.011 150.569 281.061C157.196 283.767 162.327 287.28 164.467 290.265C164.665 290.546 164.497 290.931 164.125 291.031C160.427 292.024 156.687 292.876 152.948 293.763Z" fill="#06B25F"/>
<path id="Vector_42" opacity="0.33" d="M119.209 243.896C126.257 246.493 130.285 252.457 128.206 257.217C126.127 261.979 118.728 263.732 111.68 261.135C104.632 258.537 100.605 252.572 102.684 247.812C104.763 243.052 112.161 241.298 119.209 243.896Z" fill="white"/>
<path id="Vector_43" d="M123.672 255.433C125.023 252.524 122.439 248.866 117.9 247.258C113.361 245.651 108.585 246.705 107.24 249.614C105.888 252.524 108.472 256.181 113.011 257.789C117.544 259.392 122.32 258.338 123.672 255.433Z" fill="#276ED8"/>
<path id="Vector_44" opacity="0.33" d="M119.89 254.094C120.621 252.525 119.223 250.543 116.772 249.679C114.32 248.809 111.74 249.38 111.01 250.949C110.279 252.518 111.677 254.499 114.128 255.365C116.585 256.234 119.16 255.662 119.89 254.094Z" fill="white"/>
<path id="Vector_45" opacity="0.33" d="M93.5904 222.642C94.1271 221.488 93.1014 220.026 91.2918 219.388C89.4878 218.75 87.5873 219.166 87.0509 220.325C86.5142 221.48 87.5399 222.94 89.3495 223.579C91.1535 224.218 93.054 223.801 93.5904 222.642Z" fill="white"/>
<path id="Vector_46" opacity="0.33" d="M142.736 224.815C144.442 224.274 145.361 222.507 144.791 220.866C144.222 219.225 142.373 218.329 140.667 218.87C138.961 219.411 138.042 221.178 138.612 222.82C139.181 224.461 141.03 225.356 142.736 224.815Z" fill="white"/>
<path id="Vector_47" opacity="0.33" d="M80.9089 226.446C82.6815 227.098 83.7663 228.431 83.3317 229.424C82.8971 230.417 81.1077 230.694 79.3351 230.042C77.5624 229.39 76.4777 228.057 76.9123 227.064C77.3469 226.071 79.1362 225.794 80.9089 226.446Z" fill="white"/>
<path id="Vector_48" opacity="0.33" d="M82.3736 240.549C82.9121 239.499 81.9006 238.186 80.1052 237.622C78.3097 237.059 76.4168 237.453 75.8782 238.503C75.3397 239.553 76.3512 240.865 78.1466 241.429C79.9424 241.997 81.8294 241.599 82.3736 240.549Z" fill="white"/>
<path id="Vector_49" d="M153.423 294.043C152.888 293.861 152.339 293.653 151.789 293.415C147.636 291.644 144.877 289.118 145.619 287.773C146.367 286.427 150.334 286.773 154.487 288.544C157.21 289.704 159.316 291.191 160.248 292.456C157.978 293.002 155.701 293.522 153.423 294.043Z" fill="#194484"/>
<path id="Vector_50" d="M137.961 284.735L135.959 283.342L132.495 284.281L132.242 284.84L137.709 285.294L137.961 284.735Z" fill="#194484"/>
<path id="Vector_51" d="M137.723 285.354L135.718 283.925L132.254 284.86L134.259 286.288L137.723 285.354Z" fill="#194484"/>
<path id="Vector_52" d="M142.796 283.456L140.794 282.062L137.33 283.001L137.077 283.561L142.538 284.015L142.796 283.456Z" fill="#194484"/>
<path id="Vector_53" d="M142.552 284.076L140.553 282.646L137.089 283.58L139.094 285.01L142.552 284.076Z" fill="#194484"/>
<path id="Vector_54" d="M147.692 282.162L145.689 280.768L142.226 281.708L141.973 282.267L147.44 282.721L147.692 282.162Z" fill="#194484"/>
<path id="Vector_55" d="M147.454 282.781L145.449 281.352L141.986 282.287L143.99 283.715L147.454 282.781Z" fill="#194484"/>
<path id="Vector_56" d="M74.4888 238.846C74.4716 238.837 74.4548 238.833 74.443 238.824C74.3746 238.793 74.5514 238.872 74.4888 238.846Z" fill="#194484"/>
<path id="Vector_57" opacity="0.43" d="M86.5264 248.096C82.813 246.505 77.0177 243.408 73.4655 241.358C73.4877 241.072 73.5099 240.787 73.543 240.499C77.3282 242.64 84.3259 246.393 87.9485 248.322C87.7411 248.292 86.7671 248.197 86.5264 248.096Z" fill="#276ED8"/>
</g>
<g id="sqr_green" class="sqr_green">
<g id="Group_3" filter="url(#filter2_d_1_2)">
<path id="Vector_58" d="M344.453 154.734H301.284C297.97 154.734 295.284 157.25 295.284 160.354V199.901C295.284 203.005 297.97 205.521 301.284 205.521H344.453C347.767 205.521 350.453 203.005 350.453 199.901V160.354C350.453 157.25 347.767 154.734 344.453 154.734Z" fill="#06B25F"/>
</g>
<path id="Vector_59" d="M322.869 168.99C315.086 168.99 308.44 173.423 305.747 179.682C308.44 185.94 315.086 190.374 322.869 190.374C330.651 190.374 337.297 185.94 339.99 179.682C337.297 173.423 330.651 168.99 322.869 168.99ZM322.869 186.81C318.573 186.81 315.086 183.616 315.086 179.682C315.086 175.747 318.573 172.554 322.869 172.554C327.165 172.554 330.651 175.747 330.651 179.682C330.651 183.616 327.165 186.81 322.869 186.81ZM322.869 175.405C320.285 175.405 318.199 177.315 318.199 179.682C318.199 182.048 320.285 183.958 322.869 183.958C325.452 183.958 327.538 182.048 327.538 179.682C327.538 177.315 325.452 175.405 322.869 175.405Z" fill="white"/>
<path id="Vector_60" fill-rule="evenodd" clip-rule="evenodd" d="M310.503 162.753V160.08H302.991C302.988 160.08 302.984 160.08 302.981 160.08H300.991V161.953V162.753V168.99H303.845V162.753H310.503Z" fill="white"/>
<path id="Vector_61" fill-rule="evenodd" clip-rule="evenodd" d="M335.234 197.502V200.175H344.746V197.502V191.265H341.893V197.502H335.234Z" fill="white"/>
<path id="Vector_62" fill-rule="evenodd" clip-rule="evenodd" d="M341.893 168.99H344.746V160.08H341.893H335.234V162.753H341.893V168.99Z" fill="white"/>
<path id="Vector_63" fill-rule="evenodd" clip-rule="evenodd" d="M303.845 191.265H300.991V197.502V200.175H303.845H310.503V197.502H303.845V191.265Z" fill="white"/>
</g>
<g id="Clip path group">
<mask id="mask1_1_2" style="mask-type:luminance" maskUnits="userSpaceOnUse" x="174" y="141" width="80" height="75">
<g id="clip0_46_3219">
<path id="Vector_64" d="M253.431 141.369H174.482V215.322H253.431V141.369Z" fill="white"/>
</g>
</mask>
<g mask="url(#mask1_1_2)">
<g id="Group_4">
<path id="Vector_65" d="M249.833 198.505V193.463C249.833 192.534 249.03 191.783 248.039 191.783C247.047 191.783 246.245 192.535 246.245 193.463V193.514C243.011 188.818 239.494 184.612 237.567 182.4C236.941 181.678 235.811 181.567 235.044 182.16C234.275 182.745 234.161 183.805 234.789 184.523C238.289 188.543 241.055 192.109 243.214 195.23C242.266 194.945 241.267 195.416 240.957 196.293C240.643 197.174 241.151 198.126 242.09 198.418L246.055 199.657C250.006 206.39 250.439 210.284 249.246 211.401C247.974 212.591 243.304 212.178 234.337 207.112C228.902 204.041 222.851 199.803 216.665 194.782C219.205 192.63 221.751 190.365 224.273 188.003C233.266 179.577 240.958 170.868 246.245 163.192V163.211C246.245 164.14 247.047 164.892 248.039 164.892C249.03 164.892 249.833 164.14 249.833 163.211V158.169C249.833 158.011 249.763 157.87 249.718 157.722C253.839 150.454 254.535 145.475 251.783 142.897C246.447 137.899 232.338 146.312 224.403 151.773C223.604 152.321 223.432 153.373 224.019 154.121C224.602 154.867 225.725 155.028 226.526 154.481C239.417 145.613 247.345 143.49 249.246 145.273C250.399 146.354 250.106 150.085 246.014 157.031L242.09 158.256C241.151 158.548 240.643 159.5 240.957 160.381C241.263 161.246 242.241 161.714 243.177 161.449C238.032 168.906 230.526 177.389 221.737 185.626C219.155 188.044 216.551 190.35 213.957 192.539C211.363 190.35 208.759 188.044 206.178 185.626C197.388 177.389 189.882 168.906 184.736 161.449C185.673 161.714 186.65 161.247 186.957 160.381C187.271 159.5 186.763 158.548 185.824 158.256L181.9 157.031C177.808 150.085 177.515 146.354 178.668 145.273C180.574 143.488 188.504 145.615 201.405 154.494C202.201 155.042 203.327 154.881 203.912 154.134C204.499 153.388 204.327 152.336 203.528 151.786C195.59 146.318 181.464 137.895 176.131 142.897C173.379 145.475 174.075 150.455 178.196 157.722C178.151 157.87 178.081 158.011 178.081 158.169V163.211C178.081 164.14 178.883 164.892 179.875 164.892C180.866 164.892 181.669 164.14 181.669 163.211V163.192C186.955 170.868 194.648 179.577 203.641 188.003C206.163 190.365 208.709 192.63 211.249 194.782C205.063 199.803 199.012 204.041 193.577 207.112C184.601 212.182 179.933 212.584 178.668 211.401C177.476 210.284 177.909 206.389 181.86 199.656L185.824 198.418C186.763 198.126 187.271 197.174 186.957 196.293C186.647 195.417 185.649 194.946 184.702 195.23C186.85 192.122 189.601 188.575 193.08 184.577C193.705 183.858 193.589 182.8 192.822 182.212C192.057 181.628 190.927 181.739 190.298 182.453C188.381 184.656 184.886 188.839 181.669 193.511V193.463C181.669 192.534 180.867 191.783 179.875 191.783C178.883 191.783 178.081 192.534 178.081 193.463V198.505C178.081 198.686 178.154 198.85 178.213 199.017C174.849 204.976 172.978 210.824 176.131 213.777C177.231 214.808 178.74 215.322 180.651 215.322C184.203 215.322 189.147 213.541 195.43 209.991C201.136 206.766 207.489 202.299 213.957 197.023C220.425 202.299 226.777 206.766 232.483 209.991C238.767 213.543 243.71 215.324 247.264 215.322C249.174 215.322 250.682 214.808 251.782 213.777C254.935 210.825 253.066 204.979 249.701 199.018C249.76 198.85 249.833 198.686 249.833 198.505Z" fill="#84B5FF"/>
<path id="Vector_66" d="M196.014 163.219C196.014 164.148 196.816 164.9 197.808 164.9C198.8 164.9 199.602 164.148 199.602 163.219C199.602 162.291 200.407 161.538 201.397 161.538C202.387 161.538 203.191 162.291 203.191 163.219C203.191 164.146 202.387 164.9 201.397 164.9C200.405 164.9 199.602 165.651 199.602 166.581C199.602 167.51 200.405 168.261 201.397 168.261C202.387 168.261 203.191 169.015 203.191 169.942C203.191 170.87 202.387 171.623 201.397 171.623C200.407 171.623 199.602 170.87 199.602 169.942C199.602 169.013 198.8 168.261 197.808 168.261C196.816 168.261 196.014 169.013 196.014 169.941C196.014 172.723 198.428 174.984 201.397 174.984C204.365 174.984 206.779 172.723 206.779 169.941C206.779 168.652 206.259 167.473 205.406 166.581C206.259 165.688 206.779 164.509 206.779 163.219C206.779 160.439 204.365 158.176 201.397 158.176C198.428 158.176 196.014 160.439 196.014 163.219Z" fill="#84B5FF"/>
<path id="Vector_67" d="M226.517 174.984C229.485 174.984 231.9 172.723 231.9 169.941V163.219C231.9 160.439 229.485 158.176 226.517 158.176C223.548 158.176 221.134 160.439 221.134 163.219V169.941C221.134 172.723 223.548 174.984 226.517 174.984ZM224.723 163.219C224.723 162.291 225.527 161.538 226.517 161.538C227.507 161.538 228.311 162.291 228.311 163.219V169.942C228.311 170.87 227.507 171.623 226.517 171.623C225.527 171.623 224.723 170.87 224.723 169.942V163.219Z" fill="#84B5FF"/>
<path id="Vector_68" d="M213.957 174.984C216.925 174.984 219.34 172.723 219.34 169.941C219.34 167.161 216.925 164.9 213.957 164.9C213.405 164.9 212.884 165 212.383 165.146C212.788 163.616 213.976 161.538 217.545 161.538C218.537 161.538 219.34 160.786 219.34 159.858C219.34 158.929 218.537 158.176 217.545 158.176C210.449 158.176 208.574 163.673 208.574 166.581V169.941C208.574 172.723 210.988 174.984 213.957 174.984ZM213.957 168.261C214.947 168.261 215.751 169.015 215.751 169.942C215.751 170.87 214.947 171.623 213.957 171.623C212.967 171.623 212.162 170.87 212.162 169.941C212.162 169.015 212.967 168.261 213.957 168.261Z" fill="#84B5FF"/>
<path id="Vector_69" d="M239.077 158.176C239.077 156.324 237.467 154.815 235.488 154.815C233.51 154.815 231.9 156.324 231.9 158.176C231.9 160.03 233.51 161.538 235.488 161.538C237.467 161.538 239.077 160.03 239.077 158.176Z" fill="#84B5FF"/>
</g>
</g>
</g>
</g>
<defs>
<filter id="filter0_d_1_2" x="389.262" y="41.5089" width="135.685" height="96.6138" filterUnits="userSpaceOnUse" color-interpolation-filters="sRGB">
<feFlood flood-opacity="0" result="BackgroundImageFix"/>
<feColorMatrix in="SourceAlpha" type="matrix" values="0 0 0 0 0 0 0 0 0 0 0 0 0 0 0 0 0 0 127 0" result="hardAlpha"/>
<feOffset dy="4"/>
<feGaussianBlur stdDeviation="4"/>
<feColorMatrix type="matrix" values="0 0 0 0 0.0223125 0 0 0 0 0.00468749 0 0 0 0 0.225 0 0 0 0.25 0"/>
<feBlend mode="normal" in2="BackgroundImageFix" result="effect1_dropShadow_1_2"/>
<feBlend mode="normal" in="SourceGraphic" in2="effect1_dropShadow_1_2" result="shape"/>
</filter>
<filter id="filter1_d_1_2" x="59.4963" y="201.254" width="129.07" height="104.84" filterUnits="userSpaceOnUse" color-interpolation-filters="sRGB">
<feFlood flood-opacity="0" result="BackgroundImageFix"/>
<feColorMatrix in="SourceAlpha" type="matrix" values="0 0 0 0 0 0 0 0 0 0 0 0 0 0 0 0 0 0 127 0" result="hardAlpha"/>
<feOffset dy="4"/>
<feGaussianBlur stdDeviation="4"/>
<feColorMatrix type="matrix" values="0 0 0 0 0.0771528 0 0 0 0 0.152763 0 0 0 0 0.420833 0 0 0 0.25 0"/>
<feBlend mode="normal" in2="BackgroundImageFix" result="effect1_dropShadow_1_2"/>
<feBlend mode="normal" in="SourceGraphic" in2="effect1_dropShadow_1_2" result="shape"/>
</filter>
<filter id="filter2_d_1_2" x="292.284" y="151.734" width="71.1695" height="66.7868" filterUnits="userSpaceOnUse" color-interpolation-filters="sRGB">
<feFlood flood-opacity="0" result="BackgroundImageFix"/>
<feColorMatrix in="SourceAlpha" type="matrix" values="0 0 0 0 0 0 0 0 0 0 0 0 0 0 0 0 0 0 127 0" result="hardAlpha"/>
<feOffset dx="5" dy="5"/>
<feGaussianBlur stdDeviation="4"/>
<feColorMatrix type="matrix" values="0 0 0 0 0 0 0 0 0 0 0 0 0 0 0 0 0 0 0.2 0"/>
<feBlend mode="normal" in2="BackgroundImageFix" result="effect1_dropShadow_1_2"/>
<feBlend mode="normal" in="SourceGraphic" in2="effect1_dropShadow_1_2" result="shape"/>
</filter>
<clipPath id="clip0_1_2">
<rect width="550" height="370" fill="white"/>
</clipPath>
</defs>
</svg>
