<svg width="550" height="360" viewBox="0 0 550 360" fill="none" xmlns="http://www.w3.org/2000/svg">
<g id="hexahedron" clip-path="url(#clip0_1_2)">
<rect width="550" height="360" fill="white"/>
<g id="Mask group">
<mask id="mask0_1_2" style="mask-type:alpha" maskUnits="userSpaceOnUse" x="0" y="0" width="550" height="360">
<g id="Group">
<path id="Vector" d="M550 0H0V360H550V0Z" fill="#C4C4C4"/>
</g>
</mask>
<g mask="url(#mask0_1_2)">
<g id="Group_2">
<path id="Vector_2" opacity="0.04" d="M100.563 273.134C159.083 319.299 232.561 326.326 286.328 303.746C340.095 281.165 333.839 248.38 315.032 220.733C309.167 212.16 418.236 191.099 414.778 181.267C407.25 159.752 402.059 155.953 388.833 137.486C377.401 121.501 280.98 108.697 266.031 95.8821C259.484 90.3374 237.383 36.6723 171.71 14.29C115.589 -4.83708 69.1015 31.1629 53.1029 70.5274C37.1043 109.892 20.4286 209.92 100.563 273.134Z" fill="#276ED8"/>
<path id="Vector_3" d="M245.052 162.739V242.27C245.052 246.228 248.584 249.441 252.936 249.441H361.132C365.484 249.441 369.017 246.228 369.017 242.27V162.739C369.017 158.781 365.484 155.567 361.132 155.567H252.928C248.576 155.576 245.052 158.781 245.052 162.739ZM361.243 245.762H307.035H252.825C251.213 245.762 249.907 244.575 249.907 243.108V161.901C249.907 160.434 251.213 159.247 252.825 159.247H361.243C362.856 159.247 364.161 160.434 364.161 161.901V243.108C364.161 244.575 362.856 245.762 361.243 245.762Z" fill="#66D6A0"/>
<path id="Vector_4" d="M358.93 65.3399C347.383 65.3399 338.026 73.8705 338.026 84.3971C338.026 94.9233 347.383 103.454 358.93 103.454C370.476 103.454 379.834 94.9233 379.834 84.3971C379.834 73.8705 370.476 65.3399 358.93 65.3399ZM358.93 98.7056C350.252 98.7056 343.224 92.2985 343.224 84.388C343.224 76.4771 350.252 70.07 358.93 70.07C367.607 70.07 374.635 76.4771 374.635 84.388C374.635 92.2985 367.607 98.7056 358.93 98.7056Z" fill="#66D6A0"/>
<path id="Vector_5" d="M326.699 97.066V218.272C326.699 221.389 323.93 223.914 320.511 223.914H117.769C114.35 223.914 111.58 221.389 111.58 218.272V97.066C111.58 89.8748 117.979 84.0327 125.876 84.0327H312.403C320.301 84.0327 326.699 89.8748 326.699 97.066Z" fill="white" stroke="#84B5FF" stroke-miterlimit="10"/>
<path id="Vector_6" d="M211.203 113.025H187.073V114.874H211.203V113.025Z" fill="#84B5FF"/>
<path id="Vector_7" d="M239.505 113.025H215.375V114.874H239.505V113.025Z" fill="#06B25F"/>
<path id="Vector_8" d="M231.944 123.002H194.528V124.85H231.944V123.002Z" fill="#276ED8"/>
<path id="Vector_9" d="M257.14 123.002H238.126V124.85H257.14V123.002Z" fill="#84B5FF"/>
<path id="Vector_10" d="M223.93 132.965H207.501V134.813H223.93V132.965Z" fill="#06B25F"/>
<path id="Vector_11" d="M287.939 132.965H233.429V134.813H287.939V132.965Z" fill="#06B25F"/>
<path id="Vector_12" d="M282.562 142.936H220.263V144.785H282.562V142.936Z" fill="#276ED8"/>
<path id="Vector_13" d="M223.861 152.9H204.69V154.748H223.861V152.9Z" fill="#84B5FF"/>
<path id="Vector_14" d="M251.238 152.9H232.066V154.748H251.238V152.9Z" fill="#276ED8"/>
<path id="Vector_15" d="M214.956 204.63H187.073V206.479H214.956V204.63Z" fill="#84B5FF"/>
<path id="Vector_16" d="M252.599 204.63H224.716V206.479H252.599V204.63Z" fill="#06B25F"/>
<path id="Vector_17" d="M289.248 204.63H261.365V206.479H289.248V204.63Z" fill="#84B5FF"/>
<path id="Vector_18" d="M249.039 194.651H194.529V196.499H249.039V194.651Z" fill="#276ED8"/>
<path id="Vector_19" d="M312.033 194.651H257.524V196.499H312.033V194.651Z" fill="#84B5FF"/>
<path id="Vector_20" d="M261.593 184.69H207.501V186.538H261.593V184.69Z" fill="#84B5FF"/>
<path id="Vector_21" d="M281.357 184.69H266.306V186.538H281.357V184.69Z" fill="#06B25F"/>
<path id="Vector_22" d="M224.332 174.715H203.974V176.564H224.332V174.715Z" fill="#06B25F"/>
<path id="Vector_23" d="M255.498 174.715H235.139V176.564H255.498V174.715Z" fill="#276ED8"/>
<path id="Vector_24" d="M288.97 174.715H268.612V176.564H288.97V174.715Z" fill="#84B5FF"/>
<path id="Vector_25" d="M256.127 164.755H227.579V166.604H256.127V164.755Z" fill="#06B25F"/>
<path id="Vector_26" d="M216.806 164.755H188.26V166.604H216.806V164.755Z" fill="#276ED8"/>
<path id="Vector_27" d="M180.35 111.257H177.749V113.632H180.35V111.257Z" fill="#84B5FF"/>
<path id="Vector_28" d="M180.35 198.175H177.748V193.346H180.35V198.175ZM180.35 186.095H177.748V181.267H180.35V186.095ZM180.35 174.016H177.748V169.186H180.35V174.016ZM180.35 161.935H177.748V157.107H180.35V161.935ZM180.35 149.856H177.748V145.027H180.35V149.856ZM180.35 137.776H177.748V132.947H180.35V137.776ZM180.35 125.696H177.748V120.867H180.35V125.696Z" fill="#84B5FF"/>
<path id="Vector_29" d="M180.35 205.424H177.749V207.799H180.35V205.424Z" fill="#84B5FF"/>
<path id="Vector_30" opacity="0.7" d="M111.091 99.0611C111.091 96.0416 113.776 93.5927 117.089 93.5927H167.075V223.922H117.089C113.776 223.922 111.091 221.474 111.091 218.453V99.0611Z" fill="#84B5FF"/>
<path id="Vector_31" d="M139.697 114.85H115.568V116.698H139.697V114.85Z" fill="#06B25F"/>
<path id="Vector_32" d="M158.166 126.146H120.75V127.994H158.166V126.146Z" fill="#84B5FF"/>
<path id="Vector_33" d="M158.166 137.443H120.75V139.293H158.166V137.443Z" fill="#84B5FF"/>
<path id="Vector_34" d="M158.166 148.741H120.75V150.59H158.166V148.741Z" fill="#84B5FF"/>
<path id="Vector_35" d="M158.166 160.036H120.75V161.884H158.166V160.036Z" fill="#84B5FF"/>
<path id="Vector_36" d="M160.11 182.628H122.692V184.477H160.11V182.628Z" fill="#84B5FF"/>
<path id="Vector_37" d="M160.11 193.927H122.692V195.776H160.11V193.927Z" fill="#84B5FF"/>
<path id="Vector_38" d="M160.11 205.221H122.692V207.069H160.11V205.221Z" fill="#84B5FF"/>
<path id="Vector_39" d="M139.697 171.332H115.568V173.181H139.697V171.332Z" fill="#06B25F"/>
<path id="Vector_40" d="M326.699 97.066V97.6129H111.58V97.066C111.58 89.8748 117.979 84.0327 125.876 84.0327H312.403C320.301 84.0327 326.699 89.8748 326.699 97.066Z" fill="#84B5FF"/>
<path id="Vector_41" opacity="0.3" d="M294.028 91.4509C294.028 92.3897 293.199 93.1461 292.169 93.1461C291.139 93.1461 290.309 92.3897 290.309 91.4509C290.309 90.5126 291.139 89.7561 292.169 89.7561C293.189 89.7561 294.028 90.5126 294.028 91.4509Z" fill="white"/>
<path id="Vector_42" opacity="0.3" d="M304.205 91.4509C304.205 92.3897 303.376 93.1461 302.346 93.1461C301.316 93.1461 300.486 92.3897 300.486 91.4509C300.486 90.5126 301.316 89.7561 302.346 89.7561C303.366 89.7561 304.205 90.5126 304.205 91.4509Z" fill="white"/>
<path id="Vector_43" opacity="0.3" d="M313.933 91.4509C313.933 92.3897 313.103 93.1461 312.073 93.1461C311.043 93.1461 310.214 92.3897 310.214 91.4509C310.214 90.5126 311.043 89.7561 312.073 89.7561C313.103 89.7561 313.933 90.5126 313.933 91.4509Z" fill="white"/>
<path id="Vector_44" d="M326.699 97.066V218.272C326.699 221.389 323.93 223.914 320.511 223.914H117.769C114.35 223.914 111.58 221.389 111.58 218.272V97.066C111.58 89.8748 117.979 84.0327 125.876 84.0327H312.403C320.301 84.0327 326.699 89.8748 326.699 97.066Z" stroke="#84B5FF" stroke-miterlimit="10"/>
<path id="gear1" opacity="0.2" d="M419.288 150.989L428 149.496V142.376L419.288 141.007C418.62 138.081 417.349 135.343 415.602 132.916L420.599 126.231L415.07 121.19L407.847 125.845C405.184 124.252 402.193 123.106 398.971 122.497L397.333 114.555H389.523L388.02 122.497C384.812 123.106 381.808 124.265 379.146 125.858L371.827 121.302L366.297 126.343L371.403 132.928C369.656 135.355 368.4 138.094 367.73 141.019L359.02 142.513V149.633L367.73 151.002C368.4 153.94 369.67 156.666 371.417 159.094L366.42 165.765L371.95 170.807L379.187 166.151C381.849 167.744 384.853 168.902 388.061 169.5L389.7 177.441H397.51L399.012 169.5C402.234 168.889 405.225 167.732 407.888 166.139L415.206 170.695L420.736 165.653L415.63 159.068C417.363 156.654 418.62 153.928 419.288 150.989ZM393.51 160.749C384.579 160.749 377.343 154.139 377.343 146.011C377.343 137.882 384.579 131.272 393.51 131.272C402.439 131.272 409.676 137.87 409.676 146.011C409.676 154.151 402.439 160.749 393.51 160.749Z" fill="#84B5FF"/>
<g id="unity">
<g id="Group_3" filter="url(#filter0_d_1_2)">
<path id="Vector_45" d="M394.01 143.719H300.037C296.724 143.719 294.038 146.168 294.038 149.188V181.402C294.038 184.422 296.724 186.871 300.037 186.871H394.01C397.322 186.871 400.008 184.422 400.008 181.402V149.188C400.008 146.168 397.322 143.719 394.01 143.719Z" fill="#84B5FF"/>
</g>
<path id="Vector_46" d="M330.434 173.639L325.015 165.283L330.434 156.925L333.046 165.283L330.434 173.639ZM318.374 172.824L311.565 166.633H322.403L327.822 174.989L318.374 172.824ZM318.374 157.716L327.794 155.55L322.375 163.907H311.538L318.374 157.716ZM332.212 151.448L319.902 154.378L318.068 157.257L314.372 157.232L305.341 165.283L314.372 173.333L318.068 173.308L319.902 176.187L332.212 179.142L335.518 168.161L333.657 165.308L335.518 162.455L332.212 151.448ZM360.166 159.576C358.527 159.576 357.415 160.213 356.581 161.385H356.526V159.881H353.636V170.939H356.581V164.671C356.581 163.168 357.61 162.123 359.027 162.123C360.361 162.123 361.361 162.862 361.361 164.162V170.964H364.307V163.728C364.334 161.308 362.668 159.576 360.166 159.576ZM349.163 166.276C349.163 167.754 348.246 168.773 346.745 168.773C345.384 168.773 344.522 168.06 344.522 166.76V159.881H341.577V167.27C341.577 169.69 343.077 171.27 345.773 171.27C347.468 171.27 348.412 170.684 349.219 169.665H349.302V170.964H352.136V159.881H349.191V166.276H349.163ZM365.891 159.881H368.836V170.939H365.891V159.881ZM365.891 156.442H368.836V158.659H365.891V156.442ZM385.536 159.881L383.786 164.875C383.397 165.894 383.091 167.295 383.091 167.295H383.008C383.008 167.295 382.619 165.894 382.23 164.875L380.257 159.881H377.089L380.34 167.754C381.034 169.435 381.257 170.149 381.257 170.76C381.257 171.677 380.73 172.263 379.479 172.263H378.339V174.582H380.23C382.674 174.582 383.536 173.69 384.452 171.244L388.704 159.907H385.536V159.881ZM374.338 167.703V161.843H376.228V159.907H374.338V156.442H371.393V159.881H369.726V161.818H371.393V168.314C371.393 170.404 373.116 170.964 374.671 170.964C375.95 170.964 376.283 170.913 376.283 170.913V168.773H375.533C374.838 168.798 374.338 168.518 374.338 167.703Z" fill="white"/>
</g>
<g id="gear1_2" filter="url(#filter1_d_1_2)">
<path id="Vector_47" d="M199.825 231.728L211.062 229.801V220.617L199.825 218.851C198.962 215.078 197.325 211.545 195.071 208.414L201.516 199.793L194.384 193.29L185.066 199.295C181.632 197.24 177.776 195.763 173.619 194.976L171.505 184.732H161.432L159.495 194.976C155.356 195.763 151.481 197.255 148.047 199.311L138.607 193.435L131.474 199.937L138.061 208.431C135.807 211.562 134.186 215.094 133.323 218.867L122.087 220.794V229.977L133.323 231.743C134.186 235.533 135.825 239.049 138.079 242.18L131.633 250.786L138.766 257.289L148.1 251.284C151.534 253.339 155.409 254.832 159.548 255.603L161.661 265.846H171.734L173.672 255.603C177.829 254.816 181.685 253.322 185.119 251.267L194.56 257.144L201.693 250.641L195.106 242.148C197.342 239.033 198.962 235.517 199.825 231.728ZM166.575 244.315C155.056 244.315 145.722 235.79 145.722 225.305C145.722 214.821 155.056 206.296 166.575 206.296C178.092 206.296 187.427 214.805 187.427 225.305C187.427 235.805 178.092 244.315 166.575 244.315Z" fill="#276ED8"/>
</g>
<g id="gear1_3" filter="url(#filter2_d_1_2)">
<path id="Vector_48" d="M247.739 287.102L253.593 288.972L256.33 284.666L251.572 281.055C252.288 279.068 252.575 276.995 252.448 274.98L258.049 272.529L256.632 267.715L250.475 268.237C249.472 266.425 248.088 264.771 246.386 263.38L248.438 258.043L243.713 255.55L239.751 259.885C237.571 259.233 235.296 258.971 233.085 259.088L230.395 253.998L225.113 255.288L225.686 260.914C223.697 261.828 221.884 263.09 220.356 264.641L214.501 262.771L211.765 267.077L216.521 270.688C215.806 272.689 215.52 274.733 215.647 276.763L210.062 279.214L211.478 284.028L217.651 283.506C218.654 285.319 220.022 286.971 221.74 288.364L219.688 293.7L224.413 296.193L228.375 291.858C230.57 292.51 232.814 292.771 235.041 292.655L237.73 297.745L243.013 296.454L242.44 290.828C244.397 289.929 246.211 288.683 247.739 287.102ZM228.375 284.796C222.966 281.955 221.12 275.647 224.238 270.716C227.356 265.787 234.278 264.105 239.688 266.947C245.097 269.789 246.943 276.096 243.825 281.026C240.706 285.957 233.785 287.638 228.375 284.796Z" fill="#84B5FF"/>
</g>
<g id="sqr_green">
<g id="Group_4" filter="url(#filter3_d_1_2)">
<path id="Vector_49" d="M142.081 68.9855H96.0946C92.7818 68.9855 90.0963 71.4337 90.0963 74.4538V115.466C90.0963 118.487 92.7818 120.935 96.0946 120.935H142.081C145.394 120.935 148.08 118.487 148.08 115.466V74.4538C148.08 71.4337 145.394 68.9855 142.081 68.9855Z" fill="#06B25F"/>
</g>
<path id="Vector_50" d="M109.834 103.551L96.5607 97.0068C95.703 96.5538 95.2741 95.8548 95.2741 94.9079C95.2741 93.9199 95.7256 93.2209 96.6285 92.8089L109.834 86.203V88.6108C109.834 88.7754 109.766 89.0018 109.631 89.2898C109.495 89.5368 109.292 89.722 109.021 89.8455L99.6082 94.5378C99.247 94.7848 99.247 95.0318 99.6082 95.2779L109.834 100.279V103.551Z" fill="white"/>
<path id="Vector_51" d="M121.14 84.2275H123.781L117.212 104.724C117.031 105.259 116.625 105.526 115.993 105.526H114.3L121.14 84.2275Z" fill="white"/>
<path id="Vector_52" d="M128.044 86.203L141.249 92.8089C142.197 93.2619 142.671 93.9609 142.671 94.9079C142.671 95.8548 142.197 96.5338 141.249 96.9448L128.044 103.551V101.144C128.044 101.02 128.089 100.814 128.179 100.526C128.315 100.238 128.518 100.032 128.789 99.9087L138.269 95.2779C138.63 95.0318 138.63 94.7848 138.269 94.5378L128.044 89.475V86.203Z" fill="white"/>
</g>
</g>
</g>
</g>
</g>
<defs>
<filter id="filter0_d_1_2" x="291.038" y="140.719" width="121.97" height="59.1514" filterUnits="userSpaceOnUse" color-interpolation-filters="sRGB">
<feFlood flood-opacity="0" result="BackgroundImageFix"/>
<feColorMatrix in="SourceAlpha" type="matrix" values="0 0 0 0 0 0 0 0 0 0 0 0 0 0 0 0 0 0 127 0" result="hardAlpha"/>
<feOffset dx="5" dy="5"/>
<feGaussianBlur stdDeviation="4"/>
<feColorMatrix type="matrix" values="0 0 0 0 0 0 0 0 0 0 0 0 0 0 0 0 0 0 0.2 0"/>
<feBlend mode="normal" in2="BackgroundImageFix" result="effect1_dropShadow_1_2"/>
<feBlend mode="normal" in="SourceGraphic" in2="effect1_dropShadow_1_2" result="shape"/>
</filter>
<filter id="filter1_d_1_2" x="112.087" y="178.732" width="108.975" height="101.114" filterUnits="userSpaceOnUse" color-interpolation-filters="sRGB">
<feFlood flood-opacity="0" result="BackgroundImageFix"/>
<feColorMatrix in="SourceAlpha" type="matrix" values="0 0 0 0 0 0 0 0 0 0 0 0 0 0 0 0 0 0 127 0" result="hardAlpha"/>
<feOffset dy="4"/>
<feGaussianBlur stdDeviation="5"/>
<feColorMatrix type="matrix" values="0 0 0 0 0.0885677 0 0 0 0 0.0395834 0 0 0 0 0.395833 0 0 0 0.25 0"/>
<feBlend mode="normal" in2="BackgroundImageFix" result="effect1_dropShadow_1_2"/>
<feBlend mode="normal" in="SourceGraphic" in2="effect1_dropShadow_1_2" result="shape"/>
</filter>
<filter id="filter2_d_1_2" x="200.062" y="247.998" width="67.9863" height="63.7468" filterUnits="userSpaceOnUse" color-interpolation-filters="sRGB">
<feFlood flood-opacity="0" result="BackgroundImageFix"/>
<feColorMatrix in="SourceAlpha" type="matrix" values="0 0 0 0 0 0 0 0 0 0 0 0 0 0 0 0 0 0 127 0" result="hardAlpha"/>
<feOffset dy="4"/>
<feGaussianBlur stdDeviation="5"/>
<feColorMatrix type="matrix" values="0 0 0 0 0.0885677 0 0 0 0 0.0395834 0 0 0 0 0.395833 0 0 0 0.25 0"/>
<feBlend mode="normal" in2="BackgroundImageFix" result="effect1_dropShadow_1_2"/>
<feBlend mode="normal" in="SourceGraphic" in2="effect1_dropShadow_1_2" result="shape"/>
</filter>
<filter id="filter3_d_1_2" x="87.0963" y="65.9855" width="73.9834" height="67.9494" filterUnits="userSpaceOnUse" color-interpolation-filters="sRGB">
<feFlood flood-opacity="0" result="BackgroundImageFix"/>
<feColorMatrix in="SourceAlpha" type="matrix" values="0 0 0 0 0 0 0 0 0 0 0 0 0 0 0 0 0 0 127 0" result="hardAlpha"/>
<feOffset dx="5" dy="5"/>
<feGaussianBlur stdDeviation="4"/>
<feColorMatrix type="matrix" values="0 0 0 0 0 0 0 0 0 0 0 0 0 0 0 0 0 0 0.2 0"/>
<feBlend mode="normal" in2="BackgroundImageFix" result="effect1_dropShadow_1_2"/>
<feBlend mode="normal" in="SourceGraphic" in2="effect1_dropShadow_1_2" result="shape"/>
</filter>
<clipPath id="clip0_1_2">
<rect width="550" height="360" fill="white"/>
</clipPath>
</defs>
</svg>
