<svg width="550" height="395" viewBox="0 0 550 395" fill="none" xmlns="http://www.w3.org/2000/svg">
<g id="Joystick" clip-path="url(#clip0_3_2)">
<rect width="550" height="395" fill="white"/>
<g id="Mask group">
<mask id="mask0_3_2" style="mask-type:alpha" maskUnits="userSpaceOnUse" x="0" y="0" width="550" height="395">
<g id="Group">
<path id="Vector" d="M550 0H0V395H550V0Z" fill="#C4C4C4"/>
</g>
</mask>
<g mask="url(#mask0_3_2)">
<g id="Group_2">
<path id="Vector_2" opacity="0.04" d="M179.541 382.321C277.198 414.468 434.993 382.573 487.554 319.453C540.115 256.333 483.771 180.694 445.06 152.099C433.016 143.252 419.541 136.703 409.708 124.674C388.238 98.3334 380.505 56.5144 353.842 37.7963C330.779 21.5852 303.824 35.9737 278.293 26.3039C267.151 22.1649 248.833 4.82911 230.007 1.05474C188.371 -7.29297 87.8859 35.3115 76.6593 79.3214C65.4326 123.332 45.8159 338.3 179.541 382.321Z" fill="#3379E0"/>
<path id="gear3" opacity="0.2" d="M349.087 175.147L362.588 172.664V160.829L349.087 158.553C348.05 153.69 346.083 149.138 343.374 145.102L351.118 133.991L342.549 125.611L331.355 133.35C327.228 130.701 322.594 128.798 317.6 127.784L315.061 114.583H302.957L300.629 127.784C295.657 128.798 291.002 130.722 286.875 133.371L275.534 125.798L266.964 134.178L274.878 145.124C272.169 149.159 270.223 153.711 269.186 158.573L255.685 161.056V172.891L269.186 175.168C270.223 180.051 272.19 184.583 274.899 188.617L267.155 199.708L275.724 208.088L286.939 200.349C291.065 202.998 295.721 204.923 300.693 205.915L303.233 219.117H315.337L317.664 205.915C322.658 204.901 327.292 202.977 331.418 200.328L342.76 207.901L351.33 199.521L343.417 188.575C346.104 184.561 348.05 180.031 349.087 175.147ZM309.136 191.369C295.297 191.369 284.083 180.382 284.083 166.87C284.083 153.358 295.297 142.371 309.136 142.371C322.975 142.371 334.19 153.338 334.19 166.87C334.19 180.402 322.975 191.369 309.136 191.369Z" fill="#84B5FF"/>
<path id="Vector_3" d="M57.926 123.549V233.978C57.926 239.474 62.4886 243.935 68.1093 243.935H207.854C213.475 243.935 218.038 239.474 218.038 233.978V123.549C218.038 118.053 213.475 113.591 207.854 113.591H68.0983C62.4776 113.602 57.926 118.053 57.926 123.549ZM207.998 238.827H137.982L68.3297 238.515C66.2468 238.515 64.1969 237.178 64.1969 235.141V122.385C64.1969 120.348 65.8831 118.699 67.966 118.699H207.998C210.081 118.699 211.767 120.348 211.767 122.385V235.141C211.767 237.178 210.081 238.827 207.998 238.827Z" fill="#66D6A0"/>
<path id="circle" d="M364.693 241.748C351.964 241.748 341.648 251.835 341.648 264.282C341.648 276.729 351.964 286.816 364.693 286.816C377.422 286.816 387.738 276.729 387.738 264.282C387.738 251.835 377.422 241.748 364.693 241.748ZM364.693 281.201C355.127 281.201 347.379 273.625 347.379 264.271C347.379 254.917 355.127 247.341 364.693 247.341C374.259 247.341 382.007 254.917 382.007 264.271C382.007 273.625 374.259 281.201 364.693 281.201Z" fill="#66D6A0"/>
<path id="Vector_4" d="M314.834 175.805V319.124C314.834 322.81 311.781 325.795 308.012 325.795H84.5083C80.7392 325.795 77.6864 322.81 77.6864 319.124V175.805C77.6864 167.302 84.7398 160.394 93.4463 160.394H299.074C307.781 160.394 314.834 167.302 314.834 175.805Z" fill="white" stroke="#84B5FF" stroke-miterlimit="10"/>
<path id="Vector_5" d="M314.834 175.805V176.452H77.6864V175.805C77.6864 167.302 84.7398 160.394 93.4463 160.394H299.074C307.781 160.394 314.834 167.302 314.834 175.805Z" fill="#84B5FF"/>
<path id="Vector_6" opacity="0.2" d="M224.331 187.907H211.789C210.676 187.907 209.772 187.023 209.772 185.935C209.772 184.847 210.676 183.963 211.789 183.963H224.331C225.444 183.963 226.347 184.847 226.347 185.935C226.347 187.023 225.444 187.907 224.331 187.907Z" fill="#276ED8"/>
<path id="Vector_7" opacity="0.2" d="M248.037 187.907H235.495C234.382 187.907 233.478 187.023 233.478 185.935C233.478 184.847 234.382 183.963 235.495 183.963H248.037C249.15 183.963 250.053 184.847 250.053 185.935C250.064 187.023 249.161 187.907 248.037 187.907Z" fill="#276ED8"/>
<path id="Vector_8" opacity="0.2" d="M272.117 187.907H259.575C258.462 187.907 257.559 187.023 257.559 185.935C257.559 184.847 258.462 183.963 259.575 183.963H272.117C273.23 183.963 274.134 184.847 274.134 185.935C274.134 187.023 273.23 187.907 272.117 187.907Z" fill="#276ED8"/>
<path id="Vector_9" opacity="0.2" d="M295.823 187.907H283.281C282.168 187.907 281.264 187.023 281.264 185.935C281.264 184.847 282.168 183.963 283.281 183.963H295.823C296.936 183.963 297.84 184.847 297.84 185.935C297.851 187.023 296.947 187.907 295.823 187.907Z" fill="#276ED8"/>
<path id="Vector_10" opacity="0.2" d="M270.806 218.664H218.104C217.079 218.664 216.252 217.856 216.252 216.853V210.635C216.252 209.633 217.079 208.825 218.104 208.825H270.806C271.831 208.825 272.657 209.633 272.657 210.635V216.853C272.657 217.845 271.831 218.664 270.806 218.664Z" fill="#276ED8"/>
<path id="Vector_11" opacity="0.2" d="M255.762 230.54H218.038C217.046 230.54 216.252 229.753 216.252 228.794C216.252 227.824 217.057 227.048 218.038 227.048H255.762C256.754 227.048 257.548 227.835 257.548 228.794C257.548 229.753 256.754 230.54 255.762 230.54Z" fill="#276ED8"/>
<path id="Vector_12" opacity="0.2" d="M293.509 238.989H218.038C217.046 238.989 216.252 238.202 216.252 237.243C216.252 236.273 217.057 235.497 218.038 235.497H293.509C294.501 235.497 295.294 236.284 295.294 237.243C295.294 238.202 294.501 238.989 293.509 238.989Z" fill="#276ED8"/>
<path id="Vector_13" opacity="0.2" d="M293.509 247.438H218.038C217.046 247.438 216.252 246.651 216.252 245.692C216.252 244.722 217.057 243.946 218.038 243.946H293.509C294.501 243.946 295.294 244.733 295.294 245.692C295.294 246.651 294.501 247.438 293.509 247.438Z" fill="#276ED8"/>
<path id="Vector_14" opacity="0.2" d="M293.265 256.016H217.794C216.802 256.016 216.009 255.229 216.009 254.27C216.009 253.3 216.813 252.524 217.794 252.524H293.265C294.257 252.524 295.051 253.311 295.051 254.27C295.051 255.229 294.257 256.016 293.265 256.016Z" fill="#276ED8"/>
<path id="Vector_15" opacity="0.1" d="M314.834 294.92V319.124C314.834 322.81 311.781 325.795 308.012 325.795H84.5083C80.7392 325.795 77.6864 322.81 77.6864 319.124V294.92H314.834Z" fill="#84B5FF"/>
<path id="Vector_16" d="M278.818 169.167C278.818 170.277 277.903 171.171 276.768 171.171C275.633 171.171 274.718 170.277 274.718 169.167C274.718 168.057 275.633 167.162 276.768 167.162C277.892 167.162 278.818 168.057 278.818 169.167Z" fill="#84B5FF"/>
<path id="Vector_17" d="M290.037 169.167C290.037 170.277 289.122 171.171 287.987 171.171C286.852 171.171 285.937 170.277 285.937 169.167C285.937 168.057 286.852 167.162 287.987 167.162C289.111 167.162 290.037 168.057 290.037 169.167Z" fill="#84B5FF"/>
<path id="Vector_18" d="M300.761 169.167C300.761 170.277 299.846 171.171 298.711 171.171C297.576 171.171 296.661 170.277 296.661 169.167C296.661 168.057 297.576 167.162 298.711 167.162C299.846 167.162 300.761 168.057 300.761 169.167Z" fill="#84B5FF"/>
<path id="Vector_19" opacity="0.1" d="M315.198 176.285V319.156C315.198 322.83 312.147 325.806 308.381 325.806H85.0647C81.2987 325.806 78.2484 322.83 78.2484 319.156V176.285C78.2484 167.809 85.2959 160.922 93.9951 160.922H299.451C308.15 160.922 315.198 167.809 315.198 176.285Z" stroke="#276ED8" stroke-miterlimit="10"/>
<g id="Group_3" filter="url(#filter0_d_3_2)">
<path id="Vector_20" d="M195.764 194.955V261.609C195.764 263.15 194.486 264.39 192.921 264.39H102.032C100.467 264.39 99.1882 263.15 99.1882 261.609V194.955C99.1882 193.414 100.467 192.175 102.032 192.175H192.921C194.497 192.186 195.764 193.425 195.764 194.955Z" fill="#06B25F"/>
</g>
<path id="wale" d="M195.764 237.426V261.609C195.764 263.15 194.486 264.389 192.921 264.389H102.032C100.467 264.389 99.1882 263.15 99.1882 261.609V238.342C99.1882 238.342 114.695 212.198 125.694 212.198C139.404 212.198 147.195 242.707 154.006 242.707C160.817 242.707 169.689 221.724 178.704 221.724C184.126 221.714 191.07 230.432 195.764 237.426Z" fill="#66D6A0"/>
<path id="Vector_21" d="M183.366 207.122C183.366 210.517 180.545 213.276 177.073 213.276C173.601 213.276 170.78 210.517 170.78 207.122C170.78 203.727 173.601 200.969 177.073 200.969C180.556 200.979 183.366 203.727 183.366 207.122Z" fill="#66D6A0"/>
<g id="Group_4" filter="url(#filter1_d_3_2)">
<path id="Vector_22" d="M257.757 100.584V146.245C257.757 148.637 255.773 150.566 253.338 150.566H185.008C182.561 150.566 180.589 148.626 180.589 146.245V100.584C180.589 98.1912 182.572 96.2622 185.008 96.2622H253.338C255.773 96.2622 257.757 98.202 257.757 100.584Z" fill="#84B5FF"/>
</g>
<path id="Vector_23" d="M257.757 140.145V146.255C257.757 148.648 255.773 150.577 253.338 150.577H185.008C182.561 150.577 180.589 148.637 180.589 146.255V140.145H257.757Z" fill="#276ED8"/>
<path id="Vector_24" opacity="0.8" d="M221.553 145.867C221.553 146.374 221.708 146.837 221.983 147.236H187.466C186.694 147.236 186.066 146.633 186.066 145.867C186.066 145.113 186.694 144.499 187.466 144.499H221.983C221.719 144.897 221.553 145.361 221.553 145.867Z" fill="#84B5FF"/>
<path id="Vector_25" d="M233.489 145.867C233.489 146.622 232.861 147.236 232.089 147.236H221.994C221.719 146.837 221.564 146.374 221.564 145.867C221.564 145.361 221.719 144.897 221.994 144.499H232.089C232.85 144.509 233.489 145.124 233.489 145.867Z" fill="#84B5FF"/>
<path id="dot" d="M226.513 145.867C226.513 146.374 226.358 146.837 226.083 147.236C225.642 147.872 224.893 148.292 224.033 148.292C223.184 148.292 222.435 147.872 221.994 147.236C221.719 146.837 221.564 146.374 221.564 145.867C221.564 145.361 221.719 144.897 221.994 144.499C222.435 143.863 223.184 143.443 224.033 143.443C224.893 143.443 225.642 143.863 226.083 144.499C226.347 144.897 226.513 145.361 226.513 145.867Z" fill="white"/>
<path id="Vector_26" d="M225.245 145.867C225.245 146.525 224.705 147.053 224.033 147.053C223.361 147.053 222.821 146.525 222.821 145.867C222.821 145.21 223.361 144.682 224.033 144.682C224.705 144.682 225.245 145.21 225.245 145.867Z" fill="#84B5FF"/>
<path id="Vector_27" d="M243.893 147.074V144.8C243.893 144.499 244.212 144.305 244.488 144.445L246.813 145.587C247.111 145.738 247.111 146.158 246.813 146.298L244.488 147.441C244.212 147.57 243.893 147.376 243.893 147.074Z" fill="#84B5FF"/>
<path id="Vector_28" d="M250.163 146.632V145.242C250.163 145.059 250.318 144.941 250.45 145.027L251.574 145.727C251.717 145.813 251.717 146.072 251.574 146.169L250.45 146.87C250.318 146.934 250.163 146.816 250.163 146.632Z" fill="#84B5FF"/>
<path id="Vector_29" d="M251.685 146.632V145.242C251.685 145.059 251.839 144.941 251.971 145.027L253.095 145.727C253.238 145.813 253.238 146.072 253.095 146.169L251.971 146.87C251.839 146.934 251.685 146.816 251.685 146.632Z" fill="#84B5FF"/>
<path id="Vector_30" d="M241.027 154.871V153.481C241.027 153.298 240.873 153.18 240.741 153.266L239.617 153.966C239.473 154.052 239.473 154.311 239.617 154.408L240.741 155.109C240.873 155.173 241.027 155.055 241.027 154.871Z" fill="#84B5FF"/>
<path id="Vector_31" d="M239.506 146.632V145.242C239.506 145.059 239.352 144.941 239.22 145.027L238.096 145.727C237.952 145.813 237.952 146.072 238.096 146.169L239.22 146.87C239.352 146.934 239.506 146.816 239.506 146.632Z" fill="#84B5FF"/>
<path id="Vector_32" d="M232.551 121.992C234.307 114.765 229.737 107.514 222.346 105.798C214.955 104.083 207.54 108.551 205.786 115.778C204.031 123.006 208.6 130.255 215.991 131.971C223.383 133.686 230.797 129.219 232.551 121.992Z" fill="#FBF8FF"/>
<path id="Vector_33" d="M215.536 123.031V114.755C215.536 113.839 216.572 113.289 217.354 113.785L223.857 117.923C224.573 118.376 224.573 119.4 223.857 119.852L217.354 123.991C216.572 124.497 215.536 123.947 215.536 123.031Z" fill="#276ED8"/>
<g id="gear2" filter="url(#filter2_d_3_2)">
<path id="Vector_34" d="M114.527 324.814L123.434 323.176V315.368L114.527 313.865C113.843 310.657 112.544 307.654 110.757 304.992L115.867 297.66L110.212 292.131L102.827 297.237C100.104 295.49 97.0468 294.233 93.7519 293.564L92.0765 284.854H84.0904L82.5548 293.564C79.2738 294.233 76.2022 295.503 73.4797 297.251L65.9963 292.254L60.3419 297.783L65.5635 305.005C63.7765 307.668 62.492 310.671 61.8078 313.879L52.9004 315.517V323.326L61.8078 324.828C62.492 328.05 63.7904 331.04 65.5775 333.702L60.4676 341.019L66.122 346.549L73.5216 341.443C76.2441 343.19 79.3156 344.46 82.5967 345.116L84.272 353.825H92.258L93.7938 345.116C97.0887 344.446 100.146 343.177 102.869 341.429L110.352 346.426L116.006 340.896L110.786 333.675C112.558 331.026 113.843 328.037 114.527 324.814ZM88.1673 335.518C79.0365 335.518 71.6368 328.268 71.6368 319.354C71.6368 310.438 79.0365 303.189 88.1673 303.189C97.2981 303.189 104.698 310.425 104.698 319.354C104.698 328.282 97.2981 335.518 88.1673 335.518Z" fill="#84B5FF"/>
</g>
<g id="gear1" filter="url(#filter3_d_3_2)">
<path id="Vector_35" d="M41.5345 283.046L47.9891 285.259L51.006 280.165L45.7616 275.897C46.5509 273.547 46.8666 271.096 46.7262 268.713L52.9004 265.815L51.3392 260.123L44.5514 260.739C43.4463 258.597 41.9203 256.642 40.0436 254.996L42.3063 248.687L37.0969 245.737L32.7295 250.864C30.3265 250.092 27.8183 249.784 25.3803 249.921L22.416 243.903L16.5927 245.429L17.2242 252.081C15.0317 253.161 13.0321 254.653 11.3483 256.488L4.89361 254.276L1.87675 259.369L7.12116 263.637C6.33195 266.004 6.0162 268.421 6.1565 270.821L0 273.719L1.561 279.411L8.36652 278.795C9.47148 280.937 10.98 282.892 12.8743 284.538L10.6116 290.847L15.821 293.797L20.1884 288.67C22.609 289.442 25.082 289.75 27.5377 289.613L30.5019 295.631L36.3251 294.105L35.6937 287.453C37.8511 286.39 39.8506 284.915 41.5345 283.046ZM20.1884 280.321C14.2249 276.959 12.1902 269.501 15.6281 263.672C19.0658 257.843 26.6957 255.853 32.6592 259.213C38.6229 262.575 40.6574 270.033 37.2197 275.862C33.7818 281.691 26.1521 283.681 20.1884 280.321Z" fill="#84B5FF"/>
</g>
<path id="Vector_36" d="M99.1883 238.515H76.0444V243.903H99.1883V238.515Z" fill="#66D6A0"/>
<g id="Clip path group">
<mask id="mask1_3_2" style="mask-type:luminance" maskUnits="userSpaceOnUse" x="170" y="271" width="163" height="103">
<g id="clip0_480_5451">
<path id="Vector_37" d="M170.824 271.922H332.831V373.223H170.824V271.922Z" fill="white"/>
</g>
</mask>
<g mask="url(#mask1_3_2)">
<g id="Group_5">
<path id="Vector_38" d="M171.226 340.9L182.523 286.974C184.765 276.268 195.208 269.685 205.55 272.625L210.224 273.952C211.902 274.43 213.639 274.673 215.388 274.677L225.824 274.698L268.764 274.79L280.074 274.813C282.006 274.818 283.934 274.569 285.807 274.071L291.076 272.671C303.022 269.498 315.493 276.712 318.229 288.574L332.317 349.682C334.673 359.902 328.749 369.67 318.577 372.474C307.262 375.594 295.037 368.655 291.923 357.526L287.086 340.243C286.082 336.658 282.783 334.06 279.04 333.891L216.328 331.061C212.937 330.908 209.979 333.088 209.084 336.385L204.807 352.145C202.084 362.181 191.618 367.038 182.239 362.769C174.047 359.041 169.378 349.722 171.226 340.9Z" fill="url(#paint0_linear_3_2)"/>
<path id="Vector_39" opacity="0.3" d="M226.183 303.123L261.116 304.079C264.226 304.164 266.759 301.347 266.759 297.787V274.801L220.921 274.69V296.784C220.921 300.206 223.272 303.043 226.183 303.123Z" fill="url(#paint1_linear_3_2)"/>
<path id="Vector_40" d="M272.987 297.644C272.987 307.635 281.324 316 291.749 316.332C302.333 316.669 311.032 308.623 311.032 298.356C311.032 288.088 302.333 279.718 291.749 279.659C281.323 279.601 272.987 287.653 272.987 297.644Z" fill="url(#paint2_linear_3_2)"/>
<path id="Vector_41" d="M251.707 321.421C251.707 329.497 258.33 336.357 266.594 336.748C274.957 337.146 281.812 330.779 281.812 322.524C281.812 314.268 274.957 307.4 266.594 307.184C258.331 306.97 251.707 313.346 251.707 321.421Z" fill="#68A4FF"/>
<path id="Vector_42" d="M254.576 321.526C254.576 328.045 259.93 333.573 266.594 333.874C273.323 334.18 278.827 329.05 278.827 322.414C278.827 315.779 273.323 310.246 266.594 310.058C259.93 309.872 254.576 315.006 254.576 321.526Z" fill="#4389F2"/>
<path id="Vector_43" d="M258.568 321.716C258.568 325.382 261.579 328.49 265.326 328.661C269.111 328.832 272.205 325.948 272.205 322.217C272.205 318.485 269.111 315.374 265.326 315.268C261.579 315.163 258.568 318.051 258.568 321.716Z" fill="#276ED8"/>
<path id="Vector_44" d="M207.37 319.617C207.37 327.399 213.518 333.997 221.185 334.361C228.943 334.729 235.298 328.588 235.298 320.639C235.298 312.692 228.943 306.086 221.185 305.885C213.518 305.687 207.37 311.836 207.37 319.617Z" fill="#68A4FF"/>
<path id="Vector_45" d="M210.032 319.714C210.032 325.994 215.003 331.312 221.185 331.592C227.427 331.874 232.53 326.927 232.53 320.537C232.53 314.149 227.426 308.827 221.185 308.653C215.003 308.48 210.032 313.433 210.032 319.714Z" fill="#4389F2"/>
<path id="Vector_46" d="M212.608 319.878C212.608 323.543 215.619 326.651 219.366 326.822C223.15 326.993 226.245 324.108 226.245 320.378C226.245 316.647 223.15 313.535 219.366 313.43C215.619 313.324 212.608 316.212 212.608 319.878Z" fill="#276ED8"/>
<path id="Vector_47" d="M272.981 286.718C274.264 286.731 275.306 285.725 275.306 284.47V280.477C275.306 279.221 274.264 278.2 272.981 278.194C271.702 278.189 270.666 279.197 270.666 280.448V284.429C270.666 285.679 271.702 286.704 272.981 286.718Z" fill="#5483FC"/>
<path id="Vector_48" d="M216.614 286.048C217.784 286.061 218.732 285.1 218.732 283.903V280.089C218.732 278.891 217.783 277.914 216.614 277.909C215.448 277.903 214.502 278.868 214.502 280.062V283.862C214.502 285.057 215.448 286.037 216.614 286.048Z" fill="url(#paint3_linear_3_2)"/>
<path id="Vector_49" d="M289.754 284.711L293.749 284.748C294.927 284.758 295.883 285.687 295.883 286.821V291.28C295.883 291.685 295.759 292.078 295.527 292.411L293.719 295.002C293.325 295.567 292.659 295.899 291.947 295.888L291.55 295.88C290.839 295.868 290.176 295.514 289.783 294.936L287.991 292.299C287.761 291.96 287.638 291.566 287.638 291.165V286.733C287.639 285.605 288.585 284.7 289.754 284.711Z" fill="url(#paint4_linear_3_2)"/>
<path id="Vector_50" d="M289.754 311.204L293.749 311.318C294.927 311.351 295.883 310.459 295.883 309.324V304.866C295.883 304.461 295.759 304.064 295.527 303.722L293.719 301.062C293.325 300.482 292.659 300.124 291.947 300.11L291.55 300.102C290.839 300.087 290.176 300.417 289.783 300.981L287.991 303.55C287.761 303.878 287.638 304.269 287.638 304.671V309.103C287.639 310.23 288.585 311.171 289.754 311.204Z" fill="url(#paint5_linear_3_2)"/>
<path id="Vector_51" d="M305.645 296.31V300.199C305.645 301.342 304.675 302.247 303.482 302.222L298.808 302.122C298.386 302.112 297.973 301.984 297.622 301.752L294.892 299.956C294.297 299.563 293.939 298.915 293.939 298.227V297.845C293.939 297.157 294.297 296.521 294.892 296.152L297.622 294.457C297.973 294.239 298.386 294.125 298.808 294.133L303.482 294.207C304.676 294.227 305.645 295.168 305.645 296.31Z" fill="url(#paint6_linear_3_2)"/>
<path id="Vector_52" d="M278.125 295.833V299.648C278.125 300.767 279.057 301.696 280.21 301.721L284.76 301.819C285.175 301.828 285.579 301.718 285.924 301.503L288.618 299.83C289.208 299.462 289.564 298.831 289.564 298.145V297.764C289.564 297.078 289.208 296.433 288.618 296.043L285.924 294.269C285.579 294.042 285.175 293.917 284.76 293.909L280.21 293.838C279.057 293.82 278.125 294.713 278.125 295.833Z" fill="url(#paint7_linear_3_2)"/>
<path id="Vector_53" d="M288.861 284.905L292.857 284.943C294.034 284.953 294.991 285.881 294.991 287.016V291.474C294.991 291.879 294.868 292.272 294.635 292.605L292.828 295.196C292.433 295.761 291.767 296.094 291.056 296.082L290.659 296.075C289.947 296.062 289.284 295.708 288.891 295.13L287.099 292.494C286.869 292.154 286.746 291.761 286.746 291.359V286.928C286.747 285.799 287.693 284.894 288.861 284.905Z" fill="#5483FC"/>
<path id="Vector_54" d="M288.861 311.398L292.857 311.512C294.034 311.545 294.991 310.653 294.991 309.518V305.06C294.991 304.655 294.868 304.258 294.635 303.916L292.828 301.256C292.433 300.676 291.767 300.319 291.056 300.304L290.659 300.296C289.947 300.281 289.284 300.611 288.891 301.175L287.099 303.744C286.869 304.074 286.746 304.463 286.746 304.865V309.297C286.747 310.424 287.693 311.365 288.861 311.398Z" fill="#5483FC"/>
<path id="Vector_55" d="M304.754 296.504V300.394C304.754 301.537 303.784 302.442 302.59 302.416L297.916 302.316C297.494 302.306 297.082 302.178 296.73 301.946L294 300.15C293.405 299.757 293.047 299.109 293.047 298.421V298.039C293.047 297.352 293.405 296.716 294 296.346L296.73 294.651C297.082 294.433 297.494 294.32 297.916 294.327L302.59 294.401C303.785 294.421 304.754 295.362 304.754 296.504Z" fill="#5483FC"/>
<path id="Vector_56" d="M277.232 296.027V299.842C277.232 300.961 278.166 301.89 279.318 301.915L283.869 302.013C284.283 302.022 284.688 301.913 285.033 301.697L287.726 300.024C288.317 299.656 288.672 299.025 288.672 298.339V297.958C288.672 297.272 288.317 296.627 287.726 296.237L285.033 294.463C284.688 294.235 284.283 294.11 283.869 294.104L279.318 294.032C278.166 294.013 277.232 294.907 277.232 296.027Z" fill="#5483FC"/>
<path id="Vector_57" d="M214.892 296.455C214.892 305.984 207.397 313.47 198.266 313.179C189.264 312.891 182.059 305.131 182.059 295.84C182.059 286.551 189.264 279.06 198.266 279.109C207.397 279.16 214.892 286.926 214.892 296.455Z" fill="url(#paint8_linear_3_2)"/>
<path id="Vector_58" d="M194.099 285.4C194.099 287.789 195.962 289.751 198.267 289.784C200.581 289.816 202.463 287.892 202.463 285.487C202.463 283.083 200.581 281.12 198.267 281.104C195.962 281.088 194.099 283.012 194.099 285.4Z" fill="url(#paint9_linear_3_2)"/>
<path id="Vector_59" d="M194.099 306.731C194.099 309.119 195.962 311.113 198.267 311.183C200.581 311.253 202.463 309.362 202.463 306.957C202.463 304.552 200.581 302.559 198.267 302.504C195.962 302.449 194.099 304.342 194.099 306.731Z" fill="url(#paint10_linear_3_2)"/>
<path id="Vector_60" d="M208.66 291.964C206.318 291.928 204.425 293.851 204.425 296.258C204.425 298.667 206.318 300.661 208.66 300.712C211.011 300.765 212.923 298.843 212.923 296.418C212.923 293.994 211.011 292 208.66 291.964Z" fill="url(#paint11_linear_3_2)"/>
<path id="Vector_61" d="M188.039 291.647C185.77 291.611 183.936 293.505 183.936 295.876C183.936 298.245 185.77 300.207 188.039 300.257C190.316 300.308 192.168 298.415 192.168 296.03C192.168 293.644 190.316 291.681 188.039 291.647Z" fill="url(#paint12_linear_3_2)"/>
<path id="Vector_62" d="M193.208 285.595C193.208 287.983 195.07 289.946 197.375 289.978C199.688 290.01 201.57 288.086 201.57 285.681C201.57 283.277 199.688 281.314 197.375 281.298C195.07 281.282 193.208 283.206 193.208 285.595Z" fill="#5483FC"/>
<path id="Vector_63" d="M193.208 306.925C193.208 309.314 195.07 311.308 197.375 311.378C199.688 311.447 201.57 309.556 201.57 307.151C201.57 304.747 199.688 302.753 197.375 302.698C195.07 302.643 193.208 304.537 193.208 306.925Z" fill="#5483FC"/>
<path id="Vector_64" d="M207.768 292.158C205.426 292.122 203.533 294.045 203.533 296.453C203.533 298.861 205.426 300.855 207.768 300.907C210.119 300.959 212.031 299.036 212.031 296.613C212.031 294.188 210.119 292.194 207.768 292.158Z" fill="#5483FC"/>
<path id="Vector_65" d="M187.147 291.841C184.878 291.805 183.044 293.699 183.044 296.07C183.044 298.439 184.878 300.401 187.147 300.451C189.424 300.502 191.276 298.609 191.276 296.224C191.276 293.839 189.423 291.875 187.147 291.841Z" fill="#5483FC"/>
<path id="Vector_66" d="M256.016 361.563H223.824C222.556 361.563 221.52 360.561 221.52 359.311C221.52 358.071 222.545 357.058 223.824 357.058H256.016C257.283 357.058 258.319 358.06 258.319 359.311C258.319 360.55 257.283 361.563 256.016 361.563Z" fill="#66D6A0"/>
<path id="Vector_67" d="M256.016 372.803H223.824C222.556 372.803 221.52 371.801 221.52 370.551C221.52 369.311 222.545 368.298 223.824 368.298H256.016C257.283 368.298 258.319 369.301 258.319 370.551C258.319 371.79 257.283 372.803 256.016 372.803Z" fill="#66D6A0"/>
</g>
</g>
</g>
</g>
</g>
</g>
</g>
<defs>
<filter id="filter0_d_3_2" x="89.1882" y="186.175" width="116.576" height="92.2147" filterUnits="userSpaceOnUse" color-interpolation-filters="sRGB">
<feFlood flood-opacity="0" result="BackgroundImageFix"/>
<feColorMatrix in="SourceAlpha" type="matrix" values="0 0 0 0 0 0 0 0 0 0 0 0 0 0 0 0 0 0 127 0" result="hardAlpha"/>
<feOffset dy="4"/>
<feGaussianBlur stdDeviation="5"/>
<feColorMatrix type="matrix" values="0 0 0 0 0.0901961 0 0 0 0 0.0392157 0 0 0 0 0.396078 0 0 0 0.25 0"/>
<feBlend mode="normal" in2="BackgroundImageFix" result="effect1_dropShadow_3_2"/>
<feBlend mode="normal" in="SourceGraphic" in2="effect1_dropShadow_3_2" result="shape"/>
</filter>
<filter id="filter1_d_3_2" x="170.589" y="90.2622" width="97.1684" height="74.3038" filterUnits="userSpaceOnUse" color-interpolation-filters="sRGB">
<feFlood flood-opacity="0" result="BackgroundImageFix"/>
<feColorMatrix in="SourceAlpha" type="matrix" values="0 0 0 0 0 0 0 0 0 0 0 0 0 0 0 0 0 0 127 0" result="hardAlpha"/>
<feOffset dy="4"/>
<feGaussianBlur stdDeviation="5"/>
<feColorMatrix type="matrix" values="0 0 0 0 0.0901961 0 0 0 0 0.0392157 0 0 0 0 0.396078 0 0 0 0.25 0"/>
<feBlend mode="normal" in2="BackgroundImageFix" result="effect1_dropShadow_3_2"/>
<feBlend mode="normal" in="SourceGraphic" in2="effect1_dropShadow_3_2" result="shape"/>
</filter>
<filter id="filter2_d_3_2" x="42.9004" y="278.854" width="90.5338" height="88.9709" filterUnits="userSpaceOnUse" color-interpolation-filters="sRGB">
<feFlood flood-opacity="0" result="BackgroundImageFix"/>
<feColorMatrix in="SourceAlpha" type="matrix" values="0 0 0 0 0 0 0 0 0 0 0 0 0 0 0 0 0 0 127 0" result="hardAlpha"/>
<feOffset dy="4"/>
<feGaussianBlur stdDeviation="5"/>
<feColorMatrix type="matrix" values="0 0 0 0 0.0885677 0 0 0 0 0.0395834 0 0 0 0 0.395833 0 0 0 0.25 0"/>
<feBlend mode="normal" in2="BackgroundImageFix" result="effect1_dropShadow_3_2"/>
<feBlend mode="normal" in="SourceGraphic" in2="effect1_dropShadow_3_2" result="shape"/>
</filter>
<filter id="filter3_d_3_2" x="-10" y="237.903" width="72.9004" height="71.7281" filterUnits="userSpaceOnUse" color-interpolation-filters="sRGB">
<feFlood flood-opacity="0" result="BackgroundImageFix"/>
<feColorMatrix in="SourceAlpha" type="matrix" values="0 0 0 0 0 0 0 0 0 0 0 0 0 0 0 0 0 0 127 0" result="hardAlpha"/>
<feOffset dy="4"/>
<feGaussianBlur stdDeviation="5"/>
<feColorMatrix type="matrix" values="0 0 0 0 0.0885677 0 0 0 0 0.0395834 0 0 0 0 0.395833 0 0 0 0.25 0"/>
<feBlend mode="normal" in2="BackgroundImageFix" result="effect1_dropShadow_3_2"/>
<feBlend mode="normal" in="SourceGraphic" in2="effect1_dropShadow_3_2" result="shape"/>
</filter>
<linearGradient id="paint0_linear_3_2" x1="286.149" y1="270.246" x2="224.382" y2="387.226" gradientUnits="userSpaceOnUse">
<stop stop-color="#276ED8"/>
<stop offset="0.9964" stop-color="#84B5FF"/>
</linearGradient>
<linearGradient id="paint1_linear_3_2" x1="230.336" y1="304.252" x2="255.577" y2="274.595" gradientUnits="userSpaceOnUse">
<stop stop-color="#84B5FF"/>
<stop offset="0.9964" stop-color="#276ED8"/>
</linearGradient>
<linearGradient id="paint2_linear_3_2" x1="281.317" y1="315.072" x2="306.742" y2="272.879" gradientUnits="userSpaceOnUse">
<stop stop-color="#84B5FF"/>
<stop offset="0.805159" stop-color="#276ED8"/>
</linearGradient>
<linearGradient id="paint3_linear_3_2" x1="225.657" y1="256.225" x2="220.145" y2="272.559" gradientUnits="userSpaceOnUse">
<stop stop-color="#AA80F9"/>
<stop offset="0.9964" stop-color="#6165D7"/>
</linearGradient>
<linearGradient id="paint4_linear_3_2" x1="272.654" y1="307.456" x2="277.147" y2="303.054" gradientUnits="userSpaceOnUse">
<stop stop-color="#AA80F9"/>
<stop offset="0.9964" stop-color="#6165D7"/>
</linearGradient>
<linearGradient id="paint5_linear_3_2" x1="281.369" y1="316.349" x2="285.862" y2="311.947" gradientUnits="userSpaceOnUse">
<stop stop-color="#AA80F9"/>
<stop offset="0.9964" stop-color="#6165D7"/>
</linearGradient>
<linearGradient id="paint6_linear_3_2" x1="281.388" y1="316.368" x2="285.88" y2="311.965" gradientUnits="userSpaceOnUse">
<stop stop-color="#AA80F9"/>
<stop offset="0.9964" stop-color="#6165D7"/>
</linearGradient>
<linearGradient id="paint7_linear_3_2" x1="272.694" y1="307.496" x2="277.186" y2="303.094" gradientUnits="userSpaceOnUse">
<stop stop-color="#AA80F9"/>
<stop offset="0.9964" stop-color="#6165D7"/>
</linearGradient>
<linearGradient id="paint8_linear_3_2" x1="188.456" y1="312.195" x2="206.133" y2="283.464" gradientUnits="userSpaceOnUse">
<stop stop-color="#84B5FF"/>
<stop offset="0.9964" stop-color="#276ED8"/>
</linearGradient>
<linearGradient id="paint9_linear_3_2" x1="175.679" y1="307.607" x2="181.8" y2="301.365" gradientUnits="userSpaceOnUse">
<stop stop-color="#AA80F9"/>
<stop offset="0.9964" stop-color="#6165D7"/>
</linearGradient>
<linearGradient id="paint10_linear_3_2" x1="186.591" y1="318.307" x2="192.712" y2="312.065" gradientUnits="userSpaceOnUse">
<stop stop-color="#AA80F9"/>
<stop offset="0.9964" stop-color="#6165D7"/>
</linearGradient>
<linearGradient id="paint11_linear_3_2" x1="186.431" y1="318.151" x2="192.552" y2="311.909" gradientUnits="userSpaceOnUse">
<stop stop-color="#AA80F9"/>
<stop offset="0.9964" stop-color="#6165D7"/>
</linearGradient>
<linearGradient id="paint12_linear_3_2" x1="175.922" y1="307.846" x2="182.043" y2="301.604" gradientUnits="userSpaceOnUse">
<stop stop-color="#AA80F9"/>
<stop offset="0.9964" stop-color="#6165D7"/>
</linearGradient>
<clipPath id="clip0_3_2">
<rect width="550" height="395" fill="white"/>
</clipPath>
</defs>
</svg>
