<svg width="356" height="155" viewBox="0 0 356 155" fill="none" xmlns="http://www.w3.org/2000/svg">
<g id="Joystick" clip-path="url(#clip0_3_2)">
<rect width="356" height="155" fill="white"/>
<g id="Mask group">
<mask id="mask0_3_2" style="mask-type:alpha" maskUnits="userSpaceOnUse" x="0" y="0" width="356" height="155">
<g id="Group">
<path id="Vector" d="M356 0H0V155H356V0Z" fill="#C4C4C4"/>
</g>
</mask>
<g mask="url(#mask0_3_2)">
<g id="Group_2">
<path id="Vector_2" opacity="0.04" d="M121.893 143.158C186.079 154.846 289.792 143.25 324.338 120.301C358.884 97.3518 321.851 69.8509 296.408 59.4545C288.492 56.2379 279.635 53.8568 273.172 49.4835C259.061 39.9064 253.979 24.702 236.454 17.8965C221.296 12.0025 203.58 17.2338 186.799 13.7181C179.476 12.2132 167.436 5.9103 155.063 4.53802C127.697 1.50297 61.6519 16.993 54.2731 32.9941C46.8943 48.9953 34.001 127.153 121.893 143.158Z" fill="#3379E0"/>
<path id="gear3" opacity="0.2" d="M213.438 67.9642L221.367 67.0601V62.7507L213.438 61.9219C212.829 60.1514 211.674 58.4939 210.083 57.0243L214.631 52.9786L209.598 49.9273L203.024 52.7451C200.6 51.7806 197.878 51.0876 194.946 50.7184L193.454 45.9114H186.345L184.978 50.7184C182.058 51.0876 179.324 51.7881 176.9 52.7526L170.239 49.9952L165.206 53.0465L169.854 57.0322C168.263 58.5013 167.12 60.1589 166.511 61.9294L158.582 62.8335V67.1429L166.511 67.972C167.12 69.75 168.275 71.4001 169.866 72.8692L165.318 76.9075L170.351 79.9588L176.938 77.141C179.361 78.1055 182.095 78.8063 185.016 79.1677L186.507 83.9747H193.616L194.983 79.1677C197.916 78.7985 200.638 78.098 203.061 77.1335L209.722 79.8909L214.755 76.8396L210.108 72.8539C211.686 71.3922 212.829 69.7426 213.438 67.9642ZM189.975 73.8711C181.847 73.8711 175.26 69.8705 175.26 64.9505C175.26 60.0305 181.847 56.03 189.975 56.03C198.102 56.03 204.689 60.0231 204.689 64.9505C204.689 69.8779 198.102 73.8711 189.975 73.8711Z" fill="#84B5FF"/>
<path id="Vector_3" d="M42.4352 49.1762V89.386C42.4352 91.3872 45.1149 93.0118 48.416 93.0118H130.49C133.791 93.0118 136.471 91.3872 136.471 89.386V49.1762C136.471 47.1749 133.791 45.5504 130.49 45.5504H48.4095C45.1084 45.5543 42.4352 47.1749 42.4352 49.1762ZM130.574 91.1518H89.4531L48.5455 91.038C47.3221 91.038 46.1182 90.5514 46.1182 89.8097V48.7524C46.1182 48.0108 47.1085 47.4104 48.3319 47.4104H130.574C131.798 47.4104 132.788 48.0108 132.788 48.7524V89.8097C132.788 90.5514 131.798 91.1518 130.574 91.1518Z" fill="#66D6A0"/>
<path id="circle" d="M222.604 92.2152C215.128 92.2152 209.069 95.8881 209.069 100.42C209.069 104.953 215.128 108.626 222.604 108.626C230.08 108.626 236.138 104.953 236.138 100.42C236.138 95.8881 230.08 92.2152 222.604 92.2152ZM222.604 106.581C216.985 106.581 212.435 103.823 212.435 100.416C212.435 97.0104 216.985 94.2518 222.604 94.2518C228.222 94.2518 232.772 97.0104 232.772 100.416C232.772 103.823 228.222 106.581 222.604 106.581Z" fill="#66D6A0"/>
<path id="Vector_4" d="M193.321 68.2039V120.39C193.321 121.732 191.528 122.819 189.314 122.819H58.0474C55.8337 122.819 54.0408 121.732 54.0408 120.39V68.2039C54.0408 65.1079 58.1833 62.5925 63.2968 62.5925H184.065C189.178 62.5925 193.321 65.1079 193.321 68.2039Z" fill="white" stroke="#84B5FF" stroke-miterlimit="10"/>
<path id="Vector_5" d="M193.321 68.2039V68.4394H54.0408V68.2039C54.0408 65.1079 58.1833 62.5925 63.2968 62.5925H184.065C189.178 62.5925 193.321 65.1079 193.321 68.2039Z" fill="#84B5FF"/>
<path id="Vector_6" opacity="0.2" d="M140.167 72.6106H132.801C132.147 72.6106 131.616 72.2889 131.616 71.8925C131.616 71.4962 132.147 71.1744 132.801 71.1744H140.167C140.821 71.1744 141.351 71.4962 141.351 71.8925C141.351 72.2889 140.821 72.6106 140.167 72.6106Z" fill="#276ED8"/>
<path id="Vector_7" opacity="0.2" d="M154.09 72.6106H146.724C146.07 72.6106 145.539 72.2889 145.539 71.8925C145.539 71.4962 146.07 71.1744 146.724 71.1744H154.09C154.743 71.1744 155.274 71.4962 155.274 71.8925C155.281 72.2889 154.75 72.6106 154.09 72.6106Z" fill="#276ED8"/>
<path id="Vector_8" opacity="0.2" d="M168.233 72.6106H160.867C160.213 72.6106 159.682 72.2889 159.682 71.8925C159.682 71.4962 160.213 71.1744 160.867 71.1744H168.233C168.886 71.1744 169.417 71.4962 169.417 71.8925C169.417 72.2889 168.886 72.6106 168.233 72.6106Z" fill="#276ED8"/>
<path id="Vector_9" opacity="0.2" d="M182.155 72.6106H174.79C174.136 72.6106 173.605 72.2889 173.605 71.8925C173.605 71.4962 174.136 71.1744 174.79 71.1744H182.155C182.809 71.1744 183.34 71.4962 183.34 71.8925C183.346 72.2889 182.816 72.6106 182.155 72.6106Z" fill="#276ED8"/>
<path id="Vector_10" opacity="0.2" d="M167.462 83.8099H136.51C135.908 83.8099 135.422 83.5156 135.422 83.1507V80.8865C135.422 80.5215 135.908 80.2272 136.51 80.2272H167.462C168.064 80.2272 168.55 80.5215 168.55 80.8865V83.1507C168.55 83.5117 168.064 83.8099 167.462 83.8099Z" fill="#276ED8"/>
<path id="Vector_11" opacity="0.2" d="M158.627 88.1342H136.471C135.888 88.1342 135.422 87.8477 135.422 87.4985C135.422 87.1453 135.895 86.8628 136.471 86.8628H158.627C159.21 86.8628 159.676 87.1492 159.676 87.4985C159.676 87.8477 159.21 88.1342 158.627 88.1342Z" fill="#276ED8"/>
<path id="Vector_12" opacity="0.2" d="M180.796 91.2106H136.471C135.888 91.2106 135.422 90.9242 135.422 90.575C135.422 90.2218 135.895 89.9393 136.471 89.9393H180.796C181.379 89.9393 181.845 90.2257 181.845 90.575C181.845 90.9242 181.379 91.2106 180.796 91.2106Z" fill="#276ED8"/>
<path id="Vector_13" opacity="0.2" d="M180.796 94.2871H136.471C135.888 94.2871 135.422 94.0007 135.422 93.6514C135.422 93.2983 135.895 93.0157 136.471 93.0157H180.796C181.379 93.0157 181.845 93.3022 181.845 93.6514C181.845 94.0007 181.379 94.2871 180.796 94.2871Z" fill="#276ED8"/>
<path id="Vector_14" opacity="0.2" d="M180.653 97.4106H136.328C135.745 97.4106 135.279 97.1242 135.279 96.7749C135.279 96.4218 135.752 96.1393 136.328 96.1393H180.653C181.236 96.1393 181.702 96.4257 181.702 96.7749C181.702 97.1242 181.236 97.4106 180.653 97.4106Z" fill="#276ED8"/>
<path id="Vector_15" opacity="0.1" d="M193.321 111.576V120.39C193.321 121.732 191.528 122.819 189.314 122.819H58.0474C55.8337 122.819 54.0408 121.732 54.0408 120.39V111.576H193.321Z" fill="#84B5FF"/>
<path id="Vector_16" d="M172.168 65.7867C172.168 66.1909 171.631 66.5166 170.964 66.5166C170.297 66.5166 169.76 66.1909 169.76 65.7867C169.76 65.3826 170.297 65.0569 170.964 65.0569C171.624 65.0569 172.168 65.3826 172.168 65.7867Z" fill="#84B5FF"/>
<path id="Vector_17" d="M178.757 65.7867C178.757 66.1909 178.22 66.5166 177.553 66.5166C176.887 66.5166 176.349 66.1909 176.349 65.7867C176.349 65.3826 176.887 65.0569 177.553 65.0569C178.214 65.0569 178.757 65.3826 178.757 65.7867Z" fill="#84B5FF"/>
<path id="Vector_18" d="M185.055 65.7867C185.055 66.1909 184.518 66.5166 183.851 66.5166C183.185 66.5166 182.647 66.1909 182.647 65.7867C182.647 65.3826 183.185 65.0569 183.851 65.0569C184.518 65.0569 185.055 65.3826 185.055 65.7867Z" fill="#84B5FF"/>
<path id="Vector_19" opacity="0.1" d="M193.535 68.3786V120.401C193.535 121.739 191.743 122.823 189.531 122.823H58.3742C56.1624 122.823 54.3709 121.739 54.3709 120.401V68.3786C54.3709 65.2923 58.51 62.7848 63.6191 62.7848H184.286C189.395 62.7848 193.535 65.2923 193.535 68.3786Z" stroke="#276ED8" stroke-miterlimit="10"/>
<g id="Group_3" filter="url(#filter0_d_3_2)">
<path id="Vector_20" d="M123.39 75.177V99.4472C123.39 100.008 122.639 100.46 121.72 100.46H68.3391C67.4199 100.46 66.6691 100.008 66.6691 99.4472V75.177C66.6691 74.6158 67.4199 74.1646 68.3391 74.1646H121.72C122.645 74.1685 123.39 74.6198 123.39 75.177Z" fill="#06B25F"/>
</g>
<path id="wale" d="M123.39 90.6417V99.4472C123.39 100.008 122.639 100.46 121.72 100.46H68.3391C67.4199 100.46 66.6691 100.008 66.6691 99.4472V90.9752C66.6691 90.9752 75.7762 81.4555 82.236 81.4555C90.2881 81.4555 94.8643 92.5644 98.8644 92.5644C102.865 92.5644 108.075 84.9243 113.37 84.9243C116.554 84.9204 120.632 88.095 123.39 90.6417Z" fill="#66D6A0"/>
<path id="Vector_21" d="M116.108 79.6072C116.108 80.8433 114.451 81.8479 112.412 81.8479C110.373 81.8479 108.716 80.8433 108.716 79.6072C108.716 78.3712 110.373 77.3666 112.412 77.3666C114.457 77.3705 116.108 78.3712 116.108 79.6072Z" fill="#66D6A0"/>
<g id="Group_4" filter="url(#filter1_d_3_2)">
<path id="Vector_22" d="M159.799 40.8141V57.4403C159.799 58.3114 158.634 59.0138 157.203 59.0138H117.072C115.635 59.0138 114.477 58.3075 114.477 57.4403V40.8141C114.477 39.9429 115.642 39.2405 117.072 39.2405H157.203C158.634 39.2405 159.799 39.9468 159.799 40.8141Z" fill="#84B5FF"/>
</g>
<path id="Vector_23" d="M159.799 55.2193V57.4442C159.799 58.3153 158.634 59.0177 157.203 59.0177H117.072C115.635 59.0177 114.477 58.3114 114.477 57.4442V55.2193H159.799Z" fill="#276ED8"/>
<path id="Vector_24" opacity="0.8" d="M138.536 57.3029C138.536 57.4874 138.626 57.6561 138.788 57.8013H118.516C118.063 57.8013 117.694 57.5815 117.694 57.3029C117.694 57.0282 118.063 56.8046 118.516 56.8046H138.788C138.633 56.9498 138.536 57.1185 138.536 57.3029Z" fill="#84B5FF"/>
<path id="Vector_25" d="M145.546 57.3029C145.546 57.5776 145.177 57.8013 144.724 57.8013H138.795C138.633 57.6561 138.542 57.4874 138.542 57.3029C138.542 57.1185 138.633 56.9498 138.795 56.8046H144.724C145.17 56.8085 145.546 57.0322 145.546 57.3029Z" fill="#84B5FF"/>
<path id="dot" d="M141.448 57.3029C141.448 57.4874 141.358 57.6561 141.196 57.8013C140.937 58.0328 140.497 58.1858 139.992 58.1858C139.494 58.1858 139.054 58.0328 138.795 57.8013C138.633 57.6561 138.542 57.4874 138.542 57.3029C138.542 57.1185 138.633 56.9498 138.795 56.8046C139.054 56.573 139.494 56.42 139.992 56.42C140.497 56.42 140.937 56.573 141.196 56.8046C141.351 56.9498 141.448 57.1185 141.448 57.3029Z" fill="white"/>
<path id="Vector_26" d="M140.704 57.3029C140.704 57.5423 140.387 57.7346 139.992 57.7346C139.597 57.7346 139.28 57.5423 139.28 57.3029C139.28 57.0636 139.597 56.8713 139.992 56.8713C140.387 56.8713 140.704 57.0636 140.704 57.3029Z" fill="#84B5FF"/>
<path id="Vector_27" d="M151.656 57.7424V56.9145C151.656 56.8046 151.844 56.734 152.006 56.785L153.371 57.2009C153.546 57.2559 153.546 57.4089 153.371 57.4599L152.006 57.8759C151.844 57.9229 151.656 57.8523 151.656 57.7424Z" fill="#84B5FF"/>
<path id="Vector_28" d="M155.339 57.5815V57.0753C155.339 57.0086 155.43 56.9655 155.507 56.9969L156.167 57.2519C156.252 57.2833 156.252 57.3775 156.167 57.4128L155.507 57.6679C155.43 57.6914 155.339 57.6482 155.339 57.5815Z" fill="#84B5FF"/>
<path id="Vector_29" d="M156.232 57.5815V57.0753C156.232 57.0086 156.323 56.9655 156.401 56.9969L157.061 57.2519C157.145 57.2833 157.145 57.3775 157.061 57.4128L156.401 57.6679C156.323 57.6914 156.232 57.6482 156.232 57.5815Z" fill="#84B5FF"/>
<path id="Vector_30" d="M149.973 60.5815V60.0753C149.973 60.0086 149.882 59.9655 149.805 59.9969L149.145 60.2519C149.06 60.2833 149.06 60.3775 149.145 60.4128L149.805 60.6679C149.882 60.6914 149.973 60.6482 149.973 60.5815Z" fill="#84B5FF"/>
<path id="Vector_31" d="M149.08 57.5815V57.0753C149.08 57.0086 148.989 56.9655 148.912 56.9969L148.251 57.2519C148.167 57.2833 148.167 57.3775 148.251 57.4128L148.912 57.6679C148.989 57.6914 149.08 57.6482 149.08 57.5815Z" fill="#84B5FF"/>
<path id="Vector_32" d="M144.995 48.6092C146.026 45.9777 143.342 43.3376 139.001 42.7129C134.661 42.0882 130.306 43.7151 129.275 46.3466C128.245 48.9784 130.928 51.6181 135.269 52.2429C139.61 52.8676 143.964 51.241 144.995 48.6092Z" fill="#FBF8FF"/>
<path id="Vector_33" d="M135.002 48.9879V45.9742C135.002 45.6406 135.61 45.4405 136.07 45.621L139.889 47.1279C140.309 47.2927 140.309 47.6654 139.889 47.8303L136.07 49.3371C135.61 49.5215 135.002 49.3214 135.002 48.9879Z" fill="#276ED8"/>
<g id="gear2" filter="url(#filter2_d_3_2)">
<path id="Vector_34" d="M75.6778 122.462L80.9091 121.865V119.022L75.6778 118.475C75.2759 117.307 74.5134 116.213 73.4635 115.244L76.4649 112.574L73.1438 110.561L68.8064 112.42C67.207 111.784 65.4114 111.327 63.4763 111.083L62.4923 107.911H57.802L56.9001 111.083C54.9731 111.327 53.1691 111.789 51.5702 112.425L47.1751 110.606L43.8542 112.619L46.9209 115.249C45.8713 116.218 45.1169 117.312 44.7151 118.48L39.4836 119.077V121.92L44.7151 122.467C45.1169 123.64 45.8795 124.729 46.9291 125.698L43.9279 128.362L47.2488 130.376L51.5948 128.517C53.1937 129.153 54.9977 129.615 56.9247 129.854L57.9086 133.025H62.5989L63.5009 129.854C65.436 129.61 67.2316 129.148 68.831 128.511L73.226 130.331L76.5465 128.318L73.4803 125.688C74.5212 124.724 75.2759 123.635 75.6778 122.462ZM60.1964 126.359C54.8337 126.359 50.4878 123.719 50.4878 120.473C50.4878 117.227 54.8337 114.587 60.1964 114.587C65.559 114.587 69.9048 117.222 69.9048 120.473C69.9048 123.725 65.559 126.359 60.1964 126.359Z" fill="#84B5FF"/>
</g>
<g id="gear1" filter="url(#filter3_d_3_2)">
<path id="Vector_35" d="M32.8083 107.253L36.5992 108.059L38.371 106.204L35.2909 104.65C35.7545 103.794 35.94 102.902 35.8575 102.034L39.4836 100.979L38.5668 98.9061L34.5802 99.1306C33.9311 98.3505 33.0349 97.6386 31.9327 97.0394L33.2616 94.7419L30.2021 93.6679L27.637 95.5346C26.2257 95.2536 24.7526 95.1414 23.3207 95.1912L21.5798 93L18.1597 93.5557L18.5306 95.978C17.2429 96.3712 16.0685 96.9143 15.0796 97.5825L11.2886 96.7769L9.51679 98.6314L12.5969 100.186C12.1334 101.047 11.9479 101.928 12.0303 102.802L8.41455 103.857L9.33135 105.929L13.3283 105.705C13.9773 106.485 14.8633 107.197 15.9758 107.796L14.6469 110.094L17.7064 111.168L20.2715 109.301C21.6931 109.582 23.1456 109.694 24.5878 109.644L26.3287 111.835L29.7488 111.28L29.378 108.858C30.645 108.471 31.8194 107.933 32.8083 107.253ZM20.2715 106.261C16.769 105.037 15.574 102.321 17.5931 100.198C19.6122 98.0758 24.0933 97.3514 27.5958 98.5749C31.0983 99.7988 32.2932 102.515 30.2742 104.637C28.2551 106.76 23.774 107.484 20.2715 106.261Z" fill="#84B5FF"/>
</g>
<path id="Vector_36" d="M66.6691 91.038H53.0764V93H66.6691V91.038Z" fill="#66D6A0"/>
<g id="Clip path group">
<mask id="mask1_3_2" style="mask-type:luminance" maskUnits="userSpaceOnUse" x="108" y="103" width="96" height="38">
<g id="clip0_480_5451">
<path id="Vector_37" d="M108.742 103.203H203.891V140.089H108.742V103.203Z" fill="white"/>
</g>
</mask>
<g mask="url(#mask1_3_2)">
<g id="Group_5">
<path id="Vector_38" d="M108.978 128.319L115.612 108.683C116.93 104.785 123.063 102.388 129.137 103.458L131.882 103.942C132.867 104.116 133.888 104.204 134.915 104.205L141.044 104.213L166.264 104.247L172.906 104.255C174.041 104.257 175.173 104.166 176.273 103.985L179.368 103.475C186.383 102.32 193.708 104.947 195.314 109.266L203.588 131.517C204.972 135.238 201.493 138.795 195.519 139.816C188.873 140.952 181.694 138.425 179.865 134.373L177.024 128.08C176.434 126.774 174.497 125.829 172.299 125.767L135.467 124.736C133.475 124.681 131.738 125.475 131.212 126.675L128.7 132.413C127.101 136.068 120.954 137.837 115.446 136.282C110.635 134.924 107.892 131.531 108.978 128.319Z" fill="url(#paint0_linear_3_2)"/>
<path id="Vector_39" opacity="0.3" d="M141.255 114.563L161.772 114.912C163.598 114.943 165.086 113.917 165.086 112.621V104.251L138.164 104.21V112.255C138.164 113.501 139.545 114.534 141.255 114.563Z" fill="url(#paint1_linear_3_2)"/>
<path id="Vector_40" d="M168.743 112.568C168.743 116.206 173.64 119.252 179.763 119.373C185.979 119.496 191.088 116.566 191.088 112.828C191.088 109.089 185.979 106.041 179.763 106.02C173.639 105.998 168.743 108.93 168.743 112.568Z" fill="url(#paint2_linear_3_2)"/>
<path id="Vector_41" d="M156.245 121.226C156.245 124.167 160.135 126.665 164.989 126.807C169.901 126.952 173.927 124.634 173.927 121.628C173.927 118.622 169.901 116.121 164.989 116.042C160.136 115.964 156.245 118.286 156.245 121.226Z" fill="#68A4FF"/>
<path id="Vector_42" d="M157.931 121.265C157.931 123.638 161.075 125.651 164.989 125.761C168.941 125.872 172.173 124.004 172.173 121.588C172.173 119.172 168.941 117.157 164.989 117.089C161.075 117.021 157.931 118.891 157.931 121.265Z" fill="#4389F2"/>
<path id="Vector_43" d="M160.275 121.334C160.275 122.669 162.043 123.8 164.244 123.862C166.467 123.925 168.284 122.875 168.284 121.516C168.284 120.157 166.467 119.024 164.244 118.986C162.043 118.947 160.275 119.999 160.275 121.334Z" fill="#276ED8"/>
<path id="Vector_44" d="M130.205 120.569C130.205 123.403 133.817 125.805 138.32 125.938C142.876 126.072 146.608 123.836 146.608 120.942C146.608 118.048 142.876 115.642 138.32 115.569C133.817 115.497 130.205 117.736 130.205 120.569Z" fill="#68A4FF"/>
<path id="Vector_45" d="M131.769 120.605C131.769 122.891 134.688 124.828 138.32 124.93C141.986 125.032 144.983 123.231 144.983 120.904C144.983 118.578 141.985 116.64 138.32 116.577C134.688 116.514 131.769 118.318 131.769 120.605Z" fill="#4389F2"/>
<path id="Vector_46" d="M133.282 120.664C133.282 121.999 135.05 123.13 137.251 123.193C139.474 123.255 141.291 122.205 141.291 120.846C141.291 119.488 139.474 118.355 137.251 118.316C135.05 118.278 133.282 119.33 133.282 120.664Z" fill="#276ED8"/>
<path id="Vector_47" d="M168.74 108.59C169.494 108.595 170.105 108.228 170.105 107.771V106.317C170.105 105.86 169.494 105.488 168.74 105.486C167.989 105.484 167.38 105.851 167.38 106.307V107.756C167.38 108.212 167.989 108.585 168.74 108.59Z" fill="#5483FC"/>
<path id="Vector_48" d="M135.635 108.346C136.322 108.351 136.879 108.001 136.879 107.565V106.176C136.879 105.74 136.321 105.384 135.635 105.382C134.95 105.38 134.395 105.732 134.395 106.166V107.55C134.395 107.985 134.95 108.342 135.635 108.346Z" fill="url(#paint3_linear_3_2)"/>
<path id="Vector_49" d="M178.591 107.859L180.937 107.873C181.629 107.876 182.19 108.215 182.19 108.628V110.251C182.19 110.398 182.118 110.542 181.981 110.663L180.92 111.606C180.688 111.812 180.297 111.933 179.879 111.929L179.646 111.926C179.228 111.922 178.839 111.793 178.608 111.582L177.555 110.622C177.421 110.499 177.348 110.355 177.348 110.209V108.595C177.349 108.185 177.904 107.855 178.591 107.859Z" fill="url(#paint4_linear_3_2)"/>
<path id="Vector_50" d="M178.591 117.506L180.937 117.547C181.629 117.559 182.19 117.235 182.19 116.821V115.198C182.19 115.051 182.118 114.906 181.981 114.782L180.92 113.813C180.688 113.602 180.297 113.471 179.879 113.466L179.646 113.464C179.228 113.458 178.839 113.578 178.608 113.783L177.555 114.719C177.421 114.839 177.348 114.981 177.348 115.127V116.741C177.349 117.151 177.904 117.494 178.591 117.506Z" fill="url(#paint5_linear_3_2)"/>
<path id="Vector_51" d="M187.924 112.083V113.499C187.924 113.915 187.354 114.244 186.653 114.235L183.908 114.199C183.66 114.195 183.418 114.149 183.212 114.064L181.609 113.41C181.259 113.267 181.049 113.031 181.049 112.781V112.641C181.049 112.391 181.259 112.16 181.609 112.025L183.212 111.408C183.418 111.328 183.66 111.287 183.908 111.29L186.653 111.317C187.355 111.324 187.924 111.667 187.924 112.083Z" fill="url(#paint6_linear_3_2)"/>
<path id="Vector_52" d="M171.761 111.909V113.298C171.761 113.706 172.309 114.044 172.986 114.053L175.658 114.089C175.902 114.092 176.139 114.052 176.342 113.974L177.924 113.364C178.271 113.23 178.48 113.001 178.48 112.751V112.612C178.48 112.362 178.271 112.127 177.924 111.985L176.342 111.339C176.139 111.257 175.902 111.211 175.658 111.208L172.986 111.183C172.309 111.176 171.761 111.501 171.761 111.909Z" fill="url(#paint7_linear_3_2)"/>
<path id="Vector_53" d="M178.067 107.93L180.414 107.944C181.105 107.948 181.667 108.285 181.667 108.699V110.322C181.667 110.469 181.594 110.612 181.458 110.734L180.396 111.677C180.164 111.883 179.774 112.004 179.355 111.999L179.122 111.997C178.704 111.992 178.315 111.863 178.084 111.653L177.032 110.693C176.896 110.57 176.825 110.426 176.825 110.28V108.666C176.825 108.256 177.381 107.926 178.067 107.93Z" fill="#5483FC"/>
<path id="Vector_54" d="M178.067 117.577L180.414 117.618C181.105 117.63 181.667 117.305 181.667 116.892V115.269C181.667 115.121 181.594 114.977 181.458 114.852L180.396 113.884C180.164 113.672 179.774 113.542 179.355 113.537L179.122 113.534C178.704 113.529 178.315 113.649 178.084 113.854L177.032 114.789C176.896 114.91 176.825 115.051 176.825 115.198V116.812C176.825 117.222 177.381 117.565 178.067 117.577Z" fill="#5483FC"/>
<path id="Vector_55" d="M187.4 112.153V113.57C187.4 113.986 186.831 114.315 186.13 114.306L183.385 114.27C183.137 114.266 182.895 114.219 182.688 114.135L181.085 113.481C180.735 113.338 180.525 113.102 180.525 112.851V112.712C180.525 112.462 180.735 112.231 181.085 112.096L182.688 111.479C182.895 111.399 183.137 111.358 183.385 111.361L186.13 111.388C186.831 111.395 187.4 111.737 187.4 112.153Z" fill="#5483FC"/>
<path id="Vector_56" d="M171.237 111.979V113.369C171.237 113.776 171.785 114.115 172.462 114.124L175.135 114.159C175.378 114.162 175.615 114.123 175.818 114.044L177.4 113.435C177.747 113.301 177.955 113.071 177.955 112.822V112.683C177.955 112.433 177.747 112.198 177.4 112.056L175.818 111.41C175.615 111.327 175.378 111.282 175.135 111.279L172.462 111.253C171.785 111.246 171.237 111.572 171.237 111.979Z" fill="#5483FC"/>
<path id="Vector_57" d="M134.624 112.136C134.624 115.605 130.222 118.331 124.859 118.225C119.572 118.12 115.34 115.295 115.34 111.912C115.34 108.529 119.572 105.801 124.859 105.82C130.222 105.838 134.624 108.666 134.624 112.136Z" fill="url(#paint8_linear_3_2)"/>
<path id="Vector_58" d="M122.412 108.11C122.412 108.98 123.505 109.694 124.86 109.706C126.218 109.718 127.324 109.018 127.324 108.142C127.324 107.266 126.218 106.552 124.86 106.546C123.505 106.54 122.412 107.24 122.412 108.11Z" fill="url(#paint9_linear_3_2)"/>
<path id="Vector_59" d="M122.412 115.877C122.412 116.747 123.505 117.473 124.86 117.498C126.218 117.524 127.324 116.835 127.324 115.96C127.324 115.084 126.218 114.358 124.86 114.338C123.505 114.318 122.412 115.007 122.412 115.877Z" fill="url(#paint10_linear_3_2)"/>
<path id="Vector_60" d="M130.963 110.5C129.588 110.487 128.476 111.187 128.476 112.064C128.476 112.941 129.588 113.667 130.963 113.686C132.344 113.705 133.467 113.005 133.467 112.122C133.467 111.239 132.344 110.513 130.963 110.5Z" fill="url(#paint11_linear_3_2)"/>
<path id="Vector_61" d="M118.852 110.385C117.52 110.372 116.442 111.061 116.442 111.925C116.442 112.787 117.52 113.502 118.852 113.52C120.19 113.538 121.278 112.849 121.278 111.981C121.278 111.112 120.19 110.397 118.852 110.385Z" fill="url(#paint12_linear_3_2)"/>
<path id="Vector_62" d="M121.888 108.181C121.888 109.051 122.982 109.766 124.335 109.777C125.694 109.789 126.799 109.088 126.799 108.212C126.799 107.337 125.694 106.622 124.335 106.616C122.982 106.611 121.888 107.311 121.888 108.181Z" fill="#5483FC"/>
<path id="Vector_63" d="M121.888 115.948C121.888 116.818 122.982 117.544 124.335 117.569C125.694 117.594 126.799 116.906 126.799 116.03C126.799 115.155 125.694 114.429 124.335 114.409C122.982 114.389 121.888 115.078 121.888 115.948Z" fill="#5483FC"/>
<path id="Vector_64" d="M130.44 110.571C129.064 110.558 127.952 111.258 127.952 112.135C127.952 113.011 129.064 113.737 130.44 113.757C131.82 113.776 132.943 113.075 132.943 112.193C132.943 111.31 131.82 110.584 130.44 110.571Z" fill="#5483FC"/>
<path id="Vector_65" d="M118.329 110.455C116.996 110.442 115.919 111.132 115.919 111.995C115.919 112.858 116.996 113.572 118.329 113.591C119.666 113.609 120.753 112.92 120.753 112.051C120.753 111.183 119.665 110.468 118.329 110.455Z" fill="#5483FC"/>
<path id="Vector_66" d="M158.776 135.843H139.869C139.125 135.843 138.516 135.478 138.516 135.023C138.516 134.571 139.118 134.203 139.869 134.203H158.776C159.52 134.203 160.129 134.567 160.129 135.023C160.129 135.474 159.52 135.843 158.776 135.843Z" fill="#66D6A0"/>
<path id="Vector_67" d="M158.776 139.936H139.869C139.125 139.936 138.516 139.571 138.516 139.115C138.516 138.664 139.118 138.295 139.869 138.295H158.776C159.52 138.295 160.129 138.66 160.129 139.115C160.129 139.567 159.52 139.936 158.776 139.936Z" fill="#66D6A0"/>
</g>
</g>
</g>
</g>
</g>
</g>
</g>
<defs>
<filter id="filter0_d_3_2" x="56.6691" y="68.1646" width="76.7205" height="46.2951" filterUnits="userSpaceOnUse" color-interpolation-filters="sRGB">
<feFlood flood-opacity="0" result="BackgroundImageFix"/>
<feColorMatrix in="SourceAlpha" type="matrix" values="0 0 0 0 0 0 0 0 0 0 0 0 0 0 0 0 0 0 127 0" result="hardAlpha"/>
<feOffset dy="4"/>
<feGaussianBlur stdDeviation="5"/>
<feColorMatrix type="matrix" values="0 0 0 0 0.0901961 0 0 0 0 0.0392157 0 0 0 0 0.396078 0 0 0 0.25 0"/>
<feBlend mode="normal" in2="BackgroundImageFix" result="effect1_dropShadow_3_2"/>
<feBlend mode="normal" in="SourceGraphic" in2="effect1_dropShadow_3_2" result="shape"/>
</filter>
<filter id="filter1_d_3_2" x="104.477" y="33.2405" width="65.3221" height="39.7733" filterUnits="userSpaceOnUse" color-interpolation-filters="sRGB">
<feFlood flood-opacity="0" result="BackgroundImageFix"/>
<feColorMatrix in="SourceAlpha" type="matrix" values="0 0 0 0 0 0 0 0 0 0 0 0 0 0 0 0 0 0 127 0" result="hardAlpha"/>
<feOffset dy="4"/>
<feGaussianBlur stdDeviation="5"/>
<feColorMatrix type="matrix" values="0 0 0 0 0.0901961 0 0 0 0 0.0392157 0 0 0 0 0.396078 0 0 0 0.25 0"/>
<feBlend mode="normal" in2="BackgroundImageFix" result="effect1_dropShadow_3_2"/>
<feBlend mode="normal" in="SourceGraphic" in2="effect1_dropShadow_3_2" result="shape"/>
</filter>
<filter id="filter2_d_3_2" x="29.4836" y="101.911" width="61.4254" height="45.1139" filterUnits="userSpaceOnUse" color-interpolation-filters="sRGB">
<feFlood flood-opacity="0" result="BackgroundImageFix"/>
<feColorMatrix in="SourceAlpha" type="matrix" values="0 0 0 0 0 0 0 0 0 0 0 0 0 0 0 0 0 0 127 0" result="hardAlpha"/>
<feOffset dy="4"/>
<feGaussianBlur stdDeviation="5"/>
<feColorMatrix type="matrix" values="0 0 0 0 0.0885677 0 0 0 0 0.0395834 0 0 0 0 0.395833 0 0 0 0.25 0"/>
<feBlend mode="normal" in2="BackgroundImageFix" result="effect1_dropShadow_3_2"/>
<feBlend mode="normal" in="SourceGraphic" in2="effect1_dropShadow_3_2" result="shape"/>
</filter>
<filter id="filter3_d_3_2" x="-1.58545" y="87" width="51.0691" height="38.8354" filterUnits="userSpaceOnUse" color-interpolation-filters="sRGB">
<feFlood flood-opacity="0" result="BackgroundImageFix"/>
<feColorMatrix in="SourceAlpha" type="matrix" values="0 0 0 0 0 0 0 0 0 0 0 0 0 0 0 0 0 0 127 0" result="hardAlpha"/>
<feOffset dy="4"/>
<feGaussianBlur stdDeviation="5"/>
<feColorMatrix type="matrix" values="0 0 0 0 0.0885677 0 0 0 0 0.0395834 0 0 0 0 0.395833 0 0 0 0.25 0"/>
<feBlend mode="normal" in2="BackgroundImageFix" result="effect1_dropShadow_3_2"/>
<feBlend mode="normal" in="SourceGraphic" in2="effect1_dropShadow_3_2" result="shape"/>
</filter>
<linearGradient id="paint0_linear_3_2" x1="176.474" y1="102.592" x2="160.368" y2="151.791" gradientUnits="userSpaceOnUse">
<stop stop-color="#276ED8"/>
<stop offset="0.9964" stop-color="#84B5FF"/>
</linearGradient>
<linearGradient id="paint1_linear_3_2" x1="143.694" y1="114.975" x2="151.38" y2="100.409" gradientUnits="userSpaceOnUse">
<stop stop-color="#84B5FF"/>
<stop offset="0.9964" stop-color="#276ED8"/>
</linearGradient>
<linearGradient id="paint2_linear_3_2" x1="173.635" y1="118.914" x2="180.501" y2="100.537" gradientUnits="userSpaceOnUse">
<stop stop-color="#84B5FF"/>
<stop offset="0.805159" stop-color="#276ED8"/>
</linearGradient>
<linearGradient id="paint3_linear_3_2" x1="140.946" y1="97.4868" x2="139.618" y2="103.834" gradientUnits="userSpaceOnUse">
<stop stop-color="#AA80F9"/>
<stop offset="0.9964" stop-color="#6165D7"/>
</linearGradient>
<linearGradient id="paint4_linear_3_2" x1="168.548" y1="116.141" x2="170.026" y2="113.804" gradientUnits="userSpaceOnUse">
<stop stop-color="#AA80F9"/>
<stop offset="0.9964" stop-color="#6165D7"/>
</linearGradient>
<linearGradient id="paint5_linear_3_2" x1="173.667" y1="119.379" x2="175.145" y2="117.042" gradientUnits="userSpaceOnUse">
<stop stop-color="#AA80F9"/>
<stop offset="0.9964" stop-color="#6165D7"/>
</linearGradient>
<linearGradient id="paint6_linear_3_2" x1="173.677" y1="119.386" x2="175.156" y2="117.049" gradientUnits="userSpaceOnUse">
<stop stop-color="#AA80F9"/>
<stop offset="0.9964" stop-color="#6165D7"/>
</linearGradient>
<linearGradient id="paint7_linear_3_2" x1="168.571" y1="116.156" x2="170.05" y2="113.819" gradientUnits="userSpaceOnUse">
<stop stop-color="#AA80F9"/>
<stop offset="0.9964" stop-color="#6165D7"/>
</linearGradient>
<linearGradient id="paint8_linear_3_2" x1="119.098" y1="117.867" x2="123.9" y2="105.277" gradientUnits="userSpaceOnUse">
<stop stop-color="#84B5FF"/>
<stop offset="0.9964" stop-color="#276ED8"/>
</linearGradient>
<linearGradient id="paint9_linear_3_2" x1="111.593" y1="116.196" x2="113.572" y2="112.941" gradientUnits="userSpaceOnUse">
<stop stop-color="#AA80F9"/>
<stop offset="0.9964" stop-color="#6165D7"/>
</linearGradient>
<linearGradient id="paint10_linear_3_2" x1="118.002" y1="120.092" x2="119.981" y2="116.837" gradientUnits="userSpaceOnUse">
<stop stop-color="#AA80F9"/>
<stop offset="0.9964" stop-color="#6165D7"/>
</linearGradient>
<linearGradient id="paint11_linear_3_2" x1="117.908" y1="120.036" x2="119.887" y2="116.78" gradientUnits="userSpaceOnUse">
<stop stop-color="#AA80F9"/>
<stop offset="0.9964" stop-color="#6165D7"/>
</linearGradient>
<linearGradient id="paint12_linear_3_2" x1="111.736" y1="116.283" x2="113.715" y2="113.028" gradientUnits="userSpaceOnUse">
<stop stop-color="#AA80F9"/>
<stop offset="0.9964" stop-color="#6165D7"/>
</linearGradient>
<clipPath id="clip0_3_2">
<rect width="356" height="155" fill="white"/>
</clipPath>
</defs>
</svg>
