<svg width="542" height="383" viewBox="0 0 542 383" fill="none" xmlns="http://www.w3.org/2000/svg">
<g id="robot 1" clip-path="url(#clip0_1_2)">
<rect width="542" height="383" fill="white"/>
<g id="Mask group">
<mask id="mask0_1_2" style="mask-type:alpha" maskUnits="userSpaceOnUse" x="0" y="0" width="542" height="383">
<g id="Group">
<path id="Vector" d="M542 0H0V383H542V0Z" fill="#C4C4C4"/>
</g>
</mask>
<g mask="url(#mask0_1_2)">
<g id="Group_2">
<path id="Vector_2" opacity="0.04" d="M75.4236 309.834C39.5956 376.099 286.525 382.823 339.526 358.8C392.526 334.778 403.889 243.256 385.349 213.842C379.568 204.723 456.753 267.669 453.346 257.207C445.924 234.318 456.528 131.678 443.491 112.032C432.221 95.026 323.712 125.666 308.976 112.032C302.523 106.133 235.56 22.3422 155.738 34.9473C97.424 44.1559 21.2264 95.8476 5.45599 137.727C-10.3144 179.607 140.955 188.632 75.4236 309.834Z" fill="#276ED8"/>
</g>
</g>
</g>
<path id="gear1" class="gear1" opacity="0.2" d="M189.085 173.194L201.033 170.983V160.443L189.085 158.417C188.168 154.086 186.426 150.033 184.03 146.441L190.884 136.546L183.299 129.084L173.393 135.975C169.742 133.617 165.64 131.922 161.221 131.019L158.974 119.263H148.263L146.203 131.019C141.802 131.922 137.683 133.635 134.031 135.993L123.994 129.249L116.41 136.712L123.413 146.459C121.017 150.052 119.293 154.105 118.376 158.435L106.429 160.646V171.185L118.376 173.212C119.293 177.561 121.035 181.595 123.432 185.189L116.578 195.064L124.162 202.527L134.087 195.635C137.739 197.994 141.858 199.707 146.259 200.591L148.506 212.347H159.218L161.278 200.591C165.696 199.688 169.798 197.975 173.449 195.617L183.487 202.361L191.071 194.899L184.067 185.151C186.445 181.577 188.168 177.542 189.085 173.194ZM153.731 187.639C141.484 187.639 131.559 177.855 131.559 165.823C131.559 153.791 141.484 144.008 153.731 144.008C165.977 144.008 175.903 153.773 175.903 165.823C175.903 177.874 165.977 187.639 153.731 187.639Z" fill="#84B5FF"/>
<path id="Vector_3" d="M333.261 156.731V261.71C333.261 264.41 331.039 266.596 328.295 266.596H165.595C162.851 266.596 160.629 264.41 160.629 261.71V156.731C160.629 150.503 165.763 145.443 172.102 145.443H321.788C328.127 145.443 333.261 150.503 333.261 156.731Z" fill="white" stroke="#84B5FF" stroke-miterlimit="10"/>
<path id="Vector_4" d="M330.019 286.038C319.192 286.038 310.418 294.671 310.418 305.324C310.418 315.976 319.192 324.608 330.019 324.608C340.845 324.608 349.619 315.976 349.619 305.324C349.619 294.671 340.845 286.038 330.019 286.038ZM330.019 319.803C321.882 319.803 315.292 313.319 315.292 305.314C315.292 297.309 321.882 290.825 330.019 290.825C338.155 290.825 344.745 297.309 344.745 305.314C344.745 313.319 338.155 319.803 330.019 319.803Z" fill="#66D6A0"/>
<path id="Vector_5" d="M208.692 90.1514H181.312C180.234 90.1514 179.353 89.2937 179.353 88.2238C179.353 87.1631 180.225 86.2962 181.312 86.2962H208.692C209.77 86.2962 210.651 87.1539 210.651 88.2238C210.651 89.2845 209.77 90.1514 208.692 90.1514Z" fill="#66D6A0"/>
<path id="Vector_6" d="M208.692 99.771H181.312C180.234 99.771 179.353 98.9139 179.353 97.8434C179.353 96.7829 180.225 95.9159 181.312 95.9159H208.692C209.77 95.9159 210.651 96.7737 210.651 97.8434C210.651 98.9042 209.77 99.771 208.692 99.771Z" fill="#66D6A0"/>
<path id="Vector_7" d="M333.261 156.731V157.205H160.629V156.731C160.629 150.503 165.763 145.443 172.102 145.443H321.788C328.127 145.443 333.261 150.503 333.261 156.731Z" fill="#84B5FF"/>
<path id="Vector_8" opacity="0.3" d="M307.043 151.869C307.043 152.681 306.377 153.337 305.551 153.337C304.724 153.337 304.059 152.681 304.059 151.869C304.059 151.055 304.724 150.401 305.551 150.401C306.369 150.401 307.043 151.055 307.043 151.869Z" fill="white"/>
<path id="Vector_9" opacity="0.3" d="M315.209 151.869C315.209 152.681 314.544 153.337 313.717 153.337C312.892 153.337 312.226 152.681 312.226 151.869C312.226 151.055 312.892 150.401 313.717 150.401C314.535 150.401 315.209 151.055 315.209 151.869Z" fill="white"/>
<path id="Vector_10" opacity="0.3" d="M323.016 151.869C323.016 152.681 322.35 153.337 321.524 153.337C320.697 153.337 320.031 152.681 320.031 151.869C320.031 151.055 320.697 150.401 321.524 150.401C322.35 150.401 323.016 151.055 323.016 151.869Z" fill="white"/>
<path id="Vector_11" d="M333.261 156.731V261.71C333.261 264.41 331.039 266.596 328.295 266.596H165.595C162.851 266.596 160.629 264.41 160.629 261.71V156.731C160.629 150.503 165.763 145.443 172.102 145.443H321.788C328.127 145.443 333.261 150.503 333.261 156.731Z" stroke="#84B5FF" stroke-miterlimit="10"/>
<g id="robot" class="robot">
<path id="Vector_12" opacity="0.5" d="M246.7 305.643C262.124 305.692 274.636 303.145 274.647 299.953C274.658 296.761 262.162 294.133 246.738 294.083C231.314 294.033 218.8 296.581 218.791 299.773C218.78 302.965 231.275 305.593 246.7 305.643Z" fill="url(#paint0_radial_1_2)"/>
<path id="Vector_13" d="M247.18 280.266C247.189 283.698 245.963 291.842 243.483 291.427C242.947 291.34 242.306 290.808 241.62 289.979C239.526 287.467 236.981 282.264 235.544 278.7C234.763 276.755 234.302 275.297 234.432 275.023C235.203 273.346 246.258 278.178 246.974 278.803C247.104 278.925 247.18 279.466 247.18 280.266Z" fill="#84B5FF"/>
<path id="Vector_14" d="M234.428 275.023C233.581 276.604 243.629 281.392 247.095 279.11C247.095 279.11 235.549 272.927 234.428 275.023Z" fill="#276ED8"/>
<path id="Vector_15" d="M259.155 276.569C259.07 276.871 258.97 277.188 258.874 277.515C257.351 282.484 254.698 289.721 252.699 292.193C252.223 292.788 251.782 293.105 251.406 293.056C251.307 293.046 251.206 293.011 251.111 292.968C250.776 292.817 250.449 292.48 250.139 292.007V292.002C248.196 289.057 246.793 280.812 247.079 278.461C247.114 278.169 247.174 277.969 247.264 277.881C248.897 276.306 259.631 271.732 260.057 272.536C260.167 272.751 259.801 274.35 259.155 276.569Z" fill="#84B5FF"/>
<path id="Vector_16" d="M247.08 278.461C246.669 279.129 257.258 279.075 260.058 272.536C260.058 272.536 250.962 272.185 247.08 278.461Z" fill="#276ED8"/>
<path id="Vector_17" d="M229.96 206.648C230.541 206.95 230.491 207.56 229.294 207.409C228.097 207.257 227.446 206.341 227.576 206.166C227.701 205.99 229.309 206.307 229.96 206.648Z" fill="white"/>
<path id="Vector_18" d="M259.917 269.337C258.965 274.819 253.921 278.476 246.694 278.476C240.403 278.476 235.068 276.193 233.661 271.161C232.253 266.138 232.799 256.845 234.677 251.056C234.958 250.193 235.299 249.359 235.689 248.57L235.694 248.56C236.05 247.843 236.446 247.16 236.882 246.521C236.887 246.516 236.887 246.511 236.887 246.511C239.181 243.147 242.541 240.948 246.343 240.948C250.3 240.948 253.325 242.533 255.384 244.874C256.34 245.961 257.091 247.219 257.627 248.551C258.248 250.086 258.77 251.714 259.18 253.392C259.18 253.402 259.185 253.422 259.19 253.441C260.492 258.702 260.768 264.437 259.917 269.337Z" fill="#84B5FF"/>
<path id="Vector_19" opacity="0.3" d="M259.917 269.337C258.965 274.819 253.921 278.476 246.694 278.476C240.403 278.476 235.068 276.193 233.661 271.161C232.253 266.138 232.799 256.845 234.677 251.056C234.958 250.193 235.299 249.359 235.689 248.57L235.694 248.56C235.694 248.56 231.887 260.848 234.928 268.674C237.973 276.501 252.148 276.335 256.946 271.137C261.514 266.188 259.4 254.562 259.19 253.451C260.492 258.702 260.768 264.437 259.917 269.337Z" fill="#0D6EB7"/>
<path id="Vector_20" d="M233.932 266.08C235.009 258.722 241.07 253.733 247.806 254.353C255.063 255.021 258.966 261.764 258.865 267.553C258.76 273.341 254.418 277.861 246.624 277.861C238.831 277.861 232.925 272.966 233.932 266.08Z" fill="#84B5FF"/>
<path id="Vector_21" d="M234.002 266.69C235.079 259.332 241.14 254.343 247.876 254.963C255.133 255.631 259.036 262.374 258.935 268.162C258.83 273.951 254.488 278.471 246.694 278.471C238.906 278.476 232.995 273.575 234.002 266.69Z" fill="url(#paint1_radial_1_2)"/>
<path id="Vector_22" opacity="0.5" d="M255.384 244.873C253.846 247.224 245.366 248.594 240.469 248.16C236.201 247.78 236.852 246.658 236.882 246.516C236.887 246.511 236.887 246.507 236.887 246.507C239.181 243.142 242.542 240.943 246.344 240.943C250.301 240.948 253.326 242.533 255.384 244.873Z" fill="#276ED8"/>
<path id="Vector_23" d="M224.354 236.622C229.153 247.4 265.071 244.039 269.363 235.184C274.056 225.5 263.262 201.571 246.052 202.688C231.512 203.635 218.189 222.769 224.354 236.622Z" fill="#84B5FF"/>
<path id="Vector_24" d="M226.337 235.101C230.925 243.942 262.281 242.479 266.858 234.355C270.745 227.455 261.564 206.443 245.812 207.189C230.059 207.94 221.93 226.617 226.337 235.101Z" fill="#276ED8"/>
<path id="Vector_25" d="M260.378 224.685C259.762 226.295 251.492 226.11 251.503 225.529C251.552 222.315 253.321 218.093 256.621 218.122C260.027 218.151 261.53 221.686 260.378 224.685Z" fill="#66D6A0"/>
<path id="Vector_26" d="M232.514 224.9C233.226 226.475 241.47 225.836 241.425 225.256C241.189 222.047 239.186 217.932 235.89 218.141C232.489 218.356 231.192 221.969 232.514 224.9Z" fill="#66D6A0"/>
<path id="Vector_27" d="M241.569 230.849C240.328 231.142 242.926 235.184 247.099 235.184C250.8 235.184 252.889 231.029 252.418 230.849C251.947 230.669 249.729 231.786 246.639 231.786C243.548 231.786 242.091 230.727 241.569 230.849Z" fill="#84B5FF"/>
<path id="Vector_28" d="M236.436 249.013C236.426 251.954 236.001 256.201 234.633 259.633C232.364 265.319 228.959 272.473 228.858 272.697L228.853 272.702C226.775 273.936 224.28 273.872 222.697 273.648C221.735 273.511 221.109 273.317 221.109 273.317C221.109 273.317 221.816 266.807 225.492 259.429C227.335 255.723 229.69 252.276 231.718 249.734C231.728 249.725 231.738 249.71 231.748 249.7C231.768 249.667 231.798 249.637 231.823 249.604C231.838 249.583 231.853 249.569 231.864 249.549C231.878 249.535 231.893 249.515 231.898 249.501C231.918 249.476 231.934 249.457 231.953 249.438C231.958 249.433 231.963 249.428 231.963 249.428C231.968 249.423 231.973 249.417 231.973 249.417C234.032 246.872 235.705 245.331 236.056 245.517C236.261 245.624 236.446 247.014 236.436 249.013Z" fill="#276ED8"/>
<path id="Vector_29" d="M221.14 273.058C221.14 273.058 223.819 268.753 226.584 269.313C229.349 269.873 228.853 272.702 228.853 272.702C228.853 272.702 225.316 275.194 221.14 273.058Z" fill="#84B5FF"/>
<path id="Vector_30" d="M236.436 249.013C236.426 251.954 236.001 256.201 234.633 259.633C232.364 265.319 228.959 272.473 228.858 272.697L228.853 272.702L222.697 273.648C221.735 273.511 221.109 273.317 221.109 273.317C221.109 273.317 221.816 266.807 225.492 259.429C227.335 255.723 229.69 252.276 231.718 249.734C230.556 251.227 225.703 257.717 224.395 263.233C222.908 269.508 228.903 267.09 231.357 263.233C233.807 259.375 236.366 249.018 236.366 249.018H236.436V249.013Z" fill="#84B5FF"/>
<path id="Vector_31" d="M221.103 273.312C221.103 273.312 222.757 271.034 225.146 270.728C227.536 270.425 228.392 271.069 228.847 272.697C229.308 274.331 225.917 280.276 221.71 284.756C219.891 284.903 219.345 282.733 219.08 281.338C219.085 280.119 220.288 275.228 221.103 273.312Z" fill="#84B5FF"/>
<path id="Vector_32" d="M226.91 270.712C226.91 270.712 222.427 276.774 221.005 280.26C220.238 282.143 219.798 283.376 219.798 283.376C219.798 283.376 220.965 286.248 222.893 283.845C225.628 280.44 229.295 275.321 228.628 272.858C228.067 270.776 227.691 270.381 226.91 270.712Z" fill="#276ED8"/>
<path id="Vector_33" opacity="0.5" d="M223.133 276.296C223.133 276.296 223.758 279.529 225.767 280.012L226.083 272.254C226.083 272.249 223.734 275.297 223.133 276.296Z" fill="#84B5FF"/>
<path id="Vector_34" d="M225.097 274.097C224.796 274.843 225.377 279.729 225.923 280.285C226.469 280.836 227.732 279.904 228.081 278.915C228.432 277.925 230.01 272.531 227.982 270.8C227.982 270.796 226.349 270.971 225.097 274.097Z" fill="#84B5FF"/>
<path id="Vector_35" d="M256.935 249.333C256.944 252.274 257.37 256.521 258.738 259.953C261.006 265.639 264.412 272.793 264.513 273.017L264.518 273.022C266.596 274.256 269.09 274.192 270.674 273.968C271.635 273.831 272.261 273.637 272.261 273.637C272.261 273.637 271.555 267.126 267.878 259.749C266.035 256.043 263.681 252.595 261.653 250.054C261.643 250.045 261.632 250.03 261.622 250.02C261.603 249.987 261.572 249.957 261.547 249.923C261.533 249.903 261.517 249.889 261.507 249.869C261.492 249.855 261.478 249.835 261.473 249.821C261.452 249.796 261.437 249.777 261.417 249.758C261.412 249.753 261.408 249.748 261.408 249.748C261.403 249.742 261.397 249.737 261.397 249.737C259.339 247.192 257.666 245.651 257.315 245.837C257.11 245.944 256.925 247.334 256.935 249.333Z" fill="#276ED8"/>
<path id="Vector_36" d="M272.231 273.378C272.231 273.378 269.551 269.073 266.786 269.633C264.022 270.193 264.518 273.022 264.518 273.022C264.518 273.022 268.053 275.514 272.231 273.378Z" fill="#84B5FF"/>
<path id="Vector_37" d="M256.935 249.333C256.944 252.274 257.37 256.521 258.738 259.953C261.007 265.639 264.412 272.793 264.513 273.017L264.518 273.022L270.674 273.968C271.635 273.831 272.261 273.637 272.261 273.637C272.261 273.637 271.555 267.126 267.878 259.749C266.035 256.043 263.681 252.595 261.653 250.054C262.815 251.547 267.668 258.037 268.976 263.552C270.463 269.828 264.467 267.41 262.014 263.552C259.564 259.695 257.005 249.338 257.005 249.338H256.935V249.333Z" fill="#84B5FF"/>
<path id="Vector_38" d="M272.266 273.632C272.266 273.632 270.614 271.354 268.225 271.048C265.835 270.745 264.979 271.389 264.524 273.017C264.062 274.651 267.453 280.595 271.66 285.076C273.478 285.223 274.024 283.053 274.29 281.658C274.286 280.439 273.083 275.548 272.266 273.632Z" fill="#84B5FF"/>
<path id="Vector_39" d="M266.46 271.032C266.46 271.032 270.943 277.093 272.366 280.58C273.133 282.462 273.573 283.696 273.573 283.696C273.573 283.696 272.406 286.568 270.478 284.165C267.743 280.76 264.076 275.641 264.742 273.178C265.303 271.096 265.68 270.7 266.46 271.032Z" fill="#276ED8"/>
<path id="Vector_40" opacity="0.5" d="M270.238 276.616C270.238 276.616 269.611 279.849 267.603 280.332L267.288 272.574C267.288 272.569 269.637 275.617 270.238 276.616Z" fill="#84B5FF"/>
<path id="Vector_41" d="M268.274 274.417C268.575 275.163 267.993 280.049 267.447 280.605C266.901 281.156 265.639 280.224 265.288 279.234C264.938 278.245 263.361 272.851 265.389 271.12C265.389 271.116 267.022 271.291 268.274 274.417Z" fill="#84B5FF"/>
</g>
<g id="pincer" class="pincer">
<path id="Vector_42" d="M238.037 193.633L235.885 192.17L236.922 190.132L234.44 188.662L235.314 186.765L233.114 185.449L234.063 183.135L232.177 181.487L230.032 182.68L234.265 194.987L238.037 193.633Z" fill="#06B25F"/>
<path id="Vector_43" d="M217.079 171.187L229.639 192.014L232.64 190.248L227.191 174.333L217.079 171.187Z" fill="#66D6A0"/>
<path id="Vector_44" d="M230.439 154.876C230.734 154.988 237.264 159.855 237.104 159.995C236.946 160.138 226.685 175.295 226.685 175.295L217.862 169.605L230.439 154.876Z" fill="#66D6A0"/>
<path id="Vector_45" d="M225.673 176.709C223.503 178.652 220.147 178.501 218.177 176.371C216.206 174.241 216.367 170.94 218.537 168.998C220.708 167.056 224.064 167.206 226.034 169.336C228.005 171.462 227.844 174.762 225.673 176.709Z" fill="#06B25F"/>
<path id="Vector_46" d="M223.937 174.832C222.918 175.742 221.348 175.672 220.425 174.672C219.502 173.676 219.577 172.128 220.595 171.218C221.614 170.308 223.185 170.378 224.107 171.377C225.028 172.375 224.954 173.92 223.937 174.832Z" fill="#66D6A0"/>
<path id="Vector_47" d="M252.766 191.138L255.05 189.87L254.21 187.75L256.821 186.503L256.132 184.54L258.446 183.418L257.722 181.03L259.757 179.552L261.78 180.933L256.395 192.817L252.766 191.138Z" fill="#06B25F"/>
<path id="Vector_48" d="M275.774 170.622L261.28 190.261L258.466 188.241L265.402 172.869L275.774 170.622Z" fill="#66D6A0"/>
<path id="Vector_49" d="M241.628 106.85L252.962 115.458L250.956 148.598L240.107 150.294L241.628 106.85Z" fill="#66D6A0"/>
<path id="Vector_50" d="M264.019 153.207C263.714 153.294 256.751 157.565 256.896 157.721C257.041 157.876 265.819 173.871 265.819 173.871L275.144 168.978L264.019 153.207Z" fill="#66D6A0"/>
<path id="Vector_51" d="M230.599 153.549C234.137 147.203 258.26 145.695 262.516 151.177C266.397 156.177 264.505 159.423 261.959 160.732C257.899 162.815 257.033 155.61 253.037 155.816C249.042 156.022 244.247 156.353 240.677 156.708C236.697 157.105 236.928 164.356 232.6 162.912C229.884 162.002 227.521 159.075 230.599 153.549Z" fill="#06B25F"/>
<path id="Vector_52" d="M266.687 175.366C268.663 177.493 272.02 177.634 274.186 175.686C276.353 173.739 276.504 170.438 274.529 168.312C272.551 166.187 269.197 166.044 267.03 167.992C264.866 169.941 264.712 173.24 266.687 175.366Z" fill="#06B25F"/>
<path id="Vector_53" d="M231.146 159.455C231.964 160.535 233.522 160.76 234.623 159.953C235.724 159.146 235.956 157.614 235.138 156.533C234.317 155.45 232.761 155.227 231.661 156.034C230.558 156.839 230.328 158.369 231.146 159.455Z" fill="#66D6A0"/>
<path id="Vector_54" d="M268.596 173.65C269.523 174.643 271.096 174.711 272.11 173.801C273.122 172.888 273.194 171.342 272.27 170.346C271.345 169.353 269.772 169.285 268.758 170.196C267.741 171.108 267.668 172.654 268.596 173.65Z" fill="#66D6A0"/>
<path id="Vector_55" d="M258.003 156.86C258.822 157.941 260.38 158.166 261.48 157.359C262.581 156.552 262.813 155.019 261.995 153.939C261.177 152.858 259.619 152.633 258.518 153.439C257.415 154.244 257.183 155.777 258.003 156.86Z" fill="#66D6A0"/>
</g>
<path id="Vector_56" d="M248.731 98.6084H327.439V100.459H248.731V98.6084Z" fill="#66D6A0"/>
<path id="Vector_57" d="M323.214 96.0197H330.881V110.702H323.214V96.0197Z" fill="#66D6A0"/>
<path id="Vector_58" d="M243.29 95.0228H250.956V109.705H243.29V95.0228Z" fill="#66D6A0"/>
<path id="Vector_59" d="M328.876 106.931L319.966 121.887L248.734 120.085L245.229 106.425L328.876 106.931Z" fill="#66D6A0"/>
<path id="Vector_60" d="M413.135 200.187C411.182 202.162 369.566 182.47 369.566 182.47L349.837 198.54L412.129 248.546L413.135 200.187Z" fill="#66D6A0"/>
<path id="Vector_61" d="M369.566 182.47L332.366 107.74L319.966 121.887L349.837 198.54L369.566 182.47Z" fill="#66D6A0"/>
<path id="Vector_62" d="M407.772 191.422V247.769C407.772 250.377 409.926 252.492 412.583 252.492H441.939C444.596 252.492 446.75 250.377 446.75 247.769V191.422C446.75 188.814 444.596 186.699 441.939 186.699H412.583C409.926 186.699 407.772 188.814 407.772 191.422Z" fill="#66D6A0"/>
<path id="Vector_63" d="M360.502 203.836C352.958 203.836 346.843 197.834 346.843 190.429C346.843 183.024 352.958 177.021 360.502 177.021C368.045 177.021 374.16 183.024 374.16 190.429C374.16 197.834 368.045 203.836 360.502 203.836Z" fill="#06B25F"/>
<path id="Vector_64" d="M317.368 115.915C317.368 121.158 321.696 125.407 327.036 125.407C332.376 125.407 336.704 121.158 336.704 115.915C336.704 110.673 332.376 106.425 327.036 106.425C321.696 106.425 317.368 110.673 317.368 115.915Z" fill="#06B25F"/>
<path id="Vector_65" d="M444.128 185.597V252.442C444.128 255.467 446.474 257.919 449.367 257.919V180.12C446.474 180.12 444.128 182.572 444.128 185.597Z" fill="#06B25F"/>
<path id="Vector_66" d="M361.942 183.737C361.942 182.75 330.021 115.915 330.021 115.915L325.496 117.362L353.144 187.684L361.942 183.737Z" fill="#06B25F"/>
<path id="Vector_67" d="M322.361 115.909C322.361 118.451 324.46 120.508 327.046 120.508C329.632 120.508 331.731 118.448 331.731 115.909C331.731 113.368 329.632 111.31 327.046 111.31C324.46 111.31 322.361 113.368 322.361 115.909Z" fill="#66D6A0"/>
<path id="Vector_68" d="M239.092 113.756C239.092 118.109 242.687 121.642 247.124 121.642C251.56 121.642 255.158 118.113 255.158 113.756C255.158 109.402 251.563 105.871 247.124 105.871C242.69 105.871 239.092 109.399 239.092 113.756Z" fill="#06B25F"/>
<path id="Vector_69" d="M319.967 111.995L253.277 111.307V114.486L319.967 118.266V111.995Z" fill="#06B25F"/>
<path id="Vector_70" d="M243.533 113.227C243.533 115.173 245.14 116.75 247.121 116.75C249.104 116.75 250.709 115.173 250.709 113.227C250.709 111.281 249.104 109.705 247.121 109.705C245.143 109.705 243.533 111.281 243.533 113.227Z" fill="#66D6A0"/>
<path id="Vector_71" d="M354.764 190.911C354.764 194.068 357.369 196.624 360.584 196.624C363.799 196.624 366.405 194.068 366.405 190.911C366.405 187.755 363.799 185.197 360.584 185.197C357.369 185.197 354.764 187.755 354.764 190.911Z" fill="#66D6A0"/>
<g id="sqr_blue" class="sqr_blue">
<g id="Group_3" filter="url(#filter0_d_1_2)">
<path id="Vector_72" d="M176.396 231.739H131.065C127.8 231.739 125.153 234.344 125.153 237.557V281.19C125.153 284.403 127.8 287.008 131.065 287.008H176.396C179.662 287.008 182.309 284.403 182.309 281.19V237.557C182.309 234.344 179.662 231.739 176.396 231.739Z" fill="#276ED8"/>
</g>
<g id="Clip path group">
<mask id="mask1_1_2" style="mask-type:luminance" maskUnits="userSpaceOnUse" x="137" y="243" width="33" height="32">
<g id="clip0_46_3127">
<path id="Vector_73" d="M169.498 274.403H137.964V243.375H169.498V274.403Z" fill="white"/>
</g>
</mask>
<g mask="url(#mask1_1_2)">
<g id="Group_4">
<path id="Vector_74" d="M137.964 258.889C137.964 257.437 141.444 255.548 147.419 254.731C147.303 256.075 147.244 257.468 147.244 258.889C147.244 260.308 147.303 261.702 147.419 263.046C141.444 262.229 137.964 260.34 137.964 258.889Z" fill="white"/>
<path id="Vector_75" d="M153.731 274.403C152.256 274.403 150.336 270.978 149.505 265.099C150.871 265.213 152.288 265.272 153.731 265.272C155.175 265.272 156.591 265.213 157.958 265.099C157.126 270.978 155.207 274.403 153.731 274.403Z" fill="white"/>
<path id="Vector_76" d="M160.042 263.046C160.158 261.702 160.218 260.308 160.218 258.889C160.218 257.471 160.158 256.08 160.043 254.738C161.284 254.908 162.462 255.129 163.545 255.397L163.136 255.57C162.668 255.768 162.451 256.303 162.653 256.764C162.854 257.226 163.398 257.438 163.866 257.239L166.408 256.164C166.877 255.965 167.093 255.431 166.892 254.969L165.798 252.469C165.647 252.126 165.306 251.919 164.948 251.919C164.827 251.919 164.703 251.943 164.584 251.994C164.115 252.192 163.899 252.727 164.1 253.188L164.332 253.719C162.965 253.364 161.449 253.082 159.843 252.878C159.559 250.699 159.119 248.696 158.541 246.988C158.091 245.658 157.575 244.562 157.005 243.712C164.133 245.2 169.498 251.439 169.498 258.889C169.498 260.34 166.018 262.229 160.042 263.046Z" fill="white"/>
<path id="Vector_77" d="M149.289 263.259C149.162 261.905 149.091 260.446 149.091 258.889C149.091 257.331 149.162 255.872 149.289 254.519C150.665 254.393 152.148 254.324 153.731 254.324C155.246 254.324 156.74 254.392 158.173 254.524C158.299 255.876 158.37 257.333 158.37 258.889C158.37 260.446 158.299 261.905 158.172 263.259C156.797 263.384 155.314 263.454 153.731 263.454C152.148 263.454 150.665 263.384 149.289 263.259Z" fill="white"/>
<path id="Vector_78" d="M153.731 252.506C152.288 252.506 150.871 252.565 149.505 252.678C150.336 246.799 152.256 243.375 153.731 243.375C155.207 243.375 157.127 246.8 157.958 252.681C156.585 252.565 155.166 252.506 153.731 252.506Z" fill="white"/>
<path id="Vector_79" d="M150.456 243.712C149.886 244.562 149.371 245.658 148.92 246.988C148.342 248.695 147.903 250.697 147.619 252.875C145.405 253.154 143.371 253.587 141.636 254.155C140.283 254.599 139.171 255.106 138.307 255.667C139.594 249.693 144.385 244.978 150.456 243.712Z" fill="white"/>
<path id="Vector_80" d="M169.155 262.111C167.867 268.084 163.076 272.799 157.005 274.065C157.575 273.215 158.091 272.119 158.541 270.789C159.119 269.082 159.559 267.08 159.842 264.902C162.056 264.623 164.091 264.19 165.825 263.622C167.177 263.178 168.291 262.671 169.155 262.111Z" fill="white"/>
<path id="Vector_81" d="M141.635 263.622C143.37 264.19 145.405 264.623 147.619 264.902C147.903 267.08 148.341 269.082 148.92 270.789C149.37 272.119 149.886 273.215 150.456 274.065C144.385 272.799 139.594 268.084 138.306 262.111C139.17 262.671 140.283 263.178 141.635 263.622Z" fill="white"/>
</g>
</g>
</g>
</g>
</g>
<defs>
<filter id="filter0_d_1_2" x="122.153" y="228.739" width="73.1564" height="71.2684" filterUnits="userSpaceOnUse" color-interpolation-filters="sRGB">
<feFlood flood-opacity="0" result="BackgroundImageFix"/>
<feColorMatrix in="SourceAlpha" type="matrix" values="0 0 0 0 0 0 0 0 0 0 0 0 0 0 0 0 0 0 127 0" result="hardAlpha"/>
<feOffset dx="5" dy="5"/>
<feGaussianBlur stdDeviation="4"/>
<feColorMatrix type="matrix" values="0 0 0 0 0 0 0 0 0 0 0 0 0 0 0 0 0 0 0.2 0"/>
<feBlend mode="normal" in2="BackgroundImageFix" result="effect1_dropShadow_1_2"/>
<feBlend mode="normal" in="SourceGraphic" in2="effect1_dropShadow_1_2" result="shape"/>
</filter>
<radialGradient id="paint0_radial_1_2" cx="0" cy="0" r="1" gradientUnits="userSpaceOnUse" gradientTransform="translate(246.719 299.865) rotate(0.184732) scale(27.9338 5.77672)">
<stop stop-color="#7B7EC9"/>
<stop offset="0.3883" stop-color="#BFD8F5"/>
<stop offset="1" stop-color="white"/>
</radialGradient>
<radialGradient id="paint1_radial_1_2" cx="0" cy="0" r="1" gradientUnits="userSpaceOnUse" gradientTransform="translate(246.828 274.817) scale(18.4678 17.9795)">
<stop stop-color="#81D884"/>
<stop offset="1" stop-color="#2DA531"/>
</radialGradient>
<clipPath id="clip0_1_2">
<rect width="542" height="383" fill="white"/>
</clipPath>
</defs>
</svg>
